<svg clip-rule="evenodd" fill-rule="evenodd" stroke-linejoin="round" stroke-miterlimit="2" viewBox="0 0 934 1300" xmlns="http://www.w3.org/2000/svg"><g fill-rule="nonzero"><path d="M899.918 1241.94h-12.961v-131.28h12.961zm-51.381 0c12.482 0 22.504-11.2 22.504-25.1v-81.09c0-13.89-10.022-25.1-22.504-25.1h-7.263c-12.481 0-22.529 11.21-22.529 25.1v81.09c0 13.9 10.048 25.1 22.529 25.1zm-3.751-12.42c-7.363 0-13.296-5.57-13.296-12.5v-82.18c0-6.94 5.933-12.52 13.296-12.52 7.376 0 13.297 5.58 13.297 12.52v82.18c0 6.93-5.921 12.5-13.297 12.5zM33.393 58.067h12.962v131.279H33.393zm51.373 0c-12.475 0-22.503 11.198-22.503 25.095v81.092c0 13.904 10.028 25.095 22.503 25.095h7.272c12.475 0 22.522-11.191 22.522-25.095V83.162c0-13.897-10.047-25.095-22.522-25.095zm3.756 12.412c7.366 0 13.297 5.57 13.297 12.506v82.179c0 6.937-5.931 12.526-13.297 12.526-7.372 0-13.297-5.589-13.297-12.526V82.985c0-6.936 5.925-12.506 13.297-12.506zm559.957 558.966c12-24.067 20.709-48.754 22.292-75.158 1.417-9.713-4.5-9.875-5.375-3.034-17 64.967-107.333 47.375-104.25-13.737 2.542-49.563 51.75-60.225 77.417-44.017 10.166 5.967 9.583 2.392 4.041-3.8-38.125-42.55-15.041-97.341 36.5-98.346 55.75 3.309 70.209 61.959 36.042 96.455-4.25 4.141-13.708 17.462.5 8.15 34.542-24.534 82.458 1.845 81.458 39.666-1.791 69.75-86.833 74.95-105 16.696-1.75-6.458-6.791-9.708-5.416 1.267 2.541 19.858 7.75 49.804 22.666 75.858zm-431.416 0c12-24.067 20.75-48.754 22.291-75.158 1.459-9.713-4.458-9.875-5.333-3.034-17 64.967-107.375 47.375-104.25-13.737 2.5-49.563 51.75-60.225 77.417-44.017 10.125 5.967 9.583 2.392 4.041-3.8-38.166-42.55-15.041-97.341 36.5-98.346 55.75 3.309 70.209 61.959 36 96.455-4.25 4.141-13.666 17.462.542 8.15 34.5-24.534 82.417 1.845 81.458 39.666-1.791 69.75-86.833 74.95-105 16.696-1.75-6.458-6.791-9.708-5.416 1.267 2.541 19.858 7.75 49.804 22.666 75.858zm215.5-136.108c12-24.063 20.75-48.75 22.291-75.154 1.417-9.717-4.5-9.875-5.375-3.038-17 64.971-107.333 47.375-104.25-13.733 2.542-49.563 51.75-60.225 77.459-44.021 10.125 5.971 9.541 2.396 4-3.796-38.125-42.55-15.042-97.342 36.5-98.346 55.75 3.309 70.25 61.959 36.041 96.45-4.25 4.146-13.666 17.467.5 8.154 34.542-24.533 82.459 1.846 81.5 39.667-1.833 69.75-86.875 74.95-105.041 16.692-1.75-6.459-6.792-9.7-5.375 1.271 2.5 19.858 7.708 49.804 22.625 75.854zm215.916-136.104c12-24.067 20.709-48.755 22.292-75.155 1.417-9.716-4.5-9.879-5.375-3.037-17 64.971-107.333 47.375-104.25-13.733 2.542-49.563 51.75-60.225 77.417-44.021 10.166 5.971 9.583 2.396 4.041-3.8-38.125-42.546-15.041-97.342 36.5-98.342 55.75 3.304 70.209 61.958 36.042 96.45-4.25 4.146-13.708 17.463.5 8.15 34.542-24.533 82.458 1.846 81.458 39.671-1.791 69.746-86.833 74.946-105 16.692-1.75-6.459-6.791-9.705-5.416 1.266 2.541 19.863 7.75 49.809 22.666 75.859zm-431.416 0c12-24.067 20.75-48.755 22.291-75.155 1.459-9.716-4.458-9.879-5.333-3.037-17 64.971-107.375 47.375-104.25-13.733 2.5-49.563 51.75-60.225 77.417-44.021 10.125 5.971 9.583 2.396 4.041-3.8-38.166-42.546-15.041-97.342 36.5-98.342 55.75 3.304 70.209 61.958 36 96.45-4.25 4.146-13.666 17.463.542 8.15 34.5-24.533 82.417 1.846 81.458 39.671-1.791 69.746-86.833 74.946-105 16.692-1.75-6.459-6.791-9.705-5.416 1.266 2.541 19.863 7.75 49.809 22.666 75.859zm61.291 313.329c-12 24.066-20.75 48.754-22.291 75.158-1.417 9.713 4.458 9.875 5.375 3.033 16.958-64.966 107.333-47.375 104.208 13.738-2.5 49.562-51.75 60.225-77.417 44.017-10.125-5.967-9.541-2.392-4.041 3.8 38.166 42.55 15.041 97.341-36.5 98.345-55.75-3.308-70.209-61.958-36-96.454 4.25-4.141 13.666-17.462-.5-8.15-34.542 24.534-82.459-1.846-81.5-39.666 1.833-69.75 86.833-74.95 105.041-16.696 1.75 6.458 6.792 9.708 5.375-1.267-2.5-19.858-7.75-49.804-22.666-75.858zm0 272.212c-12 24.067-20.75 48.754-22.291 75.156-1.417 9.71 4.458 9.88 5.375 3.04 16.958-64.975 107.333-47.379 104.208 13.73-2.5 49.56-51.75 60.22-77.417 44.02-10.125-5.97-9.541-2.4-4.041 3.8 38.166 42.55 15.041 97.34-36.5 98.34-55.75-3.3-70.209-61.96-36-96.45 4.25-4.14 13.666-17.46-.5-8.15-34.542 24.54-82.459-1.84-81.5-39.67 1.833-69.745 86.833-74.945 105.041-16.69 1.75 6.46 6.792 9.7 5.375-1.27-2.5-19.86-7.75-49.806-22.666-75.856zm431.375-272.212c-12 24.066-20.75 48.754-22.291 75.158-1.417 9.713 4.5 9.875 5.375 3.033 17-64.966 107.333-47.375 104.25 13.738-2.542 49.562-51.75 60.225-77.417 44.017-10.167-5.967-9.583-2.392-4.042 3.8 38.125 42.55 15.042 97.341-36.5 98.345-55.791-3.308-70.25-61.958-36.041-96.454 4.25-4.141 13.666-17.462-.5-8.15-34.542 24.534-82.459-1.846-81.459-39.666 1.792-69.75 86.834-74.95 105-16.696 1.75 6.458 6.792 9.708 5.375-1.267-2.5-19.858-7.708-49.804-22.625-75.858zm0 272.212c-12 24.067-20.75 48.754-22.291 75.156-1.417 9.71 4.5 9.88 5.375 3.04 17-64.975 107.333-47.379 104.25 13.73-2.542 49.56-51.75 60.22-77.417 44.02-10.167-5.97-9.583-2.4-4.042 3.8 38.125 42.55 15.042 97.34-36.5 98.34-55.791-3.3-70.25-61.96-36.041-96.45 4.25-4.14 13.666-17.46-.5-8.15-34.542 24.54-82.459-1.84-81.459-39.67 1.792-69.745 86.834-74.945 105-16.69 1.75 6.46 6.792 9.7 5.375-1.27-2.5-19.86-7.708-49.806-22.625-75.856zM495.771 806.67c-12 24.063-20.75 48.75-22.292 75.154-1.416 9.717 4.5 9.875 5.375 3.038 17-64.971 107.334-47.375 104.25 13.733-2.541 49.563-51.75 60.225-77.458 44.021-10.125-5.971-9.542-2.396-4 3.796 38.125 42.55 15.042 97.338-36.5 98.348-55.75-3.31-70.208-61.961-36.042-96.452 4.25-4.146 13.709-17.467-.5-8.155-34.541 24.534-82.458-1.845-81.458-39.666 1.792-69.75 86.833-74.95 105-16.692 1.75 6.458 6.792 9.7 5.375-1.271-2.5-19.858-7.708-49.804-22.625-75.854zM56.438 313.903c4.958-10.187 9.791-19.67 12.458-30.837 1.75-10.533-1.833-6.621-3.875.283-3 9.571-11.333 13.934-19.083 14.038-14.042.187-21.042-10.85-20.625-22.725-1.5-12.496 11.125-21.334 20.666-20.654 7.209.512 13.459 4.383 17.25 7.395 2.459 1.317 5.125 1.896 1.417-1.491-7-7.638-12.792-12.35-12.667-23.792.125-10.75 9.292-21.954 21.459-21.604 15.208.442 22.125 12.042 22.125 22.833-.042 7.875-4 15.113-10.084 19.6-3.916 3.192-2.833 5.584 1.667 2.559 4.333-3.717 9.458-5.342 14.792-5.459 14.541-.225 20.208 12.342 19.375 24.021-.792 10.938-10.084 22.2-22.375 20.925-10.959-1.258-16.709-10.458-20-19.904-1.084-2.896-2.834-3.679-2.792.637 2.542 21.075 10.375 34.188 10.458 34.175zm820.458 675.013c-5 10.187-9.833 19.664-12.458 30.834-1.75 10.53 1.833 6.62 3.875-.28 3-9.58 11.333-13.93 19.083-14.04 14.042-.19 21.042 10.85 20.625 22.73 1.5 12.49-11.167 21.33-20.708 20.65-7.167-.51-13.417-4.39-17.209-7.4-2.5-1.31-5.125-1.89-1.416 1.5 6.958 7.64 12.791 12.35 12.666 23.79-.125 10.75-9.291 21.95-21.458 21.6-15.25-.44-22.167-12.04-22.125-22.83.042-7.87 4-15.11 10.042-19.6 3.958-3.19 2.833-5.58-1.625-2.56-4.334 3.71-9.459 5.34-14.792 5.46-14.542.23-20.208-12.34-19.375-24.02.75-10.94 10.083-22.2 22.375-20.93 10.958 1.26 16.708 10.46 20 19.91 1.083 2.89 2.833 3.68 2.792-.64-2.542-21.07-10.417-34.187-10.459-34.174z"/></g></svg>