<svg clip-rule="evenodd" fill-rule="evenodd" stroke-linejoin="round" stroke-miterlimit="2" viewBox="0 0 934 1300" xmlns="http://www.w3.org/2000/svg"><g fill="#d40000" fill-rule="nonzero"><path d="M138.427 239.184c41.333-40.342 68.479-84.322 94.445-126.621 22.768 46.539 55.433 87.257 90.77 126.621-37.808 39.025-67.099 80.772-90.657 124.651-26.117-44.983-53.613-85.714-94.558-124.651zm0 272.208c41.333-40.342 68.479-84.322 94.445-126.621 22.768 46.539 55.433 87.258 90.77 126.621-37.808 39.025-67.099 80.772-90.657 124.652-26.117-44.984-53.613-85.715-94.558-124.652zm0 278.73c41.333-40.339 68.479-84.322 94.445-126.619 22.768 46.541 55.433 87.258 90.77 126.619-37.808 39.035-67.099 80.776-90.657 124.657-26.117-44.982-53.613-85.715-94.558-124.657zm0 271.268c41.333-40.34 68.479-84.318 94.445-126.617 22.768 46.541 55.433 87.257 90.77 126.617-37.808 39.04-67.099 80.78-90.657 124.66-26.117-44.98-53.613-85.71-94.558-124.66zm234.087-679.027c41.333-40.342 68.491-84.322 94.445-126.621 22.768 46.539 55.445 87.257 90.782 126.621-37.808 39.025-67.111 80.772-90.669 124.651-26.104-44.983-53.601-85.714-94.558-124.651zm-1.944 534.75c41.333-40.339 68.478-84.322 94.445-126.619 22.767 46.541 55.445 87.258 90.782 126.619-37.808 39.035-67.111 80.776-90.669 124.657-26.117-44.983-53.602-85.715-94.558-124.657zm232.569-677.929c41.333-40.342 68.478-84.322 94.445-126.621 22.767 46.539 55.445 87.257 90.782 126.621-37.808 39.025-67.112 80.772-90.669 124.651-26.117-44.983-53.602-85.714-94.558-124.651zm0 272.208c41.333-40.342 68.478-84.322 94.445-126.621 22.767 46.539 55.445 87.258 90.782 126.621-37.808 39.025-67.112 80.772-90.669 124.652-26.117-44.984-53.602-85.715-94.558-124.652zm0 278.73c41.333-40.339 68.478-84.322 94.445-126.619 22.767 46.541 55.445 87.258 90.782 126.619-37.808 39.035-67.112 80.776-90.669 124.657-26.117-44.982-53.602-85.715-94.558-124.657zm0 271.268c41.333-40.34 68.478-84.318 94.445-126.617 22.767 46.541 55.445 87.257 90.782 126.617-37.808 39.04-67.112 80.78-90.669 124.66-26.117-44.98-53.602-85.71-94.558-124.66zm218.845-25.18c16.935-16.53 28.061-34.54 38.699-51.871 9.32 19.061 22.705 35.741 37.181 51.871-15.492 15.99-27.484 33.09-37.143 51.06-10.701-18.42-21.953-35.11-38.737-51.06zM35.264 261.801c16.935-16.521 28.049-34.534 38.686-51.87 9.333 19.067 22.718 35.751 37.194 51.87-15.492 15.994-27.497 33.091-37.143 51.067-10.701-18.427-21.965-35.111-38.737-51.067zM33.332 58.059h12.962v131.277H33.332zm51.381 0c-12.481 0-22.516 11.201-22.516 25.1v81.086c0 13.899 10.035 25.101 22.516 25.101h7.263c12.482 0 22.53-11.202 22.53-25.101V83.159c0-13.899-10.048-25.1-22.53-25.1zm3.751 12.418c7.363 0 13.297 5.57 13.297 12.507v82.177c0 6.937-5.934 12.519-13.297 12.519-7.376 0-13.297-5.582-13.297-12.519V82.984c0-6.937 5.921-12.507 13.297-12.507zm811.41 1171.463h-12.962v-131.28h12.962zm-51.373 0c12.475 0 22.503-11.2 22.503-25.1v-81.09c0-13.9-10.028-25.09-22.503-25.09h-7.272c-12.475 0-22.522 11.19-22.522 25.09v81.09c0 13.9 10.047 25.1 22.522 25.1zm-3.756-12.41c-7.366 0-13.297-5.57-13.297-12.51v-82.18c0-6.93 5.931-12.52 13.297-12.52 7.372 0 13.297 5.59 13.297 12.52v82.18c0 6.94-5.925 12.51-13.297 12.51z"/></g></svg>