<svg clip-rule="evenodd" fill-rule="evenodd" stroke-linejoin="round" stroke-miterlimit="2" viewBox="0 0 934 1300" xmlns="http://www.w3.org/2000/svg"><g fill-rule="nonzero"><path d="M886.966 1110.67h12.962v131.278h-12.962zm-38.419 131.28c12.481 0 22.517-11.2 22.517-25.1v-81.08c0-13.9-10.036-25.11-22.517-25.11h-7.263c-12.482 0-22.53 11.21-22.53 25.11v81.08c0 13.9 10.048 25.1 22.53 25.1zm-3.751-12.42c-7.363 0-13.297-5.57-13.297-12.5v-82.18c0-6.94 5.934-12.52 13.297-12.52 7.376 0 13.297 5.58 13.297 12.52v82.18c0 6.93-5.921 12.5-13.297 12.5zM33.365 58.049h12.962v131.278H33.365zm51.373 0c-12.475 0-22.503 11.198-22.503 25.095v81.091c0 13.904 10.028 25.095 22.503 25.095h7.271c12.475 0 22.522-11.191 22.522-25.095V83.144c0-13.897-10.047-25.095-22.522-25.095zm3.756 12.412c7.366 0 13.297 5.57 13.297 12.506v82.178c0 6.936-5.931 12.526-13.297 12.526-7.373 0-13.297-5.59-13.297-12.526V82.967c0-6.936 5.924-12.506 13.297-12.506zM222.15 285.895c.042-8.442-6.625-8.6-6.541-2.442-.584 30.955-26.75 46.196-45.75 42.58-29.334-5.575-38.667-34.675-38.417-51.813.875-52.904 54.125-91.912 102.167-159.729 35.208 61.212 93.333 109.292 96.791 156.608 4.542 62.909-75.041 86.371-86.416 13.05-.75-5.179-6.834-7.504-6.375-.271 1.75 20.096-.709 28.467 21.958 78h-59.25c13.125-23.145 20.917-51.562 21.833-75.983zm232.125 136.104c.084-8.437-6.625-8.6-6.541-2.437-.542 30.95-26.709 46.191-45.75 42.575-29.292-5.571-38.667-34.675-38.375-51.813.833-52.9 54.125-91.912 102.166-159.729 35.209 61.213 93.334 109.292 96.75 156.608 4.584 62.909-75.041 86.375-86.416 13.055-.709-5.18-6.834-7.505-6.334-.271 1.709 20.091-.75 28.462 21.917 77.996h-59.25c13.125-23.146 20.958-51.559 21.833-75.984zm232.584-136.104c.041-8.442-6.625-8.6-6.542-2.442-.583 30.955-26.75 46.196-45.75 42.58-29.333-5.575-38.667-34.675-38.417-51.813.875-52.904 54.125-91.912 102.167-159.729 35.25 61.212 93.333 109.292 96.792 156.608 4.583 62.909-75.042 86.371-86.417 13.05-.708-5.179-6.833-7.504-6.375-.271 1.75 20.096-.708 28.467 21.958 78h-59.25c13.125-23.145 20.917-51.562 21.834-75.983zm0 272.213c.041-8.442-6.625-8.605-6.542-2.442-.583 30.95-26.75 46.192-45.75 42.579-29.333-5.575-38.667-34.679-38.417-51.817.875-52.9 54.125-91.908 102.167-159.725 35.25 61.209 93.333 109.288 96.792 156.605 4.583 62.908-75.042 86.375-86.417 13.054-.708-5.179-6.833-7.504-6.375-.271 1.75 20.096-.708 28.462 21.958 77.996h-59.25c13.125-23.142 20.917-51.559 21.834-75.979zm-464.709 0c.042-8.442-6.625-8.605-6.541-2.442-.584 30.95-26.75 46.192-45.75 42.579-29.334-5.575-38.667-34.679-38.417-51.817.875-52.9 54.125-91.908 102.167-159.725 35.208 61.209 93.333 109.288 96.791 156.605 4.542 62.908-75.041 86.375-86.416 13.054-.75-5.179-6.834-7.504-6.375-.271 1.75 20.096-.709 28.462 21.958 77.996h-59.25c13.125-23.142 20.917-51.559 21.833-75.979zM686.9 741.999c.042 8.442-6.625 8.6-6.541 2.442-.542-30.954-26.75-46.196-45.75-42.579-29.334 5.575-38.667 34.675-38.417 51.812.875 52.904 54.125 91.913 102.167 159.729 35.25-61.212 93.333-109.291 96.791-156.608 4.584-62.908-75.041-86.371-86.416-13.05-.709 5.179-6.834 7.504-6.375.271 1.75-20.096-.709-28.467 21.958-78h-59.25c13.125 23.146 20.917 51.562 21.833 75.983zm0 272.211c.042 8.44-6.625 8.6-6.541 2.44-.542-30.951-26.75-46.192-45.75-42.576-29.334 5.571-38.667 34.676-38.417 51.816.875 52.9 54.125 91.91 102.167 159.73 35.25-61.22 93.333-109.3 96.791-156.61 4.584-62.911-75.041-86.377-86.416-13.06-.709 5.18-6.834 7.51-6.375.27 1.75-20.087-.709-28.458 21.958-77.992h-59.25c13.125 23.146 20.917 51.559 21.833 75.982zM456.275 878.103c.084 8.442-6.625 8.605-6.541 2.442-.542-30.954-26.75-46.192-45.75-42.579-29.334 5.575-38.667 34.675-38.375 51.817.833 52.9 54.083 91.908 102.166 159.727 35.209-61.211 93.292-109.29 96.75-156.607 4.584-62.908-75.041-86.375-86.416-13.054-.709 5.179-6.834 7.504-6.334.271 1.709-20.096-.75-28.462 21.917-78h-59.25c13.125 23.146 20.958 51.563 21.833 75.983zM222.192 741.999c.042 8.442-6.625 8.6-6.542 2.442-.583-30.954-26.75-46.196-45.75-42.579-29.333 5.575-38.666 34.675-38.416 51.812.875 52.904 54.125 91.913 102.166 159.729 35.209-61.212 93.334-109.291 96.792-156.608 4.542-62.908-75.042-86.371-86.417-13.05-.75 5.179-6.833 7.504-6.375.271 1.75-20.096-.708-28.467 21.959-78h-59.25c13.125 23.146 20.916 51.562 21.833 75.983zm0 272.211c.042 8.44-6.625 8.6-6.542 2.44-.583-30.951-26.75-46.192-45.75-42.576-29.333 5.571-38.666 34.676-38.416 51.816.875 52.9 54.125 91.91 102.166 159.73 35.209-61.22 93.334-109.3 96.792-156.61 4.542-62.911-75.042-86.377-86.417-13.06-.75 5.18-6.833 7.51-6.375.27 1.75-20.087-.708-28.458 21.959-77.992h-59.25c13.125 23.146 20.916 51.559 21.833 75.982zM71.525 291.52c.042-3.633-3.75-1.937-4.25-.796-4.833 8.275-11.916 10.2-18.958 7.217-6.917-2.954-10.833-9.5-10.208-18.842 1.291-14.325 12.666-30 18.125-38.858 5.25-8.042 10.958-17.592 17-29.808 7.083 14.012 10.666 18 18.375 30.795 6.75 11.267 16.208 22.305 16.916 35.925 0 10.355-4.333 20.134-14.166 21.917-5.542 1.008-10.709-1.842-14.584-8.487-1.166-1.696-3.541-.813-3.5 1.508.709 8.721 4 16.596 11.792 25.883H59.359c5.875-6.566 11.875-15.433 12.166-26.454zm786.709 719.77c.041 3.63-3.709 1.94-4.209.79-4.875-8.27-11.958-10.19-18.958-7.21-6.958 2.95-10.875 9.5-10.208 18.84 1.291 14.33 12.625 30 18.125 38.86 5.208 8.04 10.958 17.59 17 29.81 7.041-14.01 10.666-18 18.333-30.8 6.792-11.27 16.208-22.3 16.958-35.93 0-10.35-4.375-20.13-14.166-21.91-5.542-1.01-10.75 1.84-14.584 8.49-1.208 1.69-3.541.81-3.5-1.51.667-8.72 3.959-16.596 11.792-25.883h-28.708c5.875 6.566 11.875 15.433 12.125 26.453z"/></g></svg>