<svg clip-rule="evenodd" fill-rule="evenodd" stroke-linejoin="round" stroke-miterlimit="2" viewBox="0 0 934 1300" xmlns="http://www.w3.org/2000/svg"><g fill-rule="nonzero"><path d="M35.663 194.713l.69-8.417c2.12-25.992 7.815-34.773 40.091-61.894 15.668-13.159 20.811-19.657 21.526-27.196 2.045-17.75-13.962-23.294-24.386-23.382-13.51-.126-28.789 7.965-21.513 26.719l-15.154 4.453c-3.048-17.499.075-33.932 14.276-41.22 18.941-9.496 43.252-5.771 55.52 9.195 8.242 10.06 10.111 23.947 5.695 34.81-12.92 27.798-56.75 40.029-60.375 72.167h48.458V162.06h14.276v32.941zm860.874 910.577l-.69 8.4c-2.12 26.01-7.815 34.79-40.091 61.91-15.668 13.16-20.811 19.64-21.539 27.18-2.045 17.75 13.974 23.3 24.399 23.4 13.51.12 28.789-7.97 21.501-26.74l15.153-4.44c3.061 17.5-.063 33.92-14.263 41.22-18.942 9.5-43.252 5.78-55.521-9.19-8.241-10.06-10.11-23.95-5.695-34.82 12.921-27.8 56.75-40.02 60.376-72.17h-48.459v17.9h-14.275V1105zM436.038 354.86c11.995-24.062 20.733-48.754 22.283-75.154 1.425-9.716-4.475-9.879-5.367-3.037-16.983 64.971-107.346 47.379-104.237-13.734 2.521-49.562 51.746-60.225 77.425-44.02 10.141 5.97 9.566 2.395 4.033-3.8-38.146-42.546-15.042-97.338 36.504-98.342 55.75 3.304 70.213 61.958 36.017 96.45-4.25 4.146-13.679 17.467.512 8.154 34.53-24.533 82.45 1.846 81.471 39.667-1.804 69.746-86.829 74.95-105.012 16.691-1.75-6.458-6.788-9.7-5.396 1.267 2.521 19.863 7.733 49.808 22.654 75.858zm61.258 590.28c-11.996 24.066-20.733 48.754-22.283 75.15-1.425 9.72 4.479 9.88 5.366 3.04 16.984-64.97 107.346-47.374 104.238 13.74-2.521 49.56-51.746 60.22-77.425 44.02-10.142-5.97-9.567-2.4-4.034 3.79 38.146 42.55 15.042 97.34-36.504 98.35-55.75-3.31-70.212-61.96-36.017-96.45 4.25-4.15 13.68-17.46-.512-8.15-34.529 24.53-82.45-1.85-81.471-39.67 1.804-69.75 86.829-74.95 105.013-16.7 1.75 6.46 6.787 9.71 5.396-1.26-2.521-19.87-7.734-49.81-22.655-75.86zM58.723 311.45c4.967-10.187 9.8-19.671 12.433-30.837 1.746-10.53-1.825-6.617-3.854.283-3.004 9.575-11.346 13.933-19.083 14.037-14.046.192-21.054-10.85-20.617-22.725-1.533-12.491 11.129-21.333 20.675-20.65 7.175.513 13.433 4.384 17.221 7.396 2.483 1.313 5.142 1.892 1.433-1.496-6.987-7.637-12.816-12.35-12.691-23.795.12-10.742 9.308-21.95 21.483-21.596 15.212.437 22.133 12.041 22.096 22.833-.042 7.871-3.971 15.108-10.046 19.596-3.938 3.192-2.833 5.583 1.654 2.562 4.313-3.716 9.446-5.345 14.771-5.458 14.546-.229 20.229 12.338 19.396 24.017-.779 10.941-10.096 22.2-22.371 20.925-10.958-1.254-16.721-10.459-20.021-19.904-1.092-2.896-2.817-3.675-2.767.637 2.53 21.075 10.38 34.188 10.438 34.175zM874.61 988.188c-4.966 10.187-9.8 19.672-12.433 30.832-1.75 10.54 1.825 6.63 3.854-.28 3.004-9.57 11.342-13.93 19.084-14.04 14.045-.18 21.054 10.85 20.616 22.73 1.534 12.49-11.129 21.33-20.675 20.65-7.175-.51-13.433-4.38-17.221-7.39-2.483-1.32-5.141-1.9-1.437 1.49 6.992 7.64 12.821 12.35 12.692 23.79-.121 10.75-9.305 21.95-21.48 21.61-15.216-.45-22.133-12.05-22.095-22.84.041-7.87 3.97-15.11 10.045-19.6 3.934-3.19 2.83-5.58-1.658-2.56-4.312 3.72-9.446 5.34-14.771 5.46-14.541.23-20.229-12.34-19.396-24.02.784-10.94 10.096-22.2 22.371-20.92 10.963 1.25 16.721 10.45 20.021 19.9 1.096 2.9 2.817 3.68 2.771-.64-2.533-21.07-10.383-34.185-10.438-34.172z"/></g></svg>