<svg clip-rule="evenodd" fill-rule="evenodd" stroke-linejoin="round" stroke-miterlimit="2" viewBox="0 0 934 1300" xmlns="http://www.w3.org/2000/svg"><g fill="#d40000" fill-rule="nonzero"><path d="M374.052 236.799c41.334-40.343 68.492-84.323 94.446-126.622 22.768 46.539 55.446 87.258 90.783 126.622-37.809 39.037-67.112 80.772-90.67 124.652-26.117-44.984-53.602-85.715-94.559-124.652zm0 828.361c41.334-40.33 68.492-84.324 94.446-126.623 22.768 46.551 55.446 87.273 90.783 126.623-37.809 39.04-67.112 80.78-90.67 124.66-26.117-44.98-53.602-85.71-94.559-124.66zm445.539-26.85c16.935-16.53 28.061-34.54 38.699-51.867 9.32 19.057 22.705 35.737 37.181 51.867-15.492 15.99-27.484 33.08-37.144 51.06-10.7-18.43-21.952-35.11-38.736-51.06zM37.821 262.176c16.934-16.521 28.061-34.547 38.699-51.871 9.32 19.067 22.705 35.751 37.181 51.871-15.492 15.994-27.485 33.091-37.144 51.067-10.7-18.427-21.952-35.111-38.736-51.067zm-1.612-67.463l.69-8.417c2.12-25.992 7.815-34.773 40.091-61.894 15.668-13.159 20.811-19.657 21.526-27.196 2.045-17.75-13.962-23.294-24.386-23.382-13.51-.126-28.789 7.965-21.513 26.719l-15.154 4.453c-3.048-17.499.075-33.932 14.275-41.22 18.942-9.496 43.253-5.771 55.521 9.195 8.242 10.06 10.111 23.947 5.695 34.81-12.92 27.798-56.75 40.029-60.375 72.167h48.458V162.06h14.276v32.941zm860.874 910.577l-.69 8.4c-2.12 26.01-7.815 34.79-40.091 61.91-15.668 13.16-20.811 19.64-21.539 27.18-2.045 17.75 13.974 23.3 24.399 23.4 13.51.12 28.789-7.97 21.501-26.74l15.153-4.44c3.061 17.5-.063 33.92-14.263 41.22-18.942 9.5-43.252 5.78-55.521-9.19-8.241-10.06-10.11-23.95-5.695-34.82 12.921-27.8 56.75-40.02 60.376-72.17h-48.459v17.9h-14.275V1105z"/></g></svg>