<svg clip-rule="evenodd" fill-rule="evenodd" stroke-linejoin="round" stroke-miterlimit="2" viewBox="0 0 934 1300" xmlns="http://www.w3.org/2000/svg"><g fill="#d40000" fill-rule="nonzero"><path d="M39.442 251.338c-6.583-14.467-7.333-39.188 12.375-42.534 14.834-1.908 20.875 4.996 22.084 15.592.583 3.096 2.333 3.287 2.916-.242.834-10.875 11.584-17.221 20-15.625 23.042 3.938 21.709 29.284 14.167 46.479-11.375 22.834-23.333 37.242-34.333 60.217-12.667-23.921-27.125-43.354-37.209-63.887zM821.609 1048.3c-6.583 14.47-7.292 39.19 12.417 42.54 14.833 1.91 20.875-4.99 22.083-15.59.583-3.1 2.333-3.29 2.875.24.833 10.87 11.625 17.22 20.042 15.62 23-3.94 21.666-29.28 14.125-46.48-11.375-22.83-23.334-37.24-34.334-60.213-12.666 23.923-27.125 43.353-37.208 63.883zM36.03 194.713l.69-8.417c2.12-25.992 7.815-34.773 40.091-61.894 15.668-13.159 20.811-19.657 21.526-27.196 2.045-17.75-13.961-23.294-24.386-23.382-13.51-.126-28.789 7.965-21.513 26.719l-15.153 4.453c-3.049-17.499.075-33.932 14.275-41.22 18.942-9.496 43.252-5.771 55.521 9.195 8.241 10.06 10.11 23.947 5.695 34.81-12.921 27.798-56.75 40.029-60.376 72.167h48.459V162.06h14.275v32.941zm860.522 910.577l-.69 8.4c-2.12 26.01-7.815 34.79-40.092 61.91-15.667 13.16-20.81 19.64-21.538 27.18-2.045 17.75 13.974 23.3 24.399 23.4 13.51.12 28.789-7.97 21.5-26.74l15.154-4.44c3.061 17.5-.063 33.92-14.263 41.22-18.942 9.5-43.253 5.78-55.521-9.19-8.241-10.06-10.11-23.95-5.695-34.82 12.921-27.8 56.75-40.02 60.376-72.17h-48.459v17.9h-14.275V1105zM416.466 116.037c29.75-1.975 45.292 23.45 48.333 43.488 1.792 3.183 2.792 2.283 3.459-.175 1.458-25.729 24.5-46.754 45.791-43.879 34.709.454 55.792 39.066 49.875 71.746-7.25 39.925-28.75 63.962-45.041 88.72-18.417 25.638-43.209 62.667-51.209 80.488 0 0-25.208-38.35-57.958-83.458-21.958-30.159-39.5-62.842-41.125-90.98-1.875-32.145 11.333-60.966 47.875-65.95zm0 1067.923c29.75 1.98 45.292-23.45 48.333-43.48 1.792-3.19 2.792-2.29 3.459.17 1.458 25.73 24.5 46.75 45.791 43.88 34.709-.45 55.792-39.07 49.875-71.75-7.25-39.92-28.75-63.96-45.041-88.72-18.417-25.631-43.209-62.664-51.209-80.485 0 0-25.208 38.354-57.958 83.455-21.958 30.16-39.5 62.85-41.125 90.98-1.875 32.15 11.333 60.97 47.875 65.95z"/></g></svg>