<svg clip-rule="evenodd" fill-rule="evenodd" stroke-linejoin="round" stroke-miterlimit="2" viewBox="0 0 934 1300" xmlns="http://www.w3.org/2000/svg"><g fill-rule="nonzero"><path d="M36.032 194.713l.69-8.417c2.12-25.992 7.815-34.773 40.091-61.894 15.668-13.159 20.811-19.657 21.526-27.196 2.045-17.75-13.962-23.294-24.386-23.382-13.51-.126-28.789 7.965-21.513 26.719l-15.154 4.453c-3.048-17.499.076-33.932 14.276-41.22 18.941-9.496 43.252-5.771 55.52 9.195 8.242 10.06 10.111 23.947 5.696 34.81-12.921 27.798-56.751 40.029-60.376 72.167h48.459V162.06h14.275v32.941zm861.072 910.577l-.69 8.4c-2.12 26.01-7.815 34.79-40.091 61.91-15.668 13.16-20.811 19.64-21.539 27.18-2.044 17.75 13.975 23.3 24.399 23.4 13.51.12 28.789-7.97 21.501-26.74l15.153-4.44c3.061 17.5-.062 33.92-14.262 41.22-18.942 9.5-43.253 5.78-55.521-9.19-8.242-10.06-10.111-23.95-5.695-34.82 12.92-27.8 56.75-40.02 60.375-72.17h-48.458v17.9H818V1105zm-439.32-821.817c.042-8.438-6.625-8.6-6.542-2.438-.541 30.95-26.75 46.192-45.75 42.575-29.333-5.57-38.666-34.675-38.416-51.812.875-52.9 54.125-91.913 102.166-159.729 35.209 61.212 93.334 109.291 96.792 156.608 4.542 62.908-75.042 86.375-86.417 13.054-.75-5.179-6.833-7.504-6.375-.271 1.75 20.092-.708 28.463 21.959 77.996h-59.25c13.125-23.146 20.916-51.558 21.833-75.983zm.042 733.057c.041 8.43-6.625 8.6-6.542 2.44-.542-30.955-26.75-46.197-45.75-42.58-29.333 5.57-38.667 34.68-38.375 51.81.833 52.9 54.083 91.92 102.167 159.73 35.208-61.21 93.291-109.29 96.75-156.61 4.541-62.905-75.042-86.372-86.417-13.05-.75 5.18-6.833 7.5-6.333.27 1.708-20.092-.75-28.463 21.916-77.996h-59.25c13.125 23.146 20.917 51.558 21.834 75.986zM73.8 289.071c.042-3.629-3.708-1.937-4.208-.791-4.875 8.27-11.958 10.195-18.958 7.216-6.959-2.958-10.834-9.504-10.25-18.846 1.333-14.32 12.666-29.995 18.166-38.858 5.209-8.042 10.959-17.592 17-29.808 7.042 14.012 10.625 18.004 18.334 30.8 6.791 11.266 16.208 22.304 16.958 35.925 0 10.354-4.375 20.133-14.167 21.912-5.541 1.009-10.75-1.837-14.583-8.487-1.208-1.692-3.542-.809-3.5 1.508.667 8.725 3.958 16.6 11.792 25.883H61.675c5.875-6.566 11.875-15.433 12.125-26.454zm781.993 721.499c.042 3.63-3.75 1.93-4.25.79-4.833-8.27-11.916-10.2-18.958-7.21-6.958 2.95-10.833 9.5-10.208 18.84 1.291 14.32 12.625 30 18.125 38.86 5.25 8.04 10.958 17.59 17 29.81 7.083-14.02 10.666-18.01 18.375-30.8 6.75-11.27 16.208-22.3 16.916-35.93 0-10.35-4.333-20.13-14.166-21.91-5.542-1.01-10.709 1.84-14.584 8.48-1.166 1.7-3.541.82-3.5-1.5.709-8.73 4-16.6 11.792-25.883h-28.708c5.875 6.567 11.875 15.429 12.166 26.453z"/></g></svg>