<svg clip-rule="evenodd" fill-rule="evenodd" stroke-linejoin="round" stroke-miterlimit="2" viewBox="0 0 934 1300" xmlns="http://www.w3.org/2000/svg"><g fill-rule="nonzero"><path d="M435.79 769.927c12.144-24.355 20.999-49.339 22.559-76.061 1.434-9.829-4.511-9.997-5.397-3.069-17.204 65.747-108.665 47.944-105.502-13.903 2.53-50.158 52.372-60.948 78.346-44.545 10.247 6.038 9.699 2.42 4.091-3.846-38.625-43.061-15.223-98.511 36.938-99.527 56.42 3.348 71.052 62.703 36.432 97.613-4.301 4.191-13.83 17.672.549 8.248 34.914-24.828 83.406 1.868 82.436 40.147-1.813 70.583-87.876 75.846-106.261 16.892-1.771-6.54-6.873-9.821-5.482 1.282 2.573 20.097 7.844 50.402 22.939 76.769zm-.253-415.016c12.144-24.356 20.999-49.34 22.559-76.061 1.434-9.83-4.554-9.994-5.439-3.07-17.204 65.751-108.623 47.944-105.502-13.903 2.572-50.153 52.371-60.944 78.388-44.545 10.247 6.043 9.657 2.42 4.091-3.846-38.625-43.056-15.265-98.51 36.938-99.522 56.377 3.343 71.052 62.698 36.432 97.608-4.301 4.196-13.83 17.672.506 8.248 34.957-24.828 83.449 1.868 82.479 40.147-1.855 70.584-87.876 75.846-106.303 16.892-1.771-6.536-6.873-9.82-5.44 1.282 2.53 20.101 7.801 50.402 22.939 76.77zm61.986 590.178c-12.144 24.352-20.957 49.34-22.518 76.061-1.475 9.83 4.512 9.99 5.398 3.07 17.204-65.751 108.664-47.948 105.502 13.9-2.53 50.16-52.372 60.95-78.347 44.54-10.246-6.04-9.698-2.42-4.09 3.85 38.583 43.06 15.223 98.51-36.938 99.53-56.42-3.35-71.052-62.71-36.433-97.62 4.302-4.19 13.831-17.67-.548-8.24-34.956 24.82-83.448-1.87-82.436-40.15 1.813-70.585 87.876-75.847 106.261-16.89 1.771 6.54 6.873 9.82 5.481-1.28-2.572-20.1-7.843-50.408-22.938-76.771zM60.831 313.837c4.969-10.209 9.812-19.713 12.485-30.903 1.753-10.552-1.837-6.631-3.884.284-3.006 9.595-11.357 13.963-19.124 14.067-14.071.192-21.086-10.873-20.669-22.773-1.503-12.519 11.149-21.379 20.753-20.694 7.182.513 13.445 4.392 17.245 7.411 2.464 1.316 5.136 1.896 1.42-1.499-6.974-7.653-12.819-12.376-12.694-23.846.125-10.765 9.311-21.997 21.504-21.642 15.241.438 22.172 12.067 22.172 22.882-.041 7.887-4.008 15.145-10.105 19.638-3.925 3.198-2.797 5.595 1.671 2.567 4.342-3.724 9.478-5.357 14.823-5.47 14.573-.229 20.251 12.364 19.416 24.068-.793 10.965-10.105 22.248-22.422 20.97-10.982-1.257-16.744-10.481-20.043-19.947-1.128-2.902-2.84-3.682-2.798.639 2.547 21.12 10.439 34.261 10.481 34.248zM36.19 163.785l10.613-7.665c9.232 14.727 19.531 24.424 35.274 22.756 23.646-1.594 33.43-25.917 28.488-44.257-4.779-16.445-24.361-24.461-39.916-15.68-3.663 2.07-7.903 4.629-7.903 4.629l-5.544-9.032 36.516-42.475H54.091v17.575H38.887V58.125h77.461v10.687S95.6 89.937 88.726 101.515c16.897.615 30.52 11.127 35.387 27.748 2.86 8.743 1.58 28.752-2.158 37.369-6.222 14.376-23.257 26.03-38.837 26.707-26.129 1.731-40.003-16.257-46.928-29.554zm835.33 822.378c-4.969 10.209-9.812 19.717-12.485 30.907-1.753 10.55 1.838 6.63 3.884-.29 3.006-9.59 11.357-13.96 19.124-14.06 14.071-.2 21.086 10.87 20.669 22.77 1.503 12.52-11.149 21.38-20.753 20.69-7.182-.51-13.445-4.39-17.245-7.41-2.463-1.32-5.136-1.89-1.419 1.5 6.973 7.65 12.818 12.38 12.693 23.85-.125 10.76-9.311 21.99-21.504 21.64-15.241-.44-22.172-12.07-22.172-22.88.042-7.89 4.008-15.15 10.105-19.64 3.925-3.2 2.797-5.6-1.671-2.57-4.342 3.72-9.478 5.36-14.823 5.47-14.572.23-20.251-12.36-19.416-24.07.793-10.96 10.105-22.245 22.423-20.97 10.981 1.26 16.744 10.48 20.042 19.95 1.128 2.9 2.84 3.68 2.798-.64-2.547-21.119-10.439-34.26-10.481-34.247zm24.39 150.047l-10.625 7.67c-9.22-14.72-19.518-24.42-35.261-22.76-23.646 1.6-33.431 25.92-28.488 44.27 4.779 16.44 24.36 24.45 39.915 15.67 3.663-2.07 7.903-4.23 7.903-4.23l6.561 8.47-37.533 42.64h39.628v-17.58h15.203v31.52h-77.46v-10.69s20.748-21.13 27.61-32.7c-16.885-.62-30.508-11.12-35.375-27.75-2.86-8.75-1.581-28.75 2.145-37.36 6.234-14.39 23.269-26.04 38.849-26.72 26.117-1.73 40.004 16.26 46.928 29.55z"/></g></svg>