<svg clip-rule="evenodd" fill-rule="evenodd" stroke-linejoin="round" stroke-miterlimit="2" viewBox="0 0 934 1300" xmlns="http://www.w3.org/2000/svg"><g fill="#d40000" fill-rule="nonzero"><path d="M374.059 240.355c41.333-40.342 68.479-84.322 94.445-126.622 22.768 46.539 55.433 87.258 90.771 126.622-37.809 39.038-67.1 80.772-90.658 124.652-26.117-44.983-53.614-85.715-94.558-124.652zm0 821.255c41.333-40.34 68.479-84.318 94.445-126.617 22.768 46.539 55.433 87.257 90.771 126.617-37.809 39.04-67.1 80.78-90.658 124.66-26.117-44.99-53.614-85.72-94.558-124.66zm0-410.983c41.333-40.33 68.479-84.322 94.445-126.621 22.768 46.551 55.433 87.27 90.771 126.621-37.809 39.038-67.1 80.785-90.658 124.665-26.117-44.984-53.614-85.715-94.558-124.665zm445.532 387.683c16.935-16.53 28.061-34.54 38.699-51.867 9.32 19.057 22.705 35.737 37.181 51.867-15.492 15.99-27.484 33.08-37.144 51.06-10.7-18.43-21.952-35.11-38.736-51.06zM37.821 262.176c16.934-16.521 28.061-34.547 38.699-51.871 9.32 19.067 22.705 35.751 37.181 51.871-15.492 15.994-27.485 33.091-37.144 51.067-10.7-18.427-21.952-35.111-38.736-51.067zm-1.014-98.391l10.612-7.665c9.233 14.727 19.531 24.424 35.274 22.756 23.646-1.594 33.431-25.917 28.488-44.257-4.779-16.445-24.36-24.461-39.915-15.68-3.663 2.07-7.903 4.629-7.903 4.629l-5.545-9.032 36.517-42.475H54.707v17.575H39.504V58.125h77.46v10.687s-20.748 21.125-27.622 32.703c16.897.615 30.52 11.127 35.387 27.748 2.86 8.743 1.581 28.752-2.157 37.369-6.222 14.376-23.257 26.03-38.837 26.707-26.13 1.731-40.004-16.257-46.928-29.554zm859.72 972.425l-10.625 7.67c-9.22-14.72-19.519-24.42-35.262-22.76-23.646 1.6-33.431 25.92-28.488 44.27 4.779 16.44 24.361 24.45 39.916 15.67 3.663-2.07 7.903-4.23 7.903-4.23l6.56 8.47-37.532 42.64h39.627v-17.58h15.204v31.52h-77.461v-10.69s20.748-21.13 27.61-32.7c-16.885-.62-30.508-11.12-35.375-27.75-2.86-8.75-1.58-28.75 2.145-37.36 6.235-14.39 23.27-26.04 38.85-26.72 26.117-1.73 40.003 16.26 46.928 29.55z"/></g></svg>