<svg clip-rule="evenodd" fill-rule="evenodd" stroke-linejoin="round" stroke-miterlimit="2" viewBox="0 0 934 1300" xmlns="http://www.w3.org/2000/svg"><g fill="#d40000" fill-rule="nonzero"><path d="M36.19 163.785l10.613-7.665c9.232 14.727 19.531 24.424 35.274 22.756 23.646-1.594 33.43-25.917 28.488-44.257-4.779-16.445-24.361-24.461-39.916-15.68-3.663 2.07-7.903 4.629-7.903 4.629l-5.544-9.032 36.516-42.475H54.091v17.575H38.887V58.125h77.461v10.687S95.6 89.937 88.726 101.515c16.897.615 30.52 11.127 35.387 27.748 2.86 8.743 1.58 28.752-2.158 37.369-6.222 14.376-23.257 26.03-38.837 26.707-26.129 1.731-40.003-16.257-46.928-29.554zm859.72 972.425l-10.625 7.67c-9.22-14.72-19.518-24.42-35.261-22.76-23.646 1.6-33.431 25.92-28.488 44.27 4.779 16.44 24.36 24.45 39.915 15.67 3.663-2.07 7.903-4.23 7.903-4.23l6.561 8.47-37.533 42.64h39.628v-17.58h15.203v31.52h-77.46v-10.69s20.748-21.13 27.61-32.7c-16.885-.62-30.508-11.12-35.375-27.75-2.86-8.75-1.581-28.75 2.145-37.36 6.234-14.39 23.269-26.04 38.849-26.72 26.117-1.73 40.004 16.26 46.928 29.55zM41.605 253.173c-6.625-14.467-7.334-39.188 12.375-42.533 14.833-1.909 20.875 4.991 22.083 15.591.583 3.096 2.333 3.288 2.875-.241.833-10.875 11.625-17.221 20.042-15.625 23 3.937 21.666 29.283 14.166 46.479-11.375 22.833-23.333 37.241-34.375 60.216-12.666-23.92-27.125-43.354-37.166-63.887zm373.958-133.029c29.792-1.979 45.292 23.446 48.333 43.483 1.792 3.183 2.792 2.288 3.5-.175 1.459-25.725 24.459-46.75 45.792-43.875 34.708.45 55.792 39.063 49.833 71.746-7.208 39.921-28.708 63.962-45 88.721-18.458 25.633-43.25 62.662-51.208 80.483 0 0-25.208-38.35-58-83.454-21.917-30.163-39.458-62.842-41.125-90.983-1.833-32.146 11.333-60.963 47.875-65.946zm.292 410.091c29.75-1.979 45.291 23.446 48.291 43.484 1.834 3.183 2.792 2.287 3.5-.175 1.459-25.725 24.459-46.75 45.792-43.875 34.708.45 55.792 39.062 49.875 71.741-7.25 39.925-28.75 63.963-45.042 88.721-18.416 25.638-43.208 62.667-51.208 80.488 0 0-25.208-38.35-58-83.454-21.917-30.163-39.458-62.846-41.083-90.984-1.875-32.146 11.333-60.962 47.875-65.946zm404.833 519.655c-6.583 14.47-7.292 39.19 12.375 42.53 14.875 1.92 20.917-4.99 22.083-15.59.584-3.09 2.375-3.28 2.917.25.833 10.87 11.625 17.21 20 15.62 23.042-3.94 21.708-29.29 14.167-46.48-11.375-22.83-23.334-37.24-34.334-60.218-12.666 23.918-27.125 43.358-37.208 63.888zm-405.125 131.07c29.792 1.98 45.292-23.44 48.333-43.48 1.792-3.19 2.792-2.29 3.5.17 1.459 25.73 24.459 46.75 45.792 43.88 34.708-.45 55.792-39.07 49.833-71.75-7.208-39.92-28.708-63.96-45-88.72-18.458-25.633-43.25-62.662-51.208-80.487 0 0-25.208 38.354-58 83.457-21.917 30.16-39.458 62.84-41.125 90.98-1.833 32.15 11.333 60.97 47.875 65.95z"/></g></svg>