<svg clip-rule="evenodd" fill-rule="evenodd" stroke-linejoin="round" stroke-miterlimit="2" viewBox="0 0 934 1300" xmlns="http://www.w3.org/2000/svg"><g fill-rule="nonzero"><path d="M457.512 287.027c.083-8.442-6.584-8.604-6.542-2.442-.542 30.955-26.708 46.192-45.75 42.58-29.292-5.575-38.667-34.675-38.375-51.817.875-52.9 54.125-91.908 102.167-159.725 35.208 61.208 93.333 109.287 96.75 156.604 4.583 62.913-75.042 86.375-86.417 13.054-.708-5.179-6.833-7.504-6.333-.271 1.708 20.096-.75 28.467 21.916 78h-59.25c13.125-23.145 20.959-51.562 21.834-75.983zm.333 314.775c.042 8.442-6.625 8.6-6.542 2.442-.583-30.954-26.75-46.196-45.75-42.579-29.333 5.575-38.666 34.675-38.416 51.812.875 52.904 54.125 91.913 102.166 159.729 35.209-61.212 93.334-109.291 96.75-156.608 4.584-62.908-75-86.375-86.375-13.054-.75 5.179-6.833 7.508-6.375.271 1.75-20.092-.708-28.463 21.959-77.996h-59.25c13.125 23.146 20.916 51.562 21.833 75.983zm-.292 411.168c.084 8.45-6.583 8.6-6.541 2.45-.542-30.96-26.709-46.201-45.75-42.585-29.292 5.575-38.667 34.675-38.375 51.815.875 52.9 54.125 91.91 102.166 159.73 35.209-61.22 93.334-109.29 96.75-156.61 4.584-62.91-75.041-86.372-86.375-13.05-.75 5.18-6.833 7.5-6.375.27 1.709-20.096-.75-28.467 21.959-78H435.72c13.125 23.145 20.958 51.562 21.833 75.98zM79.148 290.907c.041-3.634-3.709-1.938-4.209-.792-4.875 8.271-11.958 10.196-18.958 7.212-6.958-2.954-10.833-9.5-10.25-18.841 1.333-14.325 12.667-29.996 18.167-38.859 5.208-8.041 10.958-17.591 17-29.808 7.041 14.013 10.625 18.004 18.333 30.796 6.792 11.271 16.208 22.304 16.958 35.929 0 10.354-4.375 20.133-14.166 21.913-5.542 1.008-10.75-1.838-14.584-8.488-1.208-1.692-3.541-.808-3.5 1.508.667 8.725 3.959 16.6 11.792 25.884H67.023c5.875-6.567 11.875-15.434 12.125-26.454zM36.19 163.785l10.613-7.665c9.232 14.727 19.531 24.424 35.274 22.756 23.646-1.594 33.43-25.917 28.488-44.257-4.779-16.445-24.361-24.461-39.916-15.68-3.663 2.07-7.903 4.629-7.903 4.629l-5.544-9.032 36.516-42.475H54.091v17.575H38.887V58.125h77.461v10.687S95.6 89.937 88.726 101.515c16.897.615 30.52 11.127 35.387 27.748 2.86 8.743 1.58 28.752-2.158 37.369-6.222 14.376-23.257 26.03-38.837 26.707-26.129 1.731-40.003-16.257-46.928-29.554zm859.72 972.425l-10.625 7.67c-9.22-14.72-19.518-24.42-35.261-22.76-23.646 1.6-33.431 25.92-28.488 44.27 4.779 16.44 24.36 24.45 39.915 15.67 3.663-2.07 7.903-4.23 7.903-4.23l6.561 8.47-37.533 42.64h39.628v-17.58h15.203v31.52h-77.46v-10.69s20.748-21.13 27.61-32.7c-16.885-.62-30.508-11.12-35.375-27.75-2.86-8.75-1.581-28.75 2.145-37.36 6.234-14.39 23.269-26.04 38.849-26.72 26.117-1.73 40.004 16.26 46.928 29.55zm-46.5-124.05c.042 3.63-3.75 1.93-4.25.79-4.833-8.28-11.958-10.2-18.958-7.22-6.959 2.96-10.834 9.51-10.209 18.84 1.292 14.33 12.625 30 18.125 38.87 5.209 8.04 10.959 17.59 17 29.8 7.084-14.01 10.667-18 18.334-30.8 6.791-11.26 16.25-22.3 16.958-35.92 0-10.35-4.333-20.13-14.167-21.91-5.541-1.01-10.75 1.83-14.583 8.48-1.167 1.7-3.542.81-3.5-1.51.667-8.72 3.958-16.594 11.792-25.878h-28.709c5.875 6.567 11.875 15.438 12.167 26.458z"/></g></svg>