<svg clip-rule="evenodd" fill-rule="evenodd" stroke-linejoin="round" stroke-miterlimit="2" viewBox="0 0 934 1300" xmlns="http://www.w3.org/2000/svg"><g fill-rule="nonzero"><path d="M75.988 193.134v-11.716h10.776v-19.319H32.912v-13.635l58.268-87.91 9.521.037v87.873h16.47v13.635h-16.47l-.314 19.319h9.032v11.716zM86.764 92.73l-36.993 55.734h36.993zM857.221 1105.9v11.72h-10.776v19.32h53.853v13.62l-58.268 87.91-9.521-.02v-87.89h-16.471v-13.62h16.471l.313-19.32h-9.032v-11.72zm-10.776 100.41l36.993-55.75h-36.993zM643.406 354.779c12-24.066 20.708-48.754 22.292-75.154 1.416-9.717-4.5-9.879-5.375-3.037-17 64.97-107.334 47.379-104.25-13.734 2.541-49.562 51.75-60.225 77.416-44.021 10.167 5.971 9.584 2.396 4.042-3.8-38.125-42.546-15.042-97.337 36.5-98.341 55.75 3.304 70.208 61.958 36.042 96.45-4.25 4.146-13.709 17.466.5 8.154 34.541-24.533 82.458 1.842 81.458 39.667-1.792 69.745-86.833 74.95-105 16.691-1.75-6.458-6.792-9.704-5.417 1.267 2.542 19.862 7.75 49.808 22.667 75.858zm-414.708 0c12-24.066 20.708-48.754 22.25-75.154 1.458-9.717-4.459-9.879-5.334-3.037-17 64.97-107.375 47.379-104.25-13.734 2.5-49.562 51.75-60.225 77.417-44.021 10.125 5.971 9.583 2.396 4.042-3.8-38.167-42.546-15.042-97.337 36.5-98.341 55.75 3.304 70.208 61.958 36 96.45-4.25 4.146-13.667 17.466.541 8.154 34.5-24.533 82.417 1.842 81.459 39.667-1.792 69.745-86.834 74.95-105 16.691-1.75-6.458-6.792-9.704-5.417 1.267 2.542 19.862 7.75 49.808 22.667 75.858zm475.958 590.442c-12 24.062-20.75 48.754-22.292 75.159-1.416 9.71 4.5 9.87 5.375 3.03 17-64.968 107.334-47.377 104.25 13.74-2.541 49.56-51.75 60.22-77.416 44.02-10.167-5.97-9.584-2.4-4.042 3.8 38.125 42.54 15.042 97.33-36.5 98.34-55.75-3.31-70.25-61.96-36.042-96.45 4.25-4.15 13.667-17.47-.5-8.16-34.541 24.54-82.458-1.84-81.458-39.66 1.792-69.748 86.833-74.952 105-16.69 1.75 6.45 6.792 9.7 5.375-1.27-2.5-19.86-7.708-49.809-22.625-75.859zm-414.708 0c-12 24.062-20.75 48.754-22.292 75.159-1.417 9.71 4.458 9.87 5.375 3.03 16.958-64.968 107.333-47.377 104.25 13.74-2.542 49.56-51.75 60.22-77.458 44.02-10.125-5.97-9.542-2.4-4 3.8 38.125 42.54 15.041 97.33-36.542 98.34-55.75-3.31-70.208-61.96-36-96.45 4.25-4.15 13.667-17.47-.5-8.16-34.542 24.54-82.458-1.84-81.5-39.66 1.833-69.748 86.833-74.952 105.042-16.69 1.75 6.45 6.791 9.7 5.375-1.27-2.5-19.86-7.709-49.809-22.667-75.859zM57.428 314.157c5-10.192 9.833-19.671 12.458-30.838 1.75-10.533-1.833-6.621-3.875.283-3 9.571-11.333 13.934-19.083 14.038-14.042.187-21.042-10.854-20.583-22.725-1.542-12.496 11.125-21.333 20.666-20.654 7.167.512 13.417 4.383 17.209 7.396 2.5 1.312 5.125 1.895 1.416-1.492-6.958-7.638-12.791-12.35-12.666-23.796.125-10.746 9.291-21.95 21.458-21.6 15.25.442 22.167 12.042 22.125 22.838-.042 7.866-4 15.108-10.042 19.591-3.958 3.192-2.833 5.584 1.625 2.563 4.334-3.717 9.459-5.342 14.792-5.459 14.542-.225 20.208 12.342 19.375 24.017-.75 10.942-10.083 22.204-22.375 20.929-10.958-1.258-16.708-10.458-20-19.904-1.083-2.896-2.833-3.679-2.75.638 2.5 21.07 10.375 34.183 10.417 34.17zm813.53 671.908c-4.958 10.187-9.792 19.665-12.417 30.835-1.75 10.53 1.834 6.62 3.834-.28 3-9.58 11.375-13.93 19.083-14.04 14.042-.19 21.042 10.85 20.625 22.72 1.542 12.5-11.125 21.34-20.667 20.66-7.166-.52-13.458-4.39-17.208-7.4-2.5-1.31-5.167-1.9-1.458 1.49 7 7.64 12.833 12.36 12.708 23.8-.125 10.74-9.333 21.95-21.5 21.6-15.208-.44-22.125-12.04-22.083-22.84.041-7.87 3.958-15.11 10.041-19.59 3.917-3.19 2.834-5.58-1.666-2.56-4.292 3.71-9.417 5.34-14.75 5.45-14.542.23-20.25-12.34-19.417-24.01.792-10.94 10.125-22.206 22.375-20.93 10.958 1.26 16.708 10.46 20.042 19.9 1.083 2.9 2.791 3.68 2.75-.63-2.542-21.075-10.375-34.188-10.459-34.175z"/></g></svg>