<svg clip-rule="evenodd" fill-rule="evenodd" stroke-linejoin="round" stroke-miterlimit="2" viewBox="0 0 934 1300" xmlns="http://www.w3.org/2000/svg"><g fill="#d40000" fill-rule="nonzero"><path d="M146.715 229.274c41.334-40.342 68.479-84.323 94.446-126.622 22.768 46.539 55.445 87.258 90.77 126.622-37.796 39.038-67.099 80.772-90.657 124.652-26.117-44.984-53.614-85.715-94.559-124.652zm0 828.526c41.334-40.35 68.479-84.326 94.446-126.625 22.768 46.552 55.445 87.255 90.77 126.625-37.796 39.03-67.099 80.78-90.657 124.66-26.117-44.98-53.614-85.71-94.559-124.66zM611.43 229.274c41.345-40.342 68.491-84.323 94.445-126.622 22.768 46.539 55.446 87.258 90.783 126.622-37.808 39.038-67.112 80.772-90.67 124.652-26.117-44.984-53.602-85.715-94.558-124.652zm0 828.526c41.345-40.35 68.491-84.326 94.445-126.625 22.768 46.552 55.446 87.255 90.783 126.625-37.808 39.03-67.112 80.78-90.67 124.66-26.117-44.98-53.602-85.71-94.558-124.66zm204.96-21.62c16.935-16.53 28.049-34.54 38.686-51.868 9.333 19.058 22.718 35.738 37.182 51.868-15.48 15.98-27.485 33.08-37.131 51.06-10.701-18.43-21.965-35.11-38.737-51.06zM36.313 264.874c16.935-16.52 28.049-34.546 38.687-51.87 9.333 19.067 22.705 35.751 37.181 51.87-15.48 15.994-27.485 33.092-37.131 51.068-10.7-18.427-21.965-35.111-38.737-51.068zm39.628-71.74v-11.716h10.775v-19.319H32.864v-13.635l58.268-87.91 9.521.037v87.873h16.47v13.635h-16.47l-.314 19.319h9.032v11.716zM86.716 92.73l-36.993 55.734h36.993zM857.435 1105.9v11.72h-10.776v19.32h53.853v13.62l-58.268 87.91-9.521-.02v-87.89h-16.471v-13.62h16.471l.313-19.32h-9.032v-11.72zm-10.776 100.41l36.993-55.75h-36.993z"/></g></svg>