<svg clip-rule="evenodd" fill-rule="evenodd" stroke-linejoin="round" stroke-miterlimit="2" viewBox="0 0 934 1300" xmlns="http://www.w3.org/2000/svg"><g fill="#d40000" fill-rule="nonzero"><path d="M75.92 193.621v-11.716h10.775v-19.318H32.843v-13.636l58.268-87.91 9.521.038v87.872h16.47v13.636h-16.47l-.314 19.318h9.032v11.716zM86.695 93.217l-36.993 55.734h36.993zM857.414 1106.39v11.72h-10.776v19.32h53.853v13.62l-58.268 87.91-9.521-.03v-87.88h-16.471v-13.62h16.471l.313-19.32h-9.032v-11.72zm-10.776 100.41l36.993-55.75h-36.993zM38.097 254.531c-6.625-14.471-7.334-39.192 12.375-42.533 14.833-1.913 20.875 4.991 22.083 15.587.583 3.096 2.333 3.288 2.875-.241.875-10.871 11.625-17.217 20.042-15.625 23.041 3.941 21.666 29.287 14.166 46.483-11.375 22.829-23.333 37.237-34.375 60.217-12.666-23.921-27.125-43.359-37.166-63.888zm150.176-138.573c29.75-1.975 45.292 23.446 48.292 43.488 1.833 3.179 2.791 2.283 3.5-.179 1.458-25.725 24.5-46.75 45.791-43.875 34.709.45 55.792 39.062 49.875 71.746-7.25 39.92-28.75 63.962-45.041 88.72-18.417 25.634-43.209 62.663-51.209 80.488 0 0-25.208-38.354-58-83.458-21.916-30.159-39.458-62.842-41.083-90.98-1.875-32.15 11.333-60.966 47.875-65.95zm456.375 0c29.75-1.975 45.292 23.446 48.333 43.488 1.792 3.179 2.792 2.283 3.459-.179 1.458-25.725 24.5-46.75 45.833-43.875 34.667.45 55.792 39.062 49.833 71.746-7.25 39.92-28.75 63.962-45.041 88.72-18.417 25.634-43.209 62.663-51.209 80.488 0 0-25.208-38.354-57.958-83.458-21.917-30.159-39.5-62.842-41.125-90.98-1.875-32.15 11.333-60.966 47.875-65.95zM188.273 1184.04c29.75 1.98 45.292-23.44 48.292-43.48 1.833-3.18 2.791-2.29 3.5.17 1.458 25.73 24.5 46.75 45.791 43.88 34.709-.45 55.792-39.06 49.875-71.74-7.25-39.93-28.75-63.97-45.041-88.72-18.417-25.642-43.209-62.671-51.209-80.492 0 0-25.208 38.35-58 83.452-21.916 30.17-39.458 62.85-41.083 90.99-1.875 32.14 11.333 60.96 47.875 65.94zm456.375 0c29.75 1.98 45.292-23.44 48.333-43.48 1.792-3.18 2.792-2.29 3.459.17 1.458 25.73 24.5 46.75 45.833 43.88 34.667-.45 55.792-39.06 49.833-71.74-7.25-39.93-28.75-63.97-45.041-88.72-18.417-25.642-43.209-62.671-51.209-80.492 0 0-25.208 38.35-57.958 83.452-21.917 30.17-39.5 62.85-41.125 90.99-1.875 32.14 11.333 60.96 47.875 65.94zm173.532-137.38c-6.625 14.47-7.333 39.2 12.375 42.54 14.833 1.91 20.875-4.99 22.083-15.59.584-3.1 2.334-3.29 2.875.24.875 10.87 11.625 17.22 20.042 15.63 23-3.94 21.667-29.29 14.167-46.49-11.375-22.83-23.375-37.24-34.375-60.213-12.667 23.923-27.125 43.353-37.167 63.883z"/></g></svg>