<svg clip-rule="evenodd" fill-rule="evenodd" stroke-linejoin="round" stroke-miterlimit="2" viewBox="0 0 934 1300" xmlns="http://www.w3.org/2000/svg"><g fill-rule="nonzero"><path d="M75.92 193.621v-11.716h10.775v-19.318H32.843v-13.636l58.268-87.91 9.521.038v87.872h16.47v13.636h-16.47l-.314 19.318h9.032v11.716zM86.695 93.217l-36.993 55.734h36.993zM857.414 1106.39v11.72h-10.776v19.32h53.853v13.62l-58.268 87.91-9.521-.03v-87.88h-16.471v-13.62h16.471l.313-19.32h-9.032v-11.72zm-10.776 100.41l36.993-55.75h-36.993zm-621.23-923.406c.083-8.442-6.625-8.6-6.542-2.442-.541 30.954-26.75 46.196-45.75 42.579-29.333-5.575-38.666-34.675-38.375-51.812.834-52.904 54.084-91.913 102.167-159.729 35.208 61.212 93.292 109.291 96.75 156.608 4.583 62.908-75.042 86.371-86.417 13.05-.708-5.179-6.833-7.504-6.333-.271 1.708 20.096-.75 28.467 21.917 78h-59.25c13.125-23.146 20.916-51.562 21.833-75.983zm464.708 0c.084-8.442-6.583-8.6-6.541-2.442-.542 30.954-26.709 46.196-45.75 42.579-29.292-5.575-38.667-34.675-38.375-51.812.875-52.904 54.125-91.913 102.166-159.729 35.209 61.212 93.334 109.291 96.75 156.608 4.584 62.908-75.041 86.371-86.375 13.05-.75-5.179-6.833-7.504-6.375-.271 1.709 20.096-.75 28.467 21.917 78h-59.25c13.125-23.146 20.958-51.562 21.833-75.983zM225.45 1016.61c.083 8.44-6.625 8.6-6.542 2.44-.542-30.956-26.708-46.194-45.75-42.581-29.292 5.575-38.667 34.671-38.375 51.821.833 52.89 54.083 91.9 102.167 159.72 35.208-61.21 93.291-109.29 96.75-156.6 4.583-62.912-75.042-86.379-86.417-13.06-.708 5.18-6.833 7.51-6.333.27 1.708-20.093-.75-28.46 21.916-77.993h-59.25c13.125 23.142 20.959 51.558 21.834 75.983zm464.708 0c.083 8.44-6.583 8.6-6.5 2.44-.583-30.956-26.75-46.194-45.792-42.581-29.291 5.575-38.666 34.671-38.375 51.821.875 52.89 54.125 91.9 102.167 159.72 35.208-61.21 93.333-109.29 96.75-156.6 4.583-62.912-75.042-86.379-86.417-13.06-.708 5.18-6.791 7.51-6.333.27 1.708-20.093-.75-28.46 21.958-77.993h-59.291c13.125 23.142 20.958 51.558 21.833 75.983zM72.43 292.261c.042-3.629-3.708-1.934-4.208-.792-4.875 8.275-11.959 10.2-18.959 7.217-6.958-2.954-10.833-9.5-10.25-18.842 1.334-14.325 12.667-30 18.167-38.862 5.208-8.038 10.958-17.592 17-29.809 7.042 14.017 10.625 18.004 18.333 30.8 6.792 11.267 16.209 22.304 16.959 35.925 0 10.354-4.375 20.134-14.167 21.917-5.542 1.008-10.75-1.842-14.583-8.488-1.209-1.695-3.542-.812-3.5 1.509.666 8.721 3.958 16.596 11.791 25.879H60.305c5.875-6.567 11.875-15.429 12.125-26.454zm780.083 716.669c.042 3.63-3.708 1.94-4.25.79-4.833-8.27-11.916-10.197-18.916-7.21-6.959 2.95-10.875 9.5-10.25 18.84 1.291 14.32 12.666 30 18.166 38.86 5.209 8.04 10.959 17.59 17 29.81 7.042-14.01 10.625-18 18.334-30.8 6.791-11.27 16.208-22.31 16.958-35.93 0-10.35-4.375-20.13-14.167-21.91-5.541-1.01-10.75 1.84-14.625 8.49-1.166 1.69-3.5.81-3.458-1.51.667-8.724 3.958-16.599 11.75-25.883h-28.667c5.875 6.567 11.875 15.434 12.125 26.453z"/></g></svg>