<svg clip-rule="evenodd" fill-rule="evenodd" stroke-linejoin="round" stroke-miterlimit="2" viewBox="0 0 934 1300" xmlns="http://www.w3.org/2000/svg"><g fill-rule="nonzero"><path d="M36.033 156.804l13.41-.113c2.559 8.091 8.217 16.358 15.906 18.628 21.714 5.106 35.701-7.024 40.305-21.024 5.582-16.972-.125-40.806-15.078-49.274-12.394-7.024-30.809-1.104-39.251 13.899l-9.408-5.745 5.042-55.922h61.379v13.221H58.601l-.778 23.295c10.688-7.514 27.158-7.439 37.858-2.17 20.259 9.659 29.68 31.637 25.729 57.54-5.457 25.766-17.487 40.368-44.658 42.463-30.181.263-40.844-20.498-40.719-34.798zm861.953 986.406l-13.422.11c-2.546-8.1-8.216-16.36-15.893-18.64-21.715-5.1-35.701 7.02-40.305 21.02-5.582 16.98.125 40.82 15.066 49.29 12.406 7.03 30.821 1.11 39.263-13.91l9.408 5.75-5.055 55.92h-61.367v-13.21h49.738l.778-23.3c-10.688 7.51-27.158 7.43-37.858 2.16-20.272-9.66-29.68-31.62-25.741-57.54 5.469-25.76 17.486-40.35 44.657-42.45 30.194-.26 40.857 20.49 40.731 34.79zM436.031 769.044c12-24.063 20.75-48.754 22.292-75.154 1.417-9.717-4.5-9.88-5.375-3.038-17 64.971-107.333 47.379-104.25-13.733 2.542-49.563 51.75-60.225 77.458-44.021 10.125 5.971 9.542 2.396 4-3.8-38.125-42.546-15.041-97.338 36.542-98.342 55.75 3.304 70.208 61.959 36 96.45-4.25 4.146-13.667 17.467.5 8.154 34.542-24.533 82.458 1.842 81.5 39.667-1.833 69.746-86.833 74.95-105.042 16.692-1.75-6.459-6.791-9.704-5.375 1.266 2.5 19.863 7.709 49.809 22.625 75.859zm205.584-409.69c12-24.067 20.75-48.754 22.291-75.154 1.417-9.717-4.458-9.879-5.375-3.038-16.958 64.971-107.333 47.375-104.208-13.737 2.5-49.558 51.75-60.221 77.417-44.017 10.125 5.971 9.583 2.392 4.041-3.8-38.166-42.545-15.041-97.341 36.5-98.341 55.75 3.304 70.209 61.958 36 96.45-4.25 4.145-13.666 17.462.542 8.15 34.5-24.534 82.417 1.846 81.458 39.67-1.791 69.746-86.833 74.946-105 16.692-1.791-6.458-6.833-9.704-5.416 1.267 2.5 19.862 7.75 49.808 22.666 75.858zm-411.167 0c12-24.067 20.75-48.754 22.292-75.154 1.416-9.717-4.459-9.879-5.375-3.038-16.959 64.971-107.334 47.375-104.25-13.737 2.541-49.558 51.791-60.221 77.458-44.017 10.125 5.971 9.542 2.392 4.042-3.8-38.167-42.545-15.084-97.341 36.5-98.341 55.75 3.304 70.208 61.958 36 96.45-4.25 4.145-13.667 17.462.5 8.15 34.541-24.534 82.458 1.846 81.5 39.67-1.834 69.746-86.834 74.946-105.042 16.692-1.75-6.458-6.792-9.704-5.375 1.267 2.5 19.862 7.708 49.808 22.667 75.858zm472.458 581.292c-12 24.066-20.75 48.754-22.291 75.154-1.417 9.72 4.458 9.88 5.375 3.04 16.958-64.973 107.333-47.378 104.208 13.73-2.5 49.56-51.75 60.23-77.417 44.02-10.125-5.97-9.583-2.39-4.041 3.8 38.166 42.55 15.041 97.34-36.5 98.34-55.75-3.3-70.209-61.95-36-96.45 4.25-4.14 13.666-17.46-.542-8.15-34.5 24.54-82.417-1.84-81.458-39.67 1.791-69.743 86.833-74.943 105-16.69 1.75 6.46 6.791 9.7 5.416-1.27-2.5-19.858-7.75-49.804-22.666-75.854zm-411.208 0c-11.958 24.066-20.708 48.754-22.25 75.154-1.458 9.72 4.458 9.88 5.333 3.04 17-64.973 107.375-47.378 104.25 13.73-2.5 49.56-51.75 60.23-77.416 44.02-10.125-5.97-9.584-2.39-4.042 3.8 38.167 42.55 15.042 97.34-36.5 98.34-55.75-3.3-70.208-61.95-36-96.45 4.25-4.14 13.667-17.46-.542-8.15-34.5 24.54-82.458-1.84-81.458-39.67 1.792-69.743 86.833-74.943 105-16.69 1.75 6.46 6.792 9.7 5.417-1.27-2.542-19.858-7.75-49.804-22.667-75.854zM60.854 313.017c4.958-10.187 9.792-19.671 12.417-30.837 1.75-10.534-1.834-6.621-3.834.283-2.999 9.575-11.374 13.933-19.083 14.038-14.041.191-21.083-10.85-20.625-22.725-1.542-12.492 11.125-21.334 20.667-20.655 7.166.513 13.458 4.384 17.208 7.396 2.5 1.317 5.167 1.896 1.458-1.491-7-7.638-12.833-12.35-12.708-23.796.125-10.746 9.333-21.95 21.5-21.6 15.208.441 22.125 12.046 22.084 22.837-.042 7.867-3.959 15.109-10.042 19.596-3.917 3.192-2.834 5.579 1.667 2.558 4.291-3.716 9.416-5.341 14.749-5.454 14.542-.229 20.25 12.338 19.417 24.017-.791 10.937-10.125 22.2-22.375 20.925-10.958-1.258-16.708-10.458-20.041-19.904-1.084-2.896-2.792-3.679-2.751.637 2.542 21.075 10.375 34.188 10.417 34.175zM872.521 988.03c-5 10.187-9.834 19.67-12.458 30.84-1.75 10.53 1.833 6.62 3.875-.29 3-9.57 11.333-13.93 19.083-14.03 14.041-.19 21.042 10.85 20.583 22.72 1.542 12.49-11.125 21.34-20.667 20.66-7.166-.52-13.416-4.39-17.208-7.4-2.5-1.32-5.125-1.9-1.458 1.49 7 7.64 12.833 12.35 12.708 23.8-.125 10.74-9.291 21.95-21.5 21.6-15.208-.44-22.125-12.05-22.083-22.84.041-7.87 3.958-15.11 10.041-19.6 3.959-3.19 2.834-5.58-1.666-2.56-4.292 3.72-9.417 5.35-14.75 5.46-14.542.23-20.25-12.34-19.375-24.02.75-10.93 10.083-22.2 22.333-20.92 11 1.25 16.75 10.46 20.042 19.9 1.083 2.9 2.833 3.68 2.75-.63-2.5-21.08-10.375-34.193-10.417-34.18z"/></g></svg>