<svg clip-rule="evenodd" fill-rule="evenodd" stroke-linejoin="round" stroke-miterlimit="2" viewBox="0 0 934 1300" xmlns="http://www.w3.org/2000/svg"><g fill="#d40000" fill-rule="nonzero"><path d="M143.47 241.296c41.334-40.343 68.479-84.323 94.446-126.622 22.768 46.539 55.433 87.258 90.77 126.622-37.796 39.037-67.099 80.772-90.657 124.652-26.117-44.984-53.614-85.715-94.559-124.652zm0 819.374c41.334-40.34 68.479-84.319 94.446-126.618 22.768 46.539 55.433 87.258 90.77 126.618-37.796 39.04-67.099 80.78-90.657 124.66-26.117-44.97-53.614-85.72-94.559-124.66zm461.165-819.374c41.345-40.343 68.491-84.323 94.458-126.622 22.755 46.539 55.433 87.258 90.77 126.622-37.808 39.037-67.099 80.772-90.657 124.652-26.117-44.984-53.614-85.715-94.571-124.652zM374.052 650.972c41.334-40.33 68.48-84.31 94.446-126.609 22.768 46.539 55.446 87.258 90.783 126.609-37.809 39.038-67.112 80.785-90.67 124.665-26.117-44.984-53.602-85.715-94.559-124.665zm230.583 409.698c41.345-40.34 68.491-84.319 94.458-126.618 22.755 46.539 55.433 87.258 90.77 126.618-37.808 39.04-67.099 80.78-90.657 124.66-26.117-44.97-53.614-85.72-94.571-124.66zm212.75-22.56c16.935-16.53 28.049-34.54 38.687-51.868 9.332 19.068 22.717 35.738 37.181 51.868-15.48 16-27.485 33.09-37.131 51.07-10.701-18.43-21.965-35.12-38.737-51.07zM39.441 263.706c16.922-16.521 28.049-34.547 38.686-51.87 9.321 19.067 22.705 35.738 37.181 51.87-15.479 15.994-27.484 33.092-37.13 51.068-10.701-18.428-21.965-35.124-38.737-51.068zM35.69 156.804l13.41-.113c2.559 8.091 8.216 16.358 15.906 18.628 21.714 5.106 35.701-7.024 40.305-21.024 5.582-16.972-.126-40.806-15.078-49.274-12.394-7.024-30.809-1.104-39.251 13.899l-9.409-5.745 5.043-55.922h61.379v13.221H58.257l-.777 23.295c10.687-7.514 27.158-7.439 37.858-2.17 20.259 9.659 29.68 31.637 25.728 57.54-5.456 25.766-17.486 40.368-44.657 42.463-30.182.263-40.844-20.498-40.719-34.798zm861.953 986.406l-13.422.11c-2.547-8.1-8.217-16.36-15.894-18.64-21.714-5.1-35.701 7.02-40.304 21.02-5.583 16.98.125 40.82 15.065 49.29 12.407 7.03 30.821 1.11 39.264-13.91l9.408 5.75-5.055 55.92h-61.367v-13.21h49.738l.778-23.3c-10.688 7.51-27.158 7.43-37.859 2.16-20.271-9.66-29.679-31.62-25.741-57.54 5.47-25.76 17.487-40.35 44.658-42.45 30.194-.26 40.857 20.49 40.731 34.79z"/></g></svg>