<svg clip-rule="evenodd" fill-rule="evenodd" stroke-linejoin="round" stroke-miterlimit="2" viewBox="0 0 934 1300" xmlns="http://www.w3.org/2000/svg"><g fill="#d40000" fill-rule="nonzero"><path d="M35.69 156.804l13.41-.113c2.559 8.091 8.216 16.358 15.906 18.628 21.714 5.106 35.701-7.024 40.305-21.024 5.582-16.972-.126-40.806-15.078-49.274-12.394-7.024-30.809-1.104-39.251 13.899l-9.409-5.745 5.043-55.922h61.379v13.221H58.257l-.777 23.295c10.687-7.514 27.158-7.439 37.858-2.17 20.259 9.659 29.68 31.637 25.728 57.54-5.456 25.766-17.486 40.368-44.657 42.463-30.182.263-40.844-20.498-40.719-34.798zm861.953 986.406l-13.422.11c-2.547-8.1-8.217-16.36-15.894-18.64-21.714-5.1-35.701 7.02-40.304 21.02-5.583 16.98.125 40.82 15.065 49.29 12.407 7.03 30.821 1.11 39.264-13.91l9.408 5.75-5.055 55.92h-61.367v-13.21h49.738l.778-23.3c-10.688 7.51-27.158 7.43-37.859 2.16-20.271-9.66-29.679-31.62-25.741-57.54 5.47-25.76 17.487-40.35 44.658-42.45 30.194-.26 40.857 20.49 40.731 34.79zM41.219 252.904c-6.583-14.466-7.333-39.187 12.375-42.533 14.834-1.913 20.875 4.992 22.084 15.592.583 3.095 2.333 3.283 2.916-.246.834-10.871 11.584-17.217 20-15.621 23.042 3.937 21.709 29.283 14.167 46.479-11.375 22.829-23.333 37.242-34.333 60.217-12.667-23.921-27.125-43.354-37.209-63.888zm144.639-132.373c29.792-1.979 45.292 23.446 48.334 43.484 1.791 3.183 2.791 2.287 3.5-.175 1.458-25.725 24.458-46.75 45.791-43.875 34.709.45 55.792 39.062 49.834 71.745-7.209 39.921-28.709 63.963-45 88.721-18.417 25.634-43.209 62.663-51.209 80.488 0 0-25.208-38.354-58-83.459-21.916-30.162-39.458-62.841-41.125-90.979-1.833-32.15 11.375-60.966 47.875-65.95zm461.209 0c29.75-1.979 45.25 23.446 48.291 43.484 1.792 3.183 2.792 2.287 3.5-.175 1.459-25.725 24.459-46.75 45.792-43.875 34.708.45 55.792 39.062 49.875 71.745-7.25 39.921-28.75 63.963-45.042 88.721-18.416 25.634-43.208 62.663-51.208 80.488 0 0-25.208-38.354-58-83.459-21.917-30.162-39.458-62.841-41.083-90.979-1.875-32.15 11.333-60.966 47.875-65.95zM416.456 530.224c29.792-1.98 45.292 23.445 48.334 43.483 1.791 3.183 2.791 2.287 3.5-.175 1.458-25.725 24.458-46.75 45.791-43.875 34.709.45 55.792 39.062 49.834 71.742-7.209 39.925-28.709 63.962-45 88.72-18.417 25.638-43.25 62.667-51.209 80.488 0 0-25.208-38.35-58-83.454-21.916-30.163-39.458-62.846-41.125-90.984-1.833-32.145 11.334-60.962 47.875-65.945zM185.858 1179.47c29.792 1.97 45.292-23.45 48.334-43.49 1.791-3.18 2.791-2.28 3.5.18 1.458 25.72 24.458 46.75 45.791 43.88 34.709-.46 55.792-39.07 49.834-71.75-7.209-39.92-28.709-63.96-45-88.72-18.417-25.639-43.209-62.668-51.209-80.489 0 0-25.208 38.35-58 83.459-21.916 30.16-39.458 62.84-41.125 90.98-1.833 32.14 11.375 60.97 47.875 65.95zm461.209 0c29.75 1.97 45.25-23.45 48.291-43.49 1.792-3.18 2.792-2.28 3.5.18 1.459 25.72 24.459 46.75 45.792 43.88 34.708-.46 55.792-39.07 49.875-71.75-7.25-39.92-28.75-63.96-45.042-88.72-18.416-25.639-43.208-62.668-51.208-80.489 0 0-25.208 38.35-58 83.459-21.917 30.16-39.458 62.84-41.083 90.98-1.875 32.14 11.333 60.97 47.875 65.95zm172.111-131.32c-6.584 14.46-7.334 39.18 12.375 42.53 14.833 1.91 20.875-5 22.083-15.59.583-3.1 2.333-3.29 2.875.24.875 10.87 11.625 17.22 20.042 15.62 23.041-3.93 21.666-29.28 14.166-46.48-11.375-22.83-23.333-37.24-34.375-60.212-12.625 23.922-27.083 43.352-37.166 63.892z"/></g></svg>