<svg clip-rule="evenodd" fill-rule="evenodd" stroke-linejoin="round" stroke-miterlimit="2" viewBox="0 0 934 1300" xmlns="http://www.w3.org/2000/svg"><g fill-rule="nonzero"><path d="M35.69 156.804l13.41-.113c2.559 8.091 8.216 16.358 15.906 18.628 21.714 5.106 35.701-7.024 40.305-21.024 5.582-16.972-.126-40.806-15.078-49.274-12.394-7.024-30.809-1.104-39.251 13.899l-9.409-5.745 5.043-55.922h61.379v13.221H58.257l-.777 23.295c10.687-7.514 27.158-7.439 37.858-2.17 20.259 9.659 29.68 31.637 25.728 57.54-5.456 25.766-17.486 40.368-44.657 42.463-30.182.263-40.844-20.498-40.719-34.798zm861.953 986.406l-13.422.11c-2.547-8.1-8.217-16.36-15.894-18.64-21.714-5.1-35.701 7.02-40.304 21.02-5.583 16.98.125 40.82 15.065 49.29 12.407 7.03 30.821 1.11 39.264-13.91l9.408 5.75-5.055 55.92h-61.367v-13.21h49.738l.778-23.3c-10.688 7.51-27.158 7.43-37.859 2.16-20.271-9.66-29.679-31.62-25.741-57.54 5.47-25.76 17.487-40.35 44.658-42.45 30.194-.26 40.857 20.49 40.731 34.79zM225.867 287.967c.083-8.442-6.583-8.604-6.542-2.442-.541 30.954-26.708 46.196-45.75 42.579-29.291-5.575-38.666-34.675-38.375-51.816.875-52.9 54.125-91.909 102.167-159.725 35.208 61.212 93.333 109.287 96.75 156.608 4.583 62.908-75.042 86.371-86.375 13.05-.75-5.179-6.833-7.504-6.375-.271 1.708 20.096-.75 28.467 21.958 78h-59.291c13.125-23.146 20.958-51.562 21.833-75.983zm461.167 0c.083-8.442-6.584-8.604-6.5-2.442-.584 30.954-26.75 46.196-45.75 42.579-29.334-5.575-38.709-34.675-38.417-51.816.875-52.9 54.125-91.909 102.167-159.725 35.208 61.212 93.333 109.287 96.75 156.608 4.583 62.908-75.042 86.371-86.375 13.05-.75-5.179-6.834-7.504-6.375-.271 1.708 20.096-.709 28.467 21.958 78H665.2c13.125-23.146 20.959-51.562 21.834-75.983zM457.783 697.71c.083-8.441-6.625-8.6-6.542-2.441-.541 30.954-26.708 46.196-45.75 42.579-29.291-5.575-38.666-34.675-38.375-51.813.875-52.904 54.125-91.912 102.167-159.729 35.208 61.213 93.333 109.292 96.75 156.609 4.583 62.908-75.042 86.375-86.417 13.054-.708-5.179-6.833-7.509-6.333-.271 1.708 20.092-.75 28.462 21.917 77.996h-59.25c13.125-23.146 20.958-51.563 21.833-75.984zm-231.874 314.32c.083 8.44-6.584 8.6-6.5 2.44-.584-30.949-26.75-46.191-45.792-42.574-29.292 5.571-38.667 34.674-38.375 51.814.875 52.9 54.125 91.91 102.167 159.73 35.208-61.21 93.333-109.29 96.75-156.61 4.583-62.909-75.042-86.376-86.375-13.06-.75 5.18-6.834 7.51-6.375.28 1.708-20.096-.75-28.467 21.958-78h-59.292c13.125 23.146 20.959 51.558 21.834 75.98zm461.208 0c.042 8.44-6.625 8.6-6.542 2.44-.583-30.949-26.75-46.191-45.75-42.574-29.333 5.571-38.708 34.674-38.416 51.814.875 52.9 54.125 91.91 102.166 159.73 35.209-61.21 93.334-109.29 96.75-156.61 4.584-62.909-75-86.376-86.375-13.06-.75 5.18-6.833 7.51-6.375.28 1.709-20.096-.708-28.467 21.959-78h-59.25c13.125 23.146 20.916 51.558 21.833 75.98zM75.553 290.638c.041-3.633-3.709-1.937-4.209-.796-4.875 8.275-11.958 10.2-18.958 7.217-6.958-2.954-10.833-9.5-10.25-18.842 1.333-14.325 12.667-30 18.167-38.858 5.208-8.042 10.958-17.592 17-29.808 7.041 14.012 10.666 18 18.333 30.795 6.792 11.271 16.208 22.305 16.958 35.93 0 10.35-4.375 20.129-14.166 21.912-5.542 1.008-10.75-1.842-14.584-8.487-1.166-1.692-3.541-.813-3.5 1.508.667 8.721 3.959 16.596 11.792 25.883H63.428c5.875-6.566 11.875-15.433 12.125-26.454zm777.958 719.772c.042 3.63-3.708 1.94-4.208.8-4.875-8.28-11.959-10.21-18.959-7.22-6.958 2.95-10.875 9.5-10.25 18.84 1.292 14.32 12.667 30 18.167 38.86 5.208 8.04 10.958 17.59 16.958 29.81 7.084-14.02 10.667-18 18.375-30.8 6.792-11.27 16.209-22.3 16.959-35.93 0-10.35-4.375-20.13-14.167-21.91-5.542-1.01-10.75 1.84-14.625 8.49-1.167 1.69-3.5.81-3.5-1.51.708-8.72 4-16.598 11.833-25.885h-28.708c5.875 6.566 11.875 15.433 12.125 26.455z"/></g></svg>