<svg clip-rule="evenodd" fill-rule="evenodd" stroke-linejoin="round" stroke-miterlimit="2" viewBox="0 0 934 1300" xmlns="http://www.w3.org/2000/svg"><g fill-rule="nonzero"><path d="M35.44 150.393c-1.694-11.441-1.669-41.02-.276-49.751 4.29-26.794 14.727-39.038 32.188-43.064 16.947-3.889 40.781.451 46.012 22.843l-14.187.263C91.5 65.543 72.106 69.595 61.193 76.181c-8.731 5.256-12.67 27.158-10.976 28.513-.013 0 16.483-11.992 29.479-11.102 27.785 2.835 39.238 26.481 38.272 48.822-.878 26.87-9.559 48.346-39.012 49.776-27.987-1.054-40.819-16.044-43.516-41.797zm69.043-7.1c.163-18.654-8.467-32.603-24.787-34.133-16.308-1.543-32.766 14.087-31.624 33.091 1.141 19.068 8.655 35.137 28.437 35.037 21.275-.088 27.874-20.724 27.974-33.995zM896.891 1149.61c1.706 11.44 1.681 41.02.276 49.75-4.278 26.79-14.715 39.04-32.176 43.06-16.947 3.9-40.782-.44-46.013-22.84l14.188-.27c7.677 15.14 27.071 11.09 37.984 4.51 8.718-5.26 12.67-27.16 10.976-28.51.013 0-16.483 11.99-29.479 11.1-27.785-2.84-39.238-26.48-38.272-48.83.878-26.87 9.558-48.34 39-49.77 27.999 1.05 40.831 16.04 43.516 41.8zm-69.044 7.1c-.15 18.65 8.48 32.59 24.8 34.13 16.308 1.54 32.766-14.09 31.624-33.09-1.141-19.07-8.668-35.13-28.45-35.04-21.275.09-27.861 20.73-27.974 34zM643.5 769.451c12-24.063 20.708-48.755 22.292-75.155 1.416-9.716-4.5-9.879-5.375-3.037-17 64.971-107.375 47.379-104.25-13.733 2.5-49.563 51.75-60.225 77.416-44.021 10.167 5.971 9.584 2.396 4.042-3.796-38.167-42.55-15.042-97.342 36.5-98.346 55.75 3.308 70.208 61.958 36 96.45-4.25 4.146-13.667 17.467.542 8.154 34.541-24.533 82.458 1.846 81.458 39.667-1.792 69.746-86.833 74.95-105 16.692-1.75-6.459-6.792-9.7-5.417 1.266 2.542 19.863 7.75 49.809 22.667 75.859zm-414.75 0c12-24.063 20.75-48.755 22.292-75.155 1.416-9.716-4.459-9.879-5.375-3.037-16.959 64.971-107.334 47.379-104.209-13.733 2.5-49.563 51.75-60.225 77.417-44.021 10.125 5.971 9.583 2.396 4.042-3.796-38.167-42.55-15.042-97.342 36.5-98.346 55.75 3.308 70.208 61.958 36 96.45-4.25 4.146-13.667 17.467.5 8.154 34.541-24.533 82.458 1.846 81.5 39.667-1.834 69.746-86.834 74.95-105.042 16.692-1.75-6.459-6.75-9.7-5.375 1.266 2.5 19.863 7.75 49.809 22.667 75.859zM643.5 357.396c12-24.066 20.708-48.754 22.292-75.158 1.416-9.712-4.5-9.875-5.375-3.033-17 64.966-107.375 47.375-104.25-13.738 2.5-49.562 51.75-60.225 77.416-44.016 10.167 5.966 9.584 2.391 4.042-3.8-38.167-42.55-15.042-97.342 36.5-98.346 55.75 3.308 70.208 61.958 36 96.454-4.25 4.142-13.667 17.462.542 8.15 34.541-24.533 82.458 1.846 81.458 39.671-1.792 69.746-86.833 74.946-105 16.691-1.75-6.462-6.792-9.704-5.417 1.267 2.542 19.863 7.75 49.804 22.667 75.858zm-414.75 0c12-24.066 20.75-48.754 22.292-75.158 1.416-9.712-4.459-9.875-5.375-3.033-16.959 64.966-107.334 47.375-104.209-13.738 2.5-49.562 51.75-60.225 77.417-44.016 10.125 5.966 9.583 2.391 4.042-3.8-38.167-42.55-15.042-97.342 36.5-98.346 55.75 3.308 70.208 61.958 36 96.454-4.25 4.142-13.667 17.462.5 8.15 34.541-24.533 82.458 1.846 81.5 39.671-1.834 69.746-86.834 74.946-105.042 16.691-1.75-6.462-6.75-9.704-5.375 1.267 2.5 19.863 7.75 49.804 22.667 75.858zm476 584.796c-12 24.063-20.75 48.754-22.292 75.158-1.416 9.71 4.5 9.88 5.375 3.03 17-64.967 107.334-47.375 104.25 13.74-2.541 49.56-51.75 60.22-77.458 44.02-10.125-5.97-9.542-2.4-4.042 3.79 38.167 42.55 15.084 97.35-36.5 98.35-55.708-3.31-70.208-61.96-36-96.45 4.25-4.15 13.667-17.47-.5-8.15-34.541 24.53-82.458-1.85-81.5-39.67 1.834-69.747 86.834-74.951 105.042-16.69 1.75 6.46 6.792 9.7 5.375-1.27-2.5-19.862-7.708-49.808-22.667-75.858zm-414.708 0c-12 24.063-20.75 48.754-22.292 75.158-1.417 9.71 4.458 9.88 5.375 3.03 16.958-64.967 107.333-47.375 104.208 13.74-2.5 49.56-51.75 60.22-77.416 44.02-10.125-5.97-9.584-2.4-4.042 3.79 38.167 42.55 15.042 97.35-36.5 98.35-55.75-3.31-70.208-61.96-36-96.45 4.25-4.15 13.667-17.47-.542-8.15-34.5 24.53-82.416-1.85-81.458-39.67 1.792-69.747 86.833-74.951 105.042-16.69 1.708 6.46 6.75 9.7 5.375-1.27-2.5-19.862-7.75-49.808-22.667-75.858zM56.417 307.901c5-10.188 9.833-19.671 12.458-30.838 1.75-10.533-1.833-6.621-3.875.283-3 9.571-11.333 13.934-19.083 14.038-14.042.187-21.042-10.85-20.584-22.725-1.541-12.496 11.125-21.333 20.667-20.654 7.167.512 13.417 4.383 17.208 7.396 2.5 1.316 5.167 1.895 1.459-1.492-7-7.638-12.834-12.35-12.709-23.796.125-10.746 9.292-21.95 21.459-21.6 15.25.442 22.166 12.042 22.125 22.838-.042 7.866-3.959 15.108-10.042 19.591-3.958 3.196-2.833 5.584 1.625 2.563 4.333-3.717 9.458-5.342 14.792-5.459 14.541-.225 20.208 12.342 19.375 24.017-.75 10.942-10.084 22.204-22.334 20.929-10.958-1.258-16.75-10.458-20.041-19.904-1.084-2.896-2.834-3.679-2.75.638 2.5 21.07 10.375 34.183 10.416 34.175zm820.458 675.012c-4.958 10.188-9.792 19.667-12.417 30.837-1.75 10.53 1.792 6.62 3.834-.28 3-9.58 11.333-13.936 19.083-14.04 14.042-.192 21.042 10.85 20.625 22.72 1.542 12.5-11.125 21.34-20.667 20.66-7.208-.52-13.458-4.39-17.25-7.4-2.458-1.31-5.125-1.89-1.416 1.49 7 7.64 12.833 12.36 12.666 23.8-.083 10.74-9.291 21.95-21.458 21.6-15.208-.44-22.125-12.04-22.083-22.84.041-7.87 3.958-15.11 10.041-19.59 3.917-3.19 2.834-5.59-1.666-2.56-4.334 3.71-9.459 5.34-14.75 5.45-14.584.23-20.25-12.33-19.417-24.01.792-10.94 10.083-22.204 22.375-20.929 10.958 1.255 16.708 10.459 20 19.909 1.125 2.89 2.833 3.67 2.792-.65-2.542-21.067-10.375-34.179-10.459-34.167z"/></g></svg>