<svg clip-rule="evenodd" fill-rule="evenodd" stroke-linejoin="round" stroke-miterlimit="2" viewBox="0 0 934 1300" xmlns="http://www.w3.org/2000/svg"><g fill="#d40000" fill-rule="nonzero"><path d="M142.286 239.331c41.334-40.342 68.48-84.322 94.446-126.621 22.768 46.539 55.433 87.258 90.77 126.621-37.808 39.038-67.099 80.773-90.657 124.653-26.117-44.972-53.614-85.715-94.559-124.653zm0 412.058c41.334-40.346 68.48-84.327 94.446-126.626 22.768 46.552 55.433 87.258 90.77 126.626-37.808 39.035-67.099 80.776-90.657 124.657-26.117-44.983-53.614-85.715-94.559-124.657zm0 410.831c41.334-40.34 68.48-84.326 94.446-126.625 22.768 46.543 55.433 87.265 90.77 126.625-37.808 39.03-67.099 80.77-90.657 124.65-26.117-44.98-53.614-85.71-94.559-124.65zm464.715-822.889c41.333-40.342 68.479-84.322 94.445-126.621 22.768 46.539 55.446 87.258 90.783 126.621-37.808 39.038-67.112 80.773-90.67 124.653-26.117-44.972-53.601-85.715-94.558-124.653zm0 412.058c41.333-40.346 68.479-84.327 94.445-126.626 22.768 46.552 55.446 87.258 90.783 126.626-37.808 39.035-67.112 80.776-90.67 124.657-26.117-44.983-53.601-85.715-94.558-124.657zm0 410.831c41.333-40.34 68.479-84.326 94.445-126.625 22.768 46.543 55.446 87.265 90.783 126.625-37.808 39.03-67.112 80.77-90.67 124.65-26.117-44.98-53.601-85.71-94.558-124.65zm215.573-29.21c16.934-16.52 28.061-34.542 38.699-51.868 9.32 19.068 22.705 35.748 37.181 51.868-15.492 15.99-27.485 33.09-37.144 51.07-10.7-18.43-21.952-35.12-38.736-51.07zM35.849 258.599c16.934-16.52 28.048-34.534 38.686-51.87 9.333 19.067 22.718 35.751 37.194 51.87-15.492 15.994-27.497 33.092-37.144 51.068-10.7-18.428-21.965-35.111-38.736-51.068zm.087-108.206c-1.693-11.441-1.668-41.02-.276-49.751 4.29-26.794 14.727-39.038 32.189-43.064 16.947-3.889 40.781.451 46.012 22.843l-14.187.263c-7.677-15.141-27.071-11.089-37.984-4.503-8.731 5.256-12.67 27.158-10.977 28.513-.012 0 16.484-11.992 29.479-11.102 27.786 2.835 39.239 26.481 38.273 48.822-.878 26.87-9.559 48.346-39.013 49.776-27.986-1.054-40.819-16.044-43.516-41.797zm69.044-7.1c.163-18.654-8.467-32.603-24.788-34.133-16.307-1.543-32.765 14.087-31.624 33.091 1.142 19.068 8.656 35.137 28.438 35.037 21.275-.088 27.874-20.724 27.974-33.995zM897.388 1149.61c1.706 11.44 1.681 41.02.276 49.75-4.278 26.79-14.715 39.04-32.176 43.06-16.948 3.9-40.782-.44-46.013-22.84l14.188-.27c7.677 15.14 27.07 11.09 37.984 4.51 8.718-5.26 12.67-27.16 10.976-28.51.013 0-16.483 11.99-29.479 11.1-27.785-2.84-39.238-26.48-38.272-48.83.878-26.87 9.558-48.34 39-49.77 27.998 1.05 40.831 16.04 43.516 41.8zm-69.044 7.1c-.15 18.65 8.48 32.59 24.8 34.13 16.308 1.54 32.766-14.09 31.624-33.09-1.141-19.07-8.668-35.13-28.45-35.04-21.275.09-27.861 20.73-27.974 34z"/></g></svg>