<svg clip-rule="evenodd" fill-rule="evenodd" stroke-linejoin="round" stroke-miterlimit="2" viewBox="0 0 934 1300" xmlns="http://www.w3.org/2000/svg"><g fill="#d40000" fill-rule="nonzero"><path d="M35.439 150.393c-1.694-11.441-1.669-41.02-.276-49.751 4.29-26.794 14.727-39.038 32.188-43.064 16.948-3.889 40.782.451 46.013 22.843l-14.188.263c-7.677-15.141-27.07-11.089-37.984-4.503-8.731 5.256-12.669 27.158-10.976 28.513-.013 0 16.483-11.992 29.479-11.102 27.786 2.835 39.238 26.481 38.272 48.822-.878 26.87-9.558 48.346-39.012 49.776-27.986-1.054-40.819-16.044-43.516-41.797zm69.043-7.1c.164-18.654-8.467-32.603-24.787-34.133-16.308-1.543-32.766 14.087-31.624 33.091 1.141 19.068 8.655 35.137 28.438 35.037 21.275-.088 27.873-20.724 27.973-33.995zM896.89 1149.61c1.706 11.44 1.681 41.02.276 49.75-4.277 26.79-14.714 39.04-32.176 43.06-16.947 3.9-40.781-.44-46.012-22.84l14.187-.27c7.677 15.14 27.071 11.09 37.984 4.51 8.719-5.26 12.67-27.16 10.977-28.51.012 0-16.484 11.99-29.479 11.1-27.786-2.84-39.239-26.48-38.273-48.83.878-26.87 9.559-48.34 39-49.77 27.999 1.05 40.832 16.04 43.516 41.8zm-69.043 7.1c-.151 18.65 8.48 32.59 24.8 34.13 16.307 1.54 32.765-14.09 31.624-33.09-1.142-19.07-8.668-35.13-28.451-35.04-21.275.09-27.86 20.73-27.973 34zM37.182 247.788c-6.625-14.471-7.333-39.192 12.375-42.534 14.833-1.912 20.875 4.992 22.083 15.592.584 3.096 2.334 3.283 2.875-.246.875-10.871 11.625-17.217 20.042-15.625 23.042 3.942 21.667 29.288 14.167 46.483-11.375 22.83-23.334 37.238-34.375 60.217-12.625-23.921-27.084-43.354-37.167-63.887zm147.042-129.213c29.75-1.979 45.25 23.446 48.291 43.483 1.792 3.184 2.792 2.288 3.5-.175 1.459-25.725 24.459-46.75 45.792-43.875 34.708.45 55.792 39.063 49.875 71.742-7.25 39.925-28.75 63.963-45.042 88.725-18.416 25.633-43.208 62.663-51.208 80.483 0 0-25.208-38.35-58-83.454-21.917-30.162-39.458-62.846-41.083-90.983-1.875-32.146 11.333-60.963 47.875-65.946zm464.708 0c29.75-1.979 45.292 23.446 48.292 43.483 1.833 3.184 2.791 2.288 3.5-.175 1.458-25.725 24.5-46.75 45.791-43.875 34.709.45 55.792 39.063 49.875 71.742-7.25 39.925-28.75 63.963-45.041 88.725-18.417 25.633-43.209 62.663-51.209 80.483 0 0-25.208-38.35-57.958-83.454-21.958-30.162-39.5-62.846-41.125-90.983-1.875-32.146 11.333-60.963 47.875-65.946zm0 412.054c29.75-1.975 45.292 23.45 48.292 43.488 1.833 3.183 2.791 2.283 3.5-.179 1.458-25.725 24.5-46.75 45.791-43.875 34.709.454 55.792 39.066 49.875 71.745-7.25 39.925-28.75 63.963-45.041 88.721-18.417 25.638-43.209 62.667-51.209 80.488 0 0-25.208-38.354-57.958-83.459-21.958-30.158-39.5-62.841-41.125-90.979-1.875-32.146 11.333-60.966 47.875-65.95zm-464.708 0c29.75-1.975 45.25 23.45 48.291 43.488 1.792 3.183 2.792 2.283 3.5-.179 1.459-25.725 24.459-46.75 45.792-43.875 34.708.454 55.792 39.066 49.875 71.745-7.25 39.925-28.75 63.963-45.042 88.721-18.416 25.638-43.208 62.667-51.208 80.488 0 0-25.208-38.354-58-83.459-21.917-30.158-39.458-62.841-41.083-90.979-1.875-32.146 11.333-60.966 47.875-65.95zm0 650.381c29.75 1.98 45.25-23.44 48.291-43.48 1.792-3.18 2.792-2.29 3.5.17 1.459 25.73 24.459 46.75 45.792 43.88 34.708-.45 55.792-39.06 49.875-71.74-7.25-39.93-28.75-63.97-45.042-88.73-18.416-25.631-43.208-62.66-51.208-80.481 0 0-25.208 38.35-58 83.451-21.917 30.17-39.458 62.85-41.083 90.99-1.875 32.14 11.333 60.96 47.875 65.94zm464.708 0c29.75 1.98 45.292-23.44 48.292-43.48 1.833-3.18 2.791-2.29 3.5.17 1.458 25.73 24.5 46.75 45.791 43.88 34.709-.45 55.792-39.06 49.875-71.74-7.25-39.93-28.75-63.97-45.041-88.73-18.417-25.631-43.209-62.66-51.209-80.481 0 0-25.208 38.35-57.958 83.451-21.958 30.17-39.5 62.85-41.125 90.99-1.875 32.14 11.333 60.96 47.875 65.94zm174.958-137.98c-6.583 14.47-7.291 39.19 12.375 42.53 14.875 1.91 20.917-4.99 22.084-15.59.625-3.1 2.375-3.29 2.916.24.834 10.87 11.625 17.22 20 15.63 23.042-3.94 21.709-29.29 14.167-46.49-11.375-22.83-23.333-37.23-34.333-60.212-12.667 23.922-27.125 43.352-37.209 63.892z"/></g></svg>