<svg clip-rule="evenodd" fill-rule="evenodd" stroke-linejoin="round" stroke-miterlimit="2" viewBox="0 0 934 1300" xmlns="http://www.w3.org/2000/svg"><g fill-rule="nonzero"><path d="M35.936 150.393c-1.693-11.441-1.668-41.02-.276-49.751 4.29-26.794 14.727-39.038 32.189-43.064 16.947-3.889 40.781.451 46.012 22.843l-14.187.263c-7.677-15.141-27.071-11.089-37.984-4.503-8.731 5.256-12.67 27.158-10.977 28.513-.012 0 16.484-11.992 29.479-11.102 27.786 2.835 39.239 26.481 38.273 48.822-.878 26.87-9.559 48.346-39.013 49.776-27.986-1.054-40.819-16.044-43.516-41.797zm69.044-7.1c.163-18.654-8.467-32.603-24.788-34.133-16.307-1.543-32.765 14.087-31.624 33.091 1.142 19.068 8.656 35.137 28.438 35.037 21.275-.088 27.874-20.724 27.974-33.995zM897.388 1149.61c1.706 11.44 1.681 41.02.276 49.75-4.278 26.79-14.715 39.04-32.176 43.06-16.948 3.9-40.782-.44-46.013-22.84l14.188-.27c7.677 15.14 27.07 11.09 37.984 4.51 8.718-5.26 12.67-27.16 10.976-28.51.013 0-16.483 11.99-29.479 11.1-27.785-2.84-39.238-26.48-38.272-48.83.878-26.87 9.558-48.34 39-49.77 27.998 1.05 40.831 16.04 43.516 41.8zm-69.044 7.1c-.15 18.65 8.48 32.59 24.8 34.13 16.308 1.54 32.766-14.09 31.624-33.09-1.141-19.07-8.668-35.13-28.45-35.04-21.275.09-27.861 20.73-27.974 34zM225.971 286.063c.083-8.442-6.583-8.604-6.5-2.442-.583 30.955-26.75 46.192-45.792 42.58-29.291-5.575-38.666-34.675-38.375-51.817.875-52.9 54.125-91.908 102.167-159.725 35.208 61.208 93.333 109.287 96.75 156.604 4.583 62.908-75.042 86.375-86.375 13.054-.75-5.179-6.833-7.504-6.375-.271 1.75 20.096-.708 28.463 21.958 77.996h-59.291c13.125-23.141 20.958-51.558 21.833-75.979zm464.75 0c.042-8.442-6.625-8.604-6.542-2.442-.583 30.955-26.75 46.192-45.75 42.58-29.333-5.575-38.666-34.675-38.416-51.817.875-52.9 54.125-91.908 102.166-159.725 35.209 61.208 93.334 109.287 96.792 156.604 4.542 62.908-75.042 86.375-86.417 13.054-.75-5.179-6.833-7.504-6.375-.271 1.75 20.096-.708 28.463 21.959 77.996h-59.25c13.125-23.141 20.916-51.558 21.833-75.979zM226.013 602.805c.083 8.437-6.584 8.6-6.5 2.437-.584-30.95-26.75-46.191-45.75-42.575-29.334 5.571-38.709 34.675-38.417 51.813.875 52.9 54.125 91.908 102.167 159.729 35.208-61.213 93.333-109.292 96.75-156.608 4.583-62.909-75-86.375-86.375-13.055-.75 5.18-6.834 7.505-6.375.271 1.75-20.091-.709-28.462 21.958-77.996h-59.25c13.125 23.146 20.917 51.559 21.792 75.984zm464.75 0c.041 8.437-6.625 8.6-6.542 2.437-.542-30.95-26.75-46.191-45.75-42.575-29.333 5.571-38.667 34.675-38.417 51.813.875 52.9 54.125 91.908 102.167 159.729 35.208-61.213 93.333-109.292 96.792-156.608 4.583-62.909-75.042-86.375-86.417-13.055-.75 5.18-6.833 7.505-6.375.271 1.75-20.091-.708-28.462 21.958-77.996h-59.25c13.125 23.146 20.917 51.559 21.834 75.984zm0 410.825c.041 8.44-6.625 8.6-6.542 2.44-.542-30.953-26.75-46.19-45.75-42.578-29.333 5.575-38.667 34.678-38.417 51.818.875 52.9 54.125 91.91 102.167 159.72 35.208-61.21 93.333-109.28 96.792-156.6 4.583-62.913-75.042-86.375-86.417-13.05-.75 5.18-6.833 7.5-6.375.27 1.75-20.099-.708-28.47 21.958-78.004h-59.25c13.125 23.146 20.917 51.563 21.834 75.984zm-464.75 0c.083 8.44-6.584 8.6-6.5 2.44-.584-30.953-26.75-46.19-45.75-42.578-29.334 5.575-38.709 34.678-38.417 51.818.875 52.9 54.125 91.91 102.167 159.72 35.208-61.21 93.333-109.28 96.75-156.6 4.583-62.913-75-86.375-86.375-13.05-.75 5.18-6.834 7.5-6.375.27 1.75-20.099-.709-28.47 21.958-78.004h-59.25c13.125 23.146 20.917 51.563 21.792 75.984zm-154-728.113c.041-3.629-3.709-1.933-4.25-.791-4.834 8.275-11.917 10.2-18.917 7.216-6.958-2.954-10.875-9.5-10.25-18.841 1.292-14.325 12.667-30 18.167-38.859 5.208-8.041 10.958-17.596 16.958-29.812 7.083 14.016 10.667 18.004 18.375 30.8 6.792 11.266 16.208 22.304 16.958 35.925 0 10.354-4.375 20.133-14.166 21.916-5.542 1.009-10.75-1.841-14.625-8.487-1.167-1.696-3.542-.813-3.459 1.508.667 8.721 3.959 16.596 11.75 25.879H59.888c5.875-6.566 11.875-15.429 12.125-26.454zm786.75 719.773c.041 3.64-3.75 1.94-4.25.79-4.834-8.267-11.917-10.192-18.959-7.213-6.958 2.963-10.833 9.503-10.208 18.843 1.292 14.32 12.625 30 18.125 38.86 5.208 8.04 10.958 17.59 17 29.81 7.083-14.01 10.667-18 18.333-30.8 6.792-11.27 16.25-22.3 16.959-35.93 0-10.35-4.334-20.129-14.167-21.908-5.542-1.008-10.75 1.838-14.583 8.488-1.167 1.69-3.542.81-3.5-1.51.708-8.724 4-16.599 11.791-25.882h-28.708c5.875 6.567 11.875 15.433 12.167 26.452z"/></g></svg>