<svg clip-rule="evenodd" fill-rule="evenodd" stroke-linejoin="round" stroke-miterlimit="2" viewBox="0 0 934 1300" xmlns="http://www.w3.org/2000/svg"><g fill-rule="nonzero"><path d="M51.814 194.186c8.881-46.2 18.365-80.872 43.253-118.53H44.501v16.207H31.066V61.318h73.973l9.12 14.338c-26.418 28.325-50.616 119.873-46.326 118.53zm827.268 911.624c-8.881 46.21-18.377 80.88-43.252 118.54h50.566v-16.21h13.435v30.54h-73.974l-9.12-14.33c26.419-28.32 50.616-119.87 46.326-118.54zM647.954 363.415c12-24.063 20.75-48.754 22.291-75.154 1.417-9.717-4.458-9.879-5.375-3.038-16.958 64.971-107.333 47.379-104.208-13.733 2.5-49.563 51.708-60.225 77.417-44.021 10.125 5.971 9.541 2.396 4.041-3.8-38.166-42.546-15.041-97.337 36.5-98.342 55.75 3.305 70.209 61.959 36 96.45-4.25 4.146-13.666 17.467.542 8.155 34.5-24.534 82.417 1.841 81.458 39.666-1.833 69.746-86.833 74.95-105.041 16.692-1.75-6.458-6.75-9.704-5.375 1.267 2.5 19.862 7.75 49.808 22.666 75.858zm0 417.7c12-24.063 20.75-48.754 22.291-75.154 1.417-9.717-4.458-9.879-5.375-3.034-16.958 64.967-107.333 47.375-104.208-13.737 2.5-49.563 51.708-60.225 77.417-44.017 10.125 5.967 9.541 2.392 4.041-3.8-38.166-42.55-15.041-97.341 36.5-98.346 55.75 3.309 70.209 61.959 36 96.455-4.25 4.141-13.666 17.462.542 8.15 34.5-24.534 82.417 1.845 81.458 39.67-1.833 69.746-86.833 74.946-105.041 16.688-1.75-6.458-6.75-9.7-5.375 1.271 2.5 19.858 7.75 49.804 22.666 75.854zm-423.042 0c12-24.063 20.75-48.754 22.292-75.154 1.416-9.717-4.5-9.879-5.375-3.034-17 64.967-107.334 47.375-104.25-13.737 2.541-49.563 51.75-60.225 77.458-44.017 10.125 5.967 9.542 2.392 4-3.8-38.125-42.55-15.042-97.341 36.542-98.346 55.708 3.309 70.208 61.959 36 96.455-4.25 4.141-13.667 17.462.5 8.15 34.541-24.534 82.458 1.845 81.5 39.67-1.834 69.746-86.875 74.946-105.042 16.688-1.75-6.458-6.792-9.7-5.375 1.271 2.5 19.858 7.708 49.804 22.625 75.854zm210.125-208.85c12-24.063 20.75-48.754 22.292-75.154 1.416-9.717-4.459-9.879-5.375-3.038-16.959 64.971-107.334 47.379-104.209-13.733 2.5-49.563 51.75-60.225 77.417-44.021 10.125 5.971 9.583 2.396 4.042-3.796-38.167-42.55-15.042-97.341 36.5-98.346 55.75 3.309 70.208 61.959 36 96.45-4.25 4.146-13.667 17.467.541 8.155 34.5-24.534 82.417 1.845 81.459 39.666-1.792 69.746-86.834 74.95-105 16.692-1.75-6.458-6.792-9.7-5.417 1.271 2.542 19.858 7.75 49.804 22.667 75.854zm-210.125-208.85c12-24.063 20.75-48.754 22.292-75.154 1.416-9.717-4.5-9.879-5.375-3.038-17 64.971-107.334 47.379-104.25-13.733 2.541-49.563 51.75-60.225 77.458-44.021 10.125 5.971 9.542 2.396 4-3.8-38.125-42.546-15.042-97.337 36.542-98.342 55.708 3.305 70.208 61.959 36 96.45-4.25 4.146-13.667 17.467.5 8.155 34.541-24.534 82.458 1.841 81.5 39.666-1.834 69.746-86.875 74.95-105.042 16.692-1.75-6.458-6.792-9.704-5.375 1.267 2.5 19.862 7.708 49.808 22.625 75.858zm484.333 590.442c-12 24.062-20.75 48.753-22.291 75.153-1.459 9.72 4.458 9.88 5.375 3.04 16.958-64.973 107.333-47.381 104.208 13.73-2.5 49.56-51.75 60.23-77.417 44.02-10.125-5.97-9.583-2.39-4.041 3.8 38.166 42.55 15.041 97.34-36.5 98.34-55.75-3.3-70.209-61.95-36-96.45 4.25-4.14 13.666-17.46-.542-8.15-34.5 24.53-82.417-1.84-81.458-39.67 1.791-69.743 86.833-74.947 105-16.69 1.75 6.46 6.791 9.71 5.416-1.27-2.541-19.86-7.75-49.803-22.666-75.853zm-423.083 0c-12 24.062-20.708 48.753-22.292 75.153-1.416 9.72 4.5 9.88 5.375 3.04 17-64.973 107.375-47.381 104.25 13.73-2.541 49.56-51.75 60.23-77.416 44.02-10.167-5.97-9.584-2.39-4.042 3.8 38.125 42.55 15.042 97.34-36.5 98.34-55.75-3.3-70.208-61.95-36.042-96.45 4.25-4.14 13.709-17.46-.5-8.15-34.541 24.53-82.458-1.84-81.458-39.67 1.792-69.743 86.833-74.947 105-16.69 1.75 6.46 6.792 9.71 5.417-1.27-2.542-19.86-7.75-49.803-22.667-75.853zM56.454 318.677c4.97-10.187 9.804-19.67 12.437-30.837 1.746-10.533-1.829-6.621-3.854.283-3.008 9.575-11.346 13.934-19.083 14.038-14.05.191-21.055-10.85-20.617-22.725-1.533-12.492 11.129-21.334 20.671-20.654 7.179.512 13.433 4.387 17.221 7.4 2.487 1.312 5.141 1.891 1.437-1.496-6.987-7.638-12.817-12.35-12.692-23.796.121-10.742 9.309-21.95 21.484-21.596 15.212.438 22.133 12.042 22.096 22.833-.042 7.867-3.975 15.109-10.05 19.596-3.934 3.192-2.83 5.584 1.658 2.563 4.312-3.717 9.446-5.346 14.771-5.459 14.562-.229 20.229 12.338 19.396 24.017-.792 10.938-10.084 22.2-22.371 20.925-10.963-1.254-16.721-10.458-20.021-19.904-1.092-2.896-2.817-3.679-2.771.637 2.533 21.075 10.383 34.188 10.442 34.175zM876.912 993.69c-5 10.19-9.833 19.67-12.458 30.84-1.75 10.53 1.833 6.62 3.875-.29 3-9.57 11.333-13.93 19.083-14.03 14.042-.2 21.042 10.85 20.583 22.72 1.542 12.49-11.125 21.34-20.666 20.66-7.167-.52-13.417-4.39-17.209-7.4-2.5-1.32-5.125-1.9-1.458 1.49 7 7.64 12.833 12.35 12.708 23.8-.125 10.74-9.291 21.95-21.458 21.6-15.25-.44-22.167-12.05-22.125-22.84.042-7.87 3.958-15.11 10.042-19.6 3.958-3.19 2.833-5.57-1.625-2.56-4.334 3.72-9.459 5.35-14.792 5.46-14.542.23-20.208-12.34-19.375-24.02.75-10.93 10.083-22.2 22.333-20.92 11 1.25 16.75 10.46 20.042 19.9 1.083 2.9 2.792 3.68 2.75-.63-2.5-21.08-10.375-34.193-10.417-34.18z"/></g></svg>