<svg clip-rule="evenodd" fill-rule="evenodd" stroke-linejoin="round" stroke-miterlimit="2" viewBox="0 0 934 1300" xmlns="http://www.w3.org/2000/svg"><g fill="#d40000" fill-rule="nonzero"><path d="M139.149 245.354c41.333-40.342 68.479-84.322 94.446-126.621 22.767 46.539 55.445 87.258 90.782 126.621-37.808 39.038-67.111 80.773-90.67 124.653-26.117-44.984-53.614-85.715-94.558-124.653zm0 417.699c41.333-40.342 68.479-84.323 94.446-126.622 22.767 46.539 55.445 87.258 90.782 126.622-37.808 39.036-67.111 80.776-90.67 124.657-26.117-44.981-53.614-85.715-94.558-124.657zm0 410.827c41.333-40.34 68.479-84.322 94.446-126.62 22.767 46.542 55.445 87.26 90.782 126.62-37.808 39.04-67.111 80.78-90.67 124.66-26.117-44.98-53.614-85.72-94.558-124.66zm235.142-619.676c41.333-40.343 68.479-84.323 94.445-126.622 22.768 46.539 55.446 87.258 90.771 126.622-37.796 39.037-67.1 80.772-90.658 124.652-26.117-44.984-53.614-85.715-94.558-124.652zm229.572-208.85c41.346-40.342 68.492-84.322 94.446-126.621 22.78 46.539 55.445 87.258 90.783 126.621-37.809 39.038-67.112 80.773-90.658 124.653-26.117-44.984-53.614-85.715-94.571-124.653zm0 417.699c41.346-40.342 68.492-84.323 94.446-126.622 22.78 46.539 55.445 87.258 90.783 126.622-37.809 39.036-67.112 80.776-90.658 124.657-26.117-44.981-53.614-85.715-94.571-124.657zm0 410.827c41.346-40.34 68.492-84.322 94.446-126.62 22.78 46.542 55.445 87.26 90.783 126.62-37.809 39.04-67.112 80.78-90.658 124.66-26.117-44.98-53.614-85.72-94.571-124.66zm219.449-30.09c16.935-16.53 28.062-34.54 38.699-51.871 9.321 19.061 22.705 35.741 37.181 51.871-15.492 15.99-27.484 33.09-37.143 51.06-10.7-18.42-21.953-35.11-38.737-51.06zM36.587 269.377c16.935-16.521 28.049-34.535 38.687-51.871 9.332 19.068 22.717 35.751 37.193 51.871-15.492 15.994-27.497 33.091-37.143 51.067-10.701-18.427-21.965-35.111-38.737-51.067zm16.446-75.191c8.881-46.2 18.364-80.872 43.252-118.53H45.719v16.207H32.284V61.318h73.974l9.119 14.338c-26.418 28.325-50.616 119.873-46.325 118.53zm827.268 911.624c-8.882 46.21-18.378 80.88-43.253 118.54h50.566v-16.21h13.435v30.54h-73.973l-9.12-14.33c26.418-28.32 50.616-119.87 46.326-118.54z"/></g></svg>