<svg clip-rule="evenodd" fill-rule="evenodd" stroke-linejoin="round" stroke-miterlimit="2" viewBox="0 0 934 1300" xmlns="http://www.w3.org/2000/svg"><g fill="#d40000" fill-rule="nonzero"><path d="M52.771 194.186c8.882-46.2 18.365-80.872 43.253-118.53H45.458v16.207H32.023V61.318h73.974l9.119 14.338C88.698 103.981 64.5 195.529 68.79 194.186zM880.04 1105.81c-8.882 46.21-18.378 80.88-43.253 118.54h50.566v-16.21h13.435v30.54h-73.974l-9.119-14.33c26.418-28.32 50.616-119.87 46.326-118.54zM38.123 258.565c-6.583-14.467-7.291-39.188 12.375-42.533 14.875-1.909 20.917 4.991 22.084 15.591.625 3.096 2.375 3.284 2.916-.241.834-10.875 11.625-17.221 20-15.625 23.042 3.937 21.709 29.283 14.167 46.479-11.375 22.833-23.333 37.241-34.333 60.216-12.667-23.92-27.125-43.354-37.209-63.887zM181.29 124.594c29.792-1.975 45.292 23.446 48.333 43.488 1.792 3.179 2.792 2.283 3.459-.18 1.458-25.725 24.5-46.75 45.833-43.875 34.708.45 55.792 39.063 49.833 71.746-7.25 39.921-28.75 63.963-45 88.721-18.458 25.633-43.25 62.663-51.208 80.488 0 0-25.208-38.355-58-83.459-21.917-30.158-39.5-62.841-41.125-90.979-1.833-32.15 11.333-60.967 47.875-65.95zm464.75 0c29.75-1.975 45.25 23.446 48.292 43.488 1.791 3.179 2.791 2.283 3.5-.18 1.458-25.725 24.458-46.75 45.791-43.875 34.709.45 55.792 39.063 49.875 71.746-7.25 39.921-28.75 63.963-45.041 88.721-18.417 25.633-43.209 62.663-51.209 80.488 0 0-25.208-38.355-58-83.459-21.916-30.158-39.458-62.841-41.083-90.979-1.875-32.15 11.333-60.967 47.875-65.95zm-229.583 208.85c29.75-1.975 45.291 23.45 48.291 43.488 1.834 3.183 2.792 2.283 3.5-.18 1.459-25.725 24.459-46.75 45.792-43.875 34.708.455 55.792 39.067 49.875 71.746-7.25 39.925-28.75 63.963-45.042 88.721-18.416 25.638-43.208 62.667-51.208 80.488 0 0-25.208-38.355-58-83.459-21.917-30.158-39.458-62.841-41.083-90.979-1.875-32.146 11.333-60.967 47.875-65.95zM181.29 542.298c29.792-1.979 45.292 23.446 48.333 43.484 1.792 3.183 2.792 2.287 3.459-.175 1.458-25.725 24.5-46.755 45.833-43.88 34.708.455 55.792 39.067 49.833 71.746-7.25 39.925-28.75 63.963-45 88.721-18.458 25.638-43.25 62.667-51.208 80.488 0 0-25.208-38.35-58-83.455-21.917-30.162-39.5-62.845-41.125-90.983-1.833-32.146 11.333-60.967 47.875-65.946zm464.75 0c29.75-1.979 45.25 23.446 48.292 43.484 1.791 3.183 2.791 2.287 3.5-.175 1.458-25.725 24.458-46.755 45.791-43.88 34.709.455 55.792 39.067 49.875 71.746-7.25 39.925-28.75 63.963-45.041 88.721-18.417 25.638-43.209 62.667-51.209 80.488 0 0-25.208-38.35-58-83.455-21.916-30.162-39.458-62.845-41.083-90.983-1.875-32.146 11.333-60.967 47.875-65.946zm178.833 511.512c-6.625 14.46-7.333 39.18 12.375 42.53 14.834 1.91 20.875-5 22.084-15.59.583-3.1 2.333-3.29 2.875.24.875 10.87 11.625 17.22 20.041 15.63 23.042-3.94 21.667-29.29 14.167-46.48-11.375-22.84-23.333-37.25-34.375-60.221-12.625 23.921-27.083 43.351-37.167 63.891zM646.04 1192.68c29.75 1.98 45.25-23.45 48.292-43.49 1.791-3.18 2.791-2.28 3.5.18 1.458 25.72 24.458 46.75 45.791 43.87 34.709-.45 55.792-39.06 49.875-71.74-7.25-39.92-28.75-63.96-45.041-88.72-18.417-25.64-43.209-62.665-51.209-80.486 0 0-25.208 38.35-58 83.456-21.916 30.16-39.458 62.84-41.083 90.98-1.875 32.15 11.333 60.97 47.875 65.95zm-464.75 0c29.792 1.98 45.292-23.45 48.333-43.49 1.792-3.18 2.792-2.28 3.459.18 1.458 25.72 24.5 46.75 45.833 43.87 34.708-.45 55.792-39.06 49.833-71.74-7.25-39.92-28.75-63.96-45-88.72-18.458-25.64-43.25-62.665-51.208-80.486 0 0-25.208 38.35-58 83.456-21.917 30.16-39.5 62.84-41.125 90.98-1.833 32.15 11.333 60.97 47.875 65.95z"/></g></svg>