<svg clip-rule="evenodd" fill-rule="evenodd" stroke-linejoin="round" stroke-miterlimit="2" viewBox="0 0 934 1300" xmlns="http://www.w3.org/2000/svg"><g fill-rule="nonzero"><path d="M53.033 194.186c8.881-46.2 18.364-80.872 43.252-118.53H45.719v16.207H32.284V61.318h73.974l9.119 14.338c-26.418 28.325-50.616 119.873-46.325 118.53zm827.268 911.624c-8.882 46.21-18.378 80.88-43.253 118.54h50.566v-16.21h13.435v30.54h-73.973l-9.12-14.33c26.418-28.32 50.616-119.87 46.326-118.54zM222.834 292.082c.084-8.442-6.625-8.6-6.541-2.442-.542 30.954-26.709 46.196-45.75 42.579-29.334-5.575-38.667-34.675-38.375-51.812.833-52.905 54.125-91.913 102.166-159.73 35.209 61.213 93.292 109.292 96.75 156.609 4.584 62.908-75.041 86.371-86.416 13.05-.709-5.179-6.834-7.504-6.334-.271 1.709 20.096-.75 28.467 21.917 78h-59.25c13.125-23.146 20.958-51.563 21.833-75.983zm464.709 0c.083-8.442-6.584-8.6-6.5-2.442-.584 30.954-26.75 46.196-45.792 42.579-29.292-5.575-38.667-34.675-38.375-51.812.875-52.905 54.125-91.913 102.167-159.73 35.208 61.213 93.333 109.292 96.75 156.609 4.583 62.908-75.042 86.371-86.375 13.05-.75-5.179-6.834-7.504-6.375-.271 1.708 20.096-.75 28.467 21.958 78h-59.292c13.125-23.146 20.959-51.563 21.834-75.983zm-229.542 208.85c.042-8.438-6.625-8.6-6.542-2.442-.583 30.954-26.75 46.196-45.791 42.579-29.292-5.571-38.667-34.675-38.375-51.812.875-52.905 54.125-91.913 102.166-159.73 35.209 61.213 93.334 109.292 96.75 156.609 4.584 62.908-75 86.375-86.375 13.054-.75-5.179-6.833-7.504-6.375-.271 1.709 20.092-.708 28.463 21.959 77.996h-59.25c13.083-23.146 20.916-51.558 21.833-75.983zm229.542 208.85c.083-8.438-6.584-8.6-6.5-2.438-.584 30.95-26.75 46.192-45.792 42.575-29.292-5.571-38.667-34.675-38.375-51.812.875-52.9 54.125-91.909 102.167-159.73 35.208 61.213 93.333 109.292 96.75 156.609 4.583 62.908-75.042 86.375-86.375 13.054-.75-5.179-6.834-7.504-6.375-.271 1.708 20.092-.75 28.463 21.958 77.996h-59.292c13.125-23.146 20.959-51.558 21.834-75.979zm-464.709 0c.084-8.438-6.625-8.6-6.541-2.438-.542 30.95-26.709 46.192-45.75 42.575-29.334-5.571-38.667-34.675-38.375-51.812.833-52.9 54.125-91.909 102.166-159.73 35.209 61.213 93.292 109.292 96.75 156.609 4.584 62.908-75.041 86.375-86.416 13.054-.709-5.179-6.834-7.504-6.334-.271 1.709 20.092-.75 28.463 21.917 77.996h-59.25c13.125-23.146 20.958-51.558 21.833-75.979zm464.75 315.508c.084 8.45-6.583 8.61-6.5 2.45-.583-30.958-26.75-46.196-45.75-42.583-29.333 5.575-38.708 34.673-38.416 51.813.875 52.9 54.125 91.91 102.166 159.73 35.209-61.21 93.334-109.29 96.75-156.61 4.584-62.904-75-86.371-86.375-13.05-.75 5.18-6.833 7.5-6.375.27 1.75-20.09-.708-28.462 21.959-77.995h-59.292c13.125 23.142 20.958 51.555 21.833 75.975zm-464.708 0c.083 8.45-6.583 8.61-6.542 2.45-.541-30.958-26.708-46.196-45.75-42.583-29.291 5.575-38.666 34.673-38.375 51.813.875 52.9 54.125 91.91 102.167 159.73 35.208-61.21 93.333-109.29 96.75-156.61 4.583-62.904-75.042-86.371-86.417-13.05-.708 5.18-6.833 7.5-6.333.27 1.708-20.09-.75-28.462 21.917-77.995h-59.25c13.125 23.142 20.958 51.555 21.833 75.975zM72.743 296.298c.041-3.633-3.729-1.937-4.242-.796-4.846 8.275-11.937 10.2-18.95 7.217-6.946-2.954-10.85-9.5-10.225-18.842 1.292-14.325 12.65-29.995 18.146-38.858 5.217-8.042 10.95-17.592 16.987-29.808 7.071 14.012 10.663 18 18.355 30.796 6.775 11.27 16.229 22.304 16.937 35.929 0 10.354-4.346 20.129-14.154 21.912-5.546 1.009-10.742-1.841-14.6-8.487-1.171-1.692-3.533-.809-3.496 1.508.688 8.721 3.983 16.596 11.792 25.883H60.597c5.875-6.566 11.867-15.433 12.146-26.454zm786.716 719.772c.042 3.63-3.708 1.94-4.208.8-4.875-8.28-11.958-10.2-18.958-7.22-6.959 2.95-10.875 9.5-10.25 18.84 1.291 14.33 12.666 30 18.166 38.86 5.209 8.04 10.959 17.59 17 29.81 7.042-14.02 10.625-18 18.334-30.8 6.791-11.27 16.208-22.3 16.958-35.93 0-10.35-4.375-20.13-14.167-21.91-5.541-1.01-10.75 1.84-14.583 8.49-1.208 1.69-3.542.81-3.5-1.51.667-8.72 3.958-16.598 11.792-25.885h-28.709c5.875 6.567 11.875 15.435 12.125 26.455z"/></g></svg>