<svg clip-rule="evenodd" fill-rule="evenodd" stroke-linejoin="round" stroke-miterlimit="2" viewBox="0 0 934 1300" xmlns="http://www.w3.org/2000/svg"><g fill-rule="nonzero"><path d="M32.513 156.849c.664-18.227 7.376-25.076 20.597-34.61-10.537-7.489-14.99-18.49-14.087-27.873 2.17-22.692 20.046-34.045 39.514-33.556 19.482.502 36.278 15.681 37.583 32.176 1.142 14.351-3.211 21.263-13.573 28.814 12.306 10.174 20.171 16.872 19.87 34.836-.301 17.963-15.856 39.339-42.976 39.991-27.121.652-47.593-21.539-46.928-39.778zm75.717.063c1.166-16.509-13.699-27.648-30.47-27.811-16.345-.175-30.96 13.523-30.96 28.338 0 15.931 19.005 24.574 31.298 24.624 14.915.05 29.128-10.926 30.132-25.151zm-5.357-59.059c.314-13.899-12.745-23.871-26.205-23.47-11.979.364-24.674 9.346-24.687 20.962 0 14.551 14.426 21.801 26.745 22.077 11.164.251 23.896-9.057 24.147-19.569zM902.468 1143.15c-.664 18.23-7.376 25.08-20.597 34.62 10.537 7.48 14.99 18.49 14.087 27.86-2.17 22.7-20.033 34.05-39.514 33.56-19.482-.5-36.278-15.68-37.583-32.17-1.142-14.35 3.211-21.26 13.573-28.82-12.306-10.17-20.171-16.87-19.87-34.83s15.856-39.33 42.976-39.99c27.121-.66 47.593 21.54 46.928 39.77zm-75.717-.06c-1.166 16.51 13.699 27.65 30.47 27.82 16.345.17 30.96-13.53 30.96-28.35 0-15.92-19.018-24.57-31.298-24.62-14.915-.05-29.141 10.93-30.132 25.15zm5.357 59.05c-.314 13.91 12.745 23.88 26.205 23.48 11.979-.36 24.674-9.34 24.674-20.97.025-14.54-14.426-21.8-26.732-22.07-11.164-.25-23.896 9.06-24.147 19.56zM651.75 354.779c11.958-24.066 20.708-48.754 22.25-75.158 1.417-9.713-4.458-9.875-5.333-3.033-17 64.97-107.375 47.375-104.25-13.738 2.5-49.558 51.75-60.221 77.416-44.017 10.125 5.971 9.584 2.392 4.042-3.8-38.167-42.545-15.042-97.341 36.5-98.341 55.75 3.304 70.208 61.958 36 96.45-4.25 4.146-13.667 17.462.542 8.15 34.5-24.534 82.416 1.846 81.458 39.671-1.792 69.745-86.833 74.945-105 16.691-1.75-6.458-6.792-9.704-5.417 1.267 2.542 19.862 7.75 49.804 22.667 75.858zm0 417.7c11.958-24.062 20.708-48.754 22.25-75.154 1.417-9.717-4.458-9.879-5.333-3.038-17 64.971-107.375 47.38-104.25-13.733 2.5-49.562 51.75-60.225 77.416-44.021 10.125 5.971 9.584 2.396 4.042-3.8-38.167-42.546-15.042-97.337 36.5-98.341 55.75 3.304 70.208 61.958 36 96.45-4.25 4.145-13.667 17.466.542 8.154 34.5-24.534 82.416 1.841 81.458 39.666-1.792 69.746-86.833 74.95-105 16.692-1.75-6.458-6.792-9.7-5.417 1.267 2.542 19.862 7.75 49.808 22.667 75.858zm-431.417 0c12-24.062 20.75-48.754 22.292-75.154 1.417-9.717-4.458-9.879-5.375-3.038-16.958 64.971-107.333 47.38-104.208-13.733 2.5-49.562 51.708-60.225 77.416-44.021 10.125 5.971 9.542 2.396 4.042-3.8-38.167-42.546-15.083-97.337 36.5-98.341 55.75 3.304 70.208 61.958 36 96.45-4.25 4.145-13.667 17.466.5 8.154 34.542-24.534 82.458 1.841 81.5 39.666-1.833 69.746-86.833 74.95-105.042 16.692-1.75-6.458-6.791-9.7-5.375 1.267 2.5 19.862 7.75 49.808 22.667 75.858zm209.084-208.85c12-24.066 20.75-48.754 22.291-75.154 1.459-9.717-4.458-9.879-5.333-3.037-17 64.97-107.375 47.375-104.25-13.734 2.5-49.562 51.75-60.225 77.417-44.021 10.125 5.971 9.583 2.396 4.041-3.8-38.166-42.546-15.041-97.341 36.5-98.341 55.75 3.304 70.209 61.958 36 96.45-4.25 4.145-13.666 17.462.542 8.15 34.5-24.534 82.417 1.845 81.458 39.67-1.791 69.746-86.833 74.946-105 16.692-1.75-6.458-6.791-9.704-5.416 1.267 2.541 19.862 7.75 49.808 22.666 75.858zm-209.084-208.85c12-24.066 20.75-48.754 22.292-75.158 1.417-9.713-4.458-9.875-5.375-3.033-16.958 64.97-107.333 47.375-104.208-13.738 2.5-49.558 51.708-60.221 77.416-44.017 10.125 5.971 9.542 2.392 4.042-3.8-38.167-42.545-15.083-97.341 36.5-98.341 55.75 3.304 70.208 61.958 36 96.45-4.25 4.146-13.667 17.462.5 8.15 34.542-24.534 82.458 1.846 81.5 39.671-1.833 69.745-86.833 74.945-105.042 16.691-1.75-6.458-6.791-9.704-5.375 1.267 2.5 19.862 7.75 49.804 22.667 75.858zM713 945.221c-12 24.062-20.75 48.754-22.292 75.159-1.416 9.71 4.459 9.87 5.375 3.03 16.959-64.968 107.334-47.377 104.209 13.74-2.5 49.56-51.709 60.22-77.417 44.02-10.125-5.97-9.542-2.4-4.042 3.79 38.167 42.55 15.042 97.34-36.5 98.35-55.75-3.31-70.208-61.96-36-96.46 4.25-4.14 13.667-17.46-.5-8.15-34.541 24.54-82.458-1.84-81.5-39.67 1.834-69.742 86.834-74.942 105.042-16.68 1.75 6.45 6.75 9.7 5.375-1.27-2.5-19.86-7.75-49.809-22.667-75.859zM490.708 739.804c-12 24.067-20.75 48.754-22.291 75.159-1.417 9.712 4.458 9.875 5.375 3.033C490.75 753.025 581.125 770.621 578 831.733c-2.5 49.563-51.75 60.225-77.417 44.017-10.125-5.971-9.541-2.392-4.041 3.8 38.166 42.546 15.041 97.342-36.5 98.342-55.75-3.304-70.209-61.954-36-96.45 4.25-4.142 13.666-17.463-.5-8.15-34.542 24.533-82.459-1.846-81.5-39.671 1.833-69.746 86.833-74.946 105.041-16.692 1.75 6.459 6.792 9.704 5.375-1.266-2.5-19.863-7.708-49.805-22.666-75.859zM281.583 945.221c-11.958 24.062-20.708 48.754-22.25 75.159-1.416 9.71 4.459 9.87 5.334 3.03 17-64.968 107.375-47.377 104.25 13.74-2.5 49.56-51.75 60.22-77.417 44.02-10.125-5.97-9.583-2.4-4.042 3.79 38.167 42.55 15.042 97.34-36.5 98.35-55.75-3.31-70.208-61.96-36-96.46 4.25-4.14 13.667-17.46-.541-8.15-34.5 24.54-82.417-1.84-81.459-39.67 1.792-69.742 86.834-74.942 105-16.68 1.75 6.45 6.792 9.7 5.417-1.27-2.542-19.86-7.75-49.809-22.667-75.859zm592.79 48.465c-4.967 10.204-9.8 19.664-12.438 30.834-1.745 10.54 1.83 6.62 3.859-.29 3.004-9.54 11.341-13.92 19.083-14 14.046-.21 21.05 10.83 20.617 22.71 1.533 12.5-11.129 21.33-20.675 20.66-7.179-.54-13.434-4.41-17.221-7.41-2.483-1.34-5.142-1.88-1.438 1.5 6.992 7.62 12.821 12.33 12.692 23.79-.121 10.75-9.308 21.96-21.479 21.58-15.217-.42-22.133-12.04-22.1-22.83.042-7.84 3.975-15.09 10.05-19.59 3.933-3.2 2.829-5.58-1.658-2.54-4.313 3.71-9.446 5.34-14.771 5.46-14.542.21-20.229-12.37-19.396-24.04.779-10.92 10.096-22.21 22.371-20.92 10.962 1.25 16.721 10.46 20.021 19.92 1.091 2.87 2.816 3.67 2.77-.67-2.533-21.04-10.383-34.164-10.441-34.164zM60.608 314.157c5-10.192 9.833-19.671 12.458-30.838 1.75-10.533-1.833-6.621-3.875.283-3 9.571-11.333 13.934-19.083 14.038-14.042.187-21.042-10.854-20.584-22.725-1.541-12.496 11.125-21.333 20.667-20.654 7.167.512 13.417 4.383 17.208 7.396 2.5 1.312 5.125 1.895 1.417-1.492-6.958-7.638-12.792-12.35-12.667-23.796.125-10.746 9.292-21.95 21.459-21.6 15.25.442 22.166 12.042 22.125 22.838-.042 7.866-4 15.108-10.042 19.591-3.958 3.192-2.833 5.584 1.625 2.563 4.333-3.717 9.458-5.342 14.792-5.459 14.541-.225 20.208 12.342 19.375 24.017-.75 10.942-10.084 22.204-22.375 20.929-10.959-1.258-16.709-10.458-20-19.904-1.084-2.896-2.834-3.679-2.75.638 2.5 21.07 10.375 34.183 10.416 34.17z"/></g></svg>