<svg clip-rule="evenodd" fill-rule="evenodd" stroke-linejoin="round" stroke-miterlimit="2" viewBox="0 0 934 1300" xmlns="http://www.w3.org/2000/svg"><g fill="#d40000" fill-rule="nonzero"><path d="M141.695 236.304c41.346-40.329 68.492-84.322 94.459-126.621 22.755 46.551 55.433 87.27 90.77 126.621-37.809 39.038-67.099 80.785-90.67 124.665-26.105-44.984-53.602-85.715-94.559-124.665zm0 414.676c41.346-40.338 68.492-84.318 94.459-126.617 22.755 46.539 55.433 87.258 90.77 126.617-37.809 39.036-67.099 80.776-90.67 124.657-26.105-44.981-53.602-85.715-94.559-124.657zm0 413.45c41.346-40.34 68.492-84.326 94.459-126.624 22.755 46.542 55.433 87.264 90.77 126.624-37.809 39.03-67.099 80.77-90.67 124.65-26.105-44.98-53.602-85.71-94.559-124.65zm232.357-620.59c41.334-40.329 68.48-84.31 94.446-126.609 22.768 46.539 55.446 87.258 90.783 126.609-37.809 39.038-67.112 80.785-90.67 124.665-26.117-44.984-53.602-85.715-94.559-124.665zm232.37-207.536c41.333-40.329 68.479-84.322 94.446-126.621 22.768 46.551 55.445 87.27 90.77 126.621-37.796 39.038-67.099 80.785-90.657 124.665-26.117-44.984-53.614-85.715-94.559-124.665zm0 414.676c41.333-40.338 68.479-84.318 94.446-126.617 22.768 46.539 55.445 87.258 90.77 126.617-37.796 39.036-67.099 80.776-90.657 124.657-26.117-44.981-53.614-85.715-94.559-124.657zm0 413.45c41.333-40.34 68.479-84.326 94.446-126.624 22.768 46.542 55.445 87.264 90.77 126.624-37.796 39.03-67.099 80.77-90.657 124.65-26.117-44.98-53.614-85.71-94.559-124.65zm-232.37-206.318c41.334-40.34 68.48-84.323 94.446-126.622 22.768 46.543 55.446 87.26 90.783 126.622-37.809 39.035-67.112 80.776-90.67 124.657-26.117-44.983-53.602-85.715-94.559-124.657zM39.729 273.335c16.935-16.521 28.049-34.534 38.687-51.871 9.333 19.068 22.717 35.752 37.194 51.871-15.493 15.994-27.497 33.092-37.144 51.068-10.7-18.428-21.965-35.112-38.737-51.068zM30.12 156.849c.665-18.227 7.377-25.076 20.598-34.61-10.537-7.489-14.99-18.49-14.087-27.873 2.17-22.692 20.046-34.045 39.514-33.556 19.482.502 36.278 15.681 37.583 32.176 1.141 14.351-3.211 21.263-13.573 28.814 12.306 10.174 20.171 16.872 19.87 34.836-.301 17.963-15.856 39.339-42.976 39.991-27.121.652-47.593-21.539-46.929-39.778zm75.718.063c1.166-16.509-13.699-27.648-30.47-27.811-16.346-.175-30.96 13.523-30.96 28.338 0 15.931 19.005 24.574 31.298 24.624 14.915.05 29.128-10.926 30.132-25.151zm-5.357-59.059c.314-13.899-12.745-23.871-26.205-23.47-11.98.364-24.674 9.346-24.687 20.962 0 14.551 14.426 21.801 26.745 22.077 11.164.251 23.896-9.057 24.147-19.569zm793.123 928.807c-16.935 16.53-28.049 34.54-38.687 51.88-9.332-19.07-22.717-35.76-37.193-51.88 15.492-15.99 27.497-33.087 37.143-51.063 10.701 18.428 21.965 35.113 38.737 51.063zm9.609 116.49c-.665 18.23-7.376 25.08-20.598 34.62 10.537 7.48 14.991 18.49 14.087 27.86-2.17 22.7-20.033 34.05-39.514 33.56-19.481-.5-36.278-15.68-37.583-32.17-1.141-14.35 3.212-21.26 13.573-28.82-12.306-10.17-20.171-16.87-19.87-34.83s15.856-39.33 42.977-39.99c27.12-.66 47.593 21.54 46.928 39.77zm-75.717-.06c-1.167 16.51 13.698 27.65 30.47 27.82 16.345.17 30.959-13.53 30.959-28.35 0-15.92-19.017-24.57-31.298-24.62-14.915-.05-29.14 10.93-30.131 25.15zm5.356 59.05c-.313 13.91 12.745 23.88 26.205 23.48 11.98-.36 24.675-9.34 24.675-20.97.025-14.54-14.426-21.8-26.732-22.07-11.165-.25-23.897 9.06-24.148 19.56z"/></g></svg>