<svg clip-rule="evenodd" fill-rule="evenodd" stroke-linejoin="round" stroke-miterlimit="2" viewBox="0 0 934 1300" xmlns="http://www.w3.org/2000/svg"><g fill="#d40000" fill-rule="nonzero"><path d="M30.12 156.849c.665-18.227 7.377-25.076 20.598-34.61-10.537-7.489-14.99-18.49-14.087-27.873 2.17-22.692 20.046-34.045 39.514-33.556 19.482.502 36.278 15.681 37.583 32.176 1.141 14.351-3.211 21.263-13.573 28.814 12.306 10.174 20.171 16.872 19.87 34.836-.301 17.963-15.856 39.339-42.976 39.991-27.121.652-47.593-21.539-46.929-39.778zm75.718.063c1.166-16.509-13.699-27.648-30.47-27.811-16.346-.175-30.96 13.523-30.96 28.338 0 15.931 19.005 24.574 31.298 24.624 14.915.05 29.128-10.926 30.132-25.151zm-5.357-59.059c.314-13.899-12.745-23.871-26.205-23.47-11.98.364-24.674 9.346-24.687 20.962 0 14.551 14.426 21.801 26.745 22.077 11.164.251 23.896-9.057 24.147-19.569zm-59.672 164.67c-6.625-14.466-7.333-39.191 12.375-42.533 14.834-1.913 20.875 4.992 22.084 15.592.583 3.095 2.333 3.283 2.875-.246.875-10.871 11.625-17.217 20.041-15.625 23 3.941 21.667 29.287 14.167 46.483-11.375 22.829-23.333 37.242-34.375 60.217-12.667-23.921-27.125-43.354-37.167-63.888zm862.776 880.627c-.665 18.23-7.376 25.08-20.598 34.61 10.538 7.49 14.991 18.49 14.088 27.87-2.171 22.7-20.046 34.05-39.515 33.56-19.481-.5-36.278-15.68-37.582-32.18-1.142-14.35 3.211-21.26 13.572-28.81-12.305-10.17-20.171-16.87-19.87-34.84.301-17.96 15.856-39.33 42.977-39.99 27.121-.65 47.593 21.54 46.928 39.78zm-75.717-.06c-1.167 16.51 13.698 27.65 30.47 27.81 16.345.17 30.959-13.52 30.959-28.34 0-15.93-19.004-24.57-31.298-24.62-14.915-.05-29.128 10.92-30.131 25.15zm5.356 59.06c-.313 13.9 12.745 23.87 26.205 23.47 11.98-.37 24.675-9.35 24.687-20.97 0-14.55-14.426-21.8-26.744-22.07-11.164-.25-23.897 9.05-24.148 19.57zm59.672-164.67c6.625 14.46 7.333 39.19-12.375 42.53-14.833 1.91-20.875-4.99-22.083-15.59-.584-3.1-2.334-3.29-2.875.24-.875 10.88-11.625 17.22-20.042 15.63-23-3.94-21.667-29.29-14.167-46.48 11.375-22.83 23.334-37.246 34.375-60.221 12.667 23.921 27.125 43.351 37.167 63.891zM186.518 115.552c29.791-1.979 45.291 23.446 48.333 43.484 1.792 3.183 2.792 2.287 3.5-.175 1.458-25.725 24.458-46.75 45.792-43.875 34.708.45 55.791 39.062 49.875 71.746-7.25 39.92-28.75 63.962-45.042 88.72-18.417 25.634-43.208 62.663-51.208 80.484 0 0-25.209-38.35-58-83.454-21.917-30.163-39.459-62.842-41.125-90.98-1.834-32.15 11.333-60.966 47.875-65.95zm456.416 0c29.75-1.979 45.292 23.446 48.292 43.484 1.833 3.183 2.792 2.287 3.5-.175 1.458-25.725 24.458-46.75 45.792-43.875 34.708.45 55.791 39.062 49.875 71.746-7.25 39.92-28.75 63.962-45.042 88.72-18.417 25.634-43.208 62.663-51.208 80.484 0 0-25.209-38.35-58-83.454-21.917-30.163-39.459-62.842-41.084-90.98-1.875-32.15 11.334-60.966 47.875-65.95zm-230.625 208.85c29.75-1.975 45.292 23.446 48.292 43.484 1.833 3.183 2.792 2.287 3.5-.175 1.458-25.725 24.458-46.75 45.792-43.875 34.708.45 55.791 39.062 49.875 71.746-7.25 39.92-28.75 63.962-45.042 88.72-18.417 25.634-43.208 62.663-51.208 80.488 0 0-25.209-38.354-58-83.458-21.917-30.159-39.459-62.842-41.084-90.98-1.875-32.15 11.334-60.966 47.875-65.95zm-225.791 208.85c29.791-1.975 45.291 23.45 48.333 43.488 1.792 3.183 2.792 2.283 3.5-.179 1.458-25.725 24.458-46.75 45.792-43.875 34.708.45 55.791 39.066 49.875 71.746-7.25 39.925-28.75 63.962-45.042 88.72-18.417 25.634-43.208 62.667-51.208 80.488 0 0-25.209-38.354-58-83.458-21.917-30.159-39.459-62.842-41.125-90.98-1.834-32.15 11.333-60.966 47.875-65.95zm456.416 0c29.75-1.975 45.292 23.45 48.292 43.488 1.833 3.183 2.792 2.283 3.5-.179 1.458-25.725 24.458-46.75 45.792-43.875 34.708.45 55.791 39.066 49.875 71.746-7.25 39.925-28.75 63.962-45.042 88.72-18.417 25.634-43.208 62.667-51.208 80.488 0 0-25.209-38.354-58-83.458-21.917-30.159-39.459-62.842-41.084-90.98-1.875-32.15 11.334-60.966 47.875-65.95zm0 650.388c29.75 1.98 45.292-23.45 48.292-43.49 1.833-3.18 2.792-2.28 3.5.18 1.458 25.72 24.458 46.75 45.792 43.87 34.708-.45 55.791-39.06 49.875-71.74-7.25-39.92-28.75-63.97-45.042-88.72-18.417-25.638-43.208-62.667-51.208-80.492 0 0-25.209 38.354-58 83.462-21.917 30.16-39.459 62.84-41.084 90.98-1.875 32.15 11.334 60.96 47.875 65.95zM412.309 978.223c29.75 1.975 45.292-23.45 48.292-43.487 1.833-3.179 2.792-2.284 3.5.179 1.458 25.725 24.458 46.75 45.792 43.875 34.708-.45 55.791-39.067 49.875-71.746-7.25-39.921-28.75-63.962-45.042-88.721-18.417-25.633-43.208-62.662-51.208-80.487 0 0-25.209 38.354-58 83.458-21.917 30.158-39.459 62.842-41.084 90.979-1.875 32.15 11.334 60.967 47.875 65.95zM186.518 1183.64c29.791 1.98 45.291-23.45 48.333-43.49 1.792-3.18 2.792-2.28 3.5.18 1.458 25.72 24.458 46.75 45.792 43.87 34.708-.45 55.791-39.06 49.875-71.74-7.25-39.92-28.75-63.97-45.042-88.72-18.417-25.638-43.208-62.667-51.208-80.492 0 0-25.209 38.354-58 83.462-21.917 30.16-39.459 62.84-41.125 90.98-1.834 32.15 11.333 60.96 47.875 65.95z"/></g></svg>