<svg clip-rule="evenodd" fill-rule="evenodd" stroke-linejoin="round" stroke-miterlimit="2" viewBox="0 0 934 1300" xmlns="http://www.w3.org/2000/svg"><g fill-rule="nonzero"><path d="M30.12 156.849c.665-18.227 7.377-25.076 20.598-34.61-10.537-7.489-14.99-18.49-14.087-27.873 2.17-22.692 20.046-34.045 39.514-33.556 19.482.502 36.278 15.681 37.583 32.176 1.141 14.351-3.211 21.263-13.573 28.814 12.306 10.174 20.171 16.872 19.87 34.836-.301 17.963-15.856 39.339-42.976 39.991-27.121.652-47.593-21.539-46.929-39.778zm75.718.063c1.166-16.509-13.699-27.648-30.47-27.811-16.346-.175-30.96 13.523-30.96 28.338 0 15.931 19.005 24.574 31.298 24.624 14.915.05 29.128-10.926 30.132-25.151zm-5.357-59.059c.314-13.899-12.745-23.871-26.205-23.47-11.98.364-24.674 9.346-24.687 20.962 0 14.551 14.426 21.801 26.745 22.077 11.164.251 23.896-9.057 24.147-19.569zM903.213 1143.15c-.665 18.23-7.376 25.08-20.598 34.62 10.537 7.48 14.991 18.49 14.087 27.86-2.17 22.7-20.033 34.05-39.514 33.56-19.481-.5-36.278-15.68-37.583-32.17-1.141-14.35 3.212-21.26 13.573-28.82-12.306-10.17-20.171-16.87-19.87-34.83s15.856-39.33 42.977-39.99c27.12-.66 47.593 21.54 46.928 39.77zm-75.717-.06c-1.167 16.51 13.698 27.65 30.47 27.82 16.345.17 30.959-13.53 30.959-28.35 0-15.92-19.017-24.57-31.298-24.62-14.915-.05-29.14 10.93-30.131 25.15zm5.356 59.05c-.313 13.91 12.745 23.88 26.205 23.48 11.98-.36 24.675-9.34 24.675-20.97.025-14.54-14.426-21.8-26.732-22.07-11.165-.25-23.897 9.06-24.148 19.56zm-612.631-919.1c.083-8.442-6.584-8.604-6.542-2.442-.542 30.954-26.708 46.192-45.75 42.579-29.292-5.575-38.667-34.675-38.375-51.816.875-52.9 54.125-91.909 102.167-159.725 35.208 61.208 93.333 109.287 96.75 156.604 4.583 62.912-75.042 86.375-86.417 13.054-.708-5.179-6.792-7.504-6.333-.271 1.708 20.096-.75 28.467 21.916 78h-59.25c13.125-23.146 20.959-51.562 21.834-75.983zm464.75 0c.041-8.442-6.625-8.604-6.542-2.442-.583 30.954-26.75 46.192-45.75 42.579-29.333-5.575-38.708-34.675-38.417-51.816.875-52.9 54.125-91.909 102.167-159.725 35.208 61.208 93.333 109.287 96.75 156.604 4.583 62.912-75 86.375-86.375 13.054-.75-5.179-6.833-7.504-6.375-.271 1.75 20.096-.708 28.467 21.958 78h-59.25c13.084-23.146 20.917-51.562 21.834-75.983zM454.346 491.89c.041-8.442-6.625-8.6-6.542-2.442-.583 30.954-26.75 46.196-45.75 42.579-29.333-5.575-38.667-34.675-38.417-51.812.875-52.904 54.125-91.913 102.167-159.729 35.208 61.212 93.333 109.291 96.792 156.608 4.541 62.908-75.042 86.371-86.417 13.05-.75-5.179-6.833-7.504-6.375-.271 1.75 20.096-.708 28.467 21.958 78h-59.25c13.125-23.146 20.917-51.562 21.834-75.983zM220.221 700.74c.083-8.442-6.584-8.6-6.542-2.442-.542 30.954-26.708 46.196-45.75 42.579-29.292-5.575-38.667-34.675-38.375-51.812.875-52.904 54.125-91.913 102.167-159.729 35.208 61.212 93.333 109.291 96.75 156.608 4.583 62.908-75.042 86.375-86.417 13.054-.708-5.179-6.792-7.508-6.333-.271 1.708 20.092-.75 28.463 21.916 77.996h-59.25c13.125-23.146 20.959-51.562 21.834-75.983zm464.75 0c.041-8.442-6.625-8.6-6.542-2.442-.583 30.954-26.75 46.196-45.75 42.579-29.333-5.575-38.708-34.675-38.417-51.812.875-52.904 54.125-91.913 102.167-159.729 35.208 61.212 93.333 109.291 96.75 156.608 4.583 62.908-75 86.375-86.375 13.054-.75-5.179-6.833-7.508-6.375-.271 1.75 20.092-.708 28.463 21.958 77.996h-59.25c13.084-23.146 20.917-51.562 21.834-75.983zm.041 315.51c.042 8.44-6.625 8.6-6.541 2.44-.584-30.95-26.75-46.192-45.75-42.575-29.334 5.575-38.709 34.675-38.417 51.815.875 52.9 54.125 91.91 102.167 159.73 35.208-61.22 93.333-109.29 96.75-156.61 4.583-62.91-75-86.373-86.375-13.05-.75 5.18-6.834 7.5-6.375.27 1.75-20.097-.709-28.468 21.958-78.001h-59.25c13.125 23.146 20.917 51.563 21.833 75.981zM454.387 810.84c.042 8.437-6.625 8.6-6.541 2.442-.584-30.955-26.75-46.196-45.75-42.58-29.334 5.571-38.667 34.675-38.417 51.813.875 52.904 54.125 91.912 102.167 159.729 35.208-61.212 93.333-109.292 96.791-156.608 4.542-62.909-75.041-86.375-86.416-13.054-.75 5.179-6.834 7.504-6.375.27 1.75-20.091-.709-28.462 21.958-77.995h-59.25c13.125 23.145 20.917 51.562 21.833 75.983zm-234.125 205.41c.084 8.44-6.583 8.6-6.541 2.44-.542-30.95-26.709-46.192-45.75-42.575-29.292 5.575-38.667 34.675-38.375 51.815.875 52.9 54.125 91.91 102.166 159.73 35.209-61.22 93.334-109.29 96.75-156.61 4.584-62.91-75.041-86.373-86.375-13.05-.75 5.18-6.833 7.5-6.375.27 1.709-20.097-.708-28.468 21.917-78.001h-59.25c13.125 23.146 20.958 51.563 21.833 75.981zM75.887 300.257c.042-3.634-3.75-1.938-4.25-.796-4.833 8.275-11.916 10.2-18.958 7.216-6.917-2.954-10.833-9.5-10.208-18.841 1.291-14.325 12.666-30 18.166-38.859a290.312 290.312 0 0 0 16.959-29.808c7.083 14.013 10.666 18 18.375 30.796 6.75 11.271 16.208 22.304 16.916 35.929 0 10.35-4.333 20.129-14.125 21.913-5.583 1.008-10.75-1.842-14.625-8.488-1.166-1.692-3.541-.812-3.5 1.508.709 8.721 4 16.596 11.792 25.884H63.721c5.916-6.567 11.875-15.434 12.166-26.454zm781.559 699.486c-.042 3.637 3.75 1.937 4.25.797 4.833-8.276 11.917-10.201 18.958-7.217 6.917 2.954 10.834 9.497 10.209 18.837-1.292 14.33-12.667 30-18.167 38.86a289.95 289.95 0 0 0-16.958 29.81c-7.084-14.01-10.667-18-18.375-30.79-6.75-11.28-16.209-22.31-16.917-35.93 0-10.35 4.333-20.133 14.125-21.917 5.583-1.008 10.75 1.842 14.625 8.487 1.167 1.69 3.542.81 3.5-1.507-.708-8.721-4-16.596-11.792-25.884h28.709c-5.917 6.567-11.875 15.434-12.167 26.454z"/></g></svg>