<svg clip-rule="evenodd" fill-rule="evenodd" stroke-linejoin="round" stroke-miterlimit="2" viewBox="0 0 934 1300" xmlns="http://www.w3.org/2000/svg"><g fill-rule="nonzero"><path d="M35.897 164.351l12.607-3.927c4.755 12.482 14.376 16.17 24.549 15.379 18.252-1.417 24.311-21.45 25.691-39.163-7.125 7.389-17.813 11.14-26.92 10.776-29.09-1.531-36.541-24.386-36.805-48.333-.815-20.196 7.69-34.823 22.279-41.522 7.715-3.399 25.389-3.399 33.167.628 17.838 9.232 24.449 25.201 23.244 63.298.025 31.348-6.774 67.864-40.994 68.642-19.77 2.684-34.798-12.419-36.818-25.778zm49.525-34.347c5.933-3.688 9.283-7.15 11.955-12.343 2.182-4.253 2.923-6.473 2.295-15.292-1.605-22.73-13.748-35.613-31.348-33.054-9.822 1.43-15.178 6.824-18.264 16.872-5.695 18.528 1.518 40.23 15.028 45.235 6.096 2.245 15.479 1.593 20.334-1.418zM894.376 1135.65l-12.62 3.92c-4.754-12.48-14.363-16.16-24.536-15.37-18.265 1.42-24.324 21.45-25.691 39.17 7.113-7.4 17.813-11.15 26.907-10.79 29.103 1.54 36.542 24.4 36.818 48.34.803 20.2-7.702 34.82-22.291 41.52-7.715 3.4-25.39 3.4-33.155-.62-17.85-9.24-24.449-25.21-23.257-63.3-.012-31.35 6.774-67.86 40.995-68.64 19.782-2.69 34.797 12.41 36.83 25.77zM844.838 1170c-5.933 3.68-9.282 7.15-11.942 12.34-2.182 4.26-2.923 6.47-2.295 15.29 1.593 22.73 13.736 35.62 31.348 33.06 9.822-1.43 15.178-6.83 18.264-16.87 5.683-18.54-1.53-40.24-15.04-45.24-6.097-2.25-15.48-1.6-20.335 1.42zM647.604 630.91c11.958-24.067 20.708-48.754 22.25-75.154 1.458-9.717-4.458-9.879-5.333-3.038-17 64.971-107.375 47.375-104.25-13.737 2.5-49.558 51.75-60.221 77.416-44.017 10.125 5.971 9.584 2.396 4.042-3.8-38.167-42.546-15.042-97.341 36.5-98.341 55.75 3.304 70.208 61.958 36 96.45-4.25 4.145-13.667 17.462.542 8.15 34.5-24.534 82.416 1.845 81.458 39.67-1.792 69.746-86.833 74.946-105 16.692-1.75-6.458-6.792-9.704-5.417 1.267 2.542 19.862 7.75 49.808 22.667 75.858zM435.812 744.048c12-24.067 20.75-48.755 22.292-75.159 1.417-9.712-4.458-9.879-5.333-3.033-17 64.967-107.375 47.375-104.25-13.738 2.5-49.562 51.75-60.225 77.416-44.016 10.125 5.966 9.584 2.391 4.042-3.8-38.167-42.55-15.042-97.342 36.5-98.346 55.75 3.308 70.208 61.958 36 96.454-4.25 4.142-13.667 17.463.542 8.15 34.5-24.533 82.416 1.846 81.458 39.671-1.792 69.746-86.833 74.946-105 16.692-1.75-6.463-6.792-9.705-5.417 1.266 2.542 19.859 7.75 49.804 22.667 75.859zM224.521 630.91c12-24.067 20.75-48.754 22.291-75.154 1.417-9.717-4.458-9.879-5.375-3.038-16.958 64.971-107.333 47.375-104.208-13.737 2.5-49.558 51.708-60.221 77.417-44.017 10.125 5.971 9.541 2.396 4.041-3.8-38.166-42.546-15.041-97.341 36.5-98.341 55.75 3.304 70.209 61.958 36 96.45-4.25 4.145-13.666 17.462.5 8.15 34.542-24.534 82.459 1.845 81.5 39.67-1.833 69.746-86.833 74.946-105.041 16.692-1.75-6.458-6.792-9.704-5.375 1.267 2.5 19.862 7.75 49.808 22.666 75.858zm423.083-272.212c11.958-24.063 20.708-48.755 22.25-75.155 1.458-9.716-4.458-9.879-5.333-3.037-17 64.971-107.375 47.379-104.25-13.733 2.5-49.563 51.75-60.225 77.416-44.021 10.125 5.971 9.584 2.396 4.042-3.796-38.167-42.55-15.042-97.342 36.5-98.346 55.75 3.308 70.208 61.958 36 96.45-4.25 4.146-13.667 17.467.542 8.154 34.5-24.533 82.416 1.846 81.458 39.667-1.792 69.746-86.833 74.95-105 16.692-1.75-6.459-6.792-9.7-5.417 1.27 2.542 19.859 7.75 49.805 22.667 75.855zm-423.083 0c12-24.063 20.75-48.755 22.291-75.155 1.417-9.716-4.458-9.879-5.375-3.037-16.958 64.971-107.333 47.379-104.208-13.733 2.5-49.563 51.708-60.225 77.417-44.021 10.125 5.971 9.541 2.396 4.041-3.796-38.166-42.55-15.041-97.342 36.5-98.346 55.75 3.308 70.209 61.958 36 96.45-4.25 4.146-13.666 17.467.5 8.154 34.542-24.533 82.459 1.846 81.5 39.667-1.833 69.746-86.833 74.95-105.041 16.692-1.75-6.459-6.792-9.7-5.375 1.27 2.5 19.859 7.75 49.805 22.666 75.855zm61.25 584.133c-11.959 24.062-20.709 48.754-22.25 75.159-1.459 9.71 4.458 9.87 5.333 3.03 17-64.968 107.375-47.377 104.25 13.74-2.5 49.56-51.75 60.22-77.417 44.02-10.166-5.97-9.583-2.4-4.041 3.8 38.166 42.54 15.041 97.33-36.5 98.34-55.75-3.31-70.209-61.96-36-96.45 4.25-4.15 13.666-17.46-.542-8.15-34.5 24.53-82.417-1.85-81.458-39.67 1.791-69.748 86.833-74.952 105-16.69 1.75 6.45 6.791 9.7 5.416-1.27-2.541-19.863-7.75-49.809-22.666-75.859zm423.083 0c-12 24.062-20.75 48.754-22.292 75.159-1.416 9.71 4.459 9.87 5.375 3.03 16.959-64.968 107.334-47.377 104.209 13.74-2.5 49.56-51.709 60.22-77.417 44.02-10.125-5.97-9.542-2.4-4.042 3.8 38.167 42.54 15.042 97.33-36.5 98.34-55.75-3.31-70.208-61.96-36-96.45 4.25-4.15 13.667-17.46-.5-8.15-34.541 24.53-82.458-1.85-81.5-39.67 1.834-69.748 86.834-74.952 105.042-16.69 1.75 6.45 6.75 9.7 5.375-1.27-2.5-19.863-7.75-49.809-22.667-75.859zm0-271.271c-12 24.063-20.75 48.754-22.292 75.154-1.416 9.717 4.459 9.879 5.375 3.034 16.959-64.967 107.334-47.375 104.209 13.737-2.5 49.563-51.709 60.225-77.417 44.021-10.125-5.971-9.542-2.396-4.042 3.796 38.167 42.55 15.042 97.341-36.5 98.346-55.75-3.309-70.208-61.959-36-96.455 4.25-4.141 13.667-17.462-.5-8.15-34.541 24.534-82.458-1.845-81.5-39.67 1.834-69.746 86.834-74.946 105.042-16.688 1.75 6.458 6.75 9.7 5.375-1.271-2.5-19.858-7.75-49.804-22.667-75.854zm-423.083 0c-11.959 24.063-20.709 48.754-22.25 75.154-1.459 9.717 4.458 9.879 5.333 3.034 17-64.967 107.375-47.375 104.25 13.737-2.5 49.563-51.75 60.225-77.417 44.021-10.166-5.971-9.583-2.396-4.041 3.796 38.166 42.55 15.041 97.341-36.5 98.346-55.75-3.309-70.209-61.959-36-96.455 4.25-4.141 13.666-17.462-.542-8.15-34.5 24.534-82.417-1.845-81.458-39.67 1.791-69.746 86.833-74.946 105-16.688 1.75 6.458 6.791 9.7 5.416-1.271-2.541-19.858-7.75-49.804-22.666-75.854zM56.437 303.531c5-10.188 9.834-19.671 12.459-30.838 1.75-10.533-1.834-6.62-3.875.284-3 9.571-11.334 13.933-19.084 14.037-14.041.188-21.041-10.85-20.625-22.725-1.5-12.496 11.167-21.333 20.709-20.654 7.166.513 13.416 4.383 17.208 7.396 2.458 1.317 5.125 1.896 1.417-1.492-6.959-7.637-12.792-12.35-12.667-23.796.125-10.745 9.292-21.95 21.458-21.6 15.209.442 22.167 12.042 22.125 22.838-.041 7.867-4 15.108-10.083 19.596-3.917 3.191-2.833 5.579 1.667 2.558 4.333-3.717 9.458-5.342 14.791-5.458 14.542-.225 20.209 12.341 19.375 24.021-.75 10.937-10.083 22.2-22.375 20.925-10.958-1.259-16.708-10.459-20-19.905-1.083-2.895-2.833-3.679-2.791.638 2.541 21.075 10.375 34.187 10.458 34.175zm820.459 686.137c-5 10.188-9.792 19.672-12.459 30.842-1.75 10.53 1.834 6.61 3.875-.29 3-9.57 11.334-13.93 19.084-14.04 14.041-.19 21.041 10.85 20.625 22.73 1.5 12.49-11.125 21.33-20.709 20.65-7.166-.51-13.416-4.38-17.208-7.4-2.458-1.31-5.125-1.89-1.417 1.5 6.959 7.63 12.792 12.35 12.667 23.79-.125 10.75-9.292 21.95-21.458 21.6-15.209-.44-22.167-12.04-22.125-22.84.041-7.86 4-15.1 10.083-19.59 3.917-3.19 2.833-5.58-1.667-2.56-4.333 3.72-9.458 5.35-14.791 5.46-14.542.23-20.209-12.34-19.375-24.02.75-10.94 10.083-22.2 22.375-20.93 10.958 1.26 16.708 10.46 20 19.91 1.083 2.89 2.833 3.68 2.791-.64-2.541-21.07-10.375-34.184-10.458-34.172z"/></g></svg>