<svg clip-rule="evenodd" fill-rule="evenodd" stroke-linejoin="round" stroke-miterlimit="2" viewBox="0 0 934 1300" xmlns="http://www.w3.org/2000/svg"><g fill="#d40000" fill-rule="nonzero"><path d="M137.752 240.632c41.333-40.33 68.479-84.322 94.446-126.622 22.767 46.552 55.445 87.271 90.77 126.622-37.796 39.038-67.099 80.785-90.657 124.665-26.118-44.984-53.615-85.715-94.559-124.665zm0 272.21c41.333-40.329 68.479-84.322 94.446-126.621 22.767 46.551 55.445 87.27 90.77 126.621-37.796 39.038-67.099 80.785-90.657 124.661-26.118-44.98-53.615-85.711-94.559-124.661zm0 278.741c41.333-40.34 68.479-84.322 94.446-126.62 22.767 46.541 55.445 87.259 90.77 126.62-37.796 39.035-67.099 80.776-90.657 124.657-26.118-44.981-53.615-85.715-94.559-124.657zm0 271.277c41.333-40.34 68.479-84.326 94.446-126.625 22.767 46.543 55.445 87.265 90.77 126.625-37.796 39.03-67.099 80.77-90.657 124.65-26.118-44.98-53.615-85.71-94.559-124.65zm235.18-411.942c41.345-40.343 68.491-84.324 94.445-126.623 22.768 46.539 55.446 87.258 90.783 126.623-37.808 39.035-67.112 80.776-90.67 124.657-26.117-44.982-53.601-85.714-94.558-124.657zm229.534-410.286c41.334-40.33 68.492-84.322 94.446-126.622 22.768 46.552 55.445 87.271 90.783 126.622-37.809 39.038-67.112 80.785-90.67 124.665-26.105-44.984-53.602-85.715-94.559-124.665zm0 272.21c41.334-40.329 68.492-84.322 94.446-126.621 22.768 46.551 55.445 87.27 90.783 126.621-37.809 39.038-67.112 80.785-90.67 124.661-26.105-44.98-53.602-85.711-94.559-124.661zm0 278.741c41.334-40.34 68.492-84.322 94.446-126.62 22.768 46.541 55.445 87.259 90.783 126.62-37.809 39.035-67.112 80.776-90.67 124.657-26.105-44.981-53.602-85.715-94.559-124.657zm0 271.277c41.334-40.34 68.492-84.326 94.446-126.625 22.768 46.543 55.445 87.265 90.783 126.625-37.809 39.03-67.112 80.77-90.67 124.65-26.105-44.98-53.602-85.71-94.559-124.65zm219.826-34.22c16.934-16.52 28.061-34.541 38.699-51.867 9.32 19.064 22.705 35.747 37.181 51.867-15.492 15.99-27.485 33.09-37.144 51.07-10.7-18.43-21.952-35.12-38.736-51.07zM35.566 254.23c16.935-16.521 28.049-34.534 38.687-51.87 9.333 19.067 22.718 35.751 37.194 51.87-15.492 15.994-27.497 33.092-37.144 51.068-10.7-18.428-21.965-35.112-38.737-51.068zm.527-89.879l12.607-3.927c4.755 12.482 14.376 16.17 24.549 15.379 18.252-1.417 24.311-21.45 25.691-39.163-7.125 7.389-17.813 11.14-26.92 10.776-29.09-1.531-36.541-24.386-36.805-48.333-.815-20.196 7.69-34.823 22.279-41.522 7.715-3.399 25.389-3.399 33.167.628 17.838 9.232 24.449 25.201 23.244 63.298.025 31.348-6.774 67.864-40.994 68.642-19.77 2.684-34.798-12.419-36.818-25.778zm49.525-34.347c5.933-3.688 9.283-7.15 11.955-12.343 2.182-4.253 2.923-6.473 2.295-15.292-1.605-22.73-13.748-35.613-31.348-33.054-9.822 1.43-15.178 6.824-18.264 16.872-5.695 18.528 1.518 40.23 15.028 45.235 6.096 2.245 15.479 1.593 20.334-1.418zM894.572 1135.65l-12.62 3.92c-4.754-12.48-14.363-16.16-24.536-15.37-18.265 1.42-24.324 21.45-25.691 39.17 7.113-7.4 17.813-11.15 26.907-10.79 29.103 1.54 36.542 24.4 36.818 48.34.803 20.2-7.702 34.82-22.291 41.52-7.715 3.4-25.39 3.4-33.155-.62-17.85-9.24-24.449-25.21-23.257-63.3-.012-31.35 6.774-67.86 40.995-68.64 19.782-2.69 34.797 12.41 36.83 25.77zM845.034 1170c-5.933 3.68-9.282 7.15-11.942 12.34-2.182 4.26-2.923 6.47-2.295 15.29 1.593 22.73 13.736 35.62 31.348 33.06 9.822-1.43 15.178-6.83 18.264-16.87 5.683-18.54-1.53-40.24-15.04-45.24-6.097-2.25-15.48-1.6-20.335 1.42z"/></g></svg>