<svg clip-rule="evenodd" fill-rule="evenodd" stroke-linejoin="round" stroke-miterlimit="2" viewBox="0 0 934 1300" xmlns="http://www.w3.org/2000/svg"><g fill="#d40000" fill-rule="nonzero"><path d="M35.892 164.351l12.607-3.927c4.754 12.482 14.376 16.17 24.549 15.379 18.252-1.417 24.311-21.45 25.691-39.163-7.126 7.389-17.813 11.14-26.92 10.776-29.091-1.531-36.542-24.386-36.805-48.333-.816-20.196 7.689-34.823 22.278-41.522 7.715-3.399 25.39-3.399 33.167.628 17.838 9.232 24.449 25.201 23.245 63.298.025 31.348-6.774 67.864-40.995 68.642-19.769 2.684-34.798-12.419-36.817-25.778zm49.525-34.347c5.933-3.688 9.282-7.15 11.954-12.343 2.183-4.253 2.923-6.473 2.296-15.292-1.606-22.73-13.749-35.613-31.348-33.054-9.822 1.43-15.179 6.824-18.265 16.872-5.695 18.528 1.518 40.23 15.028 45.235 6.097 2.245 15.48 1.593 20.335-1.418zM894.37 1135.65l-12.619 3.92c-4.755-12.48-14.364-16.16-24.537-15.37-18.264 1.42-24.323 21.45-25.691 39.17 7.113-7.4 17.813-11.15 26.908-10.79 29.103 1.54 36.541 24.4 36.817 48.34.803 20.2-7.702 34.82-22.291 41.52-7.715 3.4-25.389 3.4-33.154-.62-17.851-9.24-24.449-25.21-23.257-63.3-.013-31.35 6.774-67.86 40.994-68.64 19.783-2.69 34.798 12.41 36.83 25.77zM844.833 1170c-5.934 3.68-9.283 7.15-11.942 12.34-2.183 4.26-2.923 6.47-2.296 15.29 1.593 22.73 13.736 35.62 31.348 33.06 9.822-1.43 15.179-6.83 18.265-16.87 5.682-18.54-1.531-40.24-15.041-45.24-6.096-2.25-15.479-1.6-20.334 1.42zM37.182 243.418c-6.625-14.466-7.333-39.191 12.375-42.533 14.833-1.912 20.875 4.992 22.083 15.592.584 3.096 2.334 3.283 2.875-.246.875-10.871 11.625-17.217 20.042-15.625 23 3.942 21.667 29.287 14.167 46.483-11.375 22.829-23.334 37.242-34.375 60.217-12.667-23.921-27.125-43.354-37.167-63.888zm151.083-123.541c29.792-1.975 45.292 23.45 48.334 43.487 1.791 3.184 2.791 2.284 3.5-.179 1.458-25.725 24.458-46.75 45.791-43.875 34.709.454 55.792 39.067 49.875 71.746-7.25 39.925-28.75 63.962-45.041 88.721-18.417 25.633-43.209 62.666-51.209 80.487 0 0-25.208-38.354-58-83.458-21.916-30.158-39.458-62.842-41.125-90.979-1.833-32.15 11.334-60.967 47.875-65.95zm456.417 0c29.75-1.975 45.292 23.45 48.292 43.487 1.791 3.184 2.791 2.284 3.5-.179 1.458-25.725 24.458-46.75 45.791-43.875 34.709.454 55.792 39.067 49.875 71.746-7.25 39.925-28.75 63.962-45.041 88.721-18.417 25.633-43.209 62.666-51.209 80.487 0 0-25.208-38.354-58-83.458-21.916-30.158-39.458-62.842-41.083-90.979-1.875-32.15 11.333-60.967 47.875-65.95zm0 272.212c29.75-1.979 45.292 23.446 48.292 43.484 1.791 3.183 2.791 2.287 3.5-.175 1.458-25.725 24.458-46.75 45.791-43.875 34.709.45 55.792 39.062 49.875 71.745-7.25 39.921-28.75 63.963-45.041 88.721-18.417 25.634-43.209 62.663-51.209 80.488 0 0-25.208-38.354-58-83.459-21.916-30.162-39.458-62.841-41.083-90.979-1.875-32.15 11.333-60.966 47.875-65.95zM416.265 530.227c29.75-1.979 45.292 23.446 48.292 43.483 1.833 3.183 2.792 2.288 3.5-.175 1.458-25.725 24.458-46.75 45.792-43.875 34.708.45 55.791 39.063 49.875 71.742-7.25 39.925-28.75 63.962-45.042 88.721-18.417 25.637-43.208 62.666-51.208 80.487 0 0-25.209-38.35-58-83.454-21.917-30.163-39.459-62.846-41.084-90.983-1.875-32.146 11.334-60.963 47.875-65.946zm-228-138.138c29.792-1.979 45.292 23.446 48.334 43.484 1.791 3.183 2.791 2.287 3.5-.175 1.458-25.725 24.458-46.75 45.791-43.875 34.709.45 55.792 39.062 49.875 71.745-7.25 39.921-28.75 63.963-45.041 88.721-18.417 25.634-43.209 62.663-51.209 80.488 0 0-25.208-38.354-58-83.459-21.916-30.162-39.458-62.841-41.125-90.979-1.833-32.15 11.334-60.966 47.875-65.95zm456.417 518.292c29.75 1.975 45.292-23.446 48.292-43.483 1.791-3.184 2.791-2.288 3.5.175 1.458 25.725 24.458 46.75 45.791 43.875 34.709-.45 55.792-39.063 49.875-71.746-7.25-39.921-28.75-63.963-45.041-88.721-18.417-25.633-43.209-62.663-51.209-80.488 0 0-25.208 38.355-58 83.459-21.916 30.162-39.458 62.841-41.083 90.979-1.875 32.15 11.333 60.967 47.875 65.95zm0 271.279c29.75 1.97 45.292-23.45 48.292-43.49 1.791-3.18 2.791-2.29 3.5.17 1.458 25.73 24.458 46.76 45.791 43.88 34.709-.45 55.792-39.06 49.875-71.74-7.25-39.93-28.75-63.97-45.041-88.72-18.417-25.642-43.209-62.671-51.209-80.492 0 0-25.208 38.35-58 83.452-21.916 30.16-39.458 62.85-41.083 90.99-1.875 32.14 11.333 60.96 47.875 65.94zm-456.417 0c29.792 1.97 45.292-23.45 48.334-43.49 1.791-3.18 2.791-2.29 3.5.17 1.458 25.73 24.458 46.76 45.791 43.88 34.709-.45 55.792-39.06 49.875-71.74-7.25-39.93-28.75-63.97-45.041-88.72-18.417-25.642-43.209-62.671-51.209-80.492 0 0-25.208 38.35-58 83.452-21.916 30.16-39.458 62.85-41.125 90.99-1.833 32.14 11.334 60.96 47.875 65.94zm0-271.279c29.792 1.975 45.292-23.446 48.334-43.483 1.791-3.184 2.791-2.288 3.5.175 1.458 25.725 24.458 46.75 45.791 43.875 34.709-.45 55.792-39.063 49.875-71.746-7.25-39.921-28.75-63.963-45.041-88.721-18.417-25.633-43.209-62.663-51.209-80.488 0 0-25.208 38.355-58 83.459-21.916 30.162-39.458 62.841-41.125 90.979-1.833 32.15 11.334 60.967 47.875 65.95zM823.89 1038.66c-6.583 14.47-7.333 39.19 12.375 42.53 14.834 1.91 20.875-4.99 22.084-15.59.583-3.09 2.333-3.29 2.916.24.834 10.87 11.584 17.22 20 15.63 23.042-3.94 21.709-29.29 14.167-46.48-11.375-22.83-23.333-37.242-34.333-60.222-12.667 23.921-27.125 43.362-37.209 63.892z"/></g></svg>