<svg clip-rule="evenodd" fill-rule="evenodd" stroke-linejoin="round" stroke-miterlimit="2" viewBox="0 0 934 1300" xmlns="http://www.w3.org/2000/svg"><g fill-rule="nonzero"><path d="M37.428 164.351l12.607-3.927c4.755 12.482 14.376 16.17 24.549 15.379 18.252-1.417 24.311-21.45 25.691-39.163-7.125 7.389-17.813 11.14-26.92 10.776-29.09-1.531-36.541-24.386-36.805-48.333-.815-20.196 7.69-34.823 22.279-41.522 7.715-3.399 25.389-3.399 33.167.628 17.838 9.232 24.449 25.201 23.244 63.298.025 31.348-6.774 67.864-40.994 68.642-19.77 2.684-34.798-12.419-36.818-25.778zm49.525-34.347c5.933-3.688 9.283-7.15 11.955-12.343 2.182-4.253 2.922-6.473 2.295-15.292-1.605-22.73-13.748-35.613-31.348-33.054-9.822 1.43-15.178 6.824-18.264 16.872-5.695 18.528 1.518 40.23 15.028 45.235 6.096 2.245 15.479 1.593 20.334-1.418zM895.907 1135.65l-12.62 3.92c-4.754-12.48-14.363-16.16-24.536-15.37-18.265 1.42-24.324 21.45-25.691 39.17 7.112-7.4 17.813-11.15 26.907-10.79 29.103 1.54 36.542 24.4 36.818 48.34.803 20.2-7.702 34.82-22.291 41.52-7.715 3.4-25.39 3.4-33.155-.62-17.85-9.24-24.449-25.21-23.257-63.3-.012-31.35 6.774-67.86 40.995-68.64 19.782-2.69 34.797 12.41 36.83 25.77zM846.369 1170c-5.933 3.68-9.282 7.15-11.942 12.34-2.182 4.26-2.923 6.47-2.295 15.29 1.593 22.73 13.736 35.62 31.348 33.06 9.822-1.43 15.178-6.83 18.264-16.87 5.683-18.54-1.53-40.24-15.04-45.24-6.097-2.25-15.48-1.6-20.335 1.42zM222.76 287.364c.083-8.437-6.583-8.6-6.542-2.441-.541 30.954-26.708 46.195-45.75 42.579-29.291-5.571-38.666-34.675-38.375-51.813.875-52.904 54.125-91.912 102.167-159.729 35.208 61.213 93.333 109.292 96.75 156.608 4.583 62.909-75.042 86.375-86.417 13.055-.708-5.18-6.791-7.505-6.333-.271 1.708 20.091-.75 28.462 21.917 77.996h-59.25c13.125-23.146 20.958-51.559 21.833-75.984zm464.75 0c.042-8.437-6.625-8.6-6.542-2.441-.583 30.954-26.75 46.195-45.75 42.579-29.333-5.571-38.708-34.675-38.416-51.813.875-52.904 54.125-91.912 102.166-159.729 35.209 61.213 93.334 109.292 96.792 156.608 4.542 62.909-75.042 86.375-86.417 13.055-.75-5.18-6.833-7.505-6.375-.271 1.75 20.091-.708 28.462 21.959 77.996h-59.25c13.083-23.146 20.916-51.559 21.833-75.984zm0 272.213c.042-8.442-6.625-8.604-6.542-2.442-.583 30.954-26.75 46.196-45.75 42.579-29.333-5.575-38.708-34.675-38.416-51.816.875-52.9 54.125-91.909 102.166-159.725 35.209 61.212 93.334 109.287 96.792 156.608 4.542 62.908-75.042 86.371-86.417 13.05-.75-5.179-6.833-7.504-6.375-.271 1.75 20.096-.708 28.467 21.959 78h-59.25c13.083-23.146 20.916-51.562 21.833-75.983zm-464.75 0c.083-8.442-6.583-8.604-6.542-2.442-.541 30.954-26.708 46.196-45.75 42.579-29.291-5.575-38.666-34.675-38.375-51.816.875-52.9 54.125-91.909 102.167-159.725 35.208 61.212 93.333 109.287 96.75 156.608 4.583 62.908-75.042 86.371-86.417 13.05-.708-5.179-6.791-7.504-6.333-.271 1.708 20.096-.75 28.467 21.917 78h-59.25c13.125-23.146 20.958-51.562 21.833-75.983zm464.792 454.693c.041 8.44-6.625 8.6-6.542 2.44-.583-30.95-26.75-46.192-45.75-42.579-29.333 5.575-38.708 34.679-38.417 51.819.875 52.9 54.125 91.91 102.167 159.72 35.208-61.21 93.333-109.29 96.792-156.6 4.541-62.91-75.042-86.377-86.417-13.06-.75 5.18-6.833 7.51-6.375.27 1.75-20.091-.708-28.457 21.958-77.991h-59.25c13.125 23.146 20.917 51.559 21.834 75.981zm0-271.272c.041 8.441-6.625 8.6-6.542 2.441-.583-30.954-26.75-46.196-45.75-42.579-29.333 5.575-38.708 34.675-38.417 51.817.875 52.9 54.125 91.908 102.167 159.725 35.208-61.213 93.333-109.292 96.792-156.609 4.541-62.908-75.042-86.37-86.417-13.05-.75 5.18-6.833 7.505-6.375.271 1.75-20.096-.708-28.466 21.958-78h-59.25c13.125 23.146 20.917 51.563 21.834 75.984zM458.01 602.331c.042 8.442-6.625 8.604-6.542 2.442-.583-30.955-26.75-46.192-45.75-42.58-29.333 5.575-38.666 34.675-38.416 51.817.875 52.9 54.125 91.908 102.166 159.725 35.209-61.208 93.334-109.287 96.792-156.604 4.583-62.908-75.042-86.375-86.417-13.054-.75 5.179-6.833 7.504-6.375.271 1.75-20.096-.708-28.463 21.959-77.996h-59.25c13.125 23.141 20.916 51.558 21.833 75.979zM222.802 742.998c.083 8.441-6.584 8.6-6.542 2.441-.542-30.954-26.708-46.196-45.75-42.579-29.292 5.575-38.667 34.675-38.375 51.817.875 52.9 54.125 91.908 102.167 159.725 35.208-61.213 93.333-109.292 96.75-156.609 4.583-62.908-75.042-86.37-86.375-13.05-.75 5.18-6.834 7.505-6.375.271 1.708-20.096-.709-28.466 21.916-78h-59.25c13.125 23.146 20.959 51.563 21.834 75.984zm0 271.272c.083 8.44-6.584 8.6-6.542 2.44-.542-30.95-26.708-46.192-45.75-42.579-29.292 5.575-38.667 34.679-38.375 51.819.875 52.9 54.125 91.91 102.167 159.72 35.208-61.21 93.333-109.29 96.75-156.6 4.583-62.91-75.042-86.377-86.375-13.06-.75 5.18-6.834 7.51-6.375.27 1.708-20.091-.709-28.457 21.916-77.991h-59.25c13.125 23.146 20.959 51.559 21.834 75.981zM73.052 281.152c.041-3.634-3.75-1.938-4.25-.796-4.834 8.275-11.917 10.2-18.959 7.217-6.916-2.955-10.833-9.5-10.208-18.842 1.292-14.325 12.667-30 18.167-38.858a290.648 290.648 0 0 0 16.958-29.809c7.083 14.013 10.667 18 18.375 30.796 6.75 11.267 16.208 22.304 16.917 35.925 0 10.354-4.334 20.133-14.125 21.917-5.584 1.008-10.75-1.842-14.625-8.488-1.167-1.696-3.542-.812-3.5 1.509.708 8.72 4 16.595 11.791 25.883H60.927c5.875-6.567 11.833-15.433 12.125-26.454zm786.75 719.768c.041 3.64-3.75 1.94-4.25.79-4.875-8.267-11.959-10.192-18.959-7.208-6.958 2.954-10.833 9.498-10.208 18.838 1.292 14.33 12.625 30 18.125 38.86 5.208 8.04 10.958 17.59 17 29.81 7.042-14.01 10.667-18 18.333-30.8 6.792-11.27 16.25-22.3 16.959-35.93 0-10.35-4.375-20.128-14.167-21.907-5.542-1.009-10.75 1.837-14.583 8.487-1.167 1.69-3.542.81-3.5-1.51.666-8.723 3.958-16.594 11.791-25.882h-28.708c5.875 6.567 11.875 15.434 12.167 26.452z"/></g></svg>