<svg clip-rule="evenodd" fill-rule="evenodd" stroke-linejoin="round" stroke-miterlimit="2" viewBox="0 0 934 1300" xmlns="http://www.w3.org/2000/svg"><g fill-rule="nonzero"><path d="M33.11 191.903V180.5H44.2L67.795 58.532h13.423L107.234 180.5h8.945v11.403H85.696V180.5h8.229l-3.274-18.691H59.88L57.497 180.5h8.241v11.403zM88.017 148.5L74.645 83.207 62.113 148.5zm814.912 958.73v11.4H891.84l-23.596 121.97h-13.435l-26.004-121.97h-8.957v-11.4h30.495v11.4h-8.241l3.286 18.7h30.771l2.371-18.7h-8.229v-11.4zm-54.906 43.4l13.372 65.3 12.519-65.3zM437.384 768.595c12-24.067 20.75-48.755 22.292-75.159 1.416-9.712-4.459-9.879-5.375-3.033-16.959 64.967-107.334 47.375-104.25-13.738 2.541-49.562 51.75-60.225 77.458-44.016 10.125 5.966 9.542 2.391 4-3.8-38.125-42.55-15.042-97.342 36.542-98.346 55.75 3.308 70.208 61.958 36 96.454-4.25 4.142-13.667 17.463.5 8.15 34.541-24.533 82.458 1.846 81.458 39.671-1.792 69.746-86.792 74.946-105 16.692-1.75-6.463-6.792-9.705-5.375 1.266 2.5 19.859 7.708 49.804 22.625 75.859zM56.746 313.199c4.967-10.188 9.8-19.671 12.434-30.838 1.75-10.533-1.825-6.616-3.854.284-3.005 9.575-11.342 13.933-19.084 14.037-14.046.192-21.05-10.85-20.616-22.725-1.534-12.492 11.129-21.333 20.675-20.654 7.175.512 13.433 4.387 17.22 7.4 2.484 1.312 5.142 1.892 1.438-1.496-6.992-7.637-12.821-12.35-12.692-23.796.121-10.741 9.304-21.95 21.479-21.596 15.217.438 22.134 12.042 22.1 22.834-.041 7.866-3.975 15.108-10.05 19.596-3.933 3.191-2.829 5.583 1.659 2.562 4.312-3.717 9.446-5.346 14.771-5.458 14.533-.229 20.241 12.337 19.408 24.016-.792 10.938-10.108 22.2-22.383 20.925-10.963-1.254-16.721-10.458-20.021-19.904-1.096-2.896-2.817-3.679-2.771.638 2.533 21.075 10.383 34.187 10.437 34.175zm818.638 674.304c-5 10.187-9.833 19.667-12.458 30.837-1.75 10.53 1.833 6.62 3.875-.29 3-9.57 11.333-13.93 19.083-14.03 14.042-.19 21.042 10.85 20.625 22.72 1.5 12.5-11.167 21.34-20.708 20.65-7.167-.51-13.417-4.38-17.209-7.39-2.5-1.31-5.125-1.9-1.416 1.5 6.958 7.63 12.791 12.35 12.666 23.79-.125 10.74-9.291 21.95-21.458 21.6-15.25-.44-22.167-12.04-22.125-22.84.042-7.87 4-15.11 10.042-19.59 3.958-3.19 2.833-5.59-1.625-2.57-4.334 3.72-9.459 5.35-14.792 5.46-14.542.23-20.208-12.33-19.375-24.01.75-10.95 10.083-22.21 22.375-20.93 10.958 1.26 16.708 10.46 20 19.9 1.083 2.9 2.833 3.68 2.75-.64-2.5-21.07-10.375-34.18-10.417-34.167z"/></g></svg>