<svg clip-rule="evenodd" fill-rule="evenodd" stroke-linejoin="round" stroke-miterlimit="2" viewBox="0 0 934 1300" xmlns="http://www.w3.org/2000/svg"><g fill="#d40000" fill-rule="nonzero"><path d="M373.45 650.552c41.334-40.342 68.479-84.323 94.446-126.622 22.768 46.539 55.446 87.258 90.783 126.622-37.809 39.038-67.112 80.772-90.67 124.652-26.117-44.984-53.602-85.715-94.559-124.652zm445.773 387.508c16.935-16.52 28.061-34.55 38.686-51.874 9.333 19.064 22.718 35.734 37.194 51.874-15.492 15.99-27.497 33.09-37.144 51.06-10.7-18.42-21.952-35.12-38.736-51.06zM34.304 264.365c16.935-16.534 28.061-34.547 38.699-51.871 9.32 19.067 22.705 35.739 37.181 51.871-15.492 15.981-27.484 33.079-37.143 51.055-10.688-18.428-21.953-35.112-38.737-51.055zm-2.546-72.029v-11.403h11.089L66.442 58.965h13.423l26.016 121.968h8.945v11.403H84.343v-11.403h8.229l-3.274-18.691H58.527l-2.383 18.691h8.241v11.403zm54.906-43.404L73.292 83.64 60.76 148.932zm814.912 958.728v11.41h-11.089l-23.596 121.97h-13.435l-26.004-121.97h-8.957v-11.41h30.495v11.41h-8.241l3.286 18.69h30.771l2.371-18.69h-8.229v-11.41zm-54.906 43.41l13.372 65.29 12.519-65.29z"/></g></svg>