<svg clip-rule="evenodd" fill-rule="evenodd" stroke-linejoin="round" stroke-miterlimit="2" viewBox="0 0 934 1300" xmlns="http://www.w3.org/2000/svg"><g fill="#d40000" fill-rule="nonzero"><path d="M31.758 192.336v-11.403h11.089L66.442 58.965h13.423l26.016 121.968h8.945v11.403H84.343v-11.403h8.229l-3.274-18.691H58.527l-2.383 18.691h8.241v11.403zm54.906-43.404L73.292 83.64 60.76 148.932zm814.912 958.728v11.41h-11.089l-23.596 121.97h-13.435l-26.004-121.97h-8.957v-11.41h30.495v11.41h-8.241l3.286 18.69h30.771l2.371-18.69h-8.229v-11.41zm-54.906 43.41l13.372 65.29 12.519-65.29zM36.135 253.519c-6.625-14.467-7.333-39.188 12.375-42.534 14.833-1.908 20.875 4.992 22.083 15.592.584 3.096 2.334 3.283 2.875-.242.875-10.875 11.625-17.221 20.042-15.625 23 3.938 21.667 29.284 14.167 46.479-11.375 22.834-23.334 37.242-34.375 60.217-12.667-23.921-27.084-43.354-37.167-63.887zm380.333 276.687c29.75-1.979 45.292 23.446 48.334 43.483 1.791 3.184 2.791 2.288 3.458-.175 1.458-25.725 24.5-46.75 45.833-43.875 34.667.45 55.75 39.063 49.834 71.742-7.25 39.925-28.75 63.963-45.042 88.721-18.417 25.637-43.208 62.667-51.208 80.487 0 0-25.209-38.35-57.959-83.454-21.958-30.162-39.5-62.846-41.125-90.983-1.875-32.146 11.334-60.963 47.875-65.946zm404.584 517.844c-6.625 14.46-7.334 39.19 12.375 42.53 14.833 1.91 20.875-4.99 22.083-15.59.583-3.1 2.333-3.28 2.875.25.875 10.87 11.625 17.21 20.042 15.62 23.041-3.94 21.666-29.29 14.166-46.48-11.375-22.83-23.333-37.25-34.375-60.22-12.666 23.92-27.125 43.35-37.166 63.89z"/></g></svg>