<svg clip-rule="evenodd" fill-rule="evenodd" stroke-linejoin="round" stroke-miterlimit="2" viewBox="0 0 934 1300" xmlns="http://www.w3.org/2000/svg"><g fill-rule="nonzero"><path d="M31.155 192.336v-11.403h11.09L65.84 58.965h13.423l26.016 121.968h8.944v11.403H83.741v-11.403h8.229l-3.274-18.691H57.925l-2.384 18.691h8.242v11.403zm54.907-43.404L72.689 83.64l-12.531 65.292zm814.912 958.728v11.41h-11.089l-23.596 121.97h-13.435l-26.004-121.97h-8.957v-11.41h30.495v11.41h-8.241l3.286 18.69h30.771l2.371-18.69h-8.229v-11.41zm-54.906 43.41l13.372 65.29 12.519-65.29zm-385.36-453.813c.042-8.442-6.625-8.6-6.542-2.442-.583 30.954-26.75 46.196-45.75 42.579-29.333-5.575-38.666-34.675-38.416-51.812.875-52.905 54.125-91.913 102.166-159.73 35.209 61.213 93.334 109.292 96.792 156.609 4.542 62.908-75.042 86.375-86.417 13.054-.75-5.179-6.833-7.508-6.375-.271 1.75 20.092-.708 28.463 21.959 77.996h-59.25c13.125-23.146 20.916-51.563 21.833-75.983zM74.02 291.252c.042-3.633-3.733-1.937-4.241-.795-4.846 8.275-11.938 10.2-18.95 7.216-6.946-2.954-10.85-9.5-10.225-18.841 1.291-14.325 12.65-29.996 18.146-38.859 5.216-8.041 10.95-17.591 16.987-29.808 7.071 14.012 10.658 18 18.354 30.796 6.775 11.271 16.217 22.304 16.946 35.929 0 10.354-4.358 20.129-14.162 21.912-5.546 1.009-10.746-1.841-14.6-8.487-1.175-1.692-3.534-.808-3.496 1.508.687 8.721 3.979 16.596 11.787 25.884H61.87c5.88-6.567 11.871-15.434 12.15-26.455zm784.896 719.068c.042 3.62-3.708 1.93-4.208.79-4.875-8.27-11.958-10.2-18.958-7.22-6.959 2.96-10.834 9.5-10.25 18.85 1.291 14.32 12.666 29.99 18.166 38.85 5.209 8.05 10.959 17.6 17 29.81 7.042-14.01 10.625-18 18.334-30.8 6.791-11.26 16.208-22.3 16.958-35.92 0-10.36-4.375-20.14-14.167-21.92-5.541-1-10.75 1.84-14.583 8.49-1.208 1.69-3.542.81-3.5-1.51.667-8.72 3.958-16.596 11.792-25.879h-28.709c5.875 6.566 11.875 15.433 12.125 26.459z"/></g></svg>