<svg clip-rule="evenodd" fill-rule="evenodd" stroke-linejoin="round" stroke-miterlimit="2" viewBox="0 0 934 1300" xmlns="http://www.w3.org/2000/svg"><g fill-rule="nonzero"><path d="M258.663 1174.5c-3.569 5.1-19.021-30.45-28.941-57.4-4.879-13.25-11.393-24.16-8.7-27.64 7.065-7.14 25.36-.75 38.665 9.45 14.215 10.91 24.25 26.95 24.25 26.95zm-124.704-26.36l-.435-19.84c12.247-11.01 29.727-26.93 47.531-47.48l-46.195.29-3.628-17.25-.487-753.833s50.639 52.411 51.941 52.428c.755.008.085 312.975.367 522.256.414.986-26.688.372-28.468 14.066-1.174 9.045 29.403 7.798 29.889 8.4-.068 94.073-1.37 161.613-.713 161.613 23.209 0 28.084.91 28.084.91-26.188 27.06-53.401 49.19-77.886 78.44zm165.017-96.85c-4.081-8.12-10.582-39.33-15.555-38.58-22.842 7.56-30.201-26.107-6.57-27.84 8.952-.653 18.945 10.992 24.553 25.48 2.694 7.59-.085 43.98-2.428 40.94zm5.148-46.81c-6.736-10.991-13.186-51.129-25.458-48.854-11.21 2.544-18.377-7.261-17.284-15.849 5.745-24.127 46.81-1.204 57.584 4.354-5.34 12.114-12.887 42.319-14.842 60.349zm-86.12-110.113c-2.932-1.204 4.568-13.314 4.64-27.268.09-15.819-7.124-33.282-6.27-35.822 26.875-21.057 63.406-43.749 70.052-31.686 6.83 51.317 3.3 79.844-4.367 118.155l-5.062 2.647s-8.491-1.597-14.791-4.845l-33.095-16.626zm432.232-387.351c-4.973-39.528-1.362-101.039 5.698-125.378 2.707-8.239 53.883 25.842 57.968 28.382 3.829 2.377 5.673 2.019 3.36 12.417-2.672 12.008-2.258 26.137 1.524 42.221 1.417 6.006 2.514 8.337-1.255 10.97-3.919 2.737-65.993 35.383-67.295 31.388zm-24.28-164.056c1.059-2.536 5.285-32.126 6.595-32.241 4.286-.371 10.573 28.98 21.505 38.665 20.648-2.382 23.064 11.585 19.03 18.338.994 2.963-6.668 9.404-13.831 8.785-17.795-6.941-41.794-13.083-33.299-33.547zm-276.073-24.097c-5.822-4.097 5.221-33.589 36.651-26.823 13.514-25.446 14.252-82.829 20.788-86.385 9.835-3.632 110.109-31.451 107.125-7.201-3.206 26.035-8.379 151.472-46.144 182.292-3.795 4.503 59.757 47.467 59.757 47.467s67.021-41.713 63.188-41.094c-1.652.448-2.954 35.485-3.94 92.142-.943 54.69 7.06 93.837 23.721 151.681-2.118 7.001 12.759 41.986 29.398 76.673 18.854 39.335 44.38 79.046 44.38 79.046-43.872-14.769-84.177-9.019-133.368-25.906l-2.412 194.393s25.467 13.288 30.375 19.396c2.404 2.989 2.673 7.146 2.946 10.915 1.063 14.681-11.355 32.141-34.956 26.381-7.406 25.89-18.026 86.78-18.432 86.76-36.04 4.85-72.566 10.07-109.076 8.11 0 0 5.46-19.55 7.556-48.95.759-10.71 1.302-22.25 2.561-34.51 4.614-45.192 17.915-94.542 39.386-97.709-4.238 1.682-54.484-41.636-61.335-44.735-28.25 14.735-65.37 39.454-65.37 39.454s4.888-35.805 5.11-73.33c.234-40.223-2.609-84.681-3.881-96.249-9.736-66.283-36.834-126.611-58.719-171.752-8.793-18.137-21.945-47.16-21.945-47.16 32.271-3.713 68.806-1.95 125.822 15.073 0 0-3.206-196.19-3.223-195.102.517 1.751-14.658-6.245-28.553-15.068-7.448-4.729-6.684-17.301-7.41-17.809zm284.563-43.983c.235-1.994 1.153-24.156 1.153-24.156 8.925 10.458 16.127 41.123 17.902 40.607 0 0 11.462-1.801 15.022 1.993 11.632 12.367.2 26.974-11.423 24.242-11.56-2.971-24.263-22.726-22.654-42.686zm118.565 665.17s-3.039-346.232-2.979-520.626c12.439-2.028 25.317 6.24 36.953-11.445-6.159-12.758-23.742-8.874-36.966-11.448l-.124-160.79s-22.064-.384-22.081-1.832c-.022-1.327 11.371-12.046 32.924-34.567a831.207 831.207 0 0 0 9.77-10.437c10.873-11.849 28.148-31.587 28.967-30.793 6.775 5.749 6.07 15.093-25.398 44.312-22.94 21.296-23.823 19.875 1.55 19.516 24.194-.439 27.267-2.454 23.874 6.254.055 3.556 2.813 6.33 2.164 6.885-.704.602.158 756.429.158 756.429zm-73.906-806.419c.162.444 3.338 1.648 6.748 5.421 13.95 22.833 21.185 51.766 32.143 71.726-22.692 10.078-54.173-12.298-61.771-31.865-9.22-24.635 17.766-58.856 22.88-45.282z" fill="#e2cf00"/><path d="M124.739 101.574l.88 1097.526 686.419 1.01-2.954-1099.795zM352.03 332.322c.927 1.772 2.446 4.32 2.446 4.32s-1.652.427-2.809 1.183c-79.43 29.376-165.332 94.831-166.817 96.756l1.515-72.451-53.264-55.351.201-196.326h206.567l60.58 101.281c-3.637 26.534-13.075 77.894-13.075 77.894-5.562-1.345-24.318-3.108-34.452 11.423-4.836 6.928-7.414 16.374-.892 31.271zm387.262 225.955l7.846-9.937-13.831.632 9.498-10.3-15.307-.355 11.935-10.129-16.106-.188 11.97-9.967-17.63.798 12.627-10.842-17.425.072 12.998-10.906-17.053-.235 11.081-9.796-14.884-.175 16.827-11.811c7.179 3.137 16.822 4.921 26.521 5.126l.2 79.52zm12.063-137.889c39.335.133 47.749-20.878.209-24.22 0 0-3.718-104.269-2.65-147.429.008-5.272.503-11.193.503-11.193l-25.897-.661s69.424-74.923 75.964-81.019c5.933 251.849 5.669 836.585 5.669 836.585l-53.047-53.063-.58-165.336c-17.753-17.984-27.925-44.215-38.494-61.204l-29.01-14.09 6.821-23.303-2.919-6.625-9.054 32.971 31.733 15.077 3.359 6.817-5.34 31.067 30.026 10.3 5.207 7.141-1.882 30.338 6.211 1.903.064 6.011-6.237-.525-2.228 34.059 8.482 2.488-.017 7.692c-.009-.136-4.943.026-7.372-.183-3.347-1.81-8.866-8.986-8.866-8.986l3.001-37.824-38.068-7.628-2.834-4.008 7.005-37.803-39.972-12.225c4.102 10.091 9.541 19.533 14.07 29.466-5.494 1.588-11.227 1.947-16.78 3.138-1.503 51.074.23 104.214-1.354 152.248-32.172 2.318-17.078-.742-31.067-.529-5.476 0-9.92 4.444-9.92 9.916 0 3.5 1.814 6.574 4.551 8.341l-5.541 1.981-9.694-10.967 20.263-19.43-.124-5.584-25.159 25.155 10.893 12.567-6.479 3.36-9.938-10.463s-21.385 21.881-20.058 22.282c.666.201 1.853 1.302 2.655 2.429 15.226 32.868-5.549 48.578-30.666 39.478-6.381 30.25-12.472 57.55-17.497 88.88-18.764 7.09-107.035 11.18-108.004 9.56 0 0-2.237-2.13-2.335-3.2.401-1.4-2.531 2.92-2.531 2.92 0 1.86-76.942-1.92-114.886-9.15 0 0-.777-3.64-.465-8.44.623-9.62-.124-9.53 8.639-8.13 17.895 1.19 31.776-4.95 37.295-20.69 3.095-8.82 1.644-16.76-3.077-40.35-4.576-22.906-4.627-20.438-4.085-23.533.64-3.641 4.567-7.696 10.202-12.268 4.247-3.449 4.674-9.959 1.255-6.356-2.352 3.432-6.497 4.657-10.202 6.578-8.708 4.559-8.418 8.955-3.274 27.769 2.407 8.83 4.934 18.34 5.019 19.45.257 3.45-.994 2.04-6.18-1.52-3.321-2.43-7.15-4.43-10.561-6.44-10.42-5.55-5.805.53 4.226 7.2 7.888 5.85 9.199 8.37 2.39 5.58-7.013-2.87-17.074-1.63-24.95 1.33-1.549.86-2.689.76-2.937-.65-.345-2.2.999-7.74 1.584-20.52 1.468-32.331 9.084-66.788 30.593-86.701 30.786-28.501 81.377-9.16 109.452 17.245l3.031-4.614c-18.846-15.815-51.506-35.545-83.315-31.712 13.301-11.094 42.639-29.466 42.639-29.466 20.118 14.59 34.96 29.146 57.046 44.949l3.846-2.553-60.751-48.167-65.447 43.151s2.719-41.392 3.744-56.525l-28.399 25.096 21.902 32.42-23.217 23.878s3.923-.55-.363 6.822c-6.535 13.249-10.479 34.597-13.497 56.277.585 16.2-3.406 34.11-4.636 48.37-2.151-13.36-4.682-20.38-9.63-32.5-4.546-11.68-6.322-11.59-11.444-9.89-27.767 2.33-15.196-51.231 17.617-16.195 1.438 1.482 3.816 3.305 3.922 2.95.683-2.147-8.708-30.358-12.34-36.864-3.842-6.868-3.872-7.837-9.575-7.252-10.671 1.101-14.282-2.698-15.367-13.933 1.422-21.236 24.404-12.264 39.122-5.737 1.336 1.02-6.902-7.5-9.847-10.505-4.009-4.081-4.658-6.698-4.658-6.698l.867-11.273 22.526-20.562-18.518-27.34.773-9.776 19.789-23.737-21.087-22.889-.264-8.157 17.142-22.807-22.969-18.415-1.114-7.346s14.744-27.281 14.351-28.271c-.337-.837-24.895-17.792-24.895-17.792l-2.467-11.474 10.667-29.12-25.522-14.574-4.678-13.151 7.184-26.978-26.47-12.225-7.551-15.196 4.922-28.353-29.667-8.784-7.876-12.465 1.033-24.933-7.269-.751.107-6.151 8.093.06s-.628-.918.264-13.237c1.516-20.942 1.661-20.135-3.338-21.006-10.539-1.831-8.123-8.303 2.647-7.103 1.656.183 3.052.324 4.23.546 2.835.534 5.024 4.209 5.024 4.209l-2.369 38.674 37.944 6.334 3.607 4.858-6.36 35.844 35.617 10.3 4.798 8.682-10.095 37.278 35.895 15.785 2.373 6.92-15.239 33.09 32.988 16.025 2.062 7.935-18.317 34.119 38.029 27.665s-1.016-2.706-2.531-7.223l-30.154-21.535 15.278-29.12s1.216 2.125 2.51 1.677c-.765-4.857-1.371-9.745-1.721-14.53l-15.563-40.556 50.353-33.855c-21.574-12.989-48.799-12.554-73.788-17.424 0 0-1.097-3.479-2.975-6.599-7.269-11.658-13.813-26.487-21.919-41.786 5.976-2.817 8.558-2.454 14.978-3.709 0 0 16.217-101.615 28.92-151.267 0 0 1.959.589 2.916.619 6.172 0 11.171-5.016 11.171-11.193 0-3.372-1.503-6.39-3.864-8.439 1.383-.393 2.843-.785 4.389-1.152 2.04-.03 10.304 9.088 10.304 9.088l-21.228 20.924-.124 6.92c8.469-8.815 27.076-27.844 27.076-27.844l-11.209-11.782 5.545-2.591 9.083 10.001 20.379-20.946 5.22 3.56c-6.864 9.016-11.333 11.953-21.607 22.607 5.365 6.352 26.162 26.389 26.162 26.389l-.06-6.92-20.498-19.875 19.935-19.891 1.152-1.319s15.824 6.842 16.831 6.825c-6.727-5.532-18.811-10.274-25.372-15.059-29.74-17.536-1.49-53.819 25.944-44.812.777 2.924 15.12-76.537 13.506-80.916 1.452-12.302 1.772-10.569-2.497-17.617-12.763-29.428-50.028-85.12-50.028-85.12l335.278-2.143c-3.491 6.808-7.009 12.332-9.655 20.28 0 0 18.837 19.627 25.727 45.431 3.85 14.398 9.374 27.874 19.059 37.457.15.346-.341.773-.93 1.174-26.508 9.344-56.717-13.271-66.006-39.075l-15.209 24.796c6.868.777-101.247-12.268-127.773-8.972 2.348.465 5.123 2.411 3.56 9.856-2.702 12.827-7.512 59.193-7.512 59.193-5.328 45.115-9.443 101.806-39.212 120.554 0 0 4.559 4.854 8.49 7.329.099-.064-3.504-3.701-3.619-4.127.017-1.311.764-2.143 1.639-2.835 6.305-5.114 14.001-15.708 13.719-15.986 24.57 21.335 63.022 39.703 86.192 32.075 9.143-1.917 13.203-10.732 18.056-3.582-6.296 38.811-5.869 81.501-3.419 115.031 3.786 74.739 20.289 117.566 36.642 170.514-8.409 2.967-51.565 31.895-51.565 31.895-.26 3.684 52.06 15.692 72.584 13.562 0 0 4.23 4.115 4.243 3.244-.116-.226-.265-.525-.41-.811a9.913 9.913 0 0 0 5.105-8.683c0-5.472-4.422-9.916-9.895-9.916a9.864 9.864 0 0 0-2.953.449c-2.587-6.326-4.781-11.863-4.781-11.863l29.065 12.652-9.477 31.793 3.181 7.06 11.555-41.405-37.095-15.888-2.514-7.346 15.389-31.409-33.172-19.648-1.4-6.254 17.851-33.718-32.117-24.668 23.495-30.358-28.92-24.285.324-4.025 23.96-27.584-24.771-25.462-.687-10.3 26.999-24.003-23.315-33.854c9.715-6.527 15.149-13.975 21.514-21.394l5.685 2.488-20.702 15.687 22.124 31.955 23.332-21.065-12.648-20.626 7.705 3.504 7.069 11.047-1.157 11.295-23.055 20.985 19.82 28.698.162 5.263s-12.324 14.159-21.296 24.69l25.116 27.703-20.54 26.209 25.842 21.996-.722-6.595-19.068-16.088 14.629-17.732c1.05-10.68-1.268-29.018 4.192-37.064-8.819-8.636-4.218-29.432.124-36.173-8.435-9.975-3.616-31.873 1.767-32.8-6.437-8.063-3.88-24.408 1.502-29.726 1.716-.918-22.969-9.822-38.545-20.52 12.959-24.113 9.941-46.801 14.026-54.975 5.609 16.178 12.785 33.389 18.983 45.777.653 1.284 2.032.994 4.085 1.033 25.757 2.292 23.302 23.52 3.991 28.954 0 0 39.267 29.248 59.172 32.488.205.517.055 1.208-.611 2.587-2.821 5.839-4.456 15.943-4.874 24.835-1.435 13.22 4.96 33.513 4.96 33.513l-8.153 5.037c-1.627 6.983-10.74 7.128-11.62 12.101 1.921 21.369 43.647 103.194 52.462 112.44 3.334-58.386-3.044-121.763.149-180.038zm-9.519 148.898l6.762-5.562-.163 8.836zm6.599 13.532l-3.406-2.54 3.432-3.808zM328.818 687.023a237.933 237.933 0 0 0 2.211 11.922c-4.807 1.255-8.341 5.614-8.341 10.809 0 6.172 5.015 11.188 11.188 11.188.883 0 1.729-.128 2.552-.32a362.963 362.963 0 0 0 4.756 15.379l2.266 1.618c-6.117-21.283 5.742-32.732-11.777-50.412-.264-.884-1.545-.636-2.855-.184zM690.369 109.74l109.115.713v40.27l-84.083 89.397 32.42.402-.346 153.341c-8.892 3.692-17.36 9.421-25.56 14.953l-51.143-28.288-3.684-1.883s1.413-.401 4.418-2.369c5.784-3.79 7.991-13.113 5.362-20.118-4.299-11.448-13.173-9.382-20.562-9.408-6.147-4.742-11.397-20.604-15.704-31.186-1.994-4.597-3.898-8.119-4.389-10.787-.461-2.463-.448-4.619-.448-4.619s.995.308 2.446 3.283c8.149 17.16 27.187 25.454 37.295 9.229 5.131-9.95 1.588-21.313-7.017-24.489-2.639-.974-11.598.059-11.598.059-.525.312-6.497-8.422-14.936-37.132-3.462-11.858-4.371-37.585-1.067-41.286 5.583-6.783 7.026-16.311 11.751-23.153 2.152-4.299 2.036-1.618 5.408 3.18 11.483 16.34 31.669 29.009 50.144 28.211 13.122-.568 17.168-5.045 14.069-8.823-7.201-7.355-11.905-17.676-14.27-26.717-5.498-21.036-11.324-39.805-26.102-56.158zm-55.393 99.898c1.378 1.306.29 3.313.038 6.941-.636 9.224-.837 9.331-6.134 7.005-10.159-4.457-24.536-.56-33.21 8.844-10.932 11.858-11.273 24.067-4.448 48.163 7.79 27.106 7.611 30.683-1.741 36.228-5.622 4.789-11.385 14.825-9.229 14.791.299 0 1.08-.607 1.724-1.332.641-.73 5.776-4.862 9.733-7.573 10.851-7.423 14.253-11.218 9.267-24.933-4.922-13.531-8.891-26.76-6.838-27.579.977-.393 4.725 4.012 7.039 5.34 4.746 2.723 14.756 7.76 15.99 7.752 1.695-.013-.12-1.23-5.003-4.431-13.066-8.58-18.415-16.353-5.805-11.436 6.753 2.634 13.894 1.097 17.928-.222 4.695-1.537 7.15-3.086 7.649-1.315.688 8.346.034 16.947-.486 25.335-.145.538-.781 6.249-1.417 12.669-2.382 24.387-6.549 44.931-17.258 58.164-35.853 44.274-76.652 31.37-122.48-4.068 17.096-47.356 15.918-84.262 20.139-99.284 3.957-1.191 8.593 1.132 11.474 2.749 6.382 3.633 13.647 5.818 20.622 6.194 6.493.354 7.62-.568 7.039 1.358-.448 1.481-10.915 4.554-17.326 5.886-11.654 2.429-10.8 5.122-.982 4.239 10.33-.935 20.302-5.037 30.879-12.068 7.321-4.87 7.594-4.879 5.626-10.991-.474-1.469-1.468-3.676 2.019-4.956 3.62-1.332 3.112-2.813 1.059-4.452-.508-.406-1.81-.5-2.335-.914-.645-.512.055-2.804.047-3.116-13.34-11.278-36.86-11.551-56.188.026-.969-.346-1.972-1.862-1.029-3.932 2.036-4.448 22.837-9.779 37.603-10.018 6.74-.107 8.054.747 18.197 3.846 4.17 1.276 6.501 1.605 6.876.973.867-1.443-.636-5.737-3.841-8.038-10.834-7.76-26.598-7.141-48.129 1.4-11.521 4.572-10.317 6.139-6.591-16.596 1.029-6.309 2.22-11.128 2.22-11.128s100.735 3.585 117.302 10.479zm-15.504 21.352c5.327.034 10.198 1.37 13.036 4.127 4.145 4.594-.209 6.024-6.8 3.522-8.439-3.201-18.03-1.379-25.466 3.24-4.764 2.962-5.788 1.374-1.772-2.877 4.858-5.139 13.225-8.063 21.002-8.012zm-76.6 7.914c9.288-.064 17.795 1.6 21.291 5.523 3.193 3.582.12 3.945-7.854.833-11.222-4.388-26.183-3.001-38.533 3.133-6.347 3.154-8.294 3.795-7.444.205 3.722-5.818 18.965-9.605 32.54-9.694zm74.295 2.894c8.853.021 16.37 2.049 14.978 6.676-.499 1.652-.939.653-7.265-1.293-6.33-1.947-14.411-1.213-22.525 1.152-7.577 2.207-9.028 2.711-5.626-.568 4.128-3.978 12.626-5.988 20.438-5.967zm18.026 4.448c8.96 13.809 10.544 34.059 20.076 45.029 17.642-3.282 25.991 13.306 11.145 24.349-7.543 4.191-16.746 1.037-23.507-10.036-6.45-10.552-8.226-16.938-8.431-23.635.581-14.057-.209-21.582.717-35.707zm-103.27 6.339l3.91.465c2.834 9.613 9.181 10.193 12.989.119l2.954.487c-4.486 12.345-15.751 12.853-19.853-1.071zm-6.049.179c1.631-.09 2.984 1.626 3.701 3.889 1.524 5.113-.205 4.469-3.739 2.305-3.582-2.177-6.335-3.616-4.278-4.491 1.55-.824 2.762-1.383 4.316-1.703zm33.551 3.278c1.353 1.674 1.657 2.958-.077 4.171-1.703.892-2.953 1.455-4.593 2.044-1.579.478-2.544.099-1.882-2.164.414-1.942 1.631-4.721 2.548-5.809 1.529-.274 3.168.806 4.004 1.758zm47.378-1.174l3.094.227c3.253 8.789 10.838 8.533 13.762.909l2.775-.022c-5.229 13.613-15.854 11.154-19.631-1.114zm-5.584 1.157c2.967-.004 5.857 4.269 4.231 6.454-1.644 1.371-8.965-.187-9.618-2.894-.251-1.63 2.416-3.556 5.387-3.56zm28.66.828c1.43.342 1.332 1.426 1.37 1.601.76 3.598-3.547 4.853-4.512 3.479-.529-.756 1.737-3.633 3.142-5.08zm-68.196 38.49c-7.243 2.032-10.62 8.294-10.159 15.282.367 5.652 3.304 10.258 7.598 11.231 8.648 1.959 14.642-4.077 23.473-6.514 3.821-.999 2.929-5.925.487-8.064-3.142-2.749-7.961-1.033-14.428 3.915-12.682 9.707-15.73-8.96-4.17-12.26 1.792-.508.969-4.64-2.801-3.59zm-375.04 429.919l4.934 1.417-4.926 5.839s.026-5.045-.008-7.256zm13.736 19.968l-10.155 11.427 13.8-1.037-9.361 9.724 14.364.576-10.556 10.919 14.116-.286-10.441 10.544 13.323.38-8.802 9.647 14.658-1.127-10.701 11.538 15.7-.278-11.897 10.762 15.657-.111-4.699 5.357 4.17 2.096c4.26-1.985 28.818-9.622 29.629-15.372-5.422-1.455-21.39 6.672-22.449 5.323-6.403-28.241-34.017-90.704-52.235-108.918l-1.238 176.661c-.431.401-.939.555-1.43.794-2.728 1.302-6.275.538-8.67 1.503-9.237-.478-24.668 14.953-16.605 18.013 4.214.931 27.563 4.931 27.627 6.092 2.856 51.163-1.767 102.593.363 157.203 6.527.97 27.865 2.19 27.865 2.19s-78.265 81.66-79.797 80.02c1.827-87.53.866-258.631-.666-259.267.013-5.131 1.806-15.943 1.806-15.943l-1.687-544.334s-.456-2.433-1.395-3.987c-1.605-2.655-1.725-3.338-1.84-11.495-.628-5.042.098-6.356.098-6.356l53.541 56.546.636 158.139s50.101 74.91 61.767 109.461c25.569 51.445 22.803 126.419 38.307 155.121.324 0 .636-.013.952-.038.375 4.183.422 5.861 1.028 6.514 1.17 9.357 2.429 22.141 2.429 22.141l-5.6 8.904 6.249 8.017.047 21.369-8.341 8.481 7.628 9.673-2.126 19.951-5.95 5.306 3.381 4.551s.563 7.192-.79 15.422c-.914 5.592-6.424 4.837-17.89-.99-16.238-6.155-32.864-17.173-45.691-25.479.764-10.39 13.63-34.081-4.277-60.209-6.617-4.956-25.838-3.138-27.52-3.885l.154-80.472m-.034-9.293l8.665-1.511-8.742 8.755zm412.63-401.706c-.713.081-1.593.742-2.732 2.023-1.2 1.353-3.125.982-8 .687-5.212-.316-6.539-.17-9.971 1.076-3.919 1.417-4.004 1.417-6.723.26-4.247-1.805-6.907-2.019-10.804-.909-4.794 1.358-7.816.986-10.77-.465-2.992-1.473-3.935-1.178-4.977 1.537-.435 1.139-2.561 5.562-3.543 7.064-3.193 4.883-2.425 5.699 4.273 3.641 4.597-1.413 13.075-2.309 19.384.303 4.798 1.989 10.518 1.353 17.347-1.618 5.989-2.608 11.906-3.431 17.647 1.396 3.342 2.813 3.163.683 2.305-5.139-.956-6.51-1.631-10.065-3.436-9.856zm-227.215 20.54c-6.172 0-11.188 4.999-11.188 11.171 0 6.177 5.016 11.193 11.188 11.193 2.929-2.434 4.444-21.916 0-22.364zm215.98.09c-6.809 2.313-16.161 5.408-26.696 2.318-8.277-2.523-6.296 3.696 2.693 4.473 6.25.542 5.831.538.952 5.101-4.106 3.842 1.037 3.565 3.846 1.174 3.313-2.821 12.307-2.087 17.382.222 2.228 1.012 2.476-3.201-.179-4.128-6.685-2.335-5.08-2.51 2.207-4.883 2.702-.615 2.804-5.302-.205-4.277zm-215.98 3.654c3.539 1.332 1.328 14.295 0 14.876-4.106 0-7.444-3.342-7.444-7.449 0-4.106 3.338-7.427 7.444-7.427zm-59.658.465c2.852-.973 4.858 3.765 4.858 6.962 0 4.107-3.321 7.449-7.427 7.449-5.025-4.9-5.938-10.364-.129-13.438a89.69 89.69 0 0 1 2.698-.973zm29.402 10.949l-23.895 24.165 23.456 23.759 23.494-24.284zm283.091 9.575c3.419 0 6.189 2.787 6.189 6.21a6.189 6.189 0 0 1-6.189 6.194c-3.428 0-6.211-2.77-6.211-6.194a6.216 6.216 0 0 1 6.211-6.21zm-283.291 8.114c3.428 0 6.194 2.788 6.194 6.211a6.187 6.187 0 0 1-6.194 6.194 6.19 6.19 0 0 1-6.19-6.194c0-3.423 2.771-6.211 6.19-6.211zm254.042 5.929l17.122 23.051-20.989 18.82 1.076-11.696c4.631-.836 8.136-4.904 8.136-9.775 0-4.23-2.651-7.824-6.373-9.25zm-285.105 1.277l-.243 6.27 21.573 21.373-21.351 22.159.179 6.134 26.572-28.293zm60.977.017l-26.371 27.059 25.437 27.788.324-7.043-19.973-20.643 20.361-20.216zm380.526 4.332c5.374-.008 9.972 1.755 11.376 5.264 1.101 1.967 1.69 3.675 3.3 4.409 3.133 1.434 7.38.448 7.589-.606.367-.004-4.998-.512-5.912-1.336-4.196-3.778-3.487-6.16 2.472-5.686 1.916.085 7.274.167 7.397 2.262 1.191 7.231-8.426 12.529-20.737 11.56-8.78-1.451-8.819 1.934-9.429 6.616-.388 1.541-1.737 4.026-2.839 5.993-3.099 5.562-4.123 4.785-1.959 6.941 2.096 2.736 4.819 6.138 4.777 9.327l-.094 29.338s-18.419-.081-24.818-4.708c-6.702-12.23-11.261-38.605-1.417-53.085 3.445-4.336 8.482-6.407 14.287-11.008 4.473-3.543 10.637-5.272 16.007-5.281zm-104.124 3.3l-.666 8.478c-4.674.798-8.256 4.853-8.256 9.753 0 4.35 2.818 8.034 6.715 9.374l-.581 7.364-13.668-19.61zm-53.627 5.724a6.566 6.566 0 0 1 3.381 5.75 6.6 6.6 0 0 1-4.495 6.275zm-284.964 3.099c-9.455 4.909-6.207 23.939 0 22.364 6.172 0 11.171-5.02 11.171-11.193 0-6.176-4.999-11.171-11.171-11.171zm61.724.282c-6.172 0-11.192 4.999-11.192 11.171 0 6.177 5.02 11.192 11.192 11.192 8.209-2.582 3.56-21.996 0-22.363zm275.915 2.834l-.969 12.204a6.588 6.588 0 0 1-3.658-5.912 6.583 6.583 0 0 1 4.627-6.292zm-337.639.628a7.422 7.422 0 0 1 7.427 7.427c0 4.107-3.321 7.449-7.427 7.449-2.45.482-4.008-13.591 0-14.876zm61.724.282c4.977.405.845 13.074 0 14.876-4.106 0-7.449-3.343-7.449-7.449s3.343-7.427 7.449-7.427zm250.726 7.064l-24.673 24.587 24.37 26.859 20.276-24.652zm-280.555 4.674l-23.657 24.366 22.359 23.114 23.601-24.916zm-155.467 13.335l8.639 9.169-8.921.082zm434.097.914c3.419 0 6.193 2.787 6.193 6.211a6.193 6.193 0 0 1-6.193 6.194 6.194 6.194 0 0 1-6.198-6.194c0-3.424 2.774-6.211 6.198-6.211zm-278.754 3.359c3.419 0 6.211 2.771 6.211 6.194 0 3.419-2.792 6.211-6.211 6.211-3.428 0-6.189-2.792-6.189-6.211a6.184 6.184 0 0 1 6.189-6.194zm30.581 7.244l-26.15 27.016 25.253 26.897.346-6.373-20.233-20.362 20.519-21.005zm-61.486.043l.265 6.838 20.985 20.805-22.061 22.18.897 5.972 27.114-28.049zm282.233 7.406l18.923 18.82-18.859 21.006-.017-10.906a9.946 9.946 0 0 0 6.676-9.391c0-4.35-2.805-8.017-6.698-9.348zm52.179.969l.201 7.692c-4.256 1.118-7.41 4.969-7.41 9.574 0 4.781 3.406 8.777 7.914 9.712l.162 6.091-14.979-16.511zm-437.456 3.462s6.313 6.736 8.456 9.493c-1.677 1.951-2.715 4.469-2.715 7.244 0 6.172 5.02 11.192 11.193 11.192 1.78 0 3.444-.435 4.938-1.174 1.149 1.704 6.194 8.683 6.194 8.683l-29.752-4.777zm164.384 4.473c-6.168 0-11.188 4.995-11.188 11.171 0 6.173 5.02 11.193 11.188 11.193 11.231-2.288 9.016-21.826 0-22.364zm-62.292.423c-6.172 0-11.188 4.998-11.188 11.175 0 6.173 5.016 11.188 11.188 11.188 6.177 0 11.171-5.015 11.171-11.188 0-6.177-4.994-11.175-11.171-11.175zm335.642 2.774l.35 12.405a6.61 6.61 0 0 1-4.516-6.271 6.59 6.59 0 0 1 4.166-6.134zm-273.35.547c7.236 2.634 5.029 15.367 0 14.876-4.102 0-7.444-3.342-7.444-7.449 0-4.106 3.342-7.427 7.444-7.427zm-62.292.427a7.419 7.419 0 0 1 7.428 7.427c0 4.107-3.321 7.445-7.428 7.445-4.106 0-7.448-3.338-7.448-7.445 0-4.111 3.342-7.427 7.448-7.427zm283.21.708a6.564 6.564 0 0 1 3.377 5.746 6.613 6.613 0 0 1-3.355 5.767zm-374.502 3.176l8.703 11.192a7.423 7.423 0 0 1-2.569.466c-4.107 0-7.449-3.343-7.449-7.449 0-1.567.486-3.014 1.315-4.209zm402.692 5.08l-20.442 24.566 25.112 22.282 17.809-22.056zm-279.325 2.954l-25.065 25.458 17.701 18.397-9.796-1.071-14.163-14.453-.325 4.797 7.709 8.824-8.225-.282 1.438 3.825c20.306.567 39.634 6.543 59.338 10.453l1.2-2.655-7.308-1.869 6.907-8.256-.077-6.275-11.944 12.789-4.046-.93 16.912-17.446-1.131-5.323-20.801 21.292-6.058-1.375 21.151-21.573zm280.358 14.65c3.424 0 6.19 2.77 6.19 6.193a6.187 6.187 0 0 1-6.19 6.194c-3.427 0-6.21-2.77-6.21-6.194 0-3.423 2.783-6.193 6.21-6.193zm-281.203 3.218a6.186 6.186 0 0 1 6.189 6.194 6.187 6.187 0 0 1-6.189 6.194 6.194 6.194 0 1 1 0-12.388zm-140.446 1.784s-1.61 20.366-2.515 30.171l32.399 8.665 4.03-32.544zm-14.134 1.537l4.516.162-.563 18.778-4.58-4.491zm59.949 8.234s3.261 5.238 6.983 11.013a11.098 11.098 0 0 0-3.24 7.85c0 6.177 5.016 11.193 11.193 11.193 1.131 0 2.228-.171 3.257-.487 1.455 2.749 4.17 7.124 4.17 7.124l-27.767-8.136zm347.623 2.088l21.791 17.749-16.933 20.843-1.136-8.947c3.821-1.379 6.557-5.033 6.557-9.327 0-5.156-3.94-9.378-8.964-9.856zm-377.047.303a6.19 6.19 0 0 1 6.19 6.193c0 3.42-2.771 6.211-6.19 6.211-3.428 0-6.219-2.791-6.219-6.211 0-3.423 2.791-6.193 6.219-6.193zm435.655 1.963c-5.481 0-9.941 4.418-9.941 9.895s4.46 9.937 9.941 9.937c2.164 1.588 2.758-17.027 0-19.832zm0 3.317c.589 2.954 1.302 13.89 0 13.194-3.645 0-6.62-2.975-6.62-6.616s2.975-6.578 6.62-6.578zm-397.143 6.599c2.471 3.906 5.049 8.115 7.222 11.918a7.233 7.233 0 0 1-1.374.124c-4.107 0-7.449-3.342-7.449-7.449 0-1.741.597-3.329 1.601-4.593zm340.272 1.699c2.984.632 5.225 3.266 5.225 6.437 0 2.583-1.502 4.824-3.667 5.908zm29.531 5.81L606.5 561.048l27.951 21.795 15.828-27.037zM204.52 546.394l20.826 6.091-3.927 21.309c-.337-1.242-1.494-3.492-3.056-6.173a11.09 11.09 0 0 0 1.413-5.421c0-6.176-4.995-11.171-11.167-11.171-.303 0-.602.017-.892.039a726.103 726.103 0 0 0-3.197-4.674zm30.862 5.182l-6.779 33.978 31.323 12.609 7.637-35.903zm393.097.26a6.189 6.189 0 0 1 6.189 6.194 6.19 6.19 0 0 1-6.189 6.194c-3.428 0-6.215-2.771-6.215-6.194 0-3.424 2.787-6.194 6.215-6.194zm-418.133 3.138a7.427 7.427 0 0 1 5.686 7.226c0 .461-.06.914-.141 1.353a344.763 344.763 0 0 0-5.545-8.579zm444.718.926l-16.793 31.639 28.553 19.934-1.955-6.761-20.421-14.975 11.871-21.761zm-405.775 11.44c3.419 0 6.189 2.791 6.189 6.211a6.189 6.189 0 0 1-6.189 6.193 6.19 6.19 0 0 1-6.198-6.193c0-3.42 2.77-6.211 6.198-6.211zm29.56 3.159l6.659 11.593c-2.745 2.036-4.533 5.289-4.533 8.968 0 6.173 5.02 11.188 11.196 11.188.918 0 1.815-.132 2.668-.341l4.82 10.219-29.087-12.729zm382.699.098c-2.604-.602-5.106 1.063-6.886 2.783a9.867 9.867 0 0 0-3.03 7.133c0 5.476 4.443 9.92 9.916 9.92 7.483-1.814 3.462-19.03 0-19.836zm-60.166 2.732l23.639 16.899-13.809 26.632s-1.383-5.379-3.133-12.605c3.355-1.592 5.686-5.003 5.686-8.969 0-5.472-4.444-9.916-9.916-9.916h-.12c-.926-4.337-1.758-8.516-2.347-12.041zm60.166.589c4.102 1.255 2.719 12.771 0 13.194-3.603.563-6.6-2.954-6.6-6.599a6.601 6.601 0 0 1 6.6-6.595zm-374.396 11.657l6.048 12.849a7.427 7.427 0 0 1-1.029.081c-4.11 0-7.448-3.338-7.448-7.445 0-2.172.939-4.127 2.429-5.485zm317.329 3.155a6.58 6.58 0 0 1 5.967 6.556c0 2.387-1.289 4.465-3.18 5.626a719.36 719.36 0 0 1-2.787-12.182zm31.182 3.381l-16.191 31.997 29.91 18.231 13.762-30.943zm-400.546 6.151l18.436 8.379-5.199 19.025-2.245-4.657a11.122 11.122 0 0 0 1.741-5.95c0-5.767-4.371-10.51-9.98-11.107zm29.125 9.028l-9.05 31.993 28.741 14.957 13.113-32.198zm-24.203 1.152a7.422 7.422 0 0 1 4.068 6.617c0 .508-.064.998-.162 1.477zm400.947 2.591a6.22 6.22 0 0 1 6.211 6.211c0 3.424-2.788 6.194-6.211 6.194a6.193 6.193 0 0 1-6.194-6.194c0-3.423 2.775-6.211 6.194-6.211zm27.293 1.768l-13.715 33.487 31.498 17.377-2.369-6.104-23.281-13.437 9.98-24.242zm-392.503 11.162a6.19 6.19 0 0 1 6.193 6.194 6.19 6.19 0 0 1-6.193 6.193 6.193 6.193 0 1 1 0-12.387zm402.407 4.96c-5.477 0-9.916 4.439-9.916 9.916s4.443 10.117 9.916 9.916c9.954-.226 4.874-19.913 0-19.832zm-371.601 1.114c1.883 3.407 3.296 6.967 4.589 10.625a11.143 11.143 0 0 0-4.913 9.25c0 5.946 4.657 10.821 10.522 11.171.222.013 1.251.158 1.251.158l1.78 6.74-24.724-12.972c3.462-9.31 6.428-15.764 11.495-24.972zm371.601 2.203c2.889 1.212 3.666 12.827 0 13.198a6.599 6.599 0 1 1 0-13.198zm-60.961 3.846l24.314 13.924-12.208 26.329-3.62-12.059c2.621-1.789 4.35-4.785 4.35-8.2 0-5.434-4.375-9.848-9.796-9.916zm-304.736 8.298l3.867 12.87c-3.931-.196-6.352-3.364-6.352-7.342 0-2.203.965-4.166 2.485-5.528zm308.804 5.221c3.095.542 5.447 3.227 5.447 6.475 0 1.895-.79 3.594-2.066 4.798zm-362.695.849l18.798 10.992-8.477 21.936-2.467-7.914c1.682-1.959 2.715-4.495 2.715-7.282 0-5.216-3.578-9.575-8.401-10.808zm392.448.448L639.65 681.44l32.971 17.322 8.229-31.246zM262.24 662.094a7.442 7.442 0 0 1 3.171 6.092 7.32 7.32 0 0 1-.461 2.548zm24.626 1.516l-13.378 30.986 27.827 18.333 14.492-32.3zm374.52 5.041a6.185 6.185 0 0 1 6.189 6.19 6.186 6.186 0 0 1-6.189 6.193 6.192 6.192 0 1 1 0-12.383zm32.612 13.617c-2.779 1.776-4.423 5.229-4.423 8.763 0 5.477 4.44 9.951 9.921 9.916 1.216-.008 2.313-.132 3.291-.358 2.856-3.829-1.195-18.496-8.789-18.321zm-398.817-.888a6.187 6.187 0 0 1 6.194 6.194c0 3.419-2.766 6.211-6.194 6.211-3.419 0-6.19-2.792-6.19-6.211a6.19 6.19 0 0 1 6.19-6.194zm405.779 15.952c-.41.218-.897.324-1.464.299-3.641-.171-6.6-2.954-6.6-6.6 0-2.074.957-3.927 2.455-5.135 5.699-4.273 6.535 12.294 5.609 11.436zm-369.15 5.276c1.14 5.084 2.399 9.912 3.628 14.411a7.499 7.499 0 0 1-1.562.179c-4.107 0-7.445-3.338-7.445-7.444a7.427 7.427 0 0 1 5.379-7.146zm345.497 3.645l-8.618 34.341 32.988 12.021 6.313-32.501zm-402.133.461l17.501 12.085s-5.66 13.642-10.445 20.925l-1.353-6.314c2.894-2.023 4.798-5.365 4.798-9.169a11.164 11.164 0 0 0-9.11-10.987zm370.144 1.644a6.566 6.566 0 0 1 6.578 6.573c0 2.391-.717 3.377-2.616 4.534-1.443-3.257-3.441-6.484-5.238-10.864.538-.141.692-.243 1.276-.243zm-367.86 9.066a7.429 7.429 0 0 1 4.469 6.817 7.412 7.412 0 0 1-1.942 5.02zm26.286 5.016l-15.884 27.605 23.311 17.83 18.219-27.626zm384.658.931c3.427 0 6.189 2.791 6.189 6.215a6.184 6.184 0 0 1-6.189 6.193c-3.428 0-6.211-2.77-6.211-6.193 0-3.424 2.783-6.215 6.211-6.215zm28.535 8.584l4.047 6.27a9.86 9.86 0 0 0-2.023 5.972c0 5.477 4.465 9.916 9.937 9.916a9.95 9.95 0 0 0 2.16-.222l3.265 5.037-20.685-7.406zm-408.438 7.363a6.194 6.194 0 1 1 0 12.388c-3.419 0-6.211-2.771-6.211-6.194 0-3.424 2.792-6.194 6.211-6.194zm414.466 1.985l6.112 9.493h-.179c-5.78-.111-8.221-4.866-5.933-9.493zm-384.735.427l-22.504 29.85 29.854 22.12-.465-6.599-21.821-15.585 16.592-22.098zm328.641 10.095l29.709 9.331-6.36 29.467-7-11.637c1.903-1.81 3.099-4.349 3.099-7.184 0-5.476-4.419-9.916-9.899-9.916a9.966 9.966 0 0 0-3.181.525zm-323.643 5.122c-5.638.572-10.056 5.323-10.056 11.112 0 6.172 5.019 11.188 11.192 11.188 2.843.341 3.248-4.009 0-3.744-4.107 0-7.449-3.338-7.449-7.444 0-3.949 3.074-7.163 6.962-7.411l-.546-3.701c-.039.005-.068-.004-.103 0zm363.994 3.176l-5.161 34.102 33.654 7.184 2.514-30.921zm-420.8.828l15.883 11.739-12.059 16.878-.644-4.836a11.199 11.199 0 0 0 4.751-9.165c0-4.845-3.082-8.934-7.381-10.484zm389.998 4.252c3.649 0 6.582 2.954 6.582 6.599a6.539 6.539 0 0 1-1.563 4.248l-6.415-10.685a6.58 6.58 0 0 1 1.396-.162zm-106.729 4.473c.709.261 2.745.419 2.425 1.072-.269.551-5.643 6.458-5.643 6.458l.606 5.503 9.553-10.826 3.842 1.418-13.412 13.638-.632 5.079 17.869-17.548 7.628 2.109-20.78 20.459 23.943 24.263 23.959-24.425-17.019-18.598 8.418.789c3.552 4.047 7.457 10.484 13.984 13.925l-.649-4.858c-.337.23-7.918-7.137-6.723-8.341l6.706.487s9.669-2.813-2.45-2.813c-15.905.004-33.052-5.413-46.711-9.472-1.52-.457-3.846-1.674-4.982-1.721-2.792 2.796-6.228 2.203.068 3.402zm-282.117-.081a7.374 7.374 0 0 1 3.035 5.972c0 1.746-.606 3.36-1.618 4.632zm431.971 5.929a6.194 6.194 0 0 1 6.198 6.194 6.19 6.19 0 0 1-6.198 6.19 6.185 6.185 0 0 1-6.189-6.19 6.19 6.19 0 0 1 6.189-6.194zm-407.238.607l-19.35 24.591 21.919 21.023 22.44-26.307zm434.464 6.296l1.536.26.081 16.78-2.492-.529zm-151.037 7.79a6.194 6.194 0 1 1 0 12.388c-3.423 0-6.215-2.771-6.215-6.194 0-3.424 2.792-6.194 6.215-6.194zm-280.435 1.763c3.423 0 6.198 2.787 6.198 6.211a6.195 6.195 0 0 1-6.198 6.194 6.194 6.194 0 0 1-6.194-6.194c0-3.424 2.775-6.211 6.194-6.211zm29.872 4.875l-24.989 29.79 26.828 27.704-.076-6.19-20.848-21.859 19.533-22.765zm279.462 2.732l-25.723 25.987 25.646 26.572.602-5.972-19.794-19.972 18.543-19.145zm-56.542 2.693l.038 7.06 16.131 16.413-16.515 16.861.098 7.163 23.418-24.143zm131.768 3.095l30.294 5.728-1.865 28.617-7.287-8.806a9.869 9.869 0 0 0 1.989-5.95c0-5.477-4.443-9.895-9.92-9.895a9.887 9.887 0 0 0-4.354 1.012zm-408.298 5.101l14.936 15.704-14.266 16.127-.124-5.481c3.975-1.716 6.762-5.677 6.762-10.283 0-4.768-2.98-8.819-7.184-10.42zm55.373 3.965c-4.969 1.14-8.687 5.58-8.687 10.89 0 5.306 3.718 9.762 8.687 10.906v-3.906c-2.878-1.033-4.944-3.777-4.944-7s2.075-5.955 4.944-6.984zm219.517 1.055c-4.597 3.026-2.544 20.109 0 19.832 5.473 0 9.895-4.444 9.895-9.916 0-5.477-4.422-9.916-9.895-9.916zm58.668 1.618c-5.472 0-9.916 4.439-9.916 9.916 0 5.476 4.444 9.916 9.916 9.916 4.359-1.439 2.574-18.842 0-19.832zm87.951 1.276c3.645 0 6.599 2.932 6.599 6.574a6.615 6.615 0 0 1-.888 3.278l-7.854-9.511a6.587 6.587 0 0 1 2.143-.341zm-146.619.423c3.642 0 6.574 2.953 6.574 6.599 0 3.641-2.932 6.595-6.574 6.595.329-2.361-1.242-13.468 0-13.194zm-274.689 1.519a7.37 7.37 0 0 1 3.363 6.211 7.473 7.473 0 0 1-3.094 6.074zm333.357.098c.82 2.672 1.853 13.66 0 13.199a6.604 6.604 0 0 1-6.599-6.599c0-3.642 2.958-6.6 6.599-6.6zm-29.991 9.613l-24.143 24.024 24.647 25.198 23.315-24.874zm-278.51 1.298l-21.616 23.332 20.826 27.038 24.429-24.323zm-117.178.849c6.646.009 12.857 1.144 15.38 5.567 10.18 13.629 7.256 41.631.2 51.261-15.84 14.377-24.796 18.181-42.656 14.894 2.045-8.077-6.535-12.431-7.769-10.646-.162.03-.824 1.443-.021 1.541 6.151.751 5.664 8.097 4.943 8.127-6.808-.209-11.231-.094-11.927-3.124-.431-1.866.671-4.756 4.632-8 4.666-3.726 26.107-3.641 26.107-3.641.085.03-.047-6.1 2.104-9.613 1.891-3.09 4.512-6.514 2.715-7.935-3.099-1.43-5.191-4.901-5.63-8.905-.837-8.387.486-28.582.183-28.796 3.612-.341 7.752-.734 11.739-.73zm395.65 15.585c3.419 0 6.21 2.766 6.21 6.19 0 3.423-2.787 6.193-6.21 6.193a6.19 6.19 0 0 1-6.198-6.193c0-3.424 2.77-6.19 6.198-6.19zm-278.31 2.408a6.186 6.186 0 0 1 6.19 6.189c0 3.424-2.771 6.215-6.19 6.215-3.423 0-6.215-2.791-6.215-6.215 0-3.423 2.792-6.189 6.215-6.189zm307.831 5.826l-25.236 25.744 26.897 27.827-.85-7.551-19.371-19.934 18.945-19.751zm-57.007.487l-.687 7.124 17.868 18.778-16.229 16.677-.248 8.098 23.888-25.176zm-276.308 9.715l14.266 20.012-16.972 14.897.44-5.686c4.93-1.169 8.601-5.604 8.601-10.889 0-4.683-2.877-8.678-6.962-10.343zm53.426 3.944c-.328 4.15-.555 7.505-.764 10.565-4.627 1.371-8.016 5.656-8.016 10.727 0 4.495 2.668 8.358 6.497 10.138-.303 3.206-.705 6.753-1.277 11.21l-17.057-24.95zm403.363 1.174l.666 70.001 50.571 52.637.55 196.473-208.85 1.27-53.734-91.16c-1.169-1.73-2.608-1.17-3.786-2.88l15.93-85.07c25.074 11.55 46.17-18.317 32.476-42.512 77.301-28.228 166.177-98.759 166.177-98.759zm-123.328.385c-5.481 0-9.916 4.422-9.916 9.898 0 5.473 4.435 9.933 9.916 9.933 5.472 0 3.397-3.385 3.397-8.861 0-5.473 2.075-10.97-3.397-10.97zm-57.742.589c-2.753 3.128-4.324 19.964 0 19.832 5.472-.171 9.916-4.461 9.916-9.938 0-5.476-4.439-9.894-9.916-9.894zm57.742 2.731c3.636 0 1.98 3.565 1.98 7.21 0 3.641 1.656 5.985-1.98 5.985-3.646 0-6.6-2.975-6.6-6.617 0-3.645 2.954-6.578 6.6-6.578zm-57.742.585c3.645 0 6.578 2.937 6.578 6.578s-2.933 6.6-6.578 6.6c.397-1.098-1.652-12.73 0-13.178zm-276.649 2.613a7.42 7.42 0 0 1 3.521 6.313 7.442 7.442 0 0 1-4.554 6.86zm53.289 6.637c-.311 4.747-.529 8.653-.853 12.61-1.879-1.353-3.117-3.543-3.117-6.032a7.446 7.446 0 0 1 3.97-6.578zm251.149 2.288l-23.533 23.533 24.506 25.463 23.294-24.652zm-279.966 6.109l-24.656 19.793 15.867 24.327 5.532 3.317 22.559-19.307zm-98.96 1.639l58.019 30.964s-15.051 6.301-14.637 16.354c.594 11.239 7.338 20.425 20.703 16.98 3.069-.444 4.469.824 7.428 7.731 5.66 13.211 11.252 27.724 9.066 27.28-7.116-5.686-6.053-5.997-14.428-9.758-15.627-4.303-25.133 10.236-20.199 21.994 4.606 10.86 12.26 11.48 19.935 10.37 1.126.25 2.078 1.49 2.834 2.91 2.437 4.94 6.134 13.73 9.028 27.26 4.456 20.86 5.46 46.97 2.203 53.53-4.495 9.08-10.706 21.38-10.706 21.38-12.097-23.07-38.465-43.28-68.093-36.14-1.003.63-1.204 3.88.137 5.8 9.608 12.61 11.239 24.17 14.671 36.56 8.81 31.79 26.58 49.97 26.333 46.73l-9.306 16.86s-80.57.4-113.545 0V1153l86.38-88.47-34.222-1.45 1.187-152.509c12.503-2.608 27.212-15.666 27.212-15.666zm379.352 9.775a6.19 6.19 0 0 1 6.19 6.194c0 3.423-2.77 6.215-6.19 6.215-3.423 0-6.215-2.792-6.215-6.215 0-3.424 2.792-6.194 6.215-6.194zm-283.03 6.275c3.428 0 6.219 2.77 6.219 6.194 0 3.423-2.791 6.211-6.219 6.211-3.419 0-6.19-2.788-6.19-6.211a6.19 6.19 0 0 1 6.19-6.194zm255.319 5.686l.61 6.112 16.981 17.788-15.726 15.99c-2.292 3.137-8.153 2.454-9.997 2.672-.009.201.388 2.318 1.78 2.933 1.468.648 3.227.529 3.923.93 1.639.935 2.698 1.072 2.698 1.072l22.845-23.371zm.269 13.821c-4.12 1.298-3.394 18.825 0 19.837 5.476 0 9.911-4.444 9.911-9.921 0-5.472-4.435-9.916-9.911-9.916zm58.223 2.694c.415 1.622 1.025 13.045 0 13.194a6.598 6.598 0 0 1 0-13.194zm-58.223.627a6.6 6.6 0 0 1 6.595 6.595c0 3.646-2.959 6.6-6.595 6.6-.888-1.52-2.361-12.977 0-13.195zm-204.16 3.176c-.986.376-2.343.141-3.419.141-3.445.009-7.718-2.424-8.665-1.98-1.076.508-.713 2.761-.653 3.773.115.935 2.74 1.246 3.811 1.955 1.729 1.14 1.264 1.537-.704 2.002-1.75.41-3.159.525-4.273 2.109-.696.981-.751 2.697.427 2.68 6.877-.098 15.593-2.928 23.823-.17 4.696 1.681 7.761 2.723 8.516 2.078 1.562-1.344-3.944-6.603-9.207-7.589-5.31-.99-7.214-.585-5.498-2.169.892-.819 2.091-.499 2.177-1.088.243-1.648-.965-3.342-2.403-3.577-1.55-.252-2.758 1.37-3.932 1.835zm29.569 16.516c-.555.008-1.366.401-2.455 1.276-3.133 2.079-8.037 4.866-19.866 1.618-6.509-2.139-13.809-.269-18.056.926-3.308.931-8.055 1.84-11.858.107-3.71-1.785-7.778-4.491-7.022-1.703.188.712.418 4.802.461 7.226.124 5.707.521 10.467 4.636 5.989 1.788-1.938 3.94-1.955 7.973-.363 2.882 1.136 4.896 1.904 7.125.444 3.158-2.066 5.886-2.578 11.721-.606 2.766.935 5.665 1.02 9.165-1.131 5.822-3.581 9.506-.102 11.739 3.56 1.767 2.898 2.651-1.234 5.908-9.835 1.677-4.106 2.202-7.53.529-7.508zm-27.866 31.972c-3.167 1.788-7.585 2.326-10.795 4.439-6.8 4.691-.427 8.588 4.294 7.611 1.93-.44 4.162-1.4 6.638-3.044 8.507-5.639 13.224-4.819 14.027 2.019.866 7.388-10.51 10.718-9.451 14.148 1.426 2.24 6.949-.83 10.368-5.47 10.143-13.749-1.02-27.643-15.081-19.703zm44.057 38.763c-11.534 1.31-28.907 6.88-37.628 13.43-6.851 5.34-8.73 6.68-5.827 8.81 2.664 1.94 4.704 2.01 1.055 5.74-1.302 1.33-3.509 4.12-3.501 4.66.039 2.67 16.319 10.61 25.663 11.86 7.201.96 18.859-.14 25.134-2.68 8.277-3.34 8.554-5.62.738-3.32-6.108 1.8-13.476 3.15-20.737 2.62-6.535-.47-12.934-2.46-16.972-3.91-10.005-3.57-8.264-7.74 1.84-4.19 11.628 5.03 26.705 4.94 40.087-1.09 5.399-2.44 6.915-4.35 7.892-3.52.239.2.79 1.53.931 1.9.337.88.376-2.27.849-7.28.402-4.16.79-9.74.79-9.74s-.802 2.36-.79 3.46c.111 7.28-3.423 7.32-13.416 1.74-11.743-6.45-17.446-5.82-28.612-5.75-4.884.03-5.106-1.38 1.775-3.65 3.27-1.09 8.303-2.83 15.786-5.22 6.193-1.98 7.862-4.2 4.943-3.87zm-88.502 14.69c4.256 0 8.055 3.61 9.152 10.62l-4.238-.3c-1.405-10.46-8.999-8.09-11.978-1.87l-3.727.11c2.929-5.75 7.044-8.56 10.791-8.56zm10.809.65c1.724-.16 9.728 3.72 10.219 4.91.529 1.31-2.515 2.72-5.182 3.5-3.07.91-2.442 1.03-3.411-.78-1.353-2.55-3.731-7.53-1.626-7.63zm-20.417.5c.081 1.13-2.352 5.24-4.115 5.77-2.07.62-3.705-2.12-2.002-3.52 1.528-.8 5.792-3.85 6.117-2.25zm82.303.54c5.378-.21 10.386 5.22 10.808 11.64l-2.715-.06c-2.514-13.37-12.788-10.34-15.094-.81l-3.201-.91c2.668-6.91 6.522-9.7 10.202-9.86zm-10.565.96c1.473-.1 1.276 1.1-.486 4.65-.833 1.68-1.43 2.63-2.895 2.58-1.984-.3-3.312-.94-4.332-2.52-.692-1.55.926-2.77 4.371-3.87 1.575-.49 2.668-.8 3.342-.84zm22.602.99c.948 0 2.664.61 5.37 1.8 6.903 3.05 7.718 4.3 4.107 6.03-1.609.77-2.941 1.35-4.008 1.7-3.24 1.08-3.142-.73-4.013-2.97-.491-1.27-1.084-2.42-1.716-3.76-.879-1.89-.913-2.81.26-2.8zm-101.208 11.33c1.152-.01 3.641 1.51 8.648 3.3 7.18 2.57 14.419 1.62 23.96-1.41 3.931-1.26 5.28-2.05 3.722.23-1.23 1.82-7.931 5.13-13.395 6.48-10.249 2.54-23.776-2.27-23.781-7.53.077-.75.329-1.06.846-1.07zm33.905 8.65c1.033.02.026 1.58-2.151 4.01-3.364 3.75-8.503 6.33-13.745 7.26-11.013 1.95-20.144-1.05-20.229-7.23-.073-4.44.713-4.5 6.151-1.7 4.61 2.38 14.991 2.96 23.354.26 2.744-.72 5.562-2.39 6.048-2.53.235-.05.423-.08.572-.07zm84.711 5.97c-8.362 2.2-17.241 4.42-25.36 5.99-8.695 1.7-21.373.13-27.989-3.12-4.884-2.41-6.6-.99-4.448 3.68 1.396 3.05 3.521 6.25 9.792 8.44 9.109 3.18 30.461-1.98 46.327-10.18 9.225-4.1 7.449-6.58 1.678-4.81zm-137.718 62.83l14.274-24.24c96.646 18.71 201.214 5.12 233.22.69 0 0 34.943 57.82 47.51 78.11 1.182 2.16 4.435 9.47 4.435 9.47l-330.003-.25c4.627-9.3 9.011-21.3 9.011-21.3-10.082-4.05-17.907-19.12-22.743-31.83-4.251-11.15-11.615-38.39-21.296-51.67 16.938-9.6 59.522 11.83 65.592 41.02z" fill="#131f67"/><path d="M581.934 1192.64h-326.84l42.588-85.12c79.448 12.03 157.773 10.53 235.201-1.72zM135.3 1124.79l-.965-41.1 42.426.09zm355.089-269.686l-.482-132.527 59.816 39.343-2.186 134.569zm-143.033-31.246c2.147-47.399-9.194-91.626-17.932-136.468l61.933-40.684 3.381 149.624zM184.299 699.304l1.678-170.894c55.71 80.13 89.572 159.915 99.288 269.789-15.145 6.109-29.923 12.853-45.461 18.3-17.894-41.068-35.937-80.826-55.505-117.195zm564.508 73.57c-51.484-65.408-82.542-155.105-98.75-262.465l47.129-22.884c15.649 37.905 30.858 76.477 50.652 107.932zM545.531 656.375L540.52 512.94l47.176-28.663c2.506 49.217 10.279 95.369 19.576 134.137zm-102.626-76.558l-50.916-29.616 2.89-129.659 46.557 36.484zM760.767 220.28c3.65-13.579 28.199-30.905 38.708-40.249l-.431 38.396s-36.411 2.574-38.277 1.853zm-356.886-20.763l-52.824-90.144 331.121-2.779-42.541 90.772c-87.695-16.033-162.72-8.794-235.756 2.151z" fill="#d40000"/><path d="M555.639 1010.33c.756.24 10.996-6.69 16.306-16.893 5.737-11.269.551-22.346 2.254-22.384 10.561 3.15 7.526 23.294 3.846 29.537-3.116 5.42-9.084 9.09-15.256 10.13-6.096 1.03-7.15-.39-7.15-.39zm17.22-44.041c-2.13.03-3.057-.329-4.457-1.784-1.951-2.019-4.281-3.372-5.523-3.197-1.669.243-2.438-.056-2.451-.948-.012-.734.735-.854 3.479-.611 1.678.15 5.208-2.492 5.208-2.492l.039-190.394c14.965 6.207 37.346 9.78 54.54 11.82l1.148 169.703s25.232-13.211 34.388-18.491l.329-151.903 17.868-1.955-28.216-57.336c-3.965 3.047-59.504-2.143-73.373-11.167l50.681-31.622c-5.147-15.7-9.83-30.704-14.137-46.6-.128-.491-1.067-.44-1.2-.927-1.041-3.88-1.78-5.626-2.757-9.532-.184-.73.111-1.912-.098-2.638-10.92-37.61-18.373-87.455-19.888-132.071.162-.422 1.776-.059 1.776-.059l-.325-27.26-1.801 1.2.175-12.337 1.831-1.809c.047-2.391.214-6.903.214-6.903l-2.344-1.464 1.213-20.669 2.416-.354 1.319-32.719-64.175 41.542s-41.888-29.991-60.209-45.546c20.161-13.706 25.501-40.428 30.504-62.603 5.109-21.945 6.783-40.066 8.234-58.429 1.597-20.238 4.947-46.114 7.632-58.869 1.618-7.709 1.558-8.554-.712-8.682-.786-.047.025-.299 1.797-.568 41.158-1.643 85.351 4.482 124.592 9.587 0 0 9.711-18.09 13.079-24.757 0 0 1.972 6.121 4.077 10.372 4.768 9.028 15.661 18.603 24.971 23.759 3.479 2.288 13.48 5.639 20.238 6.783 3.978.658 10.381-.606 15.123-2.493 1.627-.678 2.903-1.532 2.916-2.386.012-.862-1.272-1.737-2.916-3.299-1.404-1.328-3.278-3.902-4.17-5.729-2.852-5.784-7.201-15.499-9.639-24.587-6.838-18.078-11.913-39.895-27.631-49.508l10.847-21.706-341.553.09 52.849 89.014s1.601 2.655 2.126 3.598c1.562 2.809 2.203 2.408 2.203 2.408-3.445 31.122-8.337 61.766-14.812 91.877 0 0-.688-2.403-10.723-2.258-29.368.423-39.66 33.065-15.098 47.518 2.318 1.375 6.258 4.009 10.142 6.049 1.114.576 15.201 8.84 15.201 8.84l-16.879-7.589-1.225 195.878s-35.19-10.573-58.394-11.568l.234-169.84-32.398 17.489L277.667 528l-17.745 1.148s6.723 14.305 8.217 17.31c3.001 6.018 10.552 19.405 15.704 27.865 1.827 2.992 6.087 9.652 6.087 9.652 23.653.627 47.86 4.179 69.852 13.954l-50.907 33.124c21.262 59.902 47.778 147.558 33 289.037l3.569-2.263.977-15.243 63.368-43.608 78.175 62.954s-5.673-.154-6.949-.205c-19.934-.705-33.974 19.686-38.793 36.71-8.49 30.012-9.604 37.414-13.515 85.005-1.549 18.82-5.271 36.97-9.066 54.9-2.002 9.02-1.703 9.91-1.703 9.91 39.758 1.27 81.283-2.92 112.431-9.81 0 0 13.151-62.41 17.843-88.9 4.422 2.54 8.358 3.65 12.349 3.56 30.832-3.35 28.19-45.629 12.298-46.811zM435.631 110.726l16.157 56.704-39.583 3.662-32.864-59.901zm243.345-.794l-40.697 86.32c-85.368-11.982-134.636-13.122-233.719.909l-51.514-86.064 13.557-.119 38.836 68.716 57.678-5.75-15.939-62.881 15.239-.47 15.768 61.708 89.278-.474c2.894-20.673 8.499-61.11 8.499-61.11l16.481.184-10.983 62.475 52.734 6.612 30.47-69.843zm-114.497.798l-5.203 52.487-73.843.568-11.815-53.089zm89.471-1.007l-25.066 62.296-36.535-4.879 9.976-56.551zM220.083 211.128c5.703 4.473 7.491 5.63 6.527 7.5-1.08 2.096-2.369 1.682-7.201-2.369-14.424-12.26-29.868-15.098-43.041-11.547-37.077 12.977-43.531 55.851-17.71 85.061 25.671 22.688 70.782 8.99 78.034-26.495.209-6.561 5.895-9.105 5.899-.628-2.842 29.697-16.844 55.304-28.68 74.223h68.242c-16.545-24.72-22.107-39.203-26.986-76.11.23-5.801 4.004-6.68 5.301-1.233 3.928 26.162 24.297 46.929 51.262 42.716 54.916-11.073 55.198-85.663 7.184-97.726-11.965-2.48-26.346.674-37.418 10.548-4.026 3.59-5.447 4.162-6.86 2.791-1.567-1.519.324-3.043 4.875-7.085 25.355-18.693 24.207-52.799 1.135-71.88-21.689-15.098-47.27-13.804-65.647 2.344-23.832 22.184-15.79 54.28 5.084 69.89zm478.913-40.364c1.622 5.323 3.274 10.535 3.667 11.598 5.959 16.152 8.405 21.488 12.306 26.854.641.887.833.785-.111 1.545-17.941 8.767-50.369-12.815-58.181-32.583.978-1.908 5.319-9.933 5.319-9.933 2.267 4.418.568 8.785 2.053 12.751.367 1.69 4.077-11.432 4.077-11.432s3.577 5.827 4.016 17.028c.064 1.729 4.658-7.513 4.658-7.513 5.775 7.773 5.451 21.249 5.451 21.249 6.509-7.892 2.45-12.421 12.498 7.705 1.161-2.092.602-4.315 2.117-3.726 4.418 1.711 10.629 4.802 12.887 4.183-2.949-3.697-8.669-5.639-10.236-10.539 0 0 4.533.384 4.832.162-5.135-2.792-10.078-5.208-13.933-10.574 1.149-.426 5.797.372 5.597-.123-6.954-6.279-17.395-11.355-2.301-9.938-9.81-6.902-20.741-11.67-3.701-11.154-12.157-5.741-15.435-9.284-13.173-10.261 1.276-.547 4.913 1.639 10.71-.214-9.771-3.982-13.792-5.805-14.18-7.116-.474-1.592 4.17-2.463 7.35-5.907 0 0-3.94.892-5.656-.927 0 0 1.913-5.506 3.381-8.678 12.443 11.282 17.331 27.264 20.553 37.543zm104.774-21.907s-54.95 59.202-82.163 88.578l26.585.393 1.217 160.308c9.267 1.242 25.325.026 31.408 6.194 3.774 5.583-10.834 16.566-19.059 14.261-5.485-1.481-12.264-.307-12.264-.307l.555 178.629c-17.544-32.566-30.956-53.174-50.378-109.721 5.63-3.914 11.41-6.932 12.383-7.594-7.466-18-12.627-46.314-2.215-70.983l7.188 4.282c-5.263 15.055-7.205 37.32 1.404 57.899l1.977-2.074s-2.13-4.107-3.496-8.64c-1.225-4.042-2.988-9.254-3.001-14.65-.342-9.566-.051-17.787 2.211-25.462.777-2.501 1.882-6.236 2.467-7.385.577-1.148 1.14-2.211 1.131-2.531-21.138-8.563-36.291-21.091-54.518-30.051a33.957 33.957 0 0 1-1.729-.884c-2.314-1.285-1.708-1.728 1.908-3.163 7.611-3.03 10.71-6.701 10.543-14.086-.239-10.501-5.856-14.595-18.133-13.903-4.456.252-4.746.188-5.545-1.336-1.856-3.564-8.268-17.732-8.276-18.295-.005-.333-1.341-3.522-2.971-7.082-2.527-5.686-5.439-11.542-6.625-17.476-.602-2.949-2.314-4.106-2.745-1.063-3.253 22.607-6.245 34.542-12.084 48.125-1.738 4.046-3.053 7.448-2.916 7.568.564.499 10.334 5.037 14.915 6.924 17.855 7.346 25.97 11.879 23.217 12.972-1.917.76-2.608 2.092-3.104 5.886-1.276 9.955-1.131 15.047.534 18.198 1.742 3.303 1.703 3.538-1.153 5.399-2.488 1.618-1.95 1.627-2.625 9.938-.794 9.869-.26 16.144-.26 16.144l4.452 5.707-4.529 5.626-1.033 25.846 6.104 4.636-5.711 5.635 2.04 23.571s-.743 2.177-1.737 3.257c9.668 99.685 47.031 200.147 102.997 268.615l.555 163.762 54.848 54.877zm-4.295 10.539v12.909l-46.575 50.16 46.575.807v10.941l-71.503-.137zm-.721 21.911l.119 36.147-34.81.047zM63.446 195.893c-29.091 1.101-24.34 33.88-11.73 43.591 7.645 7.073 7.726 7.611-1.682 2.275-17.109-11.119-35.199-3.372-35.715 15.282-.922 30.154 34.648 32.629 41.969 7.517.576-3.304 3.543-7.372 3.325-1.208-.482 10.147-13.331 35.383-14.364 35.063h32.459c-2.416-6.011-10.57-21.467-10.74-33.898.196-8.618 2.292-2.992 3.538 1.307 7.227 25.586 42.341 21.424 43.374-5.409.439-19.52-18.159-31.353-33.487-19.802-8.721 6.1-8.802 4.546-1.802-3.163 15.901-16.302 6.984-42.391-15.145-41.555zm415.896 3.633l7.256-.303c-.286 7.286-3.167 40.927-6.624 70.389-3.893 33.214-11.859 61.87-13.383 61.87l-7.013-4.248c11.611-38.106 14.701-87.148 19.764-127.708zm32.932-1.042c-1.024 20.562-5.331 34.947-6.65 59.261-1.627 29.701-6.736 66.676-20.097 97.346-4.499 10.33-12.81 20.029-24.476 24.6-20.455 8.021-37.816-17.33-23.99-35.976 10.928-14.735 28.041-14.547 33.231.367 4.29 12.32-9.497 27.793-20.498 22.987-7.649-3.338-5.698-17.117 2.895-20.357 3.555-1.345 6.573 3.172 4.81 7.222-1.378 3.193-1.532 5.187.346 3.834 7.769-5.477 1.917-18.526-7.726-13.647-12.862 6.51-10.693 25.646 2.258 26.482 16.404 1.61 29.056-18.585 37.158-56.939 8.888-42.921 6.681-81.351 15.197-115.047zm-20.954.717l8.618-.256c-.687 3.185-.811 6.582-1.4 10.484-3.394 22.517-5.409 55.381-8.892 81.142-4.909 36.347-13.715 58.442-13.941 55.744-.978-4.405-3.765-7.978-5.899-11.466 8.883-24.173 12.473-46.165 14.752-66.872 2.659-24.198 3.419-46.647 6.762-68.776zm-36.851 2.088l7.564-.393c-2.946 48.188-10.006 91.873-14.181 110.625-1.289 5.656-1.724 8.107-2.791 8.576-1.191.521-3.176-1.391-7.991-4.068 7.329 1.037 13.215-81.927 17.399-114.74zm11.794-.696l8.213-.803c-1.221 17.421-4.158 44.808-7.449 69.502-3.983 29.855-9.203 56.312-11.799 55.919l-6.846-2.373c4.584 1.434 15.866-87.635 17.881-122.245zm-15.581.849c-5.365 36.48-5.873 79.106-16.989 113.17l-7.692-3.577c2.105.687 7.577-22.163 9.421-48.018 1.614-22.508 5.682-46.997 6.885-60.563zM438 202.783c-3.056 12.882-3.056 31.865-5.348 47.697-2.839 19.606-5.861 59.424-10.394 58.51l-7.855-3.978c4.12 1.242 11.308-74.202 15.683-100.996zm-20.677 3.193l7.978-1.08c-3.842 29.453-10.782 98.131-14.889 98.643l-7.474-3.965c2.911-12.063 10.3-53.085 14.385-93.598zm-4.956 1.148c-3.299 32.377-6.398 65.16-13.301 90.341l-8.174-3.688s5.677-27.691 8.371-47.139c2.655-19.2 3.056-21.936 3.901-26.939 1.865-11.03 2.386-11.44 2.386-11.44zm350.219 33.184l-.79 155.467-9.066-.345.375-155.365zm21.411 1.229a6.19 6.19 0 0 1 6.19 6.194c0 3.419-2.771 6.211-6.19 6.211-3.427 0-6.193-2.792-6.193-6.211a6.188 6.188 0 0 1 6.193-6.194zm-146.016 57.051c6.42 11.738 11.341 16.041 16.993 18.286 10.202 4.051 24.271-5.929 19.149-19.891-2.685-7.342-9.519-8.431-18.184-6.971 0 0-3.731-2.651-8.119-15.952-5.204-15.751-13.357-31.955-13.357-31.955-.516 19.755-5.165 40.326 3.518 56.483zm155.181-42.623c3.423 0 6.215 2.771 6.215 6.194 0 3.424-2.792 6.194-6.215 6.194a6.194 6.194 0 1 1 0-12.388zm-16.993.244a6.189 6.189 0 0 1 6.189 6.193c0 3.424-2.77 6.211-6.189 6.211-3.428 0-6.22-2.787-6.22-6.211 0-3.423 2.792-6.193 6.22-6.193zm-138.931-1.486c5.75 11.922 6.966 20.899 12.541 31.699a591.4 591.4 0 0 0 4.632 8.759c18.218-8.567 25.223 13.007 10.453 19.892-14.547 6.779-30.913-18.978-29.325-46.72.44-7.645 1.699-13.63 1.699-13.63zm147.084 16.097c3.419 0 6.189 2.771 6.189 6.194s-2.77 6.211-6.189 6.211c-3.428 0-6.194-2.788-6.194-6.211s2.766-6.194 6.194-6.194zm16.404 11.636v13.25l-32.377 31.413v-12.81zm-425.713 10.202c6.193.082 9.16 1.913 5.058 3.539-13.591 5.4-19.636 14.005-20.379 29.044-.034 7.602.876 8.597-3.803 4.354-11.948-16.72 5.268-37.035 19.124-36.937zm11.367 5.439a13.211 13.211 0 0 1 4.495.606c3.641 1.144 2.305 1.229-3.834 5.306-11.708 7.773-15.273 15.384-15.789 30.943-.15 2.343.337 4.29.136 5.272-.162.747-1.067.508-1.613.478-2.241-.372-3.611-2.736-4.26-4.734-7.423-14.821 6.3-37.321 20.865-37.871zm12.682 5.148c1.007-.013 1.891.145 2.608.503 2.864 1.43 1.806 1.639-3.44 5.379-9.306 6.633-13.908 16.383-14.992 27.276-.691 6.992 4.696 15.299-4.845 8.452-6.706-5.566-5.374-20.033 1.75-29.961 4.384-6.126 13.476-11.585 18.919-11.649zm401.664-3.031v15.085l-32.377 30.756v-15.44zm-391.27 7.863c3.675.038 5.327 2.399 1.033 5.101-10.484 6.59-16.784 19.157-16.17 32.279.598 7.923.893 9.348-4.17 4.111-8.153-8.439-2.403-31.345 13.399-39.912 2.152-1.131 4.235-1.596 5.908-1.579zm10.727 4.392c6.036-.145 6.881 2.907 1.477 6.68-10.3 7.193-17.185 19.867-17.019 31.388.081 5.352-.342 6.018-2.711 4.208-11.905-9.087.854-40.795 16.981-42.195.444-.038.871-.072 1.272-.081zm212.923.99c1.477.107 4.119 5.349 8.255 16.315 3.992 10.573 10.433 23.904 11.799 24.404.422.158 2.237-.474 4.029-1.413 13.579-7.133 23.145 13.096 9.754 20.622-9.527 5.348-18.521-.389-26.819-17.143-9.78-19.751-12.461-34.414-7.727-42.319.197-.325.427-.483.709-.466zm-201.872 5.387c1.64-.072 3.223.235 4.713 1.012 3.517 1.819 3.005 3.167-2.39 6.335-5.554 3.261-7.752 5.301-10.945 10.138-4.986 7.538-5.818 10.441-5.827 20.156 0 7.918-2.352 8.354-7.086 1.315-8.153-12.132 8.2-38.371 21.535-38.956zm13.562 7.103c5.327-.119 8.844 2.058 3.739 4.756-16.238 8.58-23.059 20.903-19.951 36.061.973 4.751-4.457.73-7.752-5.746-4.819-9.455 4.068-27.733 16.191-33.312 2.54-1.17 5.344-1.707 7.773-1.759zm183.252 13.942c1.016.072 2.194 2.774 4.789 9.433 1.699 4.337 3.97 9.528 5.067 11.534 1.088 2.006 1.852 3.893 1.677 4.188-.913 1.524-8.439-1.067-10.97-3.782-3.906-4.196-5.148-13.579-2.506-18.944.769-1.567 1.328-2.472 1.943-2.429zm155.949 11.435a6.19 6.19 0 0 1 6.19 6.194c0 3.424-2.771 6.211-6.19 6.211-3.427 0-6.193-2.787-6.193-6.211a6.188 6.188 0 0 1 6.193-6.194zm-635.605 9.997c3.419 0 6.189 2.792 6.189 6.216a6.188 6.188 0 0 1-6.189 6.189 6.183 6.183 0 0 1-6.19-6.189c0-3.424 2.762-6.216 6.19-6.216zm256.07 1.862c6.765-.235 8.857 2.962 9.993 13.237.781 7.056 2.305 7.713 13.399 5.848 11.713-1.968 15.631 1.208 16.472 13.335.662 9.621.577 9.544 13.907 9.634 13.114.09 14.518 1.417 16.029 14.855 1.119 9.984.734 9.707 13.638 9.532 14.283-.193 15.568.862 16.533 13.497.781 10.245 1.464 10.902 10.483 10.159 8.841-.725 25.143-.807 28.19-.141 7.603 1.657 7.914 1.345 9.554-8.904 2.151-13.497 4.823-15.188 21.411-13.519 8.157.82 9.105.653 10.257-6.522 1.541-9.566 3.458-12.371 3.462-4.081.013 20.938-1.443 21.911-15.418 18.189-10.492-2.801-10.659-.649-11.76 9.455-.965 8.908-2.467 12.558-5.746 13.984-2.544 1.105-11.119.162-14.551-.816-1.306-.371-9.455-.567-19.102-.465-23.243.243-23.491.299-23.478-16.029.013-6.872-1.494-8.349-13.664-7.982-15.264.457-14.462.871-17.057-17.459-.901-6.351-1.413-6.595-14.048-6.415-13.766.2-16.895.397-16.084-11.205.738-10.548-1.836-13.314-13.318-10.642-12.238 2.847-14.578-2.348-15.769-11.777-1.105-8.734-1.844-6.548-7.687-7.005-6.476-.504-5.716-7.786 1.152-8.46 1.174-.116 2.228-.269 3.202-.303zm389.106 3.18a6.184 6.184 0 0 1 6.193 6.189 6.187 6.187 0 0 1-6.193 6.194 6.187 6.187 0 0 1-6.19-6.194 6.183 6.183 0 0 1 6.19-6.189zm-17.446.341c3.427 0 6.198 2.792 6.198 6.215a6.188 6.188 0 0 1-6.198 6.19 6.186 6.186 0 0 1-6.19-6.19c0-3.423 2.771-6.215 6.19-6.215zM157.68 377.028c3.424 0 6.215 2.77 6.215 6.193 0 3.424-2.791 6.194-6.215 6.194a6.193 6.193 0 1 1 0-12.387zm-17.403.141a6.189 6.189 0 0 1 6.189 6.193 6.189 6.189 0 0 1-6.189 6.194 6.187 6.187 0 0 1-6.19-6.194 6.187 6.187 0 0 1 6.19-6.193zm323.856 5.276l64.434 48.077 60.986-40.812-.367 14.889-60.554 40.266s-51.527-39.903-76.434-59.172zm320.671.717c3.419 0 6.194 2.787 6.194 6.211a6.193 6.193 0 0 1-6.194 6.193 6.186 6.186 0 0 1-6.189-6.193c0-3.424 2.766-6.211 6.189-6.211zm-105.533 8.114l15.286 24.831-15.26 11.068 13.885 17.754-14.974 15.345 16.46 10.458-15.388 21.433-21.309 9.464 21.309-27.998-17.634-12.106 16.724-18.018-15.004-19.67 15.529-12.14-16.805-27.562 1.101-1.332zm-282.484-5.481l113.216 84.69s10.45 7.867 13.451 9.771c6.351 4.025 7.619 2.416 13.967-1.938 14.304-8.495 48.935-32.058 48.935-32.058l-.282 12.196s-34.827 26.064-54.104 36.872c-2.741 1.511-5.673.081-7.727-1.477-42.05-33.299-85.077-65.587-127.704-98.212zm260.142 1.345c.474.854 2.002 1.161 2.732 2.301 5.02 7.764 14.112 21.565 14.112 21.565l-15.918 12.626 14.616 19.192-18.261 18.56 18.658 12.695s-11.593 17.736-20.348 25.846l-.214-13.774 7.487-9.024-8.588-5.908-.026-18.944 8.73-9.195-8-8.084 1.426-20.712 7.628-6.036-6.292-8.618zm-508.324 4.226c3.428 0 6.219 2.77 6.219 6.194 0 3.423-2.791 6.193-6.219 6.193a6.189 6.189 0 0 1-6.189-6.193 6.189 6.189 0 0 1 6.189-6.194zm650.887 22.589l-31.493 29.108v-13.22l31.493-30.913zM166.61 399.741v15.952l-33.632 31.054v-15.401zm632.882 18.295v15.833l-31.493 29.594V447.78zm-37.055 2.489l.657 514.77 36.561 38.69.025 12.84-46.276-47.945-1.054-517.933zm-595.827-1.537v17.92l-33.632 30.683v-16.866zm230.079 3.287l44.483 34.627-.184 120.708c-18.013-13.544-32.471-21.616-46.143-28.48zm388.158 39.041a6.186 6.186 0 0 1 6.189 6.194 6.186 6.186 0 0 1-6.189 6.193c-3.419 0-6.211-2.77-6.211-6.193 0-3.424 2.792-6.194 6.211-6.194zm-330.28 5.903l.162 123.171-8.764-8.008-.512-122.155zm-303.768 1.183a6.193 6.193 0 0 1 6.194 6.193c0 3.424-2.775 6.211-6.194 6.211-3.423 0-6.215-2.787-6.215-6.211 0-3.423 2.792-6.193 6.215-6.193zm642.32 8.78c3.428 0 6.194 2.771 6.194 6.194s-2.766 6.215-6.194 6.215c-3.419 0-6.189-2.792-6.189-6.215s2.77-6.194 6.189-6.194zm-17.646.773a6.187 6.187 0 0 1 6.198 6.189 6.19 6.19 0 0 1-6.198 6.194 6.19 6.19 0 0 1-6.19-6.194 6.186 6.186 0 0 1 6.19-6.189zm-315.938-.602l27.132 25.368-27.951 26.513L458.49 517l15.554-14.996-15.631-16.212zm10.326 2.241l22.624 16.699-3.543 4.294zm-309.889 3.744c3.42 0 6.19 2.77 6.19 6.193 0 3.42-2.77 6.19-6.19 6.19a6.19 6.19 0 1 1 0-12.383zm-18.158.303c3.423 0 6.198 2.787 6.198 6.211a6.194 6.194 0 0 1-6.198 6.193 6.193 6.193 0 0 1-6.194-6.193c0-3.424 2.775-6.211 6.194-6.211zm444.636 2.245c4.354 49.281 7.376 83.387 20.109 129.851l-58.522 37.419.529-142.721zm161.285 112.755l-.23 169.238c-55.227-78.589-85.005-170.454-94.597-257.513 0 0 29.654-13.659 44.052-22.043 15.248 35.741 8.665 35.695 50.775 110.318zm37.863-105.592c3.419 0 6.19 2.791 6.19 6.215a6.19 6.19 0 0 1-6.19 6.194 6.188 6.188 0 0 1-6.194-6.194c0-3.424 2.766-6.215 6.194-6.215zm-634.556 6.659a6.19 6.19 0 0 1 6.194 6.194c0 3.423-2.77 6.215-6.194 6.215-3.419 0-6.193-2.792-6.193-6.215a6.192 6.192 0 0 1 6.193-6.194zm345.293-.572l21.497 16.408.051 12.435-25.71-24.728zm-7.363 6.573l26.879 26.564-28.181 28.109-27.789-26.337zm202.354.927l-25.911 10.624c9.912 89.812 35.63 157.128 70.304 211.702l.79-125.971c-17.903-28.331-31.456-62.462-45.183-96.355zm108.926 1.857v14.124l-32.253 29.582V538.13zm-311.297 7.768l-17.122 16.716 17.237 16.678 16.601-16.678zm-322.345-1.848v15.026l-32.023 30.922v-15.974zm360.553 8.418l.265 143.746-7.125 3.367.5-150.169zm-38.533 2.177l7.773 7.807-8.14 8.179-7.649-7.812zm311.622 1.498v16.293l-32.253 30.12-.534-15.538zm-356.878 61.093c33.287 28.804 58.865 72.523 86.944 96.961 11.358 9.839 39.126 25.206 54.113 29.932 17.036 5.37 30.294 7.568 47.399 7.871 13.501.239 13.561.32 13.561.32l5.716 10.16-9.455-.128-.615 35.873c10.006.487 19.811-.068 29.479-1.268l3.496 6.535c-68.844 9.332-136.152-16.758-176.618-50.096-18.466-15.175-33.462-33.705-51.719-60.678-35.148-54.814-97.043-81.279-154.694-81.898l-4.773-7.423 9.63.32s.978-6.894 1.101-18.611c.141-13.195.065-15.512-.973-15.892-6.979-.811-28.027-.376-27.413.516l-4.332-7.747c68.72-7.086 136.348 16.835 179.153 55.253zM166.61 533.502v14.736l-32.023 30.204v-14.756zm351.977 1.251l-.845 13.173-15.264 15.098 16.242 15.768-.389 11.005-28.638-26.559zm-209.162 4.687c-1.477 0-2.365.124-2.531.406-.384.636-.171 6.296-1.417 26.772-.457 7.505-.974 7.534 5.314 8.294 5.285.18 17.105 3.206 24.967 4.132 6.629.88 5.246-1.135 7.108-6.433 2.036-5.792 3.141-10.927 5.673-19.196 2.313-7.572 1.25-7.815-13.677-10.607-10.313-1.925-21.019-3.368-25.437-3.368zm148.941-1.255l25.927 25.864-25.517 25.914-.453-12.519c4.926-4.38 10.787-9.366 15.115-14.309L458.4 547.781zm-129.971 8.384l2.783 4.576 6.676 1.101-1.165 4.653 3.393 4.798-4.174 3.137.145 5.793-5.229-.184-4.542 3.248-3.594-4.563-5.238-.17.282-6.493-3.389-2.869 4.051-3.632-.525-5.754 6.449 1.08zm-42.089 7.798l4.12 2.698-4.184 2.89-.187 4.427-2.566 2.181-9.404-18.402 6.122 2.48 4.669-3.103zm75.452-4.255c-3.291.051-3.718 6.134-7.278 17.638-4.972 16.045-5.331 14.56 4.209 17.906 4.243 1.49 12.362 4.231 16.656 6.25 10.471 4.921 10.523 4.9 14.428-1.78 1.738-2.963 5.025-10.241 7.33-14.014 5.741-9.421 5.895-8.964-4.653-14.048-6.211-2.988-9.967-4.209-23.025-9.506-3.624-1.469-5.946-2.476-7.667-2.446zm10.446 10.641l4.571 2.869 5.136-2.143 1.028 5.528 5.622 2.177-1.596 5.438 2.471 4.072-4.785.931-3.479 7.53-5.25-3.684-5.575 2.01-1.55-4.144-5.707-2.754 2.075-4.567-2.852-6.16 6.536-.499zm114.919 5.652l28.609 28.032-26.047 26.107-28.596-28.126zm298.454 5.105a6.184 6.184 0 0 1 6.189 6.194 6.184 6.184 0 0 1-6.189 6.194 6.191 6.191 0 0 1-6.198-6.194 6.19 6.19 0 0 1 6.198-6.194zm-374.849 1.362c-1.66.025-2.608 1.554-4.047 4.495-.606 1.238-4.136 7.837-7.401 12.946-7.355 11.517-7.364 10.932-.017 15.44 3.107 1.912 10.274 7.816 16.442 13.382 5.699 5.152 5.076 3.932 17.361-8.345 8.012-8.012 12.951-10.262 9.83-14.483-7.598-6.51-13.821-11.261-22.051-17.485-5.439-4.055-8.239-5.976-10.117-5.95zm77.736 3.133l-16.878 16.532 19.021 17.229 15.768-16.196zm-289.02-5.613l.18 129.322c18.555 31.724 37.606 63.739 47.514 99.442l27.221-13.34c-13.02-105.648-43.306-164.235-74.915-215.424zm-48.461 8.123a6.188 6.188 0 0 1 6.189 6.189 6.189 6.189 0 0 1-6.189 6.194 6.184 6.184 0 0 1-6.19-6.194 6.183 6.183 0 0 1 6.19-6.189zm337.686 6.898l8.136 7.47-7.487 8.136-8.218-8.499zm304.493 1.217c3.423 0 6.215 2.77 6.215 6.193 0 3.424-2.792 6.19-6.215 6.19a6.19 6.19 0 0 1-6.194-6.19 6.193 6.193 0 0 1 6.194-6.193zm-16.631.627c3.42 0 6.207 2.77 6.207 6.194 0 3.423-2.787 6.189-6.207 6.189a6.184 6.184 0 0 1-6.193-6.189 6.187 6.187 0 0 1 6.193-6.194zm-361.978-.405l4.708 3.487 5.524-2.373.392 6.505 5.033 2.476-3.167 4.61 1.912 6.066-5.442.175-4.235 5.549-3.795-3.646-7.41.5-1.178-6.322-3.206-2.51 2.493-4.183-1.823-5.566 6.339-.436zm-272.675 6.902a6.189 6.189 0 0 1 6.189 6.194 6.188 6.188 0 0 1-6.189 6.189 6.186 6.186 0 0 1-6.194-6.189 6.187 6.187 0 0 1 6.194-6.194zm17.825.179c3.424 0 6.194 2.792 6.194 6.215a6.19 6.19 0 0 1-6.194 6.194 6.186 6.186 0 0 1-6.189-6.194c0-3.423 2.766-6.215 6.189-6.215zm358.692 14.782l-14.778 13.792 14.565 15.175-.44 11.637-25.833-25.762 26.247-25.773zm-146.063-2.996l-55.441 36.778-3.372-9.203 49.426-32.369zm412.434-3.001c3.427 0 6.193 2.792 6.193 6.215a6.187 6.187 0 0 1-6.193 6.19 6.193 6.193 0 0 1-6.198-6.19c0-3.423 2.774-6.215 6.198-6.215zm-332.393 3.739c-2.566.18-5.191 3.215-10.164 8.499-4.875 5.191-10.633 11.282-11.862 12.149-3.855 2.71-3.667 3.368 3.03 10.889 2.041 2.284 5.878 6.949 8.542 10.381 2.663 3.428 6.902 7.726 7.743 8.61 2.723 2.851 4.217 2.258 16.716-6.719 15.188-10.898 15.115-9.284 1.161-27.302-8.038-10.368-11.871-16.737-15.166-16.507zm-301.574 3.808a6.193 6.193 0 1 1 0 12.387c-3.423 0-6.215-2.77-6.215-6.193 0-3.424 2.792-6.194 6.215-6.194zm325.179 2.25l10.019 10.744-.897 1.071zm323.899 2.39v18.624l-30.867 28.51v-17.036zm-345.639 5.442l3.752 5.165 6.36-.409-.939 6.078 3.381 2.472-3.295 4.601-.265 5.81-5.255-1.247-4.302 5.174-4.231-4.96-4.985.58.166-6.04-5.088-2.885 3.594-3.932.107-6.765 7.41-.274zm152.688.389l3.087 9.391-77.164 50.207-6.74-7.743zm-202.003 6.288l6.142 4.622-80.988 52.078-2.442-6.788zm-236.883-1.998v15.486l-34.166 32.92v-15.99zm320.714 3.714l.982-.812 26.482 25.429-4.998 5.318zm-73.147 7.465l.73 150.187-7.056-4.883.529-142.495zm4.35 3.466l5.754 5.059-5.507 5.382zm379.92-1.28v15.23L769.01 682.93v-15.927zm-631.837 7.316v14.313l-34.166 32.655v-14.462zm318.422 1.947c-.888-.013-1.84.559-3.24 1.66-1.268.999-4.375 3.159-6.898 4.798-9.297 6.04-17.177 11.7-17.527 12.537-.721 1.729 8.61 13.899 21.556 28.489 5.093 5.737 4.948 6.847 10.057 1.741 4.06-4.61 18.944-17.236 18.509-20.613-.82-3.867-5.929-8.259-18.632-25.432-1.691-2.164-2.694-3.159-3.825-3.18zm-57.379 1.571l20.314 29.065-2.706 2.702-24.924-24.588zm-39.69 3.427l.039 140.126-38.132 27.085c.7.367-4.682-84.19-19.26-129.284zm94.819 4.939l3.74 6.971 5.651-.952-.742 6.407 4.785 3.756-4.709 6.514.624 4.64-5.545-1.259-5.059 5.225-3.466-6.646-7.282.115 1.016-6.386-5.084-4.273 5.549-3.278.773-5.827 4.776.414zm33.095 1.084l.623 5.729-3.393-2.958zm-97.483 10.177l-.055-8.192 24.314 23.461-24.831 23.268.175-11.052 14.13-13.463zm200.911-4.534l3.454 10.446-49.947 30.751-10.07-5.229zm164.539 17.267c3.419 0 6.21 2.77 6.21 6.194 0 3.419-2.791 6.211-6.21 6.211-3.428 0-6.194-2.792-6.194-6.211a6.187 6.187 0 0 1 6.194-6.194zm-317.872 20.156l-17.552-17.565 2.203-2.39zm45.201-15.789c-5.942 5.084-18.637 19.746-18.611 22.171.021 2.412 17.569 17.582 28.126 24.318 3.316 2.113 4.631 2.182 5.912.265 18.235-27.251 19.016-26.333 11.794-31.648-7.338-5.613-15.918-13.962-21.779-16.835-2.467-1.212-2.894-.461-5.442 1.729zm-65.762 1.327l28.928 27.738-26.828 25.868-27.844-29.368zm-295.355 2.096c3.428 0 6.194 2.771 6.194 6.194s-2.766 6.194-6.194 6.194c-3.419 0-6.189-2.771-6.189-6.194s2.77-6.194 6.189-6.194zm365.475 5.575l4.871 4.333 5.805-1.516 1.302 5.733 5.6 2.062-3.005 5.831.414 7.355-5.634-1.055-3.91 6.032-5.725-5.763-6.56.551.362-6.429-5.796-2.804 3.679-4.226-2.301-5.784 6.945 1.093zm276.547 2.583a6.19 6.19 0 0 1 6.194 6.193 6.19 6.19 0 0 1-6.194 6.19c-3.424 0-6.215-2.771-6.215-6.19 0-3.423 2.791-6.193 6.215-6.193zM431.64 712.148l17.13 17.527 15.755-15.111-16.698-17.642zm344.785-14.372a6.187 6.187 0 0 1 6.194 6.189c0 3.424-2.767 6.215-6.194 6.215-3.419 0-6.19-2.791-6.19-6.215a6.189 6.189 0 0 1 6.19-6.189zm-633.48 6.454c3.428 0 6.198 2.792 6.198 6.215a6.19 6.19 0 0 1-6.198 6.19 6.19 6.19 0 0 1-6.19-6.19c0-3.423 2.771-6.215 6.19-6.215zm18.154.06c3.424 0 6.198 2.791 6.198 6.215a6.194 6.194 0 0 1-6.198 6.194 6.193 6.193 0 0 1-6.193-6.194c0-3.424 2.774-6.215 6.193-6.215zm286.796 1.383l7.79 8.033-7.205 7.607-8.055-8.294zm105.827 5.511c-3.991 2.86-14.833 23.387-16.69 27.899.021 1.089 5.233 4.401 11.76 7.449 5.562 2.6 23.618 9.843 25.283 10.245 3.629.879 4.256-.495 4.858-2.86.324-1.251 1.754-6.023 3.355-11.21 5.596-18.167 7.269-17.309-1.05-20.071-2.869-.952-11.875-3.987-17.548-6.603-5.622-2.591-8.162-4.888-9.968-4.849zm231.044 3.286c3.419 0 6.21 2.771 6.21 6.194a6.221 6.221 0 0 1-6.21 6.211c-3.424 0-6.198-2.787-6.198-6.211a6.194 6.194 0 0 1 6.198-6.194zm-295.858 8.504l.973 121.809-9.532-7.457-.269-122.215zm-42.631 20.754l-26.32 26.785-.162-13.647 14.735-13.339-15.004-15.692.311-10.543c9.596 7.859 17.796 17.518 26.44 26.436zm-294.914-23.367a6.19 6.19 0 0 1 6.198 6.19c0 3.423-2.771 6.215-6.198 6.215-3.42 0-6.211-2.792-6.211-6.215 0-3.42 2.791-6.19 6.211-6.19zm406.133-.265l5.306 4.427 4.448-2.672 2.557 4.559 6.385.888-2.86 6.962 3.748 5.374-6.228 1.152-1.549 7.424-6.1-3.629-4.636 2.007-3.376-6.288-7.223-.29 3.945-6.834-3.714-5.4 5.237-.342zm-81.215.483l-.051 10.744-11.453 11.606 11.496 12.507-.056 12.495-23.802-24.229zm122.087 7.056c-2.399.072-2.416 2.604-4.256 10.842-.401 1.789-1.669 6.578-2.817 10.646-3.466 12.332-3.906 12.563 6.8 14.688 6.189.922 33 7.167 33.551 2.895.675-7.261 1.11-24.353 1.208-30.163.231-1.946-.23-3.782-2.173-4.012-12.225-1.46-25.821-4.67-32.313-4.896zm-104.445.521c15.222 10.394 29.962 20.988 47.463 30.473l.44 125.271-48.014-35.754zm305.569.358v15.359l-31.997 30.559V759.76zm-187.482 5.332l2.775 5.942 5.827-1.943-.03 7.099 5.19 3.278-6.262 2.89-.555 8.636-6.347-1.955-5.225 3.235-4.631-4.857-5.669-.107 2.079-7.679-3.658-3.509 5.318-2.608.432-6.856 5.685 3.402zm-443.296-1.14v14.804l-34.84 32.065v-12.942zm486.922 9.276l7.816 13.215-2.826 5.345-5.238-2.557-5.758 2.125.883-7.064-4.443-3.534 4.495-4.133-.201-5.186zm-206.362 4.362l26.717 27.682-27.213 28.1-26.717-28.074zm350.218 17.331l-31.997 29.722v-14.458l31.997-30.345zm-630.778-12.093v14.445l-34.84 32.642v-13.382zm280.628 5.165l-17.352 17.168 17.207 17.267 17.382-16.844zm.23 9.839L457 774.21l-7.095 7.376-7.662-7.449zm-29.79 10.552l26.487 27.191-3.044 3.59-23.469-18.231zm56.853 2.203l.709 12.272-14.449 12.332 13.198 13.847.363 12.751-25.108-25.847zm308.617 12.455a6.188 6.188 0 0 1 6.194 6.194 6.187 6.187 0 0 1-6.194 6.194 6.194 6.194 0 1 1 0-12.388zm-633.138 7.492a6.192 6.192 0 0 1 6.194 6.189c0 3.424-2.775 6.215-6.194 6.215-3.424 0-6.19-2.791-6.19-6.215a6.185 6.185 0 0 1 6.19-6.189zm126.808 3.795L259.38 832.31l15.397 10.317-14.582 19.602 15.171 18.252-15.269 13.101 15.499 26.533c-6.159-1.216-12.43-5.327-18.103-8.178l-11.687-22.231 13.442-11.564-13.639-15.828 14.309-16.951-14.347-10.065 15.644-24.062zm513.732 3.893a6.19 6.19 0 0 1 6.198 6.193 6.19 6.19 0 0 1-6.198 6.194 6.186 6.186 0 0 1-6.189-6.194 6.186 6.186 0 0 1 6.189-6.193zm-384.351-.483l134.88 103.967-.55 13.792-134.906-103.681-57.289 40.445.512-14.722zm367.84 1.315a6.187 6.187 0 0 1 6.194 6.19 6.19 6.19 0 0 1-6.194 6.193 6.187 6.187 0 0 1-6.194-6.193 6.184 6.184 0 0 1 6.194-6.19zM462.19 821.079l-1.421.269-14.718-10.744 3.21-3.611s9.651 10.654 12.929 14.086zm-300.903-5.989c3.419 0 6.211 2.792 6.211 6.215 0 3.424-2.792 6.194-6.211 6.194a6.19 6.19 0 0 1-6.198-6.194c0-3.423 2.77-6.215 6.198-6.215zm-16.703.081c3.428 0 6.215 2.771 6.215 6.194 0 3.424-2.787 6.194-6.215 6.194a6.189 6.189 0 0 1-6.189-6.194 6.19 6.19 0 0 1 6.189-6.194zm640.668 8.179c3.428 0 6.194 2.787 6.194 6.211a6.188 6.188 0 0 1-6.194 6.194 6.195 6.195 0 0 1-6.198-6.194c0-3.424 2.775-6.211 6.198-6.211zm-633.194 6.86c3.42 0 6.19 2.791 6.19 6.211a6.189 6.189 0 0 1-6.19 6.193 6.191 6.191 0 0 1-6.198-6.193c0-3.42 2.771-6.211 6.198-6.211zm647.434 11.538v13.676l-30.247 29.317v-13.203zm-408.289 4.106c4.504-.042 10.527.188 18.641.465 6.941.24 14.62.389 17.058.325 9.617-.26 12.754 3.009 12.929 13.395.158 9.237.12 9.207 12.209 9.715 14.564.611 18.419 4.35 18.611 18.112.081 5.357 4.414 7.461 12.895 6.253 13.374-1.899 15.978-.064 17.523 12.367 1.298 10.372.606 9.839 12.857 9.753 13.173-.089 16.118 2.118 16.268 12.264.089 5.891 1.528 7.658 6.616 8.115 5.447.491 7.795 3.282 5.105 6.053-.49.503-3.009.811-6.979.871-8.4.119-11.175-2.519-12.733-12.145-1.089-6.68-1.767-7.03-12.934-6.718-14.24.396-15.354-.466-16.895-12.892-1.323-10.671-3.116-11.764-15.363-9.45-8.904 1.681-13.617-2.241-14.778-12.264-1.293-11.244-1.793-11.658-14.428-12.102-12.652-.448-16.178-2.672-16.289-10.283-.166-11.785-1.66-12.853-17.224-12.383-7.551.226-15.286.094-19.733-.367-9.421-.973-9.379-1.02-10.318 8.038-1.408 13.531-3.393 14.778-21.292 13.454-7.474-.55-8.003-.2-8.515 5.485-.641 7.125-3.279 11.513-5.302 8.824-1.059-1.4-1.072-1.533 0-11.961 1.182-11.666 1.319-11.751 16.532-10.582 10.305.79 9.805 1.165 10.907-8.196 1.34-11.393 1.131-14.018 14.632-14.146zm-221.985-1.067v15.009l-35.344 32.821v-14.548zm109.823 17.642l7.692 10.505-2.501 19.542-6.527 4.918 4.623 9.288-1.477 11.414-1.835 1.046-12.832-24.912 15.188-13.36-15.568-18.983 14.706-19.819-15.265-10.727 18.342-26.999c3.172-3.859 3.36 11.461 3.36 11.461l-7.598 11.504 8.498 7.334h.017l.03 18.197zm9.707-8.849l.82-24.501-6.625-5.131 5.118-8.499-.35-21.702-1.541-1.058c-12.746-155.365-88.805-247.17-100.71-267.993 0 0-2.642-2.121-2.155-7.461.205-2.318.311-16.012.217-30.44-.478-73.642.145-124.097.145-124.097l-55.914-59.594.324 21.804 2.745 1.98-.013 99.284-2.326.133s-.717 26.691-.53 45.029l3.33.094-.201 68.225-2.838.338.162 44.201 3.082-.008s.726 46.348-.38 68.887l-2.292.136.153 43.937 2.604.201.171 62.842-3.206.483.867 41.486 2.616.146c.94 25.633.491 69.941.491 69.941l-2.983.136.73 41.188 2.142.141-.619 72.306-1.959.235.751 42.701 2.105.2-.354 35.51-1.452.25-.341 13.28 1.545 3.52.098 47.32-1.178.52-.342 23.77 86.713-87.68-31.921-.96.022-28.33c.013-46.759.632-84.497-.773-130.108-.414-.405-3.581-.909-7.039-1.114-16.43-.96-20.89-2.292-20.95-6.232-.064-4.879 7.385-10.919 13.561-11.009 1.4-.021 3.744-1.408 3.744-1.408l-1.989-518.829-38.798-40.629.167-12.904 47.808 50.596 1.793 518.568 1.814-.858.137-174.146c24.497 36.641 38.238 72.955 51.863 109.263 0 0 4.828-1.66 5.02-1.758.039-.043-1.72-.615-1.72-.615-13.898-46.408-31.494-80.054-54.31-115.176l.329-168.772c58.42 82.516 86.666 156.731 98.4 263.694l-29.564 14.765-2.869 3.833-22.337 11.162-2.135-3.564-13.544 9.378c10.458 18.249 10.078 44.471 1.55 58.365l3.671 2.279c.251 1.008 14.026-28.399-1.388-58.305l10.091-6.215c14.552 30.081 7.799 62.48.939 70.829 0 0 10.535 6.711 18.108 10.817 8.226 4.469 15.538 8.554 25.398 11.735 6.074 2.471 9.942-.436 9.916-.5l2.954-16.788-4.691-6.399 5.468-4.405 2.484-25.71-5.865-5.933zm510.744 6.86v16.562l-30.247 28.664v-16.297zm-630.274 17.74l-35.344 32.442v-13.493l35.344-33.184zm618.25 22.073c3.427 0 6.215 2.788 6.215 6.211 0 3.424-2.788 6.194-6.215 6.194a6.19 6.19 0 0 1-6.19-6.194c0-3.423 2.771-6.211 6.19-6.211zM183.33 910.285l.039 152.845h-9.332l.436-154.711zm-31.216-1.392a6.194 6.194 0 1 1 0 12.388 6.187 6.187 0 0 1-6.19-6.194 6.187 6.187 0 0 1 6.19-6.194zm626.539 5.908a6.193 6.193 0 0 1 6.194 6.194c0 3.423-2.775 6.215-6.194 6.215-3.423 0-6.215-2.792-6.215-6.215 0-3.424 2.792-6.194 6.215-6.194zm16.695.265a6.187 6.187 0 0 1 6.193 6.193 6.187 6.187 0 0 1-6.193 6.194c-3.424 0-6.211-2.77-6.211-6.194 0-3.423 2.787-6.193 6.211-6.193zm-633.557 9.309c3.419 0 6.211 2.792 6.211 6.211 0 3.424-2.792 6.194-6.211 6.194a6.19 6.19 0 0 1-6.198-6.194c0-3.419 2.77-6.211 6.198-6.211zm319.109.184c32.288 3.995 23.733 37.867 10.121 44.906-18.535 8.631-33.377-8.751-21.54-26.367 8.683-12.926 25.206-4.38 18.825 9.788-3.599 7.978-11.047 7.043-10.983-1.021 2.663-7.67.222-4.938-1.857-2.232-6.535 8.499 6.642 17.514 13.416 9.126 4.158-5.148 5.033-11.26 3.607-16.144-2.429-8.341-12.059-13.22-22.948-5.502-13.019 15.61-19.973 35.809-23.819 58.399-8.187 48.078-8.597 98.668-15.623 111.498l-7.649-.18c11.119-55.03 11.175-102.13 23.042-145.51 5.873-21.505 20.86-36.808 35.408-36.761zm-336.051.26c3.427 0 6.193 2.792 6.193 6.215a6.187 6.187 0 0 1-6.193 6.194 6.19 6.19 0 0 1-6.19-6.194c0-3.423 2.77-6.215 6.19-6.215zm131.016.85c-8.516.171-17.155 7.222-16.485 16.233.802 10.937 7.282 15.811 17.945 14.714 5.703-.589 5.549-.683 9.387 6.19 3.462 6.185 12.571 32.586 12.631 36.59-4.38-5.809-14.603-16.6-24.041-16.148-10.134.734-18.663 10.339-11 23.942 4.072 6.67 11.311 7.97 18.683 5.77 11.022 17.15 13.101 34.33 16.61 54.26 0 0 4.354-42.66 5.673-59.68 2.505-26.089 6.07-42.98 16.156-63.661-8.413-4.858-17.424-8.67-26.486-12.162-3.599-1.387-7.381-1.408-10.949-3.739-2.468-1.656-5.285-2.365-8.124-2.309zm512.281 3.479a6.187 6.187 0 0 1 6.194 6.194c0 3.423-2.766 6.21-6.194 6.21-3.423 0-6.189-2.787-6.189-6.21a6.186 6.186 0 0 1 6.189-6.194zm-494.835 13.685c6.382 10.368 12.605 25.334 13.156 34.755.213 6.236-1.02 13.894-2.075 21.057-.525 3.535-1.865.085-4.281-7.564-10.035-31.737-12.686-37.811-19.665-36.228-3.97.901-8.102 1.055-10.809-.435-8.84-4.879-9.651-21.228 3.257-24.357 10.207-2.219 16.772 6.843 20.417 12.772zm-.23-7.893c12.865 5.071 21.087 12.712 18.739 25.138-1.033 4.679-1.72 8.533-2.98 8.034-1.442-.572-3.436-6.186-7.431-15.833-.909-3.124-10.078-17.275-8.328-17.339zm212.94.542c.678-.098 1.741.542 3.188 1.9 10.151 9.988 4.645 32.501-8.861 38.985-5.567 3.825-15.803 3.197-15.854-.503-.021-1.439.303-1.823 1.729-1.845 11.363.086 23.443-15.708 20.092-32.526-.405-2.532-1.178-5.887-.294-6.011zm-353.638 5.468a6.19 6.19 0 0 1 6.189 6.194c0 3.424-2.77 6.211-6.189 6.211-3.428 0-6.22-2.787-6.22-6.211 0-3.423 2.792-6.194 6.22-6.194zm364.296 1.9c.713-.107 3.172.956 4.803 2.92 9.561 11.521 1.797 31.135-13.225 37.862-5.737 3.104-10.569.961-9.348-2.232 10.232-4.247 19.888-15.231 18.876-30.256-.388-5.268-2.151-8.136-1.106-8.294zm-202.571 2.096l3.47 1.648-1.43 3.009c-.674-1.801-.661-2.501-2.04-4.657zm213.435 1.246c.76-.017 2.467-.273 4.081 1.294 6.181 6.001 7.158 22.837 1.216 31.161-2.783 3.901-11.422 10.991-14.001 11.704-3.005.367-5.088.815-10.082-1.46-1.678-.051.751-1.635 3.901-3.453 11.188-6.458 18.612-17.984 16.669-28.8-1.208-6.694-3.24-10.412-1.784-10.446zm11.333 5.43c2.967.252 5.259 2.86 6.672 5.067 7.346 10.548 1.242 32.74-13.792 37.337-10.005 3.065-13.736.171-5.634-4.563 11.64-6.791 17.684-20.066 14.317-30.61-1.614-5.037-3.142-7.124-1.563-7.231zm12.127 7.722c3.501.051 6.207 2.732 7.441 5.498 2.898 6.813 2.445 16.357-1.328 23.072-3.765 6.697-10.97 12.266-18.97 13.086-2.091.19-3.906-.12-5.485-.8-3.517-1.516-2.305-1.743 4.311-5.2 10.544-5.511 16.768-16.972 15.175-29.629-.602-4.751-2.514-6.014-1.144-6.027zm-381.785-2.305v16.357l-34.405 32.474v-15.967zm292.336 2.117c.654.679 4.547 9.959 5.033 11.871-8.063 11.589-10.338 30.613-11.585 45.023-4.546 40.85-9.276 90.16-11.342 90.62l-8.955.2c3.41 2.27 7.79-67.73 14.731-112.084.538-3.479 7.974-37.7 12.118-35.63zm104.091 7.244c11.815 7.995 5.502 32.949-10.932 39.13-5.963 2.29-8.153 2.58-10.855-.04-1.704-1.66-3.33-2.21 1.011-3.75 12.149-3.167 20.729-14.513 18.676-27.686-.244-3.206-3.257-11.671 2.1-7.654zm81.876 2.121c13.988 16.618 23.87 41.709 27.217 59.719 1.596 9 2.424 17.46 1.699 19.46-1.298 3.56-3.304 2.85-4.521-1.37-11.423-54.698-71.269-56.529-90.076-10.02-17.186 44.78 31.003 85.26 67.026 56.01 5.041-4.1 6.774-5.5 8.2-3.84.939 1.1-1.4 4.29-5.865 8.02-41.06 38.01-4.282 82.2 34.507 79.99 45.969-2.62 61.66-57.4 23.388-84.11-2.536-1.97-4.128-2.77-3.983-4.16.291-2.92 2.361-2.5 7.018 1.41 36.958 32.98 82.674-2.72 76.079-41.26-11.209-65.45-83.472-48.939-94.515-3.14-1.789 5.64-4.781 6.46-4.858 1.12-.051-3.68.388-7.98 1.242-12.66 2.817-25.64 28.275-65.169 28.275-65.169zm-177.472 4.79l5.378 3.453c-5.796 17.284-7.939 37.666-10.313 57.386-2.868 23.87-5.391 48.43-8.87 71.86l-8.225.3c4.294-14.48 6.275-54.93 10.522-88.81 2.484-17.14 5.182-40.736 11.508-44.189zm9.327 5.643l6.889 3.995c-2.433 9.639-5.314 20.211-6.735 30.321-3.163 22.49-4.41 49.77-11.688 91.74l-7.453.63c1.878-13.48 5.426-43.5 8.456-71.13 3.518-32.07 9.05-56.333 10.531-55.556zm-310.158-1.08v16.059l-34.405 31.677v-14.79zm321.816 6.155s5.933 3.338 6.684 3.731c-4.478 17.72-6.667 34.19-8.874 50.25-2.971 21.66-5.182 42.75-9.285 66.56l-7.939.5c3.948-18.26 8.473-61.17 12.029-91.42 2.066-17.562 6.343-29.962 7.385-29.621zM301.626 1020.1c.099 12.1-2.548 30.86-2.548 30.86-1.05.6-4.294-27.48-15.64-40.18-13.813 6.58-25.736-8.85-16.315-19.46 18.394-15.815 34.499 17.96 34.503 28.78zm199.767-31.239l9.618 4.436c-1.183-.21-3.449 6.415-5.661 16.753-6.74 31.48-13.424 93.53-14.513 93.5l-7.419.61c2.404-16.66 5.703-43 9.157-66.28 3.91-26.39 7.563-48.886 8.818-49.019zm13.37 6.036l7.303 4.388c-.636-.465-3.278 7.355-4.559 12.795-6.577 31.41-9.553 58.94-13.621 89.4l-7.965 1.03c-.593.89 6.881-59.94 13.045-90.67 2.104-10.49 5.208-17.301 5.797-16.943zm11.388 5.463l7.829 3.87c-8.516 24.1-9.305 47.14-17.463 95.51l-8.277 1.5c3.334-30.97 8.064-64.22 14.842-94.53.939-4.07 2.98-6.26 3.069-6.35zm329.982 1.17c6.595 9.06 10.389 20.96 11.568 31.85.367 3.73.068 6.23-1.136 6.24-1.016.02-1.519-.77-2.407-3.83-4.495-23.23-34.008-24.32-41.141-3.15-7.995 20.62 12.238 37.91 28.267 28.93 5.237-3.29 17.206-10.54 5.485.86-4.41 4.51-8.491 9.35-8.866 14.33-1.204 15.95 9.284 26.24 21.552 27.24 13.741 1.13 23.255-8.63 23.708-21.78.205-7.05-3.133-15.06-9.634-21.26-6.173-5.87-6.583-8.12-.35-4.05 6.864 4.48 14.312 7.98 20.139 6.81 27.784-5.6 21.915-42.56-2.147-44.91-8.845-.73-17.514 4.52-21.855 15.47-4.201 9.87-5.174 6.49-3.514-.64 2.912-11.64 6.775-22.61 14.091-32.11zm-318.785 4.48l8.81 3.54-18.444 88.8-7.44 1.01c4.627-25.6 7.03-55.21 13.275-78.54 1.319-4.94 2.057-10.5 3.799-14.81zm-383.651 14.07c3.42 0 6.211 2.77 6.211 6.19 0 3.43-2.791 6.19-6.211 6.19a6.184 6.184 0 0 1-6.198-6.19 6.19 6.19 0 0 1 6.198-6.19zm8.094 14.53c3.419 0 6.211 2.79 6.211 6.21s-2.792 6.19-6.211 6.19c-3.428 0-6.198-2.77-6.198-6.19s2.77-6.21 6.198-6.21zm-16.131.39c3.423 0 6.215 2.77 6.215 6.19s-2.792 6.21-6.215 6.21c-3.419 0-6.194-2.79-6.194-6.21s2.775-6.19 6.194-6.19zm7.73 14.28c3.419 0 6.194 2.79 6.194 6.21 0 3.43-2.775 6.2-6.194 6.2-3.423 0-6.215-2.77-6.215-6.2 0-3.42 2.792-6.21 6.215-6.21zm56.047 20.69l-74.317 75.29-.23-15.06 50.942-50.01-51.33-.77.115-10.19zm-34.068 14.36l-39.813 38-.337-38.64zm42.537 2.78s-.213 1.39 3.522 7.93c10.859 18.88 13.373 36.33 22.978 56.56 4.78 11.07 15.542 22.26 17.953 22.89l-11.965 21.89 337.503-.71-54.032-94.3c-85.748 15.87-162.788 13.09-235.201.4-4.153 5.58-8.704 16.92-13.066 25.13-10.813-29.1-45.401-47.88-67.692-39.79zm12.285 2.52c17.834-.25 32.698 8.23 45.901 26.21 4.196 5.73 5.83 8.31 5.818 10.73-.449 2.78-5.981 11.67-5.981 11.67s-3.205-8.83-3.961-13.1c-4.798 17.66-6.71-2.81-8.554-8.2-5.848 17.05-9.003-6.4-8.712-12.72-7.957 10.94-7.445-7.03-11.325-10.36-.098 9.47-5.673 2.99-12.896.97 3.778 5.29 11.133 8.86 1.738 10.02 9.369 6.47 14.065 5.48 4.973 9.06 7.004 3.86 18.538 8.51 5.788 11.06 7.79 4.91 20.331 6.98 6.851 11.67 10.181 6.23 23.738 5.78 4.67 10.79 6.911 4.03 19.085 5.55 5.459 9.06 2.105.94 5.75 3.39 5.75 3.39l-5.886 9.29s-2.117-.16-3.569-1.68c-6.249-6.53-12.327-18.54-17.774-35.37-4.008-12.39-8.777-25.48-14.035-36.33-2.843-5.75-2.579-6.04 5.745-6.16zm301.416 21.25l46.639 79.81-11.069.16-41.179-68.32-55.561 6.27 18.296 61.09-16.507.45-16.396-60.09c-31.016 1.24-60.61 1.59-86.405-.48l-8.742 60.96-15.756-.52 9.985-60.34-52.137-6.67-28.28 67.67-16.289.31c10.509-17.73 36.766-74.99 41.666-80.64 113.571 18.18 172.542 8.39 231.735.34zm-10.902 18.5l35.314 61.4-56.73.26-19.059-56.86zm-212.257 1.8c11.196 3.25 23.234 3.97 35.369 4.42l-10.313 54.92-50.267-.1zm141.5 6.46l13.335 53.35-94.626.48 7.807-53.18c24.839 1.49 49.102.12 73.484-.65z"/></g><path d="M872.258 1120.97c-14.364.05-29.537 7.77-33.84 24.33-1.513 5.26-1.519 5.27-1.572 52.14-.039 38.75-.365 48.09-.365 48.09h-13.242V1261h43.111v-15.47h-14.305s-.202-48.2-.202-78.59c-.593-7.88.124-14.82 2.223-19.64 7.622-17.57 34.46-13.73 37.694 1.26 1.93 8.94.847 11.28.978 18.99h14.937s.392-13.56-1.062-21.48c-1.963-17.66-17.201-25.52-32.967-25.08zM67.928 39.015v14.507h14.345s.339 13.987.469 43.686c.124 28.821.717 43.122-1.141 51.326-5.047 18.929-32.96 19.02-38.508 5.42-3.234-7.92-2.361-14.066-2.53-22.026h-15.42s.078 4.007.097 8.904c.085 21.297 7.27 31.453 24.066 35.474 17.266 4.576 37.439-2.397 44.625-16.892 4.283-8.258 3.788-8.803 3.886-58.722.071-33.318.593-47.17.593-47.17h13.204V39.015z"/></svg>