<svg clip-rule="evenodd" fill-rule="evenodd" stroke-linejoin="round" stroke-miterlimit="2" viewBox="0 0 934 1300" xmlns="http://www.w3.org/2000/svg"><g fill-rule="nonzero"><path d="M130.621 1199.7l-2.125-1095.857 679.721 1.279.85 1094.138zm243.671-913.14c-24.309-6.625-23.717 17.521-5.917 18.417 19.946 1.72 28.479-32.271 18.962-45.671 0 0-8.287 25.608-13.045 27.254zM216.558 423.068l-29.2 13.025-.116 21.792c12.183-9.683 21.695-21.492 29.316-34.817zm199.263 654.822c-5.742-2.9-12.671-9.13-11.604-10.22.525-.54 3.637.44 6.462 1.71 22.813 9.61 40.525 9 67.725-.88 2.063-.74 5.138 3.18 3.992 5.33-12.046 17.82-51.029 11.49-66.575 4.06zm-12.025-26.74c-5.238-7.86 1.708-1.9 4.041.33 16.88 15.69 39.75 21.02 59.38 6.23.916-1.02 1.037-1.96.766-2.66-.554-1.46-.566.09-8.962 3-18.846 7.06-34.725 1.26-50.213-10.59-6.371-4.92-9.337-7.33-9.337-8.62 0-1.18 1.191-1.92 3.337-1.55 1.329.22 5.034 1 7.75 1.22 4.717.38 4.354.19 9.184-2.05 10.329-4.76 19.841-6.5 30.629-4.56 2.496.44 5.637 1.26 6.066 1.12 2.417-.8-1.15-3.98-10.295-11.24-1.796-1.42-4.038-2.65-4.78-3.88-1.154-1.92.105-2.43 1.405-2.42 3.762.05 20.654 14.17 26.45 22.55 1.758 2.56 2.975 2.83 2.983 5.47-.342 2.76-.779 5.4 2.196 9.25 2.141 2.76 4.208 7.21 4.229 7.43.021.24-.425 1.63-2.383.34-.892-.16-1.33-1.12-2.959-.89-1.421.22-3.733 1.33-6.271 2.53-23.67 15.22-45.466 7.8-63.216-11.01zm51.854-1.06c.475.04-1.638-8.7-4.021-11.28-4.7-5.09-11.867-6.02-16.196-.81-2.437 2.93-5.116 11.1-5.116 11.1s3.795 1.11 4.858 1.11c.15-1.83.162-6.95 3.925-9.94 1.854-1.46 5.85-1.42 7.412-.21 3.088 1.52 4.388 7.65 4.434 10.04 1.687.52 5.575.06 4.704-.01zm-28.621-12.6c-3.337 1.48-7.675 2.48-8.667 4.72-1.316 2.94 3.317 3.83 5.73 4.83 3.337 1.61 3.408 1.01 4.491-1.55.675-1.61 1.559-3.7 2.409-5.63 2.495-4.82.008-4.15-3.963-2.37zm36.117 8.37c1.921-1.93 2.279-3.2.566-5.37-.775-.99-2.991-1.99-5.395-2.81-3.092-1.03-4.438-2.3-2.5 1.89l2.77 5.98c1.425 2.87 2.675 2.11 4.559.31zM147.325 841.472c1.175 0 12.821-3.82 16.971-5.662 4.108-1.571 4.6-1.529 2.962-3.804-.612-.85-1.108-3.254-.804-5.888l.308-3.671c-7.179-1.462-17.904 2.513-21.587 7.538-2.625 3.208-2.363 10.35 2.15 11.487zm-1.463 17.913c2.18 2.183 2.784 2.262 9.334-.171 2.291-1.533 7.087-3.45 10.45-3.671 7.883-2.096 7.891-1.266 5.654-6.316-1.025-2.325-1.367-4.25-1.046-6.396.388-2.546.692-2.896-.746-3.346-3.771-1.179-21.325 5.383-24.471 10.487-2.208 3.596-1.912 6.675.825 9.413zm412.155 155.045c-1.15 1.71-3.138 4.75-3.971 6.81-1.442 3.54-.567 4.22.008 11.17.333 4.04.417 10.3.429 13.66.021 6.45-.071 8.45 1.9 8.83 1.738.33 2.534-.97 3.367-4.33.417-1.68 1.412-3.43 1.712-4.5 1.238-7.25 3.534-19.35 8.759-24.44.725-.59 2.85-.97 6.704-1.02 4.725-.05 6.233-.19 7.696-1.29 8.262-7.22 1.75-16.57-5.621-17.22-8.538-.74-20.308 11.04-20.983 12.33zm32.795-3.03c.521 8.31-7.766 13.98-16.187 12.06-3.417-.87-4.442-.08-6.729 4.79-4.971 13.36-6.934 26.78-8.254 35.55-.571 7.89-3.463 28.43-1.367 34.98 24.012 29.67 49.292 60.31 76.975 90.85l164.625.23.992-193.817-47.813-45.221.092-71.687c-51.184 24.117-102.213 48.567-153.296 72.892 11.133 35.704-26.617 43.191-34.892 19.258-7.162 6.575-13.037 42.015-10.396 43.775 0 0 .946 1.27 2.534-1.54 2.616-4.65 6.025-8.06 9.679-10.33 10.646-6.584 23.308-3.338 24.037 8.21zm-131.033-3.62c-8.079-6.42-3.75-16.216 2.958-19.153 3.559-1.555 9.267-1.342 15.55.875 5.517 2.533 8.817 2.179 14.471 1.483 3.759-.417 3.063 7.437-.862 9.465-2.759 1.43-9.096.76-16.804-3.632-13.288-7.566-19.125 2.242-10.896 11.092 4.562 4.89-3.25.98-4.417-.13zm-273.65-117.387c7.1-4.571 4.15-12.637-2.467-13.987-8.916.187-11.183 10.421-4.804 13.958 0 1.242-3.171.229-4.883-1.054-2.654-1.992-.233-9.771-2.708-10.079-1.88.029-20.292 6.541-22.28 7.841-8.266 4.692-.508 15.288 4.292 14.075 9.971-2.516 23.525-4.754 32.85-10.754zm-41.142-15.137c.167 4.716 1.488 6.816 4.588 6.858 6.475-1.125 12.504-4.212 18.546-6.171 4.725-1.546 6.641-3.287 3.041-6.241-1.087-1.246-2.054-3.038-1.525-6.442 1.238-3.892.288-4.088-1.358-4.275-1.65-.192-5.408 1.383-15.05 5.087-5.079 1.95-6.05 2.792-7.367 5.584-.591 2.137-.958 3.45-.875 5.6zm53.671 60.896c1.113-1.309 3.588-9.534 3.588-11.567-.5-3.383-3.021-4.15-5.25-1.967-2.709 2.425-1.979 6.092-3.592 8.9-.558.979-1.154 2.329-.987 2.879.87 2.955 4.508 3.5 6.241 1.755zm21.113-44.771c82.504-87.863 133.608-209.45 44.204-377.142-10.029-4.267-13.121 12.033-14.083 12.7l-11.425 9.95c60.52 104.367 50.008 224.417-23.988 309.783l.075 5.413c.175 11.925 3.613 11.408 8.625 5.829 5.317-5.604 1.758-1.037-.412 1.267-1.871 1.983-4.846 5.929-5.638 6.958.971 7.15 5.475 20.483 2.642 25.242zm-5.479-26.4c-.846-2.371-1.746-7.796-2.209-11.967-.287-2.721-.4-5.283-.541-7.942-.88-5.279-3.03-17.4-4.784-20.07-1.883-2.88-6.496-4.984-11.637-5.313-4.404-.283-4.763-.204-5.704 1.229-1.613 2.459-.505 14.867 1.125 19.417 1.845 5.333.762 8.233-.734 13.521-.516 1.916-.708 2.05.238 2.183 4.121-.287 5.487-5.337 7.116-3.833.546.55-.883 4.691-2.804 8.879-2.029 4.417-2.629 10.504-.221 17.987 1.35 4.192.775 5.517-.037 8.046-.546 1.688-1.5 6.867-1.533 12.021 1.929 6.458.962 9.35-.175 11.483-2.455 5.484-4.35 12.909-3.03 17.08.584 1.833 2.096.266 3.205-2.871 1.733-6.188 3.758-7.567 8.837-7.567 3.704 0 4.05 1.296 5.275-.358 2.779-3.763 9.571-17.084 9.7-20.796 2.625-9.467 2.754-17.604-2.087-31.129zm39.462 62.196c2.233-.85 5.683-5.592 5.688-7.225.008-1.805-13.83-15.255-19.592-18.967-2.608-1.683-3.854-.488-8.463 5.721-4.104 5.516-4.637 5.566-3.879 6.625.917 1.279 15.017 10.446 19.696 13.046 1.617.9 4.363 1.633 6.55.8zm25.917-23.942c-2.063-1.583-18.617-19.942-23.529-20.85-1.867-.346-7.855 6.471-7.855 8.017 0 1.062 10.338 11.587 17.659 17.983 2.096 1.825 4.408 3.321 5.137 3.321 2.325-1.196 8.3-6.013 8.588-8.471zm17.596-17.317c0-1.087-1.83-3.325-6.284-7.704-11.354-11.15-17.679-16.254-19.671-16.237-2.175.72-6.108 7.337-6.341 9.641.741 1.379 19.733 18.604 22.191 20.275 3.034 2.929 9.68-3.9 10.105-5.975zm17.812-17.783c.483-1.638-.462-3.038-2.875-5.342-1.7-1.629-7.758-7.558-13.454-13.171-11.942-11.77-11.971-11.779-15.804-6.279-3.95 5.659-3.929 5.704 7.716 17.063 12.413 12.108 15.317 14.566 17.238 14.566 2.95-1.358 6.154-3.625 7.179-6.837zM181.958 857.51c-2.075-.621-3.987-.254-5.621 1.05-8.8 7.483 3.684 17.108 8.813 11.104 3.421-3.371 3.279-10.617-3.192-12.154zm151.396-7.829c0-1.254-2.562-4.063-11.437-12.538-21.963-20.962-20.971-20.166-23.409-18.862-1.521.812-4.462 6.45-4.462 8.541 0 1.571 2.104 3.742 18.379 18.942 9.542 8.913 12.367 11.163 14.017 11.163 2.595-1.288 6.8-4.075 6.912-7.246zm-150.833.787c4.308-1.875 5.116-6.541 2.675-10.229-4.692-4.133-11.217-.721-11.325 4.608.812 4.992 5.046 7.1 8.65 5.621zM351.4 832.077c0-2.505-37.604-37.663-40.279-37.663-1.817 0-3.117 1.471-4.825 5.454-1.484 3.45-1.329 5.496.533 7.288 2.721 2.616 9.963 9.296 16.858 15.533 4.075 3.692 8.759 8.1 10.409 9.792 3.866 3.971 8.129 7.046 9.758 7.046 2.325-1.363 5.567-3.2 7.546-7.45zm-170.854-4.534c.041-1.412-.321-2.854-1.334-3.925-2.575-2.75-7.379-1.304-8.583 2.338-1.096 8.562 9.571 8.937 9.917 1.587zm27.85-273.671l7.358-22.483 22.467-.579 3.15-22.35 23.125-3.329.375-23.092 22.116-3.021-1.366-24.729 20.512-4.858-1.016-22.896 18.641-5.717-.746-19.929 3.205-2.512-8.063-8.196-6.942 2.254-.129 20.483-18.616 5.992 1.962 22.662-18.817 4.292-.237 24.642-21.621 2.425-1.542 21.741-21.087 4.155-3.15 21.295-20.463 1.392-6.245 18.721-13.521.154v12.529zm244.471 402.28c-.705-1.688 1.137-1.438 4.35.591 3.362 2.121 8.254 3.896 11.733 3.9 1.45 0 6.637-.921 11.525-2.054 5.837-2.142 11.012-2.271 17.079-.958 4.504.608 9.046 1.1 10.083 1.087 3.009.425 8.121-3.296 9.488-5.633 3.704-6.342 2.821 5.175 2.842 6.492.062 5.9.804 12.687-3.421 9.529-2.5-1.288-6.871-2.442-10.359-.117-3.504 2.346-6.412 2.85-10.525.375-3.375-1.333-5.154-1.612-7.679.733-2.816 2.613-9.641 1.684-13.296.484-6.283-1.05-9.804-1.959-14.016 1.375-2.246 1.287-2.825.329-4.517-4.654-1.692-4.984-3.025-10.53-3.287-11.15zm16-4.163c-.4-.646 2.97-3.95 5.245-5.125 6.692-3.458 19.971-3.304 29.471.204 4.95 1.829 5.717 4.959.896 4.296-10.021-2.1-22.592-3.829-32.279.783-.763.405-3.146.146-3.333-.158zm8.475-15.658c-6.85-2.542-10.213-5.25-10.213-6.113 0-.929 1.467-.758 6.854.713 7.342 2.725 16.021 4.158 23.267 1.621 5.208-1.925 7.804-3.142 7.804-1.984 0 1.225-2.146 4.417-5.729 6.25-7.121 2.904-16.525 1.525-21.983-.487zm148.787-19.038l5.083-.7-1.762-21.225 18.733-5.562-1.316-21.113 19.975-6.871-1.196-23.762 20.754-4.088 2.704-20.795 19.592-1.392 4.062-22.625 21.042-.725 4.337-18.804 14.005-.088-.067-10.562-21.808.071-4.621 20.35-20.584.595-4.37 22.359-21.584-.163-2.762 24.1-20.3 3.325.016 25.95-19.575 5.079L638 882.835l-19.558 7.137 2.208 21.171zM756.942 419.21c-2.796 1.992-3.855 5.942-2.992 9.158 2.758 7.279 12.458 5.013 13.608-.287.579-2.296-.95-5.763-3.6-6.517-.462-.129-2.104.025-2.962-.858-.625-.642 3.233-2.621 5.508-1.867 2.846.938 5.163 4.692 5.171 7.942 0 1.262-.354 3.133.104 3.758 4.692-.117 10.067-2.696 15.1-4.092 8.5-2.354 11.579-7.233 9.692-12.945-1.575-4.759-6.446-6.646-12.846-4.238-8.783 3.304-19.1 4.888-26.783 9.946zM393.908 940.347c28.796-20.229 45.75-31.791 82.704-33.787-13.183-5.421-15.337-12.546-19.041-19.367-45.784 4.329-70.092 18.95-91.842 32.6 8.983 4.229 18.371 9.15 28.179 20.554zm160.504-28.058c-13.966-9.867-30.579-15.833-47.816-20.442l-13.213 13.688c-.766-.488 38.254.396 61.029 6.754zm134.067-129.85c-90.054-138.387-29.558-260.158 33.063-337.75 2.012-2.546 2.5-2.675 2.041-4.7-.591-2.671-1.333-16.121-.875-23.892-115.75 114.721-118.716 264.171-46.112 382.78 5.187-4.638 15.654-10.817 11.883-16.438zm13.508-11.842c-14.783-24.616-93.525-157.92 26.742-306.629 0 0-.412-7.583-1.308-10.433-1.621-5.104-4.125-7.163-4.125-7.163-50.513 75.821-123.925 170.7-32.238 335.475zM633.129 519.71c1.796-1.467 4.413-6.8 4.413-9.004 0-1.963-1.417-3.604-14.984-17.367-18.091-18.35-21.208-21.158-23.521-21.158-2.191 0-7.895 5.416-7.895 7.491 0 .992 5.316 6.725 17.883 19.263 23.308 23.271 22.208 22.321 24.104 20.775zm16.658-33.796c0-1.104-1.675-3.296-5.637-7.375-10.463-10.762-25.367-24.404-26.675-24.404-1.671 0-6.233 3.696-7.433 6.012-.842 1.63-.825 2.005.162 3.546 1.842 2.879 25.175 25.021 31.804 30.592 3.984 3.654 7.588-5.588 7.779-8.371zm9.009-13.729c1.85-.988 5.358-7.542 4.929-9.213-.192-.783-6.113-7.154-13.146-14.154-13.921-13.846-14.725-14.346-18.192-11.246-3.145 2.809-5.112 5.625-4.725 6.755.471 1.379 21.309 22.558 25.567 25.987 3.363 2.713 3.758 2.842 5.567 1.871zm106.2-1.025c6.541-6.279-.867-13.167-6.254-9.988-2.296 1.417-3.655 4.505-2.955 6.559 1.163 3.404 5.784 5.262 9.209 3.429zm12.954-1.6c11.067-2.908 16.371-4.85 18.692-8.3 1.604-2.392 1.783-3.858-.021-7.754-1.667-3.596-3.609-4.692-10.55-.892-4.763 2.608-15.363 3.858-19.075 6.05-1.484 1.279-.763 1.263.437 2.021 2.667 1.696 3.971 2.85 3.679 5.092-.629 4.879-.129 5.629 6.838 3.783zm-11.721-17.358c5.375-2.75 4.292-9.384-1.717-12.021-7.916-2.088-13.02 7.45-6.537 12.1 1.737 1.216 6.146 1 8.254-.079zm17.863-2.688c7.775-2.662 10.762-4.75 13.008-9.046 1.771-3.4 1.017-4.921.779-8.216-.354-4.988-2.862-4.417-10.104-1.809-3.542 1.367-20.463 6.129-20.696 7.863 8.167 4.671 6.079 7.133 6.15 13.091.425 1.355 4.258.384 10.863-1.883zm-105.95-7.946c0-2.25-21.717-23.521-24.017-23.521-3.592 0-8.725 5.575-7.958 8.634.345 1.387 20.712 21.887 23.258 23.404 3.558 2.083 8.487-5.121 8.717-8.517zm12.483-13.258c.937-.738 2.592-2.638 3.687-4.229 2.342-3.404 2.171-5.3-.625-7.096-1.025-.654-5.575-4.775-10.116-9.154-4.546-4.379-8.842-8.179-9.559-8.446-3.745-.496-10.512 5.5-9.808 8.571.4 1.604 17.046 17.996 20.758 20.446 2.405 1.583 3.559 1.562 5.663-.092zm29.408-31.683c0-.605-3.783-3.038-9.829-6.325-18.496-10.046-18.808-10.117-24.592-5.409-1.983 1.613-3.6 3.454-3.6 4.088 0 .646 4.009 4.941 9.113 9.779 10.604 10.033 13.217 12.2 14.692 12.2 3.062-2.246 13.741-11.55 14.216-14.333zm25.888-9.446c2.283-2.734 4.846-12.209 3.629-14.117-1.121-1.121-4-.95-5.388.304-1.425 1.292-4.941 13.196-4.4 14.604.546 1.438 4.175.767 6.159-.791zM543.883 790.522c1.746-.237 5.175-2.375 10.163-6.654 5.325-4.575 22.2-14.758 24.033-18.854.817-2.325.225-5.667-1.533-5.921-1.342-.191-1.625.829-12.846 8.921-7.571 5.454-20.867 15.204-22.867 17.275-.871 2.213 1.092 5 3.05 5.233zm-1.575 65.184c11.55-8.017 20.909-16.321 35.971-25.6 1.167-1.534 1.338-3.817.629-5.684-.875-2.308-2.087-1.395-6.65 1.771-11.096 7.479-22.512 16.284-32.075 22.817-3.066 2.075-5.65 3.225-5.008 4.396.867 1.55 5.6 2.016 7.133 2.3zm11.234 4.916c7.591-6.212 16.687-12.15 24.8-18.158 1.133-1.133 1.433-4.954.266-6.521-.925-1.237-.158-1.008-2.404.267-3.283 1.862-22.933 15.258-26.592 18.287-2.133 1.767-3.912 2.646-3.383 3.263 2.454 1.579 5.058 2.554 7.313 2.862zm9.545 4.813c1.571-1.05 15.08-9.683 16.163-10.833 1.246-1.313.883-7.188-.321-7.65-3.417 2.712-21.421 13.683-21.462 15.45 1.837 1.65 4.262 3.166 5.62 3.033zm14.442 1.204c2.075-1.9 2.488-2.225 2.533-4.354.08-3.858-.875-3.696-6.375.237-3.837 2.484-6.179 4.23-5.487 5.721 2.725 4.271 6.596.9 9.329-1.604zm1.492 7.879c1.075-.396 1.087-.954.933-2.3-.175-1.5-.396-1.437-2.025-1.437-4.375.162-.429 4.125 1.092 3.737zm-52.584-21.591c1.984-6.555 4.767-11.738 9.313-16.65 18.167-16.096 12.612-35.913 1.142-52.046 14.841-20.779 29.662-42.792 42.416-62.963l-.046-32.796 1.717.18c-.596 71.566 2.675 188.908 2.675 188.908l14.758 11.258-1.991.984c2.429-.38-42.963-28.8-69.984-36.875zm13.342-8.171c12.558-9.484 24.783-16.938 37.25-27.038 1.321-1.091 2.104-1.154 2.138-3.633.079-4.721-.871-4.771-5.521-1.438-2.063 1.475-9.625 6.759-16.796 11.6-7.483 5.05-14.417 9.546-15.808 11.159-7.013 8.129-9.605 11.958-8.884 13.121.75 1.216 2.175-.1 7.621-3.771zm13.7-22.984c6.458-4.25 21.904-14.975 23.308-16.295 2.45-2.3 2.884-5.971.671-6.392-1.083-.204-13.037 7.767-23.141 15.429-4.917 3.729-6.013 4.592-6.013 8.104 0 2.129 1.283 1.721 5.175-.846zm6.438-16.7c19.8-14.075 19.287-12.883 18.862-18.125-.146-1.77-.542-2.575-1.325-2.725-.612-.116-4.121 2.396-8.058 5.171-3.938 2.771-8.634 6.492-10.988 8.129-6.883 4.771-9.158 6.059-9.158 8.792 0 2.7.725 4.4 1.921 4.4.446 0 4.383-2.537 8.746-5.642zm-2.842-10.9c9.121-6.437 19.171-13.704 20.537-15.433 1.663-2.096 1.363-6.654-.758-6.654-9.15 6.117-20.167 14.15-27.904 20.5-1 .883-2.275 1.725-2.671 2.879-.075 1.492 1.792 3.458 2.542 3.517 1.508.008 3.825-1.679 8.254-4.809zm-5.938-21.795c6.963-4.717 13.296-10.321 20.213-15.08 5.196-3.554 6.662-4.654 6.354-9.125-.179-2.579-2.442-1.095-11.237 4.767-6.455 4.296-9.417 5.996-11.705 8.933-1.604 3.713-6.895 7.192-7.175 11.434-.012 1.575 1.038.829 3.55-.929zm21.38-28.35c5.35-3.542 5.85-3.621 5.27-8.33-.729-5.887-1.329-5.537-6.437 2.267-3.358 5.133-4.513 6.617-4.004 7.571.871 1.629 1.837.7 5.171-1.508zm-19.475-43.33c-.567-2.62-1.375-2.054-4.063.313-4.954 4.346-5.733 7.496-2.646 9.146 1.634.875 2.904.775 3.879-1.371 2.092-4.629 2.688-6.263 2.83-8.088zm-27.746 41.171c-.638-2.391-3.563-5.65-5.788-6.804-2.208-1.142-3.541-.925-5.658 1.754-1.938 2.467-1.038 3.938 1.883 7.629 2.138 2.705 3.009 3.563 4.692 3.563 2.042-.796 5.296-3.546 4.871-6.142zM417.917 845.102c-1.417-2.734-4.421-5.617-5.796-5.134-1.454.509-2.879 2.6-2.9 3.917.608 2.683 2.871 4.496 4.608 4.55 3.288-.467 5.279-1.038 4.088-3.333zm13.087-4.163c-2.829-2.983-8.417-9.562-9.329-9.562-1.433 0-4.85 3.583-4.85 5.054 0 1.741 5.092 8.866 6.787 9.437 4.28-.4 12.142.084 7.392-4.929zm16.163.838c-.296-1.442-16.213-18.363-17.388-18.363-1.521 0-4.517 3.329-4.517 4.867 0 1.233 5.142 7.941 9.892 12.904 2.367 2.471 2.579 2.825 5.471 2.371 3.158-.492 7.279.191 6.542-1.779zm28.133-3.78c0-3.416-1.792-5.287-8.979-13.066a647.49 647.49 0 0 1-9.788-10.896c-5.375-6.133-7.675-8.013-9.816-8.017-1.688-.008-4.28 2.738-4.28 4.484 0 1.12 13.225 16.291 25.213 29.166 2.654 2.854 3.846 3.688 6.4 2.329 1.462-1 1.25-2.691 1.25-4zm-20.713-40.633c-2.695 2.208-3.695 3.113-3.708 4.588-.017 2.25 22.817 27.337 24.85 27.337 1.2 0 1.013-.162 1.721-2.862 1.412-8.188-.808-10.592-6.725-15.992-3.971-3.621-11.971-16.088-16.138-13.071zm40.267-16.787c-6.371-7.621-9.9-11.125-11.196-11.125-.883 0-2.212.85-3.641 2.433-2.38 2.254-2.155 2.175-.646 4.858.787 1.392 2.979 4.134 4.875 6.092 3.512 3.625 5.308 4.779 7.004 3.037 1.496-1.537 5.196-3.354 3.604-5.295zm-3.329-19.017c-1.55-.017-4.163 2.783-4.163 4.308 0 1.288 5.171 7.771 8.78 11 2.92 2.617 4.291 3.317 6.32 1.596 1.517-2.204 1.175-4.221.225-5.9-2.575-2.942-8.22-10.875-11.162-11.004zm17.917 1.867c-.038-2.221-6.559-10.705-8.63-11.55-1.712 0-5.362 4-5.362 5.845 0 .988 1.4 3.192 3.767 5.938 4.658 5.404 5.85 6.592 6.862 5.75 1.654-1.383 3.404-3.804 3.363-5.983zm7.362-9.55c.429-1.863-.725-3.78-3.329-7.055-3.258-4.087-4.858-4.362-7.925-1.195-1.133 1.166-1.663 2.191-1.663 2.758 0 1.558 6.834 10.242 8.1 10.242 2.934-.363 3.83-2.496 4.817-4.75zm-12.021 21.504c-.612 2.804-1.791 4.633-4.491 5.933-20.863 15.033-20.192 39.525-24.646 62.138-33.775-.338-87.175 13.52-86.846 14.245l179.512-181.095s2.225.554.867 2.141c-14.533 10.442-13.625 30.75-23.183 40.921-15.963 19.292-30.8 36.029-41.213 55.717zm-97.437 73.971c.296-2.05-1.584-2.605-3.234-.959-1.612 1.613-.975 2.875 1.321 2.609 1.204-.142 1.771-.625 1.913-1.65zm55.329-7.613c.658-1.721-.917-3.333-10.538-14.008-9.737-10.809-11.95-13.338-13.629-13.338-1.433 0-4.925 3.538-4.925 4.988 0 .662 1.534 2.854 3.409 4.866 1.87 2.013 5.42 5.963 7.895 8.78 4.255 4.854 6.271 7.195 7.896 8.329 1.584 1.108 2.788 1.05 5.334 1.05 3.495 0 4.254.116 4.558-.667zm16.637-33.983c.667-2.125 1.609-4.004 1.613-4.8.012-1.488-12.283-14.021-14.367-15.367-2.487-1.608-7.171 3.646-6.004 6.717.321.846 3.983 5.146 8.133 9.558 5.271 5.608 7.913 8.25 8.771 8.117.875-.134.992-1.454 1.854-4.225zm5.146-13.171c.896-1.321 1.629-3.067 1.629-3.879 0-.921-2.054-3.417-5-6.721-5.479-6.167-6.891-6.879-9.891-4-2.992 2.862-1.979 4.187 3.279 10.142 6.579 7.458 7.325 8.362 9.983 4.458zm47.004-58.867c2.05-2.433 2.096-3.637.221-5.858-.791-.946-1.954-2.321-2.571-3.063-1.687-2.02-3.92-1.687-6.22.938-1.1 1.25-1.83 2.517-1.821 2.946 0 .429 1.179 2.162 2.621 3.846 3.25 3.783 5.254 4.191 7.77 1.191zm7.209-9.291c1.391-2.125.766-4.455-1.838-6.834-2.462-2.25-3.691-2.346-5.421-.421-2.312 2.571-1.941 3.434.542 6.184 2.817 3.112 5.071 3.579 6.717 1.071zm5.771-7.709c1.92-1.925 1.891-3.571.162-5.762-1.612-2.054-3.287-2.609-4.983-1.7-2.954 1.583-2.646 4.3.266 7.366 1.767 1.863 2.596 2.059 4.555.096zM407.087 1105.01c36.767 4.11 76.263 6.99 145.888-3.83l.35-23.63c-21.713 16.94-50.225 5.33-51.867-14.17-.196-17.37 4.446-37.41 8.359-51.7 2.908-10.62 3.745-14.72 1.016-16.787-6.004-3.387-16.662-3.812-19.391-10.875-1.309-3.725-1.43-7.708.479-4.866.875 1.304 7.808 4.525 13.225 5.737 9.425 2.108 10.946 2.808 12.016 6.683.671 2.442-.883 10.878-3.362 18.498-1.779 5.45-3.854 14.2-3.854 15.9 0 1.84 1.441 2.14 3.062 1.63.7-.23 4.013-3.54 6.1-5.4 9.054-8.09 11.688-7.84 3.95.06-3.079 3.15-7.321 7.48-7.321 7.81 0 1.68 1.575 1.49 5.046.23 5.359-1.94 17.917-1.7 23.504 1.11 6.95 3.49 7.238 3.33 7.084-7.25-1.25-19.76-4.471-43.158-10.909-61.408-9.829-27.838-30.229-53.671-60.366-52.505-36.742 1.913-58.917 16.542-83.913 34.071 15.096 33.488-6.721 59.142-14.621 62.532-.766.33 9.892 34.04 14.442 51.17 4.133 15.56 11.083 46.99 11.083 46.99zm156.409-807.808c-.859-2.205-21.296-68.805-27.013-96.663-55.254-3.212-96.112-7.8-144.762 6.013 0 0-1.059 18.762-.55 19.675.496 2.316 2.171 2.262 3.537 1.504 22.475-12.346 46.829-6.788 48.517 23.666.642 11.625-3.263 19.821-3.971 30.855-.625 9.629-8.204 22.47-3.608 29.787.587.9 3.829 2.671 8.25 4.567 8.246 3.533 11.483 6.775 12.087 12.171.896 3.72-1.379 6.22-2.066 2.4-.434-2.43-.863-4.567-11.046-8.05-9.925-3.4-12.609-7.342-13.592-9.417-1.367-2.863-1.108-4.892.167-9.454 2.721-9.709 5.4-19.609 5.15-24.284-.092-1.683-1.954-.866-4.338 1.163-3.025 2.571-15.971 11.096-16.333 10.733-.171-.171 2.133-3.604 5.762-7.071 4.396-4.204 9.867-9.295 9.867-10.229 0-1.654-.642-.504-4.908.763-7.434 2.046-15.992 1.754-21.746-.792-4.883-2.146-8.308-3.392-9.033-2.217-1.809 29.659 2.6 60.234 15.045 84.088 11.142 21.671 34.317 48.808 69.159 42.721 36-6.292 71.025-35.25 69.771-35.284-13.438-30.42 1.875-53.075 15.654-66.645zM278.108 1106.98c-15.954-15.98-56.166-33.35-83.8-41.33-2.212-.48-4.391-1.53-4.408 1.09l-.325 54.83-49.392 46.28.871 22.59 104.792-.51 69.554-101.99s3.358-.59 3.725-1.22c-12.767-54.15-31.996-97.402-44.208-119.085.204.267-17.563 14.354-33.192-3.154-8.763-9.834-3.383-27.092 4.937-33.417-7.025-5.162-21.562-14.521-31.095-17.221-1.984-.487-4.938 3.525-5.909 7.154-1.741 5.9-4.633 11.175-6.579 17.121-2.142 4.971-4.196 5.721-7.387 4.325-4.967-1.475-6.284-1.987-6.284-1.987l.163 64.454c38.121 13.22 77.362 47.12 88.537 102.07zm158.459-688.828l11.295-12.267c-17.87-2.196-36.604-5.388-58.52-12.271 15.216 11.317 31.158 18.321 47.225 24.538zm-62.075-34.509c19.92 6.642 45.125 22.125 76.595 16.296-28.687-11.379-50.466-37.971-59.754-92.104-2.033 10.508-6.225 32.358-12.833 34.721-9.279-35.925-46.608-15.029-31.642 14.271-37.825 25.987-83.308 40.654-124.562 60.7 0 0-6.204 19.058-37.109 45.162-5.833-30.608 1.121-76.017-2.5-106.771l-48.445-45.75c.75 8.713.408 14.117.02 24.321 1.33 1.779 3.163 2.708 5.034 3.821 3.125 176.317-1.084 350.608-1.046 510.754-.475 98.142 2.121 200.396.679 293.066l-1.804 3.35.071 22.15 49.466-47.1s-2.3-33.42.292-58.96c31.217 6.28 60.333 20.95 86.433 37.04 3.288.92-16.012-64.16-86.216-93.07 0 0-.096-20.33-.096-64.513 0-42.625-.663-47.138-1.608-47.83-2.846 3.088-38.767 15.192-40.592 13.146.967.321-10.129-75.454-.542-86.962l34.371.725c9.829 7.933 5.879-1.729 11.588-3.321 3.42-.921 19.316 5.271 19.316 5.271 65.5-77.317 58.954-204.471 11.946-276.017-12.037 9.779-24.842 23.033-36.912 28.725-.15-.417-.221-39.45-.221-39.45 62.583-40.171 130.658-156.533 126.321-156.929 0 0 19.379 18.875 26.9 29.546l-61.784 89.479c14.15 28.496 28.471 54.337 37.759 79.392 1.258 3.391 5.125 3.295 6.095 6.862.838 3.046-2.887 7.279-2.37 10.642 13.037 49.866 15.995 102.775 3.133 150.708-2.717 10.792 2.254 19.538 8.9 27.654.546.704-6.196-5.833-6.796-6.196-2.312-1.387-6.158 3.48-6.971 9.621.529 3.763 2.571 4.425 5.279 7.475 4.767 3.963 23.709 22.617 32.055 31.134 7.412 7.566 9.325 7.908 14.32 2.541 1.405-1.312 2.867-3.104 4.234-4.216.258.412 2.1-1.509 2.733-2.125l111.567-108.9c12.962-12.65-111.409 114.266-111.409 114.266s-60.308 59.204-75.095 73.8c-15.284 15.075-17.35 18.375-17.959 19.496-1.091 2 4.925 1.946 7.663 1.538.221-.034-2.3.579-4.846.562-15.704-3.512-21.054 13.85-30.95 17.346-26.2 18.604-8.588 48.475 16.437 38.612l6.096-2.929c15.171 28.167 37.05 79.487 47.325 124.107l-4.137 1.91-66 99h374.266c-26.887-26.76-49.754-59.62-73.045-84.22-37.321 11.17-150.18 8.89-148.4 4.04 0 0-17.092-69.19-26.75-103.17 30.683-26.279 27.537-67.729-17-86.342 32.42-25.6 65.062-34.275 96.887-36.354 10.338 26.254 34.6 27.904 46.058 3.867.08-.267 43.03 13.204 58.871 27.787-23.483-2.429-46.679-7.104-70.179-8.225 20.688 8.167 41.746 29.496 48.496 53.892 3.304 8.712 8.35 37.475 9.692 37.579 0 0 7.837-33.221 13.912-31.392 15.5 32.346 42.225 8.017 30.967-17.754 39.479-18.841 83.896-39.887 120.216-57.354 10.596-15.979 36.659-46.333 38.367-46.467 0 0 47.942-274.616 47.929-366.416-1.591-110.367 2.209-233.221-2.546-336.45l-.045-29.671-101.246.042-72.275 106.283s-.542 1.687-.529 2.417c9.862 42.883 22.516 79.379 42.379 119 27.404-20.7 50.496 13.383 29.941 33.175-3.854 3.716-2.82 4.654 1.038 7.237 3.804 2.55 29.812 15.633 31.025 15.633 4.704-6.983 6.067-17.304 9.237-25.187.796-3.004 3.067-3.375 7.605-2.842 5.825.684 5.791 3.109 5.6-33.958l-.167-31.833c-35.138-16.184-81.663-57.33-83.833-100.121 20.32 14.783 67 36.275 79.462 38.196 5.479 1.529 4.633-8.013 4.808-11.842 1.484.992 2.017 15.733 2.017 15.733-20.625-6.233-31.429-4.958-82.896-34.783 8.829 42.083 50.975 75.279 81.538 90.417 0 0 1.275 19.991 1.208 42.383-.192 68.287.492 71.296.492 71.296 0-.034 16.812-4.288 21.487-6.604 8.338-6.675 21.696-1.555 23.546 3.362 2.713 25.771.104 49.667-.471 74.279-14.241 1.017-22.046 4.013-29.071 4.3-4.566-.608-7.337-.637-9.679-3.237-6.8-14.692-6.362-5.375-7.187 5.658-.625 3.267-17.659-2.417-19.35-3.4-73.546 84.658-67.275 182.121-17.329 272.383 8.245-5.566 22.458-16.191 36.662-23.17.342 11.483.533 35.12.533 35.12-57.57 42.242-126.52 154.15-124.187 154.459l-23.392-27.925s14.725-23.409 19.913-29.596c.604-.708.991-7.971.991-7.971l35.75-51.683c-16.162-28.629-27.204-53.109-38.7-81.263-.654-2.354-3.462-12.475-2.841-13.433-23.846-107.738 1.991-161.329.087-165.408 0 0-.316-2.159-.825-2.575-.779-.65.2-1.275 1.084-2.813 1.695-2.983 4.408-9.104 3.479-10.917-.684-1.341-20.017-20.679-36.596-36.6-8.721-8.375-8.375-9.333-12.883-4.758-1.671 1.696-5.784 6.521-5.784 6.521-59.896 55.421-107.437 105.887-167.554 164.887l-2.887-2.625c87.454-86.916 175.708-172.97 262.312-260.733l-15.237.258c.433-1.1 1.062-2.129 1.954-2.429 8.166.004 16.562-2.471 22.633-5.916 12.354-9.175 30.083-21.463 31.471-33.563-.883-23.296-20.533-26.671-34.721-15.279-19.721-35.421-35.333-78.038-43.692-117.817-.4-1.975-3.179-5.383-3.595-7.637 4.225-13.213 71.2-104.471 71.2-104.471H317.037l71.584 85.233c0-3.404 102.004-15.446 148.729-1.221l28.45 101.067c-25.85 24.992-33.483 66.083 14.05 87.475.921 2.004-4.504 5.3-4.504 5.3.754-1.229 2.066-2.504 1.533-3.637-12.812-5.6-26.533-19.784-26.533-19.784-28.596 22.342-55.325 34.779-81.513 35.884 0 0 13.825 9.375 16.5 19.67 0 0-1.283-.158-1.625-.57-2.833-3.467-9.358-14.688-14.854-17.992-9.325-2.238-14.833-.608-22.196 4.462l-9.954 9.617c-22.854-6.95-48.225-18.317-62.212-35.571zm-3.821 247.363l10.429-10.288c1.192-7.637 3.258-17.346 12.075-27.921 9.771-11.733 20.579-22.762 28.537-33.204 9.55-12.55 14.738-23.904 12.225-29.166 14.242-2.563 27.321-15.134 27.738-37.946.167-11.984 5.95-29.467 6.387-29.221 0 0 99.409-3.383 167.792-68.575 0 0 4.796 1.042 3.667 1.908-25.909 25.95-53.463 45.084-86.038 57.267L373.846 633.297zm19.887-20.588c2.684-2.683 3.288-3.566 1.771-4.825-2.317-1.925-6.779 2.046-6.779 6.029 0 2.538 2.012 1.792 5.008-1.204zm9.3-9.141c2.134-2.046 2.054-3.534.292-5.3-2.433-2.43-5.963-.938-7.15 2.979-1.192 3.946 3.5 5.533 6.858 2.321zm8.184-8.28c1.104-1.254 2-2.537 2-2.85 0-1.391-3.43-4.541-4.938-4.541-1.925 0-5.375 3.237-5.375 5.05 0 1.512 3.463 4.616 5.142 4.616.646 0 2.071-1.025 3.171-2.275zm7.716-15.416c-2.441-2.059-4.05-2.075-6.066-.059-2.346 2.342-2.1 4.917.695 7.375 2.121 2.217 3.038 2 5.913.23 2.408-2.467 2.842-4.767-.542-7.546zm9.059-1.375c2.645-2.225 2.262-4.05-.617-6.934-3.029-3.033-5.375-3.054-7.529.159-.813 1.204-.959 2.412-.959 2.758 0 1.171 5 5.629 6.321 5.629.721 0 1.696-.696 2.784-1.612zm8.708-8.6c2.25-2.346 1.958-4.021-1.263-7.338-2.708-2.791-4.595-3.004-6.979-.791-2.471 2.287-1.958 4.704.825 7.487 2.821 2.817 4.917 3.254 7.417.642zm9.867-9.988c1.65-1.746 1.204-1.604.037-3.496-1.808-2.925-7.083-7.77-8.583-7.77-1.884 0-3.538 3.02-3.517 5.991.013 2.954 1.454 4.159 5.204 7.113 2.488 1.958 1.729 2.137 3.642 1.012 1.062-.625 2.512-1.904 3.217-2.85zm7.829-7.158c3.533-4.021 2.862-4.796-5.663-13.783-2.896-3.046-3.5-3.396-5.562-3.225-1.967.166-2.1.65-3.113 2.72-1.862 3.817-.483 5.755 4.884 11.463 5.525 5.875 6.337 6.375 9.454 2.825zm8.746-9.388c1.366-1.195 2.275-2.591 2.275-3.479 0-1.566-6.909-9.229-9.371-10.641-1.75-.996-3.575-.434-5.838 1.516-1.358 1.167-1.329 1.45-1.004 2.738.525 2.104 9.413 11.466 10.875 11.466.608 0 1.813-.5 3.063-1.6zm8.675-8.412c1.462-1.496 2.625-3.308 2.625-4.1 0-1.692-7.446-10.304-9.746-11.513-1.959-1.025-3.1-.595-5.034 2.117-2.225 3.129-1.354 4.554 3.063 9.646 4.187 4.825 5.533 6.287 6.312 6.287.259 0 1.33-.966 2.78-2.437zm8.183-8.808c1.883-1.146 4.337-3.555 3.346-5.521-1.063-2.013-14.096-15.825-15.5-16.575-2.746-1.475-2.667.646-2.667 7.487v3.55l6 5.875c8.746 8.563 6.788 6.475 8.821 5.184zm10.604-9.73c1.038-1.037 2.017-2.783 2.004-3.433-5.416-6.587-21.146-27.421-23.987-26.65-.296.079-.421.096-.621.692-.708 2.087-.992 6.404-.5 9.896 4.967 4.775 16.679 20.316 19.325 21.279 1.579.608 2.283-.288 3.779-1.784zm8.454-8.87c.992-.955 1.804-2.242 1.804-2.867s-1.745-2.817-3.608-5.008c-1.862-2.192-5.504-6.63-8.096-9.863-14.821-18.487-15.9-19.871-18.158-17.992-1.492 1.234-1.85 5.592-1.104 7.217 1.287 2.813 17.479 22.338 22.7 27.375 3.316 3.204 3.975 3.521 6.462 1.138zm8.525-8.171c1.271-1.196 2.3-2.779 2.3-3.521 0-.738-2.383-3.75-4.891-6.688a786.26 786.26 0 0 1-9.259-11.145c-6.658-8.184-6.708-8.48-11.671-8.988-7.52-.775-6.52.883 2.005 10.829 2.062 2.404 5.954 7.159 8.654 10.559 6.316 7.962 9.108 10.895 10.358 10.895.554 0 1.242-.75 2.504-1.941zm8.7-8.521c3.854-3.246 3.096-4.308-9.446-17.258-4.112-4.246-4.404-4.921-7.6-4.921-3.216 0-4.245.662-4.245 2.221 0 .954 16.337 20.366 17.525 20.845 1.608.642 1.795.771 3.766-.887zm9.134-9.358c1.029-1.1 1.87-2.525 1.87-3.163 0-1.396-3.545-5.9-6.866-8.812-1.559-1.367-3.517-2.78-4.775-2.78-2.134 0-5.792 1.209-6.417 2.225-.412.663 4.438 6.655 9.208 11.68 3.159 3.329 4.396 3.62 6.98.85zm8.025-7.959c2.016-2.016 2.004-3.866-.067-6.575-1.496-1.958-1.946-2.154-5.025-2.154-5.825 0-6 1.492-1.483 6.321 3.358 3.587 4.279 4.704 6.575 2.408zm8.587-8.446c2.271-2.887.325-4.47-3.396-2.775-.883.405-1.358 1.45-1.537 1.934-1.154 3 2.75 3.612 4.933.841zM395.45 487.172c-8.296 5.242-22.233 15.171-31.708 21.809-.25 1.425-.43 5.05.008 7.875 5.367-3.654 22.637-14.684 30.475-20.896.396-2.329.967-6.442 1.225-8.788zm15.208-24.058c-.275-1.412-1.204-.521-3.658 1.554-3.217 2.721-30.483 22.921-37.729 28.004-2.75 1.934-5.342 3.567-5.638 4.246-.279.642-.55 6.129.496 7.513 5.908-4.513 33.946-23.317 34.371-23.967 2.892-4.625 9.354-12.692 12.158-17.35zm-3.125 60.892s-33.446 40.204-44.204 60.233c0 0-.071 22.913-.387 36.104l-1.817.513s-.154-35.363-.613-73.742c-1.125-95.9-2.066-119.183-2.066-119.183l-10.859-7.954-.454-3.771s48.196 33.746 71.713 39.125c-17.184 26.925-33.071 37.312-11.313 68.675zm-39.691 48.083c.67-1.617.22-1.537-1.167-1.475-1.013.042-1.592.979-1.638 2.008-.05 1.171.059 1.45.967 1.275.658-.125 1.517-1.029 1.838-1.808zm8.041-11.912c4.817-5.93 8.796-9.771 9.509-14.134-3.084.513-20.825 12.95-21.109 14.267.175 6.583-1.325 7.375 4.088 4.471 2.379-1.288 4.304-2.879 7.512-4.604zm1.521-14.688c5.171-4.3 24.033-14.446 26.192-19.442.837-2.295-1.85-4.454-2.275-4.241.35.304-27.004 16.687-36.979 25.283-.896 1.108-.663 3-.071 4.563 1.096 2.879 3.275.537 13.133-6.163zm-6.275-7.908c5.625-3.75 18.925-12.946 22.238-15.246 5.629-3.908 6.75-5.221 4.72-8.121-.812-1.154-1.908-1.842-3.77-1.021-16.288 11.342-17.692 13.259-30.059 21.204-.833 2.234-.625 5.563.663 6.746.941.054 2.512-1.1 6.208-3.562zm-.067-12.238c14.842-10.733 22.846-16.162 23.371-17.346.584-1.308.754-6.412-.212-6.958-5.525 4.2-20.284 13.238-30.367 21.417-.267 1.683-.575 5.454.242 6.271 2.046.845 2.658-.263 6.966-3.384zm-1.766-38.746c10.804-8.012 20.787-14.983 32.025-22.495 9.533-6.33 11.125-7.738 7.462-9.625-1.254-.65-3.787-1.68-5.421-1.134-12.654 10.221-26.725 20-40.141 29.934-.329 1.483 0 4.391-.084 5.704-.129 2.029 2.546.296 6.159-2.384zm-1.488-11.433c.892-.779 6.542-4.525 12.567-8.887 16.162-11.692 18.067-12.83 18.067-14.071 0-3.396-4.663-4.117-8.909-.663-7.791 6.346-26.383 17.904-26.429 19.542-.062 2.417-.471 4.796.233 5.858.896 1.342 2.205.217 4.471-1.779zm4.667-15.837c16.442-11.471 15.787-10.934 15.787-12.996 0-1.792-1.595-.988-4.116-1.171-2.371-.171-2.417.492-6.921 3.9-9.596 7.25-13.108 9.233-14.113 11.375-.316.671-.537 3.333.042 3.917 1.163 1.158 2.496-.263 9.321-5.025zm1.087-11.409c3.217-2.675 5.8-4.641 6.017-5.204.467-1.221-1.967-3.4-3.8-3.4-1.983 0-3.525 1.025-8.442 5.258-4.337 3.734-5.22 2.95-4.879 5.059.2 1.225.221 3.921.625 4.412 1.054 1.267 3.3-.15 10.479-6.125zm-6.654-7.404c3.471-2.925 4.2-3.525 1.667-6.058-2.292-2.296-4.967-2.867-6.379-1.459-.779 1.034-.021 7.084-.104 8.292-.142 1.942 2.441 1.221 4.816-.775zm74.454-63.104c0-1.254 6.046-5.679 10.584-6.688 5.783-1.283 13.041-.62 18.125 1.917 4.379 2.188 9.133 7.446 2.096 4.246-6.463-2.875-20.313-2.913-25.325-.592-3.725 1.888-5.48 2.371-5.48 1.117zm-4.5-22.154c.471-.471 6.517 1.087 9.85 1.966 8.925 2.35 16.259.971 25.617-1.729 2.192-.633 3.288.884 1.933 1.996-4.758 3.292-10.916 5.208-16.233 5.704-11.7 1.088-24.279-4.883-21.167-7.937zm-57.35-17.267c4.988-2.442 11.084-36.675 9.121-42.567-6.112 9.334-12.962 13.521-22.721 11.905-15.975-2.65-16.566-22.317-4.225-24.296 4.93-.788 10.967 2.462 11.955 1.7 5.266-2.471 9.391-20.146 10.67-25.867.942-5.604 2.334-21.15 2.546-26.1.446-10.521.021-26.037.021-26.037l-77.75-93.017-170.296-.733s-.541 130.291-.137 196.945l48.221 46.271.612 74.8c53.875-23.512 106.025-48.208 157.079-74.916-5.921-7.075-5.75-24.9 5.042-31.642 15.892-9.929 29.096 3.212 29.862 13.554zm42.684 15.858c.362-4.22 3.491-7.687 3.716-11.975 0-.954.775-2.062 3.309-.716 3.304 1.754 4.316.516 8.054-1.204 6.633-3.05 8.525-2.98 13.629-.938 3.308 1.767 4.325 1.754 7.421.15 4.237-2.8 8.737-3.708 12.462-2.4 5.563 1.938 7.496 3.004 10.671 1.471 1.592-.775 3.6-3.671 3.946-3.454 2.283 3.391 1.825 8.729 3.279 11.733 2.579 5.096 1.575 8.746-1.466 6.238-6.396-5.267-11.371-5.396-20.542-3.125-5.367 1.329-8.067 2.362-14.017 1.658-18.425-2.188-19.675-1.633-23.421.871-3.637 2.429-6.429 2.679-7.041 1.691zm49.462-33.4c-5.316-1.329-11.4-6.166-15.804-4.87-5.433.37-8.525-6.038-5.742-9.546 4.771-4.638 12.167.041 15.05 2.221 6.238 4.741 7.125 5.116 9.655 5.116 10.362-.204 8.379-9.887 3.37-13.416-2.97-3.117-3.266-5.138-2.637-5.896 1.025-1.238 3.983-.196 7.225 3.216 6.204 5.825 6.346 17.438-1.263 20.946-3.783 2.113-6.27 3.125-9.854 2.229zm21.629-33.558c-4.82-3.496-13.408-11.337-15.65-14.129-3.787-4.721-5.304-7.738-4.833-11.529.375-2.95.821-4.704-1.075-5.679-2.012-1.038-3.946-5.496-3.558-7.834.108-.65 2.379-.262 3.758 1.454 1.738.284 1.379-.75 3.267-2.004 19.708-13.225 35.516-10.675 54.212-1.587 5.425 2.608 19.584 13.346 12 9.858-.45-.204-5.421-2.358-10.433-4.887-16.217-7.759-34.275-12.459-48.979-2.484-2.534 1.771-4.063 3.134-2.096 3.134 8.271-1.609 16.446-5.05 24.933-4.513 12.667.167 20.321 6.413 29.813 10.729 10.312 4.604 12.3 6.179 8.541 9.979-1.058 1.175-1.908 1.138-6.891.759-5.346-.409-5.792-.259-8.8 1.671-7.892 5.054-18.142 7.816-27.25 7.05-10.725-.9-11.871-1.759-12.096-.217-.138.987 2.167 2.696 5.342 5.604 2.412 2.208 5.654 5.458 5.937 5.958.896 1.58-3.192.8-6.142-1.333zm-3.012-17.167c-.017-1.266-2.383-6.787-3.796-8.212-1.35-1.371-2.417-.838-5.296 1.196-2.171 1.525-2.396 2.729-.408 4.5 4.242 3.766 9.542 4.712 9.5 2.516zm16.158.763c4.325-2.096 8.734-9.525 6.729-11.938-1.187-1.433-2.225-.07-4.491 3.955-1.092 1.929-2.959 4.375-3.767 4.933-3.537 2.479-8.204.167-10.167-5.3-1.187-3.3-2.437-5.4-3.816-4.146-2.496 2.263.329 10.421 5.291 12.533 2.934 1.246 7.18 1.434 10.221-.037zm13.463-1.221c4.396-1.358 6.491-3.333 6.121-5.246-.309-1.587-3.471-3.458-5.613-3.458-.967 0-2.846-.042-3.525.858-1.496 1.988-3.867 8.025-3.971 8.679.513 1.33 2 .709 6.988-.833zm15.179-32.725c-21.9-8.375-39.2-11.733-60.021-2.854-6.671 2.896-10.479 3.2-10.812.837-.28-1.991 4.52-7.895 9.712-10.62 14.538-6.646 31.988-7.275 46.617-.255 5.466 2.675 20.804 13.58 20.804 14.571 0 1.088-1.383.242-6.3-1.679zm256.287 245.354c5.221-2.754 7.617-8.158 4.421-11.35-.933-.937-2.241-.933-3.333-.933-1.821 0-15.525 3.671-18.179 5.092-1.734.929-1.1 2.55.55 4.045.766.692 1.333 2.171 1.45 3.788.154 2.079-.259 3.962 1.121 3.637 2.791-.641 7.204-1.254 13.97-4.279zm-19.47 5.013c1.491-2.704.858-6.413-3.046-8.688-2.038-1.054-3.642-.487-5.279 1.846-3.88 7.075 5.75 10.113 8.325 6.842zm-19.546 3.321c.837-9.042.433-35.746.433-35.746s-4.867 4.108-7.929 4.25c1.125-3.904 2.342-5.338 4.087-9.167 1.005-4.054 1.559-11.225 1.275-15.325-.3-4.487-3.466-4.608-.204-12.679 1.667-4.121 1.967-8.463-.196-13.563-.933-2.52-1.229-3.97 1.196-7.162 2.254-2.971 1.363-4.454 1.321-10.642-.058-8.579-.008-9.975-2.604-3.054-3.879 5.729-5.658 4.633-11.571 3.942-5.712 12.812-12.396 26.241-12.662 37.279-.167 6.925-.259 8 4.062 22.558 1.608 5.421 2.163 7.225 2.254 13.775.092 6.254.554 8.454 1.509 11.909 1.695 6.145 8.579 16.308 19.029 13.625zM553.537 1066.31l.017-12.88s-20.596 6.35-31.05 2.45c-10.767-2.92-10.729-3.45-10.517-2.29.375 2.09 8.367 6.3 15.759 8.04 5.208 1.21 15.621-.02 20.733-1.53 2.9-.86 3.208-.05 2.05.83-12.633 9.88-28.654 5.33-38.717-2.86-5.375-5.27-8.975-5.3-6.075 1.78 13.825 28.01 48.142 11.48 47.8 6.46zm-13.908-19.14l4.688.09s-1.438-8.17-3.871-10.55c-4.959-4.87-11.984-4.12-16.438.66-2.037 2.19-3.596 9.94-3.596 9.94l3.771.08c1.392-3.62 7.334-20.59 15.446-.22zm-18.746-12.35c-2.662-.73-8.5 1.93-11.35 3.78-1.05 1.16-1.058 1.33.192 2.98 2.733 3.59 6.904 5.31 7.2 3.97 1.212-1.9 4.233-9.99 3.958-10.73zm30.954 9.08c.617-2.51-1.75-6.8-5.441-8.3-1.592-.4-3.171-.72-2.709 1.03.525 1.98 1.625 5.21 2.659 7.36.746 1.62 1.225 2.43 2.796 1.82 1.237-.41 2.275-.8 2.695-1.91zm201.034-170.723l.041-21.817c-11.016 11.167-25.408 29.9-29.77 36.912zm-336.45-601.155c4.666-2 8.096-8.1 6.916-11.179-.737-1.912-2.675-.379-4.633 2.454-3.154 4.555-3.954 5.05-6.725 5.05-2.95 0-4.125-.758-6.146-4.725-1.391-3.754-2.379-4.341-3.679-2.704-.612.738-.562 1.796.229 4.529 2.075 7.146 7.434 9.409 14.038 6.575zm12.721-2.258c5.175-1.779 6.233-2.346 5.983-4.071-.254-1.804-4.371-4.212-6.704-3.766-1.688 1.02-6.063 7.941-5.813 9.179.6.962 2.334.104 6.534-1.342zm-29.859-3.017c-.179-1.595-.4-3.162-.837-3.691-1.663-2-5.167-.588-5.167 1.954 0 1.933 2.75 4.121 4.975 4.121 1.571 0 1.346.383 1.029-2.384zm29.254-13.041c7.359 2.775 11.096 3.083 7.088-.679-5.504-6.109-30.742-13.084-44.288-3.117-.958 1.375-.758 6.642.292 6.35 11.021-7.433 25.125-7.033 36.908-2.554zm-25.204-21.063c-6.187 2.059-12 5.296-12.741 8.309-1.2 4.854.97 4.904 9.062 2.358 10.421-3.413 22.079-1.867 30.958 3.262 6.746 4.909 8.746 3.284 7.605-.837-3.771-13.638-24.85-16.096-34.884-13.092z" fill="#131f67"/><path d="M800.479 145.056l-45.508 45.087.637 53.359c4.571 8.383-70.233-23.909-82.037-33.684 1.371 35.642 50.016 76.254 81.654 91.117l.862 113.183s12.73-4.937 19.738-7.375c5.192-1.796 17.054-1.629 20.967-3.504 6.204-77.587 11.504-178.529 3.687-258.183zm-253.096 55.846c-4.433.075-7.087 1.275-7.029 4.129-1.333-.225 16.813 66.621 25.075 94.533-16.079 16.246-32.862 44.467-8.842 70.588 5.125 5.575 14.513 10.3 23.438 15.645 3.983 3.863-48.829 37.909-95.838 37.93-15.075-33.042-36.12-14.771-47.733-3.242-9.071-.8-42.921-20.967-60.237-32.508-.28-.188-.092-4.967-.059-5.838 1.204 7.875 67.842 24.863 70.85 16.975-1.925 0-29.896-18.917-37.925-37.579-10.246-21.054-18.462-49.967-18.462-49.967-3.734 10.692-2.459 25.509-12.729 30.813-3.084-34.8-52.775-17.05-28.034 16.975-13.904 4.079-25.787 11.275-39.275 17.258 28.225 38.404 67.075 63.95 108.109 79.013-5.413 11.529-37.367 37.475-11.117 68.066 1.183.942-25.083 29.596-38.004 52.004-9.725 16.867-6.792 29.813-5.679 30.225 35.587-40.783 55.587-75.279 55.587-75.279-.304 4.742 42.238 2.179 41.529-36.129.938-10.337 2.809-21.546 6.784-31.133 64.912 3.054 120.729-20.075 167.904-68.638 0 0 9.608 2.742 15.666 3.688 3.042.471 7.346-1.509 8.055-1.713 2.733-.141 6.679-.671 10.35-2.741 5.041-2.83 10.125-7.7 15.512-12.063 7.058-5.717 14.108-11.229 16.617-17.117 2.808-6.55.612-14.441-1.792-21.429-15.146-17.833-25.192 1.342-31.904-1.146-23.296-31.675-42.725-121.266-45.896-121.966-13.021-2.625-57.533-19.65-74.921-19.354zm-159.908 61.141c-1.733.117-7.979 27.971-13.517 27.754-23.425-15.091-23.933 16.142-3.783 14.721 17.021-1.2 26.533-28.666 17.383-42.454a.196.196 0 0 0-.083-.021zm-250.433 52.988c.775 169.354 3.82 338.637 7.791 507.941 15.309-3.783 26.438-6.666 41.446-.104 1.413-48.129-2.821-169.583-1.812-287.191 57.208-44.488 97.391-93.559 125.612-157.688l-87.342 40.904s-28.55 40.909-37.662 43.538c-1.296-5.825-2.754-75.084-1.575-104.784zm194.087 104.746l-17.162 24.829s.4 85.283 1.391 126.379c.709 8.179 8.146 15.687 2.192 23.012 3.629 0 19.487 110.65 4.412 155.505-2.7 8.029-.17 13.708 4.05 15.545l32.705 33.188c10.32 3.429 20.358 2.087 29.02 0 30.963-28.317 74.938-77.942 74.938-77.942l-116.267-109.9c-9.971-26.654-15.279-190.616-15.279-190.616zm423.708 355.666c-84.175 62.925-120.362 152.471-120.916 151.867.3 1.042-.417 4.717 4.854 1.808 21.783-11.791 77.8-37.233 77.8-37.233 13.3-15.983 23.537-31.413 38.762-46.621 0 0 1.65 69.388.305 104.2 13.741 10.217 46.362 42.129 46.362 42.129-.004-.004 9.008-493.008-10.433-505.516-18.875 3.654-28.35 10.55-35.392-11.342-4.983 100.375-.054 201.1-1.342 300.708zM572.033 497.977c-20.304 16.591-90.108 85.066-89.966 85.775 18.516 31.045 91.629 93.233 126.683 128.004l5.071 177.129c5.158-6.933 8.908-13.463 14.5-20.404 0 0-.913-89.684-3.079-131.734-.638-12.429-3.492-22.225-2.596-23.354-9.867-51.037-13.954-107.412.004-162.129-33.104-28.517-43.629-47.475-50.617-53.287zm5.434 202.3c-.05.02-.1.058-.155.125-17.141 24.404-49.912 77.4-52.266 77.27-.696-1.587-33.867-.104-40.138 20.763-5.262 15.537-5.662 29.837-9.504 45.862-66.558-2.175-115.283 18.867-166.592 66.159-14.591.575-27.37 1.766-36.354 5.091-7.521 2.784-11.562 7.805-16.191 11.163-13.025 9.433-16.55 17.492-15.913 27.346 1.163 17.862 32.721 20.404 34.338 7.816 1.604 0 30.891 66.898 33.737 78.298 6.904 18.43 14.308 52.92 15.183 52.96 11.788.77 77.984 19.33 78.221 12.6 6.238-2.68-23.016-98.41-23.016-98.41 51.133-42.902-5.238-88.743-18.488-87.068 29.117-20.725 62.521-34.684 99.371-36.521 5.704 20.475 32.137 30.991 45.454 3.783 0 0 57.267 20.5 57.033 27.292-23.579-3.559-42.97-5.413-66.587-7.675 45.25 24.554 46.633 56.921 55.871 89.137 1.254-5.704 13.191-30.633 13.191-30.633 15.346 34.029 44.525 10.417 32.488-17.058l36.308-16.834c4.184-2.125-54.275-67.883-107.446-77.196 2.684-4.895 3.738-9.504 6.513-13.491 13.325-13.084 23.662-32.229 3.279-55.142 13.454-18.8 44.654-64.183 42.675-64.996 0 0 .604-21.208-1.012-20.641zM140.308 909.439c-.508 0-1.45 157.361-.346 235.481-1.308 3.23-2.154 20.52-2.154 20.52l48.413-45.48 1.45-58.78c12.646-3.02 91.437 36.97 85.133 36.75 6.013-2.53-36.375-82.57-85.817-91.45-.92-45.349-1.383-96.687-2.679-110.487-17.171 3.284-44 13.55-44 13.446zm429.85 94.661c-13.558 4.04-19.208 32.54-14.821 46.36.813 2.56.296 3.11 2.455.6 5.283-7.75 3.616-23.19 12.954-31.35 24.646 7.43 22.2-24.617-.588-15.61z" fill="#e2cf00"/><path d="M256.504 1189.71l64.092-96.82c76.525 25.57 154.633 26.03 233.579 13.41l70.554 83.41h-28.846l-44.404-63.42c-16.096 3.72-32.821 5.34-49.487 7.63l20.783 55.79h-22.621l-16.321-55.18c-38.3 1.48-64.391-1.93-90.987-5.04l-9.575 60.22H360.25l15.537-62.18c-18.091-3.39-36.345-6.3-51.504-11.16l-47.054 73.34zm73.396-56.98l26.612 7.2-12.991 49.78h-48.684zm68.721 56.98l7.521-43.97c17.87 3.52 41.187 4.23 65.775 3.98l11.554 39.99zm125.946-40.77l20.991-5.56 31.463 46.33h-38.242zM690.704 1182c-22.183-44.61-52.479-83.41-85.412-120.34 32.154-33.8 59.266-72.871 85.304-117.292 25.833 44.834 55.629 86.372 88.458 119.042-36.117 35.92-63.771 75.02-88.35 118.59zm178.763-80.32c-10.688-17.46-23.471-34.92-39.18-52.39 14.342-16.12 26.838-33.39 38.088-51.443 12.962 19.913 26.333 37.183 40.075 52.063-14.529 16.24-26.713 34.03-38.983 51.77zm-651.1-232.541c102.379-119.071 88.758-244.067 32.2-344.892l12.029-12.366c65.4 107.475 79.321 260.287-41.209 378.716-1.27-7.141-3.02-21.458-3.02-21.458zm408.258-133.537c14.708 25.033 23.696 50.375 39.242 75.55l-36.875 49.837zM186.15 814.464c-.954-78.567.237-237.758.237-237.758l34.542-26.421c41.329 50.171 63.888 182.412-10.337 270.425-5.4-3.933-20.092-2.296-24.442-6.246zm490.442-15.854c-94.742-159.796-46.563-276.325 44.745-379.8.263 7.975.863 15.917 1.584 23.862-78.392 89.755-109.738 222.5-32.879 342.596zm-171.563-23.213l43.146-58.791s8.179-23.388 15.067-30.296l7.916-7c2.634 2.542 7.654 5.762 7.5 8.683-.166 2.759-4.233 17.35-4.233 17.35l-50.463 73.788s-15.312-2.684-18.933-3.734zm229.5-285.362c1.358-1.542 18.488 5.604 18.488 5.604l1.095 241.596-34.283 22.029c-9.954 5.054-87.692-153.5 14.7-269.229zM373.312 591.806c15.609-21.267 32.055-39.675 47.188-59.209 3.912 1.346 14.183 1.575 14.183 1.575 1.092.584-3.454 16.205-14.646 26.971-11.254 11.467-38.041 42.888-38.829 58.717-.237 4.879-11.196 10.471-11.196 10.471l-7.795-8.213c2.387-12.037 6.12-21.266 11.095-30.312zm-97.37-92.671l34.354-44.571 3.429 118.421zM158.533 236.502c32.704-34.817 61.617-74.775 88.929-116.071 24.921 41 52.567 82.921 87.15 116.912-31.487 34.534-61.333 75.967-87.375 117.042-25.004-39.996-52.962-81.392-88.704-117.883zM28.008 246.943a229.796 229.796 0 0 0 39.05-49.937c12.092 18.346 23.504 37.25 39.671 52.266-14.917 15.992-19.7 21.075-40.037 50.917-11.48-18.596-23.396-36.933-38.684-53.246zm360.384-48.212l-68.021-85.021h32.937l40.513 60.167 48.521-5.538-17.08-54.629h20.109l14.196 53.75c29.762.704 58.845 3.021 87.095 5.85l14.513-59.6h20.475l-18.583 62.367 54.795 14.383 48.817-76.75h24.258l-69.195 99.096c-90.459-27.171-163.109-24.059-233.35-14.075zm196.116-35.588l15.5-49.487 46.359.05-35.48 56.529zm-112.191-12.037l-9.805-37.396h81.738l-10.554 41.808c-21.584-3.641-41.3-4.337-61.379-4.412zm-97.988-37.396h32.625l12.708 38.7-18.816 2.129z" fill="#d40000"/></g><path d="M872.258 1120.97c-14.364.05-29.537 7.77-33.84 24.33-1.513 5.26-1.519 5.27-1.572 52.14-.039 38.75-.365 48.09-.365 48.09h-13.242V1261h43.111v-15.47h-14.305s-.202-48.2-.202-78.59c-.593-7.88.124-14.82 2.223-19.64 7.622-17.57 34.46-13.73 37.694 1.26 1.93 8.94.847 11.28.978 18.99h14.937s.392-13.56-1.062-21.48c-1.963-17.66-17.201-25.52-32.967-25.08zM67.928 39.015v14.507h14.345s.339 13.987.469 43.686c.124 28.821.717 43.122-1.141 51.326-5.047 18.929-32.96 19.02-38.508 5.42-3.234-7.92-2.361-14.066-2.53-22.026h-15.42s.078 4.007.097 8.904c.085 21.297 7.27 31.453 24.066 35.474 17.266 4.576 37.439-2.397 44.625-16.892 4.283-8.258 3.788-8.803 3.886-58.722.071-33.318.593-47.17.593-47.17h13.204V39.015z" fill="#d40000"/><path d="M309.7 108.231l78.771 94.241c16.416-5.87 99.133-15.308 148.762-3.987 8.642 33.875 17.796 68.083 27.467 98.925 0 0-3.1 3.617-5.333 5.921-31.692 36.516-9.263 71.791 19.737 83.3-5.225 10.858-60.8 37.9-94.646 34.683.059-.333-10.387-24.817-31.571-16.542-7.237 2.83-10.22 8.275-15.829 13.592-20.216-6.096-46.908-19.383-60.783-34 25.962 12.925 51.529 19.888 77.204 16.463 0 0-3.183-2.655-6.792-4.309-2.17-1-7.4-4.146-11.62-6.996-11.934-8.033-19.863-17.733-28.034-34.316-9.408-16.792-10.941-34.871-16.1-50.813-2.725 8.171-3.904 29.746-11.033 34.217-1.842 1.212-2.183.846-3.563-3.725-5.437-16.588-25.345-14.488-31.92-2.671-3.334 10.15-2.85 14.608 1.358 24.042l-12.067 6.704-.029 1.996-7.429 3.546-1.546-1.05c-34.55 16.683-68.412 34.054-103.658 50.037 0 0-18.721 31.054-35.85 43.408l-.671-105.466L133.8 309.61l-.246 25.096s2.438 2.546 3.65 3.829c.696 176.558.108 350.246.217 510.537l.241 147.555-3.1.183-.162 17.21 3.492.78-.488 24.31-1.812.12-.263 15.38 2.763.43-.046 86.86-2.738 3.52.059 24.79 52.966-50.33 1.188-57.23c41.779 7.89 85.45 37.9 85.45 37.9-7.354-47.94-58.171-87.45-87.359-95.34l.092-113.592s-21.7 9.05-32.417 10.434c-5.312.754-7.354-.05-9.887-3.884-1.85-2.791-1.896-5.337-.225-11.121.779-2.691.754-3.4-.221-6.12-1.362-3.809-1.379-5.53-.037-12.263 1.4-3.95.779-6.067-.688-9.725-1.575-3.921-1.696-4.654-1.025-6.908 1.771-5.95 1.875-6.909.946-9.567-1.825-5.192-1.883-8.937-.2-12.308 7.812-13.109 25.321-9.871 34.821-9.404 4.812 5.358 7.687 8.345 8.133.587 3.371-9.267 16.446.221 22.55 4.158 51.975-69.645 77.613-163.933 12.413-281.945l-36.271 29.025.083-36.33c48.096-30.908 102.204-101.179 125.638-156.591 7.791 9.129 16.737 18.104 25.175 27.308l-5.513 9.221-1.629-.921c-14.921 28.467-55.438 82.313-56.096 81.763 15.004 27.795 28.358 55.862 39.713 84.258l2.979-1.333 2.654 8.558-5.246 1.567c17.75 58.212 18.329 112.108 4.975 161.816l3.133 13.204s18.771 18.188 23.838 23.53a69213.614 69213.614 0 0 1 27.975 27.112l17.137-16.775-.991-1.429L539.65 648.381l9.367 8.958c-92.013 92.658-251.825 252.654-251.825 252.654l-5.542.804c-3.146.463-7.804.671-10.771.463-4.892-.338-5.492-.229-9.408 1.633-4.417 2.1-8.063 5.209-12.946 11.05-2.238 2.675-3.771 3.829-6.246 4.721-31.321 18.675-3.004 56.288 23.638 36.488 19.529 37.308 36.058 80.758 45.179 123.738 0 .32-3.509 1.51-3.509 1.51l-70.2 104.1h27.005l2.82-4.79h-20.241l64.587-93.29c82.171 22.39 157.584 25.57 234.121 12.25l66.625 81.04h-26.425l3.763 4.79 34.195.54-78.308-92.41c-28.033 7.5-101.992 13.53-148.379 5.68-7.096-34.47-18.792-71.92-27.454-101.73 44.279-34.653 11.033-80.399-16.288-86.778-1.325-2.509 55.404-36.992 95.821-34.6 11.575 27.795 36.913 23.675 46.013 2.995 16.762 6.155 38.512 12.296 55.779 26.03-23.025-5.046-49.709-7.805-71.663-8.142 41.767 16.196 53.484 50.321 58.625 82.512.909 5.338 3.771 12.223 3.771 12.223 3.558-11.618 6.463-23.623 13.471-33.573 3.221 11.38 15.079 20.221 27.025 13.455 6.937-5.021 9.346-13.642 7.154-25.559a407.302 407.302 0 0 1-.921-5.129l9.279-5.021 1.213 1.029s10.171-4.341 15.217-6.795c.791-.388-.93-1.967-.93-1.967l93.842-44.254c-.354-.196 23.658-32.979 37.442-45.625.412 39.283.316 55.425.291 102.066l5.296 5.175c4.704 4.588 14.954 14.105 38.042 35.321 5.204 4.775 8.837 7.142 8.837 7.142l-.708-686.938h-.775l-.012-13.22 1.083-.055.021-34.375-.975-.562-.004-10.829 1.287-.946.092-92.788-1.492-.254-.087-22.254-52.309 55.317.396 52.166c-23.342-3.016-52.221-17.954-72.104-30.008-6.417-3.917-10.008-4.958-9.8-2.717 2.787 31.059 47.754 78.559 82.304 90.988l.063 116.846c0 .062 8.158-4.079 13.141-6.175l.746 2.083 11.138-4.617.908-2.404 9.654-1.216c.104 1.97.438 1.7.438 1.7 8.604 2.404 12.412 8.275 8.945 14.862-1.212 2.213-1.441 5.342-.445 6.163 3.733 5.883 4.708 11.07.2 16.633-1.734 2.846-1.721 4.454.066 7.475 4.654 9.392 2.009 8.767-1.487 14.358-.796 4.229 3.837 6.979 2.312 10.954-.716 2.625-3.479 5.7-5.358 7.092-2.2 1.592-4.008-1.367-4.008-1.367s-6.971 2.992-11.984 3.946c-4.925 1.596-13.412 4.459-16.35-2.179-1.683-3.796-.329-7.271-.446-11.517l-7.233-.787-.254 19.296c-4.138 2.196-20.588-6.209-20.588-6.209-70.562 91.463-68.587 192.905-16.25 277.888.509 1.367 36.875-24.871 36.875-24.871s-.07 21.508.238 33.171c-46.225 38.229-90.883 89.679-122.808 153.1l-19.78-23.446c3.409-3.004 3.538-7.771 3.467-11.375l14.358-21.408.125-5.563 37.334-52.15c.587 3.121-38.521-70.021-43.729-93.829l2.587-.7c-17.55-66.404-13.954-112.904-1.279-167.062l-3.613-3.496-49.262-49.192a2696.913 2696.913 0 0 0-11.971 11.129c-.604.567-3.608.234-4.221.8-25.925 24.309-50.846 48.709-75.512 74.054-.638.659.433 3.359-.2 4.017-24.709 25.45-50.325 49.596-75.329 75.004l-9.134-8.708c88.55-88.517 255.35-252.933 255.35-252.933s.721-1.3 1.875-1.346c4.642-.179 8.792-1.229 13.375-2.559 5.496-1.275 6.384-1.683 8.7-4.066 1.417-1.463 3.738-3.513 5.154-4.559 2.409-1.77 7.942-6.412 16.575-13.933 5.28-4.592 8.534-11.283 8.417-17.258-.2-10.634-7.242-19.704-16.312-21.009-3.767-.533-11.159 1.425-14.905 3.95-2.854 1.93-4.195 2.805-5.42 1.946-18.071-36.646-35.659-82.737-43.113-120.766-.4-2.4-.183-3.109 1.771-6.125 1.217-1.875 3.867-6.013 5.904-9.2 16.15-23.359 34.883-51.734 52.458-77.338a6662.928 6662.928 0 0 1 8.584-12.446l4.287-7.037h-27.862l-3.442 5.479h22.938l-68.221 98.187c-125.725-41.095-228.746-15.045-231.217-14.483l-67.962-83.704H353.3l-3.771-5.479zm61.183 0l3.463 5.479h32.604l-1.85-5.479zm54.375 5.479h20.1l-1.154-5.479h-20.621zm35.975-5.479l1.275 5.479h81.729l1.45-5.479zm99.929 5.479h20.475l1.542-5.479h-20.592zm40.525-5.479l-1.754 5.479h46.429l3.48-5.479zm198.546 37.891l.729 15.221-33.475 35.275.038 49.254-9.742-2.258-.387-50.904zm-9.383 32.442c.283 15.088-2.158 29.55 1.829 44.933 1.967 7.571 5.95 16.446 6.446 25.396l-11.042-.262c-1.396-4.517-1.946-9.5-3.6-15.063-4.075-13.712-7.379-28.162-4.371-42.696zm-240.971 24.608c.4.75 1.721 7.121 2.946 13.034 5.792 32.454 13.558 56.537 21.483 81.041 10.075 30.88 24.979 69.755 39.475 87.767 1.921 2.25 2.863 4.808 2.171 5.921-1.167 1.887-7.083-.746-11.05-4.929-1.633-1.713-4.75-6.517-7.05-10.821-5.067-9.479-11.875-23.271-12.55-25.454-.275-.884-2.946-7.704-5.942-15.146-5.237-13.021-8.345-21.933-12.729-36.413-3.471-11.483-6.675-23.504-10.55-35.604-6.341-19.791-10.008-35.533-13.533-53.733-.521-2.671-1.413-5.792-1.083-6.429 2-1.446 7.45-.867 8.412.766zm3.542 1.234c-.625-.525 5.758-.625 7.8 1.087.604.604 1.687 4.413 2.616 9.304 5.767 29.859 14.455 60.709 24.546 89.942 8.071 23.354 16.879 45.842 27.854 64.046 3.442 6.067 8.1 12.55 14.038 19.554 3.325 3.925 3.596 4.479 2.7 5.554-1.1 1.329-3.021 1.163-6.729-.6-3.454-1.641-7.196-5.233-10.709-10.308a605.258 605.258 0 0 0-4.066-5.8c-16.196-27.992-26.017-54.583-34.925-81.588-9.134-27.691-17.342-55.695-22.925-87.97-.063-1.075-.125-2.146-.2-3.221zm20.341 4.208c1.417 1.442 2.23 4.2 3.467 9.971 6.742 27.679 12.258 52.417 20.217 75.137 4.287 12.221 8 24.434 12.591 35.95 7.334 18.392 16.313 35.15 27.346 49.105 3.642 4.587 10.246 10.258 15.788 13.55 3.85 2.283 4.425 2.862 4.171 4.191-.334 1.184-4.084 1.679-5.317 1.592-6.071-1.038-15.042-5.742-17.6-9.229-18.558-20.05-31.829-52.871-41.496-79.8-16.608-46.354-30.008-104.263-27.462-102.463-.167-1.346 6.65.2 8.295 1.996zm7.98 1.671c.6.012 1.275.117 2.033.325 3.471.946 3.921 1.429 4.75 5.254 5.937 26.471 12.221 49.817 19.233 72.021 7.142 22.596 14.479 43.904 25.921 66.258 8.388 16.313 19.008 27.584 30.429 33.288 3.284 1.641 6.209 3.216 6.509 3.504.3.296.212 1.15-.18 1.896-.604 1.129-1.3 1.354-4.091 1.308-5.184-.092-8.817-1.7-14.379-5.437-14.584-10.063-27.338-32.838-32.971-45.759-6.863-15.762-13.171-32.146-18.871-50.004-10.213-32.05-16.579-53.254-21.246-80.296 0-1.554 1.058-2.391 2.863-2.358zm218.595 43.262l-.104 9.384c-36.729 2.437-74.383-13.092-104.654-27.067 22.8 30.246 47.142 57.083 104.654 62.625l.104 9.683c-74.912-1.054-127.67-76.916-124.891-95.82 30.804 19.9 86.466 42.916 124.891 41.195zM593.604 213.81c1.8.079 4.229.846 5.175 1.792 6.125 22.854 10.583 48.225 20.7 73.691 12.438 31.292 19.333 58.909 42.396 84.688 7.171 7.366 21.225 7.146 21.225 7.146s-1.771 3.991-4.167 4.654c-4.937.746-8.521.971-12.125-.196-13.35-5.638-23.566-19.904-28.837-29.571-4.938-7.246-16.988-37.096-26.925-67.529-10.821-33.129-19.729-67.579-18.709-74.513.38-.145.663-.187 1.267-.162zm12.342 3.846c.883.004 2.058.337 3.466 1.008 1.505.717 2.159 1.163 2.942 3.988.508 1.841.425 4.691 1.325 9.325 5.208 23.858 12.388 43.233 19.517 62.108 6.771 17.937 14.041 35.537 23 51.454 4.525 8.017 9.008 15.521 11.846 18.35 7.712 7.721 20.808 8.1 24.67.442 2.138-4.354 1.7-11.246-2.533-14.821-3.287-3.133-10.725-1.804-10.925 1.971 0 1.008 1.85.562 4.529.246 7.492-.871 9.838 12.387.209 14.595-12.196 2.805-20.655-13.679-9.892-23.779 18.242-12.366 32.162 4.529 27.854 20.784-4.167 9.604-11.146 14.5-20.362 14.841-11.896.379-16.817-3.3-29.017-21.029-13.988-22.437-20.058-44.35-29.913-68.892-9.316-23.216-15.525-47.966-18.45-69.583.259-.671.85-1.008 1.734-1.008zm11.571 3.833c1.075.038 3.341.604 4.341 1.221.6.371 1.459 1.196 1.459 1.196 16.4 59.846 30.075 95.696 44 121.004 0 0-.225 4.65-1.15 5.971-1.659 2.366-2.471 1.787-4.634-1.959-8.758-16.954-17.1-35.675-24.871-54.979-9.145-22.712-17.266-46.225-20.708-68.591.183-2.884-.462-3.692 1.563-3.863zm110.637 34.213c2.321 0 4.208 1.866 4.208 4.187s-1.887 4.208-4.208 4.208c-2.317 0-4.208-1.887-4.208-4.208s1.891-4.187 4.208-4.187zm-340.804-.767c-4.858 6.621-8.846 30.346-13.904 30.633-5.563-.087-12.338-3.283-16.709 1.75-5.3 6.117-2.045 12.871 4.496 16.596 3.009 1.488 9.409 1.842 13.292.725 15.912-5.337 21.967-31.158 12.825-49.704zm356.712 6.221c3.359 0 6.063 2.733 6.063 6.083a6.053 6.053 0 0 1-6.063 6.063 6.052 6.052 0 0 1-6.058-6.063c0-3.35 2.704-6.083 6.058-6.083zm-356.429 2.883c5.446 13.675-.579 30.033-7.204 35.546-6.104 5.071-15.679 5.721-21.15.783-4.558-4.279-2.525-14.558 5.963-13.796 2.858.096 6.254 2.692 8.175 5.438 5.529.571 11.904-27.475 14.216-27.971zm377.579 3.342a6.846 6.846 0 0 1 6.846 6.85 6.845 6.845 0 0 1-6.846 6.846 6.85 6.85 0 0 1-6.85-6.846 6.85 6.85 0 0 1 6.85-6.85zm24.246 4.833a6.992 6.992 0 0 1 6.992 6.988 6.993 6.993 0 0 1-6.992 6.991 6.986 6.986 0 0 1-6.987-6.991 6.986 6.986 0 0 1 6.987-6.988zM563.8 303.993c1.042-.004 1.771.996 2.454 3 1.417 4.171 1.388 4.663-.825 7.45-21.5 29.754-1.9 60.179 29.238 63.479 2.629.188 3.954 3.146 5.337 6.588-.187 1.629-.2 1.625-7.271 1.754-4.621.083-8.316-.208-10.633-.825-10.908-2.937-24.275-12.8-29.742-21.933-6.296-10.529-7.354-21.413-3.466-35.925 2.495-9.321 5.658-15.471 10.558-20.546 1.95-2.025 3.304-3.033 4.35-3.042zm203.767 3.304l.366 102.088-10.879 3.967.446-108.571zm20.575 3.938c13.545 33.633 14.145 64.467 1.916 92.512l-12.354 1.788c16.946-39.513 9.738-67.8.167-95.104zm-649.771 5.608l43.983 41.509 1.533 462.42-7.012-2.475-2.796-454.833-35.708-32.746zm429.533 1.325c.071 0 .15.013.221.025 1.179.146 2.254 1.625 3.246 4.429 1.158 3.309 1.141 3.405-.163 6.692-6.037 14.788-1.112 28.863 13.792 33.304 3.542 1.121 4.133 1.696 6.208 6.084 1.346 2.85 1.954 3.879 1.429 4.512-.779.567-2.675.829-8.279-.379-22.179-7.567-30.225-31.825-20.141-51.075 1.258-2.204 2.412-3.396 3.466-3.567.071-.012.15-.025.221-.025zm-176.583-1.829s4.633 16.371 4.187 20.083c-1.171 7.171-11.366 18.63-20.279 22.813-8.267 3.171-20.75 1.579-25.979-3.925-18.979-22.217 16.429-44.513 25.333-21.392 5.35 15.179-16.412 18.767-17.379 7.109-.008-3 .967-3.942 3.771-5.896 2.487-1.738 2.204-3.288.058-3.288-8.221 3-8.404 10.579-4.712 15.354 7.404 7.738 16.571 3.234 22.883-2.45 8.5-7.658 10.171-18.637 12.117-28.408zm183.641 16.883c.43 0 9.13 20.788 10.28 23.75-.284 2.088-2.559 1.934-6.442-.779-3.942-2.746-5.117-4.691-6.783-11.071-.505-2.27-1.35-10.525 2.945-11.9zm-176.57 8.771c1.912 0 3.904 7.042 3.004 10.638-1.567 6.237-17.913 16.775-29.388 18.95-2.304.441-4.771.904-5.479 1.025-2.371.425-5.142-.9-8.037-3.846-2.038-2.075-3.005-4.138-2.513-4.629.4-.396 5.663.516 10.125.446 12.508.15 22.163-8.821 29.588-19.521 1.133-1.684 2.345-3.063 2.7-3.063zm-248.621 5.209s8.466 7.662 12.929 12.058c-.479 20.383-8.004 42.492-8 60.717.179 15.858 10.442 29.058 11.483 42.854.621 8.929-2.004 22.183-6.404 32.225-4.1 9.35-6.25 19.321-6.246 29 .521 22.529 16.704 47.162 11.021 69.441-5.342 20.938-11.421 33.03-9.808 44.146 3.104 21.454 14.512 40.467 11.479 58.304-2.825 16.613-10.333 33.209-9.525 48.192.925 17.304 7.396 31.767 9.221 47.554 1.191 10.275-1.717 26.271-1.717 26.271l-11.862.971c6.52-24.3-3.196-46.271-6.921-69.638-3.171-19.891 5.741-35.716 8.396-52.687 1.65-10.538-.217-20.571-5.438-33.996-10.321-24.779-6.608-40.929.825-62.512 9.196-22.98-3.45-41.175-6.608-63.196-1.617-18.971-.354-32.392 6.766-49.263 5.317-16.241 6.813-25.654-1.108-41.246-5-9.845-6.308-15.666-6.321-28.633 2.592-25.733 9.534-40.162 7.838-70.562zm254.279 10.262c1.842 0 2.758 1.3 2.758 3.929 0 4.8-7.162 10.879-19.816 16.834-6.563 3.087-10.38 3.55-14.217 1.733-3.583-1.696-3.413-3.183.521-4.329 9.9-2.888 16.916-6.838 24.916-14.017 2.538-2.283 5.175-4.15 5.838-4.15zm-57.279 3.313c32.654 34.954 64.675 52.941 89.158 61.35l-3.854 9.133c-32.163-12.458-64.971-29.792-92.767-67.042zm62.916 5.708c.884 0 4.209 4.217 4.209 5.342 0 .65-1.213 2.766-2.7 4.666-2.159 2.771-4.067 4.196-9.459 7.154-7.316 4-11.729 4.98-14.908 3.3-3.15-1.662-2.087-3.062 5.779-7.687 4.067-2.392 9.488-6.246 12.046-8.567 2.558-2.312 4.817-4.208 5.033-4.208zm-86.5 5.154c26.755 36.608 61.205 60.929 101.705 73.9l-6.367 8.613c-37-12.75-73.179-35.809-106.242-76.413zm93.43 4.513c1.345 0 4.37 3.416 4.37 4.937 0 .729-.595 2.067-1.308 2.983-1.433 1.817-8.9 7.43-12.083 9.08-2.488 1.291-4.359 1.27-7.071-.084-3.217-1.596-2.671-2.946 2.575-6.321 2.575-1.65 6.458-4.725 8.646-6.804 2.183-2.091 4.375-3.791 4.871-3.791zm-107.621 2.666c-.759.963-39.388 89.434-121.221 152.159l-.388-14.692c45.334-35.95 78.288-85.167 103.146-128.146zm115.391 6.354c1.238-.029 2.117.809 2.984 2.463 1.037 1.975-.096 3.733-4.671 7.187-2.863 2.159-3.925 2.584-6.283 2.538-6.092-.108-5.938-1.579.745-7.55 3.471-3.1 5.634-4.592 7.225-4.638zm158.038 4.38l17.058 1.308c4.596 3.196-66.671 49.833-116.083 45.654l1.308-11.175c43.379 1.229 98.9-33.779 97.717-35.787zM436.1 393.914c3.917 2.196 8.8 4.796 7.583 5.646-1.816 1.133-13.383.4-16.054-1.033-1.992-1.063-1.879-1.625.871-4.709 3.362-3.783 3.95-1.933 7.6.096zm-152.063-2.779c-27.029 47.692-59.225 91.217-96.495 119.579l-.496-25.221c35.471-27.308 62.321-77.183 62.391-77.358zm338.575 3.042l8.263 4.829c-51.546 47.708-107.213 68.275-160.708 63.125l4.295-9.667c86.817 6.854 144.463-57.367 148.15-58.287zm12.53 1.695s2.77-.354 2.475.213C620.5 412.86 597 430.764 581.612 440.752c-72.883 74.85-135.266 133.912-198.754 200.583l-10.15-10.621 9.192-9.725c.025-19.204 23.546-40.75 37.496-57.337 5.816-6.555 16.746-23.425 15.508-30.509-.425-1.625-.483-2.237-.483-2.237 22.062-4.409 27.341-22.292 27.812-38.104 1.029-10.571 2.442-20.175 6-28.863 99.834 8.004 164.163-65.496 166.909-68.067zm-173.975 11.034c11.325-.038 19.883 8.925 19.858 21.633-.096 5.313-1.967 9.346-9.171 23.4-6.979 12.013-7.887 19.321-10.629 33.196l-7.096-6.371-12.908 11.633.183-16.95s4.45-5.658 11.65-13.741c9.125-10.129 17.383-23.175 17.008-30.496-.245-7.325-7.987-13.296-15.904-8.508-6.879 4.808-10.054 13.508-14.104 39.512-.721 4.608-1.392 10.038-1.762 11.221-1.021 3.196-10.971 12.612-10.971 12.612-.846 0-4.775-19.087-4.775-19.087l-10.054 1.654c11.65-12.637 20.687-27.892 26.558-43.854 5.4-9.854 12.271-15.75 22.117-15.854zm-218.738 4.046s-20.017 41.583-55.15 68.625l-.233-16.28c20.416-15.829 35.975-43.116 35.95-43.058zm481.75 1.058c-69.479 71.942-160.162 204.412-47.621 390.512l14.863-17.15c-90.617-168.312-26.396-255.554 33.25-343.087zm-375.696 5.933c20.346 14.463 41.579 28.821 69.034 37.95-1.463 4.888-39.209 36.654-12.121 66.025 1.133 1.538-1.746 5.275-6.163 10.579-12.937 17.684-25.854 30.28-36.666 50.184l-.446 37.4-10.813-9.546zm373.021 3.442l.467 21.333c-103.234 125.459-91.604 238.425-33.254 342.479l-11.175 11.338c-95.646-164.617-35.975-288.713 43.962-375.15zm-254.671 12.621c-4.558 12.016-24.462 32.616-24.462 32.616s2.633-20.058 4.296-26.383c1.262-4.829 4.125-11.358 6.95-14.483 8.033-8.834 16.05 1.2 13.216 8.25zm-136.966-11.279l1.933 168.095-14.508-14.629-2.138-128.537zm-19.6 32.895l2.887 114.134c-14.487-34.196-34.846-71.625-35.25-71.267 0 0 16.658-22.096 32.363-42.867zm114.604 35.709s2.212-1.859 5.683-5.838c7.529-7.608 8.204-7.658 7.508 2.596-.262 3.942-.037 9.004-.037 9.004 4.404-2.558 14.792-14.825 17.725-12.612 2.267 2.133 4.104 6.571 4.15 13.475-.258 13.512-7.904 25.925-20.025 29.966-33.446 10.363-55.883-28.212-32.654-52.679 2.312-2.429 8.887-6.925 12.05-6.037 3.912 7.146 3.779 15.079 5.6 22.125zm331.887-12.125c1.946 5.325 4.434 10.591 11.213 12.966-1.038 163.446-.263 452.796-.263 452.796l32.867 30.838-.213 13.475-43.558-39.875s-2.342-341.229-.046-470.2zm32.642 7.575c1.171 15.808-1.508 32.462 1.204 48.696 2.679 11.233 6.742 21.358 7.071 32.404.3 10.104-.354 15.858-4.675 29.966-3.008 9.855-3.313 11.421-4.008 21.267-1.621 13.713 2.812 26.133 6.208 37.058 4.517 14.488 3.258 32.005-3.971 55.1-2.596 8.313-3.092 11.821-2.721 19.355 1 15.82 6.654 30.854 9.534 46.379 1.554 8.9-.038 20.541-5.525 40.279-2.034 7.35-4.188 20.142-4.188 24.975 0 5.187 1.663 14.958 3.267 19.171 7.6 19.979 7.975 23.558 8.358 35.562.058 9.017-2.546 18.138-5.742 26.071-5.329 12.675-1.829 25.688 0 39.933l-13.1-11.191c-3.866-12.196-2.508-23.6 1.075-32.696 5.1-14.233 6.375-15.554 6.305-23.746-.096-10.867-6.325-23.712-8.9-31.354-4.575-13.558-4.592-26.863-.042-41.2 2.233-7.046 5.462-20.863 6.183-26.467 1.392-10.779.342-19.291-5.075-40.925-2.641-10.55-3.2-14.625-3.383-25.133-.171-9.733 1.246-19.846 4.371-31.579 4.5-18.638 4.446-29.834-1.413-47.125-4.733-14.292-6.062-23.988-4.85-35.367.7-6.6 2.504-12.792 5.534-18.967 5.616-14.016 6.47-27.42 2.304-40.808-7.188-27.383-7.067-41.296-6.363-66.017zm-36.821 8.962c-1.137 112.004.021 240.234.021 240.234s-33.175 23.229-33.046 22.02c-42.754-70.5-59.046-174.35 15.625-268.012 0 0 12.021 5.129 17.4 5.758zm-504.625 26.696c60.508 112.979 68.383 227.121-31.671 344.213 3.225 10.35 2.704 20 1.096 29.441 19.504-15.187 175.921-171.416 44.188-388.95zm308.35-9.196l29.721 1.746 2 25.567-9.608 9.525s-.175-5.288-.305-10.009c-.15-5.783-.966-10.833-1.508-10.654-.496.163-1.046 6.9-1.471 14.254l-.441 10.975-3.321 3.325c-4.434 4.43-5.329 4.08-5.504-2.15-.367-13.558-.334-14.487-1.325-13.495-.555.554-.871 5.195-1.009 12.204-.108 5.562-.5 10.891-.862 11.841-.754 1.938-6.404 6.984-7.838 6.984-1.379 0-1.3-1.959-1.308-10.388-.004-7.112-.754-11.021-1.892-8.396-.271.617-.75 7.688-.846 13.43-.104 5.741-.479 10.987-.825 11.637-1.237 2.308-7.07 7.246-8.095 6.854-1.475-.571-1.842-4.791-1.796-11.846.025-3.454.566-6.375-.763-7.308-1.333-.937-1.571 3.058-1.212 13.213L538 591.589l-3.729 4.067c-5.904 6.079-6.313 5.787-6.325-4.713.266-8.312-.029-11.958-1.667-11.304-1.646.667-.987 4.679-.667 12.871.292 7.321.196 10.996-.3 11.925-.4.737-2.316 2.9-4.254 4.792-1.933 1.891-4.325 4.512-4.608 4.512-.45-8.821-1.213-27.817-1.213-27.817l-30.991-1.362s6.35-7.538 9.041-8.988c1.4-.745 3.592-.837 11.355-.5 5.3.23 12.42-.22 13.058-.466 2.325-.896-2.525-1.692-9.371-2.134-4.562-.325-5.75-.204-10.812-.945l4.508-4.655 3.383-3.362 9.896.321c5.979.2 10.425.171 11.117-.217 5.85-1.154.366-2.487-6.309-2.5-6.512-.008-10.191-.021-10.191-1.45 0-1.45 7.291-8.062 9.366-8.496 1.075-.225 6.371-.446 11.78-.483 9.3-.079 12.67-.213 12.145-1.754-.52-1.546-6.675-1.088-10.775-1.267-11.375-.021-11.9-.446-4.129-7.25l3.771-3.308 7.125.208c10.763.3 15.971-.129 15.971-1.15 0-.921-7.004-1.817-12.946-1.817-3.558 0-6.446.067-6.446.067 2.654-3.462 5.504-6.271 8.617-9.346l9.608-.179c7.013.1 11.317.367 11.442-.912.112-1.28-2.517-1.267-5.742-1.288-4.366-.025-9.546-.4-10.229-1.087-.733-.738.638-2.784 3.688-5.517zm-294.237.334c83.137 135.808 53.125 282.558-39.575 373.9l-2.721-17.83c87.521-106.416 102.8-216.3 32-345.583zm154.608 18.233c-14.921 22.446-37.746 44.583-46.358 62.912-1.763 2.063-2.338 6.709-5.075 7.638-1.367 0-1.813-2.588-1.471-8.579.258-4.513.683-6.025 2.862-10.434 11.779-21.5 25.429-36.954 40.496-57.379zm3.5 2.179l13.796.875c-3.067 9.758-7.204 16.725-12.084 23.058-6.262 8.121-13.791 16.305-22.562 26.296-12.708 14.475-19.075 29.204-18.483 35.684-3.175 3.35-5.388 5.662-9.421 9.091l-8.05-7.396c5.966-30.608 34.866-58.725 56.804-87.608zm168.796 12.425l4.475.263c15.296.895 24.841 1.829 25.391 2.495.342.413.784 2.763 1.009 5.217.329 3.733.016 6.213-1.959 15.1-1.287 5.854-2.737 11.042-3.22 11.525-1.759 1.783-2.463.004-3.28-8.3-.495-5.008-.691-8.662-1.35-8.258-.312.196-1.004 5.575-.804 9.591.509 10.442.446 13-2.804 16.15-5.683 5.517-5.992 4.955-6.425-4.833-.175-4.062-1.142-9.983-1.425-10.275-1.229-1.229-1.642 4.404-1.654 13.921v10.146l-2.7 2.946c-3.521 3.812-4.663 4.395-5.954 3.1-.809-.8-.513-2.542-.513-8.342 0-6.792-1.183-10.708-2.475-9.4-.241.242-.3 6.817-.321 12.546-.02 5.729-.091 10.796-.162 11.258-.213 1.375-6.654 7.85-7.808 7.85-1.363 0-2.442-7.475-2.442-13.592 0-4.087-.871-4.8-1.729-2.558-.221.563-.388 6.296-.388 11.438v9.345l-3.783 3.905c-5.063 5.241-5.888 4.937-5.9-2.23-.017-6.179-.429-9.445-1.671-9.445-.717 0-.887 2.925-.887 9.866 0 4.763-.313 9.471-.684 10.471-.375 1-2.037 3.192-3.687 4.875-1.65 1.688-3.346 3.058-3.763 3.058-.704 0-1.696-5.85-1.433-8.379.054-.525.058-4.212 0-8.187-.133-9.5.508-9.096-14.642-9.571-17.779-.563-18.037-.667-12.687-5.842 5.083-4.916 4.366-4.733 16.15-3.95 9.466.634 10.612.596 11.558-.358.583-.583.913-1.213.729-1.392-.179-.183-3.787-.512-8.016-.741-11.709-.655-12.73-1.496-7.771-6.446l2.796-2.821h11.979c8.091 0 13.591-.358 13.891-.842.78-1.254-2.433-1.562-10.12-2.016-4.13-.242-8.017-.584-8.642-.767-1.954-.579-1.225-2.55 2.075-5.638l3.183-2.983h10.571c9.821 0 14.621-.637 14.621-1.933 0-.917-1.95-1.284-6.983-1.346-7.13-.092-11.884-.783-12.209-1.754 1.742-3.367 4.146-5.246 6.95-8.059l10.754.388c10.825.379 14.217-.004 14.217-1.896 0-.983-4.633-1.692-10.633-1.325-3.859.233-8.538-.696-8.538-2.058 0-.584 1.55-2.621 3.467-4.509l3.479-3.425 10.538.421c5.87.238 12.141.179 12.604-.141 1.754-1.2-2.309-2.134-8.917-2.513-10.204-.596-10.875-1.387-5.479-6.492zm-367.267 5.638c54.575 97.712 46.396 189.775-11.717 268.116-6.675-3.887-13.783-6-21.387-6.808l-1.471-235.929zm390.288 38.183c1.087-.167 1.07 1.633.766 5.421-.25 3.041-.708 6.233-1.029 7.087-.625 1.65-1.125 1.721-6.425.967-6.033-.863-5.95-1.95.688-8.479 3.208-3.159 5.033-4.846 6-4.996zm-292.971 4.392s7.191-.046 10.779.083c0 0 .562 18.283 2.029 28.833l23.388 1.121-9.08 9.442-17.733-.563s-5.396-25.95-9.383-38.916zm278.708 11.058c3.292-.058 11.942 1.425 12.954 2.433.788.796.813 2.746.117 14.542-.25 4.254-.504 13.392-.563 20.3-.1 12.517-.1 12.567-1.55 12.771-1.908.271-2.12-.396-2.637-8.642-.292-4.637-.929-8.7-1.471-8.879-.625-.208-.567 3.887-.567 12.346v10.933c-1.862 1.546-3.583 3.588-5.716 4.671-1.309 0-2.009-2.05-2.663-7.771-.641-5.679-1.266-9.687-2.029-8.417-.179.296-.108 6.484.258 11.559l.663 9.241-4.104 4.134c-4.213 4.246-4.742 4.596-5.421 3.5-1.563-4.209.658-23.5-3.138-25.942-.612-.317-5.65-.458-11.504-.7-9.871-.421-15.471-.583-16.85-1.775-.837-.721 3.825-6.129 6.217-7.208 1.729-.784 3.679-.825 11.825-.279 9.425.625 14.179.562 12.929-.646-.329-.313-5.125-1.017-8.879-1.392-7.579-.754-10.254-1.512-10.254-2.917 1.766-3.133 3.929-4.975 6.529-7.658l3.658.388c2.017.2 6.788.708 10.596 1.145 3.808.434 11.504.505 8.396.238 1.012-1.004-2.917-2.042-8.375-2.717-10.279-1.271-11.217-2.437-6.042-7.529l3.184-3.125c5.404.413 10.854.55 16.208 1.371 3.921.621 6.046.4 6.046-.925 0-.929-1.95-.892-6.688-1.829-1.716-.342-10.571-.217-10.712-2.825 2.087-2.892 5.825-8.167 9.583-8.396zM358.075 627.86c1.562-.092 1.642 3.729 1.808 13.829.184 11.067.363 12.975 1.309 13.921.908.904 3.179 1.217 12.891 1.712 14.871.755 15.254.967 10.009 6.021-3.65 3.513-3.805 3.067-6.809 2.721-7.854-.921-19.346-.708-19.796.017-.775 1.258.063 1.508 7.25 2.058 8.746.663 11.138.971 11.138 2.454 0 .65-1.492 2.571-3.3 4.267l-3.308 3.087-9.2-.366c-9.688-.396-14.663-.529-14.663.783 0 .8 5.529 1.679 14.3 2.542 2.275.225 4.608.262 4.729.646.317.95-4.112 6.437-6.841 8.47-2.225 1.667-2.98.738-12.692.53-9.917-.213-10.775.162-8.921 1.991.442.438 2.079.492 5.783.75 6.063.425 8.975 1.334 8.975 2.834 0 1.437-5.47 7.104-8.033 8.32-2.258 1.071-3.229 1.121-8.237.425-3.946-.554-4.692-1.379-4.588-5.079.046-1.666.333-12.471.642-24.025.587-22.304.775-23.437 3.725-23.021 1.258.184 1.554 1.705 1.896 9.267.354 8.05.695 9.642 2.029 9.642.504 0 .583-3.188.266-10.954-.491-12.038-.508-13.83 3.159-17.317 1.637-1.554 2.937-2.796 3.712-1.671 1.55 4.75 1.109 9.938 1.563 14.7-.042 4.796 1.825 5.8 2.258 1.233-.221-7.25-.271-13.754-.325-21.491l4.475-4.429c2.358-2.346 3.846-3.817 4.796-3.867zm-28.983 9.021c1.77-.296 11.729-.129 13.175.2-2.509 3.958-7.838 9.108-11.488 11.375-.912.054-1.862-9.596-1.687-11.575zm281.887 21.887l2.121 14.888-16.254-1.109zm-218.996 2.421a.645.645 0 0 1 .284.042c1.175.441 1.508 3.316 1.975 17.133.216 6.513.67 11.604 1.07 12.088.467.566 2.492.841 6.263.841 3.054 0 8.821.196 12.804.425 8.696.504 8.925.867 3.75 5.984l-3.504 3.466-10.896-.446c-11.171-.458-13.033-.27-13.033 1.271 0 1.042 1.908 1.538 5.479 1.45 1.417-.041 4.975.146 7.892.417 6.529.612 6.658 1.104 1.791 6.35l-3.496 3.762-3.412-.462c-5.471-.754-19.846-.567-20.679.262-1.342 1.342.404 1.913 6.946 2.313 10.158.621 11.925.925 11.925 2.075 0 .562-1.438 2.462-3.18 4.208l-3.162 3.167-12.892-.663c-9.033-.158-12.121 0-12.325.58-.35 1.016 1.134 1.333 10.45 2.3 8.954.92 10.254 1.841 6.85 6.075-3.737 4.654-5.141 5.175-12.183 4.495-7.75-.75-15.667-.77-16.817-.041-1.783 1.129.046 1.887 5.559 2.296 8.345.625 13.208 1.512 13.208 2.737 0 1.379-2.758 4.929-5.433 6.967l-2.196 1.675-9.525-1.004c-9.488-1.013-14.346-.509-12.992.845.392.392 3.925.946 7.838 1.23 7.158.516 10.708 1.445 10.708 2.92 0 .438-1.825 2.605-4.046 4.813-2.254 2.237-4.787 3.721-4.787 3.721l-29.325-2.638s-1.5-5.233 1.445-19.45c2.655-12.825 3.742-15.7 5.013-13.312.354.662.683 3.775.929 5.9.592 5.146 1.854 8.379 2.617 8.379.854 0 .85-3.063-.259-10.254-1.545-10.025-1.72-10.421 2.092-14.463 3.275-3.458 5.125-4.271 6.142-2.7.291.446.679 4.988 1.071 8.804.683 6.705 1.079 8.242 1.954 7.375.558-.57.979-2.483.358-12.425l-.783-9.67 4.291-4.367c3.917-3.996 4.371-4.275 5.155-3.25.541.708 1.141 4.858 1.433 9.808.417 7.321 1.004 9.725 2.067 8.663.508-.504.258-17.117-.275-20.963-.355-2.516-.184-2.883 2.995-6.446 3.788-4.245 5.775-6 6.813-6.025 1.358-.025 2.1 4.142 2.112 9.692.009 5.917.471 8.254 1.025 8.996 1.425 1.908 1.584-4.767 1.25-11.375l-.387-12.042 3.912-3.908c3.692-3.7 3.996-3.858 5.034-2.821.858.863.8 2.904 1.146 8.983.525 8.405 2.166 12.5 2.645 6.663.242-1.313.205-3.888-.087-5.717-.288-1.829-.533-5.975-.521-9.2.013-4.925.25-6.233 1.45-8.179 1.733-2.812 6.85-7.192 8.454-7.35zm169.4 9.158s6.542 5.596 6.542 7.192c0 .713-2.592 3.783-6.104 7.233-6.471 6.346-7.084 7.438-7.829 14.255-.284 2.545-1.567 5.916-4.559 11.925-2.287 4.608-5.591 9.987-5.591 9.987-10.334 12.35-20.084 23.65-38.192 49.713-1.038 2.391-1.092 4.795-2.146 6.783-.812 1.475-2.642 2.683-3.45 3.021-1.192.496-3.583 1.979-5.317 3.3-6.758 5.162-11.12 11.966-13.087 20.421-1.063 4.57-1.696 8.683-3.546 22.775-.758 5.8-3.304 15.895-3.304 15.895-38.913-.554-75.346 6.184-107.821 24.513zm51.996 5.988l8.658 39.333-8.916-.187-.892-28.554-27.825-2.659 9.942-9.629zm-42.233 3.604c2.383 2.429 5.354 5.092 7.512 7.733-7.441 24.875-31.008 57.159-54.416 89.175l-17.155-1.87c-.304-.7 23.759-34.267 35.284-46.988 4.387-5.308 7.371-10.35 11.283-18.179 1.413-2.829 3.888-10.163 5.796-17.808 4.037-4.88 11.721-11.992 11.696-12.063zm9.246 8.721l12.966 13.15 3.171 186.221c-20.004-15.7-43.575-27.334-68.725-36.184l4.392-10.008 4.837-5.2c17.1-18.496 13.284-38.417.279-52.496 15.846-23.112 30.2-40.325 42.275-62.883l-.162-15.467c-.142-14.254.967-17.133.967-17.133zm-155.171 7.771c1.354-.138 1.525 3.304 1.866 13.071.325 9.129.705 13.454 1.309 14.404.812 1.266 1.591 1.379 12.366 1.704 11.371.35 13.734.679 13.734 1.896 0 .35-1.463 2.1-3.242 3.887l-3.242 3.242-10.129-.163c-5.396.175-11.775.071-11.941.225-.896.834 2.475 1.967 7.412 1.975 3.075.005 7.958.546 8.517.767 1.921.733 1.021 2.629-3.163 6.642l-4.171 4.029-9.2-.179c-5.054-.092-11.204.058-12 .321-2.8.929-1.408 1.687 3.221 1.754 7.742.1 13.084.746 13.309 1.95.116.587-1.321 2.733-3.221 4.771l-3.442 3.687-13.533-.562c-12.796.095-14.521 1.045-3.85 2.112 4.079.408 10.504 1.413 10.737 1.45.225.042.592.517.804 1.071.446 1.167-4.704 6.975-7.454 8.4-1.412.725-2.4.779-4.854.217-2.879-.65-15.279-.534-16.612.266-1.121.667 1.312 1.434 4.754 1.504 5.175.105 11.354 1.609 11.354 2.846 0 1.009-2.621 4.263-5.413 6.7-1.295 1.134-4.366.125-12.933.409-5.858.191-9.762.737-9.762 1.125 0 .354 2.904 1.504 6.641 1.775 3.7.262 8.779 1.145 9.129 1.487.867.871-5.725 8.65-5.725 8.65l-28.137-.396-2.596-29.804 2.396-2.758c5.387-6.221 6.562-5.317 7.637 5.846.788 8.17 1.371 10.662 2.555 9.479.437-.434.254-5.1-.184-11.963-.358-5.646-.662-10.796-.662-11.437 0-1.554 6.4-8.275 7.654-8.038 1.233.238 1.917 3.021 2.579 10.654.542 6.275.838 7.984 2.075 6.746.575-.579.658-3.858.079-11.8l-.766-10.371 2.716-3.22c5.459-6.471 6.529-5.75 7.192 4.75.446 7.083 1.129 10.812 2.437 10.812.438 0 .45-5.292.18-13.287l-.396-12.009 3.4-3.458c1.875-1.9 3.783-3.45 4.229-3.45 1.321 0 2.087 3.017 2.917 10.133.937 7.979 1.254 9.35 2.02 8.575.321-.321.25-5.146-.183-11.354l-.946-11.883 4.142-4.209c2.292-2.308 4.583-4.104 5.1-4.008 1.25.246 2.054 3.833 2.154 8.925.088 4.75.9 8.838 1.95 9.888.521.52.679-2.4.55-10.88-.208-13.045-.537-14.041 5.333-20.158 1.567-1.629 2.592-2.687 3.309-2.758zm151.925 5.329l.121 18.212c-7.296 15.621-24.167 38.513-41.263 63.08l-8.921-4.834c21.392-28.041 39.275-54.171 50.063-76.458zm-244.25 5.729c.404-.004.85.013 1.35.038 4.616.27 4.737 1.862.446 5.883-1.805 1.683-3.846 3.017-4.634 3.017-1.329 0-1.4-.192-.987-3.659.504-4.266 1.021-5.258 3.825-5.279zm278.754 13.129l12.604 12.404 3.158 133.367-13.266 21.642zm15.787 17.579c11.363 26.746 23.175 51.821 36.246 72.155l-33.7 47.587zm-113.383 41.575c15.492-.22 29.758 12.046 31.558 24.509 3.384 14.308-3.983 29.725-16.079 34.458-4.216 1.508-6.683 1.613-6.683 1.613-1.471-8.63-.838-16.942-2.796-25.7 0 0-7.25 9.562-11.337 12.912-2.113 1.167-3.063 1.483-2.784-1.287.134-4.842.509-15.596.509-15.596l-17.909 18.529s-1.45-2.013-3.179-6.625c-5.621-15.054 1.675-30.779 13.213-38.004 5.025-3.3 10.316-4.738 15.487-4.809zm238.204-1.133l.35 16.304c-28.108 21.784-68.187 67.696-102.537 127.521l-15.125 6.379c23.304-55.687 72.496-112.4 117.312-150.204zm.309 21.442l.3 24.296c-24.796 23.837-46.338 48.462-65.088 80.158-10.95 5.258-31.225 15.242-31.225 15.242-2.529-.613 55.238-90.55 96.013-119.696zm-250.109 20.808c1.129-.012 1.071 2.179.717 5.342-.8 7.175-1.646 9.779-4.267 13.271-9.079 10.725-23.512 25.308-25.475 38.875-.991 7.241 4.659 14.02 10.221 13.325 17.258-2.159 19.113-32.83 20.571-47.967.604-3.75.883-6.896 1.508-8.083 3.642-4.638 7.554-9.163 12.459-12.83l2.112 23.446 9.729-3.241c-27.433 37.275-19.546 39.608-34.012 54.883-13.45 14.192-39.534-1.979-32.854-23.55 5.8-14.521 14.775-29.083 17.2-44.633.658-4.621 1.037-7.825 1.037-7.825l6.238 13.012c3.17-3.133 12.433-13.479 14.816-14.025zm251.134 8.042l-.063 16.737c-12.787 14.404-23.825 25.463-36.892 45.371l-20.754 9.458c13.546-25.808 35.779-49.95 57.709-71.566zm-253.571 14.766s1.375 7.817-1.654 22.009c-1.446 6.729-7.921 26.371-18.155 21.741-8.695-7.679 1.9-21.925 7.238-28.65 4.125-4.833 8.604-10.062 12.571-15.1zm-27.317 2.009l-5.658 12.104c-50.842.187-100.225 18.367-144.179 55.5l-11.117-3.642c46.567-44.041 104.287-65.45 160.954-63.962zm53.45 9.3c57.3 19.187 83.763 47.187 105.438 76.55l-9.063 4.641c-22.712-29.387-50.746-56.287-102.942-71.845zm-65.65 18.112l-2.437 10.367c-32.092.967-65.955 12.354-98.905 35.225l-11.883-1.892c33.163-26.025 71.038-40.879 113.225-43.7zm146.654 70.063l-10.175 4.804c-30.375-39.396-57.833-50.617-89.033-60.65l3.362-8.742c41.93 11.125 72.692 32.413 95.846 64.588zm-423.483-46.459l.883 105.138-7.321-1.46-1.045-101.678zm-16.954 5.705c-13.954 52.295-3.134 65.837 1.912 96.354l-11.554-1.85c-11.254-30.917-12.408-59.046-2.921-91.867zm351.216 8.029c.88.833-.708 3.396-2.858 4.675-2.083 1.229-1.621 1.037-4.958-.163-3.234-1.175-7.367-4.233-7.367-5.4 2.358.046 13.108-.071 15.183.888zm9.85.741c1.913.234 7.442.13 7.792 1.855.129 1.033-2.046 2.708-6.483 5.737-6.742 4.608-9.038 5.517-11.017 3.325-1.875-2.067-1.325-4.221 1.833-7.129 3.08-2.833 4.859-3.8 7.875-3.788zm-230.17 1.146c3.854 0 10.766 4.775 14.937 10.313 4.229 6.621 9.088 13.412 13.013 20.1 8.92 15.208 15.808 30.646 21.57 46.441 15.1 37.573 23.955 73.993 31.313 110.183-.133 3.05-2.783 3-4.954 2.28-1.129-.37-2.242-1.12-2.475-1.69-3.121-8.87-4.2-17.93-6.588-26.83-5.954-22.26-8.091-35-19.571-66.38-5.962-16.279-14.583-38.954-24.008-56.371-6.037-11.162-13.029-21.487-22.092-30.612-2.404-2.388-5.379-4.563-5.379-5.034 0-1.541 1.509-2.4 4.234-2.4zm244.87 1.213c3.584.875 12.217 1.887 8.946 4.75-12.15 4.671-16.079 9.733-22.521 14.887-.97 0-4.812-4.762-4.812-5.921 5.225-6.42 11.808-9.158 18.387-13.716zm-227.316.037c5.079-.179 10.046 6.384 12.387 10.513 15.617 22.975 28.979 55.741 39.984 87.854 11.829 34.55 19.345 67.79 22.612 91.37-.283.73-1.746 1-3.429.99-3.196-.03-3.646-.76-4.467-3.31-8.137-39-19.075-79.27-32.304-113.442-7.104-18.212-15.167-36.504-26.5-54.858-7.733-11.338-12.125-17.283-11.783-18.167.233-.6 1.508-.908 3-.908a7.17 7.17 0 0 1 .5-.042zm-34.896.684c6.85-.017 18.179 8.108 25.875 18.554 16.317 22.362 25.654 48.496 35.346 73.849 11.125 29.06 19.15 61.34 23.946 86.76.816 3.65 2.15 5.24-1.292 6.39-5.2-1.49-5.083-1.34-6.558-7.68-2.034-6.81-2.65-13.68-4.58-20.6-10.991-39.58-23.316-83.507-43.775-119.248-24.587-39.346-31.733-28.4-35.691-35.342.304-1.567 3.041-2.671 6.729-2.683zm59.146 9.608c21.129 36.754 30.441 59.325 36.866 81.525 9.738 33.64 21.267 60.51 26.33 99.79 0 0-5.546.1-7.771-.81-.921-.91-1.9-4.83-2.475-8.05-5.071-27.74-13.334-60.55-22.117-86.42-9.462-28.785-20.712-56.164-37.358-82.61-4.359-7.121-5.188-9.925-2.517-10.05 4.763.325 6.867 3.992 9.042 6.625zm220.087-3.921c.979.004 1.371-.137 3.163.483 2.796.959 3.687 1.563 3.841 2.671.234 1.613-1.504 2.142-6.904 3.404-4.25.992-12.541 5.421-18.308 10.217-2.675 2.221-4.975 4.608-5.621 4.608-1.325 0-4.492-3.483-4.492-4.933 4.417-6.746 18.471-16 28.321-16.45zm-291.079.9c17.883.55 31.875 21.321 39.217 35.325 2.854 5.483 6.558 11.446 9.362 17.7 14.513 32.451 26.829 73.151 32.85 99.151 2.892 12.51 6.238 21.68 5.05 24.13-1.466.93-4.587.22-6.016-.99-.925-.77-1.421-3.64-3.042-8.86-4.171-13.4-11.079-51.7-29.088-91.935-.4-.904-9.112-26.358-24.166-50.513-6.121-9.829-16.034-16.008-25.071-18.029-4.55-.737-5.9-.2-5.617-2.654.179-1.567.667-1.992 3.1-2.758a12.405 12.405 0 0 1 3.421-.567zm111.775 82.996c-1.225 0-2.308-2.33-3.121-6.163-.396-1.883-.954-3.22 2.579-5.437 22.184-23.588 3.109-58.229-24.77-61.246-2.588-.392-5.917-.4-6.892-.758-1.413-.809-4.008-5.821-5.138-7.838 38.534-9.337 79.425 45.821 37.342 81.442zm191.954-77.071c2.292.571 7.284 5.213 6.663 6.225-.746 1.208-5.071 1.25-11.296 2.35-13.25 2.346-18.938 10.988-25.096 17.4-1.367.421-2.583-.529-3.808-2.617-.896-1.537-1.634-3.383-1.634-4.104 6.892-10.033 25.334-20.171 35.171-19.254zm-312.791 2.954c11.266 0 22.525 5.467 28.858 14.367 23.133 34.608 49.108 111.55 55.304 149.49-.625 1.22-2.271 1.35-5.479.43-1.783-.52-1.567-1.1-2.696-4.62-7.262-27.64-15.225-54.48-24.592-79.11-4.825-12.686-10.504-25.086-15.845-36.223-3.384-7.05-10.188-19.592-12.767-23.425-6.083-11.425-18.375-14.771-26.113-11.084-8.02 4.338-9.025 14.692-2.929 19.288 5.067 3.533 13.059 2.95 15.984-2.525 1.004-1.934.691-4.346.045-4.95-.625-.596-1.758-.421-1.995.216.416 6.73-8.163 7.163-11.905 4.513-5.987-4.471-2.004-18.625 14.3-12.929 6.292 3.308 8.405 9.566 5.421 16.208-3.054 6.8-7.787 9.896-15.087 9.854-8.863-.158-18.917-6.379-18.992-17.566.025-8.346 3.892-15.288 11.133-19.934 2.688-1.721 3.742-2 7.355-2zm95.4 5.204c27.337 1.255 39.9 33.425 25.52 52.846-3.666 4.634-5.987 3.788-7.554-2.2-.771-2.462-1.621-2.829.584-4.729 12.804-12.271 2.287-36.117-18.809-37.075 0 0-3.937-5.737-4.329-8.783 1.404-.513 3.304-.067 4.588-.059zm227.958 2.209c2.075.508 6.467 4.725 6.467 6.208 0 1.746-.859 1.417-5.717.579-11.5-2.058-23.017 4.6-32.629 19.113-4.659 8.716-5.242 7.891-7.688.387-1.266-3.854-1.283-3.771 3.6-10.879 9.125-11.7 22.596-17.046 35.967-15.408zm10.7 14.766c9.617 8.738 5.129 27.98-7.875 29.971-11.458 1.325-21.642-11.071-14.425-19.5 4.7-5.091 10.571-5.612 14.179-1.229 3.738 4.517 2.154 10.683-3.158 11.321-.625.221-1.134.704-1.134 1.062 0 1.13 4.717.821 6.33-.483 3.233-3.562 3.287-9.012.4-12.908-2.555-3.446-8.013-6.184-12.388-4.409-7.708 2.759-15.562 13.213-20.054 26.388-1.267 3.696-2.004 7.171-2.542 7.992-1.096 1.675-1.016 1.633-2.037.983-.888-.567-2.529-8.629-2.529-11.696 0-2.333 2.008-8.496 4.67-13.779 8.346-15.517 27.125-25.921 40.563-13.713zm-234.413-3.908c11.196.679 20.05 16.533 15.184 27.571-1.504 2.029-3.679 3.408-4.684 2.133-.366-.458-2.087-5.637-4.47-11.137-2.388-5.488-4.584-10.863-5.263-12.204-1.775-3.809-3.058-6.4-.767-6.363zm-76.062 9.204c12.754 22.588 23.417 48.492 32.267 73.772 6.887 19.7 12.533 39.02 15.787 56.11.313 1.72.738 2.63-.017 3.38-1.25 1.25-7.341-1.86-7.341-1.86-10.667-36.75-19.284-73.59-44.675-120.381 0 0-1.096-1.858-1.392-3.075-.342-2.925.517-6.629 2.3-8.704.717-.775 1.692-.825 3.071.758zm-143.092 42.663c60.309 4.049 106.963 29.459 131.875 96.589-8.854-5-53.766-39.46-131.191-44.03l-.121-9.3c55.504-.45 109.646 28.43 108.521 28.01-20.65-42.56-72.538-59.81-109.246-60.94zm418.4 13.569c-3.804 5.95-3.637 5.71-5.462 10.85.212 1.67.516 12.08.771 18.15.32 7.73.537 11.1 1.145 11.84 1.038 1.25 3.134 1.44 4.046.32.363-.44.992-2.11 1.413-3.7 4.983-18.81 7.321-25.85 9.325-28.17 1.321-1.71 1.771-1.55 7.229-.93 12.292 1.09 16.475-13.56 8.437-19.46-10.75-5.982-22.15 4.05-26.904 11.1zm12.971 3.99c-8.779 7.23-9.042 17.64-11.704 27.22-1.429 6.45-3.442 9.85-4.246.12-1.496-13.49.379-23.56 6.233-31.49 3.621-5.82 9.567-9.75 14.913-10.12 11.504-.81 12.675 8.31 9.479 13.2-2.321 3.56-8.767 5.11-14.675 1.07zm-415.421 4.35c4.338 0 7.859 3.51 7.859 7.84 0 4.34-3.521 7.86-7.859 7.86-4.329 0-7.85-3.52-7.85-7.86 0-4.33 3.521-7.84 7.85-7.84zm25.038 5.37c3.875 0 7.025 3.13 7.025 7.01s-3.15 7.03-7.025 7.03c-3.879 0-7.013-3.15-7.013-7.03s3.134-7.01 7.013-7.01zm22.812 7.7c3.159 0 5.704 2.55 5.704 5.71s-2.545 5.73-5.704 5.73c-3.154 0-5.712-2.57-5.712-5.73s2.558-5.71 5.712-5.71zm16.196 10.25c2.438 0 4.408 1.98 4.408 4.43a4.41 4.41 0 0 1-4.408 4.41c-2.442 0-4.433-1.98-4.433-4.41 0-2.45 1.991-4.43 4.433-4.43zm-56.729 14.1c-1.683 8.51-.371 17.26 1.592 23.29 4.466 13.01 2.433 36.28 2.433 36.28l-13.096 13.11c.942-12.21 2.392-25.05 1.721-35.3-.471-6.81-3.542-13.17-4.35-20-.742-6.33.383-18.99.383-18.99zm21.208 3.91l.459 55.52-44.813 43.42-.058-11.46 38.204-37.89-.804-51.43zm110.5 126.59l-2.941 4.79h50.554l1.062-4.79zm65.429 0l-1.183 4.79h23.4l.779-4.79s-12.304.01-22.996 0zm38.346 0l-.737 4.79h86.879l-1.292-4.79zm101.55 0l1.384 4.79h23.145l-1.916-4.79zm38.688 0l1.687 4.79h39.775l-3.3-4.79z" fill-rule="nonzero"/></svg>