<svg clip-rule="evenodd" fill-rule="evenodd" stroke-linejoin="round" stroke-miterlimit="2" viewBox="0 0 934 1300" xmlns="http://www.w3.org/2000/svg"><g fill-rule="nonzero"><path d="M801.954 151.108l-48.022 31.303-.666 36.506c-28.478-13.665-40.858-36.045-45.339-62.264-8.055 10.161-6.458 61.455-6.458 61.455-7.318 3.798-9.995 8.756-14.669 13.214 4.59 7.586 17.591 20.497 17.591 20.497-.09-.228-5.961 53.409 1.144 55.545 6.491-22.859 15.128-42.806 46.942-63.718 0 0 .479 85.154-1.558 167.422-13.46-9.264-41.918-25.905-60.305-42.931 23.843-30.747-.465-70.824-36.042-44.204-23.06-12.48-26.597-71.43-32.305-102.308-1.093-6.194-6.465-24.355-6.465-24.355s-75.983-21.014-108.612-19.304c27.405 71.41 22.085 158.434-99.198 174.736-58.107 26.573-125.245 56.196-190.49 111.535-12.025 82.397-54.519 122.966-84.529 145.407.213 33.39-.226 66.443 1.151 100.146-.033.204 27.392-18 31.697-14.647 22.912 148.921 106.821 178.448 98.429 182.574-1.351.665-27.495 27.537-27.495 27.537l-102.412-67.458c-3.51 102.966-1.474 207.964 0 311.104 18.083-10.22 51.319-34.66 51.319-34.66l.504-35.04c-.155-3.33 46.568 29.18 46.684 67.92 3.64 2.47 11.611-55.74 4.351-62.04l19.149-19.76-20.623-19.86s5.23-32.96-5.457-51.946c-6.93 43.466-43.011 57.026-43.011 57.026s-.705-158.885-1.636-159.025l64.366 40.75c-4.791.986-17.049 23.769-4.267 42.224 7.79 11.243 35.79 10.496 37.943-2.444 39.584 36.885 24.347 80.985 41.66 133.325l112.328 20.6c-46.295-85.89 3.944-183.751 94.854-176.755 17.029-7.093 32.448-17.334 32.448-17.334s-11.307-18.475-25.582-35.618l-194.569-3.212 90.697-170.06-59.653-1.92s48.481-102.821 38.008-111.105c-3.679-2.908-2.14-36.062-2.14-36.062L465 575.885c2.108-23.732-25.769-114.163-65.108-173.302l218.703 1.96-123.119 171.705 66.124 1.899-39.456 81.055 6.323 63.215-58.67 1.899c10.111 87.641 75.22 179.977 98.106 208.495 37.833-8.969 108.475-63.031 152.314-96.645 5.683-58.812 25.931-108.877 78.873-146.226l.161-96.819s-30.217 19.507-30.21 18.159c.123-20.956-10.797-64.577-30.948-103.459-21.619-41.723-57.118-79.513-65.283-81.88 18.78-28.405 26.791-30.95 26.519-31.401l102.263 65.581zM286.516 357.55s-19.893 7.57-37.174 7.334c-30.974 1.597-54.59 4.094-67.158 29.497-2.547 7.732 3.045 10.582 7.157 12.606 23.345-28.986 85.389 9.302 97.175-49.437zM149.032 490.567c0 4.094 4.577 10.784 6.872 3.839 1.991-4.957 2.392-12.993.162-17.94-6.22-3.502-6.957 10.091-7.034 14.101zm335.389 140.25l-30.243.14-.181 35.498 30.812 1.454zm297.091 176.715c-.666 3.527-3.931 19.384 3.452 16.627 8.708-6.706 1.293-37.536-3.452-16.627zm-28.472 89.111c-3.575-5.204-14.624 7.734-23.688 8.219-40.296 2.156-69.983-3.235-75 38.919 23.235-14.836 55.793-8.073 76.772-12.87 15.16-5.032 32.557-18.762 21.916-34.268z" fill="#e2cf00"/><path d="M128.977 1197.1c-4.523-369.585-2.359-734.398-1.093-1099.852l682.152 3.823c-2.442 364.735-2.905 730.58 1.942 1098.959zm29.166-711.036c.586-10.575-3.763-14.954-7.535-7.68-.892 1.72-3.821 20.097 3.134 20.709 4.566.402 4.15-8.491 4.401-13.029zm-11.038 12.408c-.041-2.495-1.581-3.581 1.822-25.308-6.5-2.507-12.127-13.056-7.393-19.725 1.845-2.601 1.307-3.175.553-5.359-1.865-5.399-.879-9.801 4.134-13.245 3.203-2.2 3.343-2.785 2.317-5.681-2.644-7.463-.165-14.749 6.974-17.231 4.945-1.719 3.992-1.964 4.512-5.101 1.165-7.018 5.044-11.264 12.087-10.554 6.548.66 6.979.664 7.541-2.536 1.556-8.853 12.287-18.519 26.296-25.09 6.956-3.262 18.49-5.574 40.587-5.514 12.656-.22 28.436-1.91 37.29-9.689 1.461-1.364 3.489-4.947 4.197-4.46 1.65 1.137 1.248 9.95-1.985 17.986-9.421 23.418-22.174 29.87-58.222 29.657-10.748-.512-26.582.942-33.294 7.778-1.998 2.118-3.332 4.118-2.582 5.206 14.934 2.118 30.269 8.857 39.193 38.325 27.082-19.199 70.248-48.604 123.777-75.183-6.429-35.216 24.109-40.648 41.237-33.641 0 0 .435-2.296-.227-4.961-.646-2.599-1.595-5.987-4.755-10.363-.796-1.593-5.604-4.62-4.657-7.015 1.553-3.921.861-4.999-2.42-8.61-2.13-2.344-.716-7.359-.198-9.381.674-3.773 3.158-9.155.963-11.185-3.392-3.137-14.944-8.451-20.895-12.672-6.577-4.785-6.705-9.09 2.935-24.819 4.39-9.146 8.539-18.968 12.038-25.539 5.297-9.937 5.844-16.488 2.634-22.185-4.192-7.441-3.497-16.267-3.4-16.04 0 0-39.56-56.287-55.859-78.413l-185.077-.604-1.821 423.143 32.995-30.43-8.652-10.236c-1.223 5.943-.113 11.757-7.444 12.095-2.497.082-4.807-.96-5.201-3.42zm109.981 564.188c1.055-16.73-6.955-44.12-19.018-63.095.521 14.405 1.556 32.025-1.337 46.115zm292.059 43.67c-1.458-.47-13.604-1.21-21.235-1.62-25.297-1.34-41.721-13.47-52.684-30.26-2.696-4.12-1.58-3.94 4.397.73 16.793 13.12 32.515 20.97 46.317 19 19.569-2.79 30.123 4.39 27.412 12.74-.473 1.47-.634.56-4.207-.59zM482.881 1069c-3.916-3.39-4.207-4.92.439-1.83 14.203 9.45 31.35 24.89 52.542 15.85 4.395-2.82.351-2.45-7.004-1.66-11.245 1.19-24.944-4.52-41.799-16.15-8.229-5.69-4.604-10.48 4.661-6.03 2.862 1.37 5.763 2.39 7.611 2.5 9.12-6.05 28.292-5.98 27.844-5.95 2.185-1.87-4.978-4.86-15.638-8.89-6.923-2.61-8.597-3.69-3.444-3.89 4.501-.17 11.587 2.07 16.696 5.38 8.525 5.48 12.818 8.51 15.362 8.87 4.182.33 8.449.93 1.271 4.26-3.262 1.51-2.974 1.9-2.599 5.56.586 5.72.928 5.66 3.569 8.89 4.453 4.91 6.393 14.04.041 8.33-1.368-.63-1.509.58-5.25 2.09-21.961 6.2-38.322-3.47-54.302-17.33zm40.536 1.63c1.224-1.61 3.066-5.73 3.315-6.88-.423-2.67-2.797-1.83-3.997-.33-2.05 2.52-4.918 6.22-2.56 7.48 1.115.6 2.205 1.1 3.242-.27zm-7.499-1.73l4.882-8.7c-1.207-.56-17.741 2.85-15.15 5.22 2.295 2.11 10.268 3.48 10.268 3.48zm18.617-29.19c-7.531-4.03-9.728-12.71-4.101-18.48 4.73-4.85 12.749-4.43 22.343 1.47 3.376 2.08 5.449 3.13 7.76 2.28 3.869-1.42 5.349.75 5.031 3.78-.702 6.68-11.097 8.31-17.657.69-8.671-10.07-18.097-3.04-15.333 4.24 1.408 3.71 4.139 4.29 7.276 5.68-.005.73-3.129 1.51-5.319.34zm-34.336-44.875c12.478-3.364 31.03 9.835 41.089 8.035 4.361-.93 3.746 5.35-.782 7.62-5.293 2.67-12.816.87-28.776-7.45-13.146-7.098-23.783 4.67-14.996 13.45 1.884 1.78 4.632 2.85 8 2.69 4.444-.21 5.752 1.01.021 2.48-3.295.84-9.421-.49-12.385-3.49-7.079-7.16-5.335-20.945 7.829-23.335zm-264.057-38.542c-.371-14.831 7.553-23.069 7.754-23.131l-56.08-38.043.835 151.951c27.786-17.64 36.906-39.87 38.5-68.572 54.858 61.442 37.737 136.242 3.474 178.832-1.409-26.07-9.19-56.87-40.868-72.66l-.056 31.1-52.565 37.27.318 34.36 123.67.38 59.811-87.33c-10.82-39.61-9.194-72.57-16.513-90.7-5.489-14.896-15.92-34.143-22.658-31.158-22.791 18.041-45.178-3.009-45.622-22.299zm47.191 17.535c19.425 13.987 24.609 36.842 28.59 57.162.134.17 10.197 68.87 10.516 69.79 1.303 3.77.869 7.53-2.462 10.39-17.937 24.6-53.004 77.37-53.004 77.37l343.703 2.02c-18.339-26.68-32.66-53.05-50.08-74.98.732-1.17-1.361-16.15-4.265-20.99-2.991-4.99-3.68-7.6-1.653-12.17 5.025-11.24 10.182-23.42 14.83-33.74 8.891-19.76 9.91-19.92-2.234-26.34-14.391-8.38-16.957-11.11-13.939-20.67 1.101-3.486 1.24-4.877-3.217-5.787-2.063-.422-7.084-1.622-10.454-2.556-9.715-3.063-6.901-1.161-10.455 1.353-2.708 1.335-5.036-3.794-8.209-9.857-3.646-6.968-4.57-7.132 1.464-3.544 11.176 6.645 31.012 4.062 24.024-3.631-3.409-3.752-6.568-5.677-6.208-14.172.355-8.431.486-10.902-5.239-12.074-11.453-2.345-23.902-1.366-34.564 1.296-32.44 8.097-58.467 36.238-68.337 57.152-2.221 3.64 2.884 3.46 5.085 3.47 10.632-.95 18.175 15.99 11.218 23.59-3.218 3.39-6.427 1.31-2.993-3.09 3.916-7.29-1.922-16.92-10.483-14.47-10.774 3.09-11.079 17.02-12.414 26.72-3.671 27.97 10.537 65.35 14.011 72.98 0 0 .76 1.13.501 1.13-.26 0-1.967 1.58-2.693.76-2.492-2.84-8.788-25.71-12.203-42.06-6.615-45.2 5.078-86.763 42.688-110.371 33.315-24.034 50.093-18.86 69.009-19.969 6.458-2.324 15.42-5.849 22.208-9.176 33.317-18.201 60.313-33.716 88.622-49.13 27.478-14.962 45.905-36.32 71.027-49.666 1.143-.608 2.323-2.019 3.495-2.596 31.247-27.151 62.127-53.811 80.761-72.389 2.26-2.272 4.128-5.341 4.128-5.341l-3.159-156.671s-3.143-2.61-3.128-5.104c.032-5.436-1.985-4.398-13.16 3.464-14.047 9.884-15.004 9.388-15.004 9.388-7.433-71.879-46.303-142.561-93.42-183.894l1.937-2.645s15.76 10.405 23.627 15.356v-10.023l-18.975-11.883s-1.688-1.373.158-3.882c1.015-1.38 3.612-.357 3.612-.357l15.205 11.21v-9.153l-12.292-7.834 3.937-4.959 6.583 4.272c-2.793-7.243 1.157-6.988 5.211-2.187 1.686 2.198 3.861 5.018 4.783 7.685.353 1.018 1.403 3.516 1.403 3.516l10.779 8.019s-.414-3.907-.031-5.106c1.817-5.682 14.828 12.655 13.194 13.085l11.038 7.957c2.614-3.986 12.449 3.953 12.854 7.866.867 1.703 38.045 25.617 38.045 25.617l.406-13.21 4.007-5.216 1.804-305.169-49.364 31.557-.541 36.944c-23.318-7.543-43.517-41.321-46.473-62.391-1.518-.828-8.271 41.555-4.7 60.106-6.165 4.59-16.547 15.318-16.465 15.372l18.701 20.462s-3.737 31.332-2.865 46.898c.758 7.387.906 8.135 3.115 8.148 1.791.011 3.402-1.925 3.412-3.615 4.393-18.637 18.821-47.718 43.785-57.622 1.652-.051-.134 166.254-.134 166.254l-61.951-42.263c-3.087-2.65 4.045-2.481 8.399-16.556 11.226-36.301-27.717-49.129-42.757-28.109-2.475-.015-12.812-12.789-14.359-18.125-11.458-23.087-13.652-49.253-15.877-70.241-1.344-9.543-4.847-25.189-7.749-34.608-1.55-5.03-1.708-8.662 1.639-13.348 15.346-20.724 30.203-42.503 43.13-63.748 11.8-15.502 9.497-16.284 9.497-16.284l-344.606-1.114 55.09 72.57 5.578 2.172c-9.532 1.229-6.292 9.562-2.591 18.526 4.548 11.015 4.045 13.291-7.498 35.986-16.923 33.271-17.834 30.35-.951 40.648 10.427 6.674 12.321 8.132 10.789 17.196-1.533 9.064-1.96 6.261 6.648 7.001 4.604.396 8.272 1.228 10.344 2.166 2.354 1.066 4.106 2.552 7.134 1.559 5.098-1.671 5.222-.438 5.426 3.298.087 1.593 2.493 4.875 3.239 6.098 1.964 3.219 1.045 3.755-2.553 1.489-11.081-6.979-29.607-3.997-22.791 3.59 2.807 3.123 5.63 13.519 5.872 18.686.432 9.242 6.435 12.519 19.044 10.616 24.216-1.802 78.818-31.863 91.54-65.625-27.966 9.524-22.219-24.799-12.252-23.716 0 0-2.679 6.085-2.766 9.559-.303 12.275 9.979 13.225 17.061 4.532 3.081-4.566 6.82-21.532 4.981-40.681-2.228-23.191-11.627-49.134-13.328-55.572 39.995 95.468 3.267 137.448-52.932 164.844-21.527 8.988-24.479 8.933-37.162 9.525-8.682.702-16.51 5.016-24.84 7.754-48.087 22.951-107.184 51.57-160.044 94.265-37.932 28.1-68.061 53.359-98.013 85.814l-.124 168.444c9.009-1.401 23.63-10.173 32.29-15.221 9.918 62.914 42.273 135.772 95.863 179.342-.029-.02-1.264 2.377-1.293 2.357-7.633-5.068-15.26-10.111-22.656-13.998l-.386 8.017 18.034 12.4c.478 1.925-3.091 4.614-3.091 4.614l-14.887-10.284-.114 8.163 11.525 7.349c3.115 3.119-3.773 4.745-3.773 4.745l-6.826-4.949s.488 3.966.281 4.668c-1.783 6.026-11.643-7.284-13.424-13.921l-9.701-5.747c1.376 3.929-2.098 4.478-4.845 3.494-7.289-3.696-6.885-9.905-8.405-13.586l-12.91-8.188c-2.22 12.3-15.341-5.022-13.268-9.17l-16.556-11.267c.912.342-6.314 1.837-8.759.24-2.817-1.839-3.806-9.345-3.806-9.345l-9.926-6.145v10.758l102.102 71.286-1.472 2.769-106.503-72.867 4.315 316.251 51.924-35.92c-.996-11.84 1.188-22.41.208-35.89 26.68 16.6 35.659 27.9 47.425 62.77 7.614-19.85 6.276-38.9 2.856-56.52 6.822-5.58 13.462-11 16.891-19.42-6.419-8.83-12.694-11.31-19.451-19.51-.53-9.99 5.32-39.74-2.528-49.553 0 0-14.346 43.223-45.245 56.223-.939-45.65.127-160.387.127-160.387s31.757 21.918 47.951 30.822c7.61 4.063 12.914 6.612 13.014 9.502.051 1.472-3.005 3.348-4.347 5.418-.833 1.286-4.35 13.631-2.982 23.286.622 7.116 3.975 11.617 7.187 15.027 10.187 10.814 28.849 5.714 36.235-2.63zm61.465-80.772l122.149-170.862c14.53 62.875 39.062 120.458 71.065 172.656zm60.4-179.591s8.526-16.897 12.433-25.86H402.67l8.95-10.036 22.274-.001-11.917 25.391h9.454l13.073-25.39h34.707l-12.139 25.391h7.994l12.986-25.392 32.271.001-11.35 25.39h7.561l6.629-12.813 1.619 23.319h-32.058l12.672-25.86h-10.332l-14.316 25.86h-30.031l13.023-25.86h-11.414l-14.306 25.86zm98.911-90.988l12.948-27.357h-10.246l-14.325 26.785h-32.009l12.597-26.479-7.976.026c-5.407 8.349-14.034 25.31-14.034 25.31h-33.946s9.601-17.988 13.388-26.785h-8.374l-6.818 10.869c-2.4-4.057-.819-14.836-1.221-19.41h31.998l-12.855 26.255h10.21l14.015-26.255h33.787l-13.763 26.255h8.001l13.641-24.816h34.376l-12.048 24.816h10.615l-4.682 10.785zm-31.627-47.67l-6.479 1.218c-8.293-70.894-47.526-143.169-64.131-173.011l195.204 2.743zm229.202-409.328s-18.617 23.935-19.86 64.094l17.73-14.16c-1.125-40.748 2.13-49.934 2.13-49.934zm-19.661 67.108c-.298 29.879 7.537 48.93 17.444 63.843.169-19.246 2.105-38.731 3.248-43.837zM198.749 804.281l-63.123-43.477v9.528l75.022 50.958zm-11.374-23.335c-16.909-8.488-51.749-34.766-51.749-34.766v8.693l55.464 38.967c1.089 1.073 2.553.8 3.066-.399-2.183-3.685-4.812-8.699-6.781-12.495zm-15.49-37.746l-36.259-25.301v7.872c9.297 8.329 39.894 28.145 39.894 28.145zm-36.259-31.056l34.111 22.049-2.12-9.763-24.23-16.452zm613.007-305.647l1.824-157.115c-35.542 16.808-42.589 65.825-41.404 67.348-35.381-36.462-48.716-115.079.909-167.947 3.731 16.957 4.984 41.552 40.089 64.03l.902-33.28 49.185-31.418-.408-37.812-117.972-.919c-18.301 23.181-36.592 49.565-54.695 74.164-6.795 9.223-8.491 13.56-7.19 18.38 11.903 42.773 9.519 95.437 34.504 120.34 33.512-31.512 64.91 15.93 38.859 45.184zM238.898 1085.9c4.534 14.3 1.415 43.17 1.123 43.17 5.411-2.95 20.127-44.74 16.446-60.44M427.21 301.317c-8.345-2.367-14.626-5.952-23.437-5.112-6.937.719-9.293-1.577-5.064-5.352 5.532-4.687 10.894-6.619 21.146-1.256 30.846 16.136 31.796-7.429 17.908-9.096-3.943-.474-3.759-2.989.17-2.353 21.552.858 14.984 29.409-10.723 23.169zm-36.067-23.532c-4.08-1.488-9.005-3.979-10.82-3.491-4.579 1.23-4.737-1.289-4.191-4.269 1.316-7.198 8.675-5.892 18.402.3 13.933 8.869 19.272-3.883 6.594-10.764-4.267-2.316-2.948-2.956-.455-3.059 6.603-.273 12.823 8.718 11.07 16.072-4.441 11.795-15.224 7.173-20.6 5.211zm40.828-21.779c-9.014-1.565-22.073-13.686-28.134-14.516-3.405-.387-7.408.027-8.497-1.341-3.332-4.187 6.102-4.186 6.745-5.705.022-3.531.242-5.741.101-6.947-1.665-2.255-8.224-11.275-7.996-15.642.157-.271 3.44 2.417 5.13 2.426 16.097-8.486 27.101-4.72 40.686 1.275 5.614 2.477 20.103 13.711 20.286 15.493.308 3.013-6.145-2.64-11.188-6.023-12.427-8.639-23.606-14.779-39.205-9.658-2.429.835-2.009 1.282 5.981.796 7.809-.475 14.205 1.918 24.18 8.426 2.48 1.618 5.471 4.376 7.256 5.226 12.551 5.982 15.284 11.86 7.297 10.268-1.709-.34-5.024-2.121-8.279-3.272-5.736-2.029-3.707-1.416-9.227 1.155-1.937.903-6.602 2.806-10.43 3.26-2.937.488-12.455.409-8.245 4.43 4.469 4.474 11.882 7.774 16.976 9.815 3.668 1.631.843 1.277-3.437.534zm1.072-19.483c5.877-2.177 1.281-7.104-6.21-8.192-1.714-.249-5.378 7.845-5.459 9.548-.06 1.268 8.448-.164 11.669-1.356zm-16.221.872c1.348-.856 5.863-7.381 5.869-8.421.025-4.186-5.339-3.021-6.578 1.34-1.507 5.303-1.636 8.569.709 7.081zm-18.776-33.758c-4.83-2.136-11.398-11.481-3.888-9.903 1.62.372 10.049.81 15.49.833 18.523.081 36.983 8.473 48.724 20.679 6.534 6.792 6.955 11.818.33 7.139-23.489-21.081-37.9-17.159-60.656-18.748zm182.945 726.736l-6.554 3.487c.016 3.634 1.324 3.068 4.229 5.64 0 0-4.023.655-6.964.46-4.789-.318-5.887-.239-3.77 3.131.979 1.558 2.319 3.858 2.319 3.858s-2.597.561-6.506-.511c-5.923-1.625-8.957-.808-6.718 2.484.618.91 1.806 2.618 1.806 2.618-4.323-.981-12.264-4.844-12.264-4.844l-5.601 1.701c11.174 21.825 50.914 8.06 40.023-18.024zm193.826-31.142c6.142-5.154 3.159-11.475-5.814-16.108-3.735-1.928-3.366-1.955-9.421 1.601-7.463 4.382-7.989 4.608-2.674 10.245 6.416 6.804 13.394 8.051 17.909 4.262zm-22.801-14.57c5.651-2.506 3.552-2.082 3.171-7.987-1.649-6.803 2.203-7.277 4.107-13.629.788-3.473-2.149-2.191-7.856 3.12-4.707 3.952-6.104 4.917-6.093 2.993.531-1.605-3.232-5.731-6.605-6.292-2.853-.474-2.582-1.128.203-4.732 4.837-6.256 6.826-14.146 3.581-21.1-4.1-8.788-5.453-10.079-14.518-2.405-4.642 4.272-11.198 7.554-14.367 12.839-2.267 3.889-.954 7.653 2.634 15.295 8.952 19.075 22.787 27.642 35.743 21.898zm31.747.164c9.961-3.902 5.942-14.654-9.624-25.491-9.384-6.533-12.045-6.466-4.078.613 5.097 4.529 5.894 6.129 3.711 9.386-1.821 2.716-3.735 5.91-1.926 8.395 2.849 3.915 7.716 8.743 11.917 7.097zm-560.829-17.88l-10.856-6.854v9.375l10.857 6.484zm542.632 8.472c2.153-1.514 4.005-5.767 4.016-7.65.489-4.361-6.613-3.315-10.005 1.508-3.814 5.424.697 9.863 5.989 6.142zm24.312-14.76c4.948-5.184 2.541-10.704-7.619-17.284-3.923-2.568-5.919-4.246-5.438.846.147 1.554-1.556 3.61-2.652 4.837-3.52 3.94-1.957 4.646 8.078 11.006 5.109 3.239 4.841 3.519 7.631.595zm-566.943-9.967l-10.857-6.556v8.509l10.857 7.327zm-23.737 8.494l.141-8.534-14.067-9.352-.2 9.513zm553.184-3.45c-1.813 4.885 5.478 2.671 5.898 2.174 1.263-2.471.146-2.703-.475-2.964-1.281-.538-6.242.315-5.423.79zm3.181-6.169c2.5-.805 2.793-.492 2.445-5-.525-6.803.498-7.347 5.017-10.34 3.612-2.393 3.64-2.032 3.58-6.204-.071-5.037.276-7.205 6.901-8.231 2.712-.42 4.261-1.084 4.487-3.224.379-3.595-5.402-9.668-12.593-13.172-1.059-.007-17.127 13.973-21.614 18.804l-2.741 2.95 3.279 6.144c5.113 9.577 4.275 13.105 1.268 25.806-.616 3.402 2.008 2.907 2.694-1.185.903-3.822 1.426-5.213 7.277-6.348zm24.488-33.89c-1.238 7.716 2.76 12.46 6.533 8.628 2.054-2.085 3.779-19.121 2.353-21.825-7.754-8.298-8.581 11.341-8.886 13.197zM655.206 943.447c28.815-16.871 65.848-3.079 86.712-16.918 9.73-10.723 19.512-17.56 13.997-24.955-4.295-5.76-7.088-6.64-7.088-6.64.306.407-15.204 13.471-37.704 10.448-37.506-1.29-55.233 10.485-55.917 38.065zm49.242-40.17c18.352.639 33.268-2.551 40.09-7.872 4.236-3.304 4.876-3.885-1.763-4.42-14.252-1.148-28.684-17.671-33.204-33.7-.919-3.295-2.006-6.876-2.006-6.876-37.97 30.305-121.549 78.04-121.549 78.04 5.545 25.799-13.144 41.185-38.459 32.024-4.403-.399-3.831 5.268-3.001 7.595 1.38 3.817 4.44 7.015 5.037 7.527 3.769 3.228 4.471 5.361 3.903 8.454-.56 3.055-.505 2.951 1.636 4.097 3.803 2.036 3.606 4.937 1.531 10.923-2.235 8.421-2.389 10.541 3.662 14.551 7.789 5 23.078 10.47 20.821 18-5.116 17.06-13.514 31.74-20.897 47.7-2.743 4.42-2.155 11.72.006 15.12 2.679 5.22 2.37 11.46 5.839 16.25 19.195 28.49 35.721 53.56 53.21 79.29l182.956 1.73-4.551-421.947s-28.204 27.774-28.116 29.735c.105 2.338 6.624 5.992 9.425 6.457.115-1.265-.017-6.265.345-8.018.258-2.542 8.4-1.882 11.094.327 1.889 1.547 1.309 11.645-.602 19.865-1.563 6.725-1.345 6.815 1.539 10.702 3.515 4.735 4.731 8.752 4.27 14.103-.253 2.931-.23 5.248.601 7.188 1.954 4.561 1.38 10.984-.771 13.973-3.119 4.336-3.169 4.996-2.49 7.314 2.557 8.033 1.6 14.872-7.356 18.351-1.147.445-2.401 2.428-3.134 4.138-3.905 12.852-11.233 12.836-21.254 9.134-7.092 27.651-35.947 34.599-56.731 33.78-21.655-.853-43.677.77-53.475 14.934 2.293-33.55 17.305-49.724 53.394-48.469zm65.348-55.708c3.68-1.375 4.137-5.211 1.045-7.673-4.747-3.78-10.199.066-7.972 5.533 1.248 3.065 3.351 3.476 6.927 2.14zM199.802 835.39l-14.422-9.991.084 8.949 14.372 9.226zm27.203 7.35l-10.204-12.24c-30.083-18.395-56.158-38.972-81.175-55.541l-.19 11.343 7.153 3.606s.605-2.494 1.095-3.934c.919-2.703 9.189 4.906 11.825 11.001a812.358 812.358 0 0 1 2.084 4.909l9.64 5.323s.144-2.735.149-3.497c.034-5.804 10.345 2.182 15.047 11.673 1.139 2.301 2.632 4.739 2.632 4.739l9.072 5.511c3.58-4.89 12.703 1.803 15.035 7.743 2.959 7.535 8.171 8.188 8.377 8.213zm-54.299-1.647l.019-8.692-15.035-9.887-.192 8.811zm618.97.71c.393-2.281-1.857-11.157-5.232-11.653-2.111-.31-5.412 2.884-5.425 5.116-.017 2.896 10.232 9.008 10.657 6.537zm-12.229-10.544c3.284-3.587-.861-8.262-5.879-6.638-5.964 1.929-3.901 7.33 2.772 7.444 1.491.025 2.387-.02 3.107-.806zm-607.52-6.396l.058-8.285-13.89-9.179-.288 8.099zm-27.313-2.924l.138-7.974-9.126-6.36v9.551zm.33-23.895l-9.318-6.074v8.647l9.738 5.569zm37.857-26.293c-.967-2.555-4.902-10.639-4.902-10.639l-42.273-29.507v9.082l47.289 31.806zm-19.783-70.116l-.497-3.694-3.764 2.007zm-8.958.922l-5.912 3.199 17.862 11.615-1.438-8.258zm620.189-97.865l4.606-3.335-8.135-5.511-.609 5.59zm8.242-5.304l6.051-4.997-20.241-14.269 1.436 8.877zm14.344-7.469l.001-6.097-32.823-22.163 2.269 11.143c5.786 3.342 12.855 8.227 20.247 13.421 4.685 3.305 4.702 4.579 10.306 3.696zm0-11.291l.001-9.673-37.97-25.209 3.084 11.35zm.001-14.526l.016-10.14-45.961-30.368 5.03 13.415zm-.001-25.47l-57.94-38.774 7.413 14.861 50.527 33.766zm.001-14.812l-72.717-48.37 8.165 13.538 64.551 43.645zm-.001-15.727l-2.72-.009c-.216 6.93-7.727 1.904-10.552-5.719-2.133-5.105-2.609-6.392-2.609-6.392l-14.644-9.896c.305 2.014 1.153 7.756 1.153 7.756l-9.865-6.022s-2.849-9.535-2.942-9.597l-16.854-11.452c.358 1.95.642 5.168-.454 5.388 0 0-5.124-2.187-7.469-5.597-2.439-3.549-2.807-7.117-2.807-7.117l-13.753-8.901-3.423.368s-1.853-1.256-3.596-2.667c-3.263-5.833-7.082-6.712-11.643-9.086 0 0 9.678 11.299 14.85 17.973 4.749 6.163 10.509 10.562 10.509 10.562l76.819 51.25zm0-15.81l-5.936-3.565.435 9.358 5.501 3.739zM197.962 473.69c.364-.587-1.155-1.263-2.824-4.934-4.133-9.089-4.54-12.258-2.331-21.808 1.054-4.557-3.085-6.512-4.988-1.653-1.48 3.781-3.78 5.908-5.983 5.632-2.077-.26-2.518.611-1.616 3.48 1.104 3.97-1.292 9.143-4.623 10.552-3.363.865-3.976 2.995-3.031 6.081 1.57 5.122-3.958 9.455-8.302 9.209-6.711-.383-4.078 5.727 4.01 11.544 2.995 2.154 4.335 3.32 6.689 2.233 6.121-5.785 17.508-14.061 22.999-20.336zm582.393 18.752l-.337-8.921-16.882-11.402 2.079 11.939zm16.48-3.741v-8.99l-6.948-4.462.355 9.553zM161.362 474.78c1.617 1.636 3.224 1.785 5.794.239 2.962-1.547 1.829-3.887-1.271-5.411-2.893-1.523-6.949 3.112-4.523 5.172zm-5.04-3.941c-.229-1.881 2.065-4.416 3.65-4.51 3.47-.206 2.855-2.057-1.111-4.459-1.86-1.127-5.158-3.759-6.361-4.632-5.931-4.306-11.661 2.339-7.255 7.956 3.688 4.702 9.129 7.493 11.077 5.645zm622.365 5.571l-1.308-9.93-15.249-10.133 1.203 10.934zm-554.293-24.2c.83-1.379 1.083-2.692.999-4.355-.313-6.247-3.533-13.59-8.049-19.734-3.36-4.572-7.437-8.48-11.566-10.777-11.664-5.997-27.227-3.414-24.963 4.309 1.612 5.22 1.236 9.591-3.244 12.217-3.046 1.784-3.433 4.19-.212 4.194 2.338.003 8.541-2.141 11.129-6.215 3.647-5.741 5.733-9.079 4.915.293-.343 3.919.148 3.627 6.225 3.314 8.242-.425 6.715 1.119 1.896 4.832-7.014 5.406-8.405 14.552-4.865 22.33 2.19 4.812 3.707 7.373 6.562 6.728 6.171-4.052 16.241-12.195 21.173-17.136zm527.361 11.586l-15.007-9.878.59 10.57 16.204 9.564zm-575.968-9.668c-5.503-6.942-11.958 1.926-7.785 5.802 3.029 2.662 10.674-.063 7.785-5.802zm-13.006.967c-.685-2.163 3.291-5.638 3.916-7.018 1.821-4.023-14.467-15.213-19.533-8.581-3.491 4.57-1.07 9.141 8.343 15.393 5.679 3.772 8.401 3.769 7.274.206zm587.513-6.699l-13.873-8.639.243 9.127 14.731 8.881zm-24.455 8.167v-9.321l-13.974-9.743-.228 9.65zm-543.334-11.018c2.536-2.507 1.679-3.322-3.226-3.07-3.098.159-4.048-.356-4.257 1.063-.462 3.142 4.877 4.582 7.483 2.007zm-11.63-3.525c.253-.648-1.502-1.923-4.362-4.321-5.46-4.578-6.078-7.425-.828-10.993 7.485-5.085-.364-12.32-9.051-9.38-7.02 2.376-7.041 9.444-2.871 13.991 5.716 3.807 16.083 14.789 17.112 10.703zm554.964-9.318l-13.745-9.422v9.177l13.745 8.015zm-552.377.601c6.121-3.12 6.449-10.944.319-8.078-2.529 1.181-5.842 4.384-5.85 5.834-.017 2.82 2.406 3.836 5.531 2.244zm4.495-17.962c7.933-4.263 6.721-8.223-1.187-13.177-9.647-5.53-16.404 5.078-8.456 12.295 4.16 3.777 5.125 3.311 9.643.882zm10.291-7.69c12.898-13.857 21.449-13.149 38.481-12.778 43.927.396 57.391-20.599 56.001-35.318-21.348 10.599-40.401 4.908-60.72 7.977-35.059 7.825-39.17 24.313-41.617 33.749zm176.106-47.205c11.32.101 10.812.447 6.157-8.859 11.019 1.508 15.464 6.787 11.826-4.179 5.846 2.084 9.347 3.687 15.384 5.674l3.832-2.22c-23.316-22.689-49.175-3.466-42.361 19.423l8.659-4.14z" fill="#131f67"/><path d="M421.253 1189.82l5.422-26.27 48.39 2.36s5.621 16.48 7.896 23.91zm-111.749-.63l25.674-42.4 36.458 9.89-8.389 33.14zm70.916.64l11.044-45.27c-20.855-4.59-40.529-7.61-63.547-13.82l-37.366 59.03-22.482-.59c19.369-25.81 54.743-77.92 54.743-77.92 81.138 27.91 162.939 32.63 245.297 17.88 0 0 30.343 40.03 41.217 61.73l-21.398-1.05-26.586-44.52c-18.513 2.01-36.722 4.48-56.037 5.28l13.225 39.25-21.25-.01-12.055-39.13c-23.17-.89-42.643.91-70.409-3.43l-9.791 42.54zm153.121.01l-7.317-27.83 26.114-3.06s12.112 21.23 18.743 30.88zm76.495-83.42c1.274-19.37 5.135-34.58 23.134-60.28 23.006-32.85 64.815-96.85 65.838-99.86 0 0 42.877 64.32 62.056 93.39 16.362 24.9 26.331 52.66 26.87 69.33 1.036 31.97-19.101 51.97-46.125 55.29-18.55 2.29-37.805-14.51-39.264-34.28-.598-8.1-5.008-10.55-6.194-3.45-1.555 24.64-21.067 39.24-43.445 37.06-33.24-3.25-44.268-35.96-42.87-57.2zm232.835-2.91c-8.53-2.72-14.644-11.46-15.72-22.46-1.23-12.59 3.319-25.44 18.683-48.96 7.281-11.43 14.917-23.48 20.922-35.623 9.038 13.273 13.73 23.453 22.849 37.173 20.924 33.54 24.916 51.59 14.257 64.44-7.521 9.07-23.362 9.3-29.91.45-1.965-2.66-2.443-3.87-3.824-9.73-.615-2.61-2.491-2.95-3.022-.55-2.731 12.36-13.01 18.83-24.235 15.26zM299.185 931.237c32.483-49.37 147.191-208.539 147.191-208.539l16.701 1.594S361.198 866.38 311.715 938.446zm-165.638-76.801l40.001 28.802.288 224.242-40.649 28.6zm166.056-366.854l24.214 47.385c-102.878 97.471-82.695 211.85-27.58 293.434 0 0-7.127 18.249-22.654 37.633-74.57-49.175-97.252-176.975-96.683-178.343 82.175-73.295 93.254-96.634 122.703-200.109zm420.396 349.322c5.311-72.164 40.607-119.331 80.159-148.152l2.023 73.402c-25.891 24.849-53.27 50.505-82.182 74.75zm-107.42-72.69c90.097-84.14 93.17-203.631 27.533-291.342l26.862-37.51c38.074 40.75 75.41 83.449 91.301 182.685-57.058 44.974-107.475 119.288-120.888 194.304zm-124.151-97.898l-.165-34.387 33.698-.169-.959 34.333zm-71.24-.268l-.482-34.268 33.315.24-.518 34.739zm57.694-91.754S586.558 417.98 630.39 361.557l9.313 6.85-148.515 206.757zM214.039 464.981c-.11 61.673-39.644 110.544-80.026 142.428l.552-70.215zm23.522-112.232s-80.377-107.544-88.96-154.328c-2.876-28.473 13.311-58.352 41.252-62.174 21.72-2.654 42.672 12.937 45.297 35.123.484 4.362 1.473 5.548 3.771 4.517 1.668-.748 1.921-1.622 2.654-9.16 2.085-21.46 22.09-33.34 42.86-31.515 37.214 4.764 50.218 51.262 39.819 74.729-21.962 49.554-91.225 144.621-86.693 142.808zM24.696 228.558c-3.103-12.593 1.645-28.822 10.674-32.905 13.431-6.073 26.333 1.59 28.49 13.519.811 4.487 2.707 4.187 3.453-.47 1.836-11.467 15.153-17.935 26.713-11.985 14.333 7.378 17.179 26.448 6.494 47.703-11.95 20.207-36.321 58.899-36.321 58.899-.743-2.231-34.099-52.454-39.503-74.761zm776.081-61.186l.235 273.741-37.739-22.725 3.201-229.562zm-179.884 16.21c-85.192-22.151-162.805-28.779-244.399-11.293-10.635-12.683-46.369-65.503-46.369-65.503l20.626.303 29.19 46.723 55.614-7.267-14.318-38.008 22.928.099 11.424 37.276c-.117-.294 45.244.448 70.453 3.433 4.009-13.84 11.464-41.343 11.464-41.343l25.258-.016c-3.245 13.218-11.961 44.66-11.961 44.66 20.687 2.877 59.058 12.63 59.409 13.052 13.461-19.025 25.975-38.053 38.15-57.079l24.614-.119c-7.25 12.283-50.718 75.694-52.083 75.082zm-15.718-32.812l-37.637-8.776 9.828-33.17 52.607-.03zm-216.129-12l-17.5-30.784h33.672l11.15 27.113zm76.438-6.271l-5.099-24.513h61.153l-6.25 26.112z" fill="#d40000"/><path d="M325.667 105.922l54.39 78.489c.252-.253 30.476-6.019 60.182-7.475 29.532-1.448 64.753.397 65.051 1.293 0 0 9.296 28.06 12.451 41.84 4.157 18.411 3.718 39.599-.672 53.659-6.433 20.601-9.827 26.782-24.198 40.931-10.661 10.332-25.718 21.572-41.26 27.577-21.522 8.989-23.713 8.942-36.398 9.534-8.391.392-9.244.717-13.835 3.098-1.415.493-2.333 1.968-3.594 2.392-1.06.358-3.077-.046-3.077-.046-69.958 30.66-124.716 64.848-166.085 95.378-.479.355-.789 1.936-1.254 2.316-3.382 2.769-6.504 4.869-9.801 7.399-.453.348-1.474-.274-1.92.073-48.675 37.497-76.248 67.9-86.385 76.677l.996 174.591s22.161-11.384 33.527-18.323c7.978 67.601 41.692 133.268 94.931 178.877l-23.093 31.839-106.426-73.275 1.474 322.134 56.588-39.29v-33.98c16.861 11.35 33.32 15.78 45.294 67.5 9.574-18.17 8.734-45.23 4.441-63.3.071 0 14.372-11.82 18.748-20.87l-21.03-18.65s5.45-45.17-4.461-54.264c-7.848 20.504-14.1 42.224-43.419 58.044l-.362-156.918c14.611 9.254 28.427 19.68 42.869 29.173l1.992-.401 14.94 10.24s-1.584 3.199-3.032 5.395c-18.153 27.537 12.096 61.315 36.708 40.992 9.639-7.958 27.722 25.129 31.135 56.949 3.472 20.56 5.347 46.09 10.926 63.94 1.733 5.21 1.054 8.14-2.625 11.3-18.858 26.54-56.768 80-56.768 80h27.314l1.978-3.13h-20.138c17.339-23.07 33.889-49.96 51.881-72.49 67.035 25.23 176.843 31.06 243.16 15.76 13.7 19.21 27.011 39.35 40.186 58.91h-19.071l2.625 4.11h25.801L562 1113.91c-37.458 11.14-128.775 6.8-127.114 5.88 0 0-.252-.62-3.413-9.7-15.684-50.61-17.132-95.54 22.201-131.843 20.894-18.577 44.226-30.83 70.287-28.506 11.649-.228 11.869-.858 16.731-3.051 2.676-1.208 8.217-2.465 8.217-2.465l26.403-14.639 3.478-.695 7.596-4 1.571-1.859 12.271-6.233 1.37.112 16.589-9.543.22-1.347 6.53-4.02 1.551 1.636c1.811.151 65.018-41.328 91.383-64.447l1.635.606c30.78-24.909 72.64-64.181 85.053-79.095l-.666-74.731-1.047-.909-.427-82.751h-2.405l-.103-10.209c-13.609 5.041-28.588 17.684-29.597 17.159-8.663-70.062-40.929-134.599-93.638-181.989l22.446-30.992 104.228 70.125.278-20.485h1.293c1.28-78.558 1.985-282.176 1.985-282.176l-1.034-.101-.02-16.256-53.278 34.014-.743 34.366c-23.623-7.715-38.576-36.09-43.542-61.377-6.878 2.76-10.072 29.389-7.531 63.114-7.299 4.357-11.973 9.12-16.447 14.89 5.786 7.284 12.206 13.257 19.278 19.367-1.474 3.181-4.603 48.184-1.499 53.768 1.422 4.118 6.342 3.529 6.368-.802 7.182-35.098 40.477-58.132 42.345-56.009l-.815 161.83-59.147-41.452c12.419-14.023 15.031-37.67-.608-49.244-15.684-11.603-31.038-1.76-34.672 5.617-19.201-12.513-25.659-58.882-28.465-77.034-.698-8.83-2.961-20.819-5.573-31.638-1.635-6.779-3.588-13.263-3.84-19.334-.11-2.859.226-4.097 2.825-7.677l57.5-81.58-29.351-.101-.285.505 23.093.061-51.862 73.639c-78.012-24.509-158.909-30.436-245.448-14.889l-42.747-60.124 19.434-.081-.769-1.293zm45.113.687l.827 1.475 33.599-.101-.505-1.253-33.921-.121zm49.819.182l.646 1.778 22.932.081-.705-1.738zm117.061.626l-.233.808 25.265.041.22-.809zm-77.418.02l.239 1.031h60.952l.22-.97zm117.358.546l-.245.848 52.611-.04.447-.808zm221.968 44.871l.162 11.071-35.331 22.466c-.886 47.357-2.244 229.526-2.244 229.526l-8.469-5.556 1.662-228.112s31.264-20.092 44.22-29.395zm-92.727 8.909h1.19l.362 2.566h-2.062zm2.502 6.687l.931 3.475-5.172-.02.867-3.354zm89.197 1.798v7.233l-30.488 19.051v-7.171zm-94.104 6.021l7.978.101 1.332 4h-10.04zm-195.81 2.141l5.333.799c12.219 29.152 15.374 54.187 17.494 80.236 4.875 33.81 14.702 67.701 21.542 82.105l-7.823-.081c-.905-.116-17.41-49.064-20.849-77.964-.918-5.722-.556-11.039-.847-16.344-1.739-22.346-4.797-39.141-14.85-68.751zm10.02 1.178l6.808.696c4.758 20.701 11.689 40.242 14.507 61.039 4.506 33.265 6.905 67.236 22.951 100.024l-6.362-.06c-9.736-22.167-15.761-45.289-19.64-70.286-3.032-14.337-3.058-25.102-4.668-38.063-1.952-15.563-7.945-35.349-13.596-53.35zm10.344.964l6.808 1.01c4.48 20.557 12.167 43.179 14.203 61.76 4.144 37.843 10.086 73.104 22.02 98.127l-4.765-.142c-18.444-35.718-18.735-67.543-23.901-101.015-3.045-19.711-9.49-39.428-14.365-59.74zm10.848 1.596l6.026.929c4.176 20.452 11.682 43.601 13.434 64.347 3.09 36.72 9.6 64.521 23.274 94.166l-5.638.101c-16.505-28.874-18.722-64.313-23.862-100.207-2.838-19.826-9.238-39.776-13.234-59.336zm258.702.04v8.951l-30.488 19.576v-8.828zm-248.862 1.738l6.284.969c4.047 19.726 11.579 40.779 13.357 59.984 3.038 32.822 9.07 65.969 22.601 96.509l-5.792.363c-14.314-30.837-20.546-58.904-23.255-94.347-1.519-19.873-9.167-44.1-13.195-63.478zm166.046.101l2.185 5.313-14.604.707.181-5.96zm-155.702 1.859l7.474 1.454c7.919 31.465 9.994 61.255 15.386 91.162 6.743 37.159 13.842 55.837 19.647 62.765l-6.18.202c-15.09-32.172-20.436-64.16-23.94-97.298-2.069-19.55-8.482-38.817-12.387-58.285zm11.398 2.121l5.695 1.151c6.795 25.716 9.853 49.768 12.846 73.045 5.431 44.208 20.165 77.833 23.294 79.387l-6.278-.283c-13.628-18.833-18.677-50.896-25.375-96.146-2.948-19.891-5.877-38.605-10.182-57.154zm9.167 1.839l6.388 1.575s5.753 22.624 10.098 52.649c3.627 25.022 5.527 74.258 32.732 102.571 13.576 14.134 37.497 26.411 53.821 13.071 6.975-5.944 11.468-15.473 7.273-25.658-7.047-17.058-30.916-14.135-22.97 3.758.885 4.292-4.72 4.473-8.631.283-4.099-4.476-3.077-9.581-.168-14.273 6.135-9.893 22.569-10.907 32.215-2.071 15.406 15.09 8.74 40.986-10.771 49.194-22.472 9.549-51.441-10.161-62.91-28.971-18.975-32.765-21.917-63.871-26.364-96.955-2.263-17.865-6.621-36.622-10.713-55.173zm9.62 2.646l6.484 1.576c.02.087 7.105 31.889 9.452 50.73 2.909 23.285 6.116 50.721 16.085 71.902 6.2 13.172 15.218 24.253 24.347 30.708 7.842 5.55 14.876 9.06 25.31 6.788 12.051-2.622 12.568-21.266 1.073-21.313-5.876-.024-2.049-5.678 2.826-5.839 17.326-.571 17.83 26.738 1.519 32.83-18.677 6.976-38.874-6.173-51.377-22.688-21.878-33.977-21.018-64.97-25.821-92.368-1.28-14.432-9.413-51.647-9.898-52.326zm131.096.949l3.963 5.294-22.006-.102.103-5.03zm-121.437 1.758l6.2 2.162c.174 0 6.219 24.685 9.981 53.861 4.461 28.13 5.916 51.544 20.481 71.862 6.065 8.453 17.508 19.729 24.709 21.072 4.468.964 9.09-.02 10.228-3.414 1.855-5.559 6.62-3.005 6.724 2.04-.02 3.529-2.612 7.193-6.989 8.465-21.412 3.706-41.007-23.177-46.955-36.81-8.049-19.829-11.495-41.989-14.986-69.579-1.48-11.678-8.546-48.916-9.393-49.659zm198.674.99l-.103 8.909-30.385 19.153v-8.667zm-189.345 1.738l6.949 1.899s5.799 21.71 9.258 48.527c3.504 27.197 11.036 58.792 25.11 75.135 1.28 1.566 2.153 2.678 2.709 3.596 1.008 2.222-.194 5.976-1.235 5.98-25.071-13.047-30.999-65.472-33.152-83.196-3.174-27.412-9.639-51.941-9.639-51.941zm97.504 4.202l22.123.626 5.269 5.192-29.293-.263c-3.09-3.191-1.163-2.822 1.901-5.555zm91.841 7.232v7.395l-30.488 19.314v-7.556zm-91.078 2.344l32.37.566 11.352 6.748-49.456-.404zm91.078 9.374v8.869l-30.488 19.112v-8.324zm-103.058 1.677l54.998.586.136 5.96-59.64-1.536zm-7.169 10.202l62.206.162.161 6.587-56.568-.546zm110.227 1.011v9.253l-30.488 18.89v-8.769zm-98.532 9.697l47.679.222-5.172 5.516-35.958-.364zm98.532 3.253v8.728l-30.488 19.172v-8.606zm-62.652 6.667l-5.773 5.616-24.709-.343.847-5.112zm62.652 6.121v9.354l-30.488 18.627v-8.101zm-93.483 3.414l20.39.445-3.116 4.283-17.836.081zm-183.32 7.456c3.077 23.53 20.151 70.968 20.144 70.953l-6.73.06c.337.454-12.205-29.883-16.724-58.467-.55-2.728 1.312-11.926 3.31-12.546zm181.988 1.353l15.697.283-3.413 6.061-12.788-.02zm94.815 1.434v8.182l-30.488 18.749v-7.455zm-95.319 8.284l10.409.323-2.47 5.616-8.062-.242zm95.319 4.404v8.728l-30.488 18.91v-8.425zm-283.23 1.859c3.065 17.138 16.066 51.562 17.055 53.82l-5.76.081c-.259.786-13.512-30.865-14.928-44.406-.679-2.836.821-8.446 3.633-9.495zm187.807 3.636l6.168.283-1.054 3.212-4.991.122zm.55 7.718l3.213.081-.769 3.05h-1.998zm94.873.162v7.05l-30.488 19.294v-6.687zm-290.865.767c4.629 13.738 9.252 27.737 14.728 41.133l-6.827-.161c-4.526-9.66-7.7-20.517-11.23-31.174-.976-4.446 1.099-8.253 3.329-9.798zm-6.807 9.173l11.352 31.718h-6.439c-2.657-6.38-5.637-13.513-7.732-20.08-2.133-6.81-1.939-7.034 2.819-11.638zm297.672 1.979v8.364l-30.488 18.87v-7.213zm-302.424 12.27l6.226 17.57-7.959-.202c-2.333-5.529-3.762-10.359-4.344-15.741-.22-2.613-.692-5.216 1.131-6.316 3.595-2.034 3.188-.358 4.946 4.689zm-8.456 7.193l3.31 10.296-7.435-.182c-2.185-4.866-3.025-8.368-2.366-13.462 4.474-5.163 4.81-2.464 6.491 3.348zm310.88-6.048v8.748l-30.488 18.324v-8.121zm-321.431 6.283l3.11 10.142-6.705-.162c-1.111-2.378-.407-5.274-.446-7.96zm-8.786 5.192c.097.005.181.03.22.081.957 4.487.026 4.768.084 4.728l-9.374-.061s7.596-4.82 9.07-4.748zm330.217 2.627v6.99l-30.488 19.011v-7.091zm-362.503 11.071l183.204.525 6.097 8.627s-17.824.485-76.203.121c-49.147.633-147.905-1.051-147.905-1.051l9.613-4.525c13.305-.311 25.382-3.765 25.194-3.697zm362.503 1.03v7.698l-30.488 18.465v-7.455zm-515.522 7.387c-14.727 6.527-28.478 8.133-38.744 7.301-22.124-1.793-55.968 7.456-62.775 28.708-2.134 7.505-2.16 7.714 1.9 11.536 2.018 1.897 3.97 3.335 4.345 3.192 3.556-3.157 8.275-9.017 13.331-10.727 6.652-2.011 10.253-2.286 21.153-2.768 23.487-1.04 28.788-2.029 34.626-3.577 12.859-3.403 25.821-16.046 26.604-30.136.084-1.614-.44-3.529-.44-3.529zm-.627 1.927c-2.476 29.392-34.323 33.222-48.306 32.385-28.356-1.696-39.521 6.771-44.014 12.025-1.48 1.409-2.34 1.077-2.101-.206 3.291-16.273 29.584-16.888 42.824-16.708 32.441 1.479 40.665-14.164 39.747-14.317-2.463 1.104-4.287 2.076-6.782 3.26-1.073.446-.847-.208-3.653-1.833-.045.213-3.245 7.487-7.389.587.103.344-2.948 6.127-8.612.724.039.582-3.413 5.539-8.947.469-5.198 4.454-7.674 2.002-9.911-1.129-1.642.985-6.458 7.49-10.48.487-4.279 2.726-6.064 5.676-9.749 3.893-8.598 1.54-16.039 10.364-19.071 18.446-.951 2.776-2.864 3.212-3.091.161-1.021-8.431 12.853-23.036 26.785-27.071 10.835-3.138 18.218-5.402 42.028-4.493 13.538.517 30.722-6.68 30.722-6.68zm347.556 2.222l8.586 5.819-149.444 206.05-13.189-.343zm-239.733.142h16.996v28.081h-14.65l-5.23-7.778a9.039 9.039 0 0 0 4.603 1.273c5.03 0 9.116-4.084 9.116-9.111s-4.086-9.091-9.116-9.091-9.109 4.064-9.109 9.091c0 .446.039.883.097 1.313l-5.469-8.122s2.327-1.384 7.874-3.858c1.435-.64 4.888-1.798 4.888-1.798zm52.366 0h28.795v28.081H442.58zm63.078 0h29.797v28.264l-29.797-.183zm64.346 0h29.778v28.081h-29.778zm228.09.666l.446 8.769-30.488 18.526v-8.667zM583.8 366.217c-5.32 0-9.658 4.297-9.658 9.617s4.338 9.637 9.658 9.637c5.321 0 9.639-4.317 9.639-9.637s-4.318-9.617-9.639-9.617zm-126.752.506c-5.32 0-9.639 4.297-9.639 9.617 0 5.319 4.319 9.636 9.639 9.636 5.321 0 9.639-4.317 9.639-9.636 0-5.32-4.318-9.617-9.639-9.617zm62.788.182c-5.314 0-9.633 4.296-9.633 9.616s4.319 9.637 9.633 9.637c5.321 0 9.639-4.317 9.639-9.637s-4.318-9.616-9.639-9.616zm32.448 1.151a8.078 8.078 0 0 1 8.081 8.081 8.078 8.078 0 0 1-8.081 8.081 8.083 8.083 0 0 1-8.082-8.081 8.083 8.083 0 0 1 8.082-8.081zm-127.742.122a8.078 8.078 0 0 1 8.082 8.081 8.079 8.079 0 0 1-8.082 8.081 8.078 8.078 0 0 1-8.081-8.081 8.078 8.078 0 0 1 8.081-8.081zm191.486.282c1.92 0 3.666.731 4.985 1.92l-8.806 11.96a7.448 7.448 0 0 1-3.633-6.404c0-4.126 3.329-7.476 7.454-7.476zm-126.513.041c4.468 0 8.081 3.618 8.081 8.081s-3.613 8.081-8.081 8.081c-4.467 0-8.081-3.618-8.081-8.081s3.614-8.081 8.081-8.081zm-97.582.586c3.33 0 6.019 2.693 6.019 6.02s-2.689 6.041-6.019 6.041c-3.329 0-6.038-2.714-6.038-6.041s2.709-6.02 6.038-6.02zm-18.483.323c51.345 65.383 78.627 131.67 90.632 203.908l-8.611-.404c-14.268-78.566-46.386-145.949-89.941-200.332zm210.35.061c3.524 0 6.388 2.842 6.388 6.363a6.391 6.391 0 0 1-6.388 6.384 6.39 6.39 0 0 1-6.381-6.384c0-3.521 2.864-6.363 6.381-6.363zm-126.752.504c3.524 0 6.388 2.843 6.388 6.365a6.392 6.392 0 0 1-6.388 6.384 6.392 6.392 0 0 1-6.387-6.384c0-3.522 2.864-6.365 6.387-6.365zm62.788.182c3.523 0 6.387 2.843 6.387 6.364s-2.864 6.384-6.387 6.384c-3.517 0-6.381-2.863-6.381-6.384s2.864-6.364 6.381-6.364zm159.768 4.566c3.382 25.878-3.297 42.586-23.034 45.295-25.162 3.454-28.427 5.348-28.562 29.173-.168 28.241-4.345 36.396-24.347 38.628-22.505 2.512-27.735 5.178-25.718 33.153 1.474 20.414-6.575 29.101-23.901 32.891-13.551 2.963-25.278 7.499-30.301 21.153l-12.387.161c3.219-21.504 24.832-31.774 38.686-32.486 14.941-3.543 18.057-8.55 15.639-34.729-1.823-19.71 5.411-25.699 28.569-30.203 18.509-3.65 23.047-8.963 22.039-24.103-2.16-32.463-.026-37.347 18.425-41.295 9.4-2.226 24.715-3.224 30.547-10.404 6.639-8.168 4.945-15.12 4.344-25.153zm118.936.869v8.485l-30.488 18.809v-8.263zm-448.086 5.031c-6.517 28.144 15.897 34.262 29.538 39.011 15.872 5.526 19.725 13.533 17.921 41.497-1.364 21.154.97 25.829 14.669 33.093 20.953 10.81 26.578 26.176 17.275 48.669-5.741 13.867-2.729 17.755.905 29.86l-10.163-.101c-.737.231-9.316-15.098-1.998-31.598 8.676-19.55 8.43-29.366-10.906-38.163-14.967-6.807-19.557-13.227-20.488-27.233-.394-5.899-.349-8.837 1.028-21.658 1.746-16.166-4.021-23.119-27.915-32.002-10.655-3.958-17.889-13.168-20.068-27.779-.607-4.09-.058-8.808-.058-8.808zm357.435 3.05l90.89 60.468-.627 13.455-96.424-64.427zm-58.566 1.334a7.958 7.958 0 0 1 7.958 7.959 7.959 7.959 0 0 1-7.958 7.96 7.96 7.96 0 0 1 0-15.919zm-285.958 3.474c3.995 0 7.214 3.223 7.214 7.213s-3.219 7.233-7.214 7.233c-3.989 0-7.228-3.243-7.228-7.233s3.239-7.213 7.228-7.213zm434.91.849l-.304 8.102-29.919 18.505v-8.101zm-474.327 5.656c27.489 35.825 54.506 72.736 75.342 142.29l-8.889 3.414c-17.203-55.98-43.658-102.49-74.858-140.956zm71.793-.342l207.073-.001-5.315 7.152-197.827-2.02zm402.799 6.727v8.869l-22.931 13.96-6.749-4.404zm-486.753.949l4.06 5.334s-4.396 3.45-9.374 7.011c-13.557 9.697-15.316 10.799-16.221 17.112-2.146 14.992 13.273 22.385 28.75 13.717 5.547-2.537 17.72-10.242 17.72-10.242l3.492 5.151s-17.443 13.047-27.677 16.021c-22.453 6.524-39.223-21.932-22.627-38.83 2.534-2.583 7.893-6.052 12.16-8.809 4.377-2.827 9.717-6.465 9.717-6.465zm92.43 3.536l190.8 1.131-121.845 166.534-5.418-.303c-9.445-62.291-32.868-116.709-63.537-167.362zm-83.198 7.051l11.152 15.576s-7.267 6.951-19.272 13.516c-9.626 5.264-20.035-4.305-13.977-12.93 6.213-8.565 22.097-16.162 22.097-16.162zm477.521 1.596v8.121l-13.214 8.102-6.038-3.859zm-478.911 6.242c-5.295.28-14.068 6.28-17.054 11.456-1.281 2.224-.822 4.09.362 5.616 1.81 2.322 3.943 2.19 10.285-1.192 12.956-6.904 15.387-11.004 9.678-15.051-.788-.56-1.732-.809-2.786-.829-.168-.003-.317-.009-.485 0zm-.427 3.334c.841-.08 1.804.172 2.606.101 2.243.922 1.558 3.707-.789 4.364-.511-.814-4.396-.921-4.138 3.03-.943 2.239-.905 2.068-3.756 2.385-1.894-.458-3.148.849-3.517 1.676-1.965 1.052-4.383.723-4.829-.464-.433-1.152 1.177-4.473 2.547-4.466.653.053 1.823-.927 3.026-1.737-.039-2.162 2.495-2.474 3.232-2.465.724.151 3.155.184 4.325-1.798.337-.415.796-.578 1.293-.626zm479.338 1.939v12.526l-9.574-6.121zm-529.402 1.576c34.749 41.031 59.775 84.7 75.704 145.139l-6.969 4.808c-10.531-42.374-26.739-87.152-74.696-145.36zm406.549.687c15.729 13.362 80.204 74.043 92.487 181.746l-8.624 5.294c-6.93-56.847-29.293-122.023-89.443-179.787zm-31.097 3.738c4.396 0 7.965 3.564 7.965 7.96 0 4.395-3.569 7.96-7.965 7.96s-7.958-3.565-7.958-7.96a7.959 7.959 0 0 1 7.958-7.96zm-385.124 3.111s7.299 7.506 7.293 9.293c-.026 3.538-2.838 5.543-19.621 11.657-2.832 1.033-15.232 3.89-15.232 3.89l-.446-6.014c6.323-2.28 23.306-6.349 24.547-9.957.608-1.418-2.417-5.01-1.777-5.01zm115.768 1.528c3.989 0 7.209 3.243 7.209 7.233s-3.22 7.233-7.209 7.233-7.234-3.243-7.234-7.233 3.245-7.233 7.234-7.233zm292.468 2.068c52.528 51.307 81.433 114.702 88.189 180.17-61.171 49.75-102.728 112.295-119.24 190.535-8.159-13.602-15.102-29.241-22.646-44.527 81.626-71.726 98.797-200.902 28.206-291.449zm-321.224 9.779l3.679 5.697s-.77.7-12.206 7.798c-16.725 10.384-19.486 17.154-13.9 27.779 5.709 10.864 12.077 11.444 30.043 2.748 6.342-3.072 11.74-6.304 11.74-6.304l2.864 5.96s-8.042 6.543-23.532 12.223c-14.572 5.342-28.343-3.759-30.935-20.586-1.881-12.234 3.459-18.792 24.709-30.851 2.392-1.265 7.538-4.464 7.538-4.464zm250.272 2.707a7.96 7.96 0 0 1 0 15.92 7.96 7.96 0 0 1-7.959-7.96 7.959 7.959 0 0 1 7.959-7.96zm-324.58.301l4.81 4.534s-2.075 3.05-13.919 10.176c-10.648 6.406-11.747 5.369-6.446 9.848 9.885 8.349 23.597 26.838 23.526 31.615-.071 4.601-4.196 8.842-12.096 12.399-4.331 1.947-21.457 8.053-23.972 8.491-4.997.547-6.407 2.552-1.403 7.098 8.495 9.745 15.742 30.601 12.833 36.96-3.284 7.164-7.221 8.375-38.686 9.816-3.588.164-5.301-.851-3.355 3.738 1.409 3.334 2.889 7.913 5.695 22.061 2.502 12.618 2.069 18.29-2.825 20.891-2.819 1.493-24.703.967-33.741-.809-10.35-2.033-11.475-2.171-9.801 4.566 2.173 9.304 3.524 34.241-3.51 39.053-2.929 1.906-6.084 1.438-18.936-2.889a197.584 197.584 0 0 1-15.289-5.92l.142-7.738c6.678 2.75 24.993 10.66 30.204 8.162 6.174-8.849-2.405-39.882-5.683-46.527-3.95-7.936.181-9.669 9.297-4.748 4.784 3.37 45.985 19.618 43.645 5.084-2.515-13.792-6.995-29.491-15.684-39.349-8.036-9.117-4.034-12.845 4.907-8.848 15.832 7.073 48.545 5.34 46.916-1.992-2.153-11.924-12.988-28.089-27.812-40.621-4.125-3.485-4.28-4.978.582-5.836 13.848-1.103 53.478-5.174 47.937-14.478-4.751-7.615-11.1-16.035-16.505-20.567-8.883-7.444-17.837-10.675-21.806-12.223l.252-5.705c18.05-1.499 27.431-6.934 40.723-16.242zm-43.697 5.618c-6.471 67.846-34.852 123.745-93.438 162.735l-.323-7.596c51.5-38.686 76.228-93.671 82.932-146.876zm124.813 4.263c.026.001.038.011.038.02 0 0 9.426 16.947 9.413 18.486-5.592 5.183-20.274 12.772-26.28 10.99-9.264-2.952-10.719-12.837-1.816-18.667 7.68-5.596 17.255-10.467 18.541-10.809.045-.011.078-.021.104-.02zm-75.071-1.055l4.816 4.317s-1.241 1.881-8.172 7.425c-5.398 4.151-3.51 2.514.162 7.454 3.271 3.921 9.09 11.8 9.09 11.8l-1.739 10.485c-6.097-8.684-11.153-15.003-20.203-24.284-4.597-4.737-4.338-4.866 2.223-8.283 4.92-2.719 8.922-6.023 13.823-8.914zm131.516 6.756c3.989 0 7.215 3.222 7.215 7.212s-3.226 7.233-7.215 7.233-7.234-3.243-7.234-7.233 3.245-7.212 7.234-7.212zm-58.424.602c-6.885 1.815-13.628 7.961-17.416 10.667-1.377.986-.291 5.935 1.028 7.637 1.7 2.185 4.836 1.821 8.592-.263 1.571-.872 4.409-2.299 6.297-3.171 5.294-2.443 7.512-4.267 7.318-6.304-.847-2.74-3.013-8.764-5.819-8.566zm.382 3.132c1.933.08 3.329 2.57 2.709 4.04-3.317 1.793-5.153.276-4.726 2.788 0 0 .329 3.909-4.526 4.001-1.183-.518-3.245-.425-4.247.585-3.388 1.405-6.355-1.564-2.664-3.252.996-.457 3.465-1.228 4.138-2.748.355-1.884 1.913-3.389 3.62-2.343.905.064 2.942.207 3.595-1.233-.252-1.618.898-1.756 1.719-1.818a2.23 2.23 0 0 1 .382-.02zm-138.861-.503c1.487 7.614-3.11 20.986-5.709 28.524-15.412 20.155-37.748 30.46-58.992 37.497-4.72 1.567-11.062.775-11.062.775 29.39-30.238 54.597-52.406 75.763-66.796zm-53.692 6.846c.207-1.695-7.538-3.75-8.281-2.687-1.435 1.342-3.711 22.348-2.224 23.86 2.062 2.1 7.758 2.676 8.301.175 1.784-8.241 1.351-14.398 2.204-21.348zm131.743-.626l5.03 6.243c-10.654 101.228-82.965 188.803-160.169 223.526l-.22-6.707c88.318-46.387 141.466-123.62 155.359-223.062zm349.412.425l9.575 13.172-13.719.424zm-483.708 2.445c-.084 3.462-.479 10.651-1.81 14.667-.834 3.125-3.252 2.412-4.164-.465-.95-2.992-.155-11.486 1.636-14.969 1.907-3.282 3.426-2.732 4.338.767zm73.067 1.838c4.739 0 29.894 15.479 26.532 23.19-2.677 6.137-23.733 6.635-33.385 5.775l1.455-5.914s2.941 1.025 14.158-.162c11.779-.786 10.913-4.83-2.586-13.374-5.806-3.636-7.157-4.532-7.157-4.532zm69.711 8.303c7.797 13.137 15.174 27.942 22.104 44.528-95.106 89.742-87.723 211.959-27.76 292.175l-25.834 34.871c-51.668-49.295-79.797-109.941-89.301-174.353 75.414-54.257 110.848-135.223 120.791-197.221zm353.175 3.98l5.676 10.849-13.641-.223zm-58.896 5.434a7.96 7.96 0 0 1 7.958 7.961c0 4.395-3.562 7.939-7.958 7.939s-7.958-3.544-7.958-7.939a7.96 7.96 0 0 1 7.958-7.961zm-221.283 2.142l2.709 6.162c.123.773-19.246 6.887-25.478 14.748-5.754 7.261-5.218 14.835-1.979 20.062 5.522 7.45 9.433 8.492 18.749 5.636 7.596-2.329 13.175-5.472 20.707-9.313l1.19 3.111c.013-.165-10.81 6.357-19.072 11.011-3.097 1.747-6.827 2.482-10.059 2.404-18.788-.452-28.744-24.695-13.254-39.012 2.27-2.098 9.943-6.303 16.408-9.637 4.3-2.219 10.079-5.172 10.079-5.172zm248.72 3.818c62.025 89.468 19.563 187.508-20.487 222.193l-1.067-10.526c67.43-76.813 43.975-166.518 15.878-206.394zm39.921 4.021l4.868 11.051-14.404-1.515zm-250.019 3.62c3.989 0 7.228 3.242 7.228 7.232s-3.239 7.212-7.228 7.212c-3.995 0-7.215-3.222-7.215-7.212s3.22-7.232 7.215-7.232zm202.702 1.41c54.371 78.982 24.043 204.921-79.661 243.285l-.524-8.829c105.741-44.205 116.124-161.89 73.643-228.294zm-235.667.485l6.872 18.546c-8.643 5.79-12.037 6.776-21.722 9.132-7.629 1.743-13.576-11.451-7.719-16.506 6.691-5.769 13.893-8.264 22.569-11.172zm-176.332.061c1.28-.061-.071 3.105-3.355 11.051-7.228 17.509-7.713 17.882-25.918 20.768-9.478 1.502-16.537 1.88-23.274 1.233-10.163-.977-14.501-3.848-7.919-5.233 19.091-4.196 40.192-14.084 53.924-23.657 3.575-2.566 5.67-4.121 6.542-4.162zm345.565 2.155c4.933 0 8.948 4.013 8.948 8.95s-4.015 8.93-8.948 8.93c-4.939 0-8.934-3.993-8.934-8.93s3.995-8.95 8.934-8.95zM276.98 519.16l-.763 6.886s-11.029 5.826-16.253 8.024c-3.989 1.615-4.267 1.973-2.987 5.671 2.586 7.386 7.558 16.546 7.558 16.546l-4.61 10.44c-2.812-9.39-5.773-19.31-10.945-28.057-4.907-6.842-5.825-7.693 1.81-9.124 9.859-3.318 17.533-5.721 26.19-10.386zm98.487 2.237c-5.392.236-16.66 4.774-17.779 9.111-.633 2.45.071 5.877 2.14 6.647 5.612 2.083 16.874-2.533 19.841-6.748.925-1.3-.478-3.994-1.474-5.677-.756-1.285-.614-3.425-2.728-3.333zm.284 3.697c.097-.01.188-.009.285 0 .911-.08 4.241 4.133.504 3.778-1.286-.122-2.463.358-3.517 1.455-.129 2.022-3.025 2.789-4.422 2.101-1.041-.512-2.502.545-2.65 1.172-2.095 1.512-4.752 1.438-5.088.363-.712-.754 1.409-3.852 3.251-3.737.395.024 1.707-.86 2.929-1.92.588-2.113 2.819-1.747 4.222-1.636 1.597.641 3.051-1.431 4.486-1.576zm292.074.323l3.983 11.071-14.243-1.272zm-61.216 12.756c-2.948 3.757-5.664 3.796-9.969 3.596 3.523 4.17 5.075 9.933 1.648 13.71-5.217 5.316-15.27-2.83-14.527-3.576l18.044-24.047c4.791 1.357 7.441 5.834 4.804 10.317zm-391.9-6.272s21.936 18.897 22.091 27.365c.065 3.226-.97 4.274-3.549 5.129-8.618 2.857-32.603-4.491-32.603-4.491l3.077-5.849c3.776 1.041 22.363 5.851 23.959 3.485 1.662-2.457-15.522-19.218-15.561-19.236zm108.877 7.901l2.624 9.131-8.966-2.222zm350.303 1.636l2.341 12.627-14.365-3.354zm-273.836.202l2.147 7.415c-95.287 44.183-123.113 145.649-73.423 229.384l-5.612 7.718c-66.518-107.775.847-217.158 76.888-244.517zm-85.842 7.758l1.293 11.253-11.068-.646zm-131.128-.295c1.881.026 2.243 1.042 2.237 2.154-.013 1.517-9.627 13.795-12.743 16.558-6.756 2.729-32.829-8.164-36.721-16.592-.769-2.469 1.81-1.383 7.584-.209 14.623 4.172 29.447-1.556 39.643-1.911zm253.853.144c3.989 0 7.234 3.223 7.234 7.213s-3.245 7.233-7.234 7.233-7.209-3.243-7.209-7.233 3.22-7.213 7.209-7.213zm-300.142 8.891c7.253 6.518 17.908 11.91 27.359 13.791 5.883 1.296 4.177 1.901-1.28 7.535-5.101 5.333-4.687 6.008-9.878 3.373-8.67-4.396-18.102-14.389-17.721-19.822.155-2.263.55-4.888 1.52-4.877zm541.214 1.22l1.797 12.001-13.577-4.708zm-377.289 4.324l4.422 10.748-12.038-.344zm305.993 10.263c-.006 1.502-.362 4.041-.362 4.041 7.079-4.507 16.479-.807 16.201 6.475-.394 10.266-5.411 10.361-13.615 9 4.487 7.447-.84 14.621-9.284 11.876-7.699-2.501-6.213-10.621-2.618-15.432-18.16 2.961-23.009 28.79-2.036 36.466-4.222-6.524-5.263-14.315 3.878-15.624 8.495-1.216 12.09 5.224 8.424 12.974 7.978-2.773 15.497 1.799 13.098 9.572-2.902 9.385-11.249 8.736-16.169 3.018 3.53 8.509-4.648 14.639-10.822 11.342-9.73-5.197-4.92-14.47 1.603-16.937-25.058-2.581-30.87 32.072-12.399 37.013-4.746-2.973-5.282-16.619 5.547-14.75 10.628 2.139 8.1 12.015 1.28 16.506 8.23-1.757 15.942 5.436 10.932 12.707-5.909 8.572-14.048 2.46-17.074-3.374.95 7.823-4.028 12.805-10.428 9.87-10.997-5.036-2.87-17.647 5.721-16.84-17.436-10.3-41.136 11.305-27.172 29.193-.543-8.125 3.504-14.795 9.09-13.875 4.913.554 9.213 6.154 7.829 10.556-1.286 3.753-5.566 6.639-10.053 7.542 13.337 1.479 14.469 10.91 8.948 15.558-9.381 7.892-13.739-1.22-15.917-6.547-1.907 13.24-17.52 8.738-18.057-.829-.536-10.482 11.56-10.266 13.796-9.677.278-.363-9.361-9.904-19.647-11.262l.059-6.081c40.574-25.443 54.525-69.864 41.647-111.976l2.444-2.809c6.62 5.054 13.253 15.892 25.491 11.917 0 0-2.845-2.004-4.254-3.391-6.297-6.207-2.761-13.516 5.999-13.92 5.677-.261 7.881 4.122 7.92 7.698zm-275.226-.02l4.202 6.162c-61.52 72.07-50.304 154.532-14.928 209.121l-5.152 6.223c-31.31-40.141-56.872-137.458 15.878-221.506zm52.431 9.96c-.084 1.604.032 2.897.032 2.897s1.319-1.645 2.392-3.617c5.256-8.783 16.563-3.729 14.708 6.357-.873 4.729-8.844 6.578-11.017 5.226 2.069 5.637 7.655 6.961 14.469 9.401 2.379.455 6.465 1.616 6.465 1.616l.162 3.818c-36.902 23.247-57.791 62.665-44.266 116.571l-4.079 5.516c-7.448-17.905-14.236-17.514-26.474-18.216 0 0 3.045 2.146 4.797 4.215 3.704 4.386 2.062 12.033-3.071 12.829-11.902 1.844-12.019-6.588-10.448-12.304 0 0-2.127 1.788-3.174 2.465-4.719 3.068-10.596-.118-11.152-6.202-.517-5.727 1.442-9.431 7.338-10.142 1.978-.239 5.03.262 5.03.262s-1.177-2.25-1.817-3.515c-2.825-5.534 3.368-10.269 9.051-9.075 8.967 2.162 8.262 9.899 3.064 15.98 13.913 1.045 21.205-8.047 20.184-17.077-1.254-11.015-6.323-16.971-17.268-18.89 0 0 1.765 2.771 2.521 4.111 2.8 4.967-1.222 11.066-7.111 11.031-6.032-.036-9.898-5.57-7.577-11.031.569-1.33 2.832-2.998 2.489-3.151-.239-.106-3.349.856-4.202.989-7.254 1.131-11.909-5.245-8.87-11.616 2.153-4.513 8.63-5.729 13.33-3.515.75.274 1.656 1.322 1.804 1.091.136-.224-.478-1.704-.672-2.748-1.487-5.836 1.319-8.952 7.641-8.546 8.851.568 12.148 7.779 6.2 14.284a332.16 332.16 0 0 1-3.898 4.159c.297 1.28 12.633 2.211 18.929-4.382 7.293-7.629 8.437-23.553 1.112-28.749-1.209-.857-3.639-2.563-3.639-2.563 3.491 6.998-2.929 15.052-8.599 13.547-11.326-2.732-10.35-12.008-2.896-14.938 0 0-7.564-2.824-9.736-5.865-3.078-4.299-2.043-8.262 1.648-11.284 4.655-3.737 11.262-1.289 14.449 3.324 1.927-5.868 4.642-9.832 12.672-6.638 5.611 2.68 5.566 10.171-.614 14.249-1.985 1.307-5.509 2.524-5.509 2.524s5.315 3.027 11.78 3.099c12.47.14 22.342-14.562 17.313-25.799-1.022-2.282-3.569-5.224-3.569-5.224s-.278 3.926-1.054 5.435c-2.883 5.603-9.503 5.704-13.421 2.171-3.562-3.212-2.521-7.511.239-10.439 2.095-2.222 3.983-2.658 6.911-4.02-3.323-1.122-7.021-1.931-8.637-5.368-1.5-3.276-.446-7.308 3.536-9.805 7.189-3.756 12.827 2.604 12.504 7.552zm-247.408-9.069c5.082 2.934 8.469 7.361 13.208 11.231 3.666 2.968 3.627 3.499.595 6.32-6.808 6.57-10.635-2.94-12.84-6.829-2.695-5.208-2.973-10.525-.963-10.722zm544.692 1.816l.847 12.707-14.165-5.434zm-390.283.747l5.095 11.556-13.157-.06zm274.819.02c12.368 45.686-5.017 78.482-38.001 104.167l-3.653-4.788c25.776-21.901 45.074-47.714 36.547-93.701zm-151.519.203l144.996 2.666-4.344 7.637-11.295.06-22.401 39.598-104.208-.02zm-212.154 33.045c-5.056 7.982-35.176-9.199-34.782-10.105l3.776-3.632c4.784 1.94 19.673 10.152 22.97 8.855 1.151-7.474-7.629-17.151-10.939-23.591l3.685-4.622s19.104 24.728 15.29 33.095zm49.418-29.066l-5.01 9.064c-4.694 1.441-18.859 1.694-20.003 2.634 1.713 4.646 3.588 18.293 3.588 18.293l-5.579 7.14c-1.487-8.781-3.97-19.879-6.168-28.019-1.881-6.905-1.351-5.386 13.357-6.526 6.588-.372 13.382-1.207 19.815-2.586zm29.739 10.931l5.96 10.586-12.083.121zm-145.197.706c.66-.269 4.396 3.921 5.036 5.13-.271 2.752-4.538 4.257-5.197 3.275-.265-.397-.343-6.571.077-8.283.02-.066.039-.104.084-.122zm546.955.142l-.123 13.253-14.365-6.364zm114.048 2.99l-.206 8.586c-52.089 25.44-129.784 93.743-151.946 216.253l-4.545-5.01c22.149-116.971 98.597-186.132 156.697-219.829zm-523.965 11.818l6.484 9.759-11.701 1.273zm410.202 3.739l-1.158 11.737-14.138-7.838zm-272.117 2.444c.058 2.785.291 4.795.466 7.576-32.099 20.778-42.941 53.479-37.601 94.631l-4.441 6.566c-10.447-37.313.097-83.291 41.576-108.773zm372.136 2.424c3.278 1.919 13.88 5.046 13.88 5.046l-.116 7.803-21.845-7.838zm-627.489 33.204c-4.7 3.83-15.535-2.544-20.455-5.142l-.142-6.586s3.749 1.925 7.531 3.434c7.771 3.445 7.791-.658 3.537-12.158-1.5-4.043-2.981-8.723-2.981-8.723l5.114-4.845s12.225 27.532 7.396 34.02zm109.646-24.698l8.365 8.747-11.656 2.667zm509.826 1.05c7.403.009 21.677 6.021 21.677 6.021l-.097 8.657c-7.247-2.099-15.664-6.127-23.325-7.257-6.051-.836-5.696 2.554-5.728 11.105-.045 11.586 2.864 22.053 8.404 33.639 4.584 9.595 2.198 12.162-5.294 7.878-13.486-9.254-42.223-16.238-46.652-10.854-4.544 5.538 4.41 33.116 14.773 46.27 4.202 5.344 4.467 6.2 2.502 8.284-1.591 1.686-4.164 1.789-8.708.343-14.941-4.755-36.56-5.825-42.792-1.797-6.181 3.998 9.911 31.613 23.416 40.526 8.76 6.25 7.073 9.359-7.092 9.677-23.119.109-40.904 5.264-39.915 11.576 1.675 10.73 16.648 25.445 33.838 33.255 10.518 4.297 6.122 6.005-.873 8.488-11.695 3.95-22.938 10.272-33.934 16.18l-5.295-6.769s11.068-7.036 23.112-13.798c2.819-1.586 2.676-2.162-1.274-5.475-12.826-10.753-22.239-22.753-24.204-30.83-1.914-7.85 2.004-12.805 13.66-17.233 7.196-2.736 9.846-3.545 16.201-4.97 9.155-2.053 9.31-2.337 5.392-9.374a2193.96 2193.96 0 0 1-6.381-11.577c-13.641-23.324-6.445-31.744 25.213-32.223 7.771-.409 9.252-.432 8.825-3.114-1.681-10.989-6.542-23.607-5.851-32.918 1.448-14.042 15.891-17.436 41.266-11.102 5.883 1.467 6.291 1.17 5.256-3.576-4.913-21.379.207-40.668 13.88-39.032zm-93.134 1.495l-2.224 13.617-13.518-8.99zm-505.463 3.212l37.277 2.445-5.921 6.95-22.524-.425-.847 19.234-7.215 6.182zm241.589 1.476h30.69l-.246 32.445h-30.586zm36.566 0h28.569v32.445l-28.323.303zm34.206 0h30.625l-.278 32.445H489.05zm267.488 2.587c-.724 8.342 1.028 23.425 1.733 29.902-.498 1.927-1.836 1.651-9.853-.165-5.566-1.86-20.985-2.407-20.985-2.407l6.465-6.843c5.282.627 9.452.578 14.921 1.26-.078-5.463.149-15.891.149-15.891zm-495.946 6.423l8.566 8.627-10.965 2.808zm418.586 2.808l-3.413 13.88-12.406-11.152zm117.495 7.375l.045 7.083-12.2-5.488c-.135 8.078 7.008 22.668 7.008 22.668l-5.792 2.727c-5.023-8.204-8.515-15.576-8.805-24.82.064-3.346-.395-9.004 2.618-9.161 6.206-.146 11.398 1.957 17.126 6.991zm-540.264 7.01l10.189 6.061-11.295 4.565zm418.871 3.111l-4.991 14.283-10.887-12.364zm-539.986 4.546l27.476 9.313-4.887 5.192-22.828-7.212zm385.493 3.777l2.263 50.609-145.177-1.192 5.049-7.152 9.438-.081 24.845-41.901zm-266.318 3.94l10.79 7.616-11.21 4.951zm542.856 4.465l.02 8.283c-35.053 25.896-72.944 70.526-79.396 149.442l-9.452 8.081c4.616-77.054 36.702-130.177 88.828-165.806zm-127.883.303l-5.094 12.849-10.079-11.96zM768.2 696.33l-3.381 3.782c-.95.318-14.32-6.845-24.825-8.525 3.439 6.804 5.068 11.885 12.684 22.668l-4.907 4.848c-1.481-.328-20.533-28.464-15.49-34.815 8.185-5.512 28.026 6.046 35.919 12.042zm-57.008-15.102c-.213 7.638 5.967 31.346 5.967 31.346-9.555.47-18.826-.625-29.137 2.27l4.855-8.667s4.493-.468 8.424-1.249c8.126-1.614 7.286-.637 5.398-7.701-1.778-6.644-1.875-8.027-1.875-8.027s5.786-8.014 6.368-7.972zm-535.796 8.197c12.542 75.979 42.52 128.151 89.805 175.1l-4.81 6.282c-55.586-50.867-85.926-115.609-93.865-176.493zm78.226 3.192l10.227 5.576-10.505 6.122zm543.548.222l-.065 11.148-6.407-6.461c1.733-1.562 3.828-3.124 6.472-4.687zm-134.756 2.283l-6.969 12.789-9.103-12.116zm134.006 28.932c-1.435-2.255-14.197-10.191-19.983-13.519-.375-.979 8.966-9.319 10.815-9.896 9.278 1.289 12.252 19.81 9.168 23.415zm-542.656-13.901l11.559 5.637-10.486 7.395zm384.465-.006l14.83 1.4-7.88 12.243zm137.277 5.441c1.926.012 4.092.819 6.788 2.323 10.447 5.819 15.936 12.195 15.354 17.86-.265 2.601-1.72 3.123-3.413 1.232-3.045-3.407-13.325-7.843-22.182-9.576-6.71-1.314-7.324-1.887-5.314-4.99 3.052-4.709 5.566-6.869 8.767-6.849zm-178.692 5.374c16.066 60.828 44.305 107.638 79.758 146.169l-7.35 6.262c-26.92-30.885-56.53-67.032-80.715-145.178zm32.073 3.251l14.837 2.244-8.689 11.071zm-209.316.648c1.72.058-5.107 25.951-28.685 27.739-14.928 2.478-16.609 4.989-16.835 28.224-.304 31.495-5.385 38.863-31.129 40.81-17.048 1.288-19.291 4.757-16.408 29.233 2.748 23.296-6.057 35.174-27.78 35.153-18.806 1.558-26.584 10.331-26.564 27.759.006 7.061.123 8.768.123 8.768l-12.161.95s.032-11.473.95-17.052c3.705-22.547 13.363-31.576 33.715-31.475 15.736-1.198 18.18-3.749 17.637-27.598-.608-24.259-.938-24.093 5.398-30.446 4.073-4.091 8.728-5.929 16.99-6.708 25.73-2.423 27.76-4.141 27.696-30.526-2.386-21.921 3.672-35.342 17.597-36.446 28.175-2.234 27.509-17.527 26.261-18.163l13.117-.202c.033-.012.052-.021.078-.02zm57.622 0C493.717 813.982 546 897.44 574.691 928.245l-5.599 2.97c-41.821-51.942-79.829-111.589-98.629-206.212zm-29.842.041l13.072.141-150.575 211.909-7.939-5.98zm18.263.141c14.146 51.368 25.278 101.599 69.764 168.796l-188.7-1.232zm52.101.202c1.099-.509 5.534 25.991-1.073 38.225-5.941 16.559-3.038 25.887 9.885 31.92 22.188 10.359 27.787 20.703 24.968 46.143-1.966 17.813 3.426 26.42 20.145 32.144 19.944 6.826 28.672 17.555 28.568 35.133-.019 2.698-1.034 5.777-1.034 5.777l-11.133 6.546s.142-2.391.569-5.253c2.903-19.486-.795-24.771-23.797-33.961-21.729-8.679-27.114-18.714-23.416-43.739 1.209-8.162-.459-16.414-3.841-22.627-5.682-10.128-18.257-10.026-27.295-19.274-7.467-7.92-8.294-18.981-1.933-37.917 3.944-11.737 4.539-16.186 1.468-25.965-2.017-6.441-2.806-7.01-2.806-7.01zm-262.07 2.828l12.807 3.536-9.632 10.001zm508.379 2.654c4.396-.121 12.891 1.418 19.847 4.882 15.962 7.949 18.859 14.465 4.868 10.95-7.887-1.982-19.226-1.533-30.159 1.172-11.565 2.859-11.313 2.987-7.337-4 5.042-8.848 6.355-12.83 12.781-13.004zm-28.97 9.387l-2.902 4.991c-6.343-1.052-13.008-4.163-22.673-3.398 3.963 7.58 8.657 11.502 14.953 18.186l-2.34 5.007c-.569.678-18.406-14.2-21.981-24.2-1.616-4.516-.148-6.481 6.342-6.647 9.678-.147 19.434 2.621 28.601 6.061zm-238.35-4.905c4.784 0 8.65 3.868 8.65 8.647s-3.866 8.667-8.65 8.667c-4.777 0-8.643-3.888-8.643-8.667s3.866-8.647 8.643-8.647zm121.865 2.343l14.611 2.623-9.737 10.91zm-273.203.108c3.459-.274 8.799 6.423 8.78 6.434l-17.708 24.462c-8.424-1.695-6.627-14.459 1.093-14.847 1.784.01 5.042.314 5.042.314s-2.379-1.296-3.743-3.11c-5.178-6.247-.278-12.711 6.536-13.253zm330.476-2.187s14.093 27.881 13.195 28.946c-8.734 3.85-18.277 5.84-27.877 9.34l1.849-8.107s3.194-.227 13.925-4.316c5.147-1.959-5.605-16.246-5.605-16.246zm-97.518 8.238c20.572.171 20.83 25.411 16.893 33.759-2.864 5.728-7.221 8.902-20.384 14.849-11.41 5.154-12.69 4.809-12.69 4.809l-2.729-6.082s6.646-2.93 13.803-5.818c14.792-5.972 18.386-10.536 16.764-21.233-2.289-15.146-13.99-17.505-36.624-7.354-2.625 1.177-5.942 2.363-5.942 2.363l-1.551-3.05c.355-.301 18.121-9.611 28.077-11.92 1.558-.224 3.013-.335 4.383-.323zm-318.114 2.747l11.637 3.839-8.482 8.343zm518.392 3.253c10.28-.028 18.749 1.707 18.723 5.374-.007 1.74-.401 1.892-9.639 3.172-14.036 1.946-37.491 13.925-50.686 25.043-7.816 6.584-5.799 5.048-2.502-4.497 3.272-9.495 8.159-20.83 10.81-22.56 6.613-4.32 21.638-6.5 33.294-6.532zm-168.153 1.313l9.898 2.162-6.446 6.242zm-33.172 5.374c3.543-.052 5.295 1.62 6.685 5.011 3.013 7.329.039 11.631-11.437 16.545-5.197 2.328-9.839 5.605-15.535 6.648l-7.208-19.355s2.275-.837 9.775-3.94c8.553-3.536 14.177-4.857 17.72-4.909zm-33.456 2.344c22.892 64.77 50.918 106.842 80.566 141.703l-7.169 4.486c-31.491-37.257-60.474-80.914-81.355-145.179zm31.756 2.303c-2.774.078-6.931 1.758-12.484 3.899-8.075 3.115-8.767 6.879-5.153 11.536 1.578 2.031 3.213 1.579 10.971-1.495 7.926-3.14 11.34-4.533 11.818-7.354.692-4.113-1.584-6.687-5.152-6.586zm222.601.883c-.013 2.717-41.188 41.747-64.74 61.619-10.732 9.054-10.363 8.983-11.275 7.865-.582-6.728 3.983-30.745 6.75-34.933 15.729-16.652 39.992-30.202 63.602-35.295 3.711-.742 6.012-.664 5.663.744zm-221.871 1.299c1.481.047 2.761 1.326 2.748 2.97-.007 1.258-1.83 2.475-3.717 2.464-.673-.004-2.308.374-3.336 1.435-1.015 1.476-1.675 2.894-3.511 2.546-1.073-.204-3.051-.269-3.821.404-3.614 3.147-7.208.534-5.534-2.627.421-.797 1.882-1.199 3.071-1.192 1.028.006 3.375-.232 3.718-1.495.407-1.508 2.708-1.929 4.318-1.879 1.752.235 3.168-.642 3.621-1.373.646-.583 1.415-1.175 2.139-1.233.097-.008.207-.024.304-.02zm-311.391.687l13.111 1.778-8.262 10.586zm125.168-.178c4.778 0 8.663 3.868 8.663 8.647 0 4.778-3.885 8.667-8.663 8.667-4.777 0-8.65-3.889-8.65-8.667a8.646 8.646 0 0 1 8.65-8.647zm136.56 6.852a8.647 8.647 0 1 1 0 17.294c-4.778 0-8.644-3.869-8.644-8.647s3.866-8.647 8.644-8.647zm-255.864 9.771l14.223.909-8.146 10.889zm75.09 2.081c4.778 0 8.644 3.868 8.65 8.647a8.646 8.646 0 0 1-8.65 8.647 8.641 8.641 0 0 1-8.643-8.647 8.64 8.64 0 0 1 8.643-8.647zm355.334 5.394c5.928-.095 12.807.505 12.807.505l-1.662 6.653c-7.227.69-16.524-1.319-24.282 1.925 2.883 4.712 19.77 11.381 21.638 13.042.175.7-1.39 7.048-1.39 7.048.453 1.62-28.575-11.783-29.538-23.092.026-3.836 12.535-5.922 22.427-6.081zm-99.826 6.909c16.493.152 24.632 23.18 18.225 33.376-2.541 4.608-8.269 10.075-15.82 14.889-3.633 2.316-13.253 7.031-13.253 7.031l-4.325-6.687s3.84-1.541 7.454-3.516c9.09-5.13 27.522-16.063 18.606-30.951-4.997-8.056-12.49-9.632-28.038-1.737-11.611 5.894-14.242 6.445-14.242 6.445l-2.955-5.334c.776.441 23.183-13.045 34.348-13.516zm-321.993 2.405l12.949.02-5.534 11.677zm375.129-1.536c7.874 15.236 21.347 26.748 25.026 29.513 0 0-13.415 8.617-21.432 14.106l-4.706-5.536 11.508-9.877-12.963-18.084zm126.358 3.671c-1.462 7.526-1.694 15.514-2.308 24.304 2.838 2.593 5.391 3.891 7.622 3.741 2.508-7.905 4.305-16.884 3.116-26.128-2.373-1.85-5.489-1.643-8.43-1.917zm6.49 5.723c-.038 4.962.647 11.158-1.474 15.946-1.209 2.724-3.963 1.699-4.06-2.003-.129-5.009.893-9.212 1.177-13.775.168-2.602 1.293-4.159 2.845-3.557 1.616.782 1.48 1.935 1.512 3.389zm-186.973 3.415c8.502.634 11.779 7.743 8.644 12.849-7.68 9.815-15.535 11.596-25.614 17.273l-10.06-18.809s19.576-11.048 27.03-11.313zm-.232 4.199c-5.625.657-9.181 3.4-13.907 5.718-5.786 2.833-7.667 7.22-3.743 11.195 4.332 4.827 19.453-6.676 21.949-9.457 1.532-2.385 1.28-4.564-.873-6.281-.937-.744-2.095-1.164-3.426-1.175zm-310.15.791l12.671.141-6.853 9.678zm311.307 1.98c2.159 1.53 1.972 4.274-1.067 5.051-1.539.393-4.189.402-4.247 2.452-.046 1.528-2.38 2.102-3.711 1.885-1.364-.222-3.666-.339-4.112 1.367-1.164 2.322-2.036 2.362-3.666.74-1.752-1.769-.937-4.01 2.483-4.384 1.461-.159 2.728-1.223 3.252-2.344-.078-1.45.937-2.291 2.547-1.959 2.269-.024 3.756-.863 5.372-2.982 1.132-.531 2.373-.373 3.149.174zm-74.114.25a8.646 8.646 0 0 1 8.65 8.647c0 4.778-3.873 8.666-8.65 8.666-4.778 0-8.644-3.888-8.644-8.666a8.64 8.64 0 0 1 8.644-8.647zm-184.685 15.912c4.784 0 8.67 3.889 8.67 8.667 0 4.779-3.886 8.647-8.67 8.647a8.64 8.64 0 0 1-8.644-8.647c0-4.778 3.866-8.667 8.644-8.667zm-206.937 7.678l99.056 67.74-6.769 9.879-92.002-62.568zm497.337 2.202c6.445.005 11.417 3.714 16.22 11.192 9.549 14.85 4.758 26.56-15.005 38.527-9.187 5.56-9.258 5.617-9.258 5.617l-4.661-5.759s6.685-3.934 9.452-5.676c16.253-10.266 20.817-19.35 13.679-29.578-6.885-9.855-14.119-9.069-34.186 3.698-4.06 2.58-8.909 4.606-8.909 4.606l-4.403-5.98s11.359-5.841 15.232-8.304c8.889-5.678 16.149-8.348 21.839-8.343zm73.842-2.552l.065 6.51c.213.293-13.467 6.325-21.483 9.956-2.599 1.419-1.584 4.18-1.429 7.02l-3.859 2.61s-5.334-3.892-6.032-6.389c-1.953-7.885 23.151-17.324 32.738-19.707zm-143.011 6.997c4.778 0 8.663 3.869 8.663 8.647s-3.885 8.667-8.663 8.667-8.65-3.889-8.65-8.667 3.872-8.647 8.65-8.647zm-268.354 2.427a8.641 8.641 0 0 1 8.644 8.647c0 4.779-3.866 8.647-8.644 8.647s-8.65-3.868-8.65-8.647a8.646 8.646 0 0 1 8.65-8.647zm337.16 6.906c3.285-.119 5.748 2.024 7.093 5.293 3.439 8.367-1.242 14.56-18.167 24.041a467.572 467.572 0 0 1-4.422 2.425l-12.464-17.213s4.389-3.019 8.527-5.495c9.271-6.064 15.212-8.899 19.433-9.051zm-1.655 4.121c-.801.021-1.719.331-2.792.95-4.345 2.503-11.605 5.223-15.031 9.758-1.998 2.775-1.093 5.533 2.708 9.091 3.22 2.129 19.828-10.103 20.242-13.657-1.403-3.761-2.735-6.206-5.127-6.142zm-494.614.93l2.767 1.858-2.767 2.182zm497.252 3.014c1.228 1.496.491 4.035-2.114 4.481-1.312.225-3.252.584-3.879 2.525-.524 1.279-2.314 2.369-4.079 2.323-2.043-.469-3.116.764-3.226 1.661-1.002 1.715-3.485 1.991-4.998.38-1.183-1.255.931-4.867 2.321-4.814.252.117 1.778.463 3.634-2.014.375-1.8 2.469-2.903 3.988-2.838 1.546.526 2.451-1.183 3.065-2.128 1.422-.752 4.293-.748 5.288.424zm-490.664 1.309l3.982 2.687-10.57 7.495v-6.041zm7.719 5.051l5.411 3.616-19.718 14.122v-7.657zm10.098 6.444l5.722 3.778-30.127 20.345v-7.839zm10.855 5.495v6.546l-35.26 24.608v-6.627zm3.976 4.708l7.596 5.192 1.901 221.825-47.498 32.63.038-9.69 39.883-28.84zm572.982 5.996c-10.654 12.162-24.941 12.983-37.399 12.651-33.573.469-54.422 2.26-58.734 42.296 13.679-10.225 28.18-11.545 44.976-11.062 21.264-.029 30.832-1.424 39.475-5.737 13.887-6.929 22.666-19.338 20.992-28.042-1.649-1.879-5.967-9.641-9.31-10.106zm-576.958 1.944v7.677l-35.26 23.617v-7.798zm402.547.711c4.777 0 8.669 3.869 8.669 8.647s-3.892 8.647-8.669 8.647c-4.778 0-8.644-3.869-8.644-8.647s3.866-8.647 8.644-8.647zm-230.14.885c62.29 1.936 194.576 1.192 194.576 1.192l7.053 10.162-207.99-2.182zm404.202 6.667c-7.454 7.308-15.179 10.883-39.675 10.444-25.886-.462-35.971 3.627-42.669 15.153-1.952 3.35-1.907 4.654.905 2.121 2.366-2.811 7.745-8.228 9.969-3.099 4.396-2.877 8.198-7.26 10.499-1.72 1.274-.284 8.735-7.754 10.499-1.136 3.563-3.985 6.621-5.234 8.289.419 5.068-2.401 7.757-6.951 10.641-.663 4.079-2.922 7.176-6.573 9.555-1.011 3.485-1.024 7.027-7.41 9.038-2.322.375.124 12.962-7.445 16.525-14.934 2.922-6.604 5.605-2.22 2.282 4.526-8.528 16.523-23.119 22.556-56.608 22.607-20.325.022-28.736 2.014-35.117 5.737-10.254 5.979-4.733-9.07 2.45-18.202 9.057-11.508 19.382-14.91 47.66-13.88 15.457.091 25.336-2.042 29.512-5.414 3.549-2.86 6.116-4.798 8.023-4.925 1.901-.127 2.16 2.438-1.778 6.299zm-457.667-2.798c4.778 0 8.67 3.888 8.67 8.667 0 4.778-3.892 8.646-8.67 8.646s-8.644-3.868-8.644-8.646c0-4.779 3.866-8.667 8.644-8.667zm-118.942 6.414v7.798l-35.26 24.062v-7.98zm170.448 3.738h27.354v28.87h-27.354zm61.295 0h29.441v28.87h-29.441zm65.522.929h28.401v27.941h-28.401zm61.54.566l18.903.646s10.5 13.357 14.935 19.516l-13.984 7.172-19.854.041zm-175.2 1.959c-5.321 0-9.64 4.297-9.64 9.617s4.319 9.637 9.64 9.637c5.314 0 9.632-4.317 9.632-9.637s-4.318-9.617-9.632-9.617zm62.897.951c-5.321 0-9.639 4.296-9.639 9.616s4.318 9.637 9.639 9.637 9.633-4.317 9.633-9.637-4.312-9.616-9.633-9.616zm64.326.249c-5.32 0-9.639 4.297-9.639 9.617s4.319 9.637 9.639 9.637c5.321 0 9.633-4.317 9.633-9.637s-4.312-9.617-9.633-9.617zm-153.529 1.952c1.9 1.355 3.148 3.551 3.148 6.061a7.478 7.478 0 0 1-11.43 6.344zm26.306.101c3.517 0 6.38 2.843 6.38 6.364s-2.863 6.384-6.38 6.384c-3.524 0-6.388-2.863-6.388-6.384s2.864-6.364 6.388-6.364zm191.259.263c-5.321 0-9.639 4.297-9.639 9.617 0 5.319 4.318 9.636 9.639 9.636s9.633-4.317 9.633-9.636c0-5.32-4.312-9.617-9.633-9.617zm-160.047.283a7.733 7.733 0 0 1 7.732 7.738 7.733 7.733 0 0 1-7.732 7.737c-4.273 0-7.719-3.466-7.719-7.737 0-4.273 3.446-7.738 7.719-7.738zm127.457-.304c4.273 0 7.739 3.466 7.739 7.738s-3.466 7.738-7.739 7.738-7.713-3.466-7.713-7.738 3.44-7.738 7.713-7.738zm-342.274.829v7.758l-35.26 24.627v-7.636zm246.502-.121c3.524 0 6.381 2.843 6.381 6.364s-2.857 6.385-6.381 6.385c-3.523 0-6.387-2.864-6.387-6.385s2.864-6.364 6.387-6.364zm64.326.251c3.524 0 6.381 2.842 6.381 6.363s-2.857 6.384-6.381 6.384c-3.523 0-6.387-2.863-6.387-6.384s2.864-6.363 6.387-6.363zm-32.253.799a7.739 7.739 0 1 1-.001 15.473 7.739 7.739 0 0 1 .001-15.473zm96.289 1.516c3.523 0 6.381 2.842 6.381 6.363a6.386 6.386 0 0 1-6.381 6.384 6.39 6.39 0 0 1-6.387-6.384c0-3.521 2.863-6.363 6.387-6.363zm-274.198 6.686c16.421-.192 34.186 8.147 44.207 21.981 15.16 20.275 25.297 46.13 29.9 80.06 2.276 16.81 10.118 67.28 14.566 79.2l-6.122-1.17c-.828.39-8.683-31.74-13.635-74.19-1.836-15.72-5.178-36.005-14.307-54.524-10.421-21.145-28.116-43.556-51.72-45.336-13.763-1.038-26.687 7.587-28.083 19.738-1.979 9.599 3.652 18.542 11.035 21.537 7.248 2.942 15.917.748 16.887-9.132.168-1.624 0-3.259-.601-4.768 3.355-.545 5.909.968 7.266 3.799.711.088.033 14.33-11.171 17.132-13.512 4.424-29.112-8.954-30.321-22.588-.924-11.483 7.816-25.671 18.826-29.516 4.189-1.461 8.676-2.168 13.273-2.223zm-100.666 4.425v7.92l-35.26 24.324v-7.98zm101.435 5.03c19.725-.56 38.925 21.421 47.052 35.902 8.488 15.113 15.205 39.114 17.52 61.704 3.937 38.41 11.294 69.82 12.846 71.25l-5.373-1.17c-1.124.75-8.54-33.92-13.052-72.53-2.528-21.65-10.564-43.118-20.119-59.659-8.825-15.265-20.714-26.669-34.795-28.324-8.824-.887-17.895 1.662-19.673 10.95-.943 5.456 1.908 10.807 8.379 11.273 1.532.11 2.987.235 3.258.283 3.427.61-1.958 6.17-5.495 5.677-12.645-1.761-18.47-18.653-8.508-27.638 5.832-5.256 11.922-7.546 17.96-7.718zm42.223 5.637l221.444 2.243s.187 3.965-13.596 3.313c-11.715-.554-19.279 1.083-27.049 3.576l-173.992-.383zm-143.658 2.566v7.354l-35.26 24.668v-8.122zm102.909 3.112c4.254-.059 8.592 1.037 11.863 2.929 27.425 15.886 37.904 55.322 41.512 80.142 4.932 36.77 10.622 70.92 12.205 71.76l-5.98-1.35c-.795.03-7.337-31.85-11.417-67.56-3.29-28.87-13.162-57.863-32.745-70.062-12.568-8.551-15.037-9.417-20.849-4.425-5.017 4.307-10.124-2.177-5.922-7.455 2.903-2.71 7.079-3.922 11.333-3.979zm-102.909 9.96v6.04l-35.26 24.547v-7.152zm161.178.161c.452-.418 19.052 31.16 24.929 80.94 3.096 26.2 11.953 70.88 13.376 71.25l-6.446-.69c-6.588-26.35-10.241-51.3-13.757-73.78-3.983-25.44-7.183-48.029-23.035-77.518l4.913-.162c0-.022.013-.033.02-.04zm4.221.263l5.754.08c9.853 18.753 20.326 47.877 23.946 77.077 3.123 25.22 6.284 50.87 15.309 77.58l-6.18-1.7c-7.752-21.68-10.499-47.88-14.669-75.03-4.61-30.02-11.838-56.154-24.16-78.007zm35.538.04c10.073 26.091 16.628 38.539 21.231 70.647 3.575 24.93 8.618 56.1 20.1 89.12l-5.832-.26c-8.508-22.78-15.018-53.31-18.005-82.64-4.053-39.82-21.935-77-22.103-76.766zm-9.924.101c.543-.811 19.214 36.534 23.539 77.576 2.877 27.32 9.265 54.34 18.044 80.43l-5.961-.13c-6.885-7.96-12.037-45.67-17.72-80.88-5.799-35.933-13.964-58.044-23.028-76.935h5.107c0-.032.013-.048.019-.061zm-15.05.04l5.295.02c13.841 30.258 19.595 48.266 23.862 77.516 5.392 37.01 10.57 70.39 16.305 79.08l-6.465-.43c-8.922-26.66-12.943-53.31-16.105-79.98-3.426-28.88-11.727-53.62-22.892-76.206zm29.215.243l6.284.101c10.829 21.94 19.835 48.622 23.009 79.132 1.745 16.54 4.79 41.94 17.216 81.12l-5.03-.33c-10.182-26.27-16.298-57.19-19.944-84.16-3.679-27.2-10.176-49.648-21.535-75.863zm38.706.182c5.941 15.215 10.835 30.327 14.042 45.881l-3.556 6.93c-5.566-20.53-11.844-36.515-18.076-52.71zm-28.666.02l7.655.182c13.156 30.526 19.912 62.809 21.761 73.639 0 0 1.823 9.59 1.939 12.73-.439 26.67 4.177 45.7 14.1 74.38l-4.545-.32c-11.52-33.33-14.63-57.01-17.571-79.64-2.444-28.44-11.695-57.746-23.339-80.971zm17.675.243c7.842 19.566 13.816 38.434 19.26 57.318-.246 4.29-.666 8.97-3.459 12.44-6.388-23.09-11.786-47.088-21.658-69.718zm14.469.161l6.064.101 12.077 34.608-4.726 5.232c-3.549-11.457-7.183-24.054-13.415-39.941zm35.376.243l4.422 10.404-4.764 4.04s-4.869-9.737-6.142-14.323zm8.987 0l2.223 6-3.995 3.051-3.116-8.93zm-34.704.121l6.238.04c2.522 7.269 9.239 25.072 9.239 25.072l-4.487 4.707s-8.456-22.504-10.99-29.819zm9.678 0l5.534.06c1.668 4.725 6.846 17.799 6.846 17.799l-3.814 3.637zm28.95.242l5.476.262-.647 1.354-3.413 1.697zm-179.564 7.697c22.931 12.09 29.247 48.294 31.736 68.204 4.338 34.74 9.213 63 10.247 63.76l-5.094-.8s-3.763-17.85-6.362-34.84c-2.166-14.12-3.84-25.95-4.428-31.37-.362-3.38-.931-7.33-1.248-8.75-3.207-14.27-4.235-17.54-8.366-26.221-3.969-8.339-5.366-10.428-11.96-17.861-2.534-2.853-4.997-4.939-5.857-6.768-1.235-2.613 1.332-5.354 1.332-5.354zm-116.085 1.859v6.829l-35.26 24.886v-7.795zm0 11.981v7.858l-35.26 23.256v-6.97zm0 13.394v7.29l-35.26 24.57v-7.54zm58.87 7.37h3.109l.22 5.12-4.803-.31zm-58.87 6.3v7.81l-35.26 23.27v-7.27zm55.23 2.98l7.454.08-.078 5.35-9.574-.32zm-4.325 8.58l12.244.22v5.1l-15.173-.25zm-50.905 1.12v8.18l-35.26 23.43v-8.22zm44.666 8.5l17.921.21-.103 4.26-21.393-.15zm-44.666 4.75v8l-35.26 22.57v-7.2zm37.193 3.8l24.605.34-.607 4.12-28.065-.12zm-37.193 8.7v7.7l-35.26 22.95v-7.39zm27.954 0l32.39.75 6.827 6.2-50.408.31zm-9.794 11.35l55.676.7 3.879 3.59-59.736.22zm-18.16 1.76v8.17l-35.26 23.09v-7.46zm18.218 7.18l61.702.28-4.468 4.95-57.312.16zm-18.218 6.18v7.47l-35.26 23.92v-8.58zm16.686 3.9l53.336.18-6.265 4.91-36.85.85zm-16.686 9.23v7.13l-35.26 25.26v-8zm32.279.91l31.317.14.588 4.21-26.933-.07zm8.67 8.67l24.043.24 1.131 5.44-21.399-.29zm-40.949 3.8v6.62l-35.26 24.61v-7.33zm66.647 5.43l.284 5.18-14.345.54-4.041-5.42zm-.123 9.17l-.123 5.44-10.001.16-2.237-5.24zm-8.889 9.68l7.881.06-.666 4.18-6.103.08zm2.366 10.04h3.834l-.647 3.27h-1.959zm77.98 55.31l-1.836 2.37h55.114l.608-2.37zm71.057 0l-.97 3.2h24.871l.685-3.2zm40.626.63l-.763 3.01h63.576l-1.054-3.01zm76.066 0l1.293 3.66h21.393l-1.416-3.66zm73.811 0l-37.549.02 1.358 4.09h38.828z"/></g><path d="M872.258 1120.97c-14.364.05-29.537 7.77-33.84 24.33-1.513 5.26-1.519 5.27-1.572 52.14-.039 38.75-.365 48.09-.365 48.09h-13.242V1261h43.111v-15.47h-14.305s-.202-48.2-.202-78.59c-.593-7.88.124-14.82 2.223-19.64 7.622-17.57 34.46-13.73 37.694 1.26 1.93 8.94.847 11.28.978 18.99h14.937s.392-13.56-1.062-21.48c-1.963-17.66-17.201-25.52-32.967-25.08zM67.928 39.015v14.507h14.345s.339 13.987.469 43.686c.124 28.821.717 43.122-1.141 51.326-5.047 18.929-32.96 19.02-38.508 5.42-3.234-7.92-2.361-14.066-2.53-22.026h-15.42s.078 4.007.097 8.904c.085 21.297 7.27 31.453 24.066 35.474 17.266 4.576 37.439-2.397 44.625-16.892 4.283-8.258 3.788-8.803 3.886-58.722.071-33.318.593-47.17.593-47.17h13.204V39.015z" fill="#d40000"/></svg>