<svg clip-rule="evenodd" fill-rule="evenodd" stroke-linejoin="round" stroke-miterlimit="2" viewBox="0 0 934 1300" xmlns="http://www.w3.org/2000/svg"><g fill-rule="nonzero"><path d="M125.018 99.287l-.155 1099.323 680.707 1.48.401-1100.014zm216.203 6.43l308.421 1.132s-35.333 45.713-42.644 66.52c-5.675 7.283-8.25 5.962-17.612 4.064-25.065-6.554-67.314-6.432-88.29-6.814-39.616-1.767-75.201 10.513-114.869 12.516-13.704-22.918-33.58-51.687-45.006-77.418zm-207.669 2.002l198.352.586 46.5 84.858c1.689 2.36.078 7.229-.931 9.968-5.739 16.159-10.812 25.525-22.419 44.785-10.999 18.242-14.946 34.949-11.044 46.18.589 1.38 1.093 3.473.893 5.237-.641 5.6-5.345 12.082-11.75 16.519-4.348.698-13.387 1.255-18.621 6.43-4.484 4.434-8.159 10.924-7.583 22.786.272 4.242.809 6.935.809 6.935-59.143 24.607-101.528 53.433-100.124 54.49-.556-.256-51.987-23.924-73.39-29.782zm527.089 1.496l135.968.121.815 388-52.188-33.826c4.277-2.98 6.923-4.749 11.427-7.805.795-.242 2.309-.265 3.293-.485 9.09-2.026 15.424-8.825 12.273-15.871-2.141-4.784.783-4.493 3.417-8.391 2.963-4.389 2.348-8.298.465-11.99-.938-1.832-.42-2.558 1.152-5.944 4.16-5.164 1.152-13.898-4.225-16.721-.563-.832.589-2.117.848-3.316 1.52-6.997-1.268-13.139-7.318-14.699-3.118-.803-4.154-1.345-3.054-4.125 1.948-4.934-.621-6.768-4.671-8.37-6.813-2.696-4.885-3.128 3.539-6.916 17.243-7.753 21.306-30.803 9.44-51.719-1.508-2.66-5.538-8.9-8.269-13.082-3.19-4.887-6.289-9.099-6.289-9.099l22.827-31.824s-15.891-18.826-21.552-29.237c1.333-5.138 17.243-21.275 19.306-36.939 3.242-24.562-15.411-40.282-33.055-38.437-12.235 1.281-27.291 9.108-26.165 31.845.356 7.063 3.112 14.357 8.107 23.191 3.494 6.609 8.023 13.605 12.358 20.32l-22.969 31.4 23.208 29.398s-.304.473-.808 1.274c-2.31 3.673-9.02 14.488-11.925 20.826-8.56 16.925-11.594 35.507 5.985 48.606 3.073 1.888 5.441 3.494 6.748 4.791 1.728 1.712.654 3.012-2.122 3.661-3.261.688-6.586.642-10.028 2.001-11.019 4.021-22.063 10.51-29.924 16.863-4.406 3.565-11.517 14.852-15.852 24.02-4.71 9.963-6.024 12.171-6.024 12.171l-80.733-51.679s-2.051-1.619-2.607-2.244c-1.508-1.684-.964-2.661.077-4.529.887-1.583.919-6.234.531-9.766-.116-6.774-.065-6.8 3.837-13.021 1.378-2.192 1.947-4.382 1.151-7.764-1.261-3.8-1.384-2.589 1.036-5.196.938-1.161 2.076-1.735 2.264-2.993.246-1.684.091-4.622.123-10.109.058-10.996-.091-10.09 6.082-14.922 7.673-6.001 10.527-8.831 11.749-11.545 1.747-3.89 0-6.827-4.309-14.598-1.966-3.55-5.014-8.342-6.489-11.019-2.756-4.812-6.735-11.149-8.631-17.206-2.873-4.652-2.439-12.714.22-17.449 3.332-5.944 4.264-9.537 4.147-21.553-.11-11.139-.919-10.101 1.915-13.83 21.216-28.076 54.899-80.269 54.899-80.269zm86.414 41.064c.452 0 .918.019 1.378.04 6.677.318 13.309 2.464 19.468 8.432 8.379 8.4 7.809 20.502 5.053 33.098-1.268 3.659-2.213 7.378-4.788 11.201-1.436 2.128-2.607 4.101-2.614 4.368 0 .266-2.064 3.588-4.587 7.4-2.465 3.724-5.299 8.916-5.299 8.916s3.947 7.077 10.941 15.933c5.28 7.842 8.696 14.675 9.097 14.275 0 0-1.339 3.39-3.17 5.802-5.552 7.287-15.768 22.492-16.176 24.081-.103.382-1.151.772-1.132 1.152.071 1.412 2.096 3.085 5.15 7.279 18.44 25.317 21.054 46.689 7.202 59.242-6.891 6.245-13.691 8.204-20.989 7.42-13.367-1.436-25.706-12.844-24.263-29.479.654-7.643.252-9.921 4.756-18.804 2.031-5.001 6.625-13.572 9.679-17.894 2.678-3.102 5.525-7.521 5.525-7.521s-6.561-10.103-18.621-24.303c-2.18-2.596-3.519-6.106-3.519-6.106l20.665-30.611s-2.407-5.94-6.431-11.95c-8.263-12.324-13.594-25.427-13.542-32.8.123-18.378 12.138-29.143 26.217-29.171zm51.456 437.314c-12.203 6.491-24.082 28.653-.861 13.198l.576 12.743c-12.073 17.139-35.682 4.575-29.678-13.171-16.304 2.112-18.847-14.437-18.019-22.31-21.442-4.672-14.034-27.38-14.034-27.38-12.39-10.356-14.564-21.204-4.529-32.639-10.145-6.311-13.004-10.352-24.152-14.935 8.547 76.041 49.586 115.534 92.78 150.731 0 0 .958 24.486-3.985 19.977-61.673-46.083-101.321-98.78-108.147-184.019-.518 1.338-29.238-22.233-33.987-20.981-9.958 138.029 99.93 228.758 145.634 246.641 0 0 .647 19.229-.142 19.3-69.256-30.215-146.269-118.879-161.105-224.371l-40.858 63.286-15.308-6.551 66.072-104.107-44.682-28.004-72.743 115.268s-1.934 9.611 3.332 9.463c102.117 10.925 253.982 133.608 203.101 333.286-4.412-1.74-11.439-5.163-11.788-5.014 7.978-17.204 30.248-128.683-36.737-218.726-30.687-41.255-78.287-85.162-154.653-98.122 6.308 13.023 3.558 42.56 3.558 42.56l17.793 3.599c-6.004-6.347-11.025-11.575-13.406-18.46-3.332-10.725 1.553-17.076 13.425-10.695 4.717 2.645 5.901 2.543 10.495-.87 9.556-7.107 20.471.212 17.954 12.03-.375 1.747.091 2.847 4.626 3.255 10.288 1.023 20.646 6.121 27.356 14.114 3.293 4.214 4.037 3.588 6.955 1.051 7.182-6.233 19.067 2.404 16.945 12.05-1.21 5.515-.544 6.835 1.999 7.906 14.027 5.896 17.476 9.615 21.843 21.897 1.598 4.499 2.911 5.978 3.74 5.722.575-.179 2.885-.951 4.91-1.719 10.469-3.965 16.603 8.697 9.181 18.622-1.52 2.031-.394 3.985 2.304 5.46 8.715 4.756 14.641 16.111 15.67 28.022.395 4.529.867 4.536 5.396 4.348 11.594-.485 17.113 15.166 7.687 20.924-3.287 2.006-2.673 4.594-.123 7.622 6.761 8.023 8.34 13.813 7.744 22.949-.796 12.17-.019 11.931 3.863 13.406 11.264 4.29 9.161 22.296-1.883 22.231 7.958 18.537-2.523 41.143-2.18 41.557 21.228 11.95 2.057 24.638-4.109 22.406 0 0-3.144 8.327.427 12.617-18.621 24.638-43 28.727-69.999 40.961l-.848-86.737c11.232 9.039 22.361 17.476 33.483 25.88 0 0 2.821-.847.252-3.222-4.949-4.568-17.391-12.616-20.879-15.826-7.511-5.7-35.054-32.033-39.952-38.27-2.194-4.16-5.506-1.753-5.416-1.501 3.294 5.687 5.746 12.319 10.016 18.233 9.207 12.765 18.148 26.954 17.217 40.994-.02 7.854-3.145 15.968-4.892 19.915-1.294 5.389-9.886-.919-7.725-5.461 3.824-12.442 6.988-22.632-6.67-42.625-6.658-9.744-15.289-27.433-15.289-27.433l-5.519 1.333.207 113.168c-4.633.187-16.369 3.228-13.956 3.312 36.588-7.311 47.788 45.045 12.455 46.746-6.71.24-13.645 11.789-14.351 18.058.304 15.195 2.53 31.235-8.598 45.835-2.918 3.84-4.264 9.93-6.975 14.72-13.581 24.05-19.637 37.83-18.259 44.03.363 1.6.693 3.7.693 3.7-43.259 10.82-75.693 13.58-119.275 14.6-.421-.68 14.628-43.03 25.621-64.74 8.12-16.04 12.306-27.01 10.028-30.32-34.556 1.73-27.931-48.937 5.138-47.157 0 0 8.288-29.187 17.566-42.36 8.793-4.891 26.475 1.773 36.394-4.787 23.363-7.169 38.658 20.458 38.658 20.458l6.289-26.282-206.595-.989s-21.286 7.971-32.169 3.474c-6.955-2.873-14.939-11.018-14.946-11.018 0 0 78.948-126.8 90.542-145.091.945-1.488-2.057-4.684-2.057-4.71-.44-4.154-91.901 138.42-91.532 144.709 0 0-2.433 3.455-6.839.401-51.728-35.695-175.357-112.437-175.357-112.437l-.162-56.858c43.006-27.097 39.105-38.167-.686-8.631-.556.465-.847-21.352-.847-21.352 30.331-27.103 5.104-18.614-.88-9.226.142-6.755-1.43-15.929 2.898-19.966 13.257-12.222 28.876-1.003 29.659 17.061 17.294 3.39 15.153 18.582 19.604 24.69 17.631 9.951 8.346 25.052 12.72 30.183 18.569 11.71 5.616 30.532 1.689 30.105 2.342 1.578 25.414 17.048 27.394 16.479-1.999-81.102-91.312-158.536-93.796-154.47l1.902-17.49s111.615 71.396 110.638 185.955l35.585 21.15c-3.164-117.541-55.649-196.872-145.395-247.341l-1.896-22.139c75.331 35.065 145.195 106.03 161.467 222.346l41.712-64.739 14.694 7.117-66.965 107.454 41.816 27.504c32.44-42.708 59.492-95.077 75.984-120-.434-2.277-1.34-5.538-1.34-5.538-159.46-26.301-249.284-175.734-206.471-331.872l11.076 4.873C170.38 524.254 224.605 690.7 398.035 724.739c-.343-12.3-2.504-42.541-2.504-42.541s-22.788-6.851-19.436-4.108c5.583 4.775 18.122 25.343 12.823 32.654-3.811.537-10.19-1.598-17.165-6.709-2.633-1.928-2.704-1.521-5.661 1.637-8.198 8.754-20.109 3.739-20.219-8.288-.045-5.079-.239-6.16-7.44-6.212-10.928-.077-15.833-1.947-22.38-10.714-4.652-6.215-4.225-6.243-9.686-4.367-10.475 4.988-18.834-5.483-15.547-14.112 1.617-4.043-.11-5.337-4.879-6.127-9.271-1.534-19.766-13.176-21.694-22.685-.395-1.944-1.365-2.434-6.832-2.244-10.728.371-16.667-6.135-12.436-15.246 2.291-4.927 2.931-6.916-1.352-10.25-5.254-4.09-8.223-6.932-10.559-11.889-1.844-3.932-2.122-6.449-3.39-14.821-.447-2.912-1.411-3.386-5.222-3.882-11.089-1.447-15.463-12.797-7.317-20.158 2.484-2.247 2.478-2.193-1.294-7.076-7.26-9.395-9.977-21.659-6.813-29.823.854-2.211.019-4.916-2.569-5.561-10.113-2.518-10.287-13.735-.608-20.037 2.814-1.829 2.957-3.041.828-6.732-3.72-6.466-3.533-23.399.065-31.501 2.323-5.239 2.31-5.36-1.294-7.663-7.687-4.912-5.493-18.419 3.597-20.644 4.413-1.08 4.71-1.656 3.52-7.016-2.122-9.553-2.485-12.036 3.151-15.811 15.508-10.069 55.222-29.317 55.222-29.317l13.121-6.248s1.307 80.151.466 89.63c-.512 4.081 3.151 6.552 7.414 10.797 8.819 8.668 13.652 19.149 25.421 26.426 0 0 7.331-4.077 11.866-6.995l.447-114.217c.925-2.593 1.578-2.878 4.587-3.235 2.504-.483 8.793-1.183 10.902-1.799 5.066-1.483 5.862-3.528-.789-2.851-2.006.204-5.015 1.057-8.373 1.738-20.794 6.24-36.174-26.141-20.342-42.459 3.041-2.722 14.396-7.46 19.553-7.784 1.495.011 5.927-5.451 8.954-10.494 3.048-5.068 4.316-8.835 2.569-13.911-3.668-10.686-.168-27.093 10.799-45.007 11.879-16.907 21.047-35.776 25.86-55.865 42.082-5.073 77.777-15.537 115.814-13.222 1.488 12.856-41.589 88.647-32.596 93.087 33.89 8.116 22.322 48.301-3.436 46.968-3.856-.02-4.237.321-6.69 8.857-4.677 12.46-7.699 21.968-12.72 33.563-.013 2.981-2.102 2.688-16.194 2.588-12.882-1.907-21.765 5.113-31.141 5.519-11.943.545-22.134-5.181-26.281-14.678-1.85-4.232-3.565-1.449-3.617 8.593-.045 7.989-.368 12.656-.368 12.656s49.379.146 105.642.243c113.744.197 102.415 1.94 111.428-2.567 5.273-2.634 8.741-5.488 17.857.464 14.596 9.537 14.117 8.235 9.867 14.376-28.591 42.394-91.778 144.404-91.778 144.404l4.432 4.326s63.814-100.839 92.884-148.083c1.32-1.534 7.402.404 7.402.404l174.083 113.226c-1.469 17.11.239 55.458.239 55.458-48.926 25.984-33.981 39.223-.291 7.753zm-295.416-407.41s50.499.409 75.823 4.468c22.172 3.555 21.034 2.902 20.943 19.006-.065 11.437-.078 11.177-3.008 16.661-5.409 10.108-4.491 20.073 4.063 34.028 8.301 13.546 14.376 23.548 14.376 25.476-.006 2.99-.517 6.64-7.706 11.666-8.488 5.93-10.106 10.073-9.989 16.094.097 4.875-.829 6.466-3.74 6.45-1.165-.006-5.293 1.913-9.725 4.003-7.796 3.678-7.809 3.678-15.081 3.62-3.649-.03-5.416-1.408-6.431-1.012-1.961.914-3.74 7.471-3.682 9.382.207.677 1.249.27 3.397-.465 12.06-4.128 30.008-2.273 30.513-.465 2.432 2.203 2.432 5.608-1.236 9.139-2.381 3.74-3.462 5.673-2.465 11.464 1.352 7.867.343 10.988-3.682 13.708-12.267 8.296-28.643 9.341-54.833 4.307-27.602-5.306-46.475-15.831-62.171-34.675-7.014-8.418-8.748-11.368-5.28-11.95 4.277-.661 9.013-1.547 13.406-3.437 19.398-8.348 19.055-43.87-7.078-47.575-10.656-.378 22.011-50.638 33.586-89.893zm24.916 24.471c-9.381 5.251-14.286 11.659-14.299 15.138-.012 1.425.311 1.166 4.788-1.78 13.005-8.551 47.257-20.899 59.486-13.769 8.812 5.292 12.235 3.568 7.13-3.549-11.976-16.702-44.288-3.025-57.105 3.96zm33.496 5.594a22.311 22.311 0 0 0-4.264.465c-9.045 2.019-18.996 9.471-27.239 16.034-4.063 3.237-9.815 9.646-10.714 11.322-2.032 3.796 2.458 7.978 8.572 4.631 3.559-1.947 3.876-1.507 7.299-1.031 7.893 2.379 16.893 6.063 30.816 4.892 1.294.297 1.197.602.745 1.82-.822 2.227-5.752 6.48-12.19 11.242-3.319 2.455-6.224 4.468-6.451 4.833-1.022 1.636 3.41 1.765 8.269-.992 6.897-3.91 14.836-12.56 19.695-19.511.459-.662 1.1-1.206 1.313-1.921.473-1.608-2.426-.944-3.985-1.375-.667-.185-.531-1.871-.706-2.648-.459-2.038.337-5.411.706-8.31.304-2.344 2.821-4.205 4.471-5.924 7.272-7.563 6.702-10.99-3.074-5.176-1.643.979-2.95 1.569-4.548 1.699-14.428.453-22.768-.106-34.796 10.028-5.351 4.31-8.566 4.731-3.804.141 7.259-5.88 16.362-14.246 26.43-16.458 6.075-1.512 11.853 3.14 14.512 1.941.019-3.325-5.053-5.752-11.057-5.702zm-2.09 20.903c1.65 1.089 3.274 6.733 3.118 8.638-.174 2.21-3.979 1.294-4.503.242l-2.064-6.268c-.899-2.116 1.831-3.317 3.449-2.612zm-7.35 1.278c1.766 1.742 2.167 5.519 3.17 8.633-.64 2.247-14.842-.789-16.621-3.301 2.128-2.768 9.446-6.081 13.451-5.332zm24.91 40.478c-1.068-.071-2.485.449-3.766 1.759-6.392 6.546-4.328 17.7 3.358 21.31 3.753 1.761 9.42.466 17.773-2.102 3.979-1.224 6.858-1.784 7.602-1.78 3.261.018 5.041-5.041 2.75-7.359-2.646-2.68-8.916-2.286-15.67 2.932-3.416 2.638-5.856 3.917-8.612 3.882-6.748-.086-10.035-7.036-3.138-14.336 2.297-2.429 1.482-4.189-.297-4.306zm-47.322 47.989c7.964 6.426 23.085 3.057 33.249-3.669 9.078-6.011 12.85-7.787 20.135-6.531 8.935 1.538 8.599-1.974 4.73-6.39-4.387-5.006-15.218-3.46-24.282 2.548-20.096 13.322-27.362 15.55-33.192 8.343-6.269-7.743 1.191-17.68 8.567-12.257 6.049 4.118 5.958 1.02 3.461-1.803-14.577-12.285-25.097 9.732-12.668 19.759zm-70.64 6.319c10.145 12.859 19.85 23.482 34.433 31.319l.162 2.426-47.147-.101c3.293-5.752 12.649-33.262 12.552-33.644zm-159.649 33.502c-.996 19.383 2.478 30.769 13.833 44.32 12.067 14.403 11.168 36.855 3.41 50.725-3.435 6.139-10.423-1.409-7.13-5.333 4.684-5.891 4.963-20.271 2.75-29.257-4.969-14.854-16.24-22.129-20.808-37.829-1.533-6.701-1.048-18.743-1.048-18.743zm14.765 1.638c.822-.13 2.135.723 4.083 2.406 6.67 5.772 5.532 22.295-2.103 32.897-2.342 3.215-4.277 2.297-6.509-.688-3.021-2.982-1.973-3.279.563-8.512 2.646-5.458 3.494-11.604 2.95-18.783-.362-4.835-.194-7.13 1.016-7.32zm432.503 5.661c5.881-.088 13.238 1.16 13.911 3.296.634 2.598-.764 4.679-4.051 6.066-8.611 3.637-19.992-1.451-17.119-7.663.711-1.111 3.726-1.646 7.259-1.699zm-14.926 1.416c1.695-.038 3.008.378 4.043.849 2.828 1.454-1.611 11.394 12.436 11.201 3.358.494 5.842-.278 5.376 1.234-.698 2.29-6.722 5.725-13.263 6.692-19.572 2.894-18.718 1.917-17.832 15.75.583 9.03-.006 12.074-1.235 17.55-2.123 9.494-2.964 18.668-1.534 15.65 1.909-4.035 6.781-16.776 6.755-24.02-.045-10.685 3.765-12.798 5.299-5.055.653 5.126-1.644 8.018 1.799 13.243 1.947 2.937 2.84 2.887 1.533 7.441-1.152 4.017-.349 5.199 1.055 7.239 1.41 2.053 2.833 2.525 1.636 5.398-2.581 6.195 1.463 12.06 7.338 12.556 2.717.229 3.467 1.412 2.646 2.446-1.43 1.787-4.29 2.636-6.671 3.155l-62.17-39.73s4.613-9.253 5.984-11.727c8.929-19.585 16.014-28.507 42.133-38.76 1.805-.777 3.358-1.083 4.672-1.112zm33.042 12.859c1.715-.064 2.983.833 4.426 2.689 3.817 4.906.485 11.037-8.897 16.317-8.023 4.561-10.352 5.105-12.092-2.063-.401-1.293-1.469-2.882-2.161-3.517-1.857-1.699-1.437-3.114.931-4.368 1.126-.6 4.737-2.077 7.622-3.983 5.014-3.312 7.965-4.992 10.171-5.075zm-26.469 14.234c1.961.031 3.986.506 5.48 1.476 2.485 1.618 2.511 5.68 0 7.299-4.995 2.037-12.882-.692-12.215-5.277.343-2.332 3.461-3.549 6.735-3.498zm31.988 5.015c1.766-.048 3.099.781 4.206 2.486 2.924 4.523-.512 9.061-10.372 13.891-6.489 3.177-14.784 4.557-14.234 2.688.44-1.503-1.883-8.924-2.912-10.109-.401-1.256.117-.125 8.308-2.709 2.963-.936 6.548-2.479 8.211-3.518 2.814-1.765 5.02-2.683 6.793-2.729zm-466.432 11.727c-4.561 10.963-5.286 15.806-3.112 27.335 1.805 9.597 3.902 14.41 13.749 28.59 7.492 10.792 9.893 14.991 8.088 18.399-1.275 1.836-4.135 3.55-5.914 1.785-3.662-4.788-5.862-10.605-9.433-15.938-13.762-20.188-14.72-25.324-16.48-41.267-.802-7.285 3.384-22.794 6.962-25.112 4.012-1.571 7.376 3.688 6.14 6.208zm318.003-5.056c-.324.041-.667.224-1.01.567-1.869 1.873-7.22 10.59-7.039 11.908.408 2.892 2.776 1.002 8.98-8.107 1.489-2.188.479-4.545-.931-4.368zm118.46 4.954c5.512.166 7.46 5.105 4.995 7.683-3.598 3.76-10.068.921-10.068-4.346 0-2.234 1.042-3.386 5.073-3.337zm30.551 7.036c3.158.135 3.578 3.275 1.903 7.825-2.097 4.225-4.62 4.94-12.19 7.299-9.071 2.825-10.546 2.413-11.911-5.924-.524-3.203-.266-2.492 8.087-4.711 3.585-.952 7.771-2.652 10.009-3.579 1.689-.684 3.054-.955 4.102-.91zm-535.46 3.738l2.225 16.841 3.624-12.612zm506.002 5.664c4.465.018 6.852 4.012 4.594 6.41-1.262 1.336-4.477 1.363-6.03.586-3.539-2.588-2.899-7.014 1.436-6.996zm-136.272 8.795l8.689 5.359-70.62 111.506-8.515-.182-.808-1.779zm160.25 1.072c5.215-.074 5.668 4.842-.647 9.361-2.588 1.66-5.486 2.064-7.738 2.164-3.144.139-5.26-.678-5.499-2.851-1.366-5.324-2.142-6.646 2.704-6.328.97.062 3.61-.09 5.726-.992 2.161-.922 3.998-1.334 5.454-1.354zm-21.59 4.873c3.604.019 5.894 3.928 3.474 5.843-2.989 2.365-6.709.906-6.69-2.669.013-2.284.634-3.188 3.216-3.174zm-508.183 7.885l-19.21 17.02c7.04 8.333 12.953 16.655 19.048 25.394zm388.526 1.092c8.34-.335 11.07 3.699 7.117 6.409-5.37 3.592-9.977 3.42-16.072 2.588-8.068-1.499-1.65-7.959 7.195-8.876a27.727 27.727 0 0 1 1.76-.121zm-8.858 12.131c1.689-.045 4.167.429 7.383 1.517 5.454 1.848 12.247 7.565 11.93 10.736-.517 5.132-10.177 2.482-17.954-4.873-4.872-4.608-5.06-7.281-1.359-7.38zm-7.376.081c4.73.447 9.447 16.451 5.785 21.371-3.598 4.823-9.932-5.556-8.78-13.708.459-3.227 1.268-7.487 2.53-7.643.148-.019.31-.035.465-.02zm-308.828 3.518c2.666.637 6.082 4.321 5.345 7.117-.537 1.123-1.663.797-2.873.506-2.193-.927-3.882-3.977-3.462-6.511.207-.685.499-1.072.99-1.112zm358.363 2.75l13.891 9.422-13.891.546zm-57.564 19.066c10.656.058 12.914 3.506 4.956 7.704-3.313 1.744-11.361 2.073-15.528.626-6.612-2.294 1.32-8.38 10.572-8.33zm86.213 7.178l.732 9.664-26.754 2.346-1.372-10.069zm-92.482 4.812c1.857-.117 4.807.74 8.676 2.73 7.279 3.744 11.42 10.025 7.66 12.01-3.403 1.798-9.465-.335-13.748-4.833-5.668-5.953-6.121-9.683-2.588-9.907zm-9.097.02c4.859.292 9.064 13.611 5.862 20.199-1.747 3.604-3.967 2.816-7.156-3.114-3.08-5.734-3.248-15.858.304-16.963.33-.103.666-.141.99-.122zm-347.92 3.76l-11.692 23.516 21.183 18.494zm452.799 18.117l1.876 9.301-25.679 6.328-2.504-10.129zm-112.139 1.819c3.132.056 6.076.8 7.764 2.286 2.343 2.06 1.831 2.984-3.7 5.236-9.848 4.01-21.979 1.584-14.94-4.407 2.485-2.116 6.852-3.186 10.876-3.115zm166.811-.544c-9.809 6.574-.362 10.19 6.645 5.22-.524-1.693-4.588-5.194-6.645-5.22zM570.041 539.21c7.013.229 20.775 9.851 17.831 14.456-1.598 2.522-10.798.37-14.454-3.134-4.807-4.604-7.35-10.761-4.691-11.241a6.234 6.234 0 0 1 1.314-.081zm-8.858.444c3.623-.674 9.408 16.197 5.034 20.523-1.631 1.616-2.09 1.52-4.833-.91-5.48-4.856-4.536-13.803-1.255-18.804.317-.478.679-.739 1.054-.809zm215.543 8.891c-.957-1.785-2.148-2.613-3.455-3.596-34.097 13.1-25.356 25.581 3.455 3.596zm-80.785 1.158l3.397 9.422-25.861 10.251-3.798-10.312zm-442.324 17.833l-8.761 23.05c9.524.055 18.104 4.551 26.793 8.553zm450.916 6.774l5.481 9.26-24.321 13.162-4.853-9.766zm-565.074 18.035l9.964 7.036-14.635 18.197-1.333-2.568.162-15.103zm578.357 5.722l5.888 8.492-23.415 16.276-5.739-9.24zM164.57 608.985l10.759 8.29-17.009 20.522-10.288-7.865zm118.363 5.075l-.505 24.688 25.311.97zm292.581 11.127l28.773 16.568-4.329-25.288c-7.518 1.464-17.165 6.362-24.444 8.72zm158.038-5.183l6.709 8.351-21.636 18.177-6.929-8.695zm-547.023 7.319l10.028 9.322-17.669 19.086-9.285-8.755zM752.03 640.87l7.783 7.906-19.714 20.502-7.783-7.906zm-542.714 10.049l7.764 9.058-20.18 16.036-7.479-9.101zm116.274 2.123l5.667 24.181c-.414-1.76 25.117-7.212 28.443-5.377zm297.253 2.044l24.094 25.443 2.711-24.508zm149.024 4.001l8.709 6.814-16.175 23.052-9.867-7.745zm-545.185 15.367l7.175 10.371-21.144 12.597-6.004-9.161zm568.011 2.445l1.333 1.333-.019 16.46-6.716 9.867-9.155-5.396zm-136.33 18.485l21.319 38.756 6.011-28.902c-7.881-.116-20.362-5.163-27.33-9.854zm-414.82 5.17l5.079 11.18-22.348 10.197-5.092-11.122zm12.073 26.689l4.083 11.225-23.758 7.881-3.759-10.812zm-106.212 20.322l7.402 5.189c38.542-20.258 26.527-26.242-7.402-5.189zm217.84-12.882c1.455-.148 3.138 1.864 4.49 6.309 2.044 6.722.957 15.055-3.597 14.945-3.074-.375-4.219-8.255-4.232-10.533-.032-6.748 1.469-10.527 3.339-10.721zm21.131 4.025l9.174.99-.038 2.588-73.112 116.079-8.857-5.623zm-39.37 2.691c2.918.026 7.181 2.032 10.96 6.043 2.213 2.401 4.581 5.804 5.156 9.285-.064 1.145-2.025.711-3.92.44-4.859-.686-12.002-4.044-14.28-8.185-2.795-5.092-1.216-7.615 2.084-7.583zm336.118 4.135l9.744 47.535c3.022-11.898 9.401-18.757 14.124-28.106-12.429-5.719-17.527-12.5-23.868-19.429zm-420.067 9.614l2.284 12.293-24.625 5.7-2.549-11.93zm91.855 4.264c.349-.007.699 0 1.029.039 9.006 1.009 10.287 3.015 4.231 7.078-3.675 2.465-13.606 2.814-15.25.181-1.747-2.801 4.756-7.246 9.99-7.298zm-178.696 7.22l7.647 4.471c13.089-9.465-1.209-11.361-7.647-4.471zm165.736 4.148c2.75.032 4.413 4.943 5.377 9.459.938 4.374 1.262 8.32-.42 10.514-2.064 2.691-4.083 3.164-5.726.504-4.801-7.796-4.646-20.548.769-20.477zm-20.302 7.136c1.287-.045 2.905.278 4.794.99 6.392 2.407 14.861 12.196 11.284 13.548-5.286 1.993-16.835-3.804-19.009-9.666-1.094-2.957.11-4.775 2.931-4.872zm-52.686 7.881l.582 12.157-25.899 1.048-.764-12.092zm63.445 10.235c2.549-.077 5.099.259 7.156 1.152 3.707 1.598 1.009 4.503-5.357 6.709-4.199 1.463-10.19 1.831-12.293.162-4.911-3.875 2.84-7.803 10.494-8.023zm-200.286 1.411c17.74 10.779 54.303 34.776 54.303 34.776-1.734.343-3.578 1.708-5.293 3.035-1.326 1.087-2.756 2.096-4.005 2.607-1.967.809-3.772.919-5.415 1.275-11.439 2.484-17.036 8.961-13.471 17.003 1.404 3.164 1.766 2.653-.666 5.318-6.82 6.509-5.985 8.457-3.559 16.784.033 1.177-8.12 11.186-.912 18.724 3.992 3.474 4.18 1.294 2.73 9.194-.504 4.755.796 8.65 7.706 10.009 3.843 1.766 3.792 1.152 2.426 4.413-.931 4.671.401 6.606 3.682 8.307 2.976 1.864 4.186 2.368 2.083 4.005-23.027 11.789-30.105 32.299-8.391 62.514 2.555 3.565 8.999 13.623 8.999 13.623-7.317 10.86-14.305 19.81-21.771 29.51l21.726 30.39c-3.52 5.51-11.743 16.73-16.803 27.8-7.595 16.62-2.575 39.91 19.268 46.88 9.369 2.99 21.739.57 29.536-8.49 6.328-7.35 9.776-21.94 3.998-37.14-7.298-17.03-16.052-25.39-18.886-30.22l23.267-29.21s-16.033-23.06-22.426-31.43c43.628-53.406 7.991-68.339 1.152-72.913-1.061-.712-.809-4.128-.809-4.128 39.183-4.491 52.569-26.023 64.093-53.275 23.376 15.056 56.845 35.301 80.293 51.133 2.258 2.096 3.739 3.397 3.397 4.548-.285.945-1.191 5.28-1.236 9.725 1.093 7.085.569 10.294-2.284 13.005-2.685 2.549-2.148 3.707-1.715 6.47.744 4.788 1.469 5.266-.673 7.68-2.639 2.976-3.519 4.367-3.028 11.588.292 4.283.835 7.498-.284 10.028-1.456 3.293-5.454 4.956-10.695 9.079-9.175 7.21-7.939 9.41 4.729 35.56 10.792 22.29 12.028 27.39 7.887 35.3-3.448 6.59-4.749 11.68-4.328 21.19.103 2.43.31 5.06.304 6.33-.026 3.08.013 2.73-1.76 4.65-1.378 1.51-3.675 4.47-5.092 6.6-15.069 22.59-54.698 80.08-54.698 80.08l-133.257-.22zm186.88 10.514c1.56-.11 3.449 2.685 5.584 8.333 1.229 3.261 1.1 8.922-.893 11.103-3.966 4.335-9.427-5.83-7.699-13.872.776-3.636 1.792-5.474 3.008-5.564zm374.784-6.108c.026 20.594-.421 47.315-7.505 67.01l8.035 3.643c-2.594-20.226.628-36.828 19.178-45.575-8.444-5.733-14.894-15.412-19.708-25.078zm-394.757 12.985c.641-.019 1.385.143 2.2.401 3.009.829 6.671 2.588 8.896 4.853 3.811 3.888 7.745 8.56 6.755 9-6.302 2.769-22.296-5.687-20.199-12.293.459-1.398 1.274-1.935 2.348-1.961zm-28.028.867l.162 10.093-15.483-9.912zm353.691 4.853c2.511.22 6.386 3.507 5.785 5.784-1.081 2.472-2.407 2.239-4.135-.356-2.154-3.235-3.028-5.254-1.65-5.428zm-313.816 12.474c3.759-.097 7.007.731 7.356 2.692-.006 1.856-2.866 4.25-6.386 5.337-8.805 2.711-15.411.964-12.998-3.358 1.508-2.859 7.195-4.535 12.028-4.671zm306.68 11.445c-3.72 6.671-4.186 28.009 2.387 36.718 10.204 11.271 19.624 25.945 18.537 45.471l-9.802 4.387c.537-16.059-.104-26.501-12.643-40.354-14.926-16.226-11.419-44.339-6.263-52.607 4.426-8.166 10.792 3.39 7.784 6.385zm-429.611-8.876c3.138-.182 6.968 1.669 13.911 6.25 17.747 12.558 27.368 17.411 44.966 29.839 2.576 2.414 2.446 2.071 2 3.967-6.729 25.744-26.262 46.176-55.216 49.916-3.351.433-1.624-1.663-3.642-5.7-2.077-4.154-5.907-5.965-10.165-6.004-11.956-.11-1.734-6.813 12.856-8.735 4.827-.744 10.637-1.397 13.71-4.302.667.31-2.536-20.142.744-27.343 1.676-6.47.091-9.601-1.714-5.616-1.139 2.498-2.724 9.065-3.578 15.787-.725 5.681-1.922 6.464-3.255 3.701-.614-1.255-.601-4.238.363-6.587 1.087-5.357-5.668-9.394-4.309-14.298 1.811-4.096-.071-8.612-2.342-10.107-1.243-2.659-1.094-4.574-.932-6.431.382-4.341-2.511-8.514-7.078-10.332-2.019-1.023-1.417-2.123.685-3.177.984-.485 1.948-.764 2.996-.828zm-14.519 7.343a12.794 12.794 0 0 1 3.378.382c2.348 1.43 4.238 9.569 1.617 9.886-.964.117-3.985.485-6.328 1.171-7.938 2.336-11.697 2.019-11.549-2.543.162-4.658 6.678-8.792 12.882-8.896zm10.553.828c3.125.013 5.648 3.675 3.681 5.623-2.031 2.005-5.939.537-5.92-2.368.007-1.566.718-3.268 2.239-3.255zm2.122 12.675c.899-.032 1.889.155 2.957.647 2.905 1.346 4.574 6.341 2.73 8.172-1.41 1.391-5.428.899-7.583-.932-3.849-3.274-1.979-7.738 1.896-7.887zm-9.841.731c1.799.033 3.093.615 3.436 1.857.297 1.068-.201 2.058.284 3.578.757 2.4 2.278 4.238.945 5.195-6.082-.362-18.724 7.279-22.38 6.917-3.041-.408-3.39-3.209-.744-7.764 3.048-5.26 13.063-9.899 18.459-9.783zm3.675 14.778c1.327-.084 1.553.647 1.016 2.588-.382 1.378-.071 4.658.867 6.774 1.003 2.271 2.827 3.617 1.883 4.51-1.56.446-6.787 1.494-11.187 3.131-5.668 3.138-21.597 12.591-17.586-2.53 1.275-5.046 7.137-8.553 17.366-12.125 3.882-1.358 6.315-2.264 7.641-2.348zm8.353.181c2.459-.181 5.273 1.009 6.528 4.063 3.695 7.357-6.903 8.411-10.287 2.284-2.006-3.623.595-6.114 3.759-6.347zm2.019 17.126c5.512.032 9.782 6.858 5.784 9.44-2.963 1.786-6.632 1.449-10.029.608-5.098-2.239-2.743-10.087 4.245-10.048zm527.23.142c20.95 10.967 49.445 21.08 77.072 28.592l-.926 271.777-187.974.13-51.721-89.79s-1.715-2.93-2.265-4.21c-1.041-2.45-.673-4.44.039-6.98 1.715-6.12 6.904-18.13 11.685-26.64 12.494-22.94 30.234-48.09 20.626-70.128-1.099-2.517 9.925-16.181 9.925-16.181 16.978 1.384 31.018-9.686 25.997-35.819 35.443-14.492 64.649-26.274 97.542-50.751zm-536.994 1.333c.479-.019-.964 5.946 2.045 9.602 1.876 2.885 1.572 2.788-4.794 5.299-2.375 1.294-4.762 3.254-6.108 4.451-9.103 8.127-18.123-2.504-9.317-11.044 7.104-6.386 14.538-7.777 18.051-8.224.052-.058.091-.084.123-.084zm433.105 5.616c3.054.544 7.014 4.613 5.745 6.826-4.309 7.221-4.503 11.103-4.891 18.576-.427 8.34.996 9.569-2.18 8.126-2.077-.97-5.946-2.633-6.82-4.749-1.999-4.891 3.119-29.672 8.146-28.779zm-436.074 20.931c3.383-.058 6.935 1.048 8.935 3.623 1.669 2.142 1.844 3.973.181 4.853-3.94 2.077-16.99.996-17.65-1.683-1.016-4.127 3.584-6.703 8.534-6.793zm197.698 5.299c15.942.065 34.55 3.455 48.953 9.744 20.438 7.712 38.451 27.362 42.521 35.766 1.235 2.556-1.294 2.556-3.481 2.795-24.347 4.018-32.454 33.985-11.912 48.295 6.445 4.04 11.647 3.61 11.647 3.61 5.214-.45-23.157 53.99-34.453 87.91-34.945-1.43-61.349 3.95-95.511-7.81-3.675-6.1-2.802-19.57-.123-26.52 2.452-6.32 5.687-11.2 4.128-18.46-2.724-12.66-14.26-29.16-18.116-39.61-3.391-7.99-3.171-10.96 2.724-15.53 6.955-5.39 8.669-6.516 10.578-9.24 1.779-2.536 1.022-3.125 1.048-8.838.039-6.936-.123-5.855 5.603-6.871 1.999-.356 6.71-1.863 10.313-3.766 7.467-3.933 12.675-3.797 17.062-1.352 1.909.511 1.727-1.462 2.53-4.082.349-1.146 1.158-3.015 1.093-3.585-.136-1.171-2.659-.828-5.441-.44-11.148 1.56-19.928 1.902-24.444.22-3.914-1.455-3.927-4.095-1.637-8.469 2.038-3.901 3.481-3.837 2.646-11.97-1.048-10.209.376-12.357 5.138-15.709 5.939-4.179 16.731-6.14 29.134-6.088zm57.622 9h51.825c-5.085 8.204-10.746 20.853-13.955 32.855-.466.931-1.023 1.85-2.22.647-6.994-10.01-14.945-20.718-35.65-33.502zm-42.961 36.491c-6.198.181-13.943 3.157-23.68 8.734-6.612 3.792-12.021 6.147-19.048 4.853-4.011-.738-4.529-.168-5.053 1.132-2.361 5.862 6.412 12.151 15.269 8.029 2.569-1.08 22.322-11.316 23.409-12.196 1.19-.951 9.369-3.358 11.53-3.332 6.528.078 10.559 5.215 9.763 11.142-1.068 7.913-12.287 8.307-13.018 1.274-.569-5.422-2.827-3.015-3.034-.349-.013 2.277 1.701 7.466 3.578 8.637 9.478 5.925 21.978-5.603 15.994-17.469-3.669-7.259-8.69-10.656-15.71-10.455zm-42.527 27.581c-6.431 1.23-10.611 3.727-17.547 4.303-5.72 1.265-5.293 5.825-1.715 8.195 2.744 1.81 6.205.71 16.214-5.65 9.828-6.246 18.252 6.77 10.391 13.44-4.949 4.19-1.553 5.3 1.838 2.77 8.708-6.49 3.714-25.51-9.181-23.058zm30.435 33.498c-.757-.05-1.941.22-3.539.96-7.363 3.37-13.031 6.93-16.557 11.66-.608 1.03-.278 2.76-.569 4.12-.227 1.08-1.081 2.44-.932 3.16.136.63 2.213 1.31 2.53 1.9 1.281 2.41.453 8.54-.285 12.98-.349 2.12-3.507 2.78-4.768 4.06-4.154 4.22-3.113 5.51 1.313 3.87 3.086-1.16 1.779-3.28 9.42-1.8 9.899 1.91 17.748-.77 25.538-5.1 8.65-4.8 11.782-7.47 12.131-6.89.576.94.123 1.44-6.043 6.57-15.464 12.85-26.954 15.83-35.631 11.01-2.594-1.76-4.671-2.48-2.704 1.3.252.41 2.348 2.05 3.817 2.71 8.909 4.02 20.083.62 34.291-10.61 3.119-2.47 5.875-5.24 9.486-8.26 11.794-9.86 8.689-14.38-4.633-9.58-4.199 1.51-5.383-.12-11.057-2.32-7.629-2.97-10.132-3.24-18.906-3.4-7.641-.13-8.78.58-8.773-.7.006-1.64 5.143-7.42 10.915-9.94 5.635-2.45 7.214-5.54 4.956-5.7zm14.053 24.37c1.423 1.44-.621 2.36-6.127 4.97-3.119 1.48-5.992 2.7-6.393 2.69-.485.89-5.687-10.83-4.264-11.41.609-.23 13.335.84 16.784 3.75zm-19.999-1.23c1.281 2.65 2.251 5.43 2.75 8 .116.79.679 1.93-.563 1.92-.984.14-2.595.23-3.177-.69-1.249-1.95-2.627-8.61-2.161-9.9.951-1.3 2.64-.39 3.151.67zm45.329 21.06c-.459.01-1.326.35-2.685 1.15-21.927 12.95-48.221 19.7-65.128 13.31-5.7-2.15-6.741-1.4-4.671 2.51 1.443 2.7 4.296 5.88 8.638 7.07 13.813 3.8 36.057-1.73 53.17-12.96 6.969-4.57 12.675-11.09 10.676-11.08zm129.038 34.7s38.75 79.87 46.281 83.62l-315.253-.56 53.119-75.92c.466 4.21 128.12 21.75 215.853-7.14z" fill="#131f67"/><path d="M281.283 1190.31l50.914-75.19c75.299 14.32 143.038 6.76 217.244-6.49l49.421 83.36zm399.228-280.197l-.326-44.637 15.549 5.781c-5.397-20.761 8.23-42.456 20.638-43.318-39.65-29.913-6.714-61.907-7.395-62.591-43.371-22.383-21.61-56.749-24.618-59.831-52.84-13.7-32.207-55.646-36.202-51.316-30.761 9.25-47.702-16.529-48.221-37.49-26.619 15.087-67.748-6.29-54.86-30.309 0 0 14.1 6.693 16.591 5.341 21.732-15.801 20.03 6.879 24.548 11.805 16.209-2.349 25.777 10.059 29.817 16.086 23.909.023 22.927-5.711 23.134 17.478 18.013 4.574 17.295 14.316 27.733 27.623 22.709.25 18.887 7.641 13.747 20.21 16.37 13.032 17.696 23.234 20.395 35.085 17.858 6.475 21.063 9.108 9.407 24.164 15.76 23.628 8.176 37.312 10.571 38.601 19.65 14.179 9.83 19.312 1.248 24.756 2.981 18.84 5.367 21.609-1.561 40.79 22.589 16.031-3.586 23.261-4.918 22.928l-.064 15.883zM133.557 793.729l-.457-55.308 191.494 123.74-24.201 37.979zm254.387 81.403l45.258-94.768-16.262-103.365 129.725 2.835c14.583 33.154 23.379 61.344 60.749 116.219l-39.482 12.304 1.373 66.433zm110.942-24.924c-1.32-2.741-2.06-4.613-1.813-5.838.486-1.577 1.695-1.504 3.24-.656 5.514 2.677 11.026 4.985 15.089-.082 2.034-2.651 1.504-6.429-.224-8.612-3.111-6.332-12.893-1.748-16.184-1.522-3.056.069-4.23-2.501-1.723-6.159 1.495-1.593 2.436-3.349 2.677-5.419 1.722-14.485-22.966-9.333-14.404 4.713 3.894 5.205 1.622 8.332-4.095 5.042-6.295-3.62-15.048-.244-14.759 7.37.221 5.768 7.462 9.333 13.556 5.852 1.411-.803 2.507-1.674 3.504-2.108 2.835-1.232 4.869-.217 3.93 2.974-2.538 3.987-5.512 9.716-3.018 13.481 2.491 5.496 11.074 4.984 14.023 1.565 2.025-2.354 2.593-6.181.201-10.601zm299.253-290.484l-191.864-124.35 6.634-10.513c8.592-4.793 12.129-10.761 11.837-19.076l5.212-11.485 168.378 108.048zm-299.976-42.035l19.651 100.394-133.943 1.907c-7.363-33.707-53.366-110.004-53.246-108.668l35.714-87.776 177.75-.211zm-50.264-37.38c3.391-3.108 3.165-7.854-.578-13.194-3.622-5.172-2.007-8.903 3.798-5.4 3.219 2.158 8.323 2.608 11.771 1.51 4.38-1.492 6.198-4.989 5.552-9.402-.785-5.338-6.701-6.802-13.03-4.472-1.824.385-2.936 1.877-4.514 2.588-3.402 1.5-4.765-2.599-1.642-7.911 3.456-5.888-.135-12.204-6.487-12.76-6.797-.595-10.84 7.132-8.069 11.37 3.976 6.085 1.091 10.322-4.614 6.253-8.205-5.856-18.921 1.567-14.483 10.276 2.156 4.226 9.204 5.334 15.525 2.657 5.278-2.238 6.847.337 3.645 5.747-6.577 11.117 4.23 20.891 13.126 12.738zm-194.343-98.574l-1.415 53.498c-20.038-12.256-17.059-12.408-17.8-12.224 5.895 16.08-.982 35.952-17.981 45.715 30.631 28.737 14.081 48.937 9.054 62.582 39.129 22.723 19.275 61.978 19.431 59.946 38.589.218 37.805 33.953 38.919 48.03 47.708-2.995 41.312 35.123 47.606 38.402 23.123-10.35 50.133-6.801 57.3 24.283 4.639 17.636-12.37.64-19.779 1.383-26.368 16.422-21.295-8.64-22.784-12.129-21.835 2.072-24.775-8.342-34.34-15.728-23.591 4.539-21.65-3.22-20.255-17.547-18.51-3.749-22.532-15.298-29.903-26.6-25.554.823-15.129-17.221-15.032-20.769-3.105-2.776-17.776-17.213-18.499-33.741-26.227-7.412-9.76-20.645-8.811-25.184-9.923-12.363-12.529-21.482-9.204-37.055-23.284-10.889-3.839-21.064-2.19-27.252-7.592-20.291-2.062-26.365.934-37.342-14.981-17.567-6.028-16.592 4.935-27.249 1.39-1.922-2.443-10.744-2.228-15.936zm134.533-198.269l-41.99-75.165h299.92s-32.639 45.231-45.295 67.988c-74.795-11.805-144.786-6.202-212.635 7.176z" fill="#d40000"/><path d="M178.743 1141.49c-26.303-5.98-30.771-39.04-6.077-66.54 1.998-2.22 3.355-5.66 3.355-5.66s-4.397-7.23-15.917-23.19c-2.145-2.97-5.269-7.72-5.269-7.72 6.311-9.11 12.939-16.65 20-26.52.947-1.33 2.7-2.82 2.454-4.05-.346-1.75-2.912-3.5-5.976-8.011-17.814-26.239-19.778-36.64-10.739-52.244 8.506-14.67 28.808-16.364 41.167-3.434 13.352 13.974 12.734 26.671-4.615 52.517-3.808 5.672-6.558 10.792-6.558 10.792s-.153 1.8 6.126 9.91c8.711 11.25 15.107 20.9 15.107 20.9s-3.966 5.06-7.721 9.47c-10.057 11.81-14.579 19.96-14.579 19.96s.686 2.36 2.185 4.06c27.567 31.23 25.396 67.1-5.773 70.15-1.608.15-5.499-.09-7.17-.39zm221.7-398.551c-.725-1.184-99.186 158.165-99.186 158.165l11.237 7.21 94.192-147.303c1.426 1.079 2.815 2.365 2.527 4.156 0 0-77.586 126.427-90.506 146.634-.352.543 19.231 12.144 19.891 12.177 28.849-14.219 149.193-1.908 229.094-6.804.315.245-1.227 28.071-1.227 28.071s-18.221-21.076-21.902-21.204c-18.166-.634-37.274 7.105-50.961 6.235-8.741 2.675-18.715 34.531-20.678 42.518-15.908-1.847-31.266 14.79-27.588 30.286 5.196 17.22 14.128 15.92 23.791 16.2-.898 19.5-35.312 70.87-35.459 96.19 36.395-2.88 75.776-3.54 113.317-14.86 0 0 14.1-40.56 31.893-67.28 5.867-10.23 8.683-25.58 6.302-35.251-1.507-10.595 3.059-13.272 7.137-20.688 2.482-4.635 11.656-4.443 12.828-4.783 23.878-6.916 15.347-37.795 5.188-43.286-12.675-6.851-30.592 3.765-37.479-10.128-7.287-14.703-4.927-45.109-4.927-45.109l-180.285.861s50.941-96.796 49.646-97.507c-13.929-7.647-36.675-34.224-36.845-34.5zm-120.586 88.105c.848-9.789 2.409-168.864-147.898-247.942l.798-20.913c.924-1.076 136.734 61.302 160.024 223.337l41.911-65.68 15.417 6.05c-22.774 34.232-68.085 117.31-70.252 105.148zm-91.27-57.304c6.192-18.367-3.967-8.624-13.227-9.375-6.33-3.445-12.547-7.894-18.423-11.763 43.921-23.275 17.766-22.15-7.824-5.806-6.638-3.599-15.03-11.478-15.559-10.812 49.57-31.888 30.977-32.529-.743-9.445 1.095-21.651.32-13.525.745-20.803 27.042-28.974 1.855-13.231-.001-12.885-6.653-28.908 25.181-22.856 28.1-1.001 5.607 4.167 16.619 9.324 19.869 27.253 15.285 9.736 13.683 17.801 12.972 29.465 5.979 5.908 21.42 18.377 3.415 29.892zM131.57 641.832l1.015-15.992c2.075-6.519 117.994 76.186 109.637 182.46 1.372-.747-12.825-7.421-16.9-11.071.063-78.204-91.96-159.28-93.752-155.397zm664.871 89.712c-77.349-35.452-150.793-120.403-154.651-230.895l-43.686 73.174-15.508-6.567c1.448 1.199 34.551-60.244 68.632-102.712 9.614 139.411 64.284 204.238 147.106 251.328zm-405.068-50.977c-74.942-9.303-183.313-111.346-150.924-249.67 4.593-14.048 76.875 63.777 76.875 63.773.46-3.529 65.022 100.494 63.211 120.815 54.501 15.527 160.871.804 160.871.804 88.447 19.755 180.926 115.18 147.539 250.796 0 0-23.509-15.439-43.161-33.405-59.691-57.703-78.633-105.118-99.783-157.423-76.423-6.921-148.075 6.79-154.628 4.31zm405.789-115.201c1.305 6.89.459 21.161.716 21.133-19.919 21.692-21.985 22.087 2.983 15.115-3.094 20.8-18.469 24.217-27.605 17.137-3.367-2.608-3.399-16.943-3.399-16.943-15.144-3.794-20.343-8.349-18.195-24.639-17.443-2.082-16.756-10.574-15.323-28.299-15.88-8.934-11.925-23.156-2.529-29.228l7.856 5.411c-2.52 2.255-1.293 16.376 12.629 5.87 0 0 11.131 9.244 16.481 12.83-40.273 25.897-15.861 20.204 8.947 3.193 4.655 3.175 11.01 8.368 14.319 10.609-32.682 23.436-43.406 43.033 3.12 7.811zm1.955 88.054l-1.331 18.669c-79.516-48.653-101.041-112.815-106.951-181.152 0 0 10.673 7.86 15.554 11.121 7.096 88.159 87.821 147.685 92.728 151.362zM363.484 422.085l190.686 1.219-50.572 96.725 26.694 31.538s66.241-103.239 99.548-157.317l-11.522-6.889-95.069 149.421-3.776-4.189 93.724-149.299c-5.62-3.683-16.257-9.588-16.257-9.588s-162.393 2.608-232.98 2.323c2.29-9.745 2.789-27.013 2.789-27.013 10.404 14.947 21.56 28.294 45.829 13.606 0 0 28.702.969 29.76-.397 3.511-5.682 9.733-23.545 16.991-43.719 27.687-1.853 24.932-15.243 28.078-19.633-2.119-39.355-24.186-18.163-22.286-32.47 6.232-25.495 38.117-83.21 34.091-88.27-8.225-5.46-89.785 10.603-113.523 13.526-2.199-.846-13.78 37.035-26.006 53.231-13.292 17.617-18.036 36.511-11.245 54.329-7.041 19.589-20.519 17.582-31.346 23.129-12.282 13.307-8.898 33.681 2.807 41.562 8.154 5.488 20.667 5.202 33.424-5.156zM742.41 285.27l-22.311-29.969 21.629-31.52c-8.537-13.538-22.616-34.254-20.091-50.675 5.51-32.561 49.427-27.785 53.25 3.363 2.079 14.457-8.456 32.187-19.157 47.275 7.062 12.879 10.102 14.979 20.372 29.742-6.104 10.771-20.959 31.852-20.959 31.852 9.264 15.588 22.153 32.769 21.22 48.627-.98 13.616-15.817 27.416-29.667 24.516-43.063-9.019-19.012-55.075-4.286-73.211z" fill="#e2cf00"/><path d="M338.976 104.867c11.827 22.215 45.413 82.15 45.413 82.15 79.866-16.565 147.032-20.781 217.614-5.318l50.427-76.467zm10.417 4.509h14.434l28.326 58.292 48.869-9.766-8.327-48.404 13.826.081 6.994 46.543 71.798-1.819 9.304-44.927 13.244.162-9.504 45.655 56.852 7.662 27.821-53.479h19.113l-42.301 66.036c-75.247-14.666-149.995-9.739-212.561 5.661zm27.232 0h42.159l10.106 39.347c-5.176 2.702-24.508 7.323-30.972 6.672-7.725-13.53-15.709-33.095-21.293-46.019zm81.303 0h64.15l-5.48 33.503-53.798 1.719zm101.696 0h49.437l-19.513 40.681-37.281-5.075zm-316.036 10.191c-9.925 21.346-23.894 42.171-35.611 57.563-34.712 45.382-42.172 58.3-49.03 85.02-10.74 41.827 26.281 75.621 58.392 52.893 7.564-5.354 15.942-20.115 15.975-26.487.026-4.584 3.157-7.058 5.7-4.488.511.517.64 2.569.485 5.499-1.779 18.953-9.381 49.77-24.101 69.109h58.819c-17.805-23.608-23.758-47.4-23.434-69.776.045-9.616 5.739-8.67 7.013 1.172 6.276 48.275 68.531 39.211 71.436-9.078 1.708-25.249-14.227-52.152-34.996-81.967-16.945-24.325-37.559-50.59-50.648-79.46zm504.256 30.531c-2.892-.017-5.558.234-8.004.748-12.823 2.685-19.546 12.54-19.656 28.629-.045 7.374 5.384 20.411 13.646 32.735 4.031 6.009 6.716 11.544 6.716 11.544l-21.513 31.623 22.884 29.904s-3.565 4.181-5.68 7.178c-10.495 14.847-15.347 28.728-14.681 40.114.731 12.297 7.9 21.682 21.332 26.183 7.376 2.47 17.883-.55 24.955-6.955 5.7-5.169 8.573-11.887 8.689-19.774.175-11.268-5.267-24.919-16.11-39.811-2.944-4.043-4.387-7.218-4.387-7.218s15.179-21.615 20.905-31.501l-20.743-29.803c16.492-24.786 19.817-30.279 20.277-45.513-.744-15.095-11.698-27.992-28.63-28.083zm-2.064 1.819c.712-.012 1.43.006 2.148.061 18.834 1.451 28.779 15.451 26.281 33.421-2.555 17.138-18.006 33.106-20.484 38.618 7.434 12.074 21.435 29.237 21.435 29.237-5.946 10.804-21.293 31.743-21.293 31.743s.887 1.732 1.864 3.114c16.02 22.708 20.432 33.439 19.326 47.05-.867 10.736-9.343 20.315-19.915 22.261-16.744 3.081-30.48-8.803-32.169-24.849-1.029-14.047 8.029-27.702 15.062-38.356 2.983-4.463 5.545-8.734 5.545-8.734l-22.807-29.944s1.631-2.574 2.685-4.105c4.012-5.82 9.201-13.026 11.853-16.478 4.795-6.244 7.642-10.555 7.642-10.555s-3.404-5.471-6.555-10.453c-12.506-19.757-15.994-29.883-14.072-40.802 2.368-13.43 12.772-21.052 23.454-21.229zm1.702 10.129c-6.962.185-13.607 5.319-16.26 12.739-3.823 13.915 10.825 34.983 17.489 40.639 12.494-14.361 20.445-30.472 15.832-41.752-3.034-6.82-10.106-11.811-17.061-11.626zm1.714 4.509c12.617.261 17.34 15.236 7.602 32.27-3.358 5.814-8.307 11.888-8.307 11.888s-4.62-5.759-7.402-10.109c-11.271-17.647-8.366-31.426 5.48-33.887a17.872 17.872 0 0 1 2.627-.162zm-251.012 7.785c-33.023.174-77.142 5.674-115.917 14.476-3.364 20.801-13.807 41.662-25.194 58.231-10.967 17.913-14.927 33.512-11.258 44.198 3.429 10.005-5.94 24.942-16.24 25.881-12.798 1.166-20.943 10.077-20.782 22.766-.369 20.33 13.665 32.794 32.713 25.88 1.915-.239 3.196 1.011 3.196 1.011l-1.113 116.36c-10.721 1.683-17.877 4.015-26.993 8.856l-3.843-4.125a667.9 667.9 0 0 1-5.946-6.47c-1.158-1.297-3.267-3.107-4.665-4.003-1.404-.897-3.306-2.833-4.231-4.307-2.245-3.601-11.776-12.762-16.984-16.316-.887-.606-3.132-2.512-4.989-4.227l-3.403-3.113.026-38.638c.007-21.25-.207-38.863-.485-39.144s-4.633 1.575-9.686 4.124c-17.359 7.596-33.942 18.073-46.668 26.568-5.636 3.775-6.199 5.874-4.083 15.427 1.191 5.36.893 5.935-3.52 7.016-9.084 2.224-11.93 16.703-4.244 21.614 3.604 2.303 3.623 2.424 1.294 7.663-3.597 8.102-3.461 23.6.265 30.066 2.123 3.691 1.98 4.882-.834 6.712-9.679 6.301-9.02 19.782 1.093 22.302 2.588.644 3.261 1.752 2.407 3.963-3.164 8.164-.278 20.569 6.975 29.964 3.772 4.883 3.759 4.83 1.274 7.077-8.145 7.361-3.733 20.55 7.363 21.998 3.805.496 3.824.505 4.264 3.417 1.275 8.37 1.85 10.706 3.701 14.638 2.336 4.956 5.137 8.305 10.391 12.394 4.283 3.335 4.289 3.383 1.999 8.31-4.225 9.109 2.497 18.144 13.225 17.773 5.467-.19 5.473-.205 5.862 1.738 1.934 9.51 13.231 20.666 22.509 22.201 4.768.789 5.519 1.922 3.901 5.964-2.607 6.506-.918 10.699 5.662 14.075 4.412 2.258 5.7 2.342 10.533.686 5.467-1.876 5.525-1.851 10.171 4.367 6.547 8.761 10.889 10.96 21.817 11.038 7.201.052 7.473.239 7.518 5.318.11 12.028 12.83 17.042 21.028 8.288 2.956-3.15 2.95-3.137 5.583-1.209 11.53 8.449 21.752 10.63 20.801 2.73-2.225-18.498-15.605-29.788-15.605-29.788l16.718 4.374c.738 19.526 1.43 43.077 5.5 59.356l-74.529 118.706s-4.516-2.763-9.278-6.043c-7.007-4.833-15.586-10.514-20.846-13.807-2.692-1.689-6.127-3.747-8.838-6.031-2.588-2.16 1.604-5.014 2.491-7.298 17.158-30.642 44.015-67.469 63.568-103.275l-18.925-7.317c-14.48 22.794-25.143 41.136-38.62 62.151-13.425-98.487-82.156-184.947-165.309-221.358l.284 25.779c87.294 44.656 149.601 136.818 147.944 245.515-.342.414-7.311-3.759-16.725-10.029-4.962-3.299-14.952-9.834-16.194-10.468 4.037-120.382-115.348-191.563-115.549-188.2 0 0-.75 15.557-1.093 22.767 50.874 34.084 90.839 96.093 94.89 151.276.038.453-23.881-14.92-23.881-14.92 14.234-7.084 10.313-25.453.058-30.428-3.209-1.443-3.397-2.135-1.799-6.47 3.281-8.897-2.737-22.283-11.018-24.528-3.63-.984-4.232-1.935-4.406-7.033-.324-9.323-5.487-15.425-14.784-17.469-2.563-.57-2.588-.589-2.724-3.805-.79-18.061-18.453-25.418-31.704-13.198-1.481 1.365-3.034 3.959-3.034 3.959l-.103 19.591c4.529-2.491 11.393-10.999 14.214-10.656 3.119.369 1.605 2.459-5.396 8.515-4.548 3.927-8.961 8.068-8.961 8.068l.285 25.796c7.55-4.898 15.107-10.436 22.179-15.366 6.095-4.251 9.22-5.636 9.97-4.406.842 1.378-.517 3.183-3.985 5.26-9.291 6.185-20.102 13.451-27.925 19.572l-.019 17.766 1.501 2.207.44 15.567-1.391.343.019 19.617 183.607 117.289 93.434-147.394 1.533 1.552-93.453 146.773s3.843 3.306 7.486 5.215c3.707 2.077 8.346 4.846 12.312 7.48 1.87 3.066 5.144 5.764 8.651 5.376 3.215-3.507 17.255-7.22 18.601-8.844 52.278-.77 202.331.252 202.331.252l.848 24.004c-6.742-23.273-28.494-28.074-45.588-17.657l-28.086.045c-.22 0-16.622 29.885-19.029 45.491-11.801-1.604-27.51 9.899-28.306 21.571-1.909 16.617 9.006 28.727 23.272 26.367.259.1-2.238 16.46-10.313 29.24-10.708 22.55-16.227 35.17-22.761 54.4-4.426 12.1-2.918 14.24-2.168 14.54 41.9-.6 80.442-4.66 120.201-17.49 0 0-.732-2.83-1.087-4.42-1.437-6.44 3.972-19.62 19.267-46.83 11.808-21.02 15.192-29.04 16.376-38.96.602-5.03.492-6.33-1.255-15.695-.11-.867-.789-2.129-.608-3.073 1.242-6.309 10.844-17.392 11.063-17.12 0 0 3.481-.647 4.872-.77 21.662-1.52 28.372-30.959 10.087-44.242-8.909-5.454-14.15-5.868-23.59-3.397l-.168-114.177 13.167.498 14.473-7.149c23.254 19.857 38.419 40.153 63.452 55.442l-.408 1.009-18.601-12.752.039 74.806c21.532-11.206 41.609-21.545 60.961-37.222l-3.902-3.377.162-10.695c18.187 1.436 19.941-21.72 4.995-24.483 0 0 .343-1.87 1.779-4.813 4.587-9.414 5.157-18.278 1.818-28.068-2.038-5.971-1.947-7.472.466-7.46 11.051.059 10.035-19.545-1.236-23.835-3.875-1.482-3.597-.252-2.808-12.416.595-9.136-1.63-15.334-8.392-23.351-2.549-3.028-2.335-4.49.952-6.489 9.433-5.758 2.601-22.386-8.994-21.901-4.529.188-4.522.188-4.917-4.348-1.029-11.911-7.68-23.266-16.395-28.022-2.705-1.475-3.099-2.678-1.579-4.71 7.421-9.926.485-23.496-9.99-19.532-2.025.768-4.173 1.539-4.749 1.718-.828.256-1.494-.9-3.092-5.398-4.355-12.248-8.224-16.088-22.082-21.918-2.724-1.146-2.886-1.953-1.657-7.541 2.122-9.646-11.161-18.626-18.336-12.394-2.924 2.538-3.021 2.516-6.308-1.699-6.554-7.541-17.223-12.796-26.709-13.789-4.542-.408-5.227-.762-4.852-2.507 2.517-11.819-8.98-19.52-18.543-12.414-4.594 3.412-5.778 3.515-10.495.869-9.912-5.561-14.253-5.77-15.282-.748-.323 4.182.602 9.132 1.618 12.212 2.407 8.303 5.532 11.384 12.37 17.226 0 0-11.348-3.147-14.214-3.72.284-.297-.822-39.402-8.269-61.546l72.568-115.491 41.57 27.417-66.48 105.159 19.346 7.865s25.841-42.927 39.37-63.972c8.857 104.527 89.662 196.187 162.864 223.38-.252.123.233-15.03.543-22.367-77.226-34-150.687-129.023-146.061-243.069l31.018 19.855c8.999 91.406 48.816 144.971 115.186 190.263v-28.006c-45.705-33.826-83.684-78.009-93.758-148.71 0 0 15.496 9.79 22.445 14.436 0 0-1.961 1.119-2.976 1.962-8.288 6.901-5.798 21.06 5.137 29.074 1.779 1.302 1.792 1.305.123 5.762-3.319 8.846 1.798 19.538 10.436 21.776 4.95 1.284 4.924 1.223 5.008 6.895.181 11.013 4.619 16.088 16.382 18.722 1.604.36 1.663.526 1.637 5.46-.065 12.172 11.627 20.36 21.817 15.265 3.19-1.595 13.218-9.988 13.218-9.988v-19.592s-4.542 3.715-7.822 6.773c-5.746 5.354-7.557 6.019-7.538 2.75.007-2.371 2.653-5.481 8.165-9.584 2.86-2.127 7.195-6.672 7.195-6.672v-22.828s-2.562-4.065-2.4-8.936c.084-2.649.828-6.673.828-6.673l2.75.061-.039-26.426-3.339-2.608.143-17.509-181.55-117.472-94.559 150.388-2.368-2.77 94.663-149.438-25.149-16.074-15.185 7.481s-105.08-1.657-207.566-.343c0 0-.246-2.828-.2-10.817.051-10.043.511-11.45 2.361-7.218 4.147 9.496 14.441 15.223 26.385 14.678 6.748-.308 7.686-.583 15.185-4.63 2.789-1.504 3.293-1.549 16.44-1.455 14.092.1 16.622-.416 16.641-3.397 4.905-11.16 9.731-24.109 12.533-33.847 1.352-4.719 1.947-6.8 3.054-7.764.854-.747 1.533-.578 3.578-.707 9.019-.581 11.523-1.163 18.019-7.502 13.017-13.081 5.551-39.688-13.309-39.79-4.995-.028-1.579-13.318 8.98-34.878 10.915-22.307 12.449-25.728 18.097-40.68 3.688-9.774 5.448-16.781 5.901-21.048-1.042-.006-2.11-.006-3.171 0zm-.996 6.45c2.614 2.191-3.908 18.301-15.67 42.682-9.699 20.126-14.04 30.192-16.111 37.485-.595 2.104-1.449 5.135-1.902 6.734-.634 2.249-1.469 3.359-3.701 4.953a132.842 132.842 0 0 0-4.911 3.7c-3.176 2.55-3.933 1.74-3.157-3.397 1.449-9.532 5.228-19.815 13.956-37.708 6.916-14.24 13.677-29.502 18.944-45.068 1.184-3.635 1.734-7.327 3.701-8.674 2.827-1.586 5.817-1.273 8.851-.707zm-14.15.93c1.799 1.245-6.735 23.308-21.513 53.944-18.44 38.225-19.416 65.003-2.834 71.554 13.083 5.165 26.249-9.243 18.181-19.754-3.882-5.053-12.248-5.479-15.146-.242-1.579 2.857.614 6.151 3.416 2.143 4.082-5.832 12.248.901 10.274 7.804-1.352 4.735-7.984 8.544-12.092 7.724-18.116-3.616-14.707-29.165 4.082-30.571 17.981-1.345 26.159 22.798 13.102 36.616-4.141 4.475-8.987 6.704-17.43 6.693-11.698-.016-22.639-9.682-21.532-18.642 1.552-8.202 1.785-14.829-.99-21.291-.893-2.074-1.98-4.138-1.922-6.752.168-7.265 6.153-18.543 19.494-46.403 4.782-9.982 10.65-27.287 13.549-38.213 1.022-3.196.517-4.094 1.714-4.536 2.989-.656 7.247-1.554 9.647-.074zm-15.431.384c2.743.118-3.559 20.218-11.504 37.344-6.023 13.112-14.253 29.956-20.38 45.533-1.954 3.303-3.268 3.56-7.279 1.416-4.419-2.363-3.112-6.122 7.324-26.872 7.861-15.758 15.424-33.586 20.723-51.538.479-2.155 1.204-4.021 2.99-5.054 2.723-1.19 5.376-.95 8.126-.829zm-14.674 2.264c1.456 1.931-8.101 29.029-22.891 59.585-3.158 6.488-5.293 12.418-8.469 19.047-1.527 1.535-7.409 2.315-10.352 2.911-3.035-.405-.156-6.102 8.488-23.595 7.053-14.261 9.058-18.296 12.759-26.973 2.698-6.352 6.632-17.266 10.313-27.457.298-.822.583-2.651 1.379-3.073 2.743-1.159 6.088-1.63 8.773-.445zm-14.441 1.698c.246.653-.304 1.998-.505 3.034-2.323 10.904-7.641 21.056-11.523 31.48-.466 1.421-4.723 10.295-9.459 19.714-4.743 9.418-9.091 18.412-9.666 19.996-.576 1.585-2.155 5.791-3.501 9.342-8.508 18.254.641 32.643 11.912 33.648 17.579 1.455 19.241-23.188 6.838-25.558-4.677-.786-9.821 1.779-9.847 7.158-.33 2.813 3.125 6.077 3.08 2.038-.188-7.343 10.074-7.005 11.335-.768 2.465 12.155-11.348 18.095-19.578 8.553-3.384-3.931-3.358-8.414-2.73-12.435 1.708-10.877 14.247-18.744 25.86-10.534 15.897 11.234 10.411 36.072-10.125 40.115-7.02 1.828-15.871-.511-21.416-6.208-3.526-3.627-5.843-8.974-6.729-15.609-.498-3.693-.692-8.04-.123-12.111 1.663-12.753 10.967-31.378 19.126-47.15 6.301-13.087 11.251-30.373 16.983-44.279 1.618-1.186 10.314-2.282 10.068-.426zm-15.502 1.74c.931.288-3.87 15.398-10.721 31.723-7.538 16.559-17.321 35.506-22.865 51.801-1.747 3.998-3.022 3.879-7.984-.749-2.627-2.442-1.152-6.081 8.042-24.848 14.143-28.87 19.397-41.186 21.513-48.061.996-3.231 1.798-7.195 3.927-8.451 2.717-1.285 5.39-2.229 8.088-1.415zm-14.138 3.619c-1.494 4.86-6.398 19.265-14.777 36.333-5.26 10.773-10.397 22.708-15.586 33.826-2.905 6.861-2.983 6.854-7.933 7.886-8.327 1.738-8.327 1.646-.97-13.284 2.193-4.437 6.399-12.585 9.362-18.096 5.474-10.157 13.923-29.932 16.984-39.791.822-2.64 1.967-5.118 3.3-6.47.854-.456 7.414-2.415 9.62-.404zm-18.213 1.819c1.488-.053 2.828.213 3.455 1.032.369 3.39-8.786 25.072-14.415 35.12-1.721 3.081-3.423 7.073-5.357 10.635-7.175 11.41-15.793 33.339-18.019 42.439-3.526 14.459 12.998 25.39 21.564 14.877 5.442-6.363-.22-17.81-8.055-14.614-2.737 1.117-1.617 2.339 2.116 2.653 6.172.518 6.645 10.033.103 12.123-7.272 2.226-12.629-4.08-12.603-10.535.058-13.238 14.538-18.103 23.603-10.87 9.045 7.53 10.487 25.431-3.21 32.368-13.354 6.762-29.794-2.404-33.1-18.44-2.524-12.238.213-23.452 11.989-42.318 6.767-10.86 17.288-29.607 22.664-46.059 1.055-2.788 1.987-5.097 2.957-6.267.893-1.039 3.824-2.054 6.308-2.144zM68.852 196.56s-5.325 10.213-12.675 22.464c-8.968 15.15-22.179 30.108-24.12 47.049-.524 4.824.271 9.666 1.255 12.637 4.095 12.465 21.946 14.346 28.183 3.841 1.87-3.155 2.504-3.739 4.322-2.75.79.425 1.113 1.651 1.074 3.377-1.546 11.185-5.862 17.333-12.047 25.738h29.782c-6.27-6.902-11.588-16.424-12.235-26.062-.194-3.947 2.219-4.28 5.823.041 11.62 16.057 29.879-1.983 28.39-16.964-1.662-16.672-19.099-38.235-23.9-46.706-7.266-10.747-13.852-22.665-13.852-22.665zm679.762 35.201l-17.935 22.807c5.176 7.475 17.469 22.181 17.469 22.181l17.003-21.958zm.162 12.758l7.421 9.625-8.495 10.028-7.965-9.361zm.666 49.577s-21.681 23.759-16.699 41.388c4.445 15.706 28.073 19.523 33.825-3.457.401-1.83.084-4.304-.162-7.38-.491-9.36-16.964-30.551-16.964-30.551zm0 4.691s6.224 9.028 10.611 17.025c4.917 7.606 6.205 28.865-11.239 28.204-9.452.975-18.478-11.487-10.96-26.729 2.051-4.641 11.588-18.5 11.588-18.5zm-357.877 3.821c1.209-.188 2.419 2.415 3.176 4.307 1.036 2.572-1.921 9.981-5.033 13.668-.596.62-4.575.962-10.495 3.983-.013-2.774 1.676-8.853 2.789-11.545 4.037-3.988 7.46-8.738 9.058-10.15.168-.15.336-.236.505-.263zm-43.207 1.335c2.665 3.016 5.286 5.634 5.176 7.501-.156 2.732-3.371 6.11-5.804 8.512-3.047 3.015-9.136 1.222-9.116-2.689.006-1.445 8.702-13.33 9.744-13.324zm91.777 3.922c2.575 1.38 5.183 6.079 5.519 8.209-3.778 20.319-17.741 45.151-17.268 44.219 0 0-8.56 1.525-12.19-.323 9.401-13.057 15.703-29.668 19.973-43.269 1.838-5.866 2.666-8.819 3.966-8.836zm-7.926 2.851c1.437-.083 1.993 1.08.783 4.226-5.525 22.468-17.948 46.086-27.717 50.385-12.824 5.647-25.577.959-31.057-8.694-5.926-10.448-4.872-26.94 14.881-30.55 11.621-1.192 23.532 7.97 17.327 22.705-6.903 10.931-25.453 4.838-20.018-9.26 4.115-5.166 12.72-.685 9.912 5.156-1.43 2.963-.052 4.784 2.057 2.729 6.768-6.586-4.36-17.889-11.866-12.232-12.241 9.226 2.88 29.507 17.127 20.805 4.341-2.651 12.196-17.528 15.146-28.367 1.268-4.665 2.407-9.097 5.415-11.929 2.86-2.695 6.16-4.868 8.01-4.974zm-32.453.89c.698.027 1.52.375 2.646.93 1.43.703 3.105 1.986 2.911 3.639-.22 1.913-1.313 6.07-3.513 8.088-1.326-.455-4.988-1.917-7.486-2.588-1.565-.422.518-3.796 1.475-5.662 1.547-3.006 2.401-4.268 3.663-4.387.097-.009.207-.024.304-.02zm-40.38.768c1.844-.034 4.769 2.01 6.697 2.285.368 2.789-3.177 8.761-8.961 15.811-4.737 5.783-4.711 5.793-7.862-.566-2.051-4.142-2.109-4.028 3.74-11.303 3.145-3.91 4.659-5.701 6.024-6.186.11-.022.239-.039.362-.041zm18.343 2.042c.084 1.491-.673 4.78-1.314 6.693-6.554 19.575-21.862 38.968-34.498 43.733-16.486 5.388-31.58-3.296-31.962-23.312.414-23.585 28.494-30.123 36.976-8.614 3.831 9.712-6.606 24.312-15.625 21.878-9.103-2.458-12.908-16.667-5.402-20.179 4.923-2.302 10.009 1.557 8.941 6.773-.375 1.809-.272 2.058.783 1.86 4.684-.874 2.213-10.273-3.313-12.616-10.436-4.43-18.329 9.632-11.283 20.118 8.437 12.552 21.7 10.146 29.341-5.338 1.301-2.636 3.772-6.419 5.48-8.391 4.627-5.355 6.095-7.46 10.184-14.538 2.258-3.898 3.462-6.364 4.613-7.642 1.831-.125 3.087.383 7.079-.425zm36.976 1.031c1.98.016 3.507 1.301 3.461 4.044-.038 2.294-3.319 11.962-4.852 14.275-.589.888-1.961 3.995-2.168 3.316-1.921-6.433-5.37-8.422-5.861-10.11-.576-1.979 1.164-3.879 1.941-5.661 1.649-3.789 4.936-5.883 7.479-5.864zm34.861 3.053c2.387-.02 5.771 1.077 6.47 2.851 2.18 3.83-12.585 39.481-13.122 39.589l-11.018-.485c6.612-14.216 12.468-28.303 16.718-41.874.292-.049.609-.078.952-.081zm147.84 56.432l14.014 8.33-92.366 146.768-13.419-10.271zm-230.437 3.032c86.272.322 205.081.162 205.081.162l-5.014 9.523s-129.77-1.266-200.067-1.132zm-116.461 6.005l-.181 48.242s-.647-.282-8.877-5.762c-9.873-6.575-20.71-13.35-24.198-15.123-5.143-2.616-4.471-3.877 5.416-10.171 9.711-5.842 27.84-17.186 27.84-17.186zm369.381 4.792l8.677 5.479-97.051 154.472-5.402-10.594zm-252.901 2.143h13.51v15.266h-13.51zm30.94 0h16.395v15.266h-16.395zm35.825.162h16.861v15.265h-16.861zm35.158.061h17.049v15.264h-17.049zm35.43.101h16.822v15.265h-16.822zm35.443.323h17.204v10.757l-2.608 4.509h-14.596zm92.741 4.974L797.12 503.018l-.104 14.699-171.352-110.739zm-10.798 12.455l1.417 1.011-6.975 10.675-1.436-.808zm-254.273 1.577h184.765l-5.564 9.361-179.201-.262zm-151.677 4.772c1.242-.08 3.669 1.016 7.441 3.134 9.084 5.097 14.797 15.85 10.876 19.733-3.494 3.454-11.672-3.946-16.745-14.517-2.685-5.604-3.39-8.234-1.572-8.35zm326.918 9.219l-59.608 95.272c-13.477-18.467-28.578-34.422-61.563-23.616-17.197-13.297-35.384-15.349-54.736-4.064l.22-67.268zm-306.841.041l4.645 4.023c-1.372 2.624-1.999 6.421-2.892 9.807-.065-4.643-.472-9.263-1.753-13.83zm377.869.991l183.646 120.828v11.201L607.302 435.163zm-402.236 2.749c2.375-.046 4.698.97 6.451 3.074 2.776 3.338 1.63 9.456-2.264 12.07-7.765 5.205-17.075-4.869-10.922-11.808 1.935-2.174 4.361-3.29 6.735-3.336zm30.41 1.436l10.028 8.027c-17.404 99.273 32.324 199.493 139.43 229.525l1.209 12.714c.207.608-45.503-13.572-65.463-28.505-27.298-18.464-50.357-44.466-66.26-74.709-10.844-19.501-16.796-40.976-20.646-58.331-4.542-29.776-4.413-59.25 1.702-88.721zm-11.381 13.466c3.843.157 4.257 2.927 1.171 8.249-3.973 6.843-9.925 11.607-19.572 15.67-5.318 2.237-6.703 1.221-6.088-4.448.925-8.525 6.858-14.765 17.126-18.056 2.465-.684 4.956-1.43 7.363-1.415zm29.516 1.071c1.572 1.329 2.064 1.747 3.986 3.377-3.294 1.127-5.662 4.232-5.662 7.905 0 4.623 3.747 8.371 8.366 8.371a8.336 8.336 0 0 0 8.23-6.956c1.501 1.285 2.912 2.486 4.005 3.438-1.928 4.87-6.677 8.31-12.235 8.31-7.259 0-13.16-5.899-13.16-13.163 0-4.815 2.607-8.993 6.47-11.282zm6.69 6.592c.46 0 .899.08 1.32.202 1.048.893 1.896 1.621 2.912 2.487.291.61.465 1.279.465 2.001a4.694 4.694 0 0 1-4.697 4.691 4.687 4.687 0 0 1-4.684-4.691 4.687 4.687 0 0 1 4.684-4.69zm-31.6 3.032c-1.087 12.803-.75 26.189-.342 39.589-2.472-10.619-7.984-18.565-17.165-24 6.34-4.38 12.972-9.708 17.507-15.589zm48.267 10.049l8.916 7.704c-7.667 105.087 84.427 144.966 86.899 143.21l3.882 11.889c-63.594-21.644-107.552-87.375-99.697-162.803zM796.35 715.914l-.466 13.231c-72.16-28.002-154.408-131.308-153.359-230.292-18.531 28.405-28.941 47.363-44.844 72.95l-12.662-6.028c20.82-31.019 40.612-64.196 61.498-94.67 2.374-3.441 4.322-5.019 4.432 2.506-.013 34.057 10.552 174.171 145.401 242.303zm-586.755-243.73c2.322-.148 5.641.976 9.828 3.781 6.599 4.424 14.001 18.098 11.445 21.149-2.303 2.744-12.086-.52-16.945-5.662-9.621-10.187-10.255-18.889-4.328-19.268zm56.27 1.375c7.265 0 13.166 5.878 13.166 13.143 0 7.263-5.901 13.162-13.166 13.162-7.26 0-13.161-5.899-13.161-13.162 0-7.265 5.901-13.143 13.161-13.143zm29.458 1.254l8.592 10.068c1.682 88.199 71.3 115.395 70.646 115.612l2.103 9.483c-3.876.543-86.129-36.9-81.341-135.163zm-29.458 3.518c-4.62 0-8.366 3.747-8.366 8.371a8.37 8.37 0 0 0 16.738 0 8.37 8.37 0 0 0-8.372-8.371zm0 3.68a4.692 4.692 0 0 1 4.69 4.691c0 2.589-2.102 4.69-4.69 4.69s-4.691-2.101-4.691-4.69a4.693 4.693 0 0 1 4.691-4.691zm44.481 7.986c1.061.006 6.03 7.218 6.03 7.218s-5.454 1.913-7.809-.465c-2.336-2.361-1.074-6.769 1.779-6.753zm381.189 3.255l12.901 8.816c6.024 59.502 40.108 113.783 91.506 151.439l-.323 14.739c-62.604-42.305-97.368-99.783-104.084-174.994zm-483.312 1.011c.207-.013.421-.003.628 0 7.887.133 11.232 12.256 2.788 15.731-5.305 2.184-11.083-.971-11.646-6.369-.395-3.802 2.426-7.871 6.27-8.998a8.791 8.791 0 0 1 1.96-.364zm107.642 7.946c2.07.006 4.322 1.194 6.451 3.599 5.661 6.381 5.609 8.234-.363 10.656-8.391 3.405-15.372-1.327-12.577-8.533 1.468-3.785 3.83-5.726 6.489-5.722zm-85.948.303c.679-.014 1.32.076 1.902.304 6.186 2.412-7.227 26.988-16.097 29.479-5.636 1.583-6.813-.616-4.976-9.24 2.051-9.586 12.578-20.406 19.171-20.543zm39.467.566c7.266 0 13.16 5.879 13.16 13.143s-5.894 13.162-13.16 13.162-13.16-5.898-13.16-13.162 5.894-13.143 13.16-13.143zm0 4.772c-4.619 0-8.372 3.748-8.372 8.371s3.753 8.37 8.372 8.37c4.62 0 8.372-3.747 8.372-8.37s-3.752-8.371-8.372-8.371zm-32.893.708c1.164 12.171 3.144 23.431 8.546 38.416-5.066-8.105-12.293-12.131-19.222-16.721 4.853-7.232 10.475-14.463 10.676-21.695zm32.893 2.972a4.693 4.693 0 0 1 4.691 4.691c0 2.589-2.103 4.691-4.691 4.691s-4.691-2.102-4.691-4.691a4.693 4.693 0 0 1 4.691-4.691zm74.49 1.435c13.723-.295 23.428 11.008 22.826 21.837.401 12.576.854 20.63-.181 36.253l-11.141-20.402c-.162-5.781.821-10.158.381-15.911-1.261-15.472-16.427-13.324-17.145-11.788l-4.795-7.784c3.52-1.451 6.885-2.137 10.055-2.205zm48.338 1.558c12.862-.015 20.315 7.229 20.704 20.117.757 24.677-.563 81.017-.563 81.017l-27.821.02-15.186-37.647s-.601-3.621-.485-6.248c.964-12.073.362-25.511.77-36.414 1.598-11.559 11.103-20.833 22.581-20.845zm-64.377 3.902c1.792-.023 3.448.523 4.716 1.799 6.451 6.526 6.412 10.804-.123 13.749-8.65 3.894-13.147 3.156-16.097-2.628-2.892-5.671 5.118-12.84 11.504-12.92zm405.594 1.779l7.058 4.549s-1.488 2.321-2.29 3.7c-4.005 6.893 2.808 10.937 12.235 7.279a19.639 19.639 0 0 0 3.151-1.597l5.823 3.963s-4.193 2.267-8.774 4.509c-11.769 5.759-20.225 3.315-23.065-6.652-1.132-3.957 0-8.911 2.2-11.808 1.125-1.482 3.662-3.943 3.662-3.943zm-298.431.829c10.766-.367 21.248 8.045 23.739 19.349 1.028 5.295-.305 75.295-.305 75.295l-42.721-.02.744-73.435c-.278-4.643 0-9.238 2.491-12.535 4.691-5.848 10.41-8.462 16.052-8.654zm-44.359 3.215c-8.631.397-13.529 14.374-4.652 20.967 3.708 2.753 3.785 3.271 1.799 12.576-2.264 10.615.078 25.158 5.377 33.341 4.063 6.776 3.235 3.313 1.151-2.73-2.672-11.329-1.358-19.652 5.176-32.815 5.849-11.089 11.511-28.139-7.071-31.218a8.545 8.545 0 0 0-1.78-.121zm354.559 3.194l3.856 2.609s-.576.481-1.411 1.294c-1.546 1.496-4.619 1.734-5.564.586-1.559-1.903 3.119-4.489 3.119-4.489zm-307.774 5.419c-9.278-.311-15.379 16.89-3.52 21.048 2.699 1.741 3.151 4.019 1.476 7.238-2.245 4.324-4.491 14.596-4.141 18.885.498 6.156 2.077 14.193 3.312 16.984 3.113 7.687 2.491 4.616 1.676-4.267-.31-9.926 1.689-17.084 7.467-26.568 6.858-11.372 16.298-29.867-5.358-33.239a7.601 7.601 0 0 0-.912-.081zm-159.57.061c7.265 0 13.166 5.878 13.166 13.141 0 7.265-5.901 13.163-13.166 13.163-7.26 0-13.161-5.898-13.161-13.163 0-7.263 5.901-13.141 13.161-13.141zm60.999 1.334c2.271-.022 3.979 1.487 6.05 4.569 5.68 8.474 5.027 10.209-5.927 16.236-11.607 6.385-19.365-9.672-8.269-17.105 3.358-2.247 5.733-3.493 7.687-3.68.155-.015.31-.019.459-.02zm-120.459.627c12.241.126 31.367 17.603 22.037 20.138-1.333.363-3.009.609-3.72.566-15.38-.939-33.004-20.854-18.317-20.704zm59.46 2.81c-4.62 0-8.366 3.748-8.366 8.37 0 4.624 3.746 8.371 8.366 8.371a8.37 8.37 0 0 0 8.372-8.371 8.37 8.37 0 0 0-8.372-8.37zm484.852 2.467l6.107 4.145s-3.733 1.716-8.133 4.064c-11.937 6.377-15.405 11.056-11.277 15.224 1.469 1.49 3.209 2.136 6.347.951 8.275-3.214 15.994-8.874 23.713-13.345l4.594 3.155c-.104-.211-18.252 12.903-28.164 18.419-15.561 7.989-24.451-8.344-15.794-19.248 6.677-6.64 13.833-8.818 22.607-13.365zm-484.852 1.213a4.688 4.688 0 0 1 4.69 4.69 4.689 4.689 0 0 1-4.69 4.691 4.693 4.693 0 0 1-4.691-4.691 4.693 4.693 0 0 1 4.691-4.69zm494.395 4.388l3.332 2.244s-.356.168-10.553 6.025c-11.089 6.372-11.575 6.483-12.189 5.48-.544-.303.213-2.906 3.617-5.197 5.971-4.014 16.53-8.892 15.793-8.552zm-288.583.323c7.557-.146 15.256 3.442 19.649 11.12 2.245 5.832 2.433 11.245 2.407 17.368l-.181 41.105h-43.026s-1.999-28.018 0-51.336c1.954-11.714 11.433-18.069 21.151-18.257zM350.04 552.17c2.73-.2 4.742 2.481 7.337 8.29 2.568 5.753.64 9.006-7.441 12.495-1.022.441-2.187.766-2.588.728-8.171-.78-11.51-10.196-5.642-15.913 3.637-3.543 6.205-5.444 8.334-5.6zm437.291 4.205l3.739 2.326s-1.915 1.734-15.813 11.868c-11.219 8.184-12.836 10.409-10.487 15.003 1.889 3.707 5.991 3.224 11.665-1.133 7.861-6.043 20.238-16.276 20.238-16.276l.401 6.996c-8.139 6.545-17.973 17.709-25.796 21.958-15.101 7.437-25.932-12.987-12.131-23.05 11.892-8.675 28.184-17.692 28.184-17.692zm-302.028.021c-11.245-.094-15.432 16.6-3.339 20.138 3.481 1.864 3.19 2.826.873 11.14-1.41 5.034-1.863 11.24-1.093 15.185.906 5.028 2.019 4.911 1.559-.485.013-2.953 3.048-10.829 6.082-15.771 11.219-15.634 8.275-30.057-4.082-30.207zm-262.037.202c7.421.05 11.568 10.385 5.137 14.84-4.561 3.158-14.105-.695-14.072-5.681.019-4.25 3.364-8.297 7.414-9.018a8.361 8.361 0 0 1 1.521-.141zm21.351.869c2.336-.007 3.675 3.416 3.656 10.19-.02 9.716-3.475 18.182-9.421 23.131-8.605 7.163-10.527-12.361-2.484-25.274 3.351-5.378 6.185-8.043 8.249-8.047zm550.601 2.568c2.115-.033 1.785 1.588-.667 3.296-1.909 1.324-5.144 3.978-15.166 12.435-1.818 1.534-4.425 3.537-5.784 4.448-3.338 2.237-6.166 1.655-4.548-.931 1.591-2.544 24.256-19.218 26.165-19.248zm-504.217.445c7.259 0 13.16 5.879 13.16 13.142 0 7.265-5.901 13.163-13.16 13.163-7.266 0-13.167-5.898-13.167-13.163 0-7.263 5.901-13.142 13.167-13.142zm0 4.772a8.37 8.37 0 1 0 0 16.741c4.619 0 8.365-3.748 8.365-8.371 0-4.622-3.746-8.37-8.365-8.37zm-157.404.242c89.015 45.008 144.515 129.211 158.212 225.136l43.246-68.602 11.685 4.406-63.018 102.712-2.73-.848c-.266-100.343-50.279-195.267-147.602-247.356zm157.404 3.437a4.693 4.693 0 0 1 4.69 4.691 4.692 4.692 0 0 1-4.69 4.691 4.689 4.689 0 0 1-4.691-4.691 4.69 4.69 0 0 1 4.691-4.691zm-36.737.546c3.888 8.609 8.631 17.64 15.948 27.963-7.421-6.973-15.534-6.672-23.576-7.724zm105.843 1.86c1.385-.067 2.763.516 3.843 2.002 3.637 5.004 4.309 9.645 1.78 12.152-3.475 3.432-8.994 2.075-11.485-2.811-2.594-5.082 1.715-11.141 5.862-11.343zm436.566 6.956l.143 7.784s-1.663 1.996-3.417 3.639c-4.962 4.642-11.749 12.043-12.234 13.932-1.573 6.138 4.496 8.391 10.475 3.882a307.522 307.522 0 0 0 5.033-3.923v9.584c-5.046 4.289-10.08 8.506-16.964 7.117-4.012-1.225-7.538-4.381-8.269-8.411-2.873-12.075 8.819-18.814 17.896-26.892 2.925-2.607 7.337-6.712 7.337-6.712zm-487.136 6.793c.227-.011.44 0 .667 0 7.266 0 13.166 5.878 13.166 13.143 0 7.264-5.9 13.162-13.166 13.162-7.26 0-13.16-5.898-13.16-13.162 0-7.038 5.545-12.791 12.493-13.143zm264.302 2.953c7.175-.029 10.973 9.631 5.195 15.103-2.265 2.151-7.389 3.678-10.287 1.658-7.997-5.571-2.11-16.395 5.092-16.761zm-14.312 7.662c4.147 4.403 7.292 17.194 4.852 19.613-5.415 5.584-21.131-12.992-20.193-25.131 1.67-7.28 13.801 3.89 15.341 5.518zm-192.361-6.975c3.002.016 3.565 2.714 2.886 4.306-.647 1.517-2.996 1.638-4.872.87-3.184-1.306-1.689-5.196 1.986-5.176zm-56.962 1.132c-4.62 0-8.366 3.747-8.366 8.371a8.368 8.368 0 0 0 8.366 8.37 8.37 8.37 0 0 0 8.372-8.37 8.37 8.37 0 0 0-8.372-8.371zm-62.656 3.68c15.877.019 32.622 12.522 18.058 15.002-10.818 1.841-17.825-.296-26.249-7.986-4.277-3.908-2.75-5.984 5.033-6.854a28.147 28.147 0 0 1 3.158-.162zm62.656 0a4.69 4.69 0 0 1 4.691 4.691 4.69 4.69 0 1 1-9.382 0 4.693 4.693 0 0 1 4.691-4.691zm21.978 11.909c.227-.012.466 0 .693 0 7.259 0 13.16 5.879 13.16 13.142 0 7.264-5.901 13.162-13.16 13.162-7.266 0-13.167-5.898-13.167-13.162 0-7.036 5.526-12.791 12.474-13.142zm258.66.667c3.759-.063 7.052.642 8.961 2.386 2.329 2.132-1.171 6.224-8.314 9.705-8.34 4.067-22.885 3.5-22.865-.89.032-5.839 12.623-11.04 22.218-11.201zm-316.87 3.457c7.298.039 9.271 22.664 2.937 33.503-3.293 5.624-7.719 1.865-10.883-9.24-2.594-9.107 2.388-24.293 7.946-24.263zm58.903.647a8.37 8.37 0 0 0-8.372 8.371 8.37 8.37 0 1 0 16.738 0c0-4.622-3.747-8.371-8.366-8.371zm272.731 1.476c.615.011 1.404.32 2.446.829 7.965 3.912 13.755 22.167 9.602 30.308-4.368 8.572-14.196-7.927-14.111-23.696.025-5.157.362-7.234 1.798-7.421.084-.009.175-.022.265-.02zm-352.313 1.173c.168-.007.337-.006.505 0 7.201.177 12.435 10.134 5.661 15.245-2.97 2.237-7.531 2.591-10.332.809-5.526-3.511-5.222-12.056.524-15.043 1.229-.639 2.458-.963 3.642-1.011zm79.582 1.031a4.688 4.688 0 0 1 4.684 4.691 4.687 4.687 0 0 1-4.684 4.691 4.694 4.694 0 0 1-4.697-4.691 4.695 4.695 0 0 1 4.697-4.691zm-49.173 1.577c3.941 5.865 19.909 21.349 22.115 22.686-7.052-2.283-14.312-1.315-21.571-.344.815-5.36 1.682-14.153-.544-22.342zm256.596 1.335c108.231 25.334 174.303 140.182 148.183 247.921 0 0-9.116-5.085-10.552-7.518 3.823-18.647 6.185-48.169 1.391-77.867-8.127-50.363-48.953-124.267-138.395-149.616-.989-3.257-.627-12.92-.627-12.92zm58.321.789c1.223 7.367 2.4 14.792 4.218 21.421-7.621-5.478-16.259-10.185-25.103-13.988 6.314-1.328 12.079-2.446 20.885-7.433zm31.205 2.365c4.309-.112 8.689 2.96 8.592 8.27-.039 2.337-2.53 6.534-4.464 7.521-7.195 3.671-14.577-3.32-11.407-10.797 1.423-3.354 4.335-4.917 7.279-4.994zm-271.923 2.851c7.266 0 13.166 5.877 13.166 13.142s-5.9 13.163-13.166 13.163c-7.259 0-13.16-5.898-13.16-13.163s5.901-13.142 13.16-13.142zm0 4.772c-4.62 0-8.372 3.747-8.372 8.37s3.752 8.371 8.372 8.371c4.626 0 8.372-3.748 8.372-8.371s-3.746-8.37-8.372-8.37zM133.94 628.84c53.779 31.741 102.02 99.244 105.598 175.584l-13.018-8.515c-5.609-51.417-31.929-107.364-93.007-153.219 0 0 .156-4.938.427-13.85zm297.804 0h69.507v14.982l20.847-10.736v33.138l-20.847-12.616v14.457h-69.507V652.86l-21.293 10.291.245-32.976 21.048 11.828zm-73.843 2.426c2.588 0 4.691 2.101 4.691 4.691s-2.103 4.691-4.691 4.691-4.691-2.101-4.691-4.691 2.103-4.691 4.691-4.691zm27.336 2.629c.084-.007.181 0 .265 0l.828 4.772c-.136-.007-.265-.021-.401-.021-4.626 0-8.372 3.748-8.372 8.371s3.746 8.37 8.372 8.37a8.336 8.336 0 0 0 3.151-.606l.809 4.792a13.057 13.057 0 0 1-3.96.607c-7.266 0-13.166-5.899-13.166-13.163 0-7.038 5.525-12.771 12.474-13.122zm157.021 1.658c.233-.009.46 0 .686 0 7.266 0 13.167 5.878 13.167 13.142 0 6.239-4.361 11.446-10.191 12.799l-.789-4.732c3.559-.963 6.185-4.202 6.185-8.067a8.37 8.37 0 0 0-8.935-8.351l-.809-4.731c.22-.023.453-.051.686-.06zm92.302 4.448c16.227.088 22.969 9.407 9.66 13.364-6.16 1.835-14.228.861-22.199-2.669-6.645-2.942 2.504-10.75 12.539-10.695zm-339.296.889c3.928-.014 7.726.59 10.534 1.921 6.787 3.215 6.631 5.399-.628 9.584-10.119 5.836-33.948-.071-26.747-6.632 3.384-3.082 10.3-4.849 16.841-4.873zm90.665 1.436c.356 0 .712.045 1.048.121l1.456 8.533a4.654 4.654 0 0 1-2.504.728 4.695 4.695 0 0 1-4.697-4.691 4.695 4.695 0 0 1 4.697-4.691zm157.054 1.678a4.692 4.692 0 0 1 4.652 4.691 4.672 4.672 0 0 1-3.132 4.408zm28.636 3.356c7.26 0 13.16 5.878 13.16 13.143 0 7.264-5.9 13.162-13.16 13.162-7.266 0-13.166-5.898-13.166-13.162 0-7.265 5.9-13.143 13.166-13.143zm-256.239 3.316c.783-.043 1.669.319 2.614 1.092 7.887 6.45 11.814 20.098 8.708 30.249-2.956 9.679-15.256-7.515-15.178-21.231.032-6.326 1.52-9.98 3.856-10.11zm340.79 1.153c1.087.009 2.238.836 3.377 2.729 4.898 8.156 4.678 25.001-.401 30.248-2.886 2.976-3.953 2.413-6.955-3.662-5.131-10.379-1.262-29.357 3.979-29.315zm-84.551.303c-4.626 0-8.372 3.748-8.372 8.371s3.746 8.37 8.372 8.37c4.62 0 8.366-3.747 8.366-8.37s-3.746-8.371-8.366-8.371zm-245.784 2.245c9.938 6.272 20.109 11.996 30.694 16.761-9.905-2.342-17.223.984-24.767 5.457 1.443-8.278-1.378-15.01-5.927-22.218zm298.632 1.771c7.408 1.046 14.745 2.259 23.331.644-1.586 7.282-2.142 14.702-1.443 22.288-6.393-8.27-13.516-16.031-21.888-22.932zm-52.848-.336a4.688 4.688 0 0 1 4.685 4.691 4.689 4.689 0 0 1-4.685 4.691 4.695 4.695 0 0 1-4.697-4.691 4.695 4.695 0 0 1 4.697-4.691zm-271.379 3.235c1.462.028 3.015.442 4.626 1.233 6.095 2.988 6.269 10.374.343 14.235-7.447 4.849-17.159-3.665-12.513-10.979 1.786-2.809 4.179-4.319 6.916-4.469.207-.011.414-.024.628-.02zm297.784 5.5c7.259 0 13.16 5.877 13.16 13.142 0 7.266-5.901 13.16-13.16 13.16-7.266 0-13.167-5.894-13.167-13.16 0-7.265 5.901-13.142 13.167-13.142zm76.993 2.203c1.268-.024 2.588.263 3.902.951 4.677 2.452 5.661 8.668 1.941 12.291-4.122 4.018-9.744 3.326-12.514-1.533-3.163-5.55 1.172-11.604 6.671-11.709zm-126.955 1.942c64.784 22.053 108.173 94.123 97.717 163.508l-8.088-7.641c6.16-39.319-15.437-114.449-87.591-145.292zm49.962.626a8.371 8.371 0 1 0 0 16.743c4.619 0 8.365-3.753 8.365-8.372 0-4.623-3.746-8.371-8.365-8.371zm0 3.68c2.588 0 4.69 2.103 4.69 4.691s-2.102 4.691-4.69 4.691c-2.595 0-4.691-2.103-4.691-4.691s2.096-4.691 4.691-4.691zm-246.328.829c3.306.291 8.884-.304 10.19 2.814 1.469 3.94-6.612 10.753-16.86 12.086-4.18.252-13.122 1.313-15.005-1.696-1.766-3.752 10.301-13.09 21.675-13.204zm-205.67 2.302c8.761-.381 18.634 11.336 9.77 20.892-7.097 7.337-21.616 17.346-21.616 17.346v-6.431s14.227-10.404 14.454-15.081c.032-5.442-4.445-8.509-9.44-5.241-.99.647-4.891 3.824-4.891 3.824l.323-10.78c2.646-2.898 7.318-4.347 11.4-4.529zm223.728 2.75c6.489.253 21.545 23.461 17.709 28.21-3.035 3.759-15.263-4.581-19.857-13.549-2.465-4.813-1.721-13.393 1.255-14.518.272-.104.57-.149.893-.143zm100.117 2.815s.673 53.999-2.361 59.097c-12.17 22.031-38.439 10.566-40.684-5.946-1.611-9.951-.647-53.054-.647-53.054zm3.844 0h41.977s-.187 76.01-1.882 80.371c-1.379 3.545-7.473 9.666-11.304 11.342-12.325 5.383-25.505-2.258-28.772-16.68-2.349-10.404-.019-75.033-.019-75.033zm45.497 0h27.86s.958 4.031 2.057 7.337c1.935 5.777 8.509 22.341 9.266 23.35 3.403 4.549 3.571 54.232.2 59.893-12.286 18.427-32.738 13.063-40.218-7.343-1.869-6.535.835-83.237.835-83.237zm32.486 1.876c49.975 23.739 88.213 74.063 83.425 138.647l-9.181-9.162c3.351-44.572-30.578-100.286-70.174-116.849zm68.809 1.52c7.259 0 13.16 5.875 13.16 13.141s-5.901 13.16-13.16 13.16c-7.266 0-13.167-5.894-13.167-13.16s5.901-13.141 13.167-13.141zm49.289 1.333c4.891.071 10.863 1.76 15.327 5.442 5.338 4.399 6.082 7.88 1.941 9.155-7.997 2.465-17.605.077-23.635-5.862-5.603-5.519-.77-8.838 6.367-8.735zm-49.289 3.436a8.373 8.373 0 0 0 0 16.744c4.62 0 8.372-3.752 8.372-8.372 0-4.619-3.752-8.372-8.372-8.372zm-263.292 1.055c7.014.038 10.229 9.905 4.853 14.9-2.207 2.045-8.217 2.485-10.838.789-7.201-4.677-2.982-15.741 5.985-15.689zm92.664 2.503c-2.323 6.671-6.049 14.202-9.142 19.352-8.269 13.794-7.195 23.047 1.54 27.718 12.823 6.865 22.147-11.556 9.504-18.783-4.438-2.529-4.438-2.562-2.834-9.401 2-8.527 2.349-18.704.932-18.886zm170.628.123c2.588 0 4.691 2.103 4.691 4.691s-2.103 4.691-4.691 4.691c-2.595 0-4.691-2.103-4.691-4.691s2.096-4.691 4.691-4.691zm-125.642 2.711c-.589-.039-.136 3.391-.181 9.479-.071 9.834-.893 12.824-7.175 26.003-8.03 16.835-6.956 28.339 2.989 32.066 7.725 2.898 15.237-3.009 15.282-12.028.026-4.296-1.889-7.661-4.826-8.534-2.666-.168-5.61-1.411-5.403-2.685 1.631-10.055 10.339-28.986-.686-44.301zm165.996 1.353c6.496 4.089 13.179 7.964 22.845 8.449-4.115 9.88-3.694 17.101-4.386 24.975-4.135-10.611-10.521-22.341-18.459-33.424zm-495.606 1.539a10.56 10.56 0 0 1 1.56.097c6.211.971 11.452 8.923 9.782 14.843-1.455 5.169-1.908 6.043-21.894 19.39-11.09 7.409-12.254 7.726-12.254 7.726l-5.94-4.005s5.027-3.358 12.998-8.715c15.334-10.307 17.592-12.766 16.014-17.366-1.715-5.008-7.454-3.953-16.518 3.028-13.426 10.339-14.823 11.025-14.823 11.025v-6.173s5.888-4.677 8.43-6.871c6.224-4.425 14.823-12.901 22.645-12.979zm397.119 2.685c1.507-.012 2.672 1.392 2.148 2.731-.253.64-1.139 1.061-2.31 1.054-2.407-.012-2.536-3.435-.142-3.765.103-.013.207-.02.304-.02zm134.764 7.176c2.834 9.731-3.267 25.951-7.007 28.028-3.979 3.934-6.47.181-7.33-10.009.019-8.262 9.485-34.091 14.337-18.019zm-159.79-5.454c1.216 14.014 1.656 25.653-4.918 37.04-8.521 14.759-6.308 27.414 2.815 30.209 9.084 2.776 17.113-3.72 15.502-12.558-.485-2.705-4.206-7.124-6.47-7.706-2.789-.712-3.125-2.446-1.533-8.003 3.079-10.767 2.044-24.399-2.608-34.253-.427-1.469-2.135-4.781-2.788-4.729zm30.57 4.671c7.661.039 11.278 10.003 5.539 15.263-3.196 2.931-5.228 1.604-8.573-5.577-3.106-6.665-2.148-9.718 3.034-9.686zm71.372 2.038c7.265 0 13.16 5.881 13.16 13.147 0 7.259-5.895 13.16-13.16 13.16-7.266 0-13.167-5.901-13.167-13.16 0-7.266 5.901-13.147 13.167-13.147zm0 4.775a8.37 8.37 0 0 0-8.373 8.372c0 4.62 3.746 8.366 8.373 8.366 4.619 0 8.372-3.746 8.372-8.366a8.374 8.374 0 0 0-8.372-8.372zm0 3.681a4.69 4.69 0 1 1 0 9.382 4.69 4.69 0 1 1 0-9.382zm-56.471 3.455c1.074-.045 2.122.136 3.093.608 6.929 3.352 6.172 12.947-1.476 18.679-4.846 3.63-6.89 2.375-11.406-6.994-2.446-5.079 3.979-12.053 9.789-12.293zm-401.874 1.094a8.404 8.404 0 0 1 2.006.304c7.143 1.967 11.672 10.3 9.886 16.634-3.94 9.77-17.288 13.063-27.42 17.146l-5.254-3.837s7.428-4.218 14.636-7.544c6.754-3.112 7.848-4.348 7.343-8.269-.99-7.66-4.691-7.382-21.474 1.657-6.832 3.681-11.847 6.936-11.847 6.936l-3.72-3.054c5.552-3.656 8.89-5.681 14.959-9.828 10.139-6.936 15.916-9.919 20.161-10.126.245-.013.491-.026.724-.019zm533.889 5.674c2.445 7.428-2.543 13.936-10.048 11.018-4.076-1.585-6.968-6.793-4.439-11.62 3.378-5.292 12.85-4.38 14.487.602zm-150.655-2.582l11.827 21.248s.155 5.914.259 9.2c.453 13.801 3.41 18.362 11.484 17.023.582-.09 3.462-.925 3.462-.925l5.13 8.65s-5.551 2.427-6.994 2.731c-9.511 1.999-22.677-5.15-24.728-14.7-1.98-9.239-.44-43.227-.44-43.227zm-387.478 8.735c3.571.259 2.051 2.989.401 3.882-6.942 3.539-13.509 7.382-20.762 11.562l-4.853-3.009s3.746-2.089 6.328-3.681c7.952-4.885 16.046-8.638 18.886-8.754zm475.347 2.73c7.26 0 13.161 5.875 13.161 13.141s-5.901 13.16-13.161 13.16c-7.265 0-13.166-5.894-13.166-13.16s5.901-13.141 13.166-13.141zm-55.687 1.799c3.028-.091 5.558 1.216 7.201 3.94 3.513 5.836-.207 12.966-8.735 16.764-4.762 2.122-5.557 1.682-10.636-5.842-3.429-5.092-3.41-6.005.388-9.24 4.251-3.629 8.353-5.525 11.782-5.622zm-461.935 1.152l188.498 122.063-5.377 9.136L134.788 752.34zm560.098 1.578c11.459.22 26.411 13.484 21.112 18.725-.563.556-1.65.97-2.426.925-16.35-.964-34.401-19.954-18.686-19.65zm-42.476.24a8.373 8.373 0 0 0 0 16.744c4.62 0 8.366-3.752 8.366-8.372s-3.746-8.372-8.366-8.372zm-251.749 2.329l4.995 12.979-93.816 149.354-9.219-5.92zm251.749 1.352c2.588 0 4.691 2.103 4.691 4.691s-2.103 4.691-4.691 4.691c-2.594 0-4.69-2.103-4.69-4.691s2.096-4.691 4.69-4.691zm34.453 1.559c4.594 8.541 12.242 13.775 20.944 17.45-8.211 6.774-12.351 15.567-12.028 24.767-2.083-13.807-3.888-27.53-8.916-42.217zm-495.948 4.51c2.006.013 3.824.434 5.254 1.411 17.579 12.047 1.436 23.965-.058 23.033l-5.985-3.785c2.057-3.41 6.729-8.036-.789-12.351-4.264-1.864-9.02.375-13.167 3.254l-6.282-4.309s12.312-7.318 21.027-7.253zm414.607 6.813a8.762 8.762 0 0 1 1.941.136c9.925 1.922 9.233 12.455-1.132 17.333-5.901 2.776-6.943 2.213-12.093-6.632-2.413-4.153 4.885-10.63 11.284-10.837zm-417.784 3.863c1.055.026 2.407.951 2.569 1.818.511 2.762-4.613 5.538-4.613 5.538l-5.881-3.901c2.51-1.385 5.143-3.261 7.925-3.455zm528.706 2.523c1.437-.11 2.485.569 2.912 2.284 2.006 8.185-7.078 23.357-15.47 25.822-4.898 1.436-6.315-.867-4.71-7.641 2.251-9.524 12.131-20.064 17.268-20.465zm-304.053.628l15.263 11.083-91.59 144.76-15.851-9.42zm249.239 1.171c7.26 0 13.16 5.881 13.16 13.147 0 7.259-5.9 13.16-13.16 13.16-7.266 0-13.166-5.901-13.166-13.16 0-7.266 5.9-13.147 13.166-13.147zm0 4.775a8.37 8.37 0 0 0-8.372 8.372c0 4.619 3.746 8.366 8.372 8.366 4.62 0 8.372-3.747 8.372-8.366a8.373 8.373 0 0 0-8.372-8.372zm0 3.675a4.695 4.695 0 0 1 4.691 4.697 4.689 4.689 0 0 1-4.691 4.684 4.685 4.685 0 0 1-4.691-4.684 4.691 4.691 0 0 1 4.691-4.697zm-210.457.491c9.931 11.2 21.105 36.265 60.087 24.444 13.283 10.818 31.626 16.977 54.225 4.969l.162 67.534-173.093.182zm-316.146 1.715l170.466 112.197-5.338 9.42-165.29-105.643zm478.563.103c.162 0 .304.007.421.039 8.715 2.135 9.698 10.844 1.598 14.176-4.335 1.779-5.221 1.339-9.362-4.755-1.65-2.427-2.582-4.445-2.342-5.054.582-1.488 7.246-4.438 9.685-4.406zm109.383 9.22c3.047.02 6.082 1.631 7.498 4.814 2.136 4.768.906 8.773-3.493 11.419-7.286 4.387-15.431-3.668-11.646-11.523 1.514-3.157 4.593-4.736 7.641-4.71zm-106.737 9.155c4.018.026 7.396 3.863 5.442 6.192-1.301 1.546-2.964 1.1-5.099-1.359-2.504-2.879-2.646-4.846-.343-4.833zm48.869 1.682c7.266 0 13.166 5.875 13.166 13.141s-5.9 13.16-13.166 13.16c-7.26 0-13.16-5.894-13.16-13.16s5.9-13.141 13.16-13.141zm37.079.725c9.926.058 23.668 16.628 21.332 25.719-.757 2.969-6.321 1.365-12.94-3.721-8.935-6.871-14.719-22.03-8.392-21.998zm-37.079 4.044c-4.62 0-8.366 3.753-8.366 8.372 0 4.62 3.746 8.372 8.366 8.372a8.373 8.373 0 0 0 0-16.744zm31.884 1.702c2.743 8.022 5.545 16.375 17.916 22.179-19.197 8.941-22.859 24.004-19.973 43.31l-4.491-2.75c4.115-17.3 7.227-37.002 6.548-62.739zm-31.884 1.979c2.594 0 4.69 2.103 4.69 4.691a4.69 4.69 0 1 1-9.381 0 4.695 4.695 0 0 1 4.691-4.691zm-2.446 21.131c7.266 0 13.167 5.875 13.167 13.141 0 4.594-2.356 8.644-5.927 10.999l-4.244-3.177a8.387 8.387 0 0 0 5.376-7.822 8.37 8.37 0 0 0-8.372-8.372c-4.4 0-7.997 3.41-8.327 7.725l-4.27-3.196c1.65-5.383 6.67-9.298 12.597-9.298zm59.887 1.676c6.263.033-3.475 17.405-12.41 22.141-6.806 3.604-13.043 3.888-13.024.582.045-8.631 15.871-22.775 25.434-22.723zm-59.887 6.774c2.588 0 4.691 2.103 4.691 4.691s-2.103 4.691-4.691 4.691c-2.575-.278-4.658-2.303-4.691-4.691a4.695 4.695 0 0 1 4.691-4.691zm57.868 15.833c3.08.045 6.14 1.378 7.441 3.979 1.682 3.371 1.041 6.379-2.045 9.426-7.57 7.486-17.864-.2-12.921-9.646 1.346-2.562 4.439-3.805 7.525-3.759zm-24.204 7.052c10.546.33 18.523 13.445 16.621 20.866-1.676 1.967-13.283-6.839-14.538-7.745-1.482-2.627-1.572-6.878-2.083-13.121zm-14.377 8.133l33.043 19.85-32.959 21.17zm-294.18 9.821l177.461.647.019 7.46-182.332.104zm-7.24 11.666h11.931v14.538h-16.382v-8.023zm170.525.349h14.357v14.532h-14.357zm-140.866.097h16.337v14.538h-16.337zm33.987.123h17.65v14.538h-17.65zm36.116 0h16.984v14.538h-16.984zm36.271.246h16.175v14.532h-16.175zm-147.763 17.909l196.832.466v8.715l-202.448-.466zm167.943 18.362c20.038-.22 31.716 22.141 16.052 37.85-14.396 14.434-38.419-4.005-26.423-20.239 6.69-9.071 23.149-1.759 19.041 7.907-2.705 6.36-11.575 3.39-11.303-3.5.019-2.77-2.025-.874-2.265 2.064-.297 3.726 3.533 7.854 7.991 7.861 11.626.026 13.373-15.386 2.161-21.047-10.009-5.054-20.556 1.397-22.988 14.195-.266 1.397-1.915 4.891-3.177 7.356-3.701 7.434-4.898 11.73-6.748 20.219-.854 1.061-3.455 2.756-5.261 3.662-5.713 2.854-5.473 1.65-3.332-7.641 6.153-26.773 16.221-44.009 28.527-47.516 2.678-.763 5.26-1.145 7.725-1.171zm59.259 1.391c12.371-.265 21.694 9.932 23.318 17.806 7.111 23.958-24.696 38.632-35.786 16.925-6.191-12.409 6.639-27.213 18.395-21.448 9.621 4.723 9 19.404-.828 19.352-5.338.252-8.593-4.542-5.642-8.392 1.527-1.514 3.358-.33 4.121-2.872.324-1.061-1.19-1.909-4.833-1.171-6.03 1.229-5.422 13.393 1.579 15.812 10.423 3.611 19.339-7.382 14.376-18.258-5.965-13.07-22.115-13.128-29.503.55-1.068 1.986-2.75 4.826-3.675 6.082-11.019 14.952-11.886 17.191-15.166 25.518-.324.828-.906 1.442-1.902 1.332-3.035 0-6.011.66-8.049 1.456-1.372-.362.459-5.603.589-6.004 7.505-23.169 26.779-46.125 43.006-46.688zm-95.879 6.515c-2.608 4.549-10.469 19.339-15.91 41.182-1.437-.893-5.299-2.504-8.088-3.474-1.054-.369-.2-1.592-.265-3.442 1.986-9.854 8.353-27.071 15.366-35.844 1.495-1.094 11.071-1.443 8.897 1.578zm11.225 4.368c-6.722 8.579-13.742 31.379-15.204 43.142-.227 1.779-.544 3.746-.732 4.367-1.048 3.52-7.634-4.037-7.602-8.708.052-7.946 8.858-32.15 15.146-41.389 2.187-3.222 2.453-3.759 7.137-3.928 7.525-.187 4.218 2.731 1.255 6.516zm-328.659-5.662a23.211 23.211 0 0 0-4.936.647c-9.731 2.414-21.332 12.727-22.464 23.674-.531.33-1.857 7.984-1.01 11.866 3.216 14.694 11.789 24.658 22.283 39.225 0 0-13.179 20.43-22.218 29.87l21.39 30.95c-5.92 11.69-16.201 20.52-18.782 34.94-4.038 18.98 5.9 37.48 27.051 39.18 15.78.47 26.126-10.19 28.08-26.34.802-10.74-3.617-24.21-19.507-45.49-.79-1.06-2.323-3.24-2.323-3.24s1.779-2.1 2.724-3.5c5.59-7.56 20.16-26.04 20.16-26.04l-21.778-30.79s.945-2.07 2.634-4.37c17.773-24.237 21.079-36.562 17.934-48.609-1.242-4.743-4.192-8.392-8.191-12.449-6.463-6.56-13.858-9.698-21.047-9.524zm-.504 2.97c6.942-.103 14.104 2.679 19.915 8.754 13.354 13.975 12.17 25.796-5.177 51.638-3.81 5.67-7.544 11.91-7.544 11.91l21.901 30.25s-3.552 5.31-7.239 9.65c-10.016 11.76-15.613 20.21-15.613 20.21 3.792 5.83 9.958 12.05 13.833 19.05 4.672 7.93 7.46 15.83 8.288 23.07 1.747 15.22-8.145 31.43-25.071 31.82-16.421.11-28.928-13.57-28.572-30.75.162-7.66 3.326-14.74 7.182-21.63 3.934-7.02 13.16-20.67 13.16-20.67l-21.189-30.89 22.444-29.97s-16.324-19.983-21.331-34.392c-4.07-16.356 3.558-25.686 4.567-27.109 4.976-7.007 12.572-10.824 20.446-10.941zm472.429 1.702c12.604 14.363 19.423 34.906 22.341 52.562 1.184 7.253 1.398 19.628.369 20.968-1.986 2.58-6.47 1.19-6.192-1.92 2.278-24.903-24.528-42.734-47.736-31.942-17.896 8.32-27.459 27.672-22.988 51.742 8.437 45.38 46.507 78.64 72.264 124.16 9.123 15.42 11.284 24.1 11.219 23.79 0 0 3.378-9 11.045-21.81 18.355-33.71 43.284-55.46 61.827-89.19 8.702-15.83 14.234-31.48 15.166-45.63.175-32.911-31.962-57.723-57.059-40.436-9.938 6.108-18.33 17.897-19.656 27.626-.563 4.14-1.294 5.39-3.151 5.37-4.283-.02-4.342-1.64-.893-21.168 5.241-19.391 11.497-37.792 22.872-54.122zm-486.314 41.706c3.254 8.482 8.553 14.803 14.558 20.833 5.557-6.502 11.769-15.056 15.172-23.214 16.401-39.293-46.947-42.496-29.73 2.381zm14.318 16.971c-8.042-9.35-13.716-17.127-14.266-29.458-.88-24.425 31.049-21.682 29.464.155-1.779 11.892-8.029 19.41-15.198 29.303zm395.753-38.4c.615 3.435 3.966 9.259 3.682 10.637-1.553 3.603-3.824 5.402-6.975 11.342-.666 1.261-.356 1.527-2.122 1.21-1.669-.233-4.587-1.146-6.147-1.599-.893-.258-1.921-.744-1.501-1.876 3.028-6.968 6.425-15.269 13.063-19.714zm-52.931 10.514l-3.759 9.744c-.356 1.048-.395 1.216-1.495.99-2.141-.272-4.018-.44-6.153-.285-4.658-.57 4.115-17.98 5.435-20.614 1.909.317 4.723 7.758 5.972 10.165zm3.539 2.245a.956.956 0 0 1 .239 0c1.915.246 4.762 1.281 6.878 2.2 1.165.485 1.197.517.686 1.967-1.081 2.141-2.401 8.326-3.824 10.487-.039.318-6.638-3.92-8.515-4.736-.071-1.177 2.09-9.588 4.536-9.918zm55.946 1.151c2.181.078 4.872 2.058 6.348 3.197.692 1.365.058 2.743-2.368 6.936-2.149 3.7-4.387 7.705-4.931 7.272-1.63-1.275-4.652-2.931-6.146-4.988-1.12-1.54 1.003-5.461 2.445-7.603 2.271-3.39 3.365-4.613 4.652-4.814zm-35.585-.491c2.019.446-1.184 10.837-1.786 12.138-1.902 2.853-4.871 6.612-7.233 8.126-1.21.776-4.917-1.443-4.833-4.044.058-1.844 3.591-11.154 4.768-13.626.168-.362 6.82-2.555 9.084-2.594zm-82.312 3.966c.453-.013.9-.007 1.353.019 7.925-.226 16.078 3.682 21.208 12.416 2.427 4.135 2.459 4.309 1.903 8.172-1.314 9.071-.854 15.171 1.533 20.721 2.724 6.33 2.316 8.5-4.348 22.59-6.683 14.18-14.797 31.44-20.963 47.45-2.737 6.86-5.247 14.63-6.813 20.99-1.035 4-5.913 2.8-10.779 2.61-2.471.53 3.572-16.11 12.52-36 7.162-15.91 16.906-33.85 20.788-51.67 3.17-14.52 2.154-20.49.42-26.594-6.709-17.747-30.04-13.393-29.988 2.957.504 10.587 12.759 16.267 17.249 5.877.75-4.771-1.605-1.99-3.578.33-4.231 4.97-11.471-.56-10.333-7.889 1.495-9.628 13.924-12.792 19.935-5.176 6.58 8.339 5.137 16.945-4.368 23.395-9.789 7.2-18.705 3.11-23.596-4.37-10.436-16.774 3.837-35.388 17.857-35.828zm48.422 7.039c9.718.201 20.271 8.347 21.979 14.797.912 4.372-.492 9.522 1.067 13.752 1.307 3.39 2.556 5.34 1.618 8.35-7.997 25.74-26.877 53.19-36.206 83.66-1.081 2.13-2.064 2.39-4.471 3.08-3.727 1.06-5.189.95-5.584-.99-.369-1.86.88-5.37 3.054-11.97 2.614-7.9 8.385-21.44 11.769-27.8 7.893-14.83 12.287-24.97 18.019-37.63 1.068-2.37 1.372-3.77 3.047-7.18 7.227-14.64-.931-29.069-15.89-29.153-11.847-.065-17.146 18.493-6.774 23.923 10.145 5.3 17.715-8.63 8.696-13.57-2.181-1.191-2.737-.05-.99 2.04 4.018 4.83.414 11.32-5.176 8.74-8.657-4-4.199-18.752 5.9-17.898 15.593 1.313 17.625 23.998 1.721 29.738-21.862 7.91-33.333-27.292-12.759-39.139 3.417-1.967 7.215-2.814 10.98-2.75zm46.06.706c5.752-.143 11.795 1.908 16.758 6.677 12.228 11.736 8.974 29.856-11.685 64.906-6.761 11.74-13.361 25.84-16.965 36.14-.892 2.57-1.643 3.88-3.681 5-3.578 1.98-7.641 2.22-8.165.83-1.346-3.56 8.89-25.7 27.116-60.48 4.788-9.26 10.837-20.02 10.533-31.06-1.203-8.75-8.482-15.052-18.239-12.185-6.561 1.928-9.246 11.185-4.406 15.855 2.018 1.94 4.503 2.97 6.101 2.8 3.028.1 6.464-2.89.608-3.21-6.185-.03-8.301-7.811-3.073-11.324 7.512-5.04 16.136.906 15.528 10.724-1.255 19.73-30.066 16.79-30.83-3.54-.472-12.58 9.414-20.855 20.4-21.133zm285.672 8.534c7.143 5.059 12.28 14.289 13.484 23.109.381 2.73.737 5.51-.44 6.13-1.45.76-2.465-.36-5.442-4.29-6.935-9.15-20.652-5.25-25.252 7.3-4.38 11.95.149 25.37 18.556 52.06 6.625 9.88 12.442 18.07 17.915 27.75 3.882-9.64 10.463-20 16.079-28.56 21.027-31.84 24.883-48.39 13.444-59.06-7.356-6.69-18.989-6.9-22.93 1.66-2.678 3.53-4.276 5.22-5.396 3.1-.491-.93-.44-3.75-.123-5.82 1.993-10.12 5.293-16.748 12.578-23.379zm-367.097 23.069c4.361-.33-3.138 23.13-16.233 49.45-7.143 14.59-12.559 30.25-18.117 45.5-1.507 2.04-10.533 2.41-10.513.3 16.013-51.3 27.323-60.14 32.796-79.68.951-3.38 1.65-8.26 1.779-8.68 4.044-1.15 7.454-6 10.288-6.89zm-296.406 3.46l-16.964 22.12 16.557 23.49 17.21-22.46zm367.337 6.83c-.013 2.65-5.098 15.41-8.896 23.07-16.615 33.54-20.75 42.58-23.616 51.52-.518 1.61-1.359 2.68-2.407 3.07-2.07.78-7.829 1.88-8.307 1.09 3.513-19.59 30.409-64.19 35.624-83.73 2.089-.09 7.427 3.09 7.602 4.98zm13.302-2.04c1.126-.08 1.579.38 1.256 1.88-.525 2.43-3.423 8.15-8.47 18.08-14.001 27.51-21.338 43.8-23.68 52.18-.55 1.96-.887 3.5-1.818 4-1.928 1.03-8.657 3.74-8.981.81 2.103-12.43 10.301-20.52 31.484-72.38.99-1.7 1.857-2.54 2.788-2.69 2.608-.43 4.866-1.66 7.421-1.88zm-57.421 8.52c-.531 3.2-4.206 9.9-10.268 22.29-10.094 20.62-16.628 35.98-20.588 49.6-.64 2.21-1.52 4.54-2.381 5.14-1.643 1.13-9 .78-9 .78-1.113-5.63 7.764-26.65 17.651-48.74 5.376-12.03 11.613-24 15.799-34.78 2.867.43 8.392 3.18 8.787 5.71zm14.978-5.31c2.989-.03.666 5-6.503 19.17-5.823 11.5-15.101 27.63-21.092 46.16-1.566 4.08-3.403 9.15-4.082 11.28-.88 2.75-1.702 4.11-2.834 4.67-2.161 1.08-7.389 1.02-8.308-.1-1.462-1.78 6.283-22.64 13.827-38.66 6.664-13.45 11.355-24.27 17.106-36.71 1.579-2.48 1.644-2.65 3.242-2.96 3.332-.27 6.774-2.5 8.644-2.85zm-337.911 2.67l8.735 11.69-10.255 12.76-8.534-12.42zm-1.32 50.41s-3.707 4.27-7.518 11.04c-11.161 18.58-11.465 32.29 1.695 40.44 5.558 2.82 12.798 2.2 17.372-1.78 14.907-13.01 3.824-30.87-5.804-42.99-2.555-3.56-5.745-6.71-5.745-6.71zm.55 4.75c5.59 6.59 9.679 11.55 13.406 19.84 4.283 11.13 1.533 19.88-6.755 23.99-13.102 6.51-25.019-8.09-18.802-23.67 4.607-11.55 12.151-20.16 12.151-20.16zm366.91 22c1.229 2.34-124.71 31.47-217.614 6.47l-56.535 81.81 326.375-.57zm-4.769 5.8s30.338 52.51 45.226 78.23h-20.924l-29.821-63.85c-15.955 4.44-31.684 7.66-47.639 9.68l10.618 54.17h-15.671l-8.857-51.76c-22.859 1.76-46.138 2.43-69.915 1.75l-10.256 50.01h-16.395l10.514-49.66c-18.045-2.43-36.012-4.73-54.348-7.74l-30.752 57.4h-23.15l48.26-72.04c72.05 14.46 138.491 11.05 213.11-6.19zm-11.406 28.19l23.654 50.04h-44.799l-8.255-44.64zm-191.818 3.64l39.163 5.07-10.106 41.33H317.91zm127.868 6.16l5.376 40.24H407.5l7.499-39.45z"/></g><path d="M872.258 1120.97c-14.364.05-29.537 7.77-33.84 24.33-1.513 5.26-1.519 5.27-1.572 52.14-.039 38.75-.365 48.09-.365 48.09h-13.242V1261h43.111v-15.47h-14.305s-.202-48.2-.202-78.59c-.593-7.88.124-14.82 2.223-19.64 7.622-17.57 34.46-13.73 37.694 1.26 1.93 8.94.847 11.28.978 18.99h14.937s.392-13.56-1.062-21.48c-1.963-17.66-17.201-25.52-32.967-25.08zM67.928 39.015v14.507h14.345s.339 13.987.469 43.686c.124 28.821.717 43.122-1.141 51.326-5.047 18.929-32.96 19.02-38.508 5.42-3.234-7.92-2.361-14.066-2.53-22.026h-15.42s.078 4.007.097 8.904c.085 21.297 7.27 31.453 24.066 35.474 17.266 4.576 37.439-2.397 44.625-16.892 4.283-8.258 3.788-8.803 3.886-58.722.071-33.318.593-47.17.593-47.17h13.204V39.015z"/></svg>