<svg clip-rule="evenodd" fill-rule="evenodd" stroke-linejoin="round" stroke-miterlimit="2" viewBox="0 0 934 1300" xmlns="http://www.w3.org/2000/svg"><g fill-rule="nonzero"><path d="M675.336 115.402l-341.93 1.662 43.421 82.259c88.867-7.992 166.747-.884 247.881 1.762zm-233.525 289.22c-.359.479-14.228 4.06-12.812 7.207 36.208 77.515 52.383 140.588 67.502 220.253 7.643-6.203 20.013-5.954 20.013-5.954-6.105-29.584 31.198-33.273 31.441-2.322 7.163 1.661 14.523 1.686 20.987 8.917 2.902-87.058 34.152-177.133 74.498-239.547-45.984 18.196-113.447 63.547-113.447 63.547s-56.144-23.184-88.182-52.101zm279.49 9.269c-61.199 58.081-85.151 219.312-80.757 221.535-78.886-2.632-102.794 84.307-34.414 131.186-2.703 9.093-9.379 16.49-14.555 24.524 7.053 4.037 14.754 4.899 22.441 5.746 5.836 6.916 11.576 14.897 17.918 15.554 6.881-4.332 11.768-10.673 17.496-16.155 7.149-1.818 14.241-3.831 21.018-6.927-6.002-8.38-13.126-16.853-13.312-24.704 59.45-41.899 51.295-98.876-2.3-128.044 15.965-95.952 39.251-157.246 66.285-200.834zm-421.47 74.132c-7.771 3.792-12.012 11.796-17.656 18.078-7.745.352-15.202 2.997-22.582 6.285 0 0 17.733 24.488 16.637 25.805-57.502 37.648-57.034 92.677-1.825 128.925 9.359 78.316-57.214 202.254-60.577 198.652l-.116 25.625c46.323-51.235 72.538-144.309 77.131-220.754 94.613-6.296 97.963-97.676 32.832-132.048-5.004-4.59 16.374-25.824 16.374-25.824-5.426-5.344-14.51-5.95-22.46-6.607-5.016-5.993-9.392-11.968-17.758-18.137zM700 551.264c13.383 29.746 62.249-6.499 70.731 9.329 6.88 8.976 21.871 9.896 21.057-5.225-2.819-14.976-12.678-18.296-51.807-11.771-14.849 2.474-20.935 3.94-20.846-2.823-10.269-12.392-19.071 4.464-19.135 10.49zm45.388 43.408c-10.974-.01-12.838 42.873-12.678 55.748-31.762 50.145 65.164 44.445 23.248-10.183 1.454-7.138-5.349-18.776-5.157-23.922-3.44-.438-4.945-19.8-5.413-21.643zm-558.787 25.779c-17.188.433-36.086 16.21-8.526 38.897 1.838.631-.929 5.415.019 12.773 7.771 16.756 5.669 41.567 11.454 37.756 6.682-4.405 12.268-22.916 10.827-48.767-.096-1.696-2.339-3.491-1.922-5.325 15.471-25.511 2.389-35.693-11.852-35.334zm175.889 48.047c-4.414 83.756-24.94 165.934-71.455 237.199 40.039-18.657 78.899-42.727 116.503-63.331l87.867 54.373c5.093-2.208 8.617-3.295 11.986-6.627-40.493-59.207-53.024-144.424-70.666-221.514-6.714 4.757-19.341 7.146-19.341 7.146-.903 26.739-28.956 35.405-34.683.532zm-212.084 65.343c-9.372.593-16.419 23.79 10.135 27.226 18.732 2.649 42.729-6.573 54.632-2.302 13.837 22.066 26.259-10.416 7.764-15.715-19.865-5.694-60.327 9.157-64.805-3.464-2.3-4.31-5.099-5.912-7.726-5.745zM309.78 1096.63l-53.012 93.61 338.933-2.04-44.305-89.29c.756-.99-148.028 17.69-241.616-2.28z" fill="#e2cf00"/><path d="M383.332 207.33l5.508 13.133c72.802-8.801 148.969-17.915 225.223 1.475 0 0 5.596-12.143 5.506-13.021-71.051-18.071-229.938-13.383-236.237-1.587zm73.673 184.437l69.274 44.807s33.181-23.438 47.318-33.355l-8.583-12.607c-29.296 64.58-80.799 13.506-100.109-16.88 0 0-5.249 11.77-7.9 18.035zm186.069 21.678c4.804-.101 7.464 1.748 9.873 6.634 2.726 5.517 3.77 4.157 2.017-2.723-2.765-10.849 8.761-17.908 19.617-10.666 7.835 5.231 7.493 17.886-1.071 20.23-6.918 1.894-7.103 3.708-1.02 3.413 10.903-.531 13.799 14.013 6.041 21.126-8.922 8.177-20.288 2.381-21.328-7.875-.478-2.9-1.092-2.859-2.049-1.217-2.75 4.733-3.006 10.885-2.471 16.454l-16.104-9.992c5.731-2.838 9.23-4.553 13.377-8.859.536-.562.947-.972.943-1.218-.006-.438-1.798.149-5.08.491-9.73 1.014-17.222-5.294-15.228-14.455 1.7-7.794 5.739-11.193 12.483-11.343zm-71.033 252.766c17.52-20.043 39.283-32.908 69.524-31.109 3.848-83.984 32.972-158.665 79.623-225.945l-51.318-30.849-20.591 12.419c-49.518 70.221-79.931 159.321-77.238 275.484zM187.399 469.965s-34.738 26.016-50.88 38.581l.781 231.576 4.488 1.537c.321.494-.396-3.433 1.667-5.23 1.683-1.468 4.349-3.134 5.93-3.71 4.467-1.625 4.661-4.601.498-7.174-3.233-1.997-4.463-5.083-4.095-10.212.261-3.619.109-4.41-1.4-6.867-1.877-3.055-2.036-6.918-.441-10.925.742-1.862.67-2.363-.647-4.876-1.687-3.201-1.884-6.649-.631-10.362.479-1.42.824-4.523.777-6.919-.166-9.223 7.446-15.342 21.513-17.271 5.499-.754 5.669-.98 3.142-5.591-14.243-26.014 17.761-39.569 20.154-35.405zm438.27 12.917c13.003-.189 23.693 10.179 23.882 23.179.189 12.998-10.195 23.693-23.199 23.882-12.996.188-23.693-10.2-23.882-23.199-.188-12.999 10.202-23.673 23.199-23.862zm.221 4.201c-10.402.151-18.71 8.702-18.558 19.11.151 10.408 8.703 18.734 19.106 18.583 10.409-.152 18.735-8.722 18.584-19.13-.152-10.408-8.723-18.714-19.132-18.563zm.491 5.979c7.059-.102 12.874 5.528 12.977 12.586.102 7.058-5.547 12.874-12.606 12.976-7.059.103-12.856-5.547-12.958-12.605-.103-7.058 5.528-12.854 12.587-12.957zm-467.26 9.67a9.393 9.393 0 0 1 3.005.456c5.87 1.865 7.919 7.029 4.741 11.925-2.494 3.845-2.207 4.174 2.158 2.551 3.435-1.276 5.19-.874 7.894 1.807 8.125 8.04-3.967 21.556-11.915 13.368-3.941-4.056-4.315-2.861-1.58 4.107.878 2.255 2.339 5.761 2.339 5.761l-11.657-.17s1.81-4.646 2.649-6.836c2.019-5.282 2.084-6.054-2.122-2.732-9.482 7.491-20.239-5.326-11.513-13.707 1.775-1.705 4.625-1.782 8.588-.225 2.887 1.134 3.234.345 1.068-2.378-4.719-5.925-.361-13.809 6.345-13.927zm241.578 20.753c-4.739 31.034-.602 74.585-.7 97.857 12.637 2.408 12.775 11.017 14.718 21.717 6.145-2.142 19.578 6.933 21.411 6.135 1.401-31.487-14.97-122.889-35.429-125.709zm209.706 31.102c17.941 1.439 14.503 15.295 9.159 20.987-2.533 2.919-2.066 4.232.716 2.552 7.577-4.578 13.59-1.271 16.03 6.615 4.174 13.471-13.532 25.077-21.434 12.985-2.674-4.097-4.313-3.171-3.655 1.116.399 4.132 4.438 12.691 4.438 12.691l-17.603-1.577s5.38-8.947 6.325-11.357c1.958-4.999.92-6.331-2.84-2.301-11.008 10.073-26.264-2.824-19.154-16.18 3.505-6.584 9.971-8.714 16.947-3.47 4.702 3.072 5.721 1.741 1.515-1.983-7.86-6.961-1.008-20.925 9.556-20.078zm-450.435 11c.205-.01.397-.013.602-.009 1.506.029 3.088.447 4.664 1.334 4.373 2.46 5.572 7.311 2.833 11.531-1.579 2.429-1.121 3.959.714 2.372 2.455-2.124 7.876-.712 9.987 2.598 5.429 8.501-5.18 19.625-11.952 12.547-2.986-3.125-4.129-3.251-3.785-1.199.972 3.851 3.509 10.422 3.509 10.422l-12.189.212s2.629-6.91 3.212-10.416c.453-2.775-.656-2.371-3.562.907-2.824 3.188-5.388 3.518-8.992 1.132-8.882-5.889-1.765-21.007 7.496-15.927 3.197 1.75 3.643.739 1.148-2.559-4.455-5.889.092-12.644 6.315-12.945zm632.965-5.399c-19.739 20.39-13.545 8.336-4.395 23.878.027 10.25 6.013 18.271 1.269 34.446-1.517 3.159-1.649 4.663-.815 7.843-1.451 17.868-15.761 17.64-29.681 20.412 2.304-.152 22.048 36.324-14.788 39.179l.423 148.284 57.755-42.581-.248-231.462zm-433.428 78.288c-16.37 10.553-39.379 36.924-68.312 31.194-3.5 92.517-33.86 164.14-77.173 225.694 14.954 8.841 31.413 19.45 46.709 26.256 12.928-6.672 20.192-9.449 32.879-19.893 52.067-80.429 68.576-168.353 65.897-263.251zm135.962 16.921c2.926 47.514 10.659 92.509 35.376 128.608l1.673-100.978c-8.808-2.109-16.028-7.802-18.595-23.947zm-178.626 28.03l16.509.39s-3.742 7.466-5.366 11.64c-1.97 5.101-1.032 6.14 2.729 2.595 4.904-4.615 12.714-5.043 16.823-.926 10.916 10.934-.498 28.754-13.406 20.937-5.527-3.346-6.452-2.224-2.065 2.513 8.527 7.917-.38 19.316-10.348 19.365-7.208-.029-11.879-5.793-12.452-12.142-.276-3.995 1.736-8.003 5.199-9.951 3.616-2.031 1.028-3.351-2.901-1.239-12.823 6.897-21.396-10.817-11.727-20.897 5.579-5.813 11.481-5.271 17.155.277 3.958 3.873 5.375 3.529 4.258-1.053-1.125-5.158-4.408-11.509-4.408-11.509zm445.825 13.905l11.833.014c-1.161 2.928-2.669 5.913-3.613 8.808-1.018 3.153-.269 3.555 2.865.506 8.159-5.477 16.856.002 15.086 8.677-1.22 5.985-6.233 8.92-12.018 6.321-5.107-2.292-3.465-1.31-.564 2.182 3.45 4.154 2.572 9.001-1.994 12.21-8.074 5.677-18.737-3.755-13.392-11.987 3.152-4.895 1.705-4.364-1.163-1.996-4.304 3.149-10.814-1.309-10.943-7.49-.494-8.891 8.48-13.894 14.805-7.603 3.016 2.537 3.768 2.227 2.407-1.463-1.25-2.681-1.65-5.552-3.309-8.179zm.638 64.661l12.401-.141s-.178.948-2.086 4.537c-2.246 4.218-1.9 8.581.44 5.62 3.957-4.998 12.364-3.606 15.118 2.503 3.204 7.118-3.05 14.98-9.539 11.991-4.218-1.943-4.506-1.524-1.705 2.528 2.728 3.942 1.517 8.785-2.914 11.615-8.709 5.558-19.153-5.539-11.895-12.641 1.939-1.902 1.33-2.828-1.028-1.547-9.611 5.225-16.7-7.767-8.392-15.375 3.541-3.239 6.247-3.017 12.072 1.006 1.812 1.252 2.159-.038.85-3.216-2.225-5.414-3.322-6.88-3.322-6.88zm-460.4 7.779c13.804-.201 25.144 10.816 25.344 24.618.201 13.803-10.814 25.165-24.618 25.365s-25.163-10.836-25.364-24.639c-.2-13.802 10.834-25.144 24.638-25.344zm.289 4.46c-11.344.165-20.409 9.477-20.244 20.816.164 11.34 9.496 20.405 20.84 20.24 11.338-.165 20.403-9.497 20.238-20.836-.165-11.34-9.496-20.384-20.834-20.22zm.23 7.886c6.982-.102 12.714 5.467 12.815 12.447s-5.466 12.733-12.448 12.834c-6.976.101-12.733-5.486-12.835-12.467-.101-6.98 5.492-12.713 12.468-12.814zm-31.418 60.556l14.429 7.053s-6.82 5.552-9.533 8.412c-3.471 3.685-3.234 5.41 1.456 3.648 8.933-3.362 17.88 1.672 18.053 10.946.218 12.379-14.418 18.337-21.448 8.964-2.091-2.787-4.587-3.946-3.612-1.67 2.38 5.54.925 12.517-3.217 15.384-3.318 2.295-9.394 2.969-12.454 1.382-10.536-5.459-11.083-17.596-1.005-22.39 5.059-2.41 5.231-4.668.245-3.427-10.367 2.585-16.418-9.967-8.938-18.59 7.94-9.152 20.883-7.259 22.316 6.283.253 2.409 1.9.666 2.628-3.024.883-2.742 1.08-12.971 1.08-12.971zm134.494 20.36s-52.836 30.064-51.222 31.332c.31.184 11.71 16.222 11.71 16.222 26.213-59.392 88.99-10.205 99.041 20.121 2.185 1.339 2.558.956 4.924 2.023.225-2.143 4.584-23.208 4.584-23.208zm-84.73 218.366c-2.643 3.32-11.502 12.72-10.382 13.06 77.644 16.7 157.723 15.37 239.237 6.53l-6.217-19.58c-80.493 20.51-222.638-.01-222.638-.01z" fill="#d40000"/><path d="M125.724 107.631l4.758 1091.609 681.424-2.4-4.081-1090.524zm207.241 7.777l339.858-1.388c-15.935 41.385-61.839 106.769-59.671 106.925-70.697-11.681-143.571-17.576-225.07-.168zM133.59 118.07l190.722-.247 62.9 112.748s3.697 7.035 1.491 14.398c-2.408 8.033-4.477 11.599-6.647 15.699.216-2.339-18.122-4.659-16.587 11.045 1.039 10.629 14.491 16.641 24.506 8.371 1.6-.134 1.589 1.351 1.243 3.946-.931 6.09-7.396 25.416-11.83 26.699-22.584-18.516-30.64 15.298-15.416 22.04 8.815 3.903 22.37.677 28.706-9.919 4.848-8.105 4.31-6.766 5.837 3.071.572 3.658 1.37 7.898 1.789 9.805 1.291 5.962.001 7.118-10.038 9.824-8.072 3.145-16.26 4.882-24.589 6.684-15.218 2.496-23.002 13.977-23.382 27.949-.078 3.02.025 4.417-.622 5.314-64.392 24.44-132.821 58.639-204.601 117.035zm432.411 267.714c-2.44-3.945-10.237-24.656-12.381-33.296-5.586-41.895-6.648-91.626-12.622-130.624l7.868.882s2.963 11.292 6.142 41.797c1.578 15.122 3.226 46.558 4.538 61.011 1.991 21.473 11.69 55.811 17.703 64.479 9.803 14.136 29.506 4.992 22.919-11.793-3.419-8.709-16.661-7.298-14.825 1.739.029 1.611 1.258-1.153 3.194-2.851 5.721-2.168 12.164 3.787 8.802 10.958-4.173 9.154-16.516 4.976-20.61-6.562-4.891-13.784 11.585-24.117 23.919-15.711 13.731 9.364 13.762 33.105 2.697 40.597-18.616 6.789-31.268-6.773-37.344-20.626zm46.018 17.464c-.75-.443.024-1.886.948-5.313 3.44-12.812 1.27-22.81-7.016-32.233-4.619-5.249-6.355-6.171-3.941-7.123 5.128-2.018 16.46 6.208 19.575 14.296 3.069 7.941 3.842 16.154-.487 25.132-3.009 1.926-7.687 5.789-9.079 5.241zm14.029-8.533c-.015-1.499.992-6.227 1.228-8.54.895-8.939-3.286-18.016-10.68-25.112-6.211-5.955-6.778-6.569-.904-6.667 15.155-.256 24.813 24.24 17.826 36.309-1.805 1.912-7.296 5.826-7.47 4.01zm12.828-8.29c4.463-20.884-15.735-34.803-16.142-34.152 1.009-4.679 9.024-1.989 11.761-.168 10.209 6.856 16.082 24.774 9.817 34.959-.687 1.251-1.522 1.968-2.627 2.643-2.102 1.322-3.348 2.386-3.772 1.459-.33-.702.843-3.742.963-4.741zm-177.705-67.752c2.11-2.072 2.743-2.131 6.802-.599 12.704 4.797 22.855-4.32 19.858-13.903-1.088-3.471-5.846-7.238-8.778-7.541-4.787-.497-4.885 2.031.275 3.96 6.346 2.369 6.981 9.097 1.4 12.132-6.554 4.428-17.295-6.809-25.174-5.861-3.764 1.125-6.173 4.646-4.022 8.948 1.678 3.017 7.342 4.844 9.639 2.864zm-14.096-1.373c-4.405-2.046-6.083-2.007-5.243-6.816.556-3.165 5.071-24.466 7.213-32.699 6.427-24.657.392-38.325-17.807-43.836-12.336-3.736-22.951-1.843-35.513 4.839l-2.267-6.971c52.682-13.78 142.576-10.723 142.257-10.19 1.775 7.089 2.449 14.18 3.147 21.27 0 0-16.848-8.263-25.633-11.012-13.534-4.15-34.931.401-38.72 8.17-2.153 4.405-1.034 7.343 8.063 2.446 14.882-8.016 45.288-1.908 56.002 6.59 2.47 1.958 2.341 2.386 2.388 4.682.076 3.501.278 3.706-4.591 1.1-25.554-13.061-47.386-11.546-54.915 5.601-1.738-.524-8.36-1.664-8.36-1.664l7.111 10.519 1.352 11.009s11.626 6.448 18.034 9.178c6.304 2.673 2.675-.171-5.066-5.558-5.682-3.955-1.165-5.222 2.586-3.708 7.714 1.769 18.984 4.015 32.037-4.269 4.05-2.574 13.327-.341 13.472.824 0 0 1.236 9.627 2.463 29.717.58 9.503 1.753 21.918 2.417 27.014 2.005 15.396 2.581 16.272-5.516 8.89-2.72-2.478-7.252-6.586-7.299-6.341-1.033 4.774 10.922 13.161 13.706 16.038 4.222 4.368 7.613 15.548 5.919 16.212-1.071.419-12.423-9.21-21.358-17.87-3.353-3.244-8.336-7.593-8.482-7.445-1.846 1.231 5.658 9.701 12.688 16.034 8.199 7.389 9.151 8.051 6.393 9.165-5.089 2.056-9.669-.502-22.029-10.72-1.206-.995-5.887-4.315-6.107-4.076-1.132 1.504 10.276 12.299 12.865 13.227 4.811 1.724 6.191 6.371 2.399 8.194-2.532 1.217-11.967-3.954-19.533-10.508-1.356-1.174-5.12-3.173-5.366-2.905-1.498.965 6.956 8.278 15.029 13.137 7.898 4.756 9.158 5.931 7.146 9.886-1.876 4.073-19.215-5.358-27.89-15.071-1.843-2.067-3.298-2.957-2.935-2.26 3.778 10.469 16.208 17.971 25.458 20.958 1.648.541 4.041 1.207 5.123 2.064 2.632 2.092 2.048 4.269-.804 5.495-9.865 2.766-25.415-9.176-36.54-21.687-1.289-.533-.515 1.104-.181 1.645 9.281 14.807 27.051 26.073 37.752 23.971 6.254-1.23 11.279.653 11.328 2.752.038 1.72-3.407 4.461-10.14 4.94-15.22 1.085-38.994-15.566-52.904-36.771-.439-.661-.949-.905-.981-.503-.383 4.494 8.266 15.518 14.899 21.823 19.71 18.735 38.344 25.067 52.881 14.512 8.192-6.35 16.114-20.235 3.906-24.874-6.468-2.457-10.555 6.441-5.024 3.902 7.266-.874 8.91 2.979 7.97 6.6-1.851 6.219-8.013 7.208-13.023 4.593-8.724-4.722-6.87-20.909 4.416-23.737 10.177-2.456 19.048 6.167 20.217 14.347 1.812 12.707-12.526 26.458-24.021 29.878-39.214 11.667-69.842-42.819-70.02-44.051-1.964-3.786-4.332-5.79-5.824-1.377-1.605 6.39-10.457 25.131-15.186 25.018 1.473-6.611 7.674-17.724 6.168-27.459-2.613 7.994-8.132 25.052-18.693 34.137-2.732 2.492-10.768 5.428-5.236-.986 6.674-9.381 15.406-22.208 13.598-34.253-1.774 2.706-2.738 9.559-4.761 14.084-5.07 11.328-16.144 24.772-23.455 26.949-5.397 1.608-4.898-.215.63-6.036 5.925-6.24 16.423-24.563 15.731-32.462-.3-3.489-10.889 30.173-30.783 39.388-5.372 1.965-8.426-.508-8.426-.508 7.822-4.503 29.424-25.8 27.387-49.996 0 0-1.152 3.583-2.855 8.956-7.327 23.093-23.066 38.276-35.33 39.534-9.794 1.003-16.63-2.946-14.202-4.691 12.7.093 23.131-4.295 31.28-16.668 8.287-12.577 11.377-32.785 6.357-54.172-4.528-19.289-5.523-36.633-7.106-55.174 13.908 4.751 27.908 7.912 41.452 2.62-1.361 5.525-3.619 6.211-7.191 10.382-2.596 3.049-1.707 3.774 8.408-3.372 2.942-2.079 4.007-3.746 4.541-3.189.865.903-.481 6.591-3.424 17.929-4.405 16.954-3.26 18.169 13.03 24.557 3.041 1.192 4.173 2.359 5.236 3.628.502.594 3.173 5.407 3.425 5.576.595.398.441-4.907.108-6.248-.872-3.562-2.794-6.235-4.482-7.289-3.195-2.944-7.805-3.204-10.766-4.558zm307.513 221.143l.16-17.603 17.104 12.132-.211 5.811zm-29.231 3.826l-.628-325.604s13.129-8.722 19.691-13.042c4.096 12.909 4.069 40.59 2.53 52.917-2.567 8.027-3.714 43.755-.798 61.935 2.318 14.491 1.891 38.458-.3 49.93-.851 4.482-.193 25.488 1.415 44.92 1.234 14.851.879 28.353-.918 36.081-1.41 6.09-.92 27.913.694 36.284 2.37 12.316 2.772 51.879 1.714 54.028-2.824 3.192-24.877 3.64-23.4 2.551zm26.003-340.745s13.223 8.732 19.597 13.098l.088 14.028-19.1-12.473zm-197.335 22.668l8.176.508c3.257 16.955 4.665 36.229 5.964 55.552.414 29.795 4.093 61.218 11.087 81.815l-6.008 6.302c-10.235-23.602-11.044-60.834-13.326-86.033-1.001-28.342-5.66-57.962-5.893-58.144zm198.922-2.971l17.781 12.034.189 15.257-17.919-11.883zm-187.124 4.091l7.181.78c2.182 20.13 5.533 33.79 6.803 55.967 1.653 28.682 6.621 52.233 9.714 74.636l-5.375 1.787c-3.602 1.659-9.573-24.817-12.23-78.484-.8-16.242-3.551-34.511-6.093-54.686zm10.858.756l8.576 1.537c3.796 50.956 9.789 98.813 16.063 126.235l-7.457.493c-9.251-39.192-9.852-84.54-17.182-128.265zm12.392 1.806l7.881 1.367c9.476 116.532 15.323 115.029 17.158 119.61l-8.535 3.46c-9.219-33.487-11.077-80.697-16.504-124.437zm35.779 114.462c-1.347 3.925-4.542 3.56-8.028 3.963-3.91-10.709-6.191-23.475-7.827-35.974-3.595-27.455-4.892-53.197-8.636-80.291l9.4.962c-.305.207 6.667 95.556 15.091 111.34zM422.586 239.908c12.393.598 22.673 6.159 23.663 14.298.225 1.831-1.229.942-2.908-.344-10.657-8.167-22.784-10.712-37.424-5.443-3.193 1.148-5.807 2.957-7.233 2.708-1.28-.818-1.674-2.804-.698-4.441 3.415-5.709 18.47-7.074 24.6-6.778zm-28.728 16.344c.263 12.835-2.857 19.912-9.592 22.877-8.13 3.579-18.55-4.086-13.491-12.661 3.833-6.483 10.415-4.529 11.668 2.282l10.327-22.994s1.06 7.282 1.088 10.496zm377.212-2.058l-.115 13.228-19.06-12.735 1.276-12.719zM433 252.47c9.389 3.718 12.837 8.261 13.187 10.28-.542 1.505-1.479.477-8.337-3.223-10.557-6.474-24.321-7.53-36.407.689-3.015.596-3.328-1.113-.307-4.36 9.211-7.215 21.94-7.317 31.864-3.386zm71.304-2.477c8.261-.261 18.133 1.838 26.471 6.023 3.692 1.85 7.002 3.003 9.403 5.131 1.924 1.002 2.077 5.365.666 5.694-1.253.177-3.311-.803-6.386-2.95-19.817-12.869-34.082-11.284-45.537-3.364-.635.438-2.608.89-3.384.83-2.187-.164-2.303-1.059-1.384-2.242 5.301-5.994 13.229-8.884 20.151-9.122zm247.651 9.263l19.101 13.345-.015 13.123-20.303-14.117zm-344.733 5.332l2.788.08c6.501 15.75 14.654 7.632 18.042 1.326l3.397.552c-5.319 21.097-26.949 10.058-24.227-1.958zm-4.749 2.1c3.157.38 3.049 3.951 4.035 6.55 2.211 5.808-6.163.893-7.6-.521-2.433-2.559 1.025-5.766 3.565-6.029zm94.53-.614c8.229 12.526 12.978 5.111 17.672-.344l2.24.714c-.593 8.994-15.728 18.58-22.92-.149zm25.315 1.417c.885.013 2.656.645 4.28 1.302 4.505 1.821 4.268 3.155-.723 5.373-7.976 3.547-10.75 4.006-8.356-1.004 1.369-2.292 2.28-5.328 4.799-5.671zm-31.282 1.91c2.007 1.474 3.325 3.107 3.556 5.761.168 1.871-6.065-.285-6.051-3.265.197-1.895 1.225-3.432 2.495-2.496zm-55.179.713c4.091 1.516 3.6 3.465.749 5.232-5.116 2.853-7.309 2.292-3.998-2.194 1.527-2.069 1.853-2.995 3.249-3.038zm314.821 6.602l20.681 14.538-.185 13.347-20.661-14.084c-.961-5.719-.056-9.565.165-13.801zM393.25 297.375c.981.025 1.368 3.266 1.597 8.006.383 7.879-7.639 18.852-15.747 22.632-9.768 4.552-20.221-1.831-18.474-11.291 1.616-8.719 14.001-9.079 14.471-1.024-1.206 2.119.485 3.892 1.175 3.707 3.184-.855 10.697-7.614 13.753-15.176 1.193-2.947 1.918-5.98 2.767-6.668.164-.133.317-.189.458-.186zm356.872-2.46l20.663 15.079.097 13.261-20.496-14.098c-.809-5.911-.461-10.126-.264-14.242zm-250.78 21.001c-1.564 2.624-.278 7.326 2.925 3.321 8.234-9.585 20.159 2.409 13.779 10.031-5.794 6.916-12.918 4.69-27.968-1.055-10.959-4.186-12.688-2.76-15.392.263-2.226 2.489-1.089 7.501 1.793 7.442 8.883 2.016 16.575 3.98 25.771 5.893 19.438 3.986 31.293-21.05 13.534-30.25-4.248-2.2-13.035.659-14.442 4.355zm-85.785 2.883c-7.576 6.795-1.359 24.656 9.8 26.25 2.337.334 5.82.238 9.783-.905 7.809-2.253 16.41-6.871 16.762-9.561 1.604-12.226-16.599-1.263-19.006.186-5.742 3.483-11.816 3.032-14.874-1.106-6.895-9.326 5.462-20.026 12.97-8.617 1.894 2.879 1.227-1.998-.839-5.313-2.919-4.68-10.449-4.377-14.596-.934zm337.932-3.851l19.426 13.728-.109 12.769-18.835-13.578zm1.45 18.694l18.401 13.231.314 13.272-19.309-12.708c.379-4.778.468-9.269.594-13.795zm-103.142 7.623c16.175.266 25.306 24.163 16.775 34.106-2.539 2.958-4.565 3.751-5.715 2.648-.247-.238.157-2.91.324-5.931.527-9.633-1.523-16.227-8.568-23.544-5.289-5.488-7.287-7.187-2.816-7.279zm-199.172 3.809c-3.054 1.088-6.289 3.294-8.789 2.75-2.475-.537-3.655.686-4.626 2.624-3.698 7.415-2.555 9.813 4.784 5.603 3.482-1.998 4.703-1.282 14.025.477 6.656 1.257 11.19 1.132 17.049-.388 7.29-1.89 11.631-2.038 15.319-.022 3.687 2.015 6.207 4.792 6.303 2.531-.411-2.647-2.719-9.416-3.252-11.665-.259-1.082-2.071-.13-3.786-.005-6.042.438-13.245-4.995-17.913-2.123-3.733 2.299-4.224 2.901-9.349-.104-3.812-2.239-6.457-.857-9.765.322zm194.824 1.661c10.954 9.146 13.763 17.261 12.7 23.919-.544 4.843-.909 10.194-5.652 13.109-.872.417-2.182.676-3.39.854 3.683-13.757-.661-26.077-16.145-39.221 4.504-2.231 9.102-1.486 12.487 1.339zm-247.036-.022a4.973 4.973 0 0 1 1.567.258c1.899.626 2.196 5.598.7 7.157s-2.7.273-4.436-3.679c-1.287-2.153.061-3.73 2.169-3.736zm-10.118 3.871c4.003-.082 5.517 3.579 6.2 6.497.588 2.486-.15 9.908-2.27 7.321-.51-1.572-2.685-6.647-4.421-7.965-3.874-2.935-3.486-5.771.491-5.853zm-11.254 3.687c.583-.017 1.333.055 2.245.208 6.243 1.045 11.026 10.981 9.57 16.619-3.301 6.064-4.527 1.975-5.619-3.523-.853-2.279-3.41-5.851-4.974-7.696-3.253-3.828-3.758-5.536-1.222-5.608zm375.368-2.887l19.009 13.623.032 14.582-19.895-13.371c.444-5.103.668-9.99.854-14.834zm-387.722 5.909c9.316.018 17.264 10.841 14.328 21.276-3.642 10.882-21.762 8.56-18.755-2.291.865-3.121 4.195-5.404 7.376-3.45 4.596 2.821 4.094-1.771 1.174-3.401-4.502-2.516-10.694-.993-12.075 4.1-4.81 17.752 18.016 23.803 30.435 5.463 4.541-6.702 9.479-13.875 12.203-16.935 2.452-2.748 2.975-2.459 2.578 1.084-1.58 16.495-13.082 37.109-34.651 35.981-20.966-1.991-27.517-24.229-11.688-38.111 2.663-2.332 5.465-3.483 8.179-3.682.301-.022.595-.034.896-.034zm111.083.9c-7.666 3.714-14.617 5.12-22.173 1.833-5.578-2.43-5.494.208-3.067 2.374 7.013 5.97 19.768 3.268 25.229-.092 1.778-1.091 2.36-4.249.011-4.115zm295.707 26.365l.058 13.263-21.221-14.216c-.334-3.173.025-7.996.722-12.976zm-20.457 4.43l20.209 13.305.537 13.145-19.635-12.175zm1.409 18.434l19.305 13.349.279 14.348-19.122-12.581zm-470.724 15.086l-11.815 35.689 7.74.468 5.217 9.415 5.37-9.649 8.14-.618zm471.531 4.761l18.605 12.783.282 13.252-19.331-13.36zm-.758 16.225l19.075 13.774.377 14.078-21.614-14.401zm-426.722 7.965l-11.702 38.211 6.599-.897 6.171 10.222 6.235-9.181 5.912.335zm-88.053 2.841l-11.141 37.982 7.463-.028 6.309 9.579 5.53-9.251 8.466-.223zm512.292 6.993l22.383 15.701.185 14.949-21.694-14.532zm22.126 35.504l.254 13.092-18.839-13.402-2.043-14.538zm-399.564 2.254l-13.675 38.6 9.169.087 5.561 9.269 4.452-9.314 7.369.073zm382.219 3.849l17.473 11.974-.132 13.442-17.203-11.522zM423.625 659.094l-9.954-9.566c-.127-.782 8.137-4.784 13.229-2.238 6.719 3.362 10.168 15.455 2.643 21.822-5.981 5.065-15.121.852-15.302.256zm-8.859-15.777c.176-14.778-7.606-18.571-14.043-21.565 0 0-1.079-93.649-.94-96.448.006.409-1.646-10.142-1.835-10.764 0 .007-1.55-.412-1.543-.396.266 9.495.891 106.804.74 107.435-12.05 1.391-15.417 9.544-16.501 20.493-9.403-.705-15.516 4.952-15.701 5.89-3.471-4.766-.889-11.787-3.626-16.76-8.329 29.12 7.871 46.543 22 44.919 2.27 27.959 33.065 33.014 32.021-.9 37.256-2.186 24.631-36.437-.572-31.904zm-175.045-117.57l-13.489 37.816 9.454-1.078 3.446 6.978c15.144-13.345 22.792 7.259 15.084-10.41zm512.738 67.288c1.741-.13 4.025 1.439 4.485 3.577.33 6.385-8.25 4.95-8.52.919-.195-2.863 2.397-4.376 4.035-4.496zm5.607 41.519c3.697-3.037 9.591-1.322 9.683 3.253.084 4.056-4.567 5.391-8.201 3.113-2.824-1.717-2.999-4.924-1.482-6.366zm.522 11.251c20.281 1.544 35.374-12.231 28.907-22.12 5.449-6.847 1.003-10.781 2.496-14.708 4.306-4.414.702-13.907-.375-13.942-.884-12.738-4.585-14.37-10.091-21.157-1.656-1.967 3.858-3.891 5.975-7.272-5.607 2.152-11.113-2.005-11.082-2.953l-2.382-2.961c-37.563 1.75-71.289 4.37-70.018 55.297-5.401 21.615 3.752 40.868 29.966 34.92 5.743-5.126 1.957-12.557 1.258-16.127-2.244-9.824.342-16.208 1.063-20.81 2.234-14.235 12.665-27.448 13.803-5.136 1.823-2.801.959-3.215 3.979-4.376 7.202-2.595 7.192 4.678 5.716 7.614-.945 1.508-2.376 1.38-3.839 1.212-2.099-.251-4.833-1.027-4.876-1.794-.562 2.316 3.806 6.625 3.35 8.798-.578 2.063-.946 1.896.963.53 9.036-6.461 14.691 7.977 1.623 6.327 6.437 3.438-3.091 13.504 3.564 18.658zm-13.372-77.722c7.119-.363 8.828-.426 8.498 3.311 1.35 6.897 3.075 10.095 12.072 9.372 9.062-1.179 11.937-1.746 2.816 3.731-4.609 2.029-6.103 2.424-11.562 1.933-5.504-.496-5.083-1.049-8.227.829-1.76 1.049-3.676 2.326-5.101 2.585-2.115.383-5.845 1.198-5.845 1.198-2.119 10.71-5.346 16.102-9.783 21.192-6.277 7.134-9.463 8.382-1.763 7.847 2.847.177 1.372-1.248 2.616 10.297.437 4.043 1.19 8.732 1.79 10.305 1.998 5.261 2.267 7.877-5.339 8.25-18.995 1.437-23.428-17.046-20.899-26.491.221-1.485 1.085-6.402 1.272-10.304.104-2.132-.326-3.936-.274-6.116.429-17.612 4.61-22.253 20.243-33.702 4.716-3.453 13.182-4.163 19.486-4.237zm16.678.949c8.768-.181 17.241 4.031 13.014 6.764-2.729 1.766-12.594 1.033-15.332-.916-3.535-2.513-2.211-5.754 2.318-5.848zm-390.967 14.954l-3.479 6.157-3.627 28.664.648 5.816 7.172 9.402 5.676-9.749 8.927.156zm409.94-2.857c5.68 1.136 5.903 6.319 4.456 9.509-3.172 7.016-24.412 10.409-24.412 10.412-.172-3.012.247-5.915-1.961-9.305 0 0 14.143-3.701 17.141-6.429 1.991-1.822 3.207-4.128 4.776-4.187zm4.204 15.96c2.057.028 3.149 1.517 3.705 4.551.267 1.626-.347 3.013-1.673 4.789-5.393 5.859-20.55 9.917-26.024 8.428-.385-.508.544-6.679.94-9.424 7.294.22 19.565-6.245 23.052-8.344zM568.992 633.17c-7.244-10.447-23.316-8.915-21.588-8.184.113-8.947-1.417-21.236-15-22.543-13.693-1.037-20.735 17.03-15.537 24.678-8.45-3.508-21.13 5.287-21.13 6.113-1.083.036-10.77 25.635 18.548 26.953 2.668 12.087 7.238 17.932 16.606 22.904l.235 98.643 3.313 4.477.286-103.374c15.008-.663 16.854-17.831 15.746-21.789 6.661.291 12.715-1.05 17.81-4.937l1.756 16.85s3.521-5.944 2.745-9.098c-6.532-96.877 28.516-201.678 74.53-269.61 2.457-2.852 3.209-6.256 4.426-6.282 11.22-6.044 18.305-10.112 18.305-10.112 18.504 8.891 51.541 30.351 51.541 30.351l.538 138.047c-.513-1.358 61.559-6.925 60.629-5.247 0 0-5.438-2.128-5.523-5.761l-1.616-323.04-27.154-17.737s-22.327 14.589-28.579 19.575l.687 190.186-48.102-28.177s.767-6.726.838-8.909c-.768-25.952-13.509-34.66-37.769-26.961-3.253 1.031-5.514 1.936-7.103.606-10.211-29.857-14.81-108.317-14.797-108.317l68.458-115.97 116.134-.639 2.008 443.096 4.206 232.253-59.277 43.166-.866-148.778s-8.491-4.059-10.712-4.333c-.84-.064-1.915 1.804-.408 2.766 2.179 1.389 7.538 3.334 7.538 3.334l1.258 147.46s-23.045 15.509-33.349 21.969c-7.677 4.773-31.974 17.008-46.364 24.053-5.585 2.733-11.217 4.926-11.742 5.352-19.599 8.421-37.273 14.319-53.612 23.012-11.273 4.61-10.762.092-13.167-3.593-23.524-23.261-53.894-24.637-78.507-13.896-3.81 1.414-8.534 2.644-11.718 4.855-.925.681-2.529 1.443-3.582 1.694-2.158.513-4.515 1.47-6.504 3.038-3.534 2.797-5.89 7.361-7.913 11.888-1.253 2.805-5.016 15.879-5.511 19.756-.087.648 1.257.507 1.302.57.17.235 3.781-15.835 5.217-18.88 3.058-6.496 6.91-10.383 8.957-10.996.927-.157 1.742 1.289.475 3.577-2.51 4.545-4.554 14.217-5.163 18.576-.544 4.025-.651 7.249.101 7.392.13.126 3.686-12.182 5.289-16.523 4.173-11.328 6.802-16.02 10.822-18.436 4.116-2.477 5.095-2.13 4.281.504-6.131 11.958-8.658 20.997-9.857 33.732-.187 2.539 1.101 2.61 2.117-1.594 3.355-13.369 7.962-31.451 18.858-36.849 4.647-2.101 6.711-1.999 6.214-.499-12.973 16.382-16.214 34.573-16.058 40.439.048 1.96.843 1.571 2.505-2.669 4.391-16.145 10.906-29.875 18.631-36.611 2.993-2.606 6.615-3.325 9.646-3.701 9.159-1.136 9.471 2.258 1.497 6.9-9.078 5.287-19.582 24.525-20.749 38.97-.402 4.997 1.368 5.541 2.616-1.127 5.388-28.711 30.003-47.688 49.729-38.896 8.88 3.954 10.485 9.453 2.761 7.007-15.64-4.948-33.009 6.132-40.171 21.6-6.473 13.984-6.341 21.324-1.783 40.049 3.103 17.299 9.151 39.387 7.155 56.337-2.15 3.29-8.945-1.36-16.961-2.34-4.838-.91-10.748-1.14-15.801.79-4.402 1.69-6.901 2.11-7.717-.26-.261-.77 3.394-4.49 5.024-6.55 2.604-3.3 1.117-3.82-2.56-.25-1.794 1.75-5.662 5.85-6.716 6.07-2.319.47-2.415-2.15-.544-8.8 6.569-25.837 4.807-26.279-6.455-31.51-11.165-4.252-7.634-6.398-12.577-10.626-3.484 2.723 4.552 15.215 13.638 17.94 7.439 2.231 6.533 6.037 3.279 16.266-3.303 14.31-8.941 33.26-5.681 45.97 6.852 26.7 33.971 26.16 54.739 15.37l2.534 6.81c-17.561 7.1-110.122 13.18-141.318 9.6-2.41-8.43-2.646-10.6-3.623-20.52 0 0 19.27 8.7 28.889 10.21 12.008 1.88 30.5 1.97 35.234-9.09 1.452-3.24-.036-5.98-4.179-4.1-7.619 3.45-20.639 6.01-31.156 5.35-8.83-.54-21.42-4.09-26.855-7.36-2.586-1.56-4.77-4.6-2.743-8.43 1.794-.4 4.155 1.59 5.549 2.3 15.936 8.04 24.672 9.6 35.064 6.52 7.878-2.34 18.499-10.84 15.876-13.25-2.658.93-11.495 8.34-17.583 9.96-12.535 3.33-25.897-1.77-38.917-10.21-4.022-3.48-2.189-6.03 2.734-3.24 19.504 9.82 27.639 16.34 46.301 2.56 4.171-3.09 6.496-2.7 8.945-.82 9.691 8.67 9.659 3.8 2.564-5.22-1.612-2.04-3.076-4.91-4.043-7.97-.712-2.25-.873-4.51-2.163-6-2.203-2.52-6.167-3.75-10.7-5.75-6.538-2.87-8.716-1.49-3.889.86 8.459 4.13 12.572 8.54 2.075 6.16-9.531-4.26-25.443-1.88-34.45 4.37-7.068 3.45-10.179 7.14-11.85-.66-3.491-16.27-.089-38.344-4.774-66.736-.893-5.413-1.981-8.844-.851-9.585 1.454-.95 5.086 2.553 9.586 8.869 2.047 2.879 6.119 8.413 6.095 7.26.157-6.012-9.195-17.293-16.916-21.736-4.238-2.444-7.118-13.735-2.271-11.25 3.749 1.823 23.231 18.954 26.946 25.057 1.72 2.839 3.18 1.03 1.357-2.307-1.099-2.002-5.676-7.881-10.127-12.224-7.897-7.708-8.808-7.343-7.293-8.922 2.998-3.125 9.419.901 20.864 11.255 2.937 3.706 6.817 7.051 6.342 5.207 1.169-2.881-10.293-15.195-17.087-18.499-1.267-.795-1.44-1.632-1.327-3.165.646-5.82 13.801 2.728 24.716 12.699 4.091 3.739.695-3.291-4.038-8.066-3.719-3.758-9.72-8.424-13.792-10.025-4.035-1.665-4.291-5.191-1.122-6.666 10.942-.466 22.24 10.716 28.967 19.505 1.861 2.414 3.566 4.273 1.629-.299-6.235-13.761-19.2-21.511-28.186-23.085-7.297-1.278-7.136-7.861-.276-7.116 7.54.82 19.895 7.626 30.369 18.167 3.05 3.069 8.174 10.029 7.122 5.944-.029-1.114-3.245-5.469-6.958-9.669-8.568-8.512-18.524-16.03-29.09-18.27-4.934-1.397-19.59 1.43-19.678-1.111-.034-1.876 1.532-3 6.199-4.553 18.115-6.027 44.628 9.533 59.128 33.451 1.037 1.715 3.002 2.442 3.118 2.056-6.992-19.548-28.744-37.267-46.048-40.304-11.771-1.887-23.638 1.115-29.276 9.045-6.348 8.926-3.862 20.858 5.67 19.899 4.997-.457 4.604-3.296 4.506-3.391-.338-.334-3.246 1.034-5.045.676-6.515-1.276-5.834-13.064 3.71-11.901 10.969 1.338 12.521 18.642.259 22.28-11.317 3.355-15.466-1.813-18.56-7.944-4.532-8.981.332-23.456 8.324-29.007 22.378-15.537 50.68-2.516 66.671 12.892a70.982 70.982 0 0 1 17.324 26.46c.93 2.268 2.613 2.134 2.007-.304-22.482-57.367-89.6-63.567-99.571-19.556 0 0-.345 1.351-6.796-7.827-10.46-14.871-26.09-18.184-45.33-8.046-19.448 7.304-26.005 11.956-39.486 18.927-1.963.695-14.428 9.295-16.427 7.51-19.097-12.664-35.741-16.981-44.807-26.261.309-1.703-1.301-27.43-1.301-27.43l.445-110.931c.138-1.082-10.106.735-27.16 3.409-45.345 9.051-41.379-14.796-47.381-16.473-3.168-.634-2.937.725-3.795-84.799-.251-24.84-.745-68.509-1.114-97.048-.364-28.538-.459-52.311-.204-52.813.256-.503 2.8-2.689 5.736-4.769 11.053-7.829 17.257-12.567 41.437-31.014 5.475-4.178 6.855-4.885 6.855-4.885 2.778 51.383.287 105.344 1.653 149.516l2.037.011-.789-148.328c-4.174-1.093 95.344-59.324 149.874-78.214 1.026-.355 3.573.781 3.573.781 31.304 38.358 113.662 26.745 120.3-19.953 13.644 28.467 73.589 83.782 100.984 17.107 0 0 9.927 19.153 18.441 20.416 19.148 2.541 21.27-.479 63.406-20.914-48.182 73.087-74.742 150.471-78.141 244.187zm-25.61-18.222c1.052 3.227 1.414 7.399.507 10.694-1.231 2.573-3.064 2.538-3.064 2.538l-9.329-7.974-9.128 8.462s-5.585-5.625-2.515-13.425c5.833-10.897 19.2-8.93 23.529-.295zm241.071-1.287c5.972-.377 2.888 6.495-5.95 11.15-5.544 2.921-10.145 3.747-12.134 2.69-1.091-3.226-.166-6.169.513-7.477 3.771-1.935 14.127-5.332 17.571-6.363zm-385.601 12.945c6.635-.161 12.38 4.564 12.591 12.931.088 3.409-1.663 6.789-1.663 6.789l-11.081-8.167-8.46 9.025c-1.447.504-6.628-5.962-3.066-12.999 2.591-5.115 7.144-7.468 11.679-7.579zm160.221 3.842c9.319 4.226 10.937 17.258 1.874 22.278-4.309 2.387-11.094 3.716-14.265-1.111l9.164-9.989-10.52-8.848c-.41-.411 8.059-4.909 13.747-2.33zm223.742-3.426c1.608-.003 2.014.612 2.478 2.113 1.311 4.256-2.016 8.539-7.756 9.894-5.299 1.252-4.797 1.872-7.307-2.866-1.969-3.712-2.493-3.556.585-4.73 3.724-1.209 7.708-2.618 12-4.411zm-265.113 6.393s-6.617 6.721-9.51 9.531l9.953 10.384c.48 1.262-11.48 6.676-17.769-1.491-4.087-5.302-1.786-15.387 4.013-18.847 5.926-3.535 14.413-.598 13.313.423zm14.257-1.173c5.874-.086 10.696 4.599 10.782 10.475.085 5.874-4.599 10.718-10.472 10.803-5.874.085-10.722-4.62-10.808-10.494-.085-5.876 4.625-10.699 10.498-10.784zm-145.438 17.903l-9.549 9.99 10.325 11.232s-8.169 1.334-11.066.791c-14.05-2.629-12.675-19.105-1.808-23.462 4.583-1.609 7.993-1.07 12.098 1.449zm-187.326 3.393s1.877 21.164 3.59 28.393c-1.129 8.248-6.462 13.863-8.863 22.332-1.278 3.768-6.093 8.834-7.015 3.526-3.472-6.559-.156-14.667-3.023-19.337-1.454-4.358-1.023-6.875-1.993-11.444-2.117-3.712-3.814-5.467-3.53-8.838-.57-14.962-4.307-11.996-10.946-10.773-5.477 1.804-12.866 2.532-17.196 5.736-9.405 6.62-4.288 10.418-7.833 20.415.557 4.381 1.63 5.96.859 9.738-3.624 17.862 3.069 16.38 2.868 16.656-2.791 4.105.655 13.338 1.987 12.865 8.173 2.004 5.21 7.972 7.87 11.138 2.671 3.061 2.527 4.606 13.724 4.886 20.23 1.58 52.374-1.425 59.32-26.087 4.332-34.775 10.666-65.41-29.819-59.206zm201.101-3.407c5.675-.083 10.334 4.446 10.417 10.12a10.267 10.267 0 0 1-10.119 10.418c-5.669.082-10.335-4.447-10.417-10.12-.083-5.673 4.45-10.336 10.119-10.418zm-192.25 5.395c3.824-.047 8.334.757 12.037 4.31 7.94 7.61 8.284 14.51 4.762 43.798-.995 8.25-3.899 15.147-7.745 18.151-7.728 6.035-17.193 10.337-24.988 12.256-4.118 1.012-7.692 1.035-10.48 1.013-3.005-.023-4.761-1.412-4.984-3.932.664-6.819-6.297-7.483-10.328-7.097-7.191.285-7.929 1.041-3.444-2.433 5.119-3.965 16.92-4.023 19.158-1.7 4.603-4.606 9.401-5.143 15.272-5.828-.87-1.277-2.976-6.386-1.582-9.667 3.043-5.347 8.16-14.779 13.528-18.316 5.313-6.947.804-3.807-2.494-3.688-1.883.068-1.725-.552-2.032-1.812-1.309-5.414-3.198-15.532-3.215-21.557-.004-2.904 2.717-3.452 6.535-3.498zm-33.847 7.499c2.077 1.845 2.05 4.421-.132 6.339-2.493 2.193-7.444.983-7.568-3.144.331-4.165 5.189-5.342 7.7-3.195zm358.459 14.662c-8.617.429-15.716-8.793-12.466-17.982 1.777-2.488 2.551-2.131 2.551-2.131l9.808 8.767 9.416-9.847c7.753 9.356 1.098 20.494-9.309 21.193zm-368.955-14.276c-.71 2.69.219 5.37.334 6.677-1.705 1.217-8.985 3.344-12.884 5.264-2.71.931-4.675-1.616-4.299-3.942 1.027-4.331 7.399-7.161 12.031-8.503 1.423-.35 3.779-.481 4.818.504zm1.596 12.396c2.623-.316 1.854 5.399.864 8.321-.975 2.09-3.866 2.003-6.465 2.154-4.59.268-10.375 5.562-12.86 4.709-.826-.38-1.409-2.557-1.499-3.942.536-7.63 13.213-10.428 19.96-11.242zm13.865 7.948c-.872 1.278-3.688 1.896-6.043 1.249-3.859-1.058-4.452-6.593-1.065-8.494 5.975-1.977 9.567 3.63 7.108 7.245zm380.949-12.6l-5.228 7.964-7.953-.145 12.848 39.416 5.94-15.403c.8-7.082 1.735-14.149 2.478-21.239zm-169.106 3.323l10.166 8.291 8.719-8.913c6.488 14.458-.988 21.077-8.942 20.902-8.767-.193-18.12-8.504-9.943-20.28zm-223.152 14.947c3.226-.612 1.847 8.092 1.396 8.343-2.052.758-10.921 1.917-14.656 5.064-7.95 6.228-11.343 2.428-7.659-5.035 3.487-4.339 16.307-8.289 20.919-8.372zm10.116.414c3.545-.332 6.03 3.588 3.867 7.322-2.933 2.729-8.088.729-8.067-3.137-.022-2.429 1.991-4.058 4.2-4.185zm-5.221 22.079c.484 2.031-.223 1.403-3.949 2.5-2.054.605-5.276 1.974-8.635 3.669-4.929 2.486-6.306 3.824-8.059 3.541-1.388-.303-2.992-.903-3.423-2.311-1.709-5.624 2.866-11.357 13.54-15.295 2.218-.819 6.187-1.48 7.543-1.631 3.626.01-.246 5.572 2.983 9.527zm6.303-8.46c5.156-.075 6.127 6.771 2.268 7.975-9.038 2.335-8.271-7.982-2.268-7.975zm-6.361 25.219c1.449 1.392 1.655 3.675.032 4.865-2.983 1.47-14.425.218-14.497-2.993-.044-2.119 3.777-2.836 7.332-2.906 3.555-.069 5.97-.08 7.133 1.034zm516.585 3.509l-9.427 12.61 12.652 31.671 11.559-38.349-9.078 3.595zm-533.418 32.54c2.179 97.536 1.812 321.044 1.812 321.044l27.759 18.87 29.225-21c-.298-70.36-.58-118.884-.86-184.016l42.826 23.523s1.315 1.896 1.116 10.696c-2.959 24.306 20.546 40.084 36.142 30.491 6.018-2.529 6.511-2.978 7.782-1.081 3.51 5.229 7.461 27.621 8.117 41.907.998 21.52 6.665 65.41 8.027 65.7l-69.708 118.11-108.659.53-1.248-439.25c5.652 6.652 8.227 11.013 17.669 14.476zm404.476-9.404l-5.233 7.984-6.305-.009 11.062 40.824 13.4-39.917-7.381-.914zM211.302 1080.86s-13.563 9.73-17.898 12.53c-2.275.85-3.381 1.01-3.919-1.17-.667-2.68.4-7.74 1.348-16.11.875-7.74.868-8.18-.42-19.22-1.346-11.52-1.507-12.01-.414-27.22 1.214-16.97 1.449-33.448.103-43.648-1.275-9.7-1.257-31.817-.277-44.164 1.197-15.119.806-28.382-1.173-39.347-3.532-19.553-4.111-26.286-.435-40.997 1.374-5.505 2.062-8.433 1.774-17.651-.322-10.249-.511-13.596-4.179-36.292-2.112-13.066-2.279-14.86-.298-35.534.401-4.172.54-6.962 2.128-8.286 1.855-1.546 21.2-2.672 21.2-2.672zm-50.876-315.766l21.076-.229c-1.628 6.598-1.991 11.618-2.159 16.392l-18.72-12.302zm.309 8.432l18.531 12.097c.023 5.104-.361 9.971.379 15.073l-18.78-12.464zm.035 19.194l19.834 13.556c.775 5.28 2.39 10.619 3.01 15.365l-22.485-15.213zm641.296 5.342l1.037 389.458-197.402.89-62.573-120.22s.64-11.05 2.186-16.69c1.874-6.83 2.371-8.31 4.994-8.63 7.023 3.64 14.852-1.21 17.248-6.53 2.948-6.55-3.026-16.47-12.193-18.62-4.044-.96-8.464.86-12.932 4.26-2.589 2.16-3.168 2.41-3.689.53-1.163-4.25 2.609-15.78 9.34-25.676 3.751-5.507 4.76-7.091 5.976-4.994 4.902 8.47 15.416 6.715 19.402 1.928 4.83-5.791 3.818-18.994-7.111-22.493-21.396-6.846-31.22 14.619-30.952 14.57l-4.583-25.74c25.76-6.314 40.624-8.541 48.807-16.348 6.439-6.148 9.508-16.777 8.711-26.228 0 0 71.552-29.06 105.035-47.106 57.653-31.072 108.699-72.361 108.699-72.361zm-108.946 2.822l-5.292 9.307-7.509.009 15.185 39.301 11.597-41.032-7.237.646zm-531.421 11.282l22.722 15.667c.497 5.086 1.152 9.617.467 15.381l-23.916-15.821zm443.318-4.816l-5.658 7.509-6.519-.686 12.783 38.917c3.886-11.248 7.419-26.521 11.259-37.784l-6.037.288zm-443.713 24.823l23.509 15.573c.089 4.809.315 9.339-1.359 12.736l-22.189-14.233zm487.775 2.246l-5.709 10.975-7.601-1.031 13.592 37.303 14.859-36.956-9.199.494zm-487.735 15.893l20.386 14.969c.291.215-1.138 6.829-.814 10.574l-19.394-11.951zm.55 18.512l19.007 13.058c.046 4.95.383 9.606 1.162 13.818l-20.633-13.395zm-.328 18.865l21.979 15.642 1.162 12.57-23.283-14.636zm180.91 5.241c21.09 7.862 40.868 47.969 40.257 99.886-.418 36.044 10.471 87.494 10.27 86.904 0 0-6.119.82-7.85-.54-7.944-26.47-10.593-54.43-11.844-77.5-1.029-19.239-2.136-38.117-3.353-42.52-3.467-15.511-7.222-33.614-17.138-45.4-7.721-8.892-16.534-10.44-21.796-.458-4.309 8.18 4.768 21.714 12.307 17.216 1.818-1.026 2.908-2.759.518-2.712-7.825 1.158-13.075-9.657-8.127-14.816 8.722-9.083 23.97 11.152 16.898 22.288-3.121 4.818-11.271 5.667-17.793 3.891-14.504-7.01-18.143-24.185-13.291-35.499 3.7-8.63 11.832-13.783 20.942-10.741zm-25.514 5.155c1.718.08.547 3.24-1.035 8.169-3.73 11.812 3.264 30.169 12.959 33.821 2.906 1.982 2.75 2.734.812 3.826-6.33 3.552-17.812-7.109-20.842-18.988-2.194-8.592-1.656-18.737 2.478-23.042 2.259-2.354 4.055-3.592 5.269-3.76.128-.018.25-.031.359-.026zm-155.624 6.966l23.467 15.333c1.094 4.789.611 9.89-.122 15.039l-23.488-16.368zm141.608-.195c1.742-.055 1.092 2.861.606 8.185-1.122 12.324 2.699 21.283 11.405 28.723 3.672 3.143 4.679 4.128 3.101 5.772-2.247 2.339-8.68-.796-13.722-6.054-9.237-9.63-12.295-27.8-5.099-34.389 1.58-1.446 2.8-2.209 3.709-2.237zm261.015 2.141c10.033-.395 18.496 3.499 19.423 15.748 1.369 17.939-15.351 27.753-27.014 17.454-10.452-10.343.147-26.527 12.257-18.944 6.091 3.839-1.175 12.6-6.104 8.072-2.221-2.044-3.195-.774-1.617 1.587 4.768 7.119 14.157 1.197 13.483-5.072-1.319-12.327-16.469-12.171-22.172-7.341-7.81 6.604-14.684 16.333-19.815 23.423-4.197 6.148-5.097 5.982-4.477-1.613 1.637-20.077 20.392-32.709 36.036-33.314zm-273.081 3.921c1.601-.055.968 2.235 1.086 8.134.643 15.156 7.033 24.596 15.137 29.873 2.715 2.998-.758 5.124-5.866 3.673-11.642-3.585-23.532-28.598-13.667-39.351 1.387-1.506 2.478-2.297 3.31-2.329zm-11.319 4.97c1.613-.1.707 3.244.856 9.566.322 13.309 4.438 19.7 14.333 27.822 3.223 2.644 3.622 2.35 2.355 3.816-3.39 3.9-14.874-1.623-19.77-9.592-5.827-9.488-6.681-23.795-1.263-29.197 1.516-1.515 2.644-2.364 3.489-2.415zm-11.26 6.41c1.339.006.592 2.413.798 8.157.497 13.934 3.685 20.833 12.524 27.278 5.556 4.046 6.909 2.834 5.209 4.435-2.977 2.805-11.116.398-17.22-4.76-9.159-7.722-11.723-26.777-4.283-33.305 1.322-1.166 2.274-1.808 2.972-1.805zm-106.562 1.971l22.548 15.625-.635 13.195-22.439-15.179zm394.279 24.744c-9.183-1.878-12.656-8.503-11.535-16.009.374-2.511 1.84-3.948 3.412-.671 1.351 5.208 4.819 12.417 9.568 13.821 1.911.562.315 3.218-1.445 2.859zm-197.424-15.584c10.354 26.06 10.172 54.541 11.889 81.441 2.281 35.76 8.609 59.85 10.673 63.91 0 0-10.108.11-10.623-1.34 0 0-9.536-47.43-8.102-70.89.105-26.242-5.003-49.315-8.126-59.681-3.299-9.185-3.441-3.115 4.289-13.44zm-196.978 10.177l21.694 14.184c-.307 4.854-.352 9.705-.294 14.561l-21.265-15.049zm291.719-1.212c.018.787 3.135 1.453 8.025.274 5.433-1.316 10.844-1.08 15.019.064 4.432 1.217 4.924-.213.907-1.961-1.954-.856-5.064-2.797-9.727-2.716-4.663.08-14.262 2.622-14.224 4.339zm87.875-.546c.533.972 2.179 3.159 3.658 4.874 2.79 3.233 3.578 3.26 2.303 4.579-2.922 3.047-9.066-1.367-9.725-7.002-.572-4.112 1.479-6.711 3.764-2.451zm-194.253 1.11c10.134 14.435 11.625 48.299 11.834 72.372.186 21.67 7.523 61.39 8.116 61.22-2.09 1.23-4.896.8-7.531-.21-2.606-3.4-4.205-12.92-7.231-38.67-.776-6.65-2.307-27.79-2.657-44.82-.301-15.013-8.692-47.521-8.692-47.521s3.26-2.316 6.161-2.371zm-11.275 3.605c9.23 20.605 10.732 41.065 11.15 65.897.393 23.48 5.61 50.99 7.58 63.13-3.115.32-6.405.58-7.713-.82-.83-1.14-1.49-2.92-1.895-5.23-4.203-20.3-5.209-42.39-6.41-61.07-1.81-28.944-2.273-36.107-6.378-50.54-2.329-8.186-3.141-8.014-1.389-9.59 1.335-1.198 3.889-1.799 5.055-1.777zm103.815 4.745c.255 9.587 1.492 5.68 4.879 4.151 2.546-.216 4.63 1.176 9.37 2.914 6.036 2.219 5.496 2.963 9.732.884 2.621-1.288 4.704-1.728 5.955-.715 4.966 4.028 11.366 1.764 14.964-1.505 2.817-1.463 5.884-.668 8.264-.447 3.433.316 2.536-1.875 2.96-6.206.373-3.856-1.093-4.194-5.078-2.893-4.075 1.328-8.121 1.521-11.66.439-9.042-2.758-15.666-.964-20.147-.259-10.593 1.66-11.159.592-13.558-.924-1.791-1.127-4.749-3.218-5.767-3.152-1.024.06-.686 3.534.086 7.713zm93.963-4.408c1.005-.514 1.474.856 2.871 2.681 2.351 3.054 3.032 4.492 1.069 4.777-5.204.755-6.5.21-6.316-3.022.148-2.578.717-3.585 2.376-4.436zm-208.663 4.549c7.634 7.693 9.574 50.841 10.439 60.131 2.756 50.34 7.531 57.57 5.075 61.35-2.891-.05-3.894 1.02-5.782-1.51-6.534-18.44-6.155-37.39-7.216-56.62-1.492-25.482-4.018-39.278-7.603-51.905-2.384-8.397-2.354-8.532 1.944-10.837.763-.414 2.457-.631 3.143-.609zm-10.284 6.069c2.69 6.112 8.091 33.903 8.823 57.892.585 19.05 5.13 56.29 5.972 56.5-2.777.25-6.11-.31-7.461-2.42-8.324-36.71-5.676-72.312-15.297-109.236.57-1.789 3.615-4.742 7.963-2.736zm-152.585 4.523l22.499 16.132.475 13.768-22.962-16.292zm334.401-1.737c-12.704 4.932-15.99 8.978-13.997 12.53 1.684 2.994 6.737 1.946 20.269-3.702 10.113-4.216 13.285-2.378 15.338 3.993-.1 9.406-9.22 10.5-14.371 9.21-2.211-.083-1.888.117.474 3.068 10.473 8.216 23.316-7.854 16.915-18.037-5.011-9.307-13.68-11.955-24.628-7.062zm-79.736 3.817c-10.477 8.225-6.738 23.041 1.988 25.266 2.427 1.233 6.045.655 7.46-.288 1.307-.865 1.299-2.274-1.379-2.722-8.098-1.343-12.695-7.286-8.785-13.308 3.798-5.84 10.836-4.719 24.362 1.107 11.696 5.045 16.824 3.485 18.204-2.564.608-2.674-.133-5.175-5.742-5.382-15.609-.581-25.96-10.073-36.108-2.109zm140.268 22.687c-.696-4.263-7.629.111-12.222 7.667-4.517 7.435-4.989 8.495-5.908.778-1.372-11.512 10.574-20.515 18.028-20.802 8.98-1.034 14.87 3.987 15.102 9.769.453 11.391-13.14 11.505-15 2.588zm-395.434-6.795l23.828 16.356s.806 8.771.292 13.481l-23.928-15.309zm286.082 5.494c-10.36 7.025-4.267 19.853 2.981 21.293 7.64 1.52 8.178-3.81.582-5.38-4.06-1.599-5.102-5.467-3.518-8.45 3.623-5.928 10.323-2.091 14.219-.245 8.645 4.116 13.126 5.621 15.859 2.775 4.847-5.055.52-14.065-5.886-10.89-1.73.858-3.032 1.672-6.71.764-5.584-1.168-12.285-2.416-17.527.133zm-285.883 13.954l23.439 16.039-.71 14.19-22.012-16.14zm.488 19.499l22.044 15.71c-.33 5.99-.18 8.38.062 12.2l-22.294-14.39zm389.825 3.02c17.676 1.73 11.814 22.04-.528 16.55-3.291-2.47-4.281-2.27-7.938 6.63-4.678 11.4-5.819 10.47-5.178-2.69.473-12.89 6.393-20.39 13.644-20.49zm-139.279 3.1c.417 0 .758.07.965.24 1.192 1.34-2.39 6.64-5.426 9.75-2.24 1.47-7.686-2.5-6.362-4.44 1.542-1.88 7.977-5.26 10.823-5.55zm23.589 10.46l-3.159.44c-4.774-10.63-14.682-8.19-17.742 1.68l-4.357-.5c4.398-12.1 20.096-19.52 25.257-1.63zm89.007 2.42l-5.352.32c-4.793-11.53-11.583-13.25-17.344-1.86l-4.144-1.2c7.131-14.56 19.044-15.73 26.84 2.74zm-26.735-13.15c2.74-.17 2.387 1.09-.465 4.98-2.476 3.39-3.077 3.92-5.564 2.07-4.08-3.03 2.701-6.83 6.029-7.05zm25.338.34c.519.03 1.129.07 1.823.25 5.511 1.36 8.041 3.97 5.341 7.32-1.687 2.09-3.328 2.91-4.437 1.51-3.722-6.13-5.779-9.27-2.727-9.08zm-83.256 3.63c.578 2.28-1.231 3.9-3.245 2-.818-.77-1.536-2.09-1.428-3.06 1.258-1.19 4.27-.21 4.673 1.06zm-278.713 7.84l22.661 16.27c.749 5.73.902 10.09.863 14l-23.334-15.45zm330.371 4.93c13.059 8.94 28.364 8.82 37.943.97 2.14-1.76 4.003-1.83 4.041-.15-1.364 6.27-18.014 14.31-31.015 9.76-7.142-2.5-13.014-4.99-17.699-11.66-2.786-4.35 2.944-1.54 6.73 1.08zm-5.523 4.35c19.082 16.47 34.251 11.89 45.746 3.6 1.698-.43 1.726 1.1 2.107 3.94.482 3.64-2.541 5.44-10.808 7.91-15.98 4.79-34.732-.45-38.111-11.17-.395-2.11-1.204-4.84 1.066-4.28zm-324.935 9.86l22.98 15.77-.729 12.04-22.387-15.13zm.371 18.46l21.689 14.7-.067 9.97-21.104-15.03zm157.555 4.68c92.544 20.94 158.127 10.99 222.492-.35l57.025 111.84-343.632.46c22.441-36.35 41.116-76.09 64.115-111.95z" fill="#131f67"/></g><path d="M822.777 1124.01v12.4h9.789l27.886 62.58-26.701 43.71h-10.288v11.09h38.956v-11.09h-12.973l35.715-51.54v51.54h-10.73v11.09h35.573v-10.82h-11.691v-106.56h11.691v-12.4h-35.573v12.4h10.73v31.47l-15.176 19.54-22.742-51.01h15.176v-12.4zM23.329 46.215v12.193h12.467V164.47H23.329v13.132h36.234V164.47h-9.61v-30.089l14.555-20.159 21.82 50.248H72.394v13.132h39.52V164.47h-9.449l-28.93-64.603 27.489-41.66 10.185.201V46.215H71.971v12.193h11.314l-33.332 51.149V58.408h9.892V46.215z"/><path d="M328.383 111.699l17.124 32.009.032 1.506 9.468 18.484 1.429.917 2.133 4.026.237 1.959 5.285 8.452-.032 1.815 22.416 41.699c18.494-6.902 170.379-19.33 226.619 1.001l8.193-13.882 1.96-.014 14.446-25.339-.23-2.131 4.862-5.543.705-2.524 15.938-24.942.058-4.021 19.93-33.232zm343.91 4.785s-10.397 19.987-15.759 28.066c-4.331-3.419-16.906-1.097-16.15 12.152-20.493-7.761-25.433 16.68-9.59 22.182-8.129 7.098-15.9-.93-22.069-6.374-6.029 1.493-18.546 5.923-25.632-7.113 0 0 2.96 1.599 5.92 3.337 16.758 5.095 18.11-17.518 5.644-21.221-1.57-.412-4.523-.58-4.523-.58 4.19-17.39-22.717-23.461-23.223-2.563 0 0-3.196-.522-5.624-.08-14.26 2.6-10.993 23.629 3.581 22.622 2.011-.139 3.805.22 3.805.22-.237 3.369-17.88 9.804-30.589-1.781-6.029 4.59-15.568 10.344-28.008-1.102 8.18-.332 16.028-2.659 15.938-11.931-.064-6.036-5.49-11.424-13.318-11.711-.442-6.745-5.465-13.18-11.986-13.674-7.97.465-12.037 6.89-12.095 13.674-6.771.699-13.107 6.667-11.653 13.513 1.986 9.339 9.187 10.488 17.399 8.708-9.993 16.06-26.259 7.683-31.268 2.563-5.977 5.571-16.387 13.114-29.213 2.803 6.836-1.17 14.44-5.178 13.152-14.715-1.005-7.515-9.442-9.746-13.113-9.349-.007-4.965-3.754-13.158-12.608-12.312-9.66.924-9.084 13.137-8.968 13.233-7.982-.658-13.767 8.725-11.493 14.714 2.768 7.289 8.565 9.556 19.219 7.588-12.428 11.662-20.321 7.135-27.105 4.684-6.003 6.293-14.023 8.322-22.242 2.743 18.385.876 15.458-31.624-6.349-19.839-1.883-6.097-4.696-13.603-16.111-11.852l-13.018-25.124zm-421.008 20.779a56.02 56.02 0 0 0-2.864.121c-35.215 2.251-48.219 26.73-46.56 48.406 1.115 14.629 9.097 27.118 20.698 33.893 4.971 3.79 6.016 5.213 5.144 6.987-1.031 2.094-2.428 1.892-5.246-.701-40.289-38.544-97.028 6.736-71.929 56.716 19.955 39.743 75.958 30.546 87.963-14.174.955-3.555 2.492-5.099 4.145-4.124 1.173.691.244 5.3-.698 12.312.064 25.316-26.285 65.159-27.771 66.504l69.091-.06c-15.849-21.638-25.144-42.863-27.066-73.751-.192-9.348 3.305-7.356 6.265 3.243 13.504 48.355 74.997 47.904 88.944.8 13.017-43.948-35.926-80.675-68.367-51.089-4.664 4.254-7.822 5.043-7.886 1.942-.026-1.321 4.33-6.212 8.328-9.329 8.097-6.31 14.843-18.121 14.913-30.089.148-24.183-17.841-47.944-47.104-47.606zm-37.118 205.94h-.077c-.013.051.026.048.077 0zm286.78-194.689a5.543 5.543 0 0 1 2.761.621c2.876 1.463 3.414 4.016 1.666 7.788-.622 1.324-1.506 2.844-1.365 4.244 20.25 37.334 64.888 20.649 69.091 3.303.262-1.1-.25-2.305-.827-3.483-1.716-2.854-1.486-5.191.744-7.148 4.753-4.166 11.563.752 8.808 6.367-.73 1.481-1.493 3.104-.942 5.084 11.461 26.02 34.28 27.976 53.434 17.678-8.821 15.793-43.017 25.476-57.374-12.553-22.921 30.981-59.289 30.396-75.798-4.584-14.843 35.78-59.628 36.627-75.932 6.907-14.837 33.999-49.251 26.285-58.995 5.005 31.967 23.132 53.031-1.016 56.81-11.311 0 0-.736-1.202-1.755-2.202-4.094-4.015-3.978-8.737.256-10.61 5.433-2.401 10.513 2.811 7.726 7.927-.781 1.433-1.473 1.747-.961 2.983 9.949 23.184 58.944 29.92 68.867-2.603.339-1.858.147-3.575-.699-4.985-2.331-3.884.635-8.267 4.485-8.428zm-143.018 13.133c7.725.439 5.573 7.083 4.023 7.588zm286.959 4.144c.051.125-4.767 8.608-4.767 8.608-2.549-4.073-1.889-9.143 4.767-8.608zm-26.125 42.862s-4.939 10.914-6.566 11.831c-91.538-23.446-219.259-3.059-222.398-.801l-5.624-10.59c80.257-16.034 160.283-12.609 234.588-.44zm-553.86-3.704c-2.832.034-5.823.682-8.905 2.082-15.919 7.223-17.284 25.478-2.985 39.899 2.281 2.297 4.158 4.479 4.164 4.844.032 1.627-1.582 1.332-5.484-1.02-21.87-13.188-43.222 2.639-34.331 25.464 7.175 18.435 35.542 15.639 39.937-3.944.583-2.613 2.472-4.215 3.305-2.802.705 1.204-1.377 11.175-3.485 16.715-2.774 7.275-4.42 11.084-6.086 14.054-2.037 3.62-2.178 4.809-.602 5.186 2.268.541 27.06-.139 27.047-.742-.006-.332-1.05-2.754-2.325-5.405-4.978-10.359-8.777-28.29-6.426-30.329 1.326-1.147 1.768-.563 3.562 4.744 8.873 26.236 41.852 19.908 41.224-7.907-.429-18.922-17.745-27.233-33.351-16.016-3.555 2.552-4.606 2.693-4.926.721-.135-.787.487-1.695 1.743-2.542 19.763-13.364 7.77-43.241-12.076-43.002zM464.13 370.85c-8.834 34.085-30.23 37.554-56.073 41.7-32.005 5.135-52.864-6.526-62.621-24.344 0 0-45.778 17.297-62.479 27.347 34.728 15.911 80.615 51.143 106.701 91.148 9.296 12.198 8.828 9.438 8.809 36.195-.038 58.024.102 79.597.102 79.597 14.331 2.146 15.113 12 14.331 23.068 11.506-5.079 22.569 1.136 22.524 11.99-.096 19.949-19.692 14.529-23.767 12.33 6.374 17.584-1.108 24.864-8.744 25.728-9.417 1.064-20.225-3.463-17.073-23.587-10.262 3.988-23.267-3.26-25.067-15.376l-.5-20.52c25.394-47.776-6.489-86.622-36.419-99.396 0 0 8.469-17.507 19.417-22.422 1.115-.336-6.637-11.707-19.673-9.229-6.003.124-4.606.083-10.25-7.247-11.16-14.489-16.419-15.482-27.291.02-4.785 6.824-5.925 7.01-11.588 7.127-6.24.129-15.811 4.607-17.861 8.608-.467.916 1.98 1.851 5.228 5.646 4.676 5.461 11.89 12.963 10.749 20.6-24.644 10.027-65.535 54.029-22.543 110.367l-31.089.4-1.48-200.554-21.621 12.032.961 157.091-6.163-2.041c.468-50.108-.288-100.182-1.864-150.266l-57.015 41.54 2.543 235.548 6.067 1.282c4.497 32.093 68.072 9.647 71.787 12.431l.763 130.887-2.787 6.486 50.59 27.645 46.406-24.061s6.265-1.127 8.61-2.362c19.238-10.139 33.581-7.865 44.043 7.006 6.451 9.173 7.546 10.531 7.546 10.531 3.908-26.47 27.38-36.226 50.148-29.309 16.746 5.087 39.622 21.772 46.624 42.141 0 0 1.262 3.068 2.505 4.446l.961.416c-.064-.525-1.108-3.068-1.505-4.298-23.479-53.927-89.649-62.198-99.854-18.143l-9.372-13.131 49.27-30.209 67.323 44.301s-3.165 15.574-3.524 22.307l1.16.538c.333-.852.807-4.081 1.102-6.105 1.069-7.355 3.023-13.537 5.669-18.258 1.595-2.848 3.44-5.164 5.503-6.889 4.023-2.335 7.752-2.095 11.832-5.925l-9.827-7.347-.224-23.583 19.763 27.667c6.208-1.437 30.41-8.657 44.76-.661 1.621.501 22.672-5.499 35.772 23.862l63.101-26.204s4.023-2.266 4.068-2.863c-62.921-23.217-126.452-105.421-120.34-106.743 0 0-.179-8.435.301-29.128.512-23.067.237-46.614.621-69.757-21.409-6.837-16.086-24.094-16.086-24.094-12.876 2.823-14.926.324-18.187-1.942l-2.223-21.841c7.72-6.568 12.351-7.179 21.903-5.085 0 0-4.632-9.489-.423-17.297 3.549-6.175 12.986-10.073 20.526-5.725 9.737 6.635 6.63 20.539 5.24 22.481 10.128-4.534 22.505.52 25.548 10.531 1.518-29.604 4.087-62.745 10.032-88.566 10.948-46.603 28.886-95.409 51.346-133.789 3.677-6.412 8.366-12.835 12.152-18.838 3.511-5.347 5.183-8.809 5.183-8.809s-4.805 2.646-9.885 4.064c-7.316 1.983-12.819 3.87-13.658 4.704-5.349 4.502-12.364 7.839-18.097 10.33-20.206 7.865-33.793-3.864-42.185-21.776-4.67 22.749-25.516 41.999-56.266 30.036-17.373-9.22-22.832-15.114-39.078-39.17-1.364-2.458-4.888-5.285-4.888-5.285zm.673 3.717c11.493 22.729 28.706 38.833 45.433 45.27 29.872 9.792 49.577-9.332 55.132-26.9l5.765 9.761-45.228 32.108-68.245-43.383c1.14-1.046 7.246-16.331 7.143-16.856zm205.37 1.568l-20.263 11.931s-13.453 21.713-17.976 29.889c-23.639 41.742-41.377 87.155-50.628 132.208-3.741 16.498-7.707 46.632-9.033 61.119-2.107 23.11-2.005 32.599-1.396 53.792l1.582 1.721s-2.485 4.357-4.266 8.029c-4.837 9.976-6.022 15.618-5.727 27.186.672 26.617 16.854 52.097 39.718 62.48 1.288.585 3.004 1.341 3.004 1.341s-3.92 10.596-11.031 18.058c-4.747 4.976-5.759 5.22-4.081 7.667 2.332 3.406 9.859 6.363 19.219 6.226 3.305-.048 3.286-.057 9.404 6.607 11.948 13.008 15.535 12.741 26.406-2.002 3.229-4.383 5.068-5.433 9.789-5.546 6.944-.165 19.616-5.769 19.558-8.387-8.546-3.786-18.45-23.298-16.874-23.503 46.746-24.732 56.65-75.995 22.512-113.691l32.601-.52 1.204 204.498c6.381-4.238 20.82-13.353 20.82-13.353l-.48-159.132c2.242.426 4.529 2.032 8.885 2.741l1.281 150.465s4.241-1.72 7.931-4.124c18.219-12.001 53.889-39.758 53.889-39.758l-1.217-231.884h-4.766l.756 231.763-55.35 40.42-.359-144.04s4.369-.652 6.003-.881c16.201-2.266 23.703-22.925 12.953-36.414-3.818-4.789-1.108-4.45 7.009-6.006 14.388-1.269 22.364-12.147 18.174-19.9-1.794-3.325.545-2.966 2.063-6.125.999-2.485.814-5.567.384-8.008-.57-3.204.75-4.622 1.557-6.667 1.275-3.203.038-6.821-2.082-9.829-2.236-3.175-1.621-6.582-1.64-8.689-.096-4.709-1.8-5.382-6.784-9.929-3.773-3.441-.75-4.191 4.804-7.047 8.726-4.493 9.328-20.394-2.287-27.166-6.207-3.62-17.501-3.325-41.979.54-9.276 1.466-20.18 2.443-20.18 2.443s-.077-90.662-.717-137.393zm0 3.203s49.699 29.075 49.308 29.889c-16.694 22.86-78.95 113.95-79.398 224.096-45.657-5.729-64.35 29.964-66.567 29.829-5.996-134.823 48.719-231.283 76.753-272.223zm-31.352 17.737l-.16 3.303-9.853 14.714-.256-14.714zm-15.215 5.125l.359 23.703-20.18 15.415-1.178-24.724zm-187.041 5.425l10.371 7.167-.359 23.523-15.618-28.408zm283.877 7.928l.077 17.016c-39.789 56.12-60.66 120.218-67.047 201.395l-9.686-.321c2.562-80.72 29.737-154.371 76.656-218.09zm-269.463 1.742l24.542 16.035-1.057 26.826-22.288-14.294-2.075-5.485zm148.585 1.141l-.103 24.943-18.956 14.074-.884-24.764zm-229.784 6.526c2.812.034 5.061 2.082 5.586 5.966 2.082 16.578 14.696 11.793 17.694 16.776 1.134 1.7-1.55 3.176-10.186 2.482-15.829-1.184-27.373-13.988-19.282-22.422 2.082-1.911 4.266-2.825 6.188-2.802zm109.405 10.69l20.961 13.353-.058 27.547-20.544-12.532zm95.632.08l1.62 24.364-22.94 15.255-.82-24.204zm43.664.1l-13.171 28.047-76.855 55.294-63.786-41.3-11.826-27.066 74.408 48.547zm-207.259 11.131c20.423-.25 36.092 21.426 41.461 40.419 3.895 12.558 4.49 17.079 4.9 37.016.423 20.309 1.057 23.816 4.869 26.686 2.345 1.767 3.024 1.29 3.318-2.302.667-7.981 10.205-3.064 10.372 5.345.186 9.338-10.096 12.339-17.694 5.165-4.049-3.82-4.1-3.784-5.368 3.723-.839 5.029-6.701 36.51 8.27 44.343 2.819.267 3.492-1.993 1.397-4.624-4.196-5.277 4.196-11.368 11.031-8.008 8.271 4.061 7.431 17.385-1.396 22.122-10.103 5.419-23.172-.74-29.27-13.794-4.478-9.583-4.459-22.868.077-42.601 2.094-9.095 3.017-14.886 3.485-21.862.153-2.289.429-4.782.602-5.545.487-2.125-.564-2.226-4.184-.4-9.884 4.983-20.666 1.441-23.324-7.668-3.178-10.89 8.962-22.142 16.457-15.254 2.844 2.614 2.498 5.211-.903 6.887-5.894 2.902-3.876 10.54 2.383 9.028 20.647-6.178 1.768-64.115-21.48-68.126-15.375-2.652-27.438 14.858-16.317 24.224 4.357 3.669 8.783 1.7 7.829-3.484-1.326-7.23 8.277-6.449 11.832.961 5.778 12.059-9.142 21.874-23.082 15.195-25.016-14.855-7.918-46.99 14.735-47.446zm92.588 4.605l20.603 13.833.179 26.886-20.461-12.132zm45.382 2.322l.102 24.684-19.878 14.453v-26.265zm53.556 16.176l-10.173 28.327-64.165 43.882-52.928-33.192-9.109-26.205 62.357 40.399zm-416.429 2.061l-.019 143.399c-20.788.885-32.723 21.449-17.156 40.88 0 0-2.709.365-5.887.801-14.061 1.928-23.485 9.383-21.614 18.417.57 2.768-.013 5.564-.808 6.947-1.249 3.713-.916 6.549.763 9.749 1.319 2.514 1.102 3.524.365 5.385-1.595 4.008-1.217 7.096.66 10.15 2.312 2.266 1.672 4.096 1.358 7.728-.372 5.129.551 7.192 3.786 9.188 4.164 2.574 5.721 6.794.98 6.447-2.351-.172-10.628 7.807-10.628 7.807l-.781-230.122zm112.73 18.398c3.722-.009 7.553 4.665 13.056 12.552 3.325 5.649 3.383 4.883 10.987 4.585 7.77.566 12.505 2.618 14.535 4.965.769.888-1.268 1.12-6.182 6.105-5.099 5.171-5.804 7.226-9.193 13.013-1.217 2.087-3.875 2.283-5.125.381-1.005-1.54 1.576-6.548 6.407-12.453 6.822-6.583 5.387-7.246-4.523-6.205-6.964.731-7.707.383-10.352-3.844-7.88-15.672-12.07-15.143-19.616.48-2.057 4.372-1.243 4.091-10.173 3.403-7.028-.542-8.77 1.232-4.805 4.925 6.195 5.085 8.61 17.083 8.27 16.937l-4.785.44s-1.461-2.702-2.101-4.404c-1.294-3.447-4.786-8.625-8.565-12.712-5.362-5.792-2.422-8.959 9.545-10.25 6.669-.72 6.823-.812 9.891-5.305 5.407-7.916 9.014-12.603 12.729-12.613zm291.046 14.274l-6.912 24.464-54.728 38.377-44.523-29.709-5.907-23.002 51.148 32.391zm-188.707 19.379s15.823 30.819 21.563 50.789c4.997 17.372 11.935 67.673 10.109 70.768-3.888-5.336-16.739-4.133-16.912-4.084 1.083-5.892-3.677-17.769-14.638-20.119zm180.078 11.271l-5.464 24.083-46.605 33.693-38.463-26.266-5.042-23.282 42.563 28.427zm-270.943 1.341l6.047 2.102 1.14 43.502 46.625 7.747 1.063 7.448-53.991-8.709c-.57-18.552-.884-52.09-.884-52.09zm-23.665 1.301l1.301 50.589c-.5-.168-38.867 5.3-53.55 9.149l.859-6.926s26.669-5.801 45.983-8.029c0-14.146-.109-29.024-.134-43.441zm433.783 9.309s6.342.59 19.917-1.801c34.997-6.123 44.471-3.642 48.949 7.146 4.888 16.729-13.453 17.134-16.72 6.514-2.082-6.882-9.596-5.375-34.689.574-21.461 5.086-35.061 1.014-34.799-11.144.269-12.5 14.51-13.606 17.342-1.289zm-287.6-9.149c4.331-.062 7.905 3.401 7.969 7.728.065 4.327-3.401 7.885-7.732 7.948a7.823 7.823 0 0 1-7.943-7.708c-.065-4.327 3.376-7.905 7.706-7.968zm-113.691 1.381l5.529 1.662s.814 32.999.98 33.052c11.89 2.621 36.855 7.307 36.855 7.307l1.32 6.527c-10.449-2.454-43.761-7.908-43.761-7.908-1.038-14.311-.923-40.64-.923-40.64zm-40.339.621s.025 26.333-.417 40.48c.186-.125-28.27 4.53-42.723 7.527l1.121-5.285c11.429-2.581 23.87-5.169 36.452-7.808-.25-10.358-.237-33.072-.237-33.072zm20.32 5.666c3.472-.051 6.355 2.751 6.406 6.226.052 3.474-2.748 6.315-6.227 6.366a6.26 6.26 0 0 1-6.361-6.186c-.051-3.475 2.71-6.356 6.182-6.406zm473.501 16.436c3.869 5.735 7.117 5.564 10.929 5.005-.961.282-5.464 2.944-5.208 3.823.134.439-1.896 7.691 1.185 7.988 11.614 1.121 5.734 13.181 7.124 15.035 3.139 3.577 5.439 5.847 3.286 10.31-1.909 3.96-4.657 3.835-2.524 7.227 4.625 6.955-1.768 8.397-1.198 13.132.384 2.859 1.39 6.765.34 8.989-3.184 6.704-14.408 10.528-26.887 11.05-1.781.08-.429-2.826-1.262-4.664-3.088-1.951-1.397-5.237-.359-7.387 1.019-2.855 1.031-2.858-.884-4.304-5.324-3.31-5.048-4.836-4.625-7.227 1.166-7.071.07-7.762-2.063-8.809-2.729-1.341-2.358-4.323-1.14-8.148.839-2.643.243-3.306-1.038-5.705-.756-1.411-.987-2.177-1.006-3.083.384-3.651-2.883-3.638-7.463-.06-3.882 6.691-5.215 15.472-7.649 21.02-1.877 4.262-2.178 8.713.057 18.538 4.305 15.017 1.109 17.52-15.791 14.314-12.71-3.126-16.464-16.69-12.934-33.293.57-2.685.416-5.281.16-7.387-1.384-11.429 1.57-22.406 9.552-29.908 13.312-12.521 19.898-14.429 47.425-12.673 10.769.762 11.589 1.442 11.589 1.442s.051-5.184.384-5.225zm-198.252 3.443l-3.203 23.283-25.849 18.237c-12.166-9.608-21.564-6.407-30.129 3.884-6.784-3.44-20.339-12.813-20.339-12.813l-3.46-26.405 37.573 26.065zm-274.685 5.525c3.472-.05 6.316 2.732 6.361 6.207.051 3.474-2.71 6.335-6.182 6.385-3.478.051-6.355-2.711-6.406-6.186-.051-3.474 2.748-6.355 6.227-6.406zm270.36 23.844l-1.422 22.421-9.186 6.907-9.251-.941-2.184-13.893zm-270.52.18c3.472-.051 6.355 2.751 6.406 6.226.045 3.474-2.755 6.315-6.227 6.366a6.266 6.266 0 0 1-6.368-6.186c-.051-3.475 2.71-6.356 6.189-6.406zm25.343.7a6.269 6.269 0 0 1 6.367 6.186c.045 3.475-2.716 6.336-6.188 6.387a6.304 6.304 0 0 1-6.387-6.207c-.051-3.474 2.735-6.315 6.208-6.366zm-50.392 1.202a6.298 6.298 0 0 1 6.387 6.205c.052 3.475-2.709 6.336-6.182 6.387-3.478.05-6.361-2.732-6.406-6.206a6.297 6.297 0 0 1 6.201-6.386zm468.037 1.021c1.768-.144 4.395 2.486 3.12 6.426-1.711 4.496-.506 6.025 2.344 9.669 2.409 3.083 1.986 3.511 1.621 5.485-.557 12.945 7.784 7.35 4.164 16.756-.788 2.047.257 4.97.622 7.388-.814-2.214-16.157-2.012-17.457.24-2.185-.326-4.952-14.736-2.742-16.636.282-.006 1.877 2.471 2.703 3.863 2.057 3.495 2.499 3.367 1.858-.68-2.55-16.064-1.018-32.413 3.767-32.511zm-392.238 1.121a6.292 6.292 0 0 1 6.38 6.205c.051 3.475-2.729 6.316-6.201 6.367a6.266 6.266 0 0 1-6.368-6.187c-.051-3.474 2.71-6.335 6.189-6.385zm-101.942 1.161c3.472-.051 6.316 2.731 6.368 6.206a6.27 6.27 0 0 1-6.189 6.366c-3.472.05-6.355-2.712-6.406-6.186-.051-3.475 2.755-6.336 6.227-6.386zm246.798 1.821l18.86 12.232c.314 3.856-.186 9.377 1.076 11.251-12.306-1.147-18.533 5.866-18.533 5.866zm-193.544 10.11c20.641.151 40.641 3.441 59.213 9.449l-1.461 6.647c-37.156-9.564-78.687-10.068-118.373.44l-3.082-6.987c19.994-6.225 40.065-9.275 59.578-9.529 1.384-.018 2.748-.03 4.125-.02zm-116.714 9.029c5.407-.094 10.942 1.922 14.83 6.286 7.316 8.196 3.799 23.396-6.547 28.227-15.471 7.23-31.589-8.23-25.022-24.163 2.729-6.616 9.782-10.23 16.739-10.35zm382.988 1.942l-.237 6.666-4.709-3.924zm-98.476.3c6.823-.099 12.434 5.369 12.537 12.192.096 6.822-5.349 12.433-12.172 12.532s-12.434-5.349-12.537-12.172c-.096-6.823 5.349-12.453 12.172-12.552zm-284.172.401c-1.666.023-4.427.702-5.689 1.861-3.293 3.039.019 3.125 4.369 3.924 7.719 1.419 9.846 8.07 9.148 15.255-.641 6.529 1.557 6.428 3.318 4.004 7.201-9.868 1.057-24.248-11.146-25.044zm358.484 3.283c-.154.082-.34.2-.34.2.09.073.205-.02.34-.2zm-244.115 3.883c9.244-.191 10.212 15.009 2.044 31.991-2.46 5.105-3.709 4.47-6.406-3.243-6.644-19.012-5.202-28.55 4.362-28.748zm21.378.441c1.787-.09 3.51.59 4.926 2.202 4.971 5.665 1.147 14.834-12.088 28.948-3.223 3.431-4.888 4.74-6.067 4.764-3.312.069-3.299-.481.461-12.732 1.659-5.402 3.299-11.333 3.645-13.172 1.102-5.886 5.202-9.812 9.123-10.01zm-33.447 13.593c.903 4.21 2.486 10.061 3.504 13.012 1.012 2.952 1.685 5.759 1.519 6.227-.814 2.266-6.714-.815-10.929-5.706-8.489-9.85-11.871-18.418-10.116-23.018 2.575-3.684 9.155-5.32 12.191-2.098 3.126 3.326 3.594 10.452 3.831 11.583zm58.476-9.81c8.943 5.275-1.358 17.316-21.403 27.307-8.572 4.275-7.963 2.349-1.461-6.086 2.486-3.228 5.823-8.482 7.444-11.691 3.6-7.095 7.201-14.193 15.42-9.53zm-89.29.041c2.838-.024 5.747 3.013 11.134 10.81 2.403 3.474 6.298 8.415 8.668 10.991 2.37 2.574 4.234 5.136 4.145 5.685-.929 5.467-28.828-11.851-30.833-19.138-.686-4.445 2.806-8.419 6.886-8.348zm399.305 15.855c5.035 10.347 5.464 16.779 1.307 19.118-5.913 3.324-13.524-1.745-13.678-9.108-.051-2.474-2.594-11.108-4.926-16.717-1.915-4.615-2.178-7.464-.602-7.693 6.169.987 15.298 9.539 17.899 14.4zm-33.389-7.848c-1.948 5.915-4.011 15.148-3.985 17.837.013 1.057-.634 3.221-1.403 4.805-5.106 10.518-17.194 1.94-12.748-9.049 4.01-9.907 14.209-20.22 18.232-20.562 2.748-.233.179 6.102-.096 6.969zm8.142-5.678c2.018-.199 3.709 4.206 6.31 11.624 3.523 10.019 3.376 17.834-.416 21.16-8.13 7.131-16.663-3.222-13.377-16.235 2.627-10.401 5.202-16.323 7.483-16.549zm-272.718 1.835c10.115 148.916-66.221 263.487-71.66 266.612l-25.977 14.205-45.567-24.823c47.22-64.743 75.446-138.949 77.579-225.125 43.684 4.241 66.15-30.714 65.625-30.869zm250.328.473c3.184-.874.961 1.909-2.197 6.466-3.376 4.864-7.752 18.086-11.224 20.204-7.79 3.744-16.605-3.392-11.883-9.592 4.356-5.71 17.143-14.841 25.304-17.078zm46.336 1.008c1.224-.005 3.511.801 6.829 2.422 16.221 7.921 24.216 18.368 17.278 23.365-4.875 3.508-10.084.787-14.952-8.45-1.653-3.138-4.677-7.795-6.688-10.37-3.652-4.668-4.504-6.959-2.467-6.967zm91.192 5.305c10.423-.151 18.988 8.154 19.136 18.578.154 10.423-8.175 19.007-18.597 19.159-10.423.151-18.988-8.195-19.136-18.619-.153-10.423 8.175-18.966 18.597-19.118zm-5.746 4.899c-12.261 5.433-8.571 24.69 1.999 27.473 4.465 1.249 9.897-.609 7.662-2.756-13.966-4.383-14.056-14.676-8.431-22.21.903-1.211-.307-2.914-1.23-2.507zm-510.9 26.487c-.474 10.883 1.883 23.504-3.319 35.318-7.879 18.158-33.184 26.456-46.701 24.845-2.819-1.157-6.099-2.253-8.879-1.075-1.678.713-3.747.622-5.541-.212-1.73-.804-3.389.249-5.061-.355-1.96-1.324-5.163-4.329-4.785-6.566.608-3.154.365-5.492-3.325-6.526-5.112-1.435-6.15-4.197-4.645-12.293.327-1.748.718-2.54-.416-3.303-3.767-2.525-5.202-7.194-2.723-12.111 1.608-2.834 2.857-4.836-.045-7.087-1.14-2.592-.941-3.577 1.525-6.887 2.627-3.142 3.088-3.501 1.403-6.186-3.793-6.034.5-10.487 5.605-12.972 6.836-2.804 12.806-4.251 20.02-5.086 2.684.152 2.569 2.511 4.183 4.785 2.377 3.694-.974 9.037.961 10.931 2.793 1.289 4.061 3.864 3.844 6.065-.096 5.129.211 6.883 1.601 9.029 1.538 2.378 2.114 6.744.679 9.713-1.281 2.642-1.14 2.462.538 4.021 1.666 1.542 2.486 9.272 1.897 9.125l7.014-.643c-.736.781 2.633-14.455 10.635-26.234-.442-9.228-3.959-17.714-3.645-29.901 17.328-6.204 29.84 8.528 29.18 23.605zm269.162-20.736c2.505 1.965 14.927 5.421 15.375 5.025-.384 5.947 3.235 17.501 16.182 21.361.154 16.575.02 93.11.02 93.11-18.034-30.213-29.206-69.216-31.577-119.496zm-301.61 2.703s.692 2.205 1.326 6.466c1.102 8.706-.089 9.895-2.408 3.944-2.71-6.969-2.851-1.539.205 14.414.736 3.863.711 4.76-.244 7.367-.589 1.634-1.653 5.431-2.479 8.408-2.441 8.758-3.863 11.275-6.368 4.304-1.275-3.554-2.344-4.108-1.435-6.891 1.141-3.483.865-6.094-1.428-9.485-.372-.553-1.198-1.823-1.339-5.424.705-8.088-2.896-8.164-3.607-10.255.122-3.164-1.352-10.832.82-10.626 1.794.17 8.283.349 11.352-.781 1.364-.501 5.605-1.441 5.605-1.441zm268.785 1.001c6.695-.097 12.191 5.255 12.287 11.952.096 6.696-5.253 12.194-11.947 12.291-6.701.098-12.217-5.235-12.313-11.931-.096-6.697 5.272-12.215 11.973-12.312zm-187.227 7.387l9.193 1.742c2.043.682.557 127.374-72.993 218.811l-.64-21.18c34.997-50.649 60.199-112.764 64.44-199.373zm155.811 2.663l1.685 30.269c-5.176-4.4-18.315-12.636-18.219-12.813l.057-11.19c.013.023 11.301.865 16.477-6.266zm-70.827.42c2.217.933 4.151 3.077 6.048 4.624l-6.009 4.045zm210.527 1.521c39.673 11.768 78.738 11.428 117.368 2.824l2.646 7.406c-41.916 11.362-83.569 10.706-124.96-2.502zm-192.147 5.666l2.12 13.053-22.39 14.492 1.089-19.817 11.672-7.568zm198.214 10.871c3.613-.053 6.592 2.847 6.643 6.466.051 3.618-2.851 6.594-6.464 6.646-3.62.053-6.573-2.848-6.63-6.466a6.546 6.546 0 0 1 6.451-6.646zm101.935.54c3.619-.052 6.592 2.848 6.65 6.466.051 3.618-2.851 6.594-6.471 6.647-3.619.052-6.572-2.848-6.624-6.466-.051-3.619 2.825-6.594 6.445-6.647zm-190.924 20.364c2.934 10.342 2.294 33.712-1.48 49.564-1.134 4.76-1.825 21.656-1.825 21.656-.699.884 22.472-19.177 29.923 7.131 2.562 9.045-7.848 17.621-14.818 15.111-1.358-.489-.948-4.968.353-7.603 3.863-7.867-7.156-11.957-13.434-4.985-14.51 16.11.416 56.897 23.158 60.859 18.886 3.289 34.024-15.506 21.423-26.706-5.51-4.898-14.325 1.853-10.289 8.088 4.312 6.661-3.626 9.317-9.628 3.143-10.468-10.767 1.281-26.973 17.098-23.222 25.272 5.747 20.071 45.261-6.432 47.486-20.263 1.7-33.908-7.128-42.479-22.783-8.053-15.043-8.649-27.032-4.965-53.411 2.191-15.662.391-28.858-3.959-28.768-2.39.049-4.254 1.199-4.625 4.004-.776 5.737-1.435 6.808-5.029 4.724-4.562-2.646-7.098-11.169.365-16.936 7.649-5.913 17.559 3.314 17.156 4.905.179-.293.954-1.793 1.979-8.509 3.344-21.851-4.081-44.939-13.254-41.24-2.012.812-1.768 1.723.865 3.203 6.105 3.437.723 12.242-6.951 11.352-10.865-1.262-13.331-16.419-3.761-23.123 15.074-8.128 27.355 4.598 30.609 16.06zm-74.171-18.202s19.27 11.755 20.301 14.774c.654 1.936 1.435 18.799 1.435 18.799l-33.446-20.941-47.963 29.649c.788-6.508 4.24-23.263 4.24-23.263l25.504-16.135c.128.971 17.642 12.533 29.929-2.883zm239.489 1.121c3.62-.052 6.592 2.848 6.65 6.466a6.549 6.549 0 0 1-13.094.201c-.051-3.618 2.831-6.614 6.444-6.667zm-51.051.1c3.62-.052 6.618 2.828 6.669 6.446.052 3.619-2.87 6.615-6.489 6.667-3.613.053-6.573-2.848-6.624-6.466s2.831-6.594 6.444-6.647zm25.67 1.482c3.613-.053 6.611 2.848 6.662 6.466.058 3.618-2.844 6.594-6.463 6.646-3.62.053-6.592-2.848-6.65-6.466a6.548 6.548 0 0 1 6.451-6.646zm-64.267 9.289c17.367 3.614 34.779 7.328 51.435 9.149l.68 51.109-4.869-.28-.698-45.664c-16.086-1.152-31.256-4.604-45.504-8.288zm129.149 1.661l-.903 6.006s-30.045 5.201-45.741 7.227c-.256 10.288-.224 44.663-.224 44.663l-6.002 1.101-.026-52.03c17.822-1.937 35.618-3.94 52.896-6.967zm-290.764 2.883l35.375 23.383 4.164 24.784-41.237-27.407s-37.387 25.163-51.371 34.493l4.26-23.362zm163.3 4.625c14.241 3.013 28.482 6.145 42.723 7.367l.596 41.119-6.548-1.741-.518-33.372c-11.122-.964-22.544-3.118-34.03-5.546zm125.984 1.221l-1.204 5.585s-22.793 3.436-34.555 5.545c-1.038.239-.66 36.195-.66 36.195l-5.625.861-.66-41.98zm-63.844 4.604c3.62-.052 6.573 2.848 6.624 6.466a6.539 6.539 0 0 1-6.445 6.647 6.548 6.548 0 0 1-6.649-6.446c-.051-3.618 2.851-6.614 6.47-6.667zm-225.978 14.835l41.819 28.227s4.85 14.701 5.887 22.842l-48.129-31.07-60.218 39.918 6.969-24.663zm-253.487.861c2.479.033 4.958 1.692 6.246 5.505 1.819 5.366 5.202 6.951 14.113 6.786 17.495-.933 35.836-9.154 52.351-2.982 8.027 2.956 10.884 14.794 4.164 17.877-7.296 3.345-10.403 1.243-12.934-4.485-2.332-2.435-5.24-2.054-20.916.641-6.919 1.122-15.048 2.129-21.884 2.683-17.476 1.412-27.13-4.095-29.308-14.494-1.39-6.65 4.036-11.587 8.168-11.531zm479.106 9.549a6.543 6.543 0 0 1 6.644 6.446c.051 3.618-2.845 6.613-6.464 6.667-3.62.052-6.592-2.849-6.65-6.467-.051-3.618 2.851-6.594 6.47-6.646zm-128.124 7.988c4.703-.069 8.578 3.701 8.649 8.408.064 4.706-3.703 8.58-8.412 8.648-4.702.068-8.558-3.702-8.629-8.408-.064-4.707 3.684-8.58 8.392-8.648zm-97.438 5.965s34.421 22.993 50.353 33.613l8.808 25.304-58.616-38.117-71.73 46.664 8.609-26.024zm248.484 7.908c3.119 8.408 8.783 14.814 14.772 21.32 0 0-3.337 6.32-15.234 5.946-6.502-.204-6.848.816-9.071 5.225-3.645 5.587-6.611 9.236-8.968 11.051-4.164 3.208-11.98-1.585-18.418-11.331-2.345-3.551-3.319-4.39-10.391-4.244-10.859.224-14.786-2.788-9.148-7.668 4.92-5.992 8.456-12.58 12.857-18.878l4.882.561c.205.724-3.799 12.821-9.43 17.737-2.857 3.227 1.146 4.397 8.129 2.923 4.427-1.334 5.567-.811 8.847 5.965 6.836 12.927 10.391 12.303 18.501-.8 2.832-5.849 2.723-6.43 10.506-4.745 8.36.841 10.884-.208 7.451-3.123-6.945-5.89-10.769-19.779-10.769-19.779zm-248.183 17.316s62.243 40.766 62.083 39.879l12.473 29.388-73.05-48.587-89.251 58.037 13.357-29.088zm2.403 26.766l21.704 14.274-.064 25.685-22.159-14.895zm-5.567.741l.403 25.345-19.462 11.591-1.076-23.783zm-24.683 16.336l-.18.981.461.24.161.02.698 22.842-22.377 15.515.077-25.805zm57.316.28l20.404 13.613.839 27.187-22.146-14.494zm25.183 16.596l20.461 14.214.724 27.146-20.904-14.073zm-108.284.101l-.096 25.084-20.359 14.213-.961-25.625zm215.331 32.371c-4.042 4.211-5.535 3.689-8.988-3.264-3.594-7.214-8.975-10.586-16.778-10.449-9.846.171-3.408-6.284 7.028-7.047 18.04-.795 27.194 11.31 18.738 20.76zm-241.334-14.715l.538 25.165-20.256 10.53-.622-11.932 10.43-18.237zm-26.125 33.633l.699 4.584-3.742 1.442zm349.337 63.021c-.052-.007-.077.013-.084.077h.244a.558.558 0 0 0-.16-.077zm.16.077c2.613 1.729 25.919 35.516 27.546 72.035.904 9.67-3.28 11.51-5.368 2.32-3.389-14.96-12.793-28.05-25.003-34.855-61.679-22.857-88.021 54.545-47.361 85.845 14.471 10.47 42.377 9.29 52.184-5.18 3.056-4.51 6.138-4.07 6.528-1.23.193 1.42-.512 2.39-4.285 5.77-15.247 13.68-24.357 33.04-19.514 47.2 6.419 18.81 23.972 31.82 44.222 34.8 21.724 3.19 44.312-12.1 50.968-31.97 6.105-18.22.73-33.59-16.176-48.93-7.95-7.21-8.353-7.79-6.707-9.51 1.602-1.67 2.646-1.26 6.586 2.54 12.152 11.74 34.805 18.05 49.731 11.15 23.895-11.04 34.171-48.25 17.816-72.6-9.892-19.813-36.855-27.187-59.399-16.245-12.005 5.835-22.575 19.455-25.721 33.115-1.415 6.14-4.945 7.25-5.47 1.72 1.659-22.22 4.785-36.769 29.173-75.911zm205.28 38.142s8.885 18.343 10.211 28.003c.974 7.11 1.115 9.99-.826 10.03-.615.02-2.153-3.42-2.742-6.1-4.766-22.01-36.727-21.66-41.358.33-4.709 22.36 15.515 38.21 33.171 24.29 7.258-4.99 7.61-2.7.423 4.58-13.844 13.86-7.745 33.24 9.667 38.4 23.677 7.02 38.245-21.84 18.155-40.18-2.563-2.64-4.888-5.27-4.901-5.82-.032-1.41 1.723-1.53 3.101-.07 11.524 12.1 34.74 8.36 38.296-7.14 6.682-29.08-30.865-41.5-41.198-15.52-2.524 6.48-2.14 7.38-3.44 6.13-.731-.7-.526-3.38.275-7.03 1.627-7.36 12.133-29.685 12.133-29.685zm-310.963 80.133c-85.26 18.24-166.997 11.8-225.658.94l-26.804 45.81-1.845-.09-6.906 11.86.743 1.36s-22.274 42.74-31.653 56.22c109.572-1.06 350.08-1.59 350.08-1.59l-14.658-29.47.807-.8-14.478-30.76-4.702-5.33s-2.876-5.56-5.029-11.53c-1.973-5.5-10.467-20.54-10.467-20.54l-1.198.1zm-222.577 6.45c1.134.89 109.213 21.26 221.238.34l6.124 10.25c-98.047 22.57-239.905 1.01-234.306-1.08zm1.864 20.16c9.885-.35 19.898 4.96 26.644 13.81 2.152 2.82 5.669 11.13 5.669 11.13s4.728-7.83 9.366-11.75c7.021-5.93 16.118-10.88 29.289-10.41 12.127.43 25.471 6.99 37.515 25.97 3.043-10.95 42.883-48.14 75.695-1.76 3.754-12.33 21.314-36.94 49.751-19.75 1.941 4.16 3.94 8.73 3.94 8.73-16.778-11.75-44.447-3.86-50.987 14.48-.59 2.23.153 3.39 1.018 5.56 8.649 12.36-13.85 12.07-7.188 2.07 1.25-2.28 1.352-4.15-.64-7.13-5.272-7.91-21.153-17.75-32.806-17.5-13.46.3-28.373 9.23-33.357 17.33-1.839 3-2.255 6-.641 8.62 1.172 2.63.775 4.85-1.198 6.47-4.638 3.79-10.461-.59-8.232-6.21 1.467-2.48 1.243-5.52-1.762-9.73-6.028-8.47-20.102-17.39-32.351-17.14-17.527.4-35.234 13.03-34.113 23.42.493 4.57-.756 6.27-4.484 5.75-4.529-.64-5.048-4.92-1.839-8.41.474-1.12 1.243-3.83-.218-5.81-18.513-25.03-46.227-17.73-52.575-12.12 6.169-10.58 14.785-15.31 23.504-15.62zM305.897 1121c6.945.06 14.427 5.3 16.797 9.4 1.717-1.77 17.425-9.27 25.062 1.44-19.994-1.5-20.244 19.72-5.465 21.77-6.739 20.47 23.479 21.71 21.563 2.48 22.576 3.34 19.789-25.28-1.46-22.26 11.134-8.11 18.712-5.49 32.088 3.8 4.497-5.86 22.845-11.33 27.348-1.1-21.025-1.3-17.444 23.05-1.742 23.26-4.664 16.88 26.227 23.09 21.461-2.12 19.609 1.37 16.765-25.11-2.018-22.92 1.39-4.82 20.461-6.9 28.885 2.3 7.745-7.06 16.291-11.91 31.73-1.8-21.051-3.51-21.313 23.82-1.762 22.18-1.825 18.1 25.817 18.4 21.198-2.5 21.051-5.68 9.475-28.21-5.983-22.01 6.88-8.17 18.565-4.32 23.203-2.65 14.325-16.4 26.804-2.69 26.804-2.69-24.927-2.6-19.507 32.93 4.785 20.04-.025 7.31 3.114 13.64 13.037 14.68l11.787 24.4-334.14 2.2 18.437-32.42c1.864.58 12.524 1.55 14.811-10.94 21.96 6.96 23.434-18.6 7.027-22.64 1.986-1.38 4.235-1.92 6.547-1.9zm-13.03 9.24c2.185 3.51.353 5.8-3.408 5.89 0 0 2.447-3.55 3.408-5.89zm274.884 4.53l2.165 4.54c-2.345-.95-2.627-1.95-2.165-4.54z" fill-rule="nonzero"/></svg>