<svg clip-rule="evenodd" fill-rule="evenodd" stroke-linejoin="round" stroke-miterlimit="2" viewBox="0 0 934 1300" xmlns="http://www.w3.org/2000/svg"><g fill-rule="nonzero"><path d="M123.562 103.894c.354 329.691 3.862 734.857 4.106 1093.936l682.145-.16-4.544-1092.187zm201.639 6.999c117.69 3.194 236.108-.26 354.674.664 0 0-43.081 75.032-56.133 98.648-2.857 5.193-3.153 8.867-1.609 11.021 2.381 3.332 2.188 8.968-.482 12.228-1.146 1.396-1.667 2.301-1.751 3.138-.084.834.663 1.748 1.268 3.257 2.104 7.194-3.334 12.172-9.03 14.481-3.822 1.548-12.33 2.57-18.605 2.272-39.342-1.867-116.507-35.117-148.306-37.709-22.061-6.16-50.572-4.006-74.069-2.675-4.434.267-3.662-10.076-3.662-10.076-3.7-34.158-27.899-63.898-42.295-95.249zm361.064 3.118l111.223.12.502 17.96-46.801 47.967c-4.408 4.485-7.883 8.205-7.883 8.205l-.284 43.281c-31.902-17.142-38.26-37.625-44.085-60.155-53.326 39.343-55.823 125.44 2.395 169.763.476-19.253 15.149-57.085 41.15-59.892l.36 149.973-31.979-31.234-69.526.905c11.463-18.598 11.72-33.369 4.306-50.802-12.498-28.482-31.786-93.496-30.312-93.278 0 0 .56-1.398 2.136-1.75 5.76-1.285 9.429-6.848 7.781-13.535-.309-2.154-.302-1.648 1.165-4.445 5.657-9.653-1.081-20.131-1.081-20.131zm-368.865.904l41.73 75.44s-.541 3.459-.322 5.49c.328 2.922 1.307 5.522 2.98 8.246 1.107 1.802 1.918 4.263 2.169 6.536.412 3.745.412 3.747 5.895 8.689 1.152 1.038 1.371 1.677.946 2.755-1.815 4.583-.753 13.952 2.832 25.14 4.53 14.129 5.702 13.944-2.736 32.842-1.757 3.947-3.887 9.214-6.171 14.058-10.414 21.391-12.022 27.192 5.85 38.594 5.032 3.21 6.506 5.995 5.251 12.389-.991 5.031-1.19 8.245 1.229 11.082 1.564 1.838 2.987 2.141 2.594 3.559-.27.966-1.442 5.15-1.049 8.669 1.055 9.479-9.898 23.444-19.886 28.337-2.002 1.418-2.575-.313-3.707-2.293-10.349-18.128-36.118-10.782-37.83 10.841-.45 5.717-.27 8.196-1.75 9.412-.496.412-2.008 1.267-2.008 1.267s-38.563 25.079-63.09 37.971c-1.602.84-3.038 2.226-4.164 2.454-1.3.261-2.272.027-3.076-.785-9.055-17.219-4.035-37.559-3.257-44.768-.199-2.555-2.381-3.019-5.676-3.057-5.573-.066-13.599 5.59-15.343 10.86-1.486 4.48-2.433 7.381-3.784 7.361-1.352-.02-2.008-1.828-5.367-8.286-6.99-13.44-8.064-15.143-14.603-22.948-5.207-6.226-9.654-7.051-14.757-2.413-3.553 3.224-3.437.422-6.462-1.207-5.213-3.551-13.058-.373-13.251 4.625-.161 4.194-.2 7.346-4.447 7.623-4.724.308-6.777 6.415-5.445 15.124.702 4.584.837 5.32-.566 6.999-4.576 5.479-5.168 9.263-2.652 16.914 7.17 21.805 17.563 36.484 27.327 56.312 0 0-24.81 14.081-39.535 22.264l-.386-405.713zm482.18 21.56l.579 352.438-53.256-52.351s-1.036-67.537-.985-95.148c.052-27.612.457-55.221.342-60.356-.11-5.134.276-26.984.444-49.414.347-46.992-3.952-41.183 4.788-50.199zM695.501 178.73l2.934 8.507c-22.319 12.794-49.619 84.045.502 136.358l-1.004 10.78c-52.535-47.653-42.817-115.993-2.432-155.645zm3.816 10.056c7.665 15.807 16.379 29.804 28.26 38.373-6.398 15.273-9.152 32.123 1.692 54.845-7.607 4.172-18.168 15.245-29.102 37.931-39.554-39.957-30.75-97.887-.85-131.149zm-294.249 29.866c21.933.036 44.812 3.614 65.78 9.935 13.232 66.867 36.465 111.824 36.362 138.007 0 0-1.828-.308-5.728-3.118-9.557-6.898-22.1-3.049-28.819 5.732-6.371 8.324.045 19.902-3.218 24.758-6.178 9.053-22.075 25.794-24.739 25.24-1.937-.403-1.622-1.25 5.187-11.705 7.099-10.89 12.544-20.757 10.201-23.169-.998-1.023-1.525 1.139-6.822 10.338-12.427 21.59-23.362 34.939-27.693 33.204-2.027-.812-.978-2.602 8.225-14.762 10.4-13.734 13.283-22.325 12.247-26.125-.792-2.921-2.4 1.799-6.712 10.237-4.602 8.93-12.911 18.881-19.629 28.438-2.131 3.458-4.866 5.461-8.367 7.039-2.6 1.125-6.732 2.962-9.132 2.654-1.236-.157-.386-.883 1.306-2.533 13.264-13.657 24.662-28.885 31.136-43.502.998-1.917-.437-4.647-2.072-2.635-9.924 17.46-23.735 39.241-38.737 48.852-3.218 2.059-8.064 3.806-12.427 3.438-7.388-.211-4.775-1.854 1.95-6.173 14.39-9.247 34.586-35.829 37.849-45.232.772-2.222-.091-3.492-1.506-3.338-11.842 18.943-27.488 39.788-45.675 48.509-9.802 4.701-22.158 5.627-28.24 2.655-4.454-2.178-3.334-2.928 4.569-3.439 19.012-1.876 41.292-19.726 52.329-38.615 6.462-10.458 1.925-8.056-5.451 2.031-12.594 17.218-37.591 33.726-53.095 32.42-15.677-.928-24.7-13.077-22.686-23.49 1.217-6.3 5.696-12.721 14.462-14.561 15.014-3.152 24.842 20.634 11.101 25.12-4.679 1.527-6.461.369-4.769-1.509 10.195-4.461 5.664-16.708-2.934-17.959-5.413-.788-11.681 2.855-11.945 11.242.154 6.251 5.303 12.364 15.626 12.51 12.241.172 31.02-8.638 42.418-24.858 8.083-12.398.637-8.212-5.393.059-5.323 7.3-22.5 17.51-23.813 17.136l.586-8.407c.258 1.453 26.451-16.48 24.913-29.826-.978-9.687.438-12.65 10.522-12.529 7.537.09 17.126 2.735 19.913 6.194 2.87 3.423 6.088 4.502 4.665-1.267-2.31-9.363.457-10.907-4.968-9.131-3.746 1.226-7.066-1.779-10.825-4.444-4.125-2.932-9.351-4.186-15.581-3.962-4.659.167-6.757-.113-6.017-4.505.527-3.098 1.12-5.914.225-7.944-1.461-3.302-7.292-6.713-13.882-11.565-7.774-5.728-6.333-6.065 10.239-44.265 6.957-16.04 6.99-19.331 2.813-31.174-6.59-18.712-7.627-26.206 4.73-28.82 6.996-.802 14.21-1.198 21.521-1.187zm70.169 10.84l6.417 1.83c.045.006 20.028 68.393 31.47 101.785 3.495 10.188 6.153 23.954 6.822 36.886-.315 17.803-10.342 30.58-22.57 31.977-8.656.99-18.046-3.501-22.345-13.133-3.623-9.16-.888-19.964 9.557-23.691 18.085-6.453 31.33 16.626 13.593 23.732-9.171 3.674-17.885-2.949-13.754-10.66 2.897-5.405 11.044-4.819 12.975.765 1.57 5.942 4.164 3.139 3.05-.885-3.359-12.822-19.834-9.801-21.154 2.011 0 14.634 16.025 18.072 25.582 9.854 7.408-6.569 8.187-18.439 6.333-28.739-2.542-21.394-14.648-49.142-23.246-80.809-4.293-15.812-10.509-34.664-12.73-50.923zm255.274.764l12.048 4.767-.277 39.701-10.22 3.519c-13.367-20.427-2.252-47.969-1.551-47.987zm-244.172 2.575l8.83 3.398c4.833 28.024 27.628 81.595 35.673 121.576 2.246 24.029 2.6 31.081-13.676 43.884v-.181h-8.804s-.032-.538 3.816-3.42c21.322-15.942 8.599-51.072.547-78.073-14.029-43.122-26.56-87.238-26.386-87.184zm-82.519 2.795c-1.12.013-2.253.059-3.398.121-13.316.715-15.504 1.568-15.549 4.465-.077 5.454 2.156 7.875 14.538 6.536 10.722-1.158 26.252.505 36.948 5.108 12.208 5.252 15.105 6.49 19.487 8.749 11.012 5.668 9.088.029-.862-6.516-20.331-13.371-34.386-18.665-51.164-18.463zm96.073 1.931l8.282 3.157s2.195 6.46 2.98 10.157c8.064 35.774 29.997 76.007 32.559 117.854.579 13.714-1.77 26.499-11.823 32.682h-7.581c8.102-8.062 13.508-10.391 11.243-38.413-3.591-35.99-27.333-80.959-35.66-125.437zm14.699 5.812l7.645 2.816c8.798 48.31 52.433 120.494 24.656 155.323h-6.938c6.198-9.665 8.753-18.153 7.826-31.194-2.703-43.897-25.093-86.5-33.189-126.945zm12.813 4.445l8.225 2.514c11.166 48.947 54.086 129.157 23.491 151.341l-6.031-.161c23.047-43.088-11.893-87.674-25.685-153.694zm14.339 4.565c2.53 1.405 6.14 2.078 8.888 2.876 8.656 37.01 24.482 73.408 31.677 107.88 2.426 18.872-1.719 33.003-13.573 38.373H566.2c10.645-16.064 8.637-36.327 2.961-58.224-7.64-29.447-22.474-61.845-27.417-90.905zm-129.596.644c-3.823-.036-7.82.544-12.048 1.89-4.331 1.637-3.797 5.05.219 4.344 1.364-.239 3.771-.667 5.373-.945 9.867-1.721 22.024 1.836 36.762 10.76 3.558 2.155 7.426 4.231 8.385 4.947 2.71 2.02 5.599 2.012 4.608-.563-.399-1.031-6.082-5.433-11.101-8.246-10.748-6.495-20.736-12.079-32.198-12.187zm143.575 3.218l8.289 1.267c15.581 71.627 49.793 116.134 20.53 142.713h-7.317c8.006-8.18 11.623-20.985 8.965-36.121-2.71-15.451-10.69-39.976-17.313-61.542-7.677-25.001-13.856-46.142-13.154-46.317zm11.887 2.011l7.021 1.307c8.218 29.115 22.184 65.208 30.589 95.269 5.168 18.487 3.089 41.258-8.45 45.453l-5.934.101c9.795-13.087 11.192-26.719 6.719-44.347-9.184-36.183-23.085-67.76-29.945-97.783zm43.319.04c7.092 30.183 24.114 76.232 30.228 92.132 8.135 16.237 5.696 40.28-6.538 49.797l-5.793.12c7.002-6.543 9.403-17.56 8.29-28.981-3.147-32.275-25.994-77.038-34.271-111.419zm-30.789 1.428l7.24.663c7.247 31.572 21.354 62.262 30.506 93.842 1.705 7.128 3.192 15.835 2.593 22.243-1.248 13.437-6.815 24.034-11.7 24.034h-4.988c10.188-12.139 9.686-28.689 5.329-46.478-7.208-29.402-24.636-64.85-28.98-94.304zm-188.51.161c-3.018.015-3.069 2.777 1.751 6.999 2.947 2.582 2.722 1.721 2.555 3.358-.714 6.993.38 13.393 3.256 6.195.766-1.922 1.893-4.091 3.019-3.822 2.124.656 1.042 4.561 2.072 6.537 1.731 3.483-.109 4.336-4.325 3.258-3.031-.776-3.205.867-5.09 2.956-3.296 3.659-2.755 5.843 2.316 4.706.837-.187 1.545.052 2.189.202 1.583.363 3.031 1.367 6.796 4.243 4.846 3.695 11.706 8.62 16.153 9.372 7.125 1.206 5.535-2.208-.302-4.444-5.001-1.916-11.205-7.237-11.179-8.709.013-1.131 1.583-.46 10.593-2.936 3.913-1.074 9.409-3.478 11.726-4.545 3.83-1.762 4.01-1.748 9.995-1.569 10.201.304 11.758-.044 4.608-5.35-14.455-10.723-33.736-17.702-43.963-13.253-3.102 1.349-3.031.522-5.27-.765-2.929-1.681-5.316-2.442-6.9-2.433zm206.871.965c10.021 38.59 29.392 73.166 34.11 109.77 1.068 10.47-.689 20.699-9.39 29.544l-5.876.101c-.862.014 8.199-13.995 7.42-25.985.239-6.396-.469-13.257-2.291-20.031-11.385-32.544-22.589-62.039-31.297-93.057zm-180.902 12.671a.497.497 0 0 1 .154 0c2.735.428 2.832 1.515 2.034 2.936-1.178 2.106-3.257 6.154-3.257 6.154s-2.774.544-3.34-.161c-.997-1.45 2.658-8.716 4.409-8.929zm6.937 1.246c.303-.004.676.151 1.262.383 2.626 1.036 7.182 3.162 5.213 4.807-2.33 1.947-11.359 2.822-10.922 2.011l3.019-5.572c.637-1.183.92-1.621 1.428-1.629zm-27.654 33.728a1.287 1.287 0 0 0-.586.161c-.521.313.663 2.41 2.394 4.786 7.987 10.778-3.069 13.975-10.902 8.206-7.433-5.781-18.908-5.236-17.254.824.586 2.137.013 3.177 4.164 3.238 3.688.055 4.64.26 7.961 2.535 12.717 8.696 29.147-2.945 21.122-15.426-1.519-2.356-5.264-4.417-6.899-4.324zm31.374 16.834c-4.621 0-7.53 3.443-1.75 4.474 20.652 3.708 6.802 25.122-7.762 14.088-13.129-11.847-30.685-11.765-30.891-3.358-.033 2.116.064 2.188 3.172 2.775 7.318 1.382 18.246 4.709 22.429 6.818 2.458 1.24 5.046 2.399 5.754 2.574 8.746 3.179 19.963-.952 22.184-8.319 2.033-6.743.386-19.052-13.136-19.052zm-259.058 68.902c2.761.033 5.702 2.452 7.8 5.994 4.846 8.182 10.741 21.94 14.5 29.524a8.848 8.848 0 0 1 .927 4.525c.296 4.445 1.789 6.124 4.427 4.122 2.594-1.968 6.192-5.263 1.97-5.792-4.248-3.199-6.616-7.898-3.984-10.76 1.937-2.106 1.178-3.474-.38-3.559-5.953-.088-14.821-17.787-10.644-21.6 5.644-5.145 11.886 1.227 25.163 27.573 5.85 11.635 6.121 24.368 1.107 18.06-1.705-1.589-1.358-.766-3.359 4.244-1.506 3.766-2.735 5.552-8.47 11.061-6.976 6.709-11.204 12.011-11.359 13.174-.302 2.221 3.765.148 6.739-3.721 6.628-6.477 6.873-8.203 6.815.382-.058 7.764-.457 9.183.946 9.131 2.182-.083 3.347-6.225 4.363-13.636 1.217-6.676 4.686-10.043 10.459-13.757 1.583-1.019 1.609-1.723 1.306-4.666-1.068-9.43 4.299-27.014 6.738-22.665.341.978 1.403 3.265 1.97 4.867.457 2.481 2.02 5.282 4.408 5.47 2.961 2.219 2.954 3.419 3.977 11.544.335 2.653 1.513 6.632 2.337 8.749 1.531 3.938 2.902 6.245 2.053 7.421-.547.579-1.693 1.669-1.693 1.669l-48.352 28.66s-3.79 2.098-5.168 2.674c-3.829 1.73-6.159.452-8.044-2.413-10.246-15.258-17.274-32.399-24.476-48.208-4.318-9.384-.09-15.59 5.49-8.024 2.169 2.94 1.062 4.815-.019 10.498-.193 1.028.759.635 2.555.925 2.825-.304 4.189 2.218 4.087 6.496-1.783 6.13.682 2.82 1.847 2.514 2.233.033 2.728 1.376 3.983 3.922.779 3.589 2.362 2.55 4.666.181 1.905-1.958 1.912-1.91-1.931-6.496-6.635-7.19-15.838-23.422-18.219-33.305-.663-2.727-.418-4.904.077-6.356 2.999-6.751 7.176-6.774 11.726 2.655.772 1.605 2.298 4.19 3.379 5.752 1.75 2.53 2.832 4.704 2.774 8.729-1.345 3.372-1.564 3.44-.399 3.902 2.883 1.14 8.012 6.354 8.244 11.021.231 4.739 1.036 7.257 4.769 4.444 4.247-3.207 2.439-4.496-1.751-8.608-4.395-5.228-4.659-9.761-2.053-13.535.425-1.266.245-1.624-1.371-1.468-5.097.493-10.059-5.967-6.513-10.88 1.635-2.879 1.442-3.621-.862-3.701-1.203-.042-3.186.188-4.164-.362-1.512-2.828-4.659-6.78-4.627-10.016 1.486-4.549 3.797-6.384 6.236-6.355zm303.021.241c8.386 5.141 16.681 10.492 26.103 12.932-21.823 39.31-56.924 60.374-86.297 68.602.998 5.03 1.706 10.045 6.578 13.132-.168-.76-2.324-9.689-1.854-11.523 40.468-10.332 76.084-49.973 85.197-70.412l177.826-1.931c-131.83 126.459-137.082 304.44-29.521 453.62l-12.37 7.221c-82.886-124.146-82.042-243.758-57.181-323.86 17.627-56.793 49.253-100.178 73.29-124.974 0 0-96.414-1.325-144.405.443-6.97 10.665-13.451 19.375-22.828 29.443 0 0 24.385-23.546 23.755-27.633 44.471-.024 90.338-2.594 134.745.503-51.969 62.199-77.59 126.411-82.03 186.817-.168 7.857-.644 3.467-3.244 6.355l-8.199 12.731-6.577-13.233c-4.473-1.444-13.264.885-16.997-.463-18.284 81.573.193 180.027 24.256 244.275 0 0-6.043 3.386-13.476 2.819-8.135-1.808-10.124.438-17.177 1.867-8.103 1.544-10.935 1.531-12.73 3.584-.998 1.139-2.806 2.729-4.846 3.836-19.745 7.176-42.92 34.071-42.92 33.691l-21.74-9.756c20.034-39.336 43.544-53.494 84.874-70.955l-3.842-17.576c-44.02 16.399-72.035 36.028-94.123 74.172-26.804-.379-135.382-1.145-135.491-.804 44.284-50.36 79.204-126.327 83.021-185.55.933-11.537-.682-5.991 4.421-9.433l8.025-9.553 6.295 9.412s4.556 5.802 7.439.966c8.077-82.59-.463-176.763-40.262-242.407 7.06-.466 14.095-.662 20.859 3.339 15.561 35.248 24.739 78.796 28.716 111.438 5.039 41.316 4.331 87.917-.805 127.489l2.658.362c7.755-51.429 5.13-106.127-1.995-153.935-3.649-24.941-15.42-63.948-23.509-81.956-2.234-4.975-3.971-6.262-1.848-6.999 48.494-4.08 70.787-20.262 88.209-46.096zm-134.469 4.345c3.714 0 6.719 3.007 6.719 6.717a6.716 6.716 0 1 1-13.431 0 6.714 6.714 0 0 1 6.712-6.717zm364.508 3.419c-14.197 12.851-25.608 26.17-37.591 40.364 35.467 48.77 74.88 101.639 108.018 143.879 0 0 11.475-6.796 11.43-7.642-.026-.446-.921-2.692-1.133-2.192-.489 1.173-9.287 6.093-9.287 6.093L668.812 445.089s5.682-6.807 7.439-8.949c8.148-2.679 30.828-30.766 31.941-30.188 17.763 13.611 71.353 71.307 91.986 88.995l.264 160.149c-2.137 6.408-59.267 31.1-99.612 123.223-20.292 11.372-42.772 17.486-63.676 27.371 0 0 5.323 8.373 7.923 10.664-3.192-6.905-3.759-8.218 3.481-11.166l150.977-61.538-.277 12.427-2.459 21.457c-41.085 25.337-75.761 35.956-132.312 74.172-4.042.94-7.292 4.82-11.546 5.033-144.457-212.753-52.11-373.049 32.082-453.582zm-470.434 10.88c3.939.065 2.948 9.208 1.487 12.369-2.909 2.287-5.812.255-5.754-4.022.02-1.396-.251-2.713-.598-2.937-2.188-1.395 1.467-5.46 4.865-5.41zm88.228 5.712c3.321 2.519 4.55 5.874 5.773 9.231-4.479-.703-16.463-4.14-10.838-6.818zm-21.817 11.886c104.188 157.573 99.529 324.929-16.752 451.791l147.114-.225c18.728-36.948 49.922-59.473 89.837-73.342l3.482 11.604c-45.874 14.725-69.088 39.135-87.546 72.962H258.912c67.415-72.531 98.294-133.8 103.153-216.683 4.633-78.935-15.453-151.023-76.444-237.761zm29.36 1.81l24.578 11.604-3.643 25.22-25.743-11.866zm-44.304 7.079c131.405 198.779 75.047 338.604-29.868 454.969l-19.327.322-45.05-41.852.824 254.312s-43.924 43.03-48.97 48.19c-4.988 4.8-8.727-2.58-8.727-2.58l.116-337.133 1.95-13.213.605-72.64 27.995-14.764 104.987 137.603s-4.222 6.217-6.178 7.324c-1.268.714-.342 1.95.727 1.808 2.947-.386 11.359-9.789 9.589-11.301-38.08-47.18-108.88-139.557-108.88-139.557l-29.489 15.386s.856-60.312.322-83.464c1.133-5.461 5.226-3.998 7.987-6.435 33.955-21.822 57.877-48.458 72.647-74.293 1.081-1.931 7.62-13.529 8.263-14.581 2.304-3.755 8.013-15.492 11.34-22.988 1.86-4.19 3.842-9.266 4.589-9.875 20.427-6.651 41.871-16.094 62.388-24.576l-29.547-44.347zm-80.531 2.534c-1.107-.016-3.925 1.266-7.742 4.726-7.04 6.39-16.321 16.888-16.353 18.885 1.892.682 3.565-.404 5.071-1.93 5.889-8.694 14.996-12.094 20.331-19.71.83-1.408-.045-1.989-1.307-1.971zm66.192 9.231s20.382 29.701 25.602 37.59c-53.726 21.27-109.936 49.364-159.729 67.534v-11.906l7.864-21.379zm79.919 19.629l20.093 10.378-5.67 22.666-20.273-11.343zm16.572 37.71l16.514 12.027-7.542 19.227-16.63-11.444zm-134.726 14.098s-2.542 8.914-6.815 16.894c-20.434 35.501-40.43 67.05-81.734 94.445-1.577-1.399-6.076-9.272-6.076-9.272l-.405-10.518c21.901-17.593 40.803-30.507 69.809-82.137l8.411-3.418 7.157 3.097 4.846-8.648zm85.937.081c-19.037 40.385-37.765 82.04-68.097 113.51l83.002 115.862c27.307-81.804 17.171-158.474-14.905-229.372zm-104.439 8.809l-3.984 6.898 6.899 3.982 3.984-6.898zm-11.263.744c-15.04 33.621-37.611 59.489-67.234 78.094l-1.146-49.334zm5.29 10.036l-3.984 6.898 6.9 3.982 3.983-6.899zm169.64 1.448l14.963 14.198-8.888 15.667-15.342-12.69zm229.235 6.979a.064.064 0 0 0-.039.04c-26.296 81.735-18.399 159.806 17.679 227.767 17.699-44.053 32.231-73.533 66.791-120.431-21.283-27.863-82.294-108.259-84.431-107.376zm-404.751 1.307l-4.183 6.777 6.783 4.183 4.184-6.777zm114.737 9.532c23.709 56.67 21.618 107.764 9.01 152.045l-59.209-74.795c21.695-26.926 36.098-52.42 50.199-77.25zm-120.851.202l-4.479 6.577 6.571 4.505 4.486-6.597zm-6.616 9.412l-4.904 6.295 6.275 4.907 4.904-6.295zm195.068 6.697l13.412 12.731-8.469 16.512-13.612-12.449zm-202.81 3.098l-5.148 6.053 6.056 5.149 5.148-6.054zm432.483 1.789l59.73 77.069c-19.977 23.778-36.581 51.794-51.422 81.998-16.643-52.151-24.153-103.39-8.308-159.067zm-440.869 7.804l-5.509 5.751 5.754 5.511 5.509-5.752zm139.534 7.703l-27.333 39.519 31.336 40.002c3.372-21.654 4.132-46.791-4.003-79.521zm-148.441 1.287l-5.875 5.39 5.393 5.872 5.869-5.389zm-8.63 7.702l-6.198 5.028 5.033 6.195 6.172-5.028zm233.438 4.083l11.223 13.113-11.384 13.495-10.658-11.987zm142.674 2.353l7.62.282C525.204 737.452 549.77 799.847 571.51 854.1c0 0-.052 2.175-.786 2.819-3.539 1.216-10.702 2.536-16.449-2.517-29.244-75.169-35.629-167.767-24.192-240.535zm-386.145 1.589l-6.462 4.666 4.673 6.456 6.455-4.666zm477.732 4.385c-1.937 0-3.623 50.73 3.681 75.499l27.494-37.247zm-71.077 8.366l9.191 12.348-9.75 13.294-9.976-12.59zm-414.121 3.358c.464-.072 1.217 1.213 2.697 2.233 1.371 1.436 1.178 1.329-.361 2.554-2.407 1.916-3.121 1.608-3.076-1.387.206-2.465.386-3.343.74-3.4zm251.477 9.272l10.156 14.541-11.244 14.46-9.608-15.224zm161.84 18.423l10.703 13.032-9.197 14.299-11.681-13.655zm247.738 2.755l.946 15.023-3.701-5.491-6.796 5.209 4.743 6.295 5.934-4.625.36 6.053c-37.681 27.233-53.938 58.514-69.223 81.979l-6.796 2.87-7.742-2.452-3.784 6.7-6.577 1.544c-.2-.038 13.206-28.754 36.143-57.979 20.42-26.026 56.383-55.366 56.493-55.126zm4.363 23.51l.322 53.414-67.434 26.052c17.499-29.817 38.138-57.495 67.112-79.466zm-16.752-6.496l-6.153 5.048 5.31 6.094 6.133-5.048zm-9.474 8.045l-5.933 5.289 5.528 5.893 5.934-5.33zm-225.193 2.956l12.711 13.535-9.313 15.989-13.232-12.69zm215.623 5.692l-5.573 5.692 6.095 5.852 5.567-5.691zm-8.771 8.99l-5.349 5.913 6.475 5.611 5.348-5.913zm-8.811 10.076l-4.968 6.234 6.738 5.209 4.968-6.255zm-193.677 9.573l15.889 10.317-7.761 18.908-15.871-12.092zm185.993.081l-4.66 6.478 7.176 4.904 4.73-6.693zm-7.176 10.217l-4.325 6.7 7.26 4.659 4.305-6.912zm-6.417 10.117l-3.983 6.899 7.523 4.28 3.984-6.977zm-5.792 10.458l-3.983 6.899 8.327 3.598 3.302-6.578zm-157.997 4.26l16.269 11.025-7.201 19.809-17.171-12.151zm235.928 19.488l.804 407.628-179.132.62s-8.373-14.73-25.904-48.79c-7.421-14.41-13.696-20.54-14.339-31.96.669-6.7-2.426-14.31-7.923-17.37-1.847-1.03-4.936.21-3.906-2.66 1.139-3.15-2.343-8.02-3.295-9.05-1.081-1.83-.406-2.27-.521-9.07-.116-6.57-.464-9.32-1.873-14.28-3.559-12.53-4.351-18.8-2.311-25.3 5.29-16.49 10.806-29.131 17.937-44.506 4.151-8.997 3.514-12.511-9.21-19.044-9.531-4.891-10.799-4.839-9.596-11.989.567-3.347 1.088-5.458.387-7.08-.432-.984-2.015-2.362-2.942-3.153-1.242-1.062-.868-3.257.406-4.891 1.248-1.597 1.255-3.888.019-7.704-2.606-8.025 3.289-18.657 14.423-26 4.917-3.251 4.781-2.575 9.911 2.812 15.002 15.755 37.289 5.856 37.327-16.347.013-6.925-2.342-6.513 4.203-9.776 22.19-14.12 67.736-39.798 67.433-39.097 2.967 6.043 3.958 11.205 5.838 17.718 1.622 5.579 1.409 6.011.804 16.874-.547 9.821-.843 12.099 1.468 12.73 13.141 1.448 16.14-3.198 18.663-11.687 1.088-3.746 3.186-2.986 4.486-1.403 5 9.1 11.327 18.567 15.484 25.035 5.194 8.263 13.94 12.369 18.522 8.469.966-3.211 1.757-3.308 7.562-1.988 7.041 1.596 11.051-2.349 11.726-7.524.271-2.066-1.235-1.982 2.536-4.022 9.351-6.925 5.786-16.373 4.383-22.062.122.296 3.996-2.355 4.08-7.684.451-27.661-23.523-67.498-22.982-66.469zM573.202 794.91l19.024 9.197-4.485 22.725-19.546-8.792zm185.125 8.451c10.96 12.704 18.882 33.884 22.969 47.682 2.021 6.873 2.265 14.719.463 15.813-1.776 1.074-2.606-.078-2.272-4.184.277-3.423.38-6.075-1.087-6.036-4.254 1.1-4.415-5.342-3.984-6.861.29-1.01.817-1.718 1.049-2.272 1.049-2.497-1.693-2.156-4.524-2.188-2.51.058-3.16-1.467-3.038-3.842-.077-2.639-3.565-2.124-5.554-.122-1.815 1.828-1.435 3.983 1.03 5.489 3.533 2.163 6.873 7.485 15.098 25.827 4.782 10.645 3.366 18.2-2.33 18.117-3.951-.116-8.547-10.935-12.266-18.902-.959-2.059 1.448-4.363 2.291-5.47 2.188-2.871 1.853-3.778-1.39-3.823-3.032-.045-4.325.225-6.153-3.521-.689-1.409-1.184-3.559-.946-4.929 1.564-4.126-1.648-5.123-4.762-3.54-3.933 1.641-3.901 5.149 2.091 10.883 3.855 6.333 2.851 5.895-.804 10.155-.766 1.506-.309 2.433 1.306 2.452 4.634-1.409 9.686 6.938 8.302 9.796-1.416 1.229-5.303 5.682-1.544 4.826 7.632-2.072 12.279 9.107 7.78 12.898-6.706 3.359-8.295 2.31-18.625-18.323-3.205-6.41-7.066-13.296-7.536-13.998-.476-.708-.688-2.6-.669-4.125.45-3.733-1.139-4.582-4.383-3.096-2.433.58-4.634 2.581-1.551 4.486 3.604 6.211 4.878 7.208 2.896 8.785-4.498 3.585-2.548 3.443 2.497 4.447 2.472.74 3.727 2.014 4.402 3.54 2.607 5.85 7.228 14.107 7.685 15.787 1.531 4.292-1.23 6.217-5.007 6.036-3.952.09-5.76-3.031-7.685-5.695-7.182-9.982-12.356-19.874-19.687-31.214l.985-10.599s1.924.418 2.999-.097c2.105-1.017 3.36-4.331 4.563-8.733 1.924-3.823 13.303-12.537 17.66-17.216.804-.528 1.48-1.403 1.486-1.931-.025-1.711-4.936-.566-8.167 3.141-4.743 4.209-6.764 2.767-6.616-2.613-.463-6.648-4.517-3.314-4.723 3.173-.522 5.129-2.304 8.257-5.896 11.121-6.77 5.419-5.644 4.048-5.328 11.565.547 13.116-4.512 23.902-7.826 16.752-1.172-2.535-2.549-5.419-5.509-5.547-2.092-.09-3.128-2.143-4.28-7.221-1.718-8.212-4.112-13.496-6.301-21.058zm-168.636 28.252l21.92 8.734-4.1 22.924-21.72-8.302zm167.149 2.118a1.623 1.623 0 0 0-.502.116c-6.178 4.672-11.874 9.904-18.606 13.92-2.523 1.493-5.47 5.342-5.49 6.372-.019 1.004 3 .984 5.934-.296 2.787-1.217 18.683-16.148 18.703-17.519 1.1-1.209.991-2.664-.039-2.593zm-201.297 27.834c5.18-.012 2.155 1.526-9.152 9.371-11.044 7.658-29.238 31.883-31.355 40.867-.959 4.08 1.628 4.396 4.544-1.21 13.405-25.769 38.768-49.311 61.989-48.268 11.372.515 17.518 3.585 8.102 4.93-25.807 3.166-45.101 17.885-61.982 47.225-.013.657 1.531.624 3.295-.508 15.458-18.889 32.867-43.918 63.456-41.891 22.062 1.333 28.33 27.565 10.014 36.523-15.967 7.807-30.692-11.204-17.46-22.486 4.299-3.662 6.983-2.053 2.857 1.692-8.855 8.032 2.002 22.345 12.795 16.914 6.564-2.755 9.222-12.151 3.436-19.25-12.877-15.78-40.609-3.784-59.936 21.721-2.021 2.684-3.777 8.514-2.066 7.884 2.999-1.236 4.808-3.585 6.571-6.237 6.899-9.563 12.203-14.364 21.541-19.506 7.221-3.971 7.665-3.225 4.968 3.662-1.133 2.902-2.046 3.868-4.846 5.67-11.764 8.038-19.075 18.805-19.365 25.665-.212 5.007 3.449 11.546-.521 12.891-6.745 3.186-25.126.586-30.094-5.753-3.565-4.557-4.949-1.918-2.272 5.489 1.77 4.898 1.699 7.659 4.37 7.163 3.372-1.789 5.696-1.371 12.247 2.214 3.154 1.725 8.753 3.334 12.164 4.119 6.223 1.435 7.517.83 7.382 3.52-.039.824.244 3.147.064 4.608-1.01 8.103 5.754 10.858 14.982 16.186 5.387 3.115 3.263 6.32-2.979 21.74-3.244 6.98-6.011 16.37-10.014 23.45-3.739 7.96-4.061 16.68-1.648 26.61 4.473 18.44 7.691 27.81-.283 29.47-20.53 3.1-65.87 2.98-90.622-6.54-6.333-47.52-39.882-118.014-35.577-136.24 8.586 12.948 44.587 9.525 33.743-26.67 0 0 2.954-4.409 8.811-10.355 15.111-15.33 18.843-17.866 11.661-4.364-5.515 10.381-12.55 23.922-12.704 26.548-.129 2.091 1.499 2.574 2.774.907.939-1.242 2.059-4.247 3.037-6.538 9.004-21.084 24.398-40.095 35.011-44.671 2.735-1.178 2.594.077.708 2.394-12.486 15.536-22.023 29.901-28.8 48.654-.303 1.931 2.439 2.742 3.314.901 11.713-24.539 15.214-30.112 29.605-47.399 5.657-6.796 10.921-10.226 15.124-9.859 3.636.321 2.561.92-.805 4.505-2.568 2.741-6.365 6.551-12.511 14.281-10.831 13.63-21.727 35.814-17.717 34.65.695 1.853 4.112-4.042 7.002-9.673 7.916-13.29 16.327-30.86 35.126-42.405 3.932-1.629 8.225-2.562 12.016-2.601zm-363.659 4.28l33.485 33.466 67.35-.862c-11.108 17.26-5.174 44.014.946 59.653 12.003 30.653 29.592 81.258 28.298 81.988 0 0-9.795 2.53-10.677 8.73-1.312 9.21 2.678 8.53-3.076 16.84-1.3 1.87-.463 5.4.921 8.2.913 2.06 1.789 5.16.083 7.56l-59.408 105.99-112.748.54v-21.19l56.454-57.16-.688-42.05c30.795 9.15 41.369 40.92 44.007 64.46 55.618-50.76 54.247-127.18 1.686-175.118-10.239 50.668-46.935 61.198-46.131 60.198zm418.864 6.018c3.604.257 8.463.836 11.765 2.613-2.233 1.338-3.823 2.928-5.31 4.563-1.802-3.199-4.234-4.95-6.455-7.176zm93.357.36c2.999-.013 6.681 8.766 4.57 10.819-1.191 1.158-5.059 1.596-6.436.727-1.77-1.313-.869-11.54 1.866-11.546zM597.877 887.45a6.996 6.996 0 1 1 0 13.991 6.995 6.995 0 1 1 0-13.991zm-296.225 9.975l5.046.116c-9.171 12.267-10.413 22.828-7.157 38.132 3.656 17.222 31.561 81.957 33.363 99.777.084.81.161 3.07.161 3.07l-6.854.47s-.515-1.84-.727-2.55c-9.596-32.28-19.147-56.894-25.827-75.706-6.648-20.286-16.829-50.366 1.995-63.309zm36.883.116a.238.238 0 0 1 .123.02l4.846.038c-.18.11-7.234 15.24-7.742 24.417-.573 10.407 1.937 21.74 5.386 32.926 8.148 24.198 20.067 51.148 26.689 81.698.078.35.805 3.31.805 3.31l-7.176-.96s-.708-3.13-.785-3.56c-4.962-26.87-18.786-54.771-27.03-81.215-4.229-12.016-7.163-26.793-5.651-38.087 1.062-7.968 9.062-18.432 10.535-18.587zm58.624.065c-5.13 7.948-9.802 17.91-10.13 25.717-.303 14.538 3.932 26.805 8.16 39.644 13.02 39.533 19.333 60.383 25.846 92.093l-6.918-2.96s-.27-1.78-.425-2.29c-3.694-19.85-3.926-18.12-25.64-84.893-5.091-16.025-9.937-30.081-8.991-43.422.213-7.6 6.848-22.647 13.837-23.851zm8.308 0h6.455s-3.552 3.765-4.582 5.168c-11.282 15.638-8.012 32.423-2.413 52.432 7.703 27.525 21.952 58.314 29.405 100.274.135.78 0 4.83 0 4.83l-7.685-3.1c-6.982-38.47-24.205-78.366-32.5-112.971-4.885-20.318-3.495-33.157 7.781-44.22 2.825-2.182 3.539-2.413 3.539-2.413zm-78.78.218h4.827s-8.07 13.258-8.064 21.058c-1.345 13.966 3.713 29.399 9.519 45.572 8.919 24.855 20.71 54.916 24.333 70.736.142.62.624 3.45.624 3.45l-8.43-.44s-.438-3.83-.947-5.58c-9.724-34.025-19.197-56.028-30.363-87.094-1.693-4.698-4.39-23.284-1.21-35.332 2.497-9.454 9.711-12.37 9.711-12.37zm-12.929.02l5.206.141s-.778 1.416-2.773 4.827c-9.506 17.209-5.246 32.919.643 50.418 7.858 23.355 20.195 51.87 27.899 78.86.431 1.52 1.023 6.11 1.023 6.11l-7.523-.09s-1.525-5.5-1.628-6.1c-4.229-25.02-27.095-66.713-33.041-98.448-3.263-17.022-.464-27.564 10.194-35.718zm69.77 0s-8.219 14.249-8.972 22.184c-1.473 15.561 3.463 28.446 9.113 45.996 9.744 30.28 23.491 65.816 24.714 82.056.045.53.244 2.52.244 2.52l-8.469-3.02s-.38-1.7-.541-2.3c-7.382-29.39-16.109-58.655-27.834-91.645-2.897-11.134-6.694-22.332-6.359-31.895 1.718-12.782 3.894-16.225 11.507-23.793zm37.243.019l6.822.142s-2.04 1.094-6.899 6.275c-26.901 24.578 16.74 93.974 26.805 157.15.116.68.425 3.06.425 3.06l-7.504-2.69c-.708-3.15-1.242-6.98-2.111-10.42-8.154-32.3-19.031-65.508-29.019-95.634-5.605-21.952-7.652-41.279 2.413-52.091 3.154-3.732 9.068-5.792 9.068-5.792zm-70.13.039l7.26.206c-5.246 6.577-8.322 16.823-8.605 25.942-.277 10.78 2.607 21.264 6.153 32.359 7.285 22.75 17.679 47.481 24.822 78.171.399 2.04.734 3.34.921 4.23.296 1.4 1.107 3.64 1.107 3.64l-7.665-1.53s-.786-1.99-1.307-3.04c-.772-1.57-1.48-3.57-2.111-5.97-3.707-16.02-17.363-52.351-25.678-77.837-6.597-16.057-8.393-44.117 5.103-56.171zm90.648.283c9.286-.341 17.679 7.536 19.667 14.944 1.931 7.864-.54 16.733-9.19 21.115-14.03 7.105-29.135-11.796-18.059-22.203 8.386-7.884 20.801-2.047 18.098 8.045-1.744 6.571-11.707 6.995-13.355.36-.45-2.201-1.557-4.408-2.355-3.192-5.155 12.112 12.189 17.788 19.391 6.513 4.273-9.036-3.862-20.672-15.826-18.464-16.411 3.037-18.296 23.857-11.487 48.152 9.505 38.389 32.178 90.035 32.14 113.725 0 .32.083 1.29.083 1.29l-7.201-2.15s-.052-.4-.103-.75c-4.319-33.1-28.903-87.904-35.957-130.038-3.057-19.211 4.422-33.151 21.258-36.967.971-.219 1.93-.342 2.896-.38zm-71.199.302c-5.052 6.751-8.347 16.894-8.508 24.134-.148 10.607 3.655 20.936 6.802 31.98 7.955 27.268 26.541 77.639 25.859 87.059.193 1.01.708 4.15.708 4.15l-7.182-2.14s-.283-.45-.824-1.75c-2.394-9.36-13.772-49.464-26.528-84.147-4.904-13.939-7.292-24.803-6.957-34.045 1.036-12.755 4.685-18.078 10.278-25.183zm136.721 45.212c-18.612 1.061-16.817 23.747-5.29 27.59 4.125 1.139 6.545.154 7.201-.741.747-1.023-.09-2.587-2.799-2.979-7.82-2.568-10.619-11.778-3.553-15.639 3.862-2.021 10.021-.721 17.454 4.782 13.277 9.833 29.553 10.451 27.429.502-.515-2.414-1.557-2.736-11.282-4.061-7.896-1.075-11.455-3.572-14.898-5.432-5.432-2.928-10.214-4.145-14.262-4.022zm-266.44 21.096c48.081 46.955 40.951 120.545-.122 157.395-.843-2.98-2.639-10.26-2.832-10.06 30.885-32.13 45.436-84.82.721-138.827.231.206.997-3.9 2.233-8.508zm301.335 1.248c-.457.013-.856.058-1.21.181-12.447 3.404-15.028 15.709-6.957 20.774 4.949 3.109 8.752 1.204 2.593-2.555-5.277-3.218-2.671-11.674 3.72-11.584 2.8.045 4.698 1.261 11.81 6.5 5.85 4.312 11.359 4.653 12.607-1.191.747-3.481-.418-5.032-4.144-4.119-1.641.406-2.613-.559-4.846-2.11-4.969-3.45-10.394-5.966-13.573-5.896zm-306.303 9.21c43.338 50.307 29.424 102.767.199 133.507-8.019-23.68-27.693-38.46-27.693-38.46 7.414-16.44 11.835-33.62-2.027-55.31 12.891-11.64 23.58-24.452 29.521-39.737zm281.583 18.361c-2.034-.032-1.371 1.924 3.417 5.271 11.424 7.765 12.402 9.175 1.333 8.995-2.806-.17-7.209 1.82-9.699 2.65-14.448 4.82-15.143 4.44-22.062 2.82-2.304-.54-4.64-1.51-5.651-.59-1.557 1.43-3.314 2.37-1.345 4.49 1.429 1.55 4.1 2.73 7.344 4.59 16.778 9.6 18.303 11.91 38.028 12.42 2.259.06 3.418-1.11 4.744-1.12 3.224-.04 4.91.74 8.167 3.72 5.966 5.44 6.242 1.48 2.696-5.66-1.86-3.74-3.488-4.63-2.574-7.48 2.079-6.49-.882-7.78-4.769-2.03-2.909 4.5-3.237 4.4-5.992-1.39-3.649-7.22-1.937-10.56 3.598-5.85 4.196 3.57 5.271.92 6.899-1.91 2.15-3.71 1.821-7.04-2.008-6.76-2.207.17-4.267-.84-5.992-2.73-3.398-3.702-9.898-8.342-16.134-9.436zm4.75 19.556c.456.02.772.21.92.68.038 2.38-1.596 7.24-2.935 9.79-.425 1.14-1.158 1.28-2.188 1.49-3.462.64-3.701-.43-3.076-2.57 1.268-3.31 2.31-8.02 6.777-9.37.18-.02.347-.03.502-.02zm-8.792 1.64c1.403-.1 1.448.49.888 1.75-.997 2.15-2.761 4.17-4.067 5.85-2.767 1.8-7.285-3.68-5.284-5.1 2.781-1.11 4.879-2.24 7.781-2.41.258-.05.483-.07.682-.09zm-310.467 3.58c.753 0 1.513.16 2.298.48 10.484 14.16 9.769 35.71 1.628 47.63-.605.89-1.229 1.06-2.252.71-3.508-2.08-7.955-2.85-11.282-4.05v-41.45c3.424-.72 6.378-3.33 9.608-3.32zm276.377 3.38c-.798.04-1.133.59-.116 1.63 15.292 11.07 36.337 23.9 55.747 18.93 1.782-.39 3.218-1.36 2.877-3.2-.213-1.15-2.189-2.13-4.325-1.57-4.454 1.18-12.988 1.33-16.495.76-13.348-2.19-25.138-10.72-35.397-15.72-.759-.59-1.667-.85-2.291-.83zm-4.466 10.56c-.682-.03-.631.65-.2 1.93 2.156 6.41 23.793 21.35 40.887 26.29 14.679 4.24 35.757.07 34.534-6.9-.637-3.63-3.308-4.5-12.672-3.32-20.62 4.01-40.468-4.43-55.528-13.8-4.061-2.55-6.14-4.16-7.021-4.2zm-135.029 8.77c9.01-.11 17.937.62 27.597 2.23 18.786 3.21 40.564 9.03 58.983 17.56 31.31 11.75 70.678 20.82 104.079 19.59 8.154.22 22.892-.47 25.743-1.41 7.446-1.67 9.506-.09 11.282 9.15.316 2.01.94 2.59 3.521 4.34 3.958 2.69 3.295 5.33 2.818 11.25-.405 4.98 2.6 7.77 14.661 30.03 13.721 25.33 27.107 54.76 27.107 54.76-120.303-.09-235.072-4.55-358.168-.72 11.069-26.25 41.253-73.58 60.174-111.58-4.576-11.69 1.075-13.68-1.3-16.45-3.829-6.5-1.062-15.61 7.034-17.67 5.644-.64 11.07-1.01 16.469-1.08z" fill="#131f67"/><path d="M258.39 1188.69s39.422-79.7 56.032-103.57c23.9-30.3 131.766 13.16 185.411 24.02 21.804 4.21 72.348 2.24 72.348 2.24l42.246 76.14zm-81.861-90.55l-1.672-248.112 12.345 7.698 2.824 249.224-53.348 51.08-.296-14.96zm32.291-28.31c12.707-25.58-1.482-56.81-1.483-56.8 7.371 1.82 27.916-37.159 29.737-36.033 31.433 38.553 36.881 95.993-1.524 131.583-9.695-24.74-26.608-38.75-26.73-38.75zm23.456-175.482c23.886-24.405 42.83-43.42 61.76-70.731 1.552-2.226-100.771-132.188-99.18-134.466 15.782-17.444 36.941-30.261 53.404-51.326 0 0 83.909 109.841 85.844 108.878 8.498-34.376 14.725-65.497 13.106-101.427-5.181-91.928-44.463-148.206-44.766-147.099-13.289 84.461-143.844 212.392-169.546 203.277l-.149-59.024c1.557 2.953 82.713-52.216 104.108-125.127 1.541-5.238 64.513-25.39 64.07-26.16-2.66-6.844-30.21-45.816-30.21-45.816s11.13-5.183 12.366-5.165c35.706 44.402 62.654 102.896 71.822 158.596 11.126 59.994 18.321 172.78-101.986 295.948zm360.655-155.204c-18.827-58.429-18.313-118.92-9.657-161.156 13.208-76.531 61.575-131.331 100.366-173.116l16.832.008s-20.121 20.821-27.445 28.397c-12.561 14.414-30.761 44.482-30.761 44.482l100.395 131.227 57.223-12.368s-1.725 58.704.051 58.703c-44.477 36.813-76.438 70.131-99.385 123.763-14.06 5.204-60.682 25.301-60.682 25.301-22.162-5.419 65.949-143.557 49.19-145.898-6.903-5.693-83.328-108.792-84.819-108.579-35.233 107.863-.864 221.134 61.122 300.254-7.039 4.555-13.403 8.106-12.824 7.035-26.545-36.83-49.81-80.805-59.613-118.053zm-183.414-54.082c3.973 6.149 21.839-131.638-25.108-241.93 4.469-3.386 43.195-10.794 43.195-10.794l10.424 33.023-26.421 11.186 4.876 15.48c20.509-9.947 64.925-24.633 92.245-70.015 0 0 132.753-1.14 135.574-.903 2.757.23-27.073 28.815-55.36 86.683-12.922 26.432-23.206 60.632-25.343 100.758-.423 7.929-30.374-37.277-30.374-37.277 7.465-38.196 27.426-75.797 47.322-113.402 0 0-30.524-1.735-51.854-1.111-33.164 36.243-53.957 55.345-103.961 72.653 18.234 58.416 129.783 86.493 104.974 81.154-5.064-1.194-11.491 53.702-6.121 115.561 1.033 49.459 27.649 131.907 28.581 131.241 0 0-17.74 3.993-19.157 1.149 2.987-.72-26.393 6.718-26.393 6.718l-10.51-30.728 28.437-13.08-4.599-17.345c-.116.011-62.745 18.95-93.428 73.591l-137.196.16c52.913-57.416 74.493-114.199 85.982-189.275 11.229 2.013 34.215-3.497 34.215-3.497zm337.421-495.671c17.254-14.436 51.878-52.027 51.878-52.027l.452 19.26-39.297 40.864.401 252.299-13.299-12.74zm-18.159 92.343c-7.076 3.37-21.182 19.954-27.909 38.586-45.517-40.671-26.774-115.415-1.853-130.975 7.23 16.32 28.173 37.957 27.686 37.502-4.807 17.089-8.499 34.425 2.076 54.887zM325.718 112.361l351.095.616c-20.026 39.432-38.399 71.307-59.688 110.127-11.075 13.361-250.838-43.145-251.961-37.516z" fill="#e2cf00"/><path d="M689.12 1182c-23.006-44.81-52.541-85.43-86.43-120.52 33.742-36.84 61.868-75.002 85.905-116.693 24.764 41.497 51.969 80.673 89.972 118.563-37.665 37.07-65.954 77.52-89.447 118.65zm-553.191-43.53l-2.342-331.279 39.913 38.765 2.365 254.414zm691.349-92.12c14.536-15.39 27.743-32.47 38.637-50.905 13.706 20.295 28.247 41.075 40.269 51.425-13.644 15.53-26.545 33.54-38.98 52.09-10.837-17.3-22.598-34.74-39.926-52.61zm-508.224 27.92c-8.261 1.26-3.582-6.38-2.076-13.65.844-4.05-3.073-7.86-3.058-9.1.108-7.19 5.491-10.22 29.907-9.94 57.551 3.99 87.312 22.42 120.323 30.98 31.614 8.21 62.957 8.04 97.846 7.24 2.555 1.47 11.907 25.56 10.166 27.96-78.919 15.56-179.63-42.38-253.108-33.49zm142.242-171.536c-8.313-6.023-16.114-7.139-23.828-8.453 13.532-23.803 29.923-45.501 57.3-59.076l12.742 31.514c-16.103 8.277-31.912 18.136-46.214 36.015zm-166.259-81.848s-11.818 19.307-22.964 28.702c-33.144-44.439-107.254-139.06-107.254-139.06l-31.455 15.923s-.12-18.316.591-19.599c84.939-43.77 143.223-126.498 168.889-203.966 0 0 13.676 13.955 11.879 19.859-22.97 61.107-62.24 122.387-119.997 168.346zm105.937-90.15l107.24.148 4.749 37.281c-41.064 13.758-74.954 41.868-106.643 74.381l-50.861-.891c16.679-36.537 39.842-73.596 45.515-110.919zM797.997 573.68c3.471 10.51-.025 21.848 1.309 21.372-128.453 63.524-165.157 202.949-165.157 202.949s-12.191-19.306-11.637-22.289c66.486-147.77 110.965-152.17 119.513-168.218L640.902 476.632l22.878-31.107 108.453 141.131c10.786-4.965 16.929-9.123 25.764-12.976zm-63.332 191.17c21.778-39.174 44.251-61.944 66.638-77.61l-1.092 51.693zM134.138 611.101l.557-50.155 66.171-28.473c-18.296 39.877-43.133 61.247-66.728 78.628zm294.769-45.094l-3.915-35.276c40.165-17.519 75.653-40.95 104.296-73.021 30.774-1.478 51.799.607 51.632.19.053-.062-29.279 42.951-48.697 110.672zm332.774-370.556l36.562-36.94 1.153 329.663-36.722-34.944zm-321.31 268.435l-11.595-32.685c18.247-6.837 32.059-21.732 44.929-36.483 8.719 7.809 19.98 10.558 23.886 12.059 5.353 1.25-36.991 52.086-57.22 57.109zM157.578 238.16c39.153-38.211 64.601-78.51 89.188-118.576 21.571 44.085 52.79 82.654 86.26 119.937-34.5 37.499-60.711 77.653-85.877 118.077-24.738-42.607-50.778-82.552-89.571-119.438zm-90.253 65.847c-11.288-18.022-22.658-35.37-39.041-52.774 15.949-17.072 29.501-33.995 38.6-50.64 12.564 18.277 24.489 37.369 39.905 51.973-15.019 16.527-27.082 34.037-39.464 51.441zm304.505-87.65s-4.562-2.64-4.059-6.36c1.508-4.82-4.878-15.73-4.878-15.73 77.858-23.619 191.227 42.849 258.519 28.868-.566 4.698.21 10.301-1.696 14.731 2.119 9.416 3.614 9.719-5.577 15.468-47.275 13.376-97.095-15.146-143.269-28.781-37.671-11.864-68.267-8.841-99.04-8.196z" fill="#d40000"/></g><path d="M822.777 1124.01v12.4h9.789l27.886 62.58-26.701 43.71h-10.288v11.09h38.956v-11.09h-12.973l35.715-51.54v51.54h-10.73v11.09h35.573v-10.82h-11.691v-106.56h11.691v-12.4h-35.573v12.4h10.73v31.47l-15.176 19.54-22.742-51.01h15.176v-12.4zM23.329 46.215v12.193h12.467V164.47H23.329v13.132h36.234V164.47h-9.61v-30.089l14.555-20.159 21.82 50.248H72.394v13.132h39.52V164.47h-9.449l-28.93-64.603 27.489-41.66 10.185.201V46.215H71.971v12.193h11.314l-33.332 51.149V58.408h9.892V46.215z" fill="#d40000"/><path d="M321.706 107.712l14.216 26.781-2.456 1.668c3.871 6.451 7.161 13.709 11.122 20.108l2.857-.329c4.67 8.95 6.562 12.261 12.67 22.866l-2.755-.013c1.417 4.714 5.063 7.846 5.138 11.229.035 4.209-1.044 8.481 1.538 11.331 3.062 3.374 3.432 4.31 2.805 6.287-1.676 5.252 3.088 11.066 7.918 10.545 34.034-4.548 68.718-.688 103.388 9.788 24.932 7.863 47.068 16.67 68.026 22.862 6.601 1.973 19.961 5.083 31.455 5.925 31.878 2.335 49.771-4.16 44.399-17.42-.426-1.062-1.377-1.84-1.464-2.386-.156-1.009-.002-2.101 1.807-3.584 5.231-5.342 2.313-9.231-.878-15.145 0 0 40.947-73.142 61.396-109.587zm354.504 6.573l-29.882 51.59c-15.976-2.894-19.728 10.54-19.974 12.429-20.741-5.318-17.56 21.582-7.152 23.399.672 3.902-17.051 8.75-26.396-.391 14.358 1.923 19.444-17.069 1.907-21.29 23.115-17.184-20.252-42.912-20.77-7.364-20.393-3.591-17.74 23.357-4.807 25.452-6.617 7.295-26.072 7.498-36.241-7.88 17.298 8.984 26.66-14.203 8.688-20.694 22.176-19.448-21.245-37.379-20.229-5.954-16.371-9.7-27.628 15.031-5.771 18.825-1.25 4.45-29.869 4.485-37.132-7.019 20.297 4.63 21.228-20.072 3.325-22.083 17.968-22.809-27.652-34.345-19.994-3.217-17.63-6.972-24.287 15.004-7.122 22.062.955 3.497-27.799 6.472-37.862-6.144 22.098-3.316 14.365-24.731.052-23.018 0 0 .21-.616 1.013-2.7 6.758-21.496-29.578-23.293-24.541-.498.806 2.099 1.697 4.894 1.697 4.894-10.019-2.04-16.141 2.039-15.412 11.437 2.489 12.478 9.084 11.556 17.515 9.071 3.539 3.695-20.347 16.049-35.336 5.018 18.36-5.275 9.059-26.792-6.305-23.888-.632-6.867-8.096-16.5-17.828-11.801l-10.301-20.252zm30.029 286.613l-21.569.318c-15.154 15.468-124.863 116.528-106.386 269.182 7.904 65.293 26.134 121.781 74.88 188.509l13.027-7.642 1.991 1.329 135.089-77.709.069-23.596-156.802 65.784c-3.115-3.312-4.942-7.006-7.561-11.082l62.837-26.704s1.51-3.816 1.991-5.578c20.658-52.264 62.624-90.102 99.16-119.336-.193-51.459-.429-159.194-.429-159.194l-94.479-94.089c-12.116 11.076-22.86 22.47-33.603 34.831l108.47 142.778-9.618 6.258-107.33-142.037c12.712-15.285 26.509-28.613 40.263-42.022zm96.368 92.832s-.521-245.136-1.232-363.506l-56.298 57.756.217 248.472zm-4.785-340.168l-39.776 41.039.448 252.564-10.224-10.076.005-245.766 49.684-52.061zm-387.076-6.08c1.192 2.097.677 5.002-1.237 7.372-8.134 10.09 17.419 27.624 35.798 24.576 13.996-2.319 25.924-10.721 20.778-17.115-4.189-5.206-1.45-10.473 3.582-10.437 5.175.036 9.331 4.154 4.842 9.794-9.98 12.547 5.241 27.268 28.524 27.573 16.455.216 21.94-3.839 21.052-15.567-.411-5.492.665-7.01 4.49-7.843 6.1-1.331 9.182 5.664 4.118 11.001-10.927 11.524 1.493 28.471 22.168 29.564 7.563.401 9.057-.002 17.496-4.766 6.592-3.724 8.925-9.347 5.687-13.717-4.155-5.623 1.454-12.34 7.926-9.573 4.631 1.979 6.912 5.528 1.791 11.545-6.724 7.905-3.544 14.425 9.413 18.824 10.091 3.427 17.075 3.002 21.799-1.307 1.472-1.341 4.74-4.141 4.692-3.286-3.173 5.483-5.986 10.573-5.986 10.573-21.137 9.429-37.632-8.217-37.086-8.875-21.779 12.563-41.081 9.913-57.399-11.193-4.238 2.351-34.608 7.885-56.532-16.176-22.119 11.099-42.686 6.444-60.96-5.968-13.504 12.748-27.739 14.764-42.532 8.642l-4.382-8.812c1.108-.415 5.875 8.837 29.021 4.525 7.775-1.447 21.143-14.509 13.66-20.876-3.429-4.849-3.532-7.035-.506-9.975 2.979-2.897 8.064-1.406 9.783 1.497zm-56.706 11.555c1.295 2.501 1.466 6.66.042 4.163-.749-1.317-4.668-7.201-4.484-7.381 1.824-.152 3.631 1.73 4.442 3.218zm443.798 2.01l.26 325.929-33.869-33.603-1.628-255.332zm-392.251 15.782l10.663 6.706-19.096-.114zm59.956 5.609l8.954 8.698-18.828-3.947zm167.771 4.514l-4 8.206c-2.31-2.581-2.98-8.058 4-8.206zm67.68 135.497c6.796-15.261 15.893-34.696 30.62-40.878-10.964-21.776-9.537-43.545-1.763-55.481-11.12-10.35-22.533-22.749-29.614-40.579-35.132 31.02-40.781 94.735.757 136.938zm-1.049-130.978l2.418 5.958c-31.289 38.291-21.632 88.557 1.034 115.381l-3.254 6.757c-27.696-29.211-39.821-90.955-.198-128.096zm-187.048 21.66c36.257 10.638 65.29 27.22 107.21 12.447l.197 8.16c-26.68 17.125-79.831-.969-115.733-14.22-57.716-21.302-102.634-20.06-134.719-17.626-2.829-.554-5.074-7.93-.548-7.98 60.009-.662 50.312-8.15 143.593 19.219zm8.191-14.434l11.911 12.631c-8.943-2.805-17.635-5.921-25.722-9.794zm181.726 3.117l2.331 3.217c1.012 1.394-6.584 2.117-5.306.483zm-204.569 23.115c43.277 16.25 90.932 32.468 122.201 17.923 0 0 .199 6.193-3.378 7.947 0 0-3.298 2.667-14.331 4.185-50.602 4.153-83.446-16.795-124.288-29.175-15.494-4.696-40.387-10.386-65.942-11.445-15.179-.69-38.389 1.489-38.389 1.489-5.059-.421-4.987-3.408-5.031-6.335 43.995-5.866 84.45-1.489 129.158 15.411zm209.276-15.58a8.54 8.54 0 0 1 1.685.101l4.425 5.651-5.245 8.346s-4.63-4.262-6.983-8.446c-1.291-2.71 2.208-5.47 6.118-5.652zm-127.508 1.59l13.702 10.344c-10.302.506-21.901.89-33.381-3.669zm116.078 5.268c1.075-.026 2.207 1.114 3.538 3.379 2.55 4.352 2.213 5.186-2.739 6.777-6.499 2.089-7.006 1.63-4.908-4.203 1.435-3.973 2.718-5.92 4.109-5.953zm20.814 2.668l9.267 7.776c-5.12 13.313-8.47 30.209 1.807 54.465-1.141.075-7.797 6.646-9.889 7.767-5.866-2.459-18.786-50.52-1.185-70.008zm-10.536 10.183l-2.358 14.722c-.189 1.207-10.247-6.97-9.312-11.061 1.791-4.859 7.914-3.822 11.67-3.661zm-16.627 5.168c1.216.009 3.121 2.951 5.467 6.798 1.833 3.001 1.459 4.135-2.59 7.783-5.964 6.027-7.139 4.06-5.813-6.194.65-5.067 1.558-8.397 2.936-8.387zm12.329 13.341c.804.017 1.515.212 2.029.624l.68 14.339c.061 1.295-11.191-.51-12.665-5.973-1.869-3.498 5.587-9.079 9.956-8.99zm-14.858 12.121c.807-.115 3.326 1.562 5.715 2.976 4.14 2.459 4.231 3.54.661 8.125-4.195 5.387-6.278 4.523-6.918-4.846-.235-3.44-.497-6.108.542-6.255zm16.517 5.484c.36 0 .687.104.966.342 1.991 1.705 5.045 16.078 3.764 17.578-1.827 2.136-11.439-.705-13.581-4.083-2.035-3.214 5.349-13.835 8.851-13.837zm-11.756 16.921c1.102-.076 3.09.684 6.09 2.131 1.806.871 4.822 2.51 5.492 3.906 1.173 2.458-.777 6.103-3.296 9.127-1.67 2.001-3.227.513-6.456-6.195-2.602-5.394-3.674-8.844-1.83-8.969zm19.39 6.428c.225-.005.424.04.602.141 3.277 1.813 2.725 7.198-1.143 11.182-4.642 4.782-8.679 1.18-5.469-4.887 2.031-3.843 4.464-6.399 6.01-6.436zM441.466 422.239c-2.828.128-7.243 2.69-9.167 5.169-2.436 3.133-4.56 2.724-7.259 2.494-3.218-.048-8.103.663-14.722 3.68-3.757 1.71-5.463 2.096-10.965 2.374-3.588.181-7.182.667-7.981 1.086s-3.383 1.323-5.732 2.011c-4.807 1.407-3.094 2.77-.339 8.962 14.016 35.943 24.065 77.824 27.724 111.935 4.111 39.135 2.868 86.591-2.605 122.832-13.422.09-21.849-.598-35.982-.359-9.641 78.371-35.798 140.61-88.08 196.575l141.326.364c16.191-43.188 90.08-76.122 92.509-73.697l3.893 15.761s-53.154 7.597-88.948 75.047c3.656-2.214 16.992-.678 25.791 8.456 17.579-22.289 46.422-36.855 46.609-36.51l.961-2.687s5.291-1.799 9.935-2.682c1.491-.283 4.546-.86 6.58-1.571 3.135-1.096 4.687-2.266 9.533-1.853 10.076.964 20.188-1.954 19.97-2.009-29.996-82.74-37.084-157.422-25.37-244.181 11.056.086 35.29.502 35.29.502 2.438-24.376 5.527-48.766 13.014-71.782 9.61-29.549 21.205-57.018 39.87-82.135 10.545-15.774 19.748-26.999 30.643-41.784l-138.338.32c-18.309 30.771-53.585 56.469-81.935 67.175-9.648 3.625-11.01 3.089-12.609-1.448-2.857-8.106-2.721-7.763 4.828-9.915 2.517-.719 10.586-4.965 23.165-10.86 26.707-13.556 45.071-38.374 55.872-55.126 4.3-6.617 1.416-5.123-5.934-5.189-6.723-.526-9.802-2.606-15.849-8.246-2.229-2.079-3.182-3.56-4.201-3.439-7.898 11.34-21.152 26.299-31.497 30.73zm32.466-26.195c6.223 6.657 13.602 10.552 23.312 11.82-15.524 24.353-34.476 43.396-56.269 54.974L429.9 431.681c27.155-12.643 34.414-25.307 44.032-35.637zm225.492 9.911c-146.307 135.264-137.698 305.791-35.243 444.309l-10.734 6.453c-96.226-128.946-113.638-319.702 33.39-451.339zm-92.234 16.498l35.867-.073-24.42 31.648-32.761-.121zm-5.618.262l-19.949 31.449-53.804.693c-32.195 39.691-66.781 59.054-101.985 72.267l-6.875-33.892s55.742-13.441 91.843-70.946zm-54.681 2.601l-12.467 13.797 12.95 13.174 11.829-13.375zm28.238-.321L562.5 438.127l9.853 13.214 13.093-12.831zm-62.286 2.393l-2.148 20.655 16.249 5.329 2.372-17.658zm98.861.77l-11.795 18.437 17.76.281 12.412-18.356zm-185.655 4.711l11.513 31.903-10.108 4.874-10.252-33.317zm-13.62 5.118l11.866 33.003-9.938 3.278-10.903-34.35zm14.217 130.304c1.321 45.899 1.985 73.568-5.692 113.913-.404 2.108-8.642.24-8.642.24 1.043.348 4.641-45.592 4.358-74.448-.549-54.951-9.863-109.313-31.43-163.774 4.112-2.515 14.253-3.797 14.253-3.797 13.606 41.298 25.67 85.724 27.153 127.866zM282.997 441.03c47.234 62.665 80.994 147.683 75.349 231.566-5.41 97.541-42.396 153.757-107.338 221.304l-16.761.386c76.881-73.715 110.899-136.8 113.584-220.033 3.08-95.726-26.152-159.393-75.393-227.242zm-151.079 86.144l.17 22.827 160.914-69.016-23.206-34.189zm377.149-74.767l-17.517.885.583 17.678 18.256-.442zm156.144-3.359l104.283 136.74-25.809 19.166-99.414-128.493zm-81.731 9.34l31.21.482-12.069 20.024-30.164-.241zm-5.763.493c-14.355 26.69-34.151 57.123-45.267 106.306l-102.751.087c-.188-11.229-1.644-22.458-3.319-33.687 44.281-16.204 78.579-40.426 103.797-72.442zm18.995 1.409l-13.389 7.723 8.182 9.412 14.763-5.651zm-122.298 9.835l-4.427 17.417 16.655 6.416 3.075-20.695zm95.807 13.013l29.947.18-12.61 25.181-29.665-.443zm71.3-3.297l98.678 127.912-9.25 7.32-96.437-125.032zm-59.936 5.328l-13.491 11.242 10.157 11.726 12.443-9.936c.268-.209-9.109-13.032-9.109-13.032zm-130.966.925l-4.142 16.934 17.318 4.606 3.094-18.161zm-23.95 11.262l-3.519 16.673 16.31 4.405 3.437-16.07zm-134.673-1.672c.84-.167-2.725 19.843-7.97 23.451-2.509 1.723-3.802 1.343-5.982-1.004-1.49-1.617-8.279-12.683-8.279-12.683l5.793-2.914c7.037 11.246 7.03 5.807 9.69-3.778zm-27.044 11.526c2.298-.017 5.08 2.838 8.226 8.367 4.551 7.995 4.401 8.517-3.074 10.82-13.458 3.56-18.462 4.413-14.321-4.465 4.456-9.559 6.214-14.7 9.169-14.722zm40.058-1.586l9.203 15.761c-36.92 94.008-96.472 161.445-178.443 202.25l-.188-15.618c96.647-55.009 136.273-119.992 169.428-202.393zm251.036 6.796l29.059.523-7.763 22.224-30.892-.222zm-299.82-.97C232.567 567.819 200.249 617 135.625 658.522l-.257-14.974c72.574-43.736 103.944-125.659 103.938-125.685zm367.315-.096c17.203.472 35.301 19.231 33.464 34.693-1.293 10.897.798 18.982 3.76 14.521 6.559-9.858 25.87-3.305 25.693 8.532-.092 6.3-4.3 7.336-6.717 1.649-3.566-8.401-13.59-8.609-15.072.196-1.388 8.254 5.611 14.319 24.313 21.077 21.917 5.141 35.113 24.787 27.318 36.08-2.711 2.985-4.339 3.719-4.846 2.172-.147-.444-.685-2.773-1.19-5.169-2.482-11.835-8.155-16.807-15.049-12.743-3.454 2.037-3.013 4.734-1.003 8.291 2.684 4.736 1.004 6.576-3.8 4.163-7.58-3.811-10.092-12.84-2.738-17.005 8.745-3.497 5.784-4.25-5.388-8.025-23.782-8.126-33.985-23.03-35.235-51.426.454-12.944-1.312-17.559-7.402-19.327-5.571-1.619-11.882 5.461-7.886 9.19 2.178 2.027 3.948 3.869 2.795 4.989-3.693 3.588-12.943-2.238-12.846-8.488.06-4.086 1.606-4.929 7.722-9.734 1.697-1.332.248-3.845-2.235-3.881-9.348 3.012-8.686-9.352-3.658-9.755zm-53.876 3.278l-14.527 8.349 7.563 10.573 16.091-7.556zm-282.667 8.205a3.033 3.033 0 0 1 3.037 3.017 3.05 3.05 0 0 1-3.04 3.037c-1.667 0-3.014-1.368-3.017-3.037a3.016 3.016 0 0 1 3.02-3.017zm29.78 1.309c30.661 66.919 37.955 143.443 16.613 219.912l-82.8-107.729c31.766-35.767 53.125-76.716 66.187-112.183zm-111.99 4.914L130.9 560.103l-.405 55.401c41.28-28.172 58.789-57.013 74.293-86.444zm71.025-.462c7.277-.226 3.686 19.427-5.765 26.134-3.472 2.663-5.809 2.337-6.951-2.99-.595-2.761-3.498-8.604-7.161-13.307-4.261-5.471-4.214-5.605 2.011-5.993 6.866.104 12.499-3.195 17.866-3.844zm-7.196 8.352c-5.373-.079-6.982 2.434-3.785 5.872 2.697 2.896 4.832 2.276 6.637-1.91 1.101-2.551.115-3.919-2.852-3.962zM135.35 608.816l.18-47.021 63.183-26.605c-12.676 27.473-36.136 54.713-63.363 73.626zm561.323 37.986l-8.414 8.462-81.576-106.335 5.116-13.423zm-447.046-107.56c2.735.041 8.94 9.524 10.68 16.331 1.295 5.051-.076 6.118-9.653 7.542-3.965 1.087-14.69.037-13.815-2.816 1.553-4.118 11.823-21.071 12.788-21.057zm295.518 1.086l29.764.322-6.816 24.416-31.178-.463zm13.15 1.488l-13.854 9.594 10.958 10.8 14.681-9.071zm46.693 10.505l82.522 107.094c-24.62 31.315-49.174 67.288-65.32 114.836-29.381-68.718-40.134-135.607-17.202-221.93zm-335.142 9.111c1.673 0 3.04 1.347 3.036 3.017a3.044 3.044 0 0 1-3.034 3.037 3.025 3.025 0 0 1-3.016-3.037 3.01 3.01 0 0 1 3.014-3.017zm-9.489 4.083c5.149.365.289 16.771-7.469 22.754-6.108 4.718-8.741 2.53-10.153-6.102-.511-3.119-3.791-8.419-6.671-12.602-3.226-4.674-1.9-5.419 6.274-3.54 5.702 1.106 12.742-.247 18.019-.51zm275.782 4.009l31.209.189-4.806 37.076zm-304.083 1.717c4.921 4.584 11.131 20.669 7.944 21.827-3.705 1.347-20.484-.6-22.361-2.534-1.296-1.332-1.296-1.34 1.446-5.008 1.51-2.018 4.381-6.043 6.395-8.95 1.814-2.123 3.821-7.879 6.576-5.335zm17.376.549c-4.753.159-5.067.81-2.814 5.932 1.838 4.179 3.112 4.552 6.276 1.81 4.399-3.813 2.554-7.944-3.462-7.742zm547.795 3.218l1.125 18.281C678.383 652.795 633.46 793.284 632.81 793.279l-8.706-16.207c55.047-135.652 128.263-174.93 173.123-202.064zm-565.303 21.62c7.147-.149 9.228-.636 9.194 2.011.081 7.119-6.573 17.225-14.706 21.037-5.471 2.567-5.594 2.627-6.214-3.821-.473-4.961-2.092-11.347-4.667-16.431-.803-1.886-3.907-6.209-.008-4.979 3.898 1.23 11.945 2.276 16.401 2.183zm16.024-1.653a3.012 3.012 0 0 1 3.017 3.017 3.009 3.009 0 0 1-3.014 3.016 3.007 3.007 0 0 1-3.017-3.016 3.01 3.01 0 0 1 3.014-3.017zm-38.224 4.167c1.294-.038 2.528 2.623 3.998 6.536 3.203 8.509 4.19 13.123 3.241 15.125-1.464 3.084-21.151 1.093-24.496-2.354-.639.477 14.478-17.597 17.257-19.307zm14.175 2.112c-2.823.193-1.327 1.892.762 6.818 1.452 3.41 3.412 3.959 5.655 1.568 2.999-3.197 3.404-5.737 1.51-7.102-2.781-1.116-4.831-1.269-7.927-1.284zm574.167 18.493l.104 6.123c-4.674-1.393-7.568-3.372-12.892-5.144-3.27-1.096-5.2-1.876-2.314-5.315 4.518-5.387 9.366-8.755 14.87-12.093l.032 6.937c-8.803 3.901-7.946 7.502.2 9.492zm-346.78-6.225h33.143v21.881l25.921.001-2.011 24.938h-23.912v21.882h-33.143v-21.882h-23.675l1.914-24.938h21.763zm74.852.075c-16.781 83.162-1.385 171.454 24.509 243.385l-13.066 1.436C517.393 800.897 501.35 719 517.673 613.644c0 0 5.846-.105 8.465-.047zm246.01 1.615a3.005 3.005 0 0 1 3.01 3.016 3.006 3.006 0 0 1-3.014 3.017 3.016 3.016 0 1 1 .004-6.033zm-583.062 6.978c1.102-.033 4.468 1.421 7.46 2.253 4.502 1.25 8.046 1.791 12.151 1.87 8.237.159 9.313.084 5.769 6.858-2.551 4.879-8.304 11.329-12.329 13.294-5.693 3.042-7.88 2.63-7.537-2.977.035-3.801-1.612-10.411-3.762-15.123-1.674-3.665-3.581-6.12-1.752-6.175zm34.853 2.671c1.674 0 3.041 1.348 3.043 3.017a3.054 3.054 0 0 1-3.04 3.037c-1.667 0-3.014-1.368-3.017-3.037a3.01 3.01 0 0 1 3.014-3.017zm557.681-.398c2.331-.05 6.342 1.382 9.992 3.157 9.688 4.708 9.431 5.789-3.697 15.104-9.532 7.234-11.792 8.044-12.132-3.358-.339-9.61.699-14.793 5.837-14.903zm-597.501 2.755c3.848.056 8.103 20.077 4.647 21.861-5.385 2.779-22.05-2.635-21.983-7.2.02-1.484 15.637-14.686 17.336-14.661zm585.913-.825c2.3-.101 2.603 1.702 2.394 8.085-.111 3.38.467 8.894.705 11.464.492 5.336.028 5.704-4.185 3.319-2.695-1.53-8.18-4.032-14.119-4.546-4.859-.42-5.216-2.421-3.711-5.627 4.296-7.105 12.076-12.091 18.916-12.695zm-571.637 3.017c-3.353-.024-2.522 1.76-.441 6.778 1.476 3.555 4.031 3.894 6.66.865 3.679-4.243 2.953-6.487-2.395-7.301-1.13-.171-3.045-.336-3.824-.342zm567.194 4.767c-1.399.13-3.305 1.233-4.223 1.83-3.157 1.977-4.437 3.4.138 4.967 4.075 1.395 6.24 2.002 5.916-1.508-.194-2.114-.031-5.183-1.831-5.289zM454.5 636.771l.001 21.801h26.384l-.001-21.801zm287.515 1.891a3.01 3.01 0 0 1 3.018 3.017 3.017 3.017 0 0 1-6.032-.001 3.01 3.01 0 0 1 3.014-3.016zm-493.939 3.399L331.317 748.9l-5.531 13.935-85.736-112.79zm550.519-.503l.178 13.962c-9.403 6.881-69.121 50.157-100.022 122.998l-16.175 6.885c22.773-62.688 71.468-116.384 116.019-143.845zm-633.243 5.913c5.423 1.648 10.596 5.416 15.708 6.093 5.883.716 7.911.342 6.319 3.379-3.57 6.801-10.3 13.924-17.396 16.25-5.082 1.665-7.478 1.043-6.682-2.111 1.5-5.905 1.753-10.751 1.552-16.129.805-2.932-1.704-7.04.499-7.482zm-6.356 1.247c3.456 2.954 2.773 21.623-1.083 25.642-2.013 2.101-7.862.183-16.632-4.787-5.736-3.248-6.801-5.23-3.94-7.22 4.847-2.943 19.048-14.334 21.655-13.635zm594.704.402c1.797-.039 4.025.272 6.698.885 10.374 2.33 12.688 4.699 3.842 11.725-3.271 2.597-6.733 5.824-7.739 7.059-4.763 5.834-8.074 1.603-9.111-8.99-.731-7.415.386-11.637 6.31-10.679zm-12.988 1.005c1.687 0 2.766.88 2.735 2.977-.041 2.679 1.879 14.266 2.955 17.457 1.868 5.427.514 6.652-3.982 4.284-3.271-1.766-11.944-3.104-16.63-2.736-5.337.42-5.183-1.008-3.623-5.49 2.766-7.942 13.486-16.488 18.545-16.492zm-570.287 3.862c-2.027-.006-2.114 2.727-.725 8.99.441 1.992 2.156 1.869 5.388-.402 3.826-2.688 3.669-4.376-.643-6.959-1.777-1.065-3.099-1.626-4.02-1.629zm23.592.683a3.007 3.007 0 0 1 3.01 3.018 3.017 3.017 0 1 1-3.01-3.018zm536.837 11.726c1.449 1.411 6.805 1.353 7.722.502 1.419-1.303.76-7.357-.418-8.084-3.02-1.026-9.106 5.349-7.304 7.582zM231.242 677.92c1.817 8.632 13.959 8.155 12.586-.845-.796-5.255-.984-5.145 1.653-5.028 12.534.614 10.358 20.372-4.085 18.845-3.013.36-3.414 1.594-.865 2.655 2.537 1.054 12.245 3.544 13.738 3.54 15.713-.055 38.388 24.109 37.83 45.553-.364 14.026 4.389 24.119 9.254 25.26 3.866.905 9.476-2.607 8.985-6.896-.668-5.927 4.147-4.078 6.923.18 4.228 5.875-1.232 14.358-11.306 13.691-4.289.839 3.149 3.564 8.663 5.155 4.996.287.774 6.444-.153 7.541-2.825 3.278-12.089.771-19.349-5.092-8.916-7.199-12.743-16.845-13.799-35.8-.674-12.184-1.583-14.659-5.128-9.63-6.37 11.204-21.625 5.721-23.528-6.112-1.067-6.268 4.452-10.793 6.231-5.11 4.729 11.805 16.307 8.971 14.422-2.758-1.241-7.735-8.98-12.002-24.275-16.309-18.382-5.178-23.851-11.47-27.435-26.548-1.581-6.674-1.333-10.166 2.198-13.656 1.736-1.724 3.962-3.479 3.962-3.479s2.454 10.144 3.478 14.843zm480.879-9.569a3.017 3.017 0 0 1 3.017 3.017 3.01 3.01 0 0 1-3.014 3.016 3.01 3.01 0 0 1-3.018-3.017 3.01 3.01 0 0 1 3.015-3.016zm-577.016 2.866c5.475 1.983 10.18 4.919 15.823 6.839 3.66 1.245 2.662 4.176-1.132 8.339-4.227 4.993-8.383 7.449-14.245 10.231l.059-8.44c7.125-2.487 11.658-8.423-.307-10.325zm591.262 4.711c2.072.019 5.006.094 8.45.805 8.722 1.802 9.745 2.578 4.506 8.709a662.778 662.778 0 0 0-6.417 7.622c-5.153 7.185-7.936 4.72-10.334-4.566-2.983-9.695-3.664-13.414 3.795-12.57zm-563.908 3.459c1.667 0 3.014 1.348 3.017 3.017s-1.347 3.017-3.014 3.017a3.008 3.008 0 0 1-3.017-3.017 3.01 3.01 0 0 1 3.014-3.017zm555.112 6.569c.834 3.064 2.098 6.964 3.059 9.728 4.734 10.44 1.741 6.403-6.746 5.482-5.698-.619-14.778.332-17.022-1.244-.975-1.271-.073-4.624 1.757-8.407 2.573-5.324 7.255-9.862 10.741-11.921 8.846-4.084 6.784 1.108 8.211 6.362zm-509.648-3.713l95.079 125.71-7.455 10.631-97.797-129.255zm595.88.47c-49.421 35.717-68.402 79.066-72.261 84.727l72.463-27.951zm-94.364 4.096c-2.71.745-6.603 5.77-4.932 7.743 1.005 1.029 4.987 1.164 6.898.463 2.948-1.08.937-8.221-1.966-8.206zM292.764 822.764l-20.257 25.525-105.522-136.502 26.627-19.226zm505.772-132.666l.743 46.914-61.978 25.844c20.759-35.063 41.082-56.738 61.235-72.758zm-423.795 3.978l24.823 32.316-30.331-.684zm313.887 2.645a3.008 3.008 0 0 1 3.017 3.017 3.016 3.016 0 0 1-6.031-.001 3.01 3.01 0 0 1 3.014-3.016zm18.197 7.646c11.351.156 15.138.771 11.841 6.35-4.409 5.446-7.011 10.62-11.818 15.657-2.772 2.823-6.242-2.999-9.135-12.313-2.339-7.522-1.16-9.418 3.289-9.48 4.443-.063 5.199-.223 5.823-.214zm-13.118 10.176c.933 2.972 3.106 7.858 4.83 10.841 1.724 2.98 3.661 6.297 3.541 6.874-.289 1.398-1.617 1.51-4.603.382-6.475-2.914-21.675.165-22.081-1.271-2.254-3.22 1.132-11.995 7.515-18.073 3.123-2.969 5.976-4.9 7.625-4.929 1.648-.029 1.949 2.256 3.173 6.176zm-530.367-2.31l107.376 139.448-7.433 9.041-108.577-142.134s-17.148 8.394-22.192 11.201l.684 72.123-2.939-.142.44 365.3 59.919-59.74-.782-247.871c12.714 11.958 23.592 24.715 38.145 36.435l24.914-.197c65.052-66.161 100.681-122.781 108.495-224.177 5.233-67.834-17.303-153.133-77.077-235.801l-14.6 8.864 28.842 43.462-61.093 27.074c-24.328 51.295-53.177 98.637-105.934 125.748l-.29 66.392-.926 1.373.701 20.847zm524.988 4.762c-2.855.214-7.315 6.364-5.273 8.467 2.413 1.142 6.122 1.062 7.677-.998 1.059-2.018.787-6.289-2.404-7.469zm-320.315 14.363l31.537.176-8.246 27.056-30.713-.58zm299.556-.121a3.013 3.013 0 0 1 3.017 3.014 3.01 3.01 0 0 1-3.02 3.017 3.013 3.013 0 0 1-3.017-3.014 3.014 3.014 0 0 1 3.02-3.017zm-160.656.821l4.072 35.133c-34.393 12.505-71.477 33.722-103.911 72.729-5.542-.361-49.769.384-49.769.384 1.104.161 40.975-75.083 45.568-107.739zm-124.899 3.273l-14.458 9.935 11.302 12.049 14.964-10.138zm300.954.149c3.077-.016 7.197.359 10.501.945 5.331 1.034 6.114 1.132 4.318 5.535-2.394 5.834-7.8 16.359-9.167 17.198-4.887 3.023-15.743-18.687-12.04-22.439.979-.768 3.054-1.22 6.388-1.239zm-13.828 6.676c1.399-.124 3.263 2.593 3.814 4.933.67 2.844 5.59 10.012 8.697 13.446 3.895 4.317 3.691 4.925-1.897 5.367-6.652.532-13.151 1.84-16.895 3.203-5.805 2.105-6.595 1.641-5.851-5.15 1.12-10.214 7.942-21.435 12.132-21.799zm-5.097 21.138c.731 1.976 9.735-1.656 10.234-4.029-.084-1.063-3.618-7.228-5.744-7.51-3.602.561-5.111 8.741-4.49 11.539zm-304.286-1.385l29.803.281-9.773 24.551-29.466-.076zm13.343 3.286l-14.282 9.036 11.12 10.759 13.677-9.433zm303.092 4.454c2.531-.026 5.21.221 5.773 1.145 1.583 2.609-4.867 17.177-4.867 17.177l-10.507 4.166c-2.261-4.648-6.121-9.48-7.056-14.517-.373-2.201.742-3.006 3.173-4.366 3.621-2.034 9.268-3.563 13.484-3.605zm-28.143 1.19a3.01 3.01 0 0 1 3.017 3.021 3.013 3.013 0 0 1-3.014 3.017c-1.667-.004-3.014-1.354-3.017-3.021s1.347-3.014 3.014-3.017zm-135.913.421s6.438 36.391 6.786 32.381c-49.707 18.716-78.78 46.344-92.554 73.29l-93.261-.069 20.814-32.299 55.213-.274c26.685-32.383 59.608-58.212 103.002-73.029zm-11.943 8.562l-4.604 14.704 13.939 8.891 5.248-15.787zm152.771.289c1.18-.114 2.349 1.882 4.745 6.134 1.773 3.141 4.1 7.713 4.1 7.713l-4.167 1.549c-3.363-11.491-6.451-7.22-6.81 2.924l-5.717 2.281s.623-9.78 3.884-15.496c1.88-3.282 2.921-5.008 3.965-5.105zm-303.992 10.051l28.901.362-12.086 25.038-29.382-.801zm126.061 2.013l-2.292 18.581 15.571 3.3 2.126-17.657zm-113.768.219l-14.278 9.236 9.366 12.324 13.739-9.232zm91.444 16.27l-2.954 17.115 14.597 3.321 3.323-17.217zm-317.318 1.011l36.539 36.214 2.01 252.711-36.335 36.44zm198.816 9.25c-.132.204 29.15.836 29.15.836l-11.721 21.151-10.008-.447 13.174-8.992-8.447-10.802-13.538 8.831 7.544 10.921-19.773-.42zm188.499 6.255l9.927 32.791-11.932 2.068-8.963-30.849c3.657-1.892 7.311-2.825 10.968-4.01zm-93.748 2.047l.199 19.674 15.934 1.344.621-18.444zm79.181 3.142l9.079 31.153-7.569 2.151-10.852-29.568c2.973-1.757 6.072-3.041 9.342-3.736zm-13.818 6.431l11.666 30.497c-16.117 6.539-32.829 20.52-45.408 34.479-9.322-6.846-14.813-7.567-20.566-9.117 15.867-29.555 34.602-45.071 54.308-55.859zm-176.07 7.642l30.648.927-21.321 31.84-34.667-.046zm91.239 1.192l-1.989 18.618 16.41 9.694 2.493-19.125zm-19.768 2.612l-11.669 12.326 12.392 14.142 11.364-14.765zm-26.087.64l-13.857 12.713 11.023 14.381 12.672-14.459zm-176.551 11.863l1.359 246.871-50.916 49.34-.377-13.28 40.473-42.26c.045-83.51-.219-167.012-.496-250.521zm135.461-7.979l-14.055 19.165 16.67.043 12.088-18.563zm-86.7 119.468c-5.54 19.946-31.103 41.582-31.56 41.212 12.657 18.14 12.233 43.99 1.072 56.73.05-.29 20.338 16.56 23.189 25.3 1.606 3.48 2.252 7.72 4.283 11.18.537.92 2.254 3.19 2.254 3.19 49.562-50.25 25.961-109.15.762-137.612zm.745 5.207c48.116 59.705 16.397 114.345-.395 129.595l-3.208-5.3c35.762-41.56 20.603-92.61-.231-116.78zm-5.207 11.623c.318.972 2.193 3.779.799 3.6l-2.412-.48zm-.362 6.656c1.043-.001 1.919.324 2.389 1.046.982 1.633-3.991 15.36-7.063 12.16-.927-1.81-2.013-3.39-2.868-5.26-1.003-2.25-.347-3.32 1.951-5.554 1.579-1.536 3.847-2.391 5.591-2.392zm6.918 3.72c2.43.191 5.893 7.846 6.215 13.316.151.57-8.216-1.29-10.437-3.84.265-2.24 2.367-7.94 4.222-9.476zm-18.822 6.256c14.484 29.12 13.58 51.88.82 72.8l-9.993-8.55c6.724-15.91 10.049-32.89-1.265-54.51zm9.772 7.28c.999-.09 4.093.37 6.839 1.25 9.691 3.1 10.055 9.44.723 14.1-3.87 1.92-5.072 1.07-7.301-8.63-1.1-4.8-1.931-6.57-.261-6.72zm18.72 11.16c1.873-.01 2.732 3.53 2.959 9.62.213 5.78-1.011 6.24-5.67 2.11-5.038-4.47-5.901-5.52-1.286-9.2 1.345-1.06 3.147-2.52 3.997-2.53zm-13.209 9.56c.915-.08 3.595 1.62 6.212 3.61 6.631 5.06 5.16 8.52-2.369 10.97-5.225 1.69-4.965 1.91-4.831-7.12.066-4.47-.198-7.36.988-7.46zm87.768 8.21c-8.095 2.06-11.492 9.28-8.807 15.77 1.222 2.95 3.076 2.98.9 4.79-2.431 2.8-3.723 9.29-1.049 11.66 3.155 1.8 3.963-1.32.643 4.78l-60.956 111.98 365.897-.69-43.977-82.36c.098-.12 3.516-13.59-3.523-15.21-2.257-.52-3.552-2.63-4.006-4.63.571-5.73-2.031-8.17-4.225-11.13-34.781 4.91-64.991 2.47-89.95-3.15-35.955-8.09-61.648-22.08-78.357-26.48-23.04-6.07-50.845-8.7-72.59-5.33zm19.709.78c28.35-.17 60.085 8.5 82.295 18.12 23.043 9.51 47.455 16.61 72.121 20.25 20.359 2.56 40.658 1.28 60.13-.27 2.124-.32 4.333-.03 5.919 1.66 4.034 4.48 1.287 7.29-8.809 8.22-16.212 1.34-36.311.77-54.145-1.91-28.232-3.24-58.16-11.78-83.982-22.49-32.273-12.1-61.913-16.16-85.335-12.59-12.864 1.97-14.755 2.27-14.7-1.18.099-6.74 5.676-9.82 26.506-9.81zm-92.899 19.54c-1.242 2.86-10.062-6.49-9.971-9.13.182-1.16 7.325-5.82 10.158-7.71 1.364-1.05 1.277-.51 1.294.73.054 3.52-.229 12.62-1.481 16.11zm-13.576-6.89c4.071.54 10.758 11.53 4.871 13.23-5.221 1.51-9.963 2.48-10.597-1.02 2.682-8.6 3.694-11.99 5.243-12.19.161-.02.328-.03.483-.02zm236.609 37.51c25.971 4.49 60.064 7.18 82.346 5.44 12.774-1.29 15.464-.88 15.383 4.45-.046 3.34.316 3.26-16.168 3.24-13.701.91-26.034-.56-39.301-1.25-27.441-1.35-52.372-6.06-75.416-14.06-25.565-6.63-47.708-19.37-72.726-22-22.94-2.25-43.577 1.81-47.9 4.22-1.448-.02-2.202-2.16-2.115-4.14.079-1.93.801-3.48 2.413-4.71 65.754-16.59 100.961 18.94 153.484 28.81zm-228.02-21.97c2.194.03 1.493 3.27-2.091 10.14-3.051 5.84-4.248 5.81-5.976-.18-1.838-6.41-1.664-7.11 1.995-8.05 2.153-.51 3.969-1.64 6.072-1.91zm-15.345 3.26c2.568.04 6.218 11.67 4.345 13.86-1.479 1.73-6.826.55-8.387-1.49-2.51-3.29.702-12.42 4.042-12.37zm114.95 3.14c10.204-.1 20.368.99 29.711 2.6-5.377 1.99-10.733 3.83-16.319 7.05a98.55 98.55 0 0 0-13.392-9.65zm13.255 14.12c36.047-20.1 51.263 7.65 56.475 12.13 31.515-6.98 37.685-3.55 55.263 15.45 31.555-15.43 46.849-2.32 60.021 5.98 15.458-14.43 35.046-14.84 45.255-7.59 1.913 3.2 4.565 7.25 4.781 8.46.17.94-1.271-.16-4.825-2.7-18.529-13.26-49.285 3.26-41.065 20.74 2.215 4.71 1.857 6.74-1.446 8.63-4.704 3.17-10.475-2.1-7.2-7.48 5.463-9 1.347-16.52-11.95-23.48-18.739-9.8-49.359 1.18-43.055 15.63 4.032 4.62.292 7.87-5.028 7.71-6.028-.19-8.068-4.23-4.207-8.54 4.822-5.5 3.556-11.07-2.061-17.43-16.828-23.97-50.878-14.47-46.37 6.54 1.981 5.22-3.65 7.32-9.492 5.01-3.714-1.48-3.162-7.23.91-9.26 4.681-.47 5.341-7.25 4.781-11.6-.809-6.33-10.148-12.57-19.384-15.88-6.691-2.4-12.899-2.91-17.799-2.47-10.348.95-16.123 7.98-14.423 18.51 1.004 6.21-.732 12.65-8.023 9.24-3.99-1.87-2.99-6.39 1.088-10.55 14.324-13.99-14.522-31.01-31.94-19.28-2.953 2.42-5.103 2.84-5.103 2.84 10.92-27.19 45.113-1.72 44.797-.61zm47.472-3.66l21.766 8.2c-5.019.98-8.552 2.4-12.111 3.81zm-56.845 8.84c-20.086-3.81-21.178 18.64-8.085 22.3-18.009 24.74 29.151 34.35 20.498 3.81 23.894 4.31 19.572-22.88 1.802-22.63 4.157-10.14 36.958-2.46 35.545 5.07-22.178 2.35-13.317 22.55-3.72 22.58-23.193 21.95 23.213 42.19 21.982 9.09 18.617 3.92 20.804-20.79 2.906-22.42 6.554-9.22 29.965-3.41 36.454 7.14-18.472 2.45-17.316 18.67-2.86 21.3-18.326 23.32 26.766 31.94 22.082 4.83 16.162 5.55 25.026-16.01 4.093-22.17 21.447-12.77 44.728 6.27 42.21 6.65-24.472-1.44-19.601 23.08-1.89 21.75-11.269 25.46 33.377 26.88 22.057.47 20.077.37 18.318-22.9-.92-24.46 12.116-8.83 25.775-9.6 34.564-1.34-18.314 4.82-10.702 26.1 7.715 20.21 1.707 17.81 16.185 14.03 16.51 13.49l12.955 24.17-351.077.57 29.968-55.31c17.71.92 17.078-16.13 16.3-16.55 11.779 8.41 24.442-12.49 7.213-18.49 14.074-14.73 34.946-1.12 33.698-.06zm-114.289-1.54c-.728.75-.923 1.2-2.126.08-3.067-3.5 5.261-3.8 2.126-.08zm72.597 9.26c1.548 1.27.483 4.73-.774 5.92-3.162 3.39-4.232 3.12-1.445-2.73.823-1.77 1.602-3.21 2.219-3.19zm153.811 1.57l18.254 4.41-8.667 4.89c-3.202-3.48-6.283-6.48-9.587-9.3zm57.048 7.34l19.854 1.28c-2.625 1.78-5.197 3.44-8.409 6.7-2.502-2.66-7.231-5.32-11.445-7.98zm66.134 20.25c1.105 2.31 5.489 10.31 5.073 10.52-6.417 1.12-8.141-8.44-5.073-10.52z" fill="#100f08" fill-rule="nonzero"/></svg>