<svg clip-rule="evenodd" fill-rule="evenodd" stroke-linejoin="round" stroke-miterlimit="2" viewBox="0 0 934 1300" xmlns="http://www.w3.org/2000/svg"><g fill-rule="nonzero"><path d="M340.552 1099.18l226.034 4.83c20.021 27.48 60.224 83.52 60.224 83.52l-365.193 4.81zm-94.587 19.14c9.76-19.59 11.649-38.46 9.792-65.65-1.465-20.87 11.675-37.12 25.226-30.9 10.48 4.82 5.641 24.57-5.192 20.39-4.15-1.6-7.787-.15-7.234 9.22.97 23.12 7.164 49.15 1.837 71.31-3.714 21.53-33.501 11.61-24.429-4.37zm-91.515-30.2c-11.507-17.16 9.111-33.23 22.02-25.31 6.123 2.84 5.255 9.04-2.461 5.74-10.763-4.61-22.36 11.69-12.986 18.25 4.312 3.01 5.956 2.6 2.673-1.17-8.732-10.09 13.609-14.56 12.96-7.91-1.523 8.1-1.716 11.51-2.461 13.1-4.549 7.07-13.287 3.46-19.745-2.7zm32.094-72.15c-12.432-15.42 1.819-27.543 1.632-27.102 3.689-3.972-29.614-65.674-25.405-66.075 42.06-4.45 84.563-1.091 126.713.214.012.004-22.47 40.172-31.433 60.05-3.604 8.009 4.832 17.433 1.337 23.383-10.846 11.79-4.1 24.85-10.865 25.43-18.974-2.42-37.73-5.55-58.772-1.36-1.555 0-1.716-8.8-3.207-14.54zm182.06-428.703c21.268 107.598-10.087 221.658-81.967 296.904-10.145-9.689-17.926-28.082-28.046-40.079-28.091-8.385-48.305 1.484-67.999 11.147-17.502-10.024-37.215-15.922-56.433-15.67l-.617-16.64c19.443-.417 39.972 1.368 57.288 12.018l27.089-10.928-84.473-87.104 1.15-14.885 102.496 102.8 13.197.467c-29.01-76.651-3.63-198.399 118.315-238.03zm142.918 134.966l14.816 70.265s-78.343 83.885-126.777 123.706l-36.495-3.302s49.853-88.15 40.71-81.411zm294.508 96.37c-34.793 38.727-76.364 63.35-122.53 90.483-18.459-20.498-40.858-43.041-53.792-63.252 40.274-21.395 78.665-37.969 118.103-75.417-2.159 2.418-50.31 18.662-50.149 16.792-1.742 7.993-.694 12.923-8.527 15.027-9.278-12.879-18.247-23.33-32.871-29.086-6.13.548-14.277-3.478-14.277-3.479 4.099-.835 2.294-50.251.013-50.82 0 0 1.201-1.466 11.912-1.251 19.134-1.307 31.497-24.313 43.364-32.192 37.093-3.033 69.952.6 106.493-.382-.277 43.985 2.274 89.589 2.261 133.577zM570.48 707.201c-.932-1.865-10.293-74.748-1.394-120.452 1.632-10.721 18.626-14.358 21.884-22.342 5.404-17.358-2.718-38.795 1.568-58.252 4.356-19.803 13.769-30.943 22-45.663 8.925-15.945 21.692-35.841 35.847-47.734 4.157-4.041 18.665 8.983 29.511 31.498 31.496 19.733 71.886-5.731 71.886-5.731s15.677 12.724 51.126 19.678l-.611 13.692c-.173 3.982-39.869-4.239-48.414-12.185 0 0-29.608 9.856-29.608 11.656.007 7.671 78.176 79.728 78.176 79.728l.437 17.766c-11.719-16.231-103.402-94.244-103.402-94.244 20.324 118.692-28.226 192.61-129.006 232.585zm-131.166-23.23l-1.754-69.9 66.804.791 2.75 70.628zm-305.682-75.556c1.78-2.48-2.602-130.278-2.326-130.278 42.516-42.085 84.101-65.606 125.794-91.192 18.852 18.579 34.87 34.254 48.762 56.761l-57.519 35.252c2.184 8.59-3.489 11.687 33.591 45.135.623-2.29 12.844-9.098 14.977 1.087-5.024 21.499 2.23 39.775 3.181 51.333-5.063 6.772-16.385-.498-16.385-.498-7.324-7.597-36.026 29.911-44.218 34.103-35.757-1.328-107.861 1.086-105.857-1.703zm402.441-227.886c.469-.455 36.36.275 35.878 1.557-6.534 17.446-22.771 48.416-37.626 84.149-17.117 30.457-40.858 48.397-61.137 68.356-16.204 15.957-30.654 41.1-41.725 34.576-6.76-21.616-8.321-40.787-15.774-64.736-3.412-14.19 17.309-23.435 120.384-123.902zm157.072-119.827c13.146 5.582 50.085 2.66 55.951.149 7.511 5.073 2.821 11.84 1.87 15.596 7.716 9.717 11.938 13.163 3.18 28.828-1.998 0 26.922 64.826 27.699 64.871 0 0-30.565-14.44-41.346-24.193l-21.088 27.908-24.493-31.512c-.09 2.844-47.194 33.958-47.765 32.457-1.485-1.48 43.017-49.169 34.188-77.167-2.126-6.747 2.744-13.604 6.072-19.548 2.281-4.08-.79-11.966 5.732-17.389zm-24.455-5.809c1.998-2.28-11.424-60.897 3.123-84.556 6.162-8.602 17.309-9.041 21.961-2 3.566 9.795-7.042 23.431-9.169 30.09-6.9 18.554 3.342 43.03-1.657 60.563-14.971 38.301-41.488-3.768-14.258-4.097zm99.669-26.032c-7.89.344-2.377-23.136-1.08-29.861-.032-1.331 14.444-4.694 19.662 4.539 8.423 13.8-1.703 31.207-18.576 25.322zm-94.111-118.37l-74.34 90.012c-75.17-8.615-150.602-14.086-227.461-2.375l-61.818-85.854z" fill="#e2cf00"/><path d="M809.157 103.894l-687.787 2.129 7.55 1091.807 686.219-4.05zm-158.248 6.687c7.543.002 15.093.02 22.63.04l-82.34 100.857-2.031.675c5.488 16.003 13.32 35.956 20.806 51.108 11.906 24.49 41.847 69.494 23.169 105.495-1.831 3.085-3.534 4.589-5.821 4.578-3.174-.015-3.117-1.87-1.228-5.481 4.158-7.954 6.985-26.808 5.321-36.785-1.061-6.368-4.614-16.184-11.367-31.022-31.291-57.538-41.07-88.206-39.29-88.207-.411-.26-1.112-.613-2.249-.884l-3.078-1.017c10.846 36.373 28.464 66.955 42.407 95.268 11.443 26.315 12.671 36.525 6.689 55.679-2.313 7.417-6.503 12.168-10.621 12.148-3.084-.014-2.911-.634-.803-4.397 10.961-19.595 8.423-40.98-5.198-65.859-19.79-41.091-31.664-67.086-38.713-93.448-.18-.01-3.611-1.158-4.851-1.452 5.873 27.438 22.27 59.083 37.537 91.466 12.619 24.937 16.256 43.111 11.707 57.467-1.491 6.222-6.252 15.489-12.266 15.761-2.352-.011-2.725-1.234-.508-4.437 9.355-15.973 11.019-30.701-5.718-64.233-15.389-30.83-30.829-65.332-36.104-95.475-.334-2.473-7.023-5.404-5.584-1.305 8.263 35.603 24.718 72.058 42.189 107.603 9.837 22.064 10.852 36.185 3.476 48.531-4.132 6.902-5.179 8.472-8.276 8.539-3.656.078-3.592.214-1.574-3.982 8.925-18.557 7.46-34.905-4.472-61.722-16.359-36.775-30.135-67.207-36.02-99.572-1.054-.301-6.592-2.443-5.802-.823 8.179 30.832 18.652 59.447 32.145 88.388 4.704 10.039 12.324 29.569 14.779 39.355 4.664 18.628-5.854 44.208-19.617 45.498-5.127.481-4.491-2.067 1.227-7.369 9.844-9.128 11.752-23.687 8.411-40.579-2.506-13.006-6.83-26.961-12.767-41.142-12.015-28.678-25.084-58.684-29.216-85.155.135-2.371-5.371-2.378-3.816.101 2.968 18.612 10.062 39.808 17.83 59.494 8.501 21.538 21.145 45.671 25.283 72.105 3.393 21.628-10.152 42.045-26.581 43.265-19.783 1.47-23.684-18.053-18.922-27.204 7.761-13.662 30.32-5.858 23.612 8.112-3.855 8.042-15.639 5.93-15.137-2.892-.135-.801 1.13-3.221.899-3.352-.405-.238-2.133 1.342-2.686 2.329-4.009 7.141 8.025 16.724 16.385 10.983 28.014-15.13 9.098-61.267-3.117-89.452-11.822-26.259-20.49-49.989-24.255-74.293-1.022-.708-5.641-1.878-4.999-1.044 3.393 12.974 4.961 23.917 8.334 34.818 5.294 17.095 14.784 36.23 22.527 55.398 7.035 18.862 14.103 34.886 10.884 54.554-.302 1.816-1.047 3.997-2.287 5.321-1.26 1.316-2.3 1.113-2.673-3.895-.129-.683-1.009-1.581-1.144-2.45.688-7.389.187-14.714-1.728-21.665-1.632-5.821-4.755-11.763-11.341-23.071-2.596-4.211-9.394-17.085-7.01-8.188 1.369 5.031 6.034 16.213 10.885 24.311 3.013 5.028 6.181 18.753 5.243 21.405-.99 2.593-3.29 2.74-4.363 1.847-.957-.804-.957-4.477-1.202-6.746-1.015-9.325-10.588-25.599-17.226-31.987-4.774-5.308 11.232 22.569 12.407 29.999.495 3.146 1.478 5.705.399 7.248-.707 1.017-2.146 1.023-3.553.663-1.35-.347-1.292-1.278-2.731-6.064-2.455-8.19-5.487-12.315-11.784-19.697-2.159-2.53-3.598.635-.161 4.738 4.755 7.487 8.327 12.273 9.535 21.906-3.077 4.364-4.594 3.515-11.045-7.529-4.253-7.297-6.81-9.17-7.928-9.116-2.828.135-.155 3.62 7.774 16.083 4.106 6.651 4.202 10.785-.462 10.762-1.587-.007-10.454-9.737-12.671-13.954-1.844-3.5-4.132-6.185-4.138-1.908 0 1.699 5.494 10.651 9.259 14.999 5.93 6.853 7.633 8.23 8.391 11.264.36 1.447 1.08 3.976 1.587 5.622 1.523 4.932.746 6.342-2.332 3.735-1.388-3.654-2.519-4.033-6.342-6.847-3.225-2.372-7.691-8.516-10.621-12.85-1.111-1.636-2.062-3.712-3.193-5.38-2.872-5.36-6.695-5.825-3.926-.417 1.304 2.507 3.425 6.622 5.648 9.672 3.733 5.293 2.962 8.052-1.465 8.031-1.889-.009-7.19-6.933-10.499-12.348-2.159-3.531-5.532-6.029-5.121-2.53.103.869 2.712 7.075 6.625 11.927 4.253 5.27 4.812 8.071.687 8.052-2.821-.014-5.243-2.693-8.835-8.153-3.412-5.186-5.545-7.014-6.509-6.425-1.22.748 4.897 11.031 9.921 16.646 4.755 5.31 1.266 8.335-4.196 3.614-2.962-2.562-8.899-10.203-10.563-13.835-2.975-6.493-4.896-4.72-2.968.422 2.114 5.671 5.423 11.873 9.413 15.903 2.094 2.111 6.406 3.766 8.513 5.581 5.969 5.145 9.747 9.893 9.259 10.743-17.014.957-30.976-17.137-34.799-28.091-2.712-7.202-5.809-8.263-2.872 1.908 8.295 25.267 34.15 38.392 52.025 27.066 10.788-6.834 1.259-24.63-7.569-18.894-2.396 1.558-2.506 5.977.54 3.614 5.738-4.443 11.501 6.516 5.243 9.758-8.796 4.558-18.556-4.364-12.568-15.179 5.911-11.106 29.614-4.748 24.975 13.192-2.808 8.052-15.112 18.114-25.662 18.312-19.597.368-33.129-14.609-40.679-29.396-.964-1.903-2.698-5.642-4.131-8.693-1.24-2.637-2.217-4.595-2.32-4.575 2.178 17.957 19.392 40.158 34.806 43.828 25.611 6 32.615-9.213 49.372-24.938 0 0 12.24 1.587 12.67 1.326 1.131-.691 23.825-1.701 24.493-1.064-91.675 165.666-84.697 362.345-5.859 511.632 5.21 10.923 6.123 8.854-2.513 6.625-8.918-2.32-17.007 1.246-24.255-.425-14.984-3.045-18.177 7.152-29.698 12.594-14.36 5.41-11.109 15.356-14.534 24.975-1.079 1.491-1.863 2.711-1.272 2.512.951-.315 4.016-3.135 4.241-5.622.591-6.367 2.872-11.398 5.461-13.936 2.474-2.416 4.202-3.631 4.8-2.59.469.816.122 3.663-1.099 5.963-3.489 6.567 1.131 28.509 1.42 12.889.232-12.394 7.768-26.215 18.312-31.869 8.443-4.119 11.065-3.701 4.19 2.641-7.807 8.295-13.121 17.958-13.429 29.986-.129 4.993 1.857 9.15 2.57 4.678-.302-22.906 22.662-48.421 47.29-35.737 1.227.88 2.268 2.544 1.902 3.476-23.851-3.984-44.605 9.001-41.546 39.753 0 0 2.14-6.027 3.341-12.041 3.759-18.826 25.129-27.07 40.119-21.904 2.821 1.182 5.031 5.147 4.639 5.68-18.331-5.731-38.448 11.533-39.618 30.237-.379 6.085-.231 11.302 2.892.322 11.835-41.559 48.356-22.72 43.865-19.315-28.258-3.36-38.494 15.594-37.838 37.511.404 1.998 1.432 2.666 2.287 4.536 3.765 8.257 5.481 15.331 5.783 30.313-.289 3.86 2.917 28.44-.315 27.4-10.261-3.78-18.068-8.25-35.853-.28-1.6.09-2.127-.79-1.581-2.18.739-1.85 3.521-5.53 8.372-10.96 10.93-11.61 4.652-8.5-4.33-.45-5.802 5.2-4.543 1.65.919-16.11 2.216-7.198.835-8.072-8.694-12.897-9.811-4.967-16.603-5.725-8.276-.52 3.264 1.991 6.753 4.08 10.454 5.551 4.344 2.365 3.849 3.36.643 13.726-6.226 20.16-8.392 27.52-8.064 41.08.797 32.97 32.319 29.7 50.265 22.28l.752 21.71 67.587 94.88s-236.27-.25-362.681 1.82c7.216-17.27 83.638-90.44 88.187-103.53.431.07-8.475-26.74-13.152-38.41-22.103-55.072-51.152-78.223-34.33-114.41 3.617-7.17 4.247-9.586 7.003-9.573 3.727.019 4.928 2.486.726 9.503-18.061 30.186 20.477 82.27 33.495 115.49 2.088 5.32 10.814 30.25 12.343 38.65.148 2.57 6.265 3.44 4.556.44-4.8-16.98-10.827-35.51-13.628-42.18-10.294-24.53-21.12-41.27-31.15-65.239-5.603-15.151-8.591-32.647.109-48.35 3.161-5.718 4.067-8.899 6.155-9.201 1.8.013 2.86.623 2.975 2.088.122 1.607-.867 4.241-3.238 8.257-15.183 25.759 11.81 67.385 25.181 97.065 8.719 19.34 16.474 39.69 19.218 58.04.038 1.27 1.715 4.63 5.063 2.34-5.783-34.29-22.784-67.52-37.678-99.554-12.722-25.02-17.496-46.833-.495-67.433 1.478-1.42 4.652-1.182 4.877.925.122 1.433-.977 4.151-3.637 9.638-14.977 31.221 8.218 56.575 19.096 86.344 10.621 24.88 20.49 45.79 24.461 72.3 3.001 1.14 4.485 2.56 4.806-1.2-7.761-37.47-24.499-71.15-39.02-103.593-6.715-14.098-9.086-20.857-9.542-30.296-.623-12.985 5.931-29.415 11.816-33.745 1.523-1.125 2.474-1.324 3.868-.572 1.908 1.034 1.523 1.722-2.249 8.835-7.209 13.589-7.826 28.856-1.143 44.996 11.539 24.795 21.267 45.145 28.162 63.375 7.536 19.94 11.777 37.25 13.486 52.88 0 0 5.134 2.27 4.369-1.13-3.199-21.86-10.447-44.55-18.273-63.75-7.383-18.12-16.635-35.556-24.133-53.521-9.092-21.544-1.562-45.093 17.084-56.857l8.585.186c-.502-.225-19.565 7.325-20.568 34.484-.951 25.881 11.347 41.79 20.24 63.708 10.839 26.45 20.541 49.63 22.848 77.89.848.98 5.545 1.19 5.468.77-2.307-19-7.877-37.07-15.825-59.28-8.45-23.6-16.86-34.07-24.699-58.851-5.307-16.77-4.588-39.477 7.228-49.861 17.689-17.81 42.369-5.127 36.181 15.26-4.768 14.355-24.487 11.502-24.384-1.946-.019-8.681 10.698-11.033 14.245-4.479.829 1.279 1.381 6.862 1.748 7.068.366.212 1.477-4.388 1.484-5.423.038-7.126-9.677-13.133-16.905-9.516-9.901 4.961-16.333 16.365-15.684 31.625.694 16.237 3.649 26.736 16.975 52.203 15.524 29.66 20.677 61.77 23.992 83.42 1.433-.6 3.155.17 3.708 0-2.262-29.5-11.983-59.81-24.121-85-14.694-30.524-18.806-49.196-13.904-62.869.72-2.011 1.401-3.521 2.287-3.656 1.645-.244 2.153 2.377 3.676 7.852.469 1.683-.122 4.324-.463 6.367-1.279 12.516 7.518 38.545 15.703 50.116 2.397 3.3 5.455 3.19 2.808-2.67-8.43-15.127-13.557-28.838-14.232-47.228-.199-5.403 6.117-2.974 6.259-.263.456 8.783 1.336 19.128 5.545 26.491 8.545 14.566 13.306 15.203 4.555-1.066-1.94-3.778-7.498-19.732-5.256-25.219 1.247-1.118 2.763-1.318 3.515-.2 2.474 9.015 5.892 17.953 11.944 24.898 3.174 3.611 3.695 1.979 2.031-2.531-2.789-5.224-11.508-22.688-7.492-26.627 1.298-1.066.533-.488 4.054 5.243 4.903 7.974 7.576 11.097 9.959 13.429 3.174 3.104 3.939 1.016.662-4.433-6.541-10.891-10.261-19.938-7.961-22.212 2.268-2.249 2.821-1.208 7.987 7.556 2.294 3.894 5.622 9.644 6.766 11 1.131 1.349 2.165 1.696 2.184.585-1.201-10.576-10.319-22.643-13.994-24.738-.527-.983-.34-9.336-.34-9.336 13.698 7.023 14.257 14.952 23.33 27.166.938.906 2.268-.205 1.869-1.889-.321-2.287-5.686-12.445-9.059-16.904-2.647-3.509-2.763-5.52-.521-6.529 3.631-1.632 8.7 3.74 14.097 13.333 2.506 4.453 5.854 7.036 5.867 4.697 0-1.285-4.659-12.767-7.878-16.083-5.352-5.525-2.705-9.387 3.496-4.272 2.814 2.319 6.63 4.06 10.563 12.503 2.294 4.935 4.266 5.564 4.279 1.632.006-4.427-7.453-15.228-12.471-18.216-3.888-2.313-6.092-4.902-4.999-6.624 3.405-4.986 17.181 7.73 21.884 19.559 1.388 3.488 3.823 5.268 4.421 3.733 1.053-.784-1.735-9.304-4.601-13.256-4.729-9.021-15.902-17.733-22.527-16.68-1.285.199-4.799-7.19-4.799-7.19 16.892-2.717 33.302 17.419 36.219 24.956 5.545 14.303 8.359 12.626 3.514.084-9.464-24.513-38.872-38.244-55.193-26.389-9.297 6.753-3.739 22.906 5.822 20.163 3.803-1.414 7.485-5.269.796-4.003-7.434.745-9.805-10.525-2.223-12.787 12.195-3.63 14.99 15.71 5.14 20.022-10.222 4.362-20.393-2.147-19.436-13.314 1.812-21.113 27.866-27.217 53.593-10.139 7.235 4.8 16.134 20.465 19.192 30.379 1.016 3.283 4.421 4.427 4.839 4.016.976-.97-7.145-18.402-9.818-22.829-11.199-25.528-51.698-26.794-51.698-25.47 0 0-15.857 9.933-29.948 26.305l-36.194-3.315c92.216-147.402 99.464-364.122 4.877-517.545 1.208.777 18.184 5.146 24.037.562 4.312-2.058 5.552-2.77 10.319-1.064 5.365 1.92 11.019.221 16.866-5.101 4.402-4.009 4.492-5.245 7.325-4.878 8.398 1.083 13.975-3.809 15.704-15.863.681-4.735 1.15-9.655.462-8.935-.398.418-1.368 4.514-1.985 7.088-1.703 7.082-3.277 9.677-6.046 11.987-4.569 3.806-7.203 1.677-5.301-4.096 1.805-3.726 3.302-13.31.822-17.67-.43-.783-.539 2.183-1.163 4.558-4.986 18.888-10.209 28.477-19.243 30.69-4.241 1.039-6.201.396-4.832-2.036 15.941-16.904 14.874-35.637 13.673-34.035-3.386 10.839-9.683 26.992-20.021 33.632-8.925 5.734-22 6.281-29.274 1.466-4.125-2.733 2.114-3.543 11.463-3.668 15.742-.212 30.462-21.137 28.014-38.779-.572-3.26-1.471.239-2.75 5.602-5.808 19.104-15.774 32.515-38.532 28.512-1.78-.313-2.969-1.48-3.939-2.148-3.701-2.557-2.339-4.31 5.025-3.353 16.461 2.139 30.789-13.221 30.699-31.785-.045-8.908-1.323-8.803-2.75-2.169-2.004 9.353-9.316 38.042-35.943 28.673-4.793-2.588-7.408-5.898-5.705-6.385 15.53 3.117 29.762-.28 35.294-20.581 2.384-8.766 1.812-17.325-.617-24.497-.771-4.871-2.416-8.584-2.968-13.533-1.485-13.257-3.611-27.897-2.975-42.406 1.278-1.262 1.497-.987 5.962 1.967 8.777 5.801 15.421 4.464 24.339 1.024 11.482-4.127 10.441-3.381-1.568 10.12-2.499 2.816-5.031 6.252-5.32 6.787-3.058 5.697 2.673 1.514 6.965-3.855 5.969-7.462 7.222-9.182 8.398-9.177.398 8.066-2.525 17.868-4.035 24.477-1.985 7.33-1.96 9.021 2.731 10.903 2.03.815 5.95 2.417 8.128 3.453 9.818 4.67 8.918.869 1.086-3.534-10.57-5.945-10.66-5.646-7.634-15.52 3.547-11.581 5.295-21.609 7.21-33.071 4.748-28.341-16.725-43.931-45.254-34.034-1.632.818-3.521-14.897-3.257-19.054.25-1.501-4.312-1.172-8.051-5.743 1.144-1.014-42.06-54.904-62.184-87.584 112.815-.14 226.144-2.035 339.293-2.008zm-70.151 101.258c.276.176.437.321.437.321-.18-.218-.334-.321-.437-.321zm97.78-98.688h121l1.741 260.625-10.717.261s-20.201-34.596-25.521-50.94c-1.33-4.083-3.656-9.701-4.562-11.907-2.05-5-3.489-5.619-.758-8.674 5.461-6.119 4.388-18.494-.925-24.456-1.645-1.936-2.493-1.281-2.41-5.984.071-4.044.45-6.629-.623-8.714-1.793-3.485-3.007-3.732-.444-7.57 2.693-4.019 6.265-10.541 7.775-15.661 2.435-8.269.72-9.816 6.143-7.871 13.615 4.316 25.013-5.357 24.66-19.03-.302-11.506-11.109-21.763-23.677-18.619-2.898.725-3.47.478-7.929-2.309-1.279-.799-3.226-2.485-4.883-3.112-2.069-.785-3.778-.717-4.639-2.189-1.684-2.89-6.94-7.483-13.352-7.188-3.907.18-8.989-1.226-10.338-1.927-2.23-1.162-8.501-.217-16.468-1.406-3.541-.528-6.393.843-8.109.863-4.902.059-2.904-.545-3.836-4.256-6.142-19.35-24.101-17.044-32.325-2.49-3.02 5.71-5.205 14.183-6.349 22.93l-48.35-.723zm-374.189.562c18.062 22.88 35.346 48.525 53.548 71.883 22.405 28.291 23.151 31.543 17.13 60.016-3.367 16.092-4.806 19.809-11.63 18.593-6.399-1.141-11.816 3.872-12.683 10.22-1.639 11.918 9.895 19.254 21.48 13.292 6.11-3.143 6.316-3.483 4.279 6.907-2.917 14.888-8.764 27.707-12.529 27.288-9.715-20.535-33.354-5.924-25.502 15.424-2.461 3.728.771 8.452 2.004 12.354 0 0 .052.464-13.448 4.911-66.289 19.542-148.391 70.557-193.22 118.445l-3.052-358.349zm380.376 48.892c2.782-.07 5.462.814 7.672 2.791 5.776 5.172 4.42 12.397-3.579 26.003-8.385 18.954-6.098 33.888-4.176 53.791-.052 11.558-3.971 22.54-10.217 27.288-10.119 7.693-22.597-2.61-17.348-13.052 2.686-5.188 8.398-2.163 9.734-7.068.482-2.933.431-7.551.746-9.738-1.208-8.726-3.708-35.339-3.714-44.575.103-7.959 2.724-17.951 6.342-25.44 3.54-6.242 9.233-9.865 14.54-10zm15.941 30.928c-2.294 1.904-6.123 1.945-6.573-.435.013-2.492 1.966-10.44 3.322-11.317 8.289-1.931 5.648 9.696 3.251 11.752zm12.388-12.395c6.849-.267 11.366 17.193 5.423 27.408-1.131.212-9.439.158-9.477.321-.142-1.827.405-5.468 1.021-8.955.534-2.984.842-5.249-.057-8.453-2.249-7.998-3.714-9.501 3.09-10.321zm13.05.241c.25-.007.52-.001.809 0 6.953.033 10.91 13.423 8.732 28.05-.315 2.101-.494 4.305-1.265 4.799-2.905-.785-10.981 2.085-11.123 2.062-.758-.773-.449-4.934.579-8.687 1.908-6.94 2.441-11.559.205-18.735-1.612-6.203-1.67-7.384 2.063-7.489zm17.329 3.855c7.646 1.281 8.141 22.382 5.005 29.235-.752 1.012-3.637.767-4.665 1.145-6.496 1.855-5.05 2.822-4.292-7.49.514-7.074.643-12.57-.424-18.412-.514-2.563-.726-4.348 1.144-4.518a8.009 8.009 0 0 1 3.232.04zm-38.128 8.253c3.046 4.158.591 13.781-1.728 17.355-2.654 3.942-3.714 4.269-2.268 5.997.617.731 1.895 4.458 1.105 6.024-1.459 2.897 2.281 3.417 5.68 5.18 5.513 2.876 8.192 8.178 12.304 17.83 1.433 3.362 4.376 2.303 2.949-1.317-1.22-3.101-1.696-7.664-2.538-10.71-.886-3.128.084-4.694 3.701-3.776 5.443 1.38 4.691.088 6.676-.641 4.369-2.411 7.299 1.001 4.659 2.891-1.517 1.085-4.742 1.742-8.315 2.723-3.033.831-2.332 3.747.72 3.734 2.821-.011 10.897-2.275 16.166-3.867 15.106-4.563 15.613-6.989 14.2 1.586-1.864 11.343-8.064 19.851-18.312 22.73-8.919 2.505-29.518 2.024-38.693-.904-8.713-3.941-9.291-6.695-11.926-14.356-3.611-10.485-5.731-28.235-1.587-38.552 3.65-8.711 3.284-7.796 6.785-7.357 3.117 1.085 7.306-.122 8.231-2.028.476-.909 1.658-2.571 2.191-2.542zm57.847 6.284c.861 4.665.938 9.461-.681 13.072-.938 1.694-6.233 1.602-8.276 1.626-1.208.283-1.112-15.763.18-17.509 3.078-4.608 7.055-.904 8.777 2.811zm-153.262-2.77l14.958.18v3.635l-17.65-.121zm52.347.622l.019 4.719-22.527.04v29.556l25.2.081.135 6.143-33.733-.12.103-40.399zm114.511-.943c23.092 5.07 12.792 30.581 4.138 32.126-10.795 1.926-19.944.712-16.95-8.775 3-6.428.919-14.436 1.767-20.279 2.082-1.927 7.517-3.847 11.045-3.072zm-174.125 8.955l22.225.221v4.879l-25.399-.06zm49.372 4.497a6.426 6.426 0 1 1-.002 12.852 6.426 6.426 0 0 1 .002-12.852zm62.71 2.55c4.132.452 4.485 6.775 2.802 8.624-2.166 2.146-6.207 1.231-7.441-2.058-1.118-2.968 1.375-6.694 4.639-6.566zm-118.289 2.751l28.432.08v3.956l-28.715.241-.758-2.55zm160.054 1.707c3.938-.094 6.354 3.222 3.893 6.044-3.713 4.12-11.282-2.185-3.893-6.044zm-302.971 8.64c-6.361 5.369-1.266 10.646 7.19 5.562 18.183-10.936 44.996-2.268 62.479 6.84 3.425 1.754 3.894-2.334.521-5.16-16.147-14.213-50.567-22.364-70.19-7.242zm275.503-7.473c4.446.021 4.382 5.553 1.529 7.53-2.853 1.236-3.348.89-5.243.153-2.596-1.01-.656-7.66 3.714-7.683zm15.729.084c5.268.26 4.677 10.847-3.271 7.028-2.878-3.096-1.015-7.048 3.271-7.028zm-146.946 5.455l27.628.241v4.498l-25.842-.261zM419.22 234.428c7.55 5.989 5.211 6.354-7.312 1.948-8.179-1.823-16.32-.66-21.441 1.365-6.059 2.395-7.46 1.704-4.838-2.349 7.048-7.906 26.466-6.31 33.591-.964zm36.303 9.919c-.758 1.868-3.341-1.496-6.849-.843-4.993.931-3.547 1.166 1.728 7.168 5.282 6.006 7.01 7.427 6.689 9.738-.476 3.405.482 5.275 3.874 4.899 1.632-.18 3.566 1.707 6.066 3.976 8.642 7.855 13.011 11.758 15.819 12.971 11.449 4.94 6.29-.633-1.022-5.682-12.195-8.417-16.436-14.026-7.775-11.024 9.208 3.19 23.857 1.381 31.067-2.966 3.546-2.14 5.795-5.421 10.8-3.82 7.03 2.248 9.722-1.895 7.769-4.217-3.187-2.046-10.474-4.487-17.387-9.136-14.798-7.507-30.353-7.285-40.717-1.245-6.111 3.56-8.237 1.058-2.249-2.47 24.024-12.947 43.024-.546 58.406 8.755 2.666 1.618 4.53 1.487 4.536.342-.405-3.759-7.248-6.066-10.017-7.751-21.428-13.039-43.949-17.197-60.738 1.305zm145.873-11.465l24.017.02v4.739l-22.25-.101zm-195.386 6.044c6.65-.032 21.12 5.937 20.882 10.882-.276 1.879-3.9.195-7.049-1.726-6.084-3.716-15.427-4.711-24.216-3.072-6.747 1.257-8.899 2.371-9.857 1.566-2.332-5.24 14.065-7.621 20.24-7.65zm259.658 3.534l.038 8.493c-13.03.951-15.716 15.434-7.35 23.499 6.856 6.614 18.183 4.006 23.882-5.368.996-1.667 1.112-2.674 1.722-1.847.386.518.714 2.096 1.022 3.635.906 4.457-.379 5.599-3.328 9.416-4.774 6.171-5.423 13.948-2.429 19.738.822 1.594 2.544 3.87 2.249 4.919 1.664-.05-14.804 46.04-38.867 69.265-4.028 2.677-6.945-.47-4.87-4.791 19.604-44.788-17.894-86.392-32.448-126.418zm-174.221 7.73l3.431.301c-2.763 20.634-22.784 17.312-23.575.502l2.892-.1c3.906 15.636 17.29 9.233 17.252-.703zm-113.104.421s1.439 2.305 1.439 3.595c0 4.801-.077 11.748-.199 13.855-1.157 19.854-26.35 23.534-24.436 6.545 1.504-7.213 10.615-8.01 12.851-1.486 3.27 8.208 3.855-1.977 3.894-5.16 2.673-5.002 4.626-11.076 6.451-17.349zm121.392 1.406c1.035.027 2.885.928 4.337 2.49 1.658 1.781 1.041 2.668-2.827 4.658-4.189 2.155-6.091 1.969-4.581-2.389.938-2.707 1.748-4.793 3.071-4.759zm188.46 1.044c.572.025 2.03.776 1.69 2.932-.572 3.601-3.682 5.648-4.498 4.799.52-1.9 1.144-6.979 2.808-7.731zm-218.536 6.968c-.495 1.457-1.356.824-3.554-1.044-2.428-2.061-2.3-3.377.2-4.86 3.591-2.163 3.81 4.56 3.354 5.904zm-76.281-5.381c4.202 13.284 12.773 11.596 16.603.642l3.675-.06c-.81 17.105-22.463 16.801-22.649.261zm-7.589 1.646c1.279-.202.36 4.237.36 4.237s-3.553-1.835-1.465-3.775c.264-.243.919-.433 1.105-.462zm31.806 1.124c.436-.027 1.265.309 2.165.904 2.107 1.393 1.748 2.212-.662 4.217-3.701 3.085-5.371 1.371-3.373-2.772.745-1.542 1.304-2.314 1.87-2.349zm276.55 2.892c1.561-.097 3.758.611 8.41 1.847 12.812 3.403 29.961 3.279 44.553-.743 4.613-1.27 8.032 6.814 5.545 12.69-1.099 2.596-.906 2.918 2.448 6.405 4.761 4.947 5.519 12.918 1.908 20.18-2.634 5.284-2.454 4.812.662 13.834 1.427 4.128 3.264 8.34 3.592 9.477 3.945 13.297 13.66 29.004 19.597 42.146 5.924 9.238-10.621.1-10.621.1s4.446 5.959 10.364 10.421c5.731 4.355 17.001 1.408 22.167 6.707 1.208 1.667-1.176 36.931-2.39 37.909-50.94-2.369-135.914-.502-135.914-.502l15.922 24.817c25.046 10.007 48.999 7.502 71.905-6.907-.572 2.073 27.867 15.977 51.216 17.489l.141 16.706c-17.322-1.943-34.882-2.343-50.978-12.469 0 0-14.797 6.186-29.614 10.822l83.008 85.863.032 14.351s-35.435-33.072-71.898-70.356l.784 183.341 71.821 1.405c-2.255 47.716-1.349 78.052-.861 132.702-33.945 34.82-80.643 69.655-123.789 90.575-20.362-19.635-37.183-40.905-51.903-63.649-.315-.481 1.484-1.399 1.175-1.881-.449-.699-3-.963-3.463-1.653-8.976-13.362-29.832-50.412-26.53-51.282 6.381.442 35.956-3.218 41.848-20.942.045-1.124-.642-4.285.161-7.991 2.075-9.611 3.142-24.197-.379-33.472-6.361-16.717 12.76-11.359 13.409-10.24l-.019-63.149c-24.879 19.947-49.989 39.578-83.246 47.788-20.689-104.281 12.118-233.973 105.651-321.926l-5.128-.438c-96.096 99.432-121.296 208.774-104.905 323.93 0 0 .61 3.6.707 4.816.225 2.865-.463 3.958-3.014 6.027-2.428 1.596-4.639 3.313-4.414 5.281.411 3.697-3.148 3.817-7.794 3.795-2.139-1.876-5.024.489-6.746 1.345-2.41.357-3.611-9.484-6.689-2.269-1.169 4.555-3.392 4.895-8.533 2.63-3.225-.942-3.302.66-.199 4.398 4.286 4.611 7.91 11.505 7.209 13.573-1.574 4.637-.893 9.308 5.661 11.967-.373.031-3.958 14.141 6.207 13.734 3.232.032 11.424 1.687 11.424 1.687.533 2.697-.334 4.228-1.606 5.421l-7.068-3.534-1.851 8.413-9.413-.662 22.906 28.291 2.673-22.067 26.787 3.394c4.299 11.157 31.362 73.214 83.085 119.391 0 0-28.277 12.305-36.2 16.16l-4.921-17.586-4.44 6.38-7.91-2.024-.925 7.229-7.042 2.268 12.285 9.278-31.586 9.599c-90.231-145.529-131.057-347.678-18.692-561.45l28.394.361-5.545 9.477 8.076-1.285 2.275 6.905 5.93-2.796 5.957 7.469 6.785-19.951s20.111.455 22.623.201c1.966-.223 42.516-34.241 41.642-35.54-.63-.937-44.154 30.875-45.619 29.657 0 0-4.369 1.04-.964-3.033 6.11-7.31 10.422-12.869 16.629-23.371 10.248-13.947 14.848-30.963 17.264-42.488.039-.808.264-2.66-.424-4.015-3.906-7.753-3.045-12.818 3.977-21.966 2.461-3.203 2.609-3.997 1.909-5.964-1.581-4.441-.065-8.241 3.174-11.224 1.285-1.185 2.114-1.752 3.335-1.827zm-239.239 30.962c17.817 7.318 3.508 23.523-9.721 9.397-6.94-7.403-12.414-6.933-16.186-1.526-1.702 2.437.771 6.719 2.969 5.36 2.043-1.26 4.138-2.755 7.113-.02 22.533 20.749 38.712-8.296 19.295-15.52-2.403-1.106-5.822 1.344-3.47 2.309zm-73.396-.703c.167-.009.366.08.624.241.848.527.905 7.859.064 10.943-2.815 15.622-13.956 51.923-36.811 34.154-9.072-7.056-.816-24.773 10.043-18.754 8.481 4.701 2.757 15.916-6.425 9.478-4.459-3.126-3.046 3.319.719 5.16 6.387 3.338 17.94-2.379 23.356-12.569 2.159-4.064 4.183-11.245 6.464-21.585 1.144-5.201 1.24-7.03 1.966-7.068zm1.928 27.046c1.882 11.295-6.715 31.075-18.955 33.994-9.368 2.235-20.953-3.869-20.117-9.518.244-1.64.912.526 9.394 1.928 11.854 1.958 19.404-4.439 26.227-19.175 2.153-4.651 3.078-7.125 3.451-7.229zm29.498 5.401c-.006 1.276-.61 4.639-1.143 6.867-1.266 5.294-2.057 7.302 3.733 4.679 3.829-1.765 9.425-3.515 15.221-.301 6.387 3.543 12.491 2.887 20.015-.302 6.541-2.175 9.728-2.198 13.377-.1 6.663 3.83 4.369 1.385 3.515-8.272-.598-6.8-2.455-5.905-4.845-3.334-1.568 1.688-4.735 2.058-8.269.161-4.209-2.261-10.069-1.189-12.048.422-1.972 1.604-4.831 1.825-8.693-.783-2.564-1.728-3.99-.824-7.132.582-5.166 2.315-7.151 1.066-9.959-1.105-2.545-1.86-3.74-1.274-3.772 1.486zm-25.662 8.112c.674-.006.751 2.602.282 7.851-2.152 19.369-17.322 30.157-35.178 20.782-7.819-4.463-6.759-7.611.945-4.819 12.278 4.45 24.673-1.772 30.738-17.69 1.555-4.08 2.622-6.118 3.213-6.124zm43.569 13.815c8.829 3.651 18.621 2.491 21.107-.745 2.795-3.632-1.49-3.035-3.739-2.488-7.723 1.849-13.03 1.174-16.16-.221-9.149-3.533-8.571.298-1.208 3.454zm-92.099 10.862c11.443 14.009 12.953 16.743 22.809 32.669 72.073 122.33 95.152 276.942 47.766 417.301-12.999 38.73-31.336 78.203-51.904 109.912l-24.673.263 8.469-9.657-11.482.842-.707-6.387-8.712 2.808-4.196-9.638-7.89 22.071-45.742.122c107.129-104.105 128.229-230.265 108.247-331.546 0 0 8.956-5.599 10.203-8.875.302-.795.97-4.176 1.587-4.678 3.977-2.605 6.624-5.136 8.591-4.639 1.13.286 1.709.808 2.531 2.008 3.772 5.53 4.588 6.394 6.644.823 1.478-3.997.842-5.443 5.706-4.678 2.839 1.51 6.624 1.468 6.283.904-.257-.42-4.292-5.158-6.206-7.851-4.524-6.363-5.815-7.513-5.404-10.301.636-4.246-2.744-8.828-4.858-9.979.611-11.44-3.784-12.582-16.223-15.14-.065-1.974.276-3.575 1.143-5.34l7.312 5.822 2.648-10.802 9.92.542-28.753-27.829c.148 7.85.514 15.788-.199 23.352-13.48-.736-26.781-5.082-26.98-4.257-19.79-46.601-49.95-86.009-81.787-116.76l31.805-15.279 9.015 17.187 2.21-9.738 7.89 1.385 1.324-6.244 8.712-1.225-9.618-9.136zm189.404 20.099c1.214 1.531 2.191 1.638 3.816 3.032l-3.251 2.309c.148-2.185-.038-3.307-.565-5.341zm-211.61 5.743c-2.699 0-4.903 2.202-4.903 4.899 0 2.698 2.204 4.88 4.903 4.88s4.877-2.182 4.877-4.88c0-2.697-2.178-4.899-4.877-4.899zm26.536.776a4.902 4.902 0 0 0-4.902 4.899c0 2.706 2.197 4.9 4.902 4.9s4.896-2.194 4.896-4.9a4.897 4.897 0 0 0-4.896-4.899zm-85.488 3.581c15.748 13.089 30.225 30.144 47.785 56.824l-.36 3.593 5.359 1.988s29.215 38.451 27.673 55.539c-10.03 2.094-17.791-1.609-35.724 15.159l-11.527-2.509-12.125 2.951s.155 3.802 3.174 5.08c1.311.556 3.483-4.761 4.897-4.598 5.892.679 11.835.776 10.743 2.631-1.234.529-4.402 38.729 1.747 46.864 3.431 8.281.97 8.214-2.107 9.738-3.348 2.188-13.872-2.43-13.872-2.43l2.428 60.659c27.783-31.697 86.465-52.834 82.302-50.539 29.453 155.577-40.57 259.365-113.869 335.441l38.41.218s-33.116 53.118-35.576 67.806c1.876 4.884 7.087 14.991-1.71 22.091-2.974 3.26-3.289 18.07-3.289 18.07-20.201.7-37.71-6.32-61.002 1.85-2.409.81-2.936-12.69-3.052-15.12-7.158-6.7-8.288-20.318-2.107-27.392 2.294-2.602 1.317-1.221-.604-10.036-3.065-14.071-13.281-33.36-21.062-45.742-2.551-4.06-5.102-8.796-5.725-10.261-5.558-6.592-20.169-3.546-21.942-5.281-1.62-1.356-2.667-37.323-1.029-38.19 57.571 4.566 147.66-.663 147.66-.663l-24.172-33.772c-29.775-11.608-70.698 8.213-68.725 9.259.096.117-32.705-17.887-55.456-15.328l.745-17.639c20.214-.081 38.86 3.683 55.135 13.285l27.661-10.299-84.775-88.929.983-14.658s21.653 23.182 45.202 47.948c20.194 21.246 27.75 24.818 27.75 24.818l.058-184.445-72.888-.181-1.947-37.688-1.889-3.293-.861-27.046 2.031-2.751-.707-11.566-.681-1.646-.926-27.629 1.568-2.329.238-17.389c35.223-34.475 126.16-92.463 126.16-92.463zm62.261 5.24l8.494 37.227 5.706-7.068 8.751 2.751.604-8.574 7.974-2.77zm289.645 6.191a4.897 4.897 0 0 0-4.896 4.899 4.899 4.899 0 1 0 4.896-4.899zm-22.926 3.066a4.902 4.902 0 0 0-4.902 4.9c0 2.705 2.197 4.899 4.902 4.899s4.896-2.194 4.896-4.899c0-2.707-2.191-4.9-4.896-4.9zm-280.855 4.337a4.897 4.897 0 0 0-4.896 4.9 4.897 4.897 0 0 0 4.896 4.899 4.899 4.899 0 1 0 0-9.799zm298.435 2.952l-34.093 32.066 9.555-.401 1.715 9.355 8.552-3.916 6.927 6.387zm14.508 10.775a4.897 4.897 0 0 0-4.896 4.9 4.897 4.897 0 0 0 4.896 4.899 4.899 4.899 0 1 0 0-9.799zm-271.133 6.312a4.898 4.898 0 1 0 0 9.798c2.705 0 4.896-2.193 4.896-4.899s-2.191-4.899-4.896-4.899zm21.203 4.096a4.9 4.9 0 1 0-.007 9.799 4.9 4.9 0 0 0 .007-9.799zm-19.237 7.289c.938 13.101 2.467 28.638 2.808 41.764l6.47-6.365 7.466 3.032 2.654-8.052 8.128-.401zm209.926 10.929a4.901 4.901 0 0 0-4.902 4.899c0 2.705 2.197 4.899 4.902 4.899s4.896-2.194 4.896-4.899a4.896 4.896 0 0 0-4.896-4.899zm-223.985.857a4.897 4.897 0 0 0-4.896 4.9 4.897 4.897 0 0 0 4.896 4.899 4.899 4.899 0 1 0 0-9.799zm243.402 1.19a4.897 4.897 0 0 0-4.896 4.9c0 2.705 2.59 4.899 4.896 4.899 2.313 0 4.903-2.194 4.903-4.899 0-2.706-2.198-4.9-4.903-4.9zm-2.904 10.582l-28.258 29.069 9.252.863 2.911 8.251 5.924-5.018 7.19 5.261zm15.523 6.231a4.897 4.897 0 0 0-4.896 4.9c0 2.705 2.191 4.899 4.896 4.899s4.903-2.194 4.903-4.899c0-2.706-2.198-4.9-4.903-4.9zm-222.847 9.064c-2.705 0-4.903 2.193-4.903 4.899s2.198 4.899 4.903 4.899 4.896-2.59 4.896-4.899c0-2.31-2.191-4.899-4.896-4.899zm-120.05 2.991l-9.201 7.048 2.268-.342s5.565 6.473 5.565 6.928c0 .454 3.411-.121 3.411-.121zm143.219 4.277a4.897 4.897 0 0 0-4.896 4.899c0 2.706 2.191 4.9 4.896 4.9s4.903-2.194 4.903-4.9a4.903 4.903 0 0 0-4.903-4.899zm-35.094 6.988a4.898 4.898 0 1 0 0 9.798 4.897 4.897 0 0 0 4.896-4.899 4.897 4.897 0 0 0-4.896-4.899zm202.389 9.871c-2.705 0-4.896 2.193-4.896 4.899s2.191 4.899 4.896 4.899a4.898 4.898 0 1 0 0-9.798zm-19.334 7.189c-2.705 0-4.896 2.193-4.896 4.899s2.191 4.899 4.896 4.899c2.706 0 4.903-2.193 4.903-4.899s-2.197-4.899-4.903-4.899zm197.378 1.212l10.178 11.063v161.877l-9.94.2zm-396.297 1.144c8.295.01 17.541 1.206 20.477 6.245 4.581 5.653-5.153 3.465-13.352 4.698-7.569.924-3.174 2.469 7.511 3.092 14.734.87 20.523 1.255 22.714 4.651 1.246 3.163.334 5.297.597 8.702l-16.725-.784c-8.674.011-13.769-.154-16.346.502-2.049.523-1.458 2.168-.758 2.872.36.369 7.017.458 14.798.662 20.927.55 25.559 1.257 27.044 7.992 1.124 6.174-3.913 5.235-25.419 2.891-9.567-.78-14.72 1.47-16.102 2.149-2.364 1.156 6.831 2.296 9.838 1.807 1.876-.296 15.677 1.197 20.76 2.148 4.272.647.514.53-1.645 3.133-1.433 2.154-.977 4.628-3.213 5.843-2.744 1.45-8.179 1.423-17.933 1.425-11.148.002-16.346 2.708-1.041 3.373 9.882.43 10.441.259 11.283 3.113 2.23 7.037-2.525 8.275-12.613 9.878-4.819.827-11.964.364-17.367-.02-21.326-1.517-28.721-6.601-31.606-16.002-10.756-35.072 2.525-56.485 33.598-58.209 1.722-.092 3.585-.164 5.5-.161zm215.593 1.565l-24.088 35.037 9.284-3.612 4.414 9.497 7.434-5.301 7.422 4.576zM376.19 514.61c1.253 1.526.7 2.669-1.362 3.795-1.748.95-4.723.247-6.689-.603-2.589-1.12-2.853-5.746-.719-6.244 3.058-.612 6.855.812 8.77 3.052zm-174.465-1.787l-13.172 12.609.398.482 17.349-6.827zm369.697 5.381c-2.705 0-4.896 2.193-4.896 4.899s2.191 4.899 4.896 4.899c2.711 0 4.902-2.193 4.902-4.899s-2.191-4.899-4.902-4.899zm179.342 4.237s12.272 12.119 17.31 17.207l-4.562-.02.122 9.558 14.514.161 7.974 7.81-22.167-.1v9.758l27.449.02-.142-4.176 10.846 9.818 1.285 108.547-52.308-.161c-.193-53.448-.045-104.974-.321-158.422zm-358.832 11.766c-.752 2.347-2.429 2.352-5.301 1.184-4.247-1.727-3.637-6.411-.424-6.907 6.078-.691 7.196 2.107 5.725 5.723zm16.468 2.048a4.899 4.899 0 1 0 4.896 4.899 4.897 4.897 0 0 0-4.896-4.899zm-17.252 3.755c1.915.118 3.817 1.101 4.903 2.168 2.679 2.704 1.728 5.228-1.266 6.787-3.361 1.748-5.725-.635-6.708-4.618-.662-2.687.912-4.25 3.071-4.337zm153.802 12.849a4.92 4.92 0 0 0-4.922 4.919 4.92 4.92 0 1 0 4.922-4.919zm-161.911 5.965c4.222.142 5.494 4.454 3.29 6.766-3.161 3.133-8.076 1.792-8.77-1.204-.225-3.371 2.518-5.562 5.48-5.562zm144.351 1.987c-2.706 0-4.897 2.193-4.897 4.899s2.191 4.9 4.897 4.9c2.711 0 4.902-2.194 4.902-4.9s-2.191-4.899-4.902-4.899zm17.406 3.252l-21.93 36.786 8.873-3.514 5.385 7.088 5.538-4.839 8.379 4.096zm-172.056 6.146c3.919.018 5.018 3.098 2.165 5.923-1.934 1.918-4.125 1.978-6.367.201-3.386-2.693-.791-6.148 4.202-6.124zm187.412.454c-2.705 0-4.896 2.193-4.896 4.899s2.191 4.9 4.896 4.9 4.902-2.194 4.902-4.9-2.197-4.899-4.902-4.899zm-159.623 3.862c-2.711 0-4.703 2.194-4.703 4.899 0 2.706 2.197 4.9 4.902 4.9s4.896-2.194 4.896-4.9c0-2.705-2.39-4.899-5.095-4.899zm363.246 1.085v10.4l27.629.02v-10.4zm-362.886 9.236l-10.583 38.652 8.854-5.04 5.526 5.643 5.14-6.325 9.234 2.409zm18.813 4.196a4.903 4.903 0 0 0-4.902 4.9 4.902 4.902 0 0 0 9.805 0c0-2.706-2.198-4.9-4.903-4.9zm-34.497 1.969a4.896 4.896 0 0 0-4.896 4.899c0 2.705 2.191 4.899 4.896 4.899s4.902-2.194 4.902-4.899a4.901 4.901 0 0 0-4.902-4.899zm378.551 3.052l.019 9.336h27.629l-.019-9.277zm-227.365 12.206a4.897 4.897 0 0 0-4.896 4.9 4.897 4.897 0 0 0 4.896 4.899 4.899 4.899 0 1 0 0-9.799zm227.384 5.222v10.059h27.629v-10.059zm-569.683 1.225l9.721.18.161 175.35-9.478-10.019zm-4.055.341l-.482 160.271-18.408-19.357 4.896-.06v-10.923l-15.941-.121-6.811-6.625 22.733.019V725.54l-26.967-.101v6.485l-13.249-14.135.218-104.652zm347.08 4.897l-14.752 38.132 9.278-5.281 4.8 4.719 4.96-4.478 8.43 4.116zm-388.002 1.83l-.135 10.26h27.224v-10.26zm404.708 2.067a4.901 4.901 0 0 0-4.902 4.899c0 2.705 2.197 4.899 4.902 4.899s4.896-2.194 4.896-4.899a4.896 4.896 0 0 0-4.896-4.899zm-33.347.548c-2.705 0-4.896 2.193-4.896 4.899s2.191 4.899 4.896 4.899 4.902-2.193 4.902-4.899-2.197-4.899-4.902-4.899zm-115.289 1.822c-2.711 0-4.902 2.193-4.902 4.899s2.191 4.899 4.902 4.899c2.705 0 4.896-2.193 4.896-4.899s-2.191-4.899-4.896-4.899zm358.588 3.955v10.783h27.629v-10.783zm-359.192 6.084l-4.099 6.325-9.374-3.192 12.792 38.692 16.038-40.359-9.214 5.261zm-255.468 2.811v10.241h27.089v-10.241zm614.66 9.176v10.682h27.61l.019-10.682zm-614.66 8.936v10.26h27.089v-10.26zm387.649 1.927a4.92 4.92 0 1 0 0 9.839 4.915 4.915 0 0 0 4.915-4.919 4.915 4.915 0 0 0-4.915-4.92zm-147.498 5.12a4.92 4.92 0 0 0 0 9.839 4.919 4.919 0 0 0 0-9.839zm31.438.924a4.915 4.915 0 0 0-4.915 4.919c0 2.717 2.197 4.919 4.915 4.919s4.922-2.202 4.922-4.919a4.921 4.921 0 0 0-4.922-4.919zm343.071.682v9.638h27.61l.019-9.638zm-227.05 4.498l-5.866 6.165-8.41-2.39 19.07 35.58 9.638-38.27-8.411 5.361zm-387.61 3.614v11.646h27.089v-11.646zm255.648 5.281a4.92 4.92 0 1 0 0 9.839 4.92 4.92 0 1 0 0-9.839zm-.321 10.14c-2.095 1.487-3.013 4.097-5.198 5.442l-8.957-3.815 5.378 48.45 24.859-45.78-11.366 1.908zm-255.327 1.586v12.108h27.089v-12.108zm406.828 5.615a4.92 4.92 0 0 0 0 9.839 4.92 4.92 0 1 0 0-9.839zm-31.805.563a4.92 4.92 0 1 0 0 9.839 4.92 4.92 0 0 0 0-9.839zm-375.023 11.392v12.127h27.089v-12.127zm392.764 2.703a4.92 4.92 0 0 0 0 9.839 4.92 4.92 0 0 0 4.921-4.919 4.921 4.921 0 0 0-4.921-4.92zm69.45.388c26.337.841 30.199 9.317 30.353 38.571.122 23.35-6.83 32.476-23.831 36.978-6.194 1.641-29.357.122-35.917-1.981-.11-2.002-3.386-6.641-4.125-10.209 1.67-.476 6.965.263 16.982 1.215 8.128.773 10.216-.53 7.652-2.128-15.286-3.606-25.695-2.624-40.383-5.441-.205-4.391-3.752-9.505-3.752-9.505.797-.319 22.636 2.033 34.157 1.669 5.076-.21 2.024-2.594-.026-3.033-13.442-1.923-22.167-1.615-36.38-3.407.386-3.634-1.465-6.94-3.759-9.719 0 0 7.19-.065 22.013.161 7.794.119 14.586.444 17.991.327 5.731-.008 5.204-2.679.244-3.043-6.052-.675-29.884-.818-29.884-.818 1.774-.821 4.087-11.491 3.174-11.605 0 0 6.175.126 10.101-.02 19.089-.715 22.385-.413 22.745-1.125 2.513-2.293-4.266-3.19-11.321-3.172-3.046.007-7.485.672-7.453-.984.032-1.522-.039-4.647-1.587-7.861 11.713-4.508 22.482-5.205 33.006-4.87zm-227.127 6.004a4.92 4.92 0 0 0 0 9.839 4.92 4.92 0 1 0 0-9.839zm187.92 1.024c3.245.016 4.273 5.857 1.227 6.767-4.677 1.397-7.234.297-7.067-2.47.09-1.568 3.733-4.307 5.84-4.297zm-155.793 5.08a4.92 4.92 0 0 0 0 9.839 4.92 4.92 0 1 0 0-9.839zm140.09 5.522c11.135-.099 5.371 15.038-3.193 9.578-4.248-2.708-1.26-9.545 3.193-9.578zm-176.052 12.108c-.225-.021-.347.207-.322.763l2.57 46.021 26.787-42.989-10.64 3.955-4.581-6.947-5.744 4.518c-2.365 1.86-6.837-5.208-8.07-5.321zm165.733 4.711c4.992.694 8.327 5.695 4.857 8.099-7.806 3.42-11.983-7.764-4.857-8.099zm-11.996 10.1a4.92 4.92 0 1 0 0 9.839 4.92 4.92 0 0 0 0-9.839zm18.922 4.163c4.254-.063 6.259 6.11 2.05 8.052-.9.414-3.56.71-4.742-.161-4.967-3.663-2.39-7.503 2.692-7.891zm-184.193 7.589c-2.718 0-4.915 2.203-4.915 4.92s2.197 4.919 4.915 4.919a4.92 4.92 0 1 0 0-9.839zm375.769 6.165l-18.235 6.124v8.622c7.961-2.533 12.51-8.998 18.235-14.746zm-170.854 4.163c3.161 1.326 4.022 5.609 1.298 7.048-2.14 1.134-7.942.954-9.362-.913-3.682-5.903 4.234-7.579 8.064-6.135zm-171.876 1.7a4.92 4.92 0 0 0 0 9.839 4.92 4.92 0 1 0 0-9.839zm-20.156 8.5c-2.39 0-4.337 1.942-4.337 4.337s1.947 4.337 4.337 4.337a4.337 4.337 0 1 0 0-8.674zm204.49 7.316a4.919 4.919 0 1 0 .008 9.838 4.919 4.919 0 0 0-.008-9.838zm-220.335.267l-.244 43.472 28.997-35.58-10.062 2.188-4.292-8.814-6.207 4.035zm184.039 10.013a4.921 4.921 0 0 0-4.922 4.92 4.919 4.919 0 0 0 9.837 0 4.92 4.92 0 0 0-4.915-4.92zm145.095.168l-4.761 8.112 13.493-7.49zm-125.459 5.775a4.92 4.92 0 0 0 0 9.839 4.919 4.919 0 0 0 0-9.839zm16.57 5.308l-5.885 8.394-7.749-2.49-2.287 7.991-9.298-.341 30.218 26.303zm-235.531 3.36c-2.717 0-4.921 2.202-4.921 4.919s2.204 4.919 4.921 4.919a4.92 4.92 0 0 0 0-9.838zm453.13 7.061l2.448 360.457-171.818.36-70.736-96.59c-1.459-15.74-.611-31.89 6.014-53.01 6.913 4.79 22.064 2.18 21.55-16.4-.334-12.15-19.083-18.38-28.425-9.23.488-11.75 5.262-29.413 12.131-34.631 4.722 4.292 5.763 10.64 16.436 8.867 7.581-1.266 13.589-9.741 10.306-19.61-.842-2.506-1.298-5.551-1.285-7.588.006-2.043.192-5.667-.206-7.691-.52-2.679-.72-5.584-.72-5.584 91.528-28.727 156.983-74.69 204.305-119.35zm-418.69 6.191c-2.718 0-4.922 2.202-4.922 4.919s2.204 4.919 4.922 4.919 4.922-2.202 4.922-4.919-2.204-4.919-4.922-4.919zm-23.195 4.805a4.921 4.921 0 0 0-4.922 4.919 4.921 4.921 0 0 0 4.922 4.92 4.92 4.92 0 0 0 0-9.839zm243.421 2.37a4.92 4.92 0 0 0-4.922 4.919c0 2.716 2.204 4.919 4.922 4.919s4.922-2.203 4.922-4.919a4.92 4.92 0 0 0-4.922-4.919zm-261.065 5.248l-7.672 45.8 33.495-34.235-9.098-.201-1.806-7.81-8.513 2.75zm227.711 9.771a4.915 4.915 0 0 0-4.915 4.919c0 2.716 2.197 4.919 4.915 4.919s4.922-2.203 4.922-4.919a4.92 4.92 0 0 0-4.922-4.919zm21.705 5.34a4.919 4.919 0 0 0-4.915 4.919 4.919 4.919 0 1 0 4.915-4.919zm-270.279 5.971a4.92 4.92 0 0 0 0 9.839 4.92 4.92 0 1 0 0-9.839zm289.863 3.715l-8.012 6.084-7.37-4.506-1.728 9.726-6.284 3.293 26.363 18.473zm19.482 13.098a4.92 4.92 0 1 0 0 9.839 4.92 4.92 0 0 0 0-9.839zm-278.182 1.66a4.922 4.922 0 0 0-4.922 4.922 4.921 4.921 0 0 0 4.922 4.915 4.92 4.92 0 0 0 4.921-4.915 4.922 4.922 0 0 0-4.921-4.922zm-21.846 6.425a4.922 4.922 0 0 0-4.922 4.922c0 2.711 2.204 4.915 4.922 4.915s4.921-2.204 4.921-4.915a4.922 4.922 0 0 0-4.921-4.922zm287.421 13.005a4.916 4.916 0 0 0-4.915 4.922c0 2.711 2.197 4.915 4.915 4.915s4.922-2.204 4.922-4.915a4.922 4.922 0 0 0-4.922-4.922zm-20.619 4.401c-2.717 0-4.921 2.204-4.921 4.922s2.204 4.915 4.921 4.915c2.718 0 4.916-2.197 4.916-4.915s-2.198-4.922-4.916-4.922zm-190.451 7.004c.032 0 .064.026.084.038.552.598 2.261 5.07.739 7.351-.784-.373-4.318-3.663-3.412-4.781.417-.514 2.133-2.608 2.589-2.608zm-111.632 7.717s4.761.244 5.808.7c0 1.214-1.15 3.874-2.435 6.849-6.419 14.862-7.402 31.529-.88 47.586 10.235 21.801 39.129 73.371 36.983 78.081l-63.848.27.277-9.71c17.939-.71 20.76-11.67 16.281-20.75-3.097-6.27-11.79-9.87-19.738-6.57-11.476 4.76-12.182 10.43-16.282 19.22l-1.824-2.32c3.45-4.58 4.6-8.98 4.317-14-.276-4.92-.424-3.56 1.298-6.26 9.992-10.74 3.444-24.712 3.444-24.712-1.188-8.584 29.903-63.353 36.599-68.384zm-146.015 1.407c18.165 14.45 33.881 63.122 32.93 63.867-.842-.681-14.631 15.642.225 30.842 0 0-.906 9.14 1.947 13.83-6.561 13.62-7.717 14.65-8.276 25.83-.122-.04-1.137-.13-7.229-.16-30.089-.15-31.49 38.12-1.42 40.22 4.113.29 5.526-.65 8.006 1.8 2.519 3.13 4.781 6.26 9.079 4.64 1.022.01 2.673.97 4.395 2.57 2.891 3.91 7.087 6.7 13.075 5.62 2.121.21 4.293.82 6.586 1.65 2.628 2.07 7.203 3.65 10.782 2.09 1.06-.47 3.11-.62 4.774.14 4.35 1.98 8.777.74 10.402-.5 4.036-2.1 4.935 1.26 4.742 4.35-2.056 7.08 2.461 13.72 9.317 16.33 14.444 4.46 21.73-4.42 24.834-22.05.771-3.86 1.445-8.45 1.445-8.45l48.376 1.27-69.457 80.49-118.225 1.45-.623-265.951c5.198-.309 9.117.122 14.315.122zm434.933 14.354c8.822 3.399 9.529 9.631.745 6.926-14.27-4.395-29.626 4.324-32.833 16.789-.591 2.301-1.22 4.035-1.587 4.479-1.992 2.409-1.895.212-1.304-6.708 1.157-13.429 10.653-23.15 23.035-23.555 4.054.006 8.423.848 11.944 2.069zm-4.375 9.496c3.688 0 7.594 1.086 10.511 3.618 3.309 3.63 2.326 6.039-.218 5.917-11.951-4.992-27.147 1.048-33.103 16.141-3.65 9.258-4.312 4.292-2.692-2.872 2.994-12.979 12.869-22.566 25.502-22.804zm-83.131 3.579c-5.211.019-10.164 1.047-12.69 3.431-4.786 4.524-.803 4.601 7.871 1.587 4.222-1.465 12.343-.79 17.529 1.003 4.356 1.503 5.892 2.139 5.647.784-.231-4.074-9.663-6.843-18.357-6.805zm97.446 15.145c2.197 5.031.771 13.904-6.907 14.797-9.06 1.06-13.744-14.123 2.801-11.469-2.139-6.072-9.567-4.395-13.223-2.853-7.466 3.258-12.548 10.595-17.13 24.075-1.355 3.997-2.351 6.085-2.865 5.68-.868-.668-1.279-6.881.719-14.354 3.598-13.486 12.375-21.627 21.666-21.891 6.021-.918 13.031 1.652 14.939 6.015zm-129.604-5.854c-.803.186.61 3.014 2.808 7.415 1.221 2.429 2.049 5.583 2.049 6.2-.012 2.39 1.825 2.982 4.517 1.446 3.11-1.767 3.611-3.103 8.013-1.144 4.144 2.178 8.237 3.553 12.028 1.343 2.056-1.195 3.412-1.144 7.389-.096 4.742 1.246 5.371 1.439 8.912-.039 4.53-1.895 9.907-.597 11.045.675 1.092 1.214.456-.469 2.917-6.168 1.137-2.648 2.776-5.86 2.326-6.76-.611-1.221-4.729.129-9.221 1.305-2.422.636-4.741.449-9.393-.861-9.818-2.77-15.999-1.973-22.148.944-3.431 1.632-12.041-.623-20.741-4.157-.206-.084-.385-.129-.501-.103zm19.308 26.286c-4.427-.064-8.443 2.718-10.281 6.547-2.133 5.307 1.498 14.896 7.03 15.726 4.921.73 4.735-2.28 2.255-3.09-3.746-1.23-8.16-6.602-5.307-11.267 1.959-3.206 7.89-3.187 12.008.764 8.308 7.973 17.818 8.493 19.623 1.581.546-2.763-1.561-6.445-4.806-5.442-2.512.777-8.314 1.009-13.172-2.288-2.518-1.709-5.031-2.499-7.35-2.531zm87.685 25.293c21.197-1.26 12.08 27.68-.154 20.26-4.369-2.66-2.428-12.41 9.182-12.23-11.392-8.87-19.154 1.93-16.372 14.05-2.557 3.96-3.264 11.49-4.941 15.77-2.576 4.87-4.607-7.89-1.998-20.22 2.519-11.94 6.779-17.17 14.283-17.63zm-119.889 1.01c-4.375.05.122 4.76.804 5.32 13.203 10.36 19.654 16.77 9.033 13.35-17.251-4.1-21.698.78-34.837 6.57-2.41 1.16-3.097.44-6.002-.42-11.546-3.42-10.698 3.83 1.363 10.36 18.215 9.86 33.257 12.09 47.405 4.7 9.098-4.76 9.568-1.64 1.105 3.61-14.482 8.45-29.723 7.16-53.124-7.41-7.562-4.7-8.622-1.56-.886 3.39 17.676 10.68 41.468 20.36 60.898 4.6 3.823-3.4 4.594-5.16 7.531-3.69 7.768 3.88 5.217-2.87-.077-9.23-1.877-2.25-3.258-4.07-3.136-5.61.437-5.52-2.615-5.5-5.404-5.36-3.328.16-2.962-.95-7.048-5.45-5.963-6.54-13.243-13.56-17.625-14.73zm-176.392 29.36c-7.338.58-9.022.9-7.229 15.94.334 2.83 1.594 11.3 1.947 14.48 4.35 39.36.829 56.78-10.139 61.6-3.945 1.74-7.833 1.09-10.724-.06-6.946-2.78-9.805-11.21-4.761-21.24 1.362-2.71 3.001-6.89 3.656-9.3.655-2.42 2.14-7.71 3.27-11.77 2.763-9.87 4.26-24.89 2.635-39.24-1.105-9.74-.861-10.55 1.568-17.12 5.326-9.71 8.77-14.68 19.989-14.8 12.548 1.31 16.063 20.3-.212 21.51zm269.719-.87l-3.437.16c-4.132-13.76-12.767-9.3-14.206.36l-2.911-.04c.501-18.37 23.484-13.39 20.554-.48zm-322.407-10.27c23.427 2.32 27.7 8.14 29.544 36.44.167 13.69-.733 21.96-2.84 25.07-3.508 1.69-6.862-1.46-11.868 1.71-2.75 1.68-2.223 1.85-3.405.03-1.118-1.72.186-8.94 1.985-14.71 1.709-5.5-1.227-8.7-8.982-15.76-2.101-1.91-3.939-4.56-5.822-8.35-4.035-10.83-6.084-6.06-2.724 3.27 1.664 4.03 2.05 6.01-3 4.28-2.969-1.03-5.565.18-7.852 1.4-6.432 1.63-11.977-1.87-6.4-3.99 3.399-1.28 9.484-3.14 11.367-3.14 1.368.01 2.03-.3 2.03-.94.013-2.71-12.394-2.41-21.852.85-11.617 5.34-12.285 4.39-11.212-3.93 2.717-21.09 22.36-23.67 41.031-22.23zm229.138 1.84c5.989-.27 11.495 6.6 10.403 12.43l-2.853-.18c-1.337-10.98-11.713-11.44-14.476.84l-4.119.1c2.622-9.48 6.946-13.01 11.045-13.19zm69.663.22c2.364 1.4.72 5.2-1.799 5.96-.951.24-3.971-1.86-3.245-3.14 1.356-1.55 3.425-2.35 5.044-2.82zm26.851 1.86c1.651 0 3.785.84 4.074 3.06.096 3.24-2.371 2.57-3.194 2.28-1.632-1.51-2.248-5.22-.88-5.34zm-82.134 2.6c4.388.51 5.982 6.03 1.002 6.38-2.223.46-2.326-5.06-1.002-6.38zm-26.729.6c.527 0-.289 4.53-1.382 5.2-2.171 1.32-4.941-.12-4.838-1.48.244-3.27 4.196-3.74 6.22-3.72zm76.64 11c8.366 3.17 19.244 6.25 29.48 2.68 3.733-1.42 6.72-3.09 6.708-1.51-.007 1.66-2.962 4.18-8.308 5.68-11.02 3.09-19 1.89-26.569-3.79-2.133-1.61-2.885-3.08-1.311-3.06zm-3.45 4.73c13.57 7.92 25.817 8.7 36.849 2.93 4.466-1.55 4.607-.13 4.594 2.73-19.867 17.47-44.701-.66-41.443-5.66zm-333.111 12.06c-3.367 6.78-5.173 23.5-10.666 28.45-37.492-2.15-13.378-51.6 10.666-28.45zm232.356-5.54c-2.12 1.11-.25 6.44 3.091 7.87 28.676 12.33 43.383 13.81 59.697 8.13 6.753-2.35 10.448-7.88 10.782-10.56.398-3.19-3.965-3.51-11.611-.12-23.253 9.11-37.838 2.01-56.613-5.06-1.741-.65-3.514-.88-5.346-.26zm-109.814.38l-.103 41.81-27.307-.49.321-6.18 20.445.6-.321-29.86-23.715-.22-.039-5.54zm6.342.1l27.25.04 1.368 4.26h-28.618zm-109.93 13.27c-1.793 1.61-4.915 1.96-6.207.67-2.885-2.91.032-8.27 4.639-8.24 4.614.04 5.006 4.5 1.568 7.57zm12.555-6.79c4.119.01 5.481 3.86 2.345 6.97-2.12 1.93-3.206 2.05-5.121.64-2.403-2.12-1.15-7.47 2.776-7.61zm-26.89 1.03c1.08-.04 2.031.07 2.731 1.14 2.506 5.13-5.712 8.68-7.428 4.87-1.265-3.1 1.928-5.91 4.697-6.01zm154.085.56l1.587 5.38-31.407.15v-5.39zm-112.41 1.55c4.684.56 3.964 5.27 1.786 7.37-3.727 3.45-7.357 2.33-6.4-2.31.591-2.9 2.474-5 4.614-5.06zm-25.252 15.42c-1.651 5.88 1.87 17.79.823 19.04-2.294 2.72-5.976 1.32-7.608.39-5.673-3.64-6.033-25-.54-26.28 3.528 1.77 5.899-1.39 7.505-1.86 1.613-.46.533 2.45-.18 8.71zm83.008-8.78a5.606 5.606 0 0 1 0 11.21 5.602 5.602 0 0 1-5.603-5.6c0-3.1 2.506-5.61 5.603-5.61zm24.834.73h32.126c1.928 2.68 1.729 4.48 1.189 6.34l-33.315.04zm-94.342.72c1.465-.01 2.197 3.13 1.221 6.71-1.774 6.48-1.677 15.29-.463 19.11.816 2.64 1.619 4.45 1.144 5.2-1.665 2.63-6.753.83-8.912-2.63-5.282-9.78-4.44-28.04 1.863-26.63 2.371 1.19 3.727-.66 5.147-1.76zm-28.316 2.47c-1.555 2.48-.444 16.38-.604 17.53-.2 1.45-4.17.7-6.387-.3-5.449-2.56-3.971-9.06-2.911-14.3 1.189-4.12 3.817-4.43 7.049-4.8 1.792-.2 4.144-.05 2.853 1.87zm43.698.77c1.735-.07 1.979 1.21 1.58 6.36-.314 4.03-.462 7.46.2 11.26 1.394 8.08 1.567 10.27-.463 11.85-2.409 1.88-5.654 1.31-8.173-.91-5.153-4.08-5.494-24.12-1.446-25.86 3.766.94 6.137-2.04 8.302-2.7zm110.951 6.05l-4.619 6.35H310.37l.019-6.33zm-97.664 8.49c4.273.05 3.566 7.61 1.266 12.35-1.947 2.87-3.373 3.16-6.303.47-3.322-3.05.623-12.84 5.037-12.82zm89.671 2.12l-3.855 3.53-20.079.02v-3.51z" fill="#131f67"/><path d="M649.125 1158.31c-30.353-10.94-42.728-48.78-25.515-86.15 23.061-50.05 57.474-82.19 80.393-129.409-.263 0 44.977 66.459 63.052 91.119 38.757 55.94 36.81 101.99-.733 120.15-26.967 13.05-54.608-1.94-57.789-30.14-.501-4.41-.79-4.99-2.84-5-2.255-.01-2.679 1.56-3.238 8.07-2.165 25.1-29.389 40.01-53.33 31.36zM199.948 947.99l-33.29-26.105c39.599-.866 79.179.049 118.771.725l-39.541 28.173c-8.096-8.847-12.876-20.728-24.364-26.461-8.552 3.531-14.406 15.708-21.576 23.668zm292.015-9.093c-.675-.107-1.221-.161-1.625-.412-.906-.572-1.498-1.846-2.166-6.041-9.882-46.087-58.45-42.823-58.129-41.47-.366-1.818 60.372-56.656 96.07-99.682 10.788 32.88 43.499 108.001 42.137 107.729 0 0-9.464.077-34.002-.532-22.328 10.083-37.864 19.902-37.138 34.119-.122 5.006-1.33 7.089-3.001 6.659a56.049 56.049 0 0 0-2.146-.37zm109.063-148.343c31.599-.494 37.555-15.928 41.153-17.789 20.754-3.412 33.579 10.095 42.677 24.55 11.611 6.991 10.158.535 12.568-10.357l28.914-8.475-.026 9.212c-8.931 4.807-22.18 17.126-22.18 17.126l-8.803-.518-5.044 6.724c-20.091 10.868-39.791 23.816-60.975 32.215 0 0-25.38-32.819-28.284-52.688zm-393.677 2.89l-.327-182.209c13.069-.922 37.131-.803 37.131-.803 10.062-17.757 23.78-26.106 37.922-36.421 1.986 22.462 2.744 43.914 2.288 66.386-37.447 45.702-58.245 101.954-35.153 186.024l-13.853-1.537zm206.907 10.213c10.666-38.006 18.948-76.568 22.379-116.381l71.288-1.058 1.42 24.411zm242.734-82.971l-1.324-68.173c52.025-62.151 55.103-116.355 35.808-184.883 17.188 3.955 26.035 17.35 42.407 35.817l.013 177.772c-11.379 1.695-39.593 3.353-39.593 3.353-.854 8.329-24.692 28.246-37.311 36.114zM436.706 613.241l-3.174-30.059 92.626-88.473c-7.639 38.337-16.892 77.702-19.59 118.513zM283.02 519.346c-6.612 4.335-30.983-20.988-34.973-38.013 6.111-8.256 59.742-34.53 59.742-34.53s31.349 40.229 30.064 57.008c-13.924 3.7-25.997 4.754-36.566 16.103-6.046.539-8.167-6.262-18.267-.568zm-42.304-34.016c7.46 1.199 2.679 11.264 1.529 18.636l-39.413 11.683c13.551-11.561 23.157-21.4 37.884-30.319zm128.345-88.948c8.095-.244 16.545 3.096 22.79.579 2.339-.908 7.01-2.318 12.124-1.351 11.778 3.643 15.909-9.335 23.421-9.391 9.721.025 15.112-6.776 15.176-20.391.026-5.889.521-6.552 1.626-7.138 3.315-1.754 6.855.704 7.299 3.938 6.971 25.078 24.57 47.629 52.327 45.834-22.103 22.526-89.33 91.772-89.33 91.772-12.112-36.892-28.201-71.23-45.433-103.852zm286.001-21.611l40.492-29.388 24.236 29.498 20.959-28.082c12.318 8.821 40.325 28.49 40.325 28.49s-83.984 1.24-126.012-.518zM232.819 359.77c8.52 6.028-81.151-102.792-91.489-141.258-7.749-22.67-1.915-50.377 14.964-62.25 28.599-20.112 62.139-12.075 68.5 21.781 1.806 9.603 4.806 8.46 5.86.026 3.823-43.129 56.786-46.278 77.161-16.196 13.949 20.592 14.052 53.335-6.143 86.121-4.883 10.414-69.277 108.793-68.853 111.776zM31.506 253.519c-6.625-14.467-7.334-39.188 12.375-42.534 14.833-1.908 20.875 4.992 22.083 15.592.583 3.096 2.333 3.283 2.875-.242.875-10.875 11.625-17.221 20.042-15.625 23 3.938 21.666 29.284 14.166 46.479-11.375 22.834-23.333 37.242-34.375 60.217-12.666-23.921-27.083-43.354-37.166-63.887zm798.763 797.511c-6.625 14.47-7.333 39.19 12.375 42.53 14.833 1.92 20.875-4.99 22.083-15.59.584-3.09 2.334-3.28 2.875.25.875 10.87 11.625 17.21 20.042 15.62 23.042-3.94 21.667-29.28 14.167-46.48-11.375-22.83-23.334-37.24-34.375-60.217-12.667 23.917-27.125 43.357-37.167 63.887z" fill="#d40000"/><path d="M678.036 108.352l-372.26 2.39 72.342 96.62c76.859-15.647 143.765-5.48 213.197 6.645zm-9.515 4.899l-24.776 30.781c-6.856-6.198-22.161-3.96-19.996 9.602-18.986-9.872-23.009 17.231-6.894 16.119-2.018 5.322-18.299 6.727-22.887-2.931-16.712 9.366-21.82.28-26.247-5.622 21.242 14.418 31.574-15.217 8.199-16.886 9.181-18.58-23.581-27.01-21.647-2.832-21.608-4.897-16.654 25.507-.784 19.276-10.306 15.497-27.217 5.087-30.642 2.068-8.694 6.521-25.136 6.729-29.736-3.694 24.05 4.835 21.415-26.829.058-19.537 11.385-24.319-26.485-21.046-17.284-1.124-21.544-.822-16.777 25.744 2.146 21.223-16.815 15.845-29.409 1.079-32.069.763-9.953 10.981-27.429 4.964-29.832-1.526 17.149 6.774 22.771-22.037 1.15-20.306 5.538-18.56-25.573-20.811-18.704.27-17.143-3.883-18.075 23.566 1.131 19.293 1.188 7.517-13.924 14.716-23.215 7.449-6.817 3.732-14.277 9.54-23.15.944 13.512-2.176 15.735-25.014-6.085-20.079 1.041-14.02-7.01-14.783-16.956-11.225l-15.935-21.584zm-256.812 34.436c-1.182 2.611-3.18 4.392-2.711 6.382.385 1.633 2.062 3.899 4.401 6.97 18.627 24.277 56.388 23.464 67.748-1.566 2.313-4.648 1.838-5.705-.945-9.658-3.366-4.775.431-9.865 4.556-9.437 6.155.64 7.215 6.003 4.253 9.819-6.425 8.091 11.232 26.397 28.856 29.274 22.598 3.689 44.02-12.202 41.038-26.441-.173-.818-.584-1.579-.758-2.432-2.403-11.923 16.5-6.211 9.696 1.386-2.557 2.747-3.939 3.566-3.592 6.585 5.487 25.233 36.168 27.878 50.779 20.099-18.852 30.746-48.716 7.051-53.972-14.436-26.472 38.216-58.277 30.275-75.998-3.313 2.095 2.095-34.915 60.207-76.923.622-17.779 47.957-50.207 15.54-47.991 13.574 14.9 8.298 41.951 5.293 44.559-20.36.354-3.168-2.043-3.363-3.437-5.863-7.042-12.679 15.684-12.769 10.441-1.205zm-69.99 3.152c3.366.315 3.932 1.716 3.366 5.14zm288.873 9.015l-4.877 6.124c-1.163-2.995-1.195-5.746 4.877-6.124zm53.066 2.028c-11.578.491-20.522 16.491-19.937 37.829.283 10.348 2.107 36.316 2.814 40.179.983 5.399-.09 12.72-1.992 13.493-5.011 2.036-6.894 3.349-8.25 5.742-3.521 6.219-.61 13.239 6.805 16.384 5.294 2.247 12.008-.855 16.545-7.63 2.525-3.762 3.116-5.436 5.339-14.898 1.028-4.356.938-11.581-.238-18.212-2.666-15.074-.687-33.849 4.498-42.667 9.291-15.814 9.124-26.169-.482-29.436-1.741-.593-3.444-.853-5.102-.784zm-.604 2.41c13.481.049 13.114 13.493 5.648 17.629-2.897 1.295-6.438 1.599-9.978-.722-3.984-2.299-3.438.323.681 3.312 4.838 3.511 6.894 3.294 4.292 11.526-2.422 7.666-3.688 24.238-2.364 33.652 3.623 25.759.559 38.6-10.281 43.07-5.346 2.203-11.109-.902-12.593-5.195-2.32-6.716 1.811-12.482 12.015-10.869 0 0 .719-2.14-1.934-24.496-3.688-31.101-2.236-52.81 3.476-60.397 3.045-4.053 6.991-7.524 11.038-7.51zm91.426 32.066c-3.155.027-6.541.882-10.005 2.831 0 0-.372 13.985-.783 16.103-2.288 11.831-1.62 13.24 3.9 14.919 13.377 4.073 24.358-4.8 23.87-18.713-.27-7.821-7.537-15.219-16.982-15.14zm1.805 1.868c7.312-.221 13.949 8.327 13.23 16.384-.386 9.641-9.606 14.896-17.869 13.212-2.448-.37-4.973-.834-5.763-2.671-1.658-2.553 1.008-3.48 6.566-3.453 6.085.029 7.216-.807 9.233-4.217 4.003-6.755-1.118-15.32-7.646-13.714-2.229.548-2.557 1.557.058 2.289 8.006 3.608 5.025 8.641 2.249 10.682-3.296 2.428-8.758-.9-9.696-2.911l.559-13.051s2.647-2.477 9.079-2.55zm-82.442 60.477s-3.052 1.457-4.517 2.811c-3.239 2.984-3.913 7.506-2.333 11.948.701 1.967.591 2.299-1.87 5.501-6.997 9.122-7.903 13.68-4.317 21.906 1.632 3.736 1.645 3.735.102 8.674-6.598 21.185-19.629 45.195-33.533 61.824-2.146 2.57-3.007 5.2-3.007 5.2s3.251-.166 5.057-1.064c14.367-7.149 29.543-20.998 43.653-30.078-22.309 18.099-46.082 34.294-46.082 34.294l30.359 1.627c-7.62 7.816-140.745 120.614-105.393 322.93 41.552-10.335 60.892-27.479 83.046-47.306.206 16.302.566 60.176.701 60.176.424-.721-19.231-7.402-14.554 8.775 2.776 8.874 4.183 31.334-.745 44.013-.212.536 2.12 1.388 1.889 1.887-.27.574-3.155.583-3.155.583-7.543 14.072-26.979 17.156-36.56 16.732-3.533-.335-2.101 4.508-1.638 6.258 1.786 7.248 10.133 22.766 25.733 47.688l4.093.542-2.371 2.188c1.838 3.355 6.76 9.664 6.76 9.664l.218 2.141s8.558 11.909 13.146 17.501c.315.382 1.028-.523 1.343-.144 2.544 3.062 5.603 6.491 8.192 9.545.199.236-.398 1.108-.193 1.331 4.877 5.318 14.464 16.061 14.464 16.061l1.902-.462 7.536 8.494c62.544-28.438 127.908-91.354 127.221-91.217l.539-135.405-74.051-.22-.315-179.374 73.968 73.127-.482-20.982c-16.776-15.953-84.209-83.99-84.209-83.99 9.817-1.367 19.32-4.557 28.534-9.558 16.083 8.85 33.283 14.166 52.989 11.546l-.083-19.899c-22.373-.039-36.245-7.454-46.281-16.404l-13.815-.462c-25.514 19.405-43.557 10.4-62.967 6.586l-13.41-19.316 137.398-.703-.983-46.884-20.863.462-13.557-10.02 15.723 6.646s-.245-2.581-3.393-7.489c-8.468-13.839-19.218-34.203-25.656-51.964-3.123-9.023-3.116-8.651-.488-13.935 3.617-7.262 2.833-16.056-1.928-21.003-3.348-3.487-3.245-4.231-2.146-6.827 4.459-10.287-6.297-14.073-6.342-13.412-23.015 8.869-53.888-.267-53.329-.543zm53.528 3.735c4.594-.039 5.096 1.978 5.076 5.401-.385 6.273-8.552 8.545-12.246 9.417-17.65 4.044-48.434 1.65-50.439-6.586-1.471-6.052 2.301-9.407 14.843-6.405 20.149 4.329 32.615-.327 42.766-1.827zm-56.985 17.469c1.831-.013 4.028 1.852 4.658 4.899.54 2.602-2.172 10.262-4.433 12.027-5.616 4.37-10.679-2.426-6.933-9.818 2.165-4.262 4.356-7.092 6.708-7.108zm60.237.863c.841.022 2.338.194 3.315.884 4.446 3.144 4.858 14.029.7 15.601-4.234 1.602-8.166-2.812-8.128-9.738.02-4.243 1.6-6.81 4.113-6.747zm-14.117 2.249c.906-.045 1.87.147 2.853.602 3.708 1.709 5.5 13.124 1.825 16.766-2.846 2.824-8.97 2.67-10.762-3.192-2.134-7.007 1.201-13.931 6.084-14.176zm-31.304.321c5.423.037 6.657 12.099 1.35 17.067-4.44 4.154-11.225.065-9.098-8.171 1.06-4.118 3.501-8.607 7.748-8.896zm15.421 1.928c7.942 1.355 7.267 20.794-3.129 18.854-5.924-4.13-5.764-18.564 3.129-18.854zm-34.716 20.822l11.225 1.044s-14.527 31.438-27.808 43.451c-4.967 5.034-7.833 5.247-4.055-.12 8.328-10.289 20.638-44.375 20.638-44.375zm67.286.201c6.553 17.477 13.281 35.218 22.231 53.089-13.596-13.105-25.643-33.253-36.746-52.166zm-52.765 1.686l7.428.081c2.474 11.319 6.753 18.536 11.784 24.737 4.356-7.356 7.106-15.439 9.779-24.055l5.905-.08c2.262 1.347-6.946 35.467-15.967 39.615-9.548-7.753-17.599-28.713-18.929-40.298zm-3.135 8.072c-.623.815 11.54 30.041 21.827 39.415 9.695-9.409 15.883-21.807 20.04-36.584l31.901 44.776-31.098-21.283c-6.213 10.317-12.805 20.16-20.721 28.351-8.54-9.232-15.929-20.186-23.678-30.6-12.002 8.892-20.419 18.389-36 26.685.07.347 30.533-32.854 37.729-50.76zm-2.994 31.825l21.711 26.525-57.789-.824zm47.007.422l36.463 25.098-54.332.563zm-290.525 12.348s.308 1.592.668 2.55c6.471 26.4 24.32 48.347 51.178 45.741l-88.284 88.246s-14.579-49.466-44.116-100.174c0 0 5.391 1.109 9.6 1.928 3.945.602 6.939.414 9.895-.361 2.261-.334 3.99-1.813 6.007-2.249 3.399-.714 7.679.512 9.94 1.305 6.066 1.147 10.191-2.247 17.785-8.956 2.024-1.785 2.795-1.352 5.346-1.344 9.516.025 15.581-8.14 14.515-20.802l-.482-5.622-1.202 6.324c-2.274 11.923-3.861 17.064-15.664 17.569-2.86.122-3.933 2.044-8.456 5.924-6.329 5.432-10.794 5.899-15.279 3.775-4.575-2.168-4.999-.894-9.317 1.164-4.941 2.357-12.144 2.08-18.633.221-9.06-2.595-7.948-1.727-7.948-1.727 52.462 93.377 70.896 182.937 69.733 262.493-1.658 113.355-41.314 204.845-76.101 260.002 0 0 5.969-.604 11.283-1.388 2.564-.707 4.536-.026 7.068.867 2.364.829 4.151.791 6.47.521 1.806-.206 6.226.032 9.073.443 6.457.925 6.888.077 13.917-6.746 19.95-19.379 18.652-18.666 33.109-18.19 21.685.7 39.034 15.009 46.262 38.204.912 2.937 2.108 7.049 2.275 7.049l-1.414-6.143c-6.348-31.104-32.949-42.484-55.154-42.066l93.725-93.969c-.476.089 21.724 71.5 41.064 103.324.032.225-5.866-2.538-16.648-1.137-5.86.758-12.42-.013-16.102-.643-4.742-.122-7.627 1.279-13.531 6.137-2.455 2.101-4.665 4.401-9.458 6.425-11.399 4.819-15.941 9.792-16.006 22.289-.006 2.275-.353 5.179-.321 6.303.013.302-.013.836.064.836.193 0 .456-.463.681-.791.572-.835 1.716-3.097 2.603-8.333 1.58-9.343 3.546-12.613 12.4-16.757 2.654-1.24 8.244-4.627 10.731-6.606 8.153-6.502 10.871-7.993 17.496-6.451 3.771.881 6.971 1.331 12.028.72 6.014-.732 6.361-1.041 12.799.617 4.363 1.124 9.76 2.217 9.76 2.217-90.841-182.415-87.84-351.527 1.818-523.101 0 0-26.543.313-27.667 1.003-.431.262-3.656-.028-7.171-.662-7.222-1.304-5.641-.429-22.687 16.706-21.075 21.181-54.789 4.285-64.94-31.263-.527-1.86-.984-2.98-1.787-4.297-.25-.42-.925-1.125-.925-1.125zm85.887 20.862c3.9.413 6.804 1.443 6.322 5.097L417.877 509.108l-1.947-7.891zm26.375.743c-1.535 3.042-5.718 6.85-7.549 9.718l6.81 8.474-3.778 6.827-10.46-8.795-19.918 19.657 16.609 18.634-15.723 15.862-5.243-5.923 8.315-8.694-12.915-12.088-22.746 22.107 18.531 18.834-13.59 13.031-5.422-5.14 7.125-7.871-12.086-12.489-21.184 21.605 16.764 18.653-12.947 12.851-5.744-5.823 6.226-6.485-11.99-12.55-21.582 21.284 17.508 18.995-12.869 11.505-4.543-4.799 6.226-6.686-11.765-12.59-13.39 12.148-2.229-8.333L551.96 382.57zm7.634 1.948l-5.584 11.204-4.318-4.739 5.622-5.782zm-312.468.723c-3.437.837-82.314 44.775-127.22 93.006l-.141 17.97-1.671 2.149.803 27.809 1.125 1.486.385 11.344-1.786 2.992-.019 31.143 2.383.401.386 38.11 73.769.201-.078 182.076s-43.319-47.613-74.513-75.718l.115 21.284 82.526 85.255c-5.673.798-13.062 2.169-24.191 8.313-26.78-16.723-57.731-11.606-57.731-11.606l.122 21.686c19.681-1.9 37.44.791 58.13 14.717 17.027-11.543 37.549-18.564 68.146-9.397 6.734 10.662 13.467 21.662 20.201 28.813l-146.117 1.085.18 43.913c6.483.128 22.694 0 22.694 0 8.218 16.101 24.371 38.082 31.079 65.737-9.214 11.057-8.475 19.951.482 31.091-.077 5.03-1.593 10.57 4.054 16.17 18.589-9.09 39.58-5.06 55.2-.41 5.294 1.56 7.292-4.46 7.106-12.05-.469-4.35-.443-6.2 2.892-9.1 7.948-6.89 3.013-21.05 1.766-21.364-.456-12.414 39.33-74.604 39.355-73.46l-7.929 2.872-34.015.154c89.466-86.261 126.854-184.658 119.028-295.765-1.748-27.995-6.104-40.82-6.104-40.82-31.509 14-57.41 24.181-82.565 51.12l-1.664-57.907c1.401 2.742 10.737 5.271 14.92 1.767 2.859-1.872 3.148-3.875.501-10.903-3.849-10.202-4.755-32.082-1.889-39.516.334-.867.617-3.176.861-5.441.328-3.048-.341-3.223-.623-3.172.732-.178 3.81.445 4.176.12 10.75-9.455 22.283-15.365 36.425-15.983l.36-6.907c-10.486-26.488-19.372-36.874-28.869-51.683 0 0-2.699-.893-4.401-.543l2.191-2.308c-13.333-21.15-32.3-40.398-49.738-58.671.051-.064.013-.088-.097-.06zm-.584 3.594l9.458 8.734c-45.131 21.691-89.659 53.473-133.505 96.58l.604-15.842c49.559-46.606 86.947-68.993 123.443-89.472zm289.837 15.842l5.686 5.662-7.871 9.137 5.121 5.22-2.852 6.968-13.095-13.594zm-281.748.723a5.382 5.382 0 1 1 .005 10.763 5.382 5.382 0 0 1-.005-10.763zm386.204 7.429c91.997 102.393 44.758 251.201-78.048 286.949l-1.369-8.413C696.4 649.311 725.468 509.7 645.068 421.925zm-370.256.683l5.859 6.787c-52.449 25.036-103.607 62.568-153.062 116.718l-.482-13.673c46.448-48.818 96.096-84.137 147.685-109.832zm-33.836 2.088a5.377 5.377 0 0 1 5.378 5.382c0 2.971-2.403 5.381-5.378 5.381s-5.378-2.41-5.378-5.381a5.377 5.377 0 0 1 5.378-5.382zm-16.384 10.12c2.975 0 5.378 2.409 5.378 5.381a5.377 5.377 0 1 1-10.756 0 5.376 5.376 0 0 1 5.378-5.381zm54.557 3.534a5.38 5.38 0 0 1 0 10.762c-2.975 0-5.385-2.409-5.385-5.381s2.41-5.381 5.385-5.381zm233.699 3.715l5.378 5.682-8.532 8.553 12.15 12.69 11.681-11.244-5.86 16.746L431.486 568.04l-2.146-10.803 8.115-8.151-12.433-12.409-2.191-8.273 12.234-11.445 5.114 5.261-7.145 8.252 11.508 11.325 20.902-19.236-17.252-18.934 14.238-13.775 4.922 4.799-6.811 7.008 11.99 12.991 21.441-20.541-17.606-18.613 14.155-13.955 5.359 5.12-7.126 8.554 12.189 11.787 21.004-20.743-17.271-18.151zm-304.319 3.614c2.974 0 5.377 2.409 5.377 5.381s-2.403 5.381-5.377 5.381c-2.975 0-5.378-2.409-5.378-5.381s2.403-5.381 5.378-5.381zm84.852 1.044l4.099 6.807c-62.441 31.541-105.625 63.137-169.531 135.734v-9.136c49.333-60.57 100.626-99.617 165.432-133.405zm-31.362.803c2.968 0 5.384 2.409 5.384 5.381s-2.416 5.381-5.384 5.381c-2.969 0-5.384-2.409-5.384-5.381s2.415-5.381 5.384-5.381zm483.122 2.068c11.013 9.801 34.144 19.57 49.051 18.533l.404 11.786c-26.003 2.469-48.716-14.175-48.716-14.175-20.027 12.208-40.408 13.749-61.663 8.453l-8.167-17.509c31.51 14.609 61.066.668 69.091-7.088zm-124.432 3.192c1.157 2.132 5.038 4.599 5.038 4.599 24.262-6.315 31.818 18.687 20.503 32.969l3.232 10.482c4.33.784 8.128 2.303 11.205 4.437 5.899 4.09 9.15 11.178 8.411 18.614.823 8.057-11.231 15.559-11.887 14.998l-.16 11.526c3.392 2.825 7.479 5.559 10.081 9.557 5.796 9.73 3.495 19.535-5.442 25.701-5.32 3.595-11.09 4.069-11.322 3.695l-5.602 13.091c4.928 2.784 6.316 7.519 7.087 10.903 1.677 7.337-3.476 16.893-9.94 20.421-8.16 4.453-19.282.496-19.276.501l-7.948 7.952c2.043 6.888 2.602 10.997 1.523 15.039-2.68 10.001-13.166 13.923-21.583 13.171-6.618-.589-11.591-5.421-11.591-5.421l-8.809 3.374c.244 0 .129 11.162-4.318 14.577-1.4 1.447-6.367 4.658-6.367 4.658l-1.163-7.69c3.489-2.515 5.661-8.61 4.96-13.071l19.032-9.317c0 .689 5.211 5.739 8.777 6.465 7.305 1.489 14.945-4.214 14.958-10.923.006-3.913-2.249-6.578-2.892-9.738l16.166-16.726c6.689 2.299 11.38 2.691 14.374.964 5.648-3.259 7.17-9.988 6.084-14.035-1.285-4.785-5.551-7.88-5.84-8.333l9.015-22.789c4.202-.023 6.804-.682 10.081-2.811 6.682-4.389 5.815-12.918 2.968-16.967-3.463-4.927-8.5-5.841-8.892-5.723l.661-23.673c0 .193 9.118-4.38 10.101-9.658 1.439-7.773-1.838-12.719-11.386-14.919-5.3-1.22-5.018-.2-5.018-.2l-7.556-21.425c11.97-7.295 8.173-18.897 2.114-22.789-6.399-4.105-15.421-.301-15.421-.301s-4.112-4.081-7.228-7.369zm-320.177 4.337c7.858 10.572 21.171 31.75 28.612 50.7.321.827.16 5.02.16 5.02-21.229 1.846-28.521 10.167-36.065 16.023-5.847-3.003-8.314-6.522-18.89.1-.039.312-26.973-16.293-32.126-38.833 19.256-11.867 37.607-23.164 58.309-33.01zm-107.765.141a5.38 5.38 0 0 1 5.378 5.381 5.381 5.381 0 1 1-5.378-5.381zm51.017 1.064a5.382 5.382 0 1 1 .004 10.764 5.382 5.382 0 0 1-.004-10.764zm368.251 6.607c9.278 12.207 23.26 35.292 26.582 55.739 4.677 28.755 1.567 58.921-11.624 80.014-23.921 45.058-65.409 54.652-65.435 56.221l-.424-9.236c.392 2.078 31.709-11.117 53.028-40.901 13.165-20.184 20.638-49.031 18.094-71.541-1.581-32.44-24.609-62.356-24.802-62.466zm-436.057 4.397a5.381 5.381 0 1 1 .005 10.763 5.381 5.381 0 0 1-.005-10.763zm50.965.08c2.969 0 5.378 2.409 5.378 5.381s-2.409 5.381-5.378 5.381a5.381 5.381 0 1 1 0-10.762zm459.446 9.076c11.944 1.294 26.542 22.942 39.836 35.299l.142 176.493-39.696.804c-5.172 12.418-17.162 24.689-36.264 36.805l-.019-66.141c65.139-69.783 47.418-146.164 36.001-183.26zm-525.028 2.007a5.382 5.382 0 1 1 0 10.763c-2.969 0-5.378-2.409-5.378-5.381s2.409-5.382 5.378-5.382zm49.057.964a5.381 5.381 0 1 1-.007 10.763 5.381 5.381 0 0 1 .007-10.763zm503.959.422l81.158 81.822-.277 12.007-91.463-92.925zm-474.204 7.69l2.146 10.281c-2.622-4.12-2.718-5.644-7.267-6.365zm-43.936 2.992a5.382 5.382 0 1 1 .005 10.763 5.382 5.382 0 0 1-.005-10.763zm-48.607 1.506a5.38 5.38 0 0 1 0 10.762c-2.975 0-5.385-2.409-5.385-5.381s2.41-5.381 5.385-5.381zm456.611 0l16.025 11.345-5.217 20.46-16.404-14.738zm-370.275 1.667l2.853 1.686L240.354 502l-36.881 13.313c11.861-10.126 24.049-21.165 37.343-28.994zm6.046 6.505c2.622 10.372 8.308 25.711 15.286 38.702-4.735 2.447-21.756 12.076-21.711 16.555 2.403 8.116 20.381 15.562 20.381 15.562-6.817 11.047-13.287 24.069-18.595 39.053-3.071-5.231-3.424-25.857 3.194-34.435-6.528-2.573-15.46-8.455-22.245-14.538 4.376-15.49 23.035-24.741 23.851-24.857-.328.779-5.513-32.358-.161-36.042zm-59.877 2.611c2.975 0 5.385 2.409 5.385 5.381a5.382 5.382 0 0 1-10.763 0 5.38 5.38 0 0 1 5.378-5.381zm410.819.441c23.941 44.606 9.702 83.351-28.496 111.117l.887-10.521c26.35-19.119 43.422-56.755 24.172-92.645zm-456.278 1.285a5.383 5.383 0 0 1 5.385 5.381 5.382 5.382 0 0 1-5.385 5.381 5.38 5.38 0 0 1-5.377-5.381 5.38 5.38 0 0 1 5.377-5.381zm383.011.282c-17.573 65.492-17.136 95.509-19.18 113.265l-68.204.582-2.654-23.613zm-272.496 1.806s14.797 13.732 28.072 25.721l-1.587 3.133-12.908 1.727c-9.882-19.453-13.577-30.581-13.577-30.581zm-12.246 7.189l.102.02.823 9.758c-4.434-.166-52.405 19.871-89.254 51.864 5.494-9.675 14.759-18.954 23.716-26.866 19.051-18.703 64.613-34.777 64.613-34.776zm-68.192 2.228a5.383 5.383 0 1 1 0 0zm30.199 6.125l2.737 2.811-12.735 6.586zm88.752 2.871c.174-.007.36-.003.54.02 1.972.248 2.788 1.182 3.919 2.128-2.493-.517-4.941-.809-7.267-.683.585-.701 1.594-1.418 2.808-1.465zm-48.71 2.028l1.163 7.288c-27.596 15.691-60.436 30.52-108.208 75.683v-15.024c29.987-27.775 64.953-51.068 107.045-67.947zm37.125.682c1.722.423 3.252.446 4.819.061 0 0-1.002 1.982-2.191 2.028-1.253.048-2.628-2.089-2.628-2.089zm11.707.422c3.47-.215 5.841 2.96 5.14 7.048-2.666 13.853-2.563 27.884.302 37.688 2.23 7.642 2.795 10.329.945 11.606-16.275 11.22-25.194-39.364-11.611-53.712 1.845-1.731 3.644-2.532 5.224-2.63zm-132.861 1.767c2.968 0 5.377 2.409 5.377 5.381s-2.409 5.381-5.377 5.381c-2.975 0-5.385-2.409-5.385-5.381s2.41-5.381 5.385-5.381zm467.579 1.245l10.114 16.967-14.091 15.782-8.578-18.333zm-348.249 9.216l-.527 5.859c-7.267 2.206-13.603 5.336-19.051 9.964-1.054.902 16.834 8.973 18.71 7.107l-.038 6.245c-.251 2.052-29.582-7.264-31.568-14.216 3.329-4.624 21.885-15.376 32.474-14.959zm-133.492 3.112a5.383 5.383 0 1 1 0 0zm80.001 6.179c-2.082 3.955-5.159 9.209-5.757 14.951-20.117 12.203-40.755 23.6-65.865 51.597l-13.538-.081-.302-3.554c27.449-26.162 57.165-48.734 85.462-62.913zm51.839 1.692l.142 7.369c-4.678.059-7.235-1.467-10.724-3.232 2.943-1.856 5.217-3.697 10.582-4.137zm151.418.783l3.772 3.956-2.345 2.209zm-203.88 15.321l7.447 4.638c-19.18 10.008-39.374 24.795-56.844 44.114h-14.759c18.639-20.202 38.718-38.325 64.156-48.752zm397.403 5.321l1.484 20.039-18.717 10.26.367-21.143zm-355.883.08l12.87 1.406 1.33 5.441c-10.801 6.867-20.182 14.922-29.177 23.291 3.444-10.752 8.822-21.425 14.977-30.138zm-30.86 2.149l5.519 2.55-2.185 9.417c-15.767 7.008-28.329 16.475-41.783 29.235h-15.145c13.262-14.209 35.307-32.093 53.594-41.202zm47.887 8.854c.045-.005.064-.005.064.02l2.005 61.763c-55.591 65.08-52.572 128.014-36.361 185.088l-10.601-.482c-12.324-15.309-28.715-30.901-28.715-30.901l-.038-179.667 38.326.141c9.041-20.912 33.9-35.793 35.32-35.962zm-45.26 8.674l.463 8.233c-7.922 4.703-14.656 9.881-20.439 15.441h-14.399c9.953-9.262 19.835-18.586 34.375-23.674zm130.697 4.036l2.107 9.718c-129.032 46.674-152.349 182.361-76.197 275.504l-5.179 5.783c-87.448-93.9-49.063-247.288 79.269-291.005zm-129.668 9.718s.7 7.445.925 9.92h-14.457c3.251-3.812 6.136-7.765 13.532-9.92zm363.104 3.113l-8.314 19.376-22.186.342 10.081-19.377zm-140.45 13.272h20.221v19.316h-20.221zm-87.505 1.907l.34 8.494c-8.982 4.571-6.714 11.841-8.976 11.726-5.519 1.397-20.079 9.116-20.079 9.116-5.166-4.681-12.124-3.502-15.356-1.225-4.492 2.936-5.481 9.773-4.196 15.561l-15.446 18.051c-7.454-3.187-14.727-2.988-18.351 1.988-4.086 5.613-2.538 12.576 4.215 20.38l-8.411 21.585c-.97-1.292-15.048 2.841-15.24 11.204-.2 8.851 11.642 14.624 11.629 15.3l-.565 23.814c-.533-1.145-12.086 3.571-10.518 14.979 1.439 10.506 15.742 9.225 16.037 10.1l7.775 22.789c-.521-.695-10.531 9.104-4.395 18.372 5.108 7.725 19.957 2.728 19.835 2.229l4.118 5.803-4.562 4.94s-1.966-2.36-3.071-2.149c-8.642 1.652-18.299-.33-22.932-7.228-6.303-9.735.739-24.945 2.975-24.818l-5.339-13.132c-9.734-.192-17.978-8.882-18.415-16.163-.919-15.247 11.598-21.625 11.623-21.525l.367-14.216c-.771.85-12.369-7.38-12.093-16.826.206-6.904 6.021-15.025 13.172-18.292 2.075-.974 5.301-2.51 5.301-2.51l4.845-11.645s-6.856-9.899-5.083-19.879c3.296-15.11 22.99-14.074 26.1-12.609l9.136-11.445c-4.497-10.444 3.277-22.562 13.436-24.537 4.517-.724 17.168 2.269 17.168 2.269l11.707-6.044c-.206-6.397 6.778-10.562 13.249-14.457zm66.565 21.143h17.323v19.317h-17.323zm46.159 0h19.533v19.317H485.22zm-111.317 4.84l-.225 7.389c-111.864 54.239-66.11 166.54-50.156 179.606l-3.592 7.931c-19.629-11.937-70.234-141.523 53.973-194.926zm86.098 19.556h21.024l.18 19.858h-21.024zm-90.956 9.658l-6.669 18.092-20.542 1.726 7.595-18.051zm419.731 13.232l14.052.081c-26.273 30.733-54.634 51.679-82.623 63.148 0 0-.096-2.737.759-4.899.687-1.715-.418-6.044-.418-6.044 31.111-15.322 52.482-33.121 68.23-52.286zm-72.027.261c-3.618 4.347-7.743 8.178-12.87 11.015l-2.024-11.195c4.292-.05 14.894.18 14.894.18zm24.737-.241c1.426 3.577-36.888 24.263-37.023 22.5l.097-6.878 20.676-15.34zm8.276 0h.077l10.781.061c-9.74 15.361-61.245 43.252-59.106 39.327l2.082-11.235c16.603-7.303 31.67-17.233 46.166-28.153zm18.17 0l14.187.061c-21.344 27.105-42.998 37-63.771 48.662-1.246-.181-.681-.65-4.574-.536l-7.1-5.54c1.323 1.217 47.733-25.989 61.258-42.647zm-396.978.964l-.489 8.192c-29.858 25.68-41.835 58.493-26.298 96.58l-3.695 8.132c-16.712-40.64-11.777-80.129 30.482-112.904zm135.971 1.285l1.587 22.107-92.704 90.235c14.11-50.412 18.017-80.842 21.801-112.221zm296.867 5.201l.038 12.268c-36.547 40.26-73.383 58.301-105.214 65.598l-.719-4.718 14.739-9.076c47.49-20.685 68.282-41.512 91.156-64.072zm-110.926.329c.642 8.866-7.248 25.605-16.275 35.05l-15.46-.04-1.709-6.707c12.819-6.912 24.693-16.269 33.444-28.303zm4.671 2.643c5.674 9.137-2.846 32.781-3.193 31.844-.681 1.631 48.568 12.041-2.031 36.404 1.105 7.157 5.847 22.442 2.191 31.885-1.143-3.616-9.946-28.138-16.744-34.415 15.793-4.501 27.166-14.165 25.939-17.348-2.57-4.53-9.644-10.096-21.544-14.176 10.133-14.059 13.14-24.614 15.382-34.194zm-361.723 4.477l1.587 18.634-17.991 10.822-1.388-20.46zm312.987 17.308c1.408.018 2.731.382 3.374 1.085 8.886 3.596 9.528 46.949 1.465 51.361-5.86 3.684-9.979-2.239-9.78-3.293 3.888-19.946 1.459-32.276-.154-46.221.167-2.028 2.757-2.962 5.095-2.932zm154.991.643v15.42c-52.244 54.156-108.542 96.843-166.01 120.815l-5.243-8.894c69.798-32.276 128.165-78.322 171.253-127.341zm-9.176 1.405c-24.197 33.684-53.683 55.676-94.072 65.658l-.758-9.557c50.297-11.427 96.135-56.101 94.83-56.101zm-658.59 5.462c31.516 32.218 63.81 64.152 95.898 97.222l-12.748.662-83.529-86.66zm375.198 1.606l1.124 7.951-9.175 10.06 14.495 15.581.745 3.675-12.452 13.011-5.622-5.562 6.888-7.731-11.688-12.288-21.666 20.842 17.85 19.376-13.467 12.81-5.308-5.481 6.888-7.951-11.964-12.63-22.09 21.966 16.706 18.453-11.142 12.329-5.281-5.563 5.725-6.565-12.112-12.469-21.222 20.44 17.47 19.316-14.194 14.136-5.506-5.341 7.974-8.674-13.089-12.469-10.505 9.919s3.965-9.842 4.536-11.506c.849-2.445 4.325-4.38 26.408-26.163 26.35-26.231 53.381-50.812 79.674-79.472zm151.154 5.301c7.697.129 20.805 1.986 27.166 5.341 11.803 6.225 8.089 11.124.424 14.778-9.169 4.368-16.693 6.504-27.05 6.807l.302-5.08c6.014-1.455 12.253-2.922 17.566-5.863 3.656-2.023 4.601-3.655 4.601-3.655s-3.566-3.623-9.233-5.682c-4.157-1.507-10.088-1.496-13.313-2.028zm-344.716 6.706l9.696 14.537-11.482 19.256L304.85 756.2zm195.63 1.567c.341 2.739 3.804 13.388 1.986 11.324l-6.445-7.249zm149.69 1.425c5.359.452 11 .612 14.913 2.51-4.536 3.522-9.683 4.309-14.817 5.18zm134.545 7.269a5.865 5.865 0 0 1 5.866 5.863c0 3.238-2.628 5.863-5.866 5.863s-5.86-2.625-5.86-5.863a5.86 5.86 0 0 1 5.86-5.863zm-302.591 10.16l4.998 4.839-6.463 7.53 11.726 12.348 14.521-13.594 1.927 8.635-136.016 133.823-7.55-.54 8.655-10.222-9.844-10.056 4.042-7.229 11.604 10.32 21.261-20.34-17.226-18.131 14.74-15.12 5.557 4.799-8.449 9.156 12.305 12.569 22.25-21.885-17.406-18.935 13.892-13.252 5.101 4.839-6.463 6.847 12.683 13.212 18.755-19.517-17.065-18.794 15.157-14.758 4.658 4.658-6.984 7.791 12.748 13.192 20.464-21.023-16.847-18.272zm288.976 3.493a5.866 5.866 0 0 1 5.866 5.863c0 3.239-2.628 5.863-5.866 5.863s-5.86-2.624-5.86-5.863a5.86 5.86 0 0 1 5.86-5.863zm-110.553.261c9.239 10.847 14.797 22.916 15.902 35.901-7.376-11.198-16.77-21.129-29.074-29.756l2.107-5.442zm130.433.883v13.092c-41.206 46.682-91.22 81.869-142.583 106.359l-8.732-10.622c60.738-27.116 104.693-60.79 151.315-108.829zm-60.616 9.137l-16.706 12.971-.019-5.622zm-86.099.964c14.219 6.943 26.145 18.675 33.251 36.061-19.424 12.189-40.73 22.059-61.04 31.886-9.754-15.704-19.565-30.417-27.269-50.633 31.323-.232 39.92-17.343 40.139-17.475 7.549 2.854 9.13 3.194 14.919.161zm112.539 2.55c2.923.056 5.84 2.291 5.943 5.642a5.86 5.86 0 0 1-5.86 5.863 5.866 5.866 0 0 1-5.866-5.863c.636-4.046 3.213-5.692 5.783-5.642zm-43.345 3.855l.038 5.662c-7.999 7.008-23.535 18.352-23.535 18.352l-6.426-.341 2.089-16.063c9.734-1.96 19.16-4.804 27.827-7.61zm-409.155.662l15.344 12.61-4.697 19.557-15.099-11.465zm206.014 3.695l1.426 5.662-126.038 124.591-7.171-1.163zm232.511 4.819c3.238 0 5.866 2.625 5.866 5.863s-2.628 5.863-5.866 5.863c-3.239 0-5.86-2.625-5.86-5.863s2.621-5.863 5.86-5.863zm46.544-.04c.688 0 1.51-.05 1.51.602v10.782a5.87 5.87 0 0 1-1.972.342c-3.239 0-5.397-2.625-5.397-5.863s2.621-5.863 5.859-5.863zm-14.219 13.07a5.864 5.864 0 1 1-5.866 5.863 5.866 5.866 0 0 1 5.866-5.863zm-49.269.061a5.86 5.86 0 0 1 5.86 5.863 5.86 5.86 0 0 1-5.86 5.863 5.865 5.865 0 0 1-5.866-5.863 5.866 5.866 0 0 1 5.866-5.863zm-42.387 1.808l6.02.2-11.199 6.666c2.056-2.574 3.977-4.545 5.179-6.866zm107.462 2.742l.078 12.056c-28.824 28.815-65.23 58.711-120.892 87.525l-7.093-7.183c45.388-21.646 87.974-51.973 127.907-92.398zm-81.864 6.574c3.238 0 5.866 2.625 5.866 5.863s-2.628 5.863-5.866 5.863-5.86-2.625-5.86-5.863 2.622-5.863 5.86-5.863zm52.128.442a5.86 5.86 0 0 1 5.86 5.863 5.86 5.86 0 0 1-5.86 5.863 5.866 5.866 0 0 1-5.866-5.863 5.865 5.865 0 0 1 5.866-5.863zM190.14 837.941c19.893-11.545 35.879-12.898 58.669-9.417l6.811 13.433c-22.193-3.933-45.568-3.581-65.563 11.846-20.716-13.089-36.451-16.867-53.465-14.739l-.302-14.16c22.167-3.097 42.066 4.499 53.85 13.037zm515.609-12.77c3.238 0 5.859 2.625 5.859 5.863s-2.621 5.863-5.859 5.863c-3.239 0-5.867-2.625-5.867-5.863s2.628-5.863 5.867-5.863zm53.606 2.41a5.865 5.865 0 0 1 5.866 5.863 5.866 5.866 0 0 1-5.866 5.863 5.86 5.86 0 0 1-5.86-5.863 5.86 5.86 0 0 1 5.86-5.863zm-71.237 8.754c3.238 0 5.859 2.625 5.859 5.863a5.86 5.86 0 1 1-11.719 0 5.86 5.86 0 0 1 5.86-5.863zm54.659 3.4a5.865 5.865 0 0 1 5.867 5.863 5.866 5.866 0 0 1-5.867 5.863 5.86 5.86 0 0 1-5.859-5.863 5.859 5.859 0 0 1 5.859-5.863zm-72.727 6.961c3.277 0 5.937 2.66 5.937 5.943s-2.66 5.943-5.937 5.943c-3.284 0-5.95-2.66-5.95-5.943s2.666-5.943 5.95-5.943zm57.063 4.918a5.86 5.86 0 0 1 5.859 5.863 5.859 5.859 0 0 1-5.859 5.863 5.865 5.865 0 0 1-5.867-5.863 5.866 5.866 0 0 1 5.867-5.863zm-74.437 4.057c3.238 0 5.866 2.625 5.866 5.863s-2.628 5.863-5.866 5.863c-3.239 0-5.86-2.625-5.86-5.863s2.621-5.863 5.86-5.863zm-259.195 5.301l14.572 13.352-15.074 15.142-5.525-5.303 8.391-8.775-5.68-7.65zm317.453 1.297a5.861 5.861 0 0 1 5.86 5.863 5.86 5.86 0 0 1-5.86 5.863 5.865 5.865 0 0 1-5.867-5.863 5.866 5.866 0 0 1 5.867-5.863zm-16.879 9.927a5.859 5.859 0 0 1 5.859 5.863 5.86 5.86 0 0 1-5.859 5.863 5.866 5.866 0 0 1-5.867-5.863 5.865 5.865 0 0 1 5.867-5.863zm-18.345 9.959a5.86 5.86 0 0 1 5.86 5.865 5.857 5.857 0 0 1-5.86 5.86 5.863 5.863 0 1 1 0-11.725zm-301.525 16.582l4.755 3.881-7.466 8.995-5.706-.083zm-92.106 24.262c-16.616 8.218-24.512 13.429-36.097 23.51l-16.609-23.035zm-113.065.154l44.257.623-14.72 20.825c-9.702-10.229-19.546-17.175-29.537-21.448zm52.706 2.275c4.8 1.523 17.348 19.41 23.253 29.17 12.587-10.004 24.911-21.19 38.353-27.204-15.986 16.879-30.013 34.337-39.998 51.222-2.833-7.614-10.71-29.402-20.682-38.873-15.73 14.682-21.943 32.409-21.943 32.409-8.462-14.418-18.652-28.862-30.443-42.368-1.953-2.634 14.348 7.492 30.482 23.189 4.542-11.444 16.699-27.095 20.978-27.545zm-53.143 11.244c7.595 6.033 28.265 32.544 30.636 48.485l-9.895.623c-5.263-16.371-14.11-32.736-20.741-49.108zm110.052 2.711c-7.486 15.344-16.77 31.022-23.433 48.004l-9.779-.418c10.711-23.407 14.611-27.693 33.212-47.586zm-56.08 6.824a.36.36 0 0 1 .238.058c9.291 12.683 13.679 25.013 16.449 40.023l-7.19-.283s-5.018-15.061-8.456-20.381c-2.23-3.251-4.009-2.833-5.584-.141-3.546 6.367-4.87 12.748-6.862 19.674l-8.275-.598c-1.53-11.372 16.776-38.063 19.68-38.352zm-1.304 43.711c3.36.045 6.875 3.688 6.843 10.092.263 3-2.069 9.65-4.594 9.99-4.691 2.48-10.236-5.25-8.842-11.69 1.189-5.494 3.624-8.424 6.593-8.392zm-16.282 1.215c6.644.584 8.07 15.487 5.378 18.527-3.09 3.07-11.263.89-12.034-4.42-2.667-6.751 2.191-14.043 6.656-14.107zm32.743-.09c7.235 1.015 5.41 17.367 1.671 19.767-5.815 3.08-10.248-2.06-8.282-9.75 1.58-6.188 3.938-9.87 6.611-10.017zm16.725 2.711c8.289.925 3.502 15.326-.122 18.256-5.256 4.1-10.332-2.03-7.806-9.34 1.953-5.671 5.204-8.955 7.928-8.916zm-66.874.443c6.027.964 9.516 14.603 5.931 18.503-1.877 2.23-7.325-1.03-9.812-4.77-2.987-4.49-.193-13.752 3.881-13.733zm64.156 29.703c.714 7.16-4.684 7.16-20.252 3.66-7.858-1.76-21.795-.65-28.914.65-11.983 2.17-13.673 1.35-13.653-3.54.025-5.65 6.746-8.86 22.289-9.35 11.122-.34 38.802-.45 40.53 8.58zm24.204-4.2c-18.537 1.74-23.465 24.97-21.428 33.55 1.632 14.34.938 29.37-1.825 39.24-1.979 7.08-3.739 14.63-6.926 21.06-4.877 9.71-3.618 16.91 3.611 20.78 5.943 3.18 13.255 2.09 17.836-2.83 8.276-8.9 9.266-27.79 4.196-70.64-1.792-15.13-.835-18.14 6.503-17.29 15.401-.12 14.784-23.85-1.967-23.87zm-2.229 19.51c-4.144-1.6-6.959 2.17-6.406 11.55.148 4.16.88 8.84 1.407 12.57 5.995 41.11 3.752 68.66-8.873 70.01-10.994 1.76-18.441-6.33-13.076-14.69 3.039-4.74 5.654-5.39 11.566-2.89 8.128 5.03 6.091-2.3-1.221-7.71-4.691-3.32-5.05-3.32-2.532-13.7 3.393-14 4.537-23.98 3.29-41.68-1.748-12.53 2.435-29.14 18.376-30.12 16.121-.48 11.257 22.41-2.531 16.66zm-113.785 54.16c5.243 2.53 10.344 2.1 15.337.03 1.947-8.74 2.069-16.01 7.948-27.89-9.799-9.81-26.292-5.95-30.931 4.32-4.646 10.28-.322 19.69 7.646 23.54zm15.722-30.35c5.937 1.26 5.044 7.5-.546 5.47-13.326-6.28-24.191 12.61-13.435 19.71 5.494 3.08 7.916 1.32 2.474-2.9-2.23-2.57-1.671-3.62-.322-6.19 2.795-5.19 12.947-4.35 12.228-.58-2.313 11.96-3.836 15.41-7.428 15.44-20.696 1.07-24.589-37.67 7.029-30.95zm175.789 21.51s-61.65 69.7-91.341 105.39l372.164-1.73-70.819-97.7c-60.751 14.03-132.129 9.98-210.004-5.96zm-1.85 22.27c9.297.1 19.873 6.85 29.016 29.35.495.21 40.929-61.4 75.941 2.39 5.712-14.31 38.686-51.67 76.801-3.73 13.538-32.08 44.758-21.23 47.688-10.04-.662-2.41-29.755-9.32-42.349 11.95-2.326 4.5-2.448 8.77.219 11.3 6.296 5.97-.553 14.52-7.724 9.65-2.795-1.89-3.148-5.87-1.002-8.74 6.323-4.72-6.637-19.38-17.297-24.67-14.624-7.24-35.017-4.04-44.829 6.35-5.275 5.6-8.494 10.62-9.265 14.63-.411 1.87-.161 2.84.945 4.08 4.253 5.14 1.452 12.16-4.305 11.3-7.544-1.11-6.535-8.16-1.491-12.02 1.548-.75.957-1.66.495-2.98-13.77-38.76-65.075-31.38-70.62-4.53-.206.97-.649 1.99-.425 3 .579 2.57 2.082 4.73 1.504 6.75-2.358 8.24-12.671 5.88-13.133-.95-.212-3.1 3.142-4.04 4.78-6.88.983-1.78 1.433-3.95.488-5.93-13.904-29.12-37.767-23.03-49.609-16.45-.251.14 10.589-13.98 24.172-13.83zm-15.421 16.89c5.089-.18 9.715 2.32 14.039 7.32 14.573-7.7 24.93 5.64 23.208 6.93-20.631-13.39-27.333 17.81-7.003 16.63-8.931 18.48 22.977 26.4 19.398 2.78 19.693 6.87 22.938-20.17 2.994-19.76 6.445-11.15 23.176-8.08 30.25-1.09 8.321-10.17 28.753-.48 30.784 8.21-22.913-11.74-25.226 24.14-3.033 16.5-6.573 22.84 28.708 19.59 18.954-.1 21.975 7.23 18.987-25.61-2.608-18.95-1.311-1.7 17.072-20.69 30.436-2.85 1.812-3.15 22.675-13.43 34.099 2.73-24.744-8.37-20.06 24.93-2.332 18.31-4.742 22.06 27.249 18.48 19.076-.32 24.789 6.27 13.808-31.49-3.611-17.55 2.847-15.18 23.677-8.89 23.446-6.55 0-.01 11.064-11.96 23.452-3.21-19.352 1.63-12.767 27.73 5.52 20.3-.193 8.86 7.17 14.73 17.129 11.72l15.646 21.88-356.763 2.24 28.496-33.97c9.535 7.88 19.417 4.15 20.632-8.2 20.747 12.72 26.138-17.5 6.669-18.81 3.952-2.69 7.646-4.07 11.122-4.19zm-19.937 9.81c1.233.88-.444 5.07-3.175 3.86zm278.175 8.78c1.06 1.52 1.812 2.49 2.872 4.02.508 1.35-5.564-.72-2.872-4.02z"/></g><path d="M822.777 1124.01v12.4h9.789l27.886 62.58-26.701 43.71h-10.288v11.09h38.956v-11.09h-12.973l35.715-51.54v51.54h-10.73v11.09h35.573v-10.82h-11.691v-106.56h11.691v-12.4h-35.573v12.4h10.73v31.47l-15.176 19.54-22.742-51.01h15.176v-12.4zM23.329 46.215v12.193h12.467V164.47H23.329v13.132h36.234V164.47h-9.61v-30.089l14.555-20.159 21.82 50.248H72.394v13.132h39.52V164.47h-9.449l-28.93-64.603 27.489-41.66 10.185.201V46.215H71.971v12.193h11.314l-33.332 51.149V58.408h9.892V46.215z" fill="#d40000"/></svg>