<svg clip-rule="evenodd" fill-rule="evenodd" stroke-linejoin="round" stroke-miterlimit="2" viewBox="0 0 934 1300" xmlns="http://www.w3.org/2000/svg"><g fill-rule="nonzero"><path d="M125.192 107.834l681.388.001 1.247 1089.025-683.195-1.81s-.026-710.651.56-1087.216zM609.183 1189.03c-25.37-45.78-65.478-120.36-66.664-120.94-14.83 7.85-166.028 28-238.755 8.49-24.871 37.18-49.294 74.01-70.949 110.87zM376.969 1052.1c-3.803.09-8.046 2.4-7.263.39.452-1.17 1.527-12.9 1.996-17.1 1.137-1.87 2.739 3.02 2.557 7.57-.105 2.61 1.155.75 9.766 1.2 9.314.49 16.944 2.22 20.104 2.91 11.015 2.36 32.325.66 41.457-5.94 4.943-3.58 6.812.28 1.716 4.12-23.012 17.34-41.258 10.73-61.251 7.82-2.98-.43-5.995-1.04-9.082-.97zm9.785-16.45c-1.431-.92-2.371-1.02-4.202-.17-7.062 3.28-5.215-1.42-.127-6.16 2.323-2.16 2.257-3.26.492-5.54-.893-1.15-2.384-1.28-2.03-3.01 1.529-7.43 12.022-18.67 23.75-23.693 4.878-2.09 5.65.198-.519 3.803-9.488 5.54-12.556 10.27-7.189 8.34 10.404-3.73 19.895-1.1 33.208 5.51 3.803 1.89 5.545 2.25 8.781 1.91 2.391-1.97 4.533.4 6.015 1.63.931.75 1.13 1.11 2.19.86 7.576-1.77 3.036 3.03-7.318 10.54-18.545 13.03-38.775 19.17-53.051 5.98zm28.533 3.21c7.579-2.27 16.823-7.01 22.492-11.96 6.89-6.01 2.993-5.09-4.925-1.31-11.46 5.49-19.483 7.07-32.376 6.78-10.791-.25-10.452-.68-10.845.65-1.38 4.69 13.47 9.48 25.654 5.84zm-20.938-18.32c.616-2.02 1.087-4.71.536-5.59-.998-1.58-3.143-.41-5.871 3.01-1.691 2.13-1.458 2.41.194 4.09.831.56 1.469.97 1.97 1.26 2.303.98 2.673-1.15 3.171-2.77zm4.717 2.77c3.32-11.22 10.749-11.01 16.05-.26l3.739.02c-7.686-20.9-22.566-10.32-23.063.07 1.752.59 3.274.17 3.274.17zm27.758-1.89c3.508-1.94 2.994-3.27-1.475-5.55-3.175-1.63-4.856-1.96-5.434-.91.044 2.31.138 5.63 1.486 7.46 1.399.84 3.327.02 5.423-1zm-49.172-31.958c-.643-1.057-.529-2.988 1.911-4.107 15.046-6.918 4.083-21.518-7.533-10.568-3.684 3-9.163 4.398-13.394 2.61-3.98-1.721-4.054-6.554 1.232-7.583 1.735-.34 6.186-1.282 7.829-2.41 20.195-10.733 30.92 12.601 16.592 20.365-2.946 1.708-6.07 2.659-6.637 1.693zm-56.575-21.193c-8.196-3.681-9.319-16.488-1.637-21.479 4.89-3.318 9.888-4.223 23.355 2.397 9.513 4.67 14.958-.358 14.713 5.079-.149 3.308-.348 6.64-5.878 7.436-8.99 1.296-15.127-10.812-26.672-9.672-8.331.822-7.276 10.716-1.257 12.729 8.022 2.681 3.158 5.853-2.624 3.51zm150.701 1.865c-1.505.701-2.211-2.571-1.56-4.312 4.097-9.644 7.864-17.315 11.577-26.35 2.963-7.206 4.949-10.294 6.279-10.286 1.358.009 1.988 1.059-.285 5.495-3.434 8.942-15.993 36.215-16.011 35.453zm-67.292-2.5c-3.625-2.562-3.013-6.37 1.112-3.489 5.302 3.701 13.994-3.071 12.221-9.465-2.142-7.724-12.478-9.592-21.131-2.673-13.651 10.908-28.629 11.465-28.628 2.933.023-2.438-.319-2.992 5.361-3.371 6.605-.445 14.055-3.447 17.758-5.685 16.606-10.05 34.273-3.114 30.615 13.653-1.651 7.912-11.414 11.74-17.308 8.097zm-60.891-24.749c-1.347-.04-3.811 1.309-4.517.782-1.383-1.026-1.183-4-2.32-7.181-2.017-5.655-.05-3.892 3.5-2.361 4.823 1.852 9.393 1.493 13.46.091 4.194-1.444 9.7-1.114 18.51.027 7.087.917 11.069.647 17.502-1.176 6.982-2.169 5.134-1.389 3.969 2.886-.757 2.808-1.712 6.567-2.6 7.473-4.826-2.685-8.491-1.644-11.663.177-5.213 2.285-8.908 2.679-13.176 1.409-4.015-2.272-6.398-2.087-9.624-.126-5.557 2.672-8.023-1.746-13.041-2.001zm104.11-11.753c.979-1.705 2.4-4.057 3.735-6.692 10.787-21.277 11.523-27.189 3.909-34.359-10.231-9.638-18.951-5.459-28.754 13.781-2.379 4.665-3.803 8.176-4.764 9.618-1.108 1.658-2.402.383-3.04-.264-1.209-1.23 9.669-21.648 13.933-26.107 11.16-11.659 31.895-2.327 30.575 13.538-.664 7.993-2.194 12.373-9.552 27.019-1.821 3.628-3.402 6.702-4.366 8.182-3.452 2.298-2.663-2.974-1.676-4.716zm-101.67-.848c1.703-7.578 26.162-11.083 32.608-1.148.63.973.261.931-2.506.177-12.436-4.081-14.903-3.859-26.817.822-1.792.684-3.066.965-3.285.149zm93.324-1.434c.005-.717.91-3.517 2.291-6.228 8.156-16.006 10.405-19.873 7.917-22.864-4.847-5.833-11.357-.766-17.34 15.956-2.236 6.248-3.76 4.912-4.851 3.927-2.088-1.892 7.161-21.343 11.62-24.244 10.11-6.384 18.068 1.007 13.6 14.072-3.485 5.901-6.365 14.971-9.62 19.748-1.545 2.139-3.628 1.508-3.617-.367zm-36.573-26.008c-.492-.805.463-1.889 3.965-9.345 4.816-10.252 6.31-14.05 4.353-19.902-3.488-10.43-16.634-12.986-24.62-6.142-2.613 2.208-4.385 5.265-5.616 8.008-2.886 6.355-5.291 14.579-7.001 16.301-1.495 1.5-3.581 1.803-3.445-.806 1.898-5.535 2.795-9.826 7.284-17.938 11.189-24.153 43.443-12.97 35.893 12.458-2.806 9.23-6.035 16.216-7.944 18.486-1.063 1.268-2.825.167-2.869-1.12zm-7.486-4.435c.005-.794 1.214-3.059 2.499-6.213 5.455-13.406 5.491-17.515-2.46-17.686-4.755.606-5.462 2.544-9.637 13.116-1.356 3.435-2.103 5.884-2.909 6.932-.865 1.123-2.487.458-3.153-.221-1.705-1.721 5.739-19.067 9.674-22.334 9.049-7.824 20.772 3.285 15.28 13.26-2.573 6.973-4.792 11.704-6.302 13.857-1.335 1.906-3.006 1.638-2.992-.711zM202.679 742.142l-27.484-1.875c4.869 29.224 5.117 61.393.198 84.205-4.206 19.505-4.254 33.871-2.999 50.78 1.461 19.678 9.839 36.361 11.949 57.244 1.528 15.135-1.84 30.926-4.849 45.972-5.027 25.142-3.99 27.762-3.25 57.272.686 27.35-1.88 26.37-3.458 24.77-.239-.24-.46-5.07-.424-10.83.036-5.75-.321-19.82-.651-29.59-.659-19.51 1.523-36.751 3.104-43.844 3.217-14.442 6.832-29.238 4.606-45.226-4.525-20.173-10.901-40.322-13.138-59.766-2.759-23.977 4.022-48.034 6.264-65.448 2.164-16.813-.13-45.901-4.559-58.006-.763-4.027-4.382-9.278-4.382-9.278-4.144-.589-8.304-1.171-14.116-1.135-.324 115.466-.003 230.981.089 346.463l25.629 23.66 26.333-24.91zm1.85 132.456s39.106 22.4 82.224 44.416c-4.106-25.186 8.917-28.984 21.143-31.908-2.93-48.663 41.875-38.681 48.739 3.601l4.415.017c7.764-21.081 15.441-35.629 33.117-39.101 13.698-2.691 27.209 5.943 30.634 26.278-.603-1.434 45.422-26.884 46.69 26.888 20.901-12.914 35.816-1.759 41.844 14.635 8.825-13.381 30.913-13.968 37.975-14.939 2.459-2.828 6.797-4.437 14.682-4.388 6.759-.341 15.842-5.373 20.514.759 7.107 1.116 12.522-.162 18.596 4.508 4.834 3.657 10.225 11.807 18.271 6.187 15.341-7.357 32.583-10.666 46.302-19.532 0 0-3.638-4.662-2.577-3.991.389.241 2.097 2.443 4.67 3.47.922.369 9.352-4.658 9.352-4.658-57.142-65.51-104.146-193.404-73.109-311.733.86-2.014-2.59-2.788-4.287-3.502.523-.907 8.91.311 5.349 7.834-3.587 22.671-7.65 47.238-8.554 66.035a45.636 45.636 0 0 0 .192 4.338c128.121 58.811 112.415 186.192 79.499 230.528l5.188 6.88c2.296 1.53 100.793-55.629 97.542-57.975l18.639-9.234-3.02-249.781-73.709-5.609s.785-2.098 1.713-2.642c.675-15.248-.694-37.802.04-56.681.285-53.948.835-72.293.128-73.785-22.732-14.898-56.632-36.683-85.162-47.247 1.171.333-.464 22.355-1.332 23.612-26.693 8.476-14.303 19.31-24.168 30.946-6.627 7.248-22.138 8.628-29.627-.068-8.949-8.618-13.145-28.388-13.145-28.388-14.12 15.027-11.221 33.18-30.131 40.015-30.393 15.004-40.043-29.853-38.276-28.814-11.648 11.173-44.329 20.261-47.86-26.922-14.693 13.464-31.165 6.78-38.152-9.787-8.97.316-19.028 7.311-28.108 11.091-8.424 3.711-19.201 5.891-27.201 5.725-10.006 1.204-18.247 1.158-27.265-1.514-4.235 1.368-13.787-2.725-16.734-8.589-4.509-5.272-8.44-5.58-12.726-4.628-14.602 7.654-30.258 9.502-47.494 17.515-1.076.744 1.514 2.145.642 1.87-.366-.116-9.053 4.244-9.053 4.244 87.308 114.235 92.059 229.572 73.759 311.317-.718 2.833-1.114 4.891.773 7.12-2.769-.475-2.814.331-3.331-1.434l9.078-68.616c.267-8.287 1.309-7.675-6.008-10.765-6.767-2.859-13.166-5.614-18.75-9.031-21.289-15.699-45.352-35.023-57.077-59.134-33.457-51.824-22.419-113.66 2.642-162.655l-6.234-6.442c-73.179 36.488-116.387 75.831-116.387 75.831l.315 245.101 75.202 8.63zM168.25 710.926c-2.411-2.653-8.552-3.118-11.111-1.101-.591.495-1.852 3.094-2.226 2.999-3.408-.87-5.765-1.575-6.218-4.436l3.615-5.439c2.862-4.305 6.989-5.831 13.941-7.449 2.467-.574 6.191-1.099 7.507-1.655 5.223-2.247 7.042-7.11 1.752-4.931-3.864 1.056-9.264.706-9.981-2.81-.589-2.889-3.061-4.021-5.818-3.682-5.095 1.219-9.749 3.867-14.26 6.532-2 1.199-5.793 3.917-5.793 3.917-.599.934-2.806-5.877-.748-7.867 2.555.308 4.754.333 7.247-.656 6.217-2.465 12.202-5.44 18.476-7.827 3.997-1.562 4.363-1.43 3.311-4.252-.519-1.041-.98-4.499-.292-6.309.732-1.924.65-2.891-.59-3.714-2.824-1.872-9.595-.128-19.119 4.424-2.9 1.389-4.812 1.945-6.646 3.418 1.182-3 .494-3.553.463-6.693 3.888.485 7.387-1.051 10.491-2.679 2.56-1.332 5.431-2.648 12.467-3.542 1.921-.245 1.047-7.245-1.142-9.274-2.069-1.918-6.421-1.959-11.682-.41-4.701 1.074-10.545 2.162-13.778 7.187-4.078 3.842.099-6.37 7.536-10.445 3.261-.07 10.453-1.606 12.145-1.978 2.87-.632 3.33-7.334-.841-10.206-2.612-2.268 9.489-2.327 9.256-1.635-.154.394-.267 3.259.658 3.989 5.212 1.561 5.165 5.802 5.623 7.589 5.984 9.777 8.93 3.643 13.05.275-.869 21.293 6.612 23.715 7.602 25.063-10.276 19.077-2.526 19.546 7.108 23.934 0 0-3.662 1.479-6.099 1.33-3.834-.235-11.173 4.289-14.381 6.954-1.77 1.471-1.824.244-8.902.04-6.668-.193-7.158.302-10.198 1.643-5.999 2.644-5.968 5.142-.107 4.158 6.243-1.05 12.359 2.724 13.077 7.862.495.972.052 2.689-.046 2.632-1.3-.244-4.24.244-4.195-.375.044-.618-.002-2.947-1.152-4.581zm9.11-25.803c1.693-1.075 1.984-4.139.511-5.377-1.341-1.128-7.039-.525-8.65.914-3.639 2.852 3.013 7.621 8.139 4.463zm3.648-12.818c2.095-1.626 2.351-5.536.536-7.805-3.077-3.85-11.119-1.545-11.555 3.31-.463 5.171 6.639 7.897 11.019 4.495zm-2.617-17.585c.379-4.246-3.844-6.936-7.729-4.922-4.839 2.508-1.901 7.794 4.16 7.483 3.357-.172 3.357-.172 3.569-2.561zm-14.163-17.229c-2.26 1.102-2.374 3.749-.234 5.453 8.488 4.666 5.904-7.828.234-5.453zm592.833 25.38c-3.727-13.67-13.997-.117-14.012.072-.363-14.009 2.299-20.243-8.254-25.029 10.591-15.968 8.382-18.17-2.847-24.297 1.036.089 14.908-3.005 17.281-10.892.527.369 21.763 5.577 24.413-5.963-6.407 2.908-19.014 3.342-19.158-9.068 1.194-.356 4.183.255 3.935.651-1.675 7.959 12.883 9.927 15.27 3.641 0 0 4.892 3.263 7.043 3.767.235.16-6.629 9.637-12.885 11.066-11.281 3.719-15.177 4.723-15.189 6.955-.003.867 1.845 1.005 5.192 1.688 7.009.481 6.864 1.979 7.78 4.291.815 2.044 1.605 2.453 3.943 2.246 8.004-2.648 12.007-4.039 17.586-9.592.674-.131 1.465 5.837 1.898 6.042.062-.952-5.666.71-14.459 5.835-7.183 4.183-9.994 4.791-10.909 5.921-.675.838 1.069 3.477 1.249 6.342.158 2.409-1.474 3.578-.273 4.33 1.38.869 3.526.71 6.337-.018 6.206-1.49 10.777-3.919 16.358-7.353-1.19 2.234.802 7.904.802 7.904s-2.756-1.929-5.02-.928c-4.368 1.906-11.431 4.508-13.336 4.955-1.849.432-2.645.672-3.368 1.281-.892.749-.739 2.554-.756 5.202-.014 1.858-.545 3.574.626 4.134 2.609.837 7.866.572 13.225-1.29 2.283-.993 7.132-3.618 7.132-3.618l-1.514 7.839c-2.036-2.281-7.873-.602-11.775.931-1.971.617-2.561 1.851-3.06 3.561-.878 2.927.995 4.941 3.147 5.903 1.433.64 3.638.377 3.638.377-10.117 3.835-8.104 5.248-14.011 2.339-2.555-2.752-5.051-5.656-6.029-9.225zm10.592.003c-1.681-1.931-4.6-3.038-6.304-2.276-1.52.802-.975 2.479-.49 3.761 1.285 3.548 10.176 2.403 6.794-1.485zm-5.907-9.772c2.376-3.096-.234-7.26-4.618-7.288-3.046-.019-4.667 1.87-4.636 4.243.059 4.497 7.273 5.632 9.254 3.045zm-4.868-11.798c4.397-1.191 5.744-5.432 2.706-8.508-2.159-2.186-8.94-2.458-10.754-.481-4.626 5.051.562 11.018 8.048 8.989zm3.654-15.519c2.581-1.314 3.079-3.504.796-5.993-4.134-3.507-11.359-.771-9.022 4.342 1.144 2.504 5.085 3.252 8.226 1.651zm-528.92-117.792c3.881-1.406 6.683-4.405 10.768-6.706 2.754-1.498 1.925-1.26-1.601-3.312-2.773-1.27-8.33-6.872-8.85-5.536-1.259 2.388-1.079 15.445-.317 15.554zm98.124 136.758c.16-2.665.482-6.679.407-9.623.526-5.61-.487-3.971-3.537-2.138-2.256 1.449-5.875 3.651-7.294 4.355-5.595 2.78-4.926 2.925 2.951 6.699 6.612 2.948 7.356 2.66 7.473.707zm-7.678-13.131c5.347-3.355 7.122-5.084 7.38-8.851.028-4.332-.479-5.907-4.293-2.908-13.013 10.232-26.409-9.843-14.497-20.997 2.43-2.273 5.515-5.833 5.542-6.737.195-6.468-7.117-.187-13.094 8.696-6.615 8.076-10.737 18.182-4.932 27.885 4.644 7.101 14.98 8.505 23.894 2.912zm-29.569-13.065c-.235-3.167.66-6.704 1.075-7.756 1.459-3.706 1.398-4.167-5.233-1.083-2.644.87-5.801 1.574-7.016 1.567-5.416-.034-4.064 1.662 3.698 8.105 7.801 6.475 8.061 7.061 7.476-.833zm18.445-31.011c.827-1.949-.892-2.699-2.537-2.332-.129.029-2.97 2.138-6.306 4.753-10.115 7.928-17.533 8.854-22.55 2.814-5.088-6.124-2.961-13.387 8.41-21.703 5.017-3.668 6.221-3.917 3.808-5.519-1.835-1.219-1.946-1.034-9.157 3.827-14.534 9.795-18.886 16.484-17.429 26.231.298 4.003 2.406 6.1 4.444 7.658 13.857 12.223 33.081-4.63 41.317-15.729zm14.668 5.782l-.875-13.487c-14.777-12.681-28.789-34.342-33.633-52.281-4.937-15.954-1.003-49.235-.261-46.763l-7.984-15.053c-6.949 15.975-9.983 40.337-2.424 65.158 6.417 21.071 19.264 46.591 45.177 62.426zm-62.235-7.856c4.695-8.974 4.841-8.005-4.229-8.083-10.351-.088-9.195-1.343-3.361 7.457 4.685 7.068 3.897 7.685 7.59.626zm6.218-12.298c5.963-1.906 4.602-1.468 12.515-6.592 9.083-5.88 9.463-9.096.345-4.564-11.708 5.818-21.99 4.331-25.806-3.263-3.4-6.767 3.698-15.206 15.388-18.508 3.993-1.128 6.098-2.081 6.109-3.822.033-5.308-19.864 1.774-28.063 9.788-15.826 15.47-1.977 33.827 19.512 26.961zm-25.586-24.088c.534-.807 1.955-2.741 3.268-4.746 5.605-6.483.892-4.546-4.083-6.318-2.629-.967-5.324-1.926-6.866-1.693-2.977.449 1.002 6.172 1.96 9.865 2.678 8.227 2.371 7.975 5.721 2.892zm21.185-14.825c10.033-.977 11.056-1.942 11.069-4.012.013-2.051-1.226-1.659-6.263-.963-13.336 1.843-22.168-1.534-24.074-8.611-1.968-7.307 7.065-14.223 19.102-13.814 6.52.221 10.862-2.022 6.891-4.179-2.067-1.123-20.023-.881-24.084.296-11.933 3.459-16.795 10.065-15.706 19.21 1.65 11.294 7.845 14.531 22.948 13.729 2.893-.154 6.581-1.312 10.117-1.656zm7.763-36.786c.011-1.761-2.853-2.018-12.32-3.417-12.609-1.863-18.243-13.478-10.642-20.466 2.881-2.649 9.746-3.786 13.571-3.092 8.313 1.508 13.395 3.209 13.475.401.016-2.504-2.397-2.683-18.002-5.964-23.576-4.963-36.518 18.074-17.668 29.34 7.161 4.28 31.564 6.713 31.586 3.198zm5.845-32.96c.006-.883-.759-1.561-2.546-2.256-2.595-1.011-4.338-1.198-10.188-5.123-7.782-5.22-10.144-15.402-4.953-21.076 5.042-5.296-4.028-11.549-11.256-5.572-7.51 6.21-6.878 15.959 1.77 23.677 7.963 7.106 27.147 14.494 27.173 10.35zm-38.2-1.377c8.194-3.827 14.08-1.625 7.809-6.906-3.52-3.247-6.524-12.478-8.971-4.649-1.872 4.667-3.249 12.898-3.299 13.708.549.556.425-.399 4.461-2.153zm289.851-19.866c-9.334-2.313-15.71-13.101-13.334-23.47 1.343-5.858 6.882-19.665 7.971-20.524 4.119-3.251 3.553 1.075-.226 8.588-3.446 7.67-6.133 13.838-5.066 18.402 1.518 6.496 4.158 11.454 10.944 13.102 4.77 1.159 9.264-.819 12.31-2.96 4.027-2.831 7.835-10.093 12.386-20.148 1.454-2.827 3.407-11.513 5.831-6.213 1.168 2.743-8.543 20.987-12.173 25.61-4.566 5.818-12.283 9.23-18.643 7.613zm56.268-6.104c4.547 4.336 12.231 6.517 17.248 4.963 12.311-4.318 17.903-15.894 13.243-34.504-2.359-10.432-4.377-16.92-6.418-18.21-.992-.627-2.077.542-3.042 1.994-.86 1.296.456 3.117 1.852 8.027 5.883 20.68 4.345 30.031-2.835 33.983-10.416 5.734-19.341-.869-22.364-15.624-.484-2.28-1.911-6.929-1.911-6.929-.798-2.052-7.249-1.597-4.904 5.271.706 5.313 5.626 17.989 9.131 21.029zm52.808-54.163c-.162-7.276-15.537-38.846-16.584-35.495 0 0-.067 7.378.536 10.282.228 1.095 1.025 2.11 1.683 3.278 13.361 23.712 11.298 40.423-.287 44.084-3.947 1.783-4.805 3.538-3.041 5.377 3.571 3.864 12.526-3.777 14.269-6.552 4.383-6.222 3.774-17.575 3.424-20.974zm-223.743-5.367c5.037-5.597 16.079-24.912 19.485-35.046 10.474-30.16 21.484-64.852 24.527-96.917.336-4.047.549-10.204.751-10.731-.824-.885-6.017-.42-7.761.466-.836 1.082-.277 3.484-.575 6.613-4.686 36.05-13.34 68.892-26.172 102.323-5.613 14.523-10.824 24.084-17.585 34.184-1.181 1.763-2.682 3.58-3.273 4.604-1.709 2.457-.452 4.062 1.528 3.023 3.516-1.981 6.549-5.784 9.075-8.519zm-17.169 8.771c16.064-22.006 27.482-48.423 36.357-79.604 5.609-20.182 10.545-40.602 13.505-61.412.607-4.442 1.097-7.416.227-8.745-2.168-.58-6.218-.22-7.62.859-.86 1.294-.287 3.883-1.082 9.873-2.054 15.487-5.132 31.037-10.325 51.393-13.71 45.057-26.309 70.282-42.857 92.353-1.338 1.856-2.529 3.062-2.409 3.85.175 1.155 1.781 1.061 4.411-.575 3.437-2.689 7.366-5.037 9.793-7.992zm-24.471 11.695c7.857-4.442 21.694-23.764 31.471-44.575 10.967-24.566 20.147-52.317 26.157-76.349 2.608-10.532 6.316-36.833 5.786-38.565-.629-2.057-8.309-.344-7.243 1.076 0 0-7.63 42.278-15.84 65.583-15.242 43.264-28.423 72.617-42.608 86.729-1.86 1.85-5.521 5.469-5.521 5.469s.076 1.614 1.26 1.86c2.829.521 4.714-.295 6.538-1.228zm-12.028-1.724c17.732-9.883 38.5-56.038 55.453-113.99 2.9-9.915 8.201-43.11 8.201-43.11s-7.065.262-8.429 1.742c-1.371 2.006-1.151 7.113-3.129 19.242-7.624 36.657-19.123 70.094-36.405 103.14-7.475 14.643-19.895 28.434-27.735 32.361-4.384 2.196-5.666 4.616-2.457 4.79 5.406.193 5.887 1.321 9.814-.782zm242.978 516.173c-13.295-.052-24.591 12.669-34.654 28.654-21.405 32.75-35.793 87.485-39.295 116.575l8.075-1.52c-1.212.56 15.096-77.42 39.942-110.81 13.431-21.069 12.865-21.389 20.405-23.321 9.534-2.442 17.181 7.845 12.45 14.04-1.711 2.099-3.589.555-3.059-2.434 1.691-9.531-12.264-11.369-16.163-1.998-4.484 10.774 7.439 20.385 19.09 16.15 10.409-3.668 14.77-18.174 7.461-28.892-3.757-3.633-9.191-6.849-14.252-6.444zm-70-1.34c-15.923 19.94-23.81 40.429-33.587 68.4-9.769 27.949-16.786 55.289-19.828 86.649l8.59-1.1c-.315-20.17 21.849-116.186 52.993-152.15 1.739-2.278 3.135-4.17 3.005-4.696-1.727-4.858-9.112.993-11.173 2.897zm35.178-7.444c-20.636 16.86-37.121 53.697-47.992 87.742-11.752 36.811-17.024 70.541-16.141 70.531l8.199-1.2c-.61-2.14 23.036-131.824 66.916-155.434 3.805-1.891 4.602-3.796 1.395-4.625-4.939-.688-8.912.925-12.377 2.986zm23.106.09c-45.062 5.913-74.508 143.773-75.492 155.223-.015.17-.164 1.06-.164 1.06l8.971-1.84.116-.66c6.179-35.23 12.199-59.922 26.243-91.756 10.948-23.598 26.049-53.762 48.615-56.686 1.833-.242 3.571.494 2.93-1.638-1.375-3.376-8.12-3.809-11.219-3.703zm-268.555-43.414c-16.286 4.175-16.816 23.65-5.968 48.527.818 1.878.671 2.907 1.502 3.633 1.854 1.614 3.309-.642 3.515-2.131.314-2.262-.656-5.3-2.378-9.723-6.711-17.221-5.102-27.143 1.546-31.534 17.035-8.755 21.618 9.223 24.194 17.496.631 2.016.848 4.784 1.959 4.937 3.399.46 5.019-.738 4.969-.739 0 0-4.513-15.481-7.264-21.301-4.452-9.413-15.039-11.382-22.075-9.165zm-118.157 18.383l-.168 205.234-31.176 29.21c-13.381-11.44-30.956-29.36-30.956-29.36l.553-346.951-10.031-.801c-2.455 149.064-.706 300.352-.823 449.702l92.183.68 76.295-118.92s.965-1.41 1.27-2.17c.936-2.29.827-5.71.368-18.36-.187-5.14.391-9.08-.368-10.29-.768-1.22-2.397-.35-3.915.33-1.547.7-2.468.45-1.635-1.37.472-1.03 1.999-3.3 3.318-5.46 4.285-7.02 5.332-9.26 3.884-17.04-.355-1.92-2.114-3.54-3.644-5.79-12.841-18.922-18.07-46.963-11.695-67.502 2.032-9.085 1.301-10.924-3.088-18zm403.538-220.672c-8.381-4.296-8.219-4.201-8.27 3.93.045 6.081.162 7.552 2.446 6.732 3.306-1.676 7.346-3.214 10.395-4.507 5.823-1.997-1.572-4.556-4.571-6.155zm33.181 21.138c-6.505-5.184-4.103-4.588-5.944 7.1-1.113 7.061-2.547 7.243 4.768 4.908 4.153-1.434 12.691-.531 8.861-5.397.025.085-6.408-5.53-7.685-6.611zM382.015 858.724c-9.978 6.028-20.171 35.241-20.171 35.241-34.87 4.15-49.468 38.397-51.026 66.951-1.231 22.542-2.762 48.864-.484 51.164 22.864-10.26 31.672 1.59 33.838-1.61.99-1.39-5.069-6.02-12.682-10.17-1.767-.957-4.506-2.689-5.543-3.546-2.777-2.303 5.542-.322 10.798 3.246 6.705 4.57 7.833 3.61 4.923-9.709-3.165-14.481-3.682-16.253 7.461-21.992 4.459-2.299 6.994-4.249 10.186-7.823 2.554-2.859 3.208-3.555 2.267.652-1.63 7.278-8.112 10.452-13.95 13.408-2.903 1.484-4.105 4.479-4.121 7.046-.017 2.617 2.997 16.77 4.392 21.288 1.292 4.3 1.767 8.61 2.766 12.98 2.62 11.37 2.788 13.6 1.464 21.84-.776 4.85-1.17 7.6-.9 10.52.244 2.66.613 6.28.613 6.28.015-.13-6.225-6.39-19.879-1.03-9.844 3.88-17.621-.16-23.137-3.02-1.27 4.47-.982 9.33-.829 14.47 56.768 10.37 105.251 8.98 146.071 4.71 1.057-12.05 6.204-50.39 17.013-84.958 4.498-14.383 9.585-29.547 15.321-39.666 3.911-6.901 7.902-11.548 9.313-12.352.439-.27.48-.411.469-.596-.007-.385.008-.704-.011-1.076-.144-2.242-.686-5.71-2.616-7.249-4.71-3.758-12.227 1.081-14.698 9.451-2.166 5.013-12.046 26.709-12.751 26.343-.582-.365-1.953-.393-1.457-2.071 3.783-8.79 8.979-18.09 11.906-25.981 4.042-11.367 12.832-17.363 19.402-10.198 2.252 2.457 3.156 4.72 4.189 5.499.779.591 1.828.187 2.473-.785 2.476-3.73-3.265-12.191-9.426-13.891-8.891-2.454-15.517 4.026-25.602 25.042-5.822 12.128-6.864 15.176-7.786 14.244-.203.081-1.749.077-1.191-2.272 1.201-5.05 8.928-19.73 14.524-29.038 8.283-13.784 23.664-14.9 30.131-2.942.989 1.63 1.039 3.762 2.137 5.22 1.985 2.563 5.251 2.056 6.06-2.16-.881-2.787-6.288-12.851-10.044-14.608-8.649-5.94-19.147-4.77-27.982 3.107-2.004 1.789-4.093 5.421-9.953 17.305-8.631 19.054-8.861 19.129-11.219 16.056 3.469-9.268 12.601-24.329 16.287-33.575.702-1.375.844-2.858.789-4.28-.213-6.723.884-18.596-13.34-27.036-12.129-6.53-28.143.34-33.596 13.196-4.176 9.842-7.227 16.612-9.332 18.003-2.958 1.958-2.406-.769-2.112-1.764 4.203-8.908 10.116-17.912 11.051-26.875.612-24.265-24.001-33.234-40.006-20.989zM254.943 404.061c19.207-8.924 32.359-13.415 51.93-19.182 2.644-1.158 3.065-1.424.259-6.977-12.401-24.534 21.625-44.091 33.188-20.008 1.542 3.21 1.9 4.986 3.419 3.45 2.843-3.727 6.223-9.017 9.735-15.056 13.014-20.157 18.905-43.152 25.846-63.446 2.878-11.922 6.897-24.386 8.034-37.172-25.821-44.928-43.806-88.155-71.219-128.155l-180.759-.131-.679 361.156c50.54-42.148 84.949-57.395 120.246-74.479zm203.472-13.27c2.193-2.314 4.09-6.155 11.951-22.277 1.403-2.876 3.643-7.336 4.555-9.412 1.18-3.794 5.597-6.166 3.445.627-.489 1.467-1.331 3.444-2.665 6.074-2.615 4.698-5.099 10.453-6.959 14.212-10.052 20.134-9.575 31.867 1.657 40.603 8.389 8.017 26.006 8.921 35.382-4.022 1.404-2.085 2.656-4.768 3.062-5.751 4.074-9.885 7.081-14.827 7.852-15.805 4.171-5.292 4.839 1.265-1.392 11.358-7.14 11.565-7.264 24.1-1.092 32.919 9.148 13.071 26.526 13.442 37.432 2.956 5.671-6.642 10.177-15.092 13.805-25.893.804-2.395 1.635-4.173 2.224-5.576.908-2.164 2.216-2.969 5.602-3.617 23.217-4.444 42.701-28.262 45.467-54.268.364-3.518 1.364-9.741 1.73-13.435.729-7.37.743-45.543.017-47.821-.391-1.228-1.084-1.878-2.595-1.86-1.16.013-2.802.42-5.16 1.261-7.654 2.731-11.217 3.423-18.57.795-2.43-.869-4.111-1.165-5.108-1.079-3.243.28 1.068 4.932 10.525 10.07 4.053 2.202 7.254 5.169 3.971 4.949-.955-.064-12.369-5.959-13.945-6.924-5.2-3.187-3.843.825-1.164 11.382 3.597 14.176 1.524 18.156-9.677 23.71-2.087 1.035-4.859 3.196-6.269 4.588-5.934 8.767-4.403 2.308-1.41-2.362 5.106-5.344 1.974-7.167-8.498-3.463-11.945 4.225-17.344 1.141-20.685-5.496-3.778-7.505 3.329-17.158 9.258-16.969 1.919.061 1.574.752-1.254 2.681-3.418 2.331-5.036 4.579-5.391 8.561-.724 8.116 5.085 11.563 13.204 6.119 3.833-2.571 6.851-4.346 9.755-5.005 2.877-.652 7.198.416 7.183 2.715-.006.947-.137 3.274.067 3.789.762 2.57 4.874-1.067 6.664-2.359 6.114-4.569 5.914-5.469 4.245-12.879-2.73-10.369-4.109-19.851-6.711-30.363-1.39-5.508-1.626-11.731-.779-17.343.424-2.813 1.519-8.596 1.741-12.554.222-3.959-.024-9.616.122-9.615 6.071 4.643 8.539 5.455 14.464 3.207 9.168-3.755 14.958-3.365 22.683.328a72.667 72.667 0 0 0 5.462 2.33l.35-11.904s-7.149-1.473-20.364-3.208c-39.779-5.223-121.408-6.326-124.447-1.525-.772 1.22-1.543 9.724-3.712 21.548-4.814 24.567-10.208 49.052-17.427 73.026-1.481 4.885-2.895 6.852-2.14 6.998.311.059 1.787-1.832 2.475-2.624 3.869-4.464.905 6.136-4.938 18.903-.527 1.152-.96 2.415-.963 2.805-.005.771-3.674 9.669-6.206 15.049-1.572 3.343-2.876 4.351-2.863 2.213 1.775-7.357 6.468-16.871 7.145-23.425-4.112 5.935-10.1 15.734-14.63 21.58-.836 1.575.05 2.061.78 4.008 2.723 7.267 9.317 7.919 13.129 1.337 2.126-3.669 8.727-17.493 11.024-23.544 2.363-6.224 4.022-9.507 4.809-9.913 1.58-.816 1.884 2.722-.918 8.61-8.501 17.864-12.142 27.878-16.304 31.571-3.231 2.865-8.819 2.683-11.924-2.418-5.264-8.647-9.757-5.784-4.927 3.084 4.99 9.161 16.391 10.017 22.345 1.766 1.965-2.724 11.216-20.371 14.123-27.546 1.624-4.005 3.357-7.126 3.936-7.348 3.107-1.195-.438 7.952-9.357 26.264-2.89 7.072-7.532 14.492-13.815 16.789-15.266 3.342-17.332-4.728-22.642-13.923-2.582-2.287-4.92 1.37-3.932 5.414 1.603 6.559 4.599 9.126 9.226 12.418 9.663 6.147 23.098 1.917 27.966-5.091zm68.11 38.316c-1.384-3.063-1.185-6.172-.478-9.073 1.601-6.537 4.25-12.881 7.347-18.401 5.013-2.37 1.184 7.059.556 8.46-6.047 12.599-6.618 17.474-.975 18.928 4.835 1.246 7.434-1.71 12.005-13.006 2.346-5.798 3.283-8.365 4.114-8.699 1.76-.707 2.607.003 2.504 1.772-3.023 7.417-5.389 15.216-10.352 21.375-4.86 4.065-12.179 4.088-14.721-1.356zm-45.351-9.681c-2.105-.41-5.712-3.125-8.218-5.418-8.544-7.817-7.133-18.625 3.46-38.942.823-1.578 3.904-7.722 4.895-9.74 1.772-3.614 3.518-2.198 3.503.193-.004.672-2.652 6.282-5.324 11.49-11.698 22.852-11.297 32.173.071 37.609 11.095 5.307 16.066 2.253 24.913-15.19 5.119-13.096 7.642-13.312 7.362-8.335-.012 1.857-6.206 14.413-10.203 20.248-5.795 8.463-10.813 9.965-20.459 8.085zm.84-11.027c-4.356-2.693-6.132-9.393-3.558-14.877 2.342-4.523 8.341-21.859 11.161-22.835 4.533-.155 2.114 3.639-3.503 14.299-6.644 14.122-6.405 17.898-1.277 20.06 4.746 2.001 6.997-2.1 13.997-18.618 1.099-2.594 2.633-5.287 3.534-4.723 1.112-.084 3.045.753-.635 8.238-.873 1.79-2.356 5.544-3.993 9.04-4.785 10.22-10.215 12.824-15.726 9.416zm78.629-29.977c-1.917-.984-10.901-4.511-9.568-7.433.164-.275.686-.059.952.118 8.225 5.505 18.456 6.903 29.126-.738 1.795-1.58 3.136-.512 2.134 1.473-3.232 6.403-17.614 9.139-22.644 6.58zm-26.424-9.284c.248-.615.989-2.445 1.645-4.905.987-3.697.756-6.42 1.63-5.948 3.727 2.011 10.392 2.06 13.654.071 3.576-2.18 10.832-2.847 13.476-1.129 3.777 2.454 5.7 1.313 8.348-.748 2.989-2.326 3.042-1.332 8.439.538 3.986 1.382 5.552 2.327 7.246 2.021.649-.118 1.967-1.595 2.387-1.52 1.297.233 1.442 3.907 2.636 8.101 1.057 3.711.455 4.605-2.875 2.382-2.475-1.652-9.593-2.432-16.994-.166-5.484 1.679-6.746 1.003-10.77.324-10.027-1.692-17.264-3-24.737 1.321-3.991 2.309-5.441 3.508-4.085-.342zm-24.944-18.327c-4.859-9.735 6.317-22.626 16.142-18.074 3.257 1.509 6.155 7.226 1.335 4.603-22.344-4.504-16.762 28.174 7.231 10.913 15.947-10.572 27.23-12.207 28.169-1.978-.445 3.757-3.788 3.157-6.321 3.501-6.61.92-9.054 1.993-16.711 5.27-11.653 3.668-23.041 6.663-29.845-4.235zm87.429 4.498c-5.452-1.398-10.188-3.547-15.872-4.577-5.631-.979-8.172-3.914-7.154-7.864 1.057-4.105 6.696-4.537 15.168.628 9.394 5.727 16.205 7.115 19.641 4.955 6.951-4.368 3.202-11.476-3.431-13.296-4.979-1.384-1.316-3.316 4.037-1.723 8.637 3.27 8.82 18.857-.062 22.093-2.971 1.083-8.208.79-12.327-.216zM520.6 303.713c6.344-3.916 12.471-7.415 14.653-9.752 1.145-1.227 4.328-5.344 1.857-4.087-12.937 7.761-27.956 1.315-38.837-3.995-5.226-2.441-3.941-1.361-7.954-1.093-2.721.181-4.907.751-5.393-1.191-.216-.858-1.738-.498-2.712-.595-4.02-.397-1.48-5.711 6.967-11.57 9.96-6.909 18.651-11.419 27.277-13.279 8.961-1.933 18.097-.84 24.799 5.604 2.575 2.475 2.348 4.126 4.701 2.605 5.369-3.469 5.417 1.135.887 5.396-3.111 2.926-1.974 3.721 1.831 6.506 1.816 1.329.327 2.594-.687 4.529-.385 1.183-.082 2.482-.265 3.379-.849 4.16-19.816 18.863-26.684 21.374-4.723.88-2.246-2.674-.44-3.832zm13.171-27.017l-3.149.042c-3.584 10.929-10.202 14.654-15.71 1.55l-2.509.253c-.112 11.099 19.01 18.068 21.368-1.845zm-20.709 10.249c-1.3-2.176-2.761-7.171-4.12-7.243-3.697-.156-8.809.509-7.597 2.796 1.91 3.622 13.224 6.97 11.717 4.447zm25.343-1.949c3.409-2.049 4.135-3.463 1.911-5.715-2.872-2.908-4.371-1.423-5.272 3.221-.775 3.992-.215 4.644 3.361 2.494zm-46.218-7.685c22.835-10.316 31.495-11.649 40.773-9.096 2.148.591 4.052 1.791 5.253 1.719 4.442-.265 1.608-5.234-6.366-8.08-9.107-3.251-14.883-1.773-32.388 7.338-10.249 5.336-18.576 13.227-7.272 8.119zm66.181-12.521c-.325-.618-1.708-4.721-2.1-6.22-.393-1.498-.747-3.045-1.174-3.052-10.594 1.69-19.91-.287-22.413-.883-16.024-3.817-31.507-3.043-43.063 1.476-2.824 1.105-6.324 2.892-6.66 3.205-.914.853-2.264-.116-2.257-1.181.007-1.25 7.101-6.856 11.573-9.067 13.599-6.727 27.95-7.877 43.709-3.643 10.266 3.93 16.884 3.294 23.446.425 3.221-1.408.936 2.075-.083 6.697-.706 3.201.069 5.941.202 7.75.403 4.371-.095 6.561-1.18 4.493zm238.702 922.65l.005-361.874c-60.079 44.247-173.705 90.401-173.705 90.401 14.307 29.108-17.213 54.014-35.292 24.461-18.605 20.851-44.235 93.902-45.143 118.162 0 0 49.49 86.27 73.637 128.85zm-330.897-119.15c1.652-18.17 5.542-48.97 17.661-84.824 5.083-15.036 11.215-32.287 19.879-47.731 3.457-5.402 3.697-7.493.011-5.55-2.319 1.223-12.908 13.144-14.35 16.156-16.244 34.216-23.76 75.329-29.704 106.709-1.348 7.06-1.745 15.83-1.745 15.83zm11.883-1.5c3.865-44.14 20.132-103.723 44.571-142.565 2.297-3.699 5.128-6.913 5.019-8.194-.319-3.774-9.727 2.753-17.029 13.892-8.148 16.134-16.315 33.351-22.563 52.406-8.82 26.901-15.257 51.751-17.766 85.481zm23.486-3.68c2.45-25.43 10.358-48.77 16.986-72.141 8.107-28.585 18.927-49.624 31.536-68.564 4.045-6.074 8.817-11.762 13.354-17.555.578-.698 1.16-1.953 1.028-2.472-2.913-.513-5.231.39-7.483 1.651-3.145 1.757-7.569 6.195-10.153 9.482-17.96 22.867-27.624 49.565-36.591 76.54-8.612 25.899-14.816 50.809-16.03 74.269zm-161.308-19.5c3.612-.28 5.939.4 6.987-.56 1.041-.95.702-3.51 1.029-6.78.7-7-.026-6.62-4.407-2.1-7.254 7.49-20.488 10.38-28.361 5.85-3.972-2.28-6.734-3.86-7.108-1.97-.437 2.22.167 3.92 1.865 5.1 9.538 4.34 18.59 1.35 29.995.46zm-8.525-5.35c5.023-1.67 10.128-4.35 13-8.44 2.741-3.9 2.695-4.45.621-3.72-10.21 5.02-16.918 7.57-26.042 6.18-12.356-1.87-12.868-.3-4.702 4.81 5.344 3.33 9.778 3.43 17.123 1.17zm-18.14-15.65c1.914-1.41 2.404-7.14.861-7.47-1.56-.33-3.835 2.52-4.392 4.84-.624 3.08 1.661 3.86 3.531 2.63zm19.129-.24l3.285-.3c-1.68-14.39-17.329-15.01-20.218 1.44l2.48.37c3.231-13.12 12.693-12.76 14.453-1.51zm10.318-2.32c4.788-2.67 3.133-5.97-3.325-7.23-4.24-1-4.005 2.46-1.808 7.16 1.092 2.33 1.856 1.89 5.133.07zm-36.856-17.64c-.042-1.6-.699-4.187-1.462-5.745-5.517-11.281-8.563-24.608-7.937-41.172.449-11.868.598-15.54-1.875-15.555-3.453 1.658-5.494 23.749-1.097 42.141 3.101 12.976 12.601 29.081 12.371 20.331zm-.134-17.974c-.336-6.206 1.031-20.105.349-23.14-.895-3.985-3.261-7.582-4.596-8.544-2.073-1.489-2.591 1.366-1.874 8.818 1.682 17.479 4.496 30.721 6.121 22.866zm1.745-31.829c1.364-2.449.831-5.054-2.173-10.899-11.829-23.032-13.365-38.768-1.007-44.488 1.384-.643 2.256-.762 3.178-1.27 3.896-2.159 2.412-6.073-3.415-4.454-16.099 4.461-19.273 19.499-5.703 47.325 6.913 13.883 7.985 15.828 9.12 13.786zm2.931-13.057c.211-.97.628-4.729.789-5.502.16-.772-1.462-2.986-3.205-7.428-4.55-11.597-4.645-16.411.306-19.767 1.605-.943 3.261-.988 3.509-2.067.389-1.685.36-4.451-.652-5.249-7.1.049-10.381 4.179-11.625 8.108-1.876 6.22.08 15.324 5.655 26.612 2.701 3.518 4.114 9.953 5.223 5.293zm5.427-15.006c3.798-7.651.196-17.554-5.03-14.175-3.39 2.19-3.562 4.511-1.482 10.877 2.533 7.753 4.033 8.295 6.512 3.298zm13.317-20.462c1.52-1.5.171-3.652-2.639-12.107-2.406-7.233-1.305-12.175 3.279-13.609 6.574-1.617 8.899 9.111 10.282 13.632.714 3.49 3.015 4.456 5.055 2.027.572-.678.736-1.246-.236-5.052-4.243-16.63-9.793-21.92-18.728-17.778-8.284 3.839-7.197 12.427-1.192 30.492.803 2.416 1.34 4.207 1.919 4.457.474.21 1.416-1.226 2.26-2.062zm7.337-5.647c1.963-1.936 1.847-1.061-.4-7.998-2.561-7.914-3.908-9.561-6.662-6.839-1.691 1.664-.837 3.504 1.093 9.977 2.243 7.52 2.842 7.949 5.969 4.86zm343.406-27.083c13.073-8.994 7.683-25.137-9.525-31.122-2.031-.707-4.267-1.56-4.969-1.897-7.905-3.793-14.056-4.966-14.075-2-.011 1.742 2.364 2.622 9.943 6.305 11.212 5.448 13.745 11.743 8.211 19.679-3.989 5.72 3.483 12.271 10.415 9.035zm11.862-19.645c1.135-4.616 2.822-8.574 3.631-11.264 1.107-4.21-.321-3.232-3.116-2.575-7.207 3.729-12.363 1.703-8.862 6.83 3.887 6.821 7.098 12.085 8.347 7.009zm-.894-16.134c8.98-5.363 10.97-19.337 2.614-25.996-1.999-1.593-5.455-3.692-9.645-4.966-8.503-2.586-20.777-3.761-25.276-2.401-.967 1.136-1.007 2.923-.037 3.443 1.253.464 3.516.77 6.785 1.102 12.498 1.266 18.662 4.976 18.063 13.82-.616 9.113-7.924 12.617-21.115 9.736-7.094-1.549-10.397-.801-7.551.854 3.381 1.966 10.663 4.549 17.834 5.956 6.133 1.075 13.126 1.487 18.328-1.548zm-43.102-2.3c10.108-22.621 15.432-81.956-42.325-124.847l1.91 11.868c34.03 29.733 42.203 67.599 35.154 102.331zm51.566-40.555c-3.615 2.337-6.638 4.764-11.282 6.831-2.778 1.24-2.849 1.543.927 3.597 1.827.994 4.835 2.821 5.986 4.059 1.998 2.15 4.355 2.974 5.237 2.193-.094-3.366 1.062-14.498-.868-16.68zm-17.093 4.288c11.698-3.684 17.958-9.297 16.624-18.686-1.956-13.773-13.51-16.685-35.148-11.302-10.41 2.589-11.34 7.462-1.459 4.95 12.475-3.172 22.268 1.622 20.943 10.727-.773 7.855-7.108 12.431-18.231 12.431-5.874 0-7.689.522-6.894 2.634.539 1.432 19.344.764 24.165-.754zm-19.315-32.719c19.123-6.534 28.015-16.692 23.647-28.072-5.144-13.4-21.835-13.535-38.605-1.063-7.833 5.718-6.633 7.835.957 4.924 9.84-4.506 16.171-5.202 20.2-1.619 7.277 6.471 2.368 17.757-8.667 21.804-5.345 2.215-7.062 3.437-7.071 5.036-.016 2.531.959 1.92 9.539-1.01zm32.258-.211c.494-3.964-4.001-17.718-5.943-14.552-.514.839-2.3 4.722-4.557 6.738-6.578 5.876-5.336 3.651 1.199 5.449 3.63.999 8.761 3.548 9.301 2.365zm-50.579-29.39c19.335-11.17 26.713-27.112 16.694-37.709-9.007-9.526-23.936-3.98-37.804 13.339-6.358 7.94-1.582 6.943 6.99-.609 9.985-8.797 22.684-4.551 22.615 6.431-.029 4.69-6.686 12.578-12.982 16.245-1.955 1.138-2.24 2.884-1.548 4.018.746 1.225 2.313.435 6.035-1.715zm33.891-11.652c-1.009-3.002-8.284-15.888-9.845-15.447-1.651 3.304-1.771 7.651-3.75 11.154-2.694 5.269-2.353 4.442 6.232 4.416 6.391-.021 7.165.872 7.363-.123zm-56.824-14.569c16.242-16.803 17.677-36.478 2.457-41.006-8.428-2.508-21.907 3.567-21.946 9.84-.024 3.906.709 4.615 4.125 3.213 14.353-5.323 25.73 8.434 12.544 24.247-3.208 4.578-3.637 5.728-2.702 6.674 1.093 1.108 1.983.692 5.522-2.968zM796.911 564.78l-.003-445.359h-95.056l-75.503 117.574-.113 29.1c-.004 1.005 1.715 1.63 2.825.365 4.291-3.307 2.635.165-2.299 7.654-4.988 7.571-3.463 13.81 1.994 21.892 11.563 17.133 17.592 48.583 12.671 65.21-1.858 6.277-2.272 8.813-1.06 12.325 1.386 4.015 2.239 6.161 6.252 8.748 3.49 2.425 32.206 13.588 78.463 43.238l-.224-209.236 29.143-27.849 30.793 29.367 1.08 345.44c.011 3.652 7.167 5.315 11.037 1.531zm-16.672-345.983l-25.784-23.935-25.486 23.579c-.13 112.52.648 343.453.648 343.453l25.325 1.815s1.864-5.268-.507-18.888c-3.562-20.436-3.336-45.396 2.378-83.356 3.562-23.291.022-43.486-5.38-64.751-4.688-14.17-4.856-27.282-4.005-39.959 1.799-20.212 7.383-35.474 8.064-64.554.389-16.577-.403-32.809.208-53.256.248-2.74 1.409-2.403 1.614.425.774 18.507 1.494 36.086 1.665 54.158-.556 23.502-6.322 47.688-6.958 69.201-.472 14.903-.715 20.058 5.599 38.202 9.918 28.517 3.389 72.327 3.272 73.104-4.203 28.066-7.265 63.971 6.928 90.832l13.754 1.224zM602.871 431.059c7.607-3.484 9.111-9.636 5.016-24.452-.731-2.645-1.564-5.789-1.851-6.986-.877-3.657-2.527-4.058-4.727-1.15-1.314 1.737-.102 2.142 1.917 10.289 3.052 12.313 1.279 16.386-3.313 16.357-4.07-.025-7.24-3.37-8.403-11.36-.397-2.728-.977-4.588-1.638-5.68-1.106-1.83-2.439-1.499-3.513.522-1.391 2.616 1.222 13.391 4.693 18.614 3.765 5.266 6.359 6.347 11.819 3.846zm-2.072-11.056c1.619-3.034-.386-10.497-1.435-15.385-.966-2.727-2.064-3.393-3.874-2.95-2.696.658-2.565 3.598-1.589 8.439 1.988 9.858 3.063 11.102 6.898 9.896zm23.122-17.786c8.702-4.946 9.534-13.476 3.687-28.992-2.397-6.361-5.382-10.838-7.029-10.887-.645 4.047-1.242 6.203-.52 7.792.679 1.473 1.822 3.729 2.639 5.617 4.951 11.445 3.618 18.042-1.165 21.618-4.464 3.339-1.639 6.146 2.388 4.852zm-284.829-5.964c20.412-4.353 38.821-37.056 50.416-66.219 10.562-29.382 21.79-61.664 23.568-88.585 0 0-7.72.355-8.667 1.946-.874 1.566-1.257 4.944-2.077 9.754-5.322 24.766-9.551 43.573-18.835 66.851-6.445 16.159-13.477 34.45-30.93 59.017-5.735 6.866-12.294 11.123-20.536 12.268-2.098.291-5.631-.1-6.52.526-1.564 1.101-.154 3.597 3.88 4.603 3.614.903 7.284.314 9.701-.161zm281.245-3.824c3.115-3.301 3.422-7.223-.071-15.515-.979-2.324-1.428-3.641-2.591-3.318-2.461.685-5.335 7.135-3.635 12.595 2.216 7.115 3.508 9.195 6.297 6.238zm-288.368-5.194c5.98-.796 13.554-5.534 19.025-12.964 11.248-14.666 19.008-31.351 24.763-44.323 4.609-10.453 12.931-33.016 15.191-41.186 4.801-17.358 7.43-28.557 9.618-40.983.201-1.141.391-2.966.051-3.557-2.368-.645-7.559-.259-9.154 1.332-2.865 19.928-9.528 39.921-14.397 56.537-8.212 28.267-31.623 73.486-44.387 75.619-6.863 1.147-14.727-4.8-13.463-10.903.777-3.746 1.292-5.173 3.135-6.112 4.449-1.56 7.039 1.458 2.157 3.428-5.654 4.899 4.525 12.392 10.774 7.158 10.597-8.874-4.972-25.871-17.715-18.059-14.117 8.654-10.49 23.642-1.612 30.766 4.476 3.592 9.662 4.096 16.014 3.247zm99.974-20.294c8.723-8.922 15.273-20.473 20.039-34.915 10.327-32.433 18.888-69.612 21.991-98.738 0 0-7.45-.765-9.108.804-1.171 1.108-.052 2.162-3.221 23.447-5.319 31.028-13.078 61.844-24.301 88.519-4.599 10.786-5.903 12.109-9.15 17.71-4.533 7.913-2.854 9.927 3.75 3.173zm193.517-67.612c-.807-.418-.739-.144-1.082.093-1.189.819-.412 4.965 2.287 11.36 7.111 11.439 7.942 33.64 7.478 41.983-.142 2.506-.402 3.942.361 6.171.756 2.184 2.079 4.724 4.21.467 2.339-16.437.503-33.646-5.819-47.581-2.231-4.956-4.411-9.798-7.435-12.493zm5.476 48.472c1.245-4.421-1.056-21.962-3.911-28.124-1.15-2.484-3.23-2.677-2.981.146.022 6.077-.635 17.635.021 21.057 3.106 7.145 5.526 11.695 6.871 6.921zm-16.1-70.855l-3.357.004c.116 11.47-10.09 14.658-13.854.883l-3.021.697c4.016 19.442 22.169 10.528 20.232-1.584zm-20.403 8.647c-1.744-5.089-1.022-6.95-5.447-4.661-3.38 1.748-5.405 3.61-.646 5.893 4.234 1.788 7.196 1.988 6.093-1.232zm25.564-2.93c1.401-2.824 1.234-5.371-.877-5.384-1.629-.01-2.082 1.284-2.544 4.023-.825 4.893 1.221 5.795 3.421 1.361zm1.775-19.059c1.294-.41.926-2.227.579-4.537-5.531-7.663-19.215-5.317-24.13-3.793-5.675 1.834-7.098 1.151-10.961-.613-3.192-.591-3.642.182-4.417 1.701-.684 1.339-.805 3.882-1.027 8.313-.187 3.744-.053 5.483 1.254 4.314 5.065-4.534 10.928-10.198 19.485-10.55 10.37-.427 19.224 5.333 19.217 5.165zm-37.67 10.374c-.009 1.544 1.313.581 4.688-1.529 12.279-7.272 19.392-6.242 29.905-2.776 2.341.772 3.79-1.67 1.252-3.749-12.486-10.227-27.865-3.708-35.845 8.054zm44.497-47.108l66.615-109.824-371.133-.271 63.017 116.599c51.388-11.857 135.976-26.996 241.501-6.504z" fill="#131f67"/><path d="M299.457 1085.97c7.862-11.69 46.789 9.14 48.848 17.4 23.039-18.09 51.015-19.41 73.528 3.23 23.149-25.23 47.928-23.51 73.708-8.89-2.88-5.7 32.961-30.87 54.745-14.87l58.913 104.6-377.413 1.22c22.294-33.37 42.043-73.23 67.671-102.69zM134.601 540.341c-2.049-5.663-10.329-63.776 10.676-65.226 33.962 15.01 77.31 68.706 97.397 101.519 24.891 40.66 50.041 134.16 36.153 130.077-2.005-.59 42.866 44.202 45.959 48.579 5.083 7.192-75.642 141.238-88.977 136.43-4.031-1.452-30.914-17.458-30.914-17.458l.77-44.723s42.246-83.162 44.586-110.951c.885-10.501-29.068-28.472-30.439-32.101-3.412-9.04-3.008-42.628-20.461-57.293-9.619-5.837-18.702-3.974-28.466-2.734-39.61-6.594-19.087-73.156-36.284-86.119zm662.467 29.854l.24 16.499c-26.081 5.668-72.176-16.358-86.126 19.126 1.731 38.324 10.341 55.51 16.351 67.084 4.518 10.396 36.23-1.465 47.404 9.02 32.045 39.335 24.481 91.71 24.764 138.901l-13.903 7.003c-96.08-56.508-169.86-232.042-180.081-282.017-.654-32.083 88.147-135.19 88.147-135.19.201-.224 32.351 19.518 32.351 19.518.777.311-.683 135.318-.676 134.693 25.389 1.303 50.003 3.774 71.529 5.363zM601.87 446.798c-49.293 70.487-65.968 175.835-62.8 249.317 6.39 109.711 84.788 207.524 79.546 216.765-.891-.643-2.961.448-3.749-.252-18.056-16.01-30.669-13.206-39.903-13.353-17.65-.279-22.529 4.973-32.655 5.974-25.859 2.555-23.76 3.205-45.694-5.033-27.681-22.51-64.755-39.767-94.258-48.844-23.651 2.123-59.715 13.266-73.355 4.243 94.874-174.609 80.663-286.387-17.554-469.401 8.144 2.394 9.409 9.977 15.506 11.846 20.189 7.778 48.008 4.829 64.68-2.425 18.101-8.13 35.191 3.774 34.96 3.38 35.644 25.094 78.774 41.287 101.224 52.476 6.634 3.416 15.018-1.976 22.343-3.455 15.01-3.029 27.871-9.433 39.07-5.684 3.592 1.203 8.95 2.676 12.639 4.446zM380.387 218.301c-4.829-8.963-54.231-102.688-54.231-102.688l367.461 2.208-55.129 90.422c-5.203 4.908-31.1 18.589-57.514-12.388-.496 4.451-39.197 31.98-72.464-1.171-20.021 18.142-40.44 28.653-74.124 8.231-.748 5.694-27.02 31.241-53.999 15.386z" fill="#e2cf00"/><path d="M420.592 1104.5c-35.604-33.29-72.667-3.24-71.819-1.33-14.09-14.29-27.871-25.99-46.447-20.25 0 0 .003-5.01.141-5.12 55.379 10.11 140.2 12.74 239.35-7.97l5.089 10.62c-26.591-9.43-40.294 3.29-52.079 18.15-42.677-26.58-53.089-3.27-74.235 5.9zm83.038-387.186l25.189-.491c4.744 73.16 65.942 185.11 67.414 185.107-4.262-5.91-44.665-1.251-44.367-.505-22.216-59.192-46.609-118.329-48.236-184.111zM356.726 890.868s-8.102-20.971-12.953-29.944c26.445-45.101 48.136-91.781 59.264-143.69l18.011.16c-5.336 71.664-62.766 180.499-64.322 173.474zm324.029-9.594c39.671-71.493 32.827-174.54-79.723-231.487 0 0 2.933-75.533 11.302-75.706 1.889.585 50.943-.63 50.943-.63 12.851-31.499 33.533-69.593 62.431-95.317l.72 84.43c-21.384 2.107-34.427 8.923-40.906 25.628l-29.632 6.589c2.177 84.815 34.133 163.181 128.904 233.566-22.65 19.439-100.057 58.904-99.76 58.21zm-474.873-53.289l.841-87.919c14.372-3.102 25.7 1.06 37.566-24.667 0 0 19.913 9.441 26.529 12.921-18.613 33.264-34.681 68.809-64.936 99.665zm188.681-155.66l.976-44.634 42.431 1.222c-3.603 15.135-4.728 30.27.084 45.405zm96.802-.541c2.898-14.606 4.967-29.293-1.043-44.79l45.945.782-1.083 44.454zm-87.376-87.281c-7.643-87.545-67.703-186.633-68.545-184.526 7.076 1.132 19.537 4.634 26.397 1.39 8.303 1.377 15.495.438 15.888-.329.554-3.061 55.832 127.11 48.454 183.264-.88 1.898-20.392 2.026-22.194.201zm106.195.768c6.483-40.443 23.22-114.423 62.747-174.416 4.492 10.652 8.263 21.605 14.427 31.561-29.802 43.308-48.166 92.808-59.309 143.338zm-274.73-21.801c-18.085-36.85-93.318-94.863-89.47-89.001 31.143-27.885 65.878-45.595 100.548-63.485 0 0 6.164 5.844 5.23 7.314-21.315 33.556-31.649 104.65-11.012 145.396 19.831 43.522 55.014 69.25 90.881 89.449-2.775 27.213-4.131 46.88-10.831 73.934 0 0-22.538-11.839-41.009-19.461-2.938-51.383-13.585-97.346-44.337-144.146zm199.262-361.098c26.516 16.148 50.266 14.446 73.29-7.468 28.904 26.199 60.161 13.997 73.371 2.186 12.222 13.755 28.148 21.387 51.436 16.842l-5.768 12.094c1.378-6.426-160.615-16.916-238.993 5.003 0 0-4.582-9.125-4.072-9.203 6.821-.413 29.525 7.988 50.736-19.454z" fill="#d40000"/><path d="M24.715 46.215v12.32l11.84-.64v106.341l-12.8.06v12.64h35.52v-12.64h-9.28v-30.58l15.501-20.16 20.339 50.74h-12.8v12.64h38.881v-12.64h-10.778l-27.143-64.98 27.783-41.421h8.698v-11.68H73.035v11.68h11.757l-34.797 50.781V57.895h9.28v-11.68zm296.04 66.49l65.479 121.851s1.92-.352 2.88-.539c90.759-17.721 162.644-20.145 239.848-6.581l68.628-113.44c-124.91-1.42-376.835-1.291-376.835-1.291zm7.303 5.191l364.124.4-20.48 33.56c-12.269-3.78-19.105 1.838-20.826 13.58 0 0-1.511-.653-4.359-.96-17.945-1.938-20.211 21.688-3.456 24.54 4.276.729 4.999-.119 4.999-.119-14.944 12.54-23.431 4.08-30.464-.061-.186 1.465-13.389 11.374-25.837-.48 17.83 1.779 20.601-16.07 12.077-22.86-1.78-1.751-3.597-3.12-3.597-3.12 4.192-3.651 5.107-8.504 2.419-14.06-5.408-11.173-22.349-10.52-24.941 1.68-1.005 4.747-1.037 5.58-1.037 5.58-13.683.893-16.461 13.798-11.763 20.96 2.675 4.071 8.55 4.954 13.984 4.68-7.322 10.356-24.064 6.831-31.52-1.7-11.853 13.916-25.364 12.222-32.103 4.76 4.576-.049 7.738-.116 11.943-4 7.187-6.642 3.654-18.423-6.503-21.72-1.971-.64-3.392-.771-3.501-.78.071-.101.263-.753.704-4.3 2.522-20.545-28.281-18.515-25.305 1.7.345 2.343.985 3.6.985 3.6s-3.27-.182-5.145.68c-17.101 7.881-5.319 29.583 7.904 24 1.254-.529 4.665-2.204 5.158-2.18-16.378 20.286-30.119 5.907-33.741 3.7-11.059 16.391-30.266 5.209-30.663 4.06 1.197.332 4.801-.41 8.225-2.16 10.822-5.636 7.763-20.142-.679-23.3-2.585-.902-5.709-.996-9.222-.72 0 0 .268-3.652-.077-4.94-5.325-19.754-29.908-9.891-23.866 6.8.531 1.464 1.965 2.94 1.965 2.94s-3.335 2.024-4.826 3.36c-11.731 10.552.211 27.959 13.927 20.72 1.766-.934 3.481-2.897 3.974-2.78-6.451 11.779-16.237 15.892-30.195 6.14-8.615 13.64-22.663 7.974-26.624 1.14 13.126 1.201 21.651-23.942-3.578-24.76-1.965-6.827-1.862-17.231-17.863-15.44zm-85.204 14.66c-13.696 36.314-52.365 69.18-74.759 110.08-25.299 41.401-17.357 83.742 17.082 91.061 18.048 3.837 41.6-13.518 43.699-32.2.429-3.816 1.837-5.831 4.397-5.52 2.003.242 1.818 5.167 1.063 11.08-2.765 19.424-13.293 50.25-26.919 64.46l63.36.041c-2.547-1.439-26.201-30.994-23.897-66.841.038-6.41.032-8.538 2.88-8.52 2.278.014 2.304 1.07 2.976 7.36 4.269 39.792 53.747 44.109 69.28 6.06 7.847-19.203-.377-53.377-21.056-82.601-15.712-25.713-42.445-55.611-58.106-94.46zm27.923 239.002c.135.077.231.09.237 0zm235.1-210.522c2.892 0 5.222 2.35 5.222 5.24s-2.33 5.24-5.222 5.24c-2.887 0-5.236-2.35-5.236-5.24s2.349-5.24 5.236-5.24zm81.363.62c3.059 0 5.536 2.499 5.536 5.56a5.536 5.536 0 0 1-5.536 5.54 5.537 5.537 0 0 1-5.542-5.54c0-3.061 2.477-5.56 5.542-5.56zm-159.482 6.06c2.95 0 5.337 2.387 5.337 5.34s-2.387 5.36-5.337 5.36c-2.951 0-5.364-2.407-5.364-5.36s2.413-5.34 5.364-5.34zm228.462 6.58l-4.64 8.24c-5.12-4.486-1.587-10.368 4.64-8.24zm-292.162 11.36l-4.614-8.52c8.262.557 5.824 6.47 4.614 8.52zm141.14-4.64c31.252 35.605 59.277 25.073 77.601 1.4 7.859 20.177 25.376 34.128 55.52 20.561-1.824 3.226-6.4 8.919-6.4 8.919-26.637 7.176-39.86-5.36-50.138-17.3-27.104 22.499-52.628 17.045-73.684-2.8-17.971 22.628-47.078 27.49-74.016 9.021-12.32 18.176-29.984 25.517-52.205 16.42 0 0-4.711-7.41-5.12-7.881 3.219 2.701 44.134 19.685 54.125-21.16 14.24 24.171 60.935 25.453 74.317-7.18zm3.143 14.64c35.149 32.869 72.038 4.446 72.979 2.441.551 1.827 20.615 25.782 49.537 16.779l-4.698 8.06c-54.432-9.208-104.494-15.124-219.163 1.741 0 0 18.304-5.421 27.558-20.02 5.159 3.346 44.935 25.549 73.787-9.001zm-444.407 9.321c-3.2 7.746-8.428 15.758-12.8 22.919-20.569 31.916-21.741 34.977-23.379 46.241-4.577 22.049 21.459 30.971 29.76 15.92 3.719-6.36 6.061-2.22 4.403 3.8-1.062 10.576-11.827 22.829-11.865 22.6l31.539.24s-13.523-13.78-13.318-24.84c.019-5.056 2.713-5.202 6.003-.66 9.414 12.994 26.963 2.542 27.078-15.94.071-11.324-3.366-17.675-23.859-48.161-4.467-6.671-9.395-15.07-13.562-22.119zm321.206 17.92s15.296 1.795 16.499 2.1c1.344 1.042-12.883 4.946-12.941 4.659zm31.021 156.821c-.928.03-2.087 1.071-4.007 2.96-4.147 4.085-5.088 4.622-9.113 5.2-3.04.435-9.453 4.126-13.344 7.68-1.05.96-3.06 1.762-5.46 2.18-2.086.362-4.953.857-6.381 1.1-1.42.243-2.969.693-3.436.98-2.042 1.244-5.37 1.434-9.101.54-3.597-.864-4.179-.841-8.141.38-5.779 1.778-9.555 1.781-12.403 0-2.842-1.781-7.354-2.446-10.215-1.52-4.237 1.368-15.206-5.199-15.181-9.08.007-.881-6.233-5.551-7.801-5.56-5.562-.825-54.413 18.462-54.164 19.579 59.988 74.086 110.478 186.961 72.442 325.08l-6.72-3.219c5.645-25.107 7.885-50.375 9.619-76.039-112.589-48.608-122.279-161.641-78.579-233.001l-7.418-7.9c-26.483 14.13-53.389 22.152-118.842 77.06l.179 88.881c.16 80.349.121 158.641.121 158.641 23.687 2.624 49.774 4.768 75.502 6.982 0 0-.333 79.463-.922 110.535-.499 26.292.48 24.64.48 24.64l85.204 44.922c-5.991-23.661 8.787-33.056 21.158-32.077-5.472-22.809 8.103-33.248 23.597-30.323 10.471 1.978 14.132 7.75 20.122 26.823.973 3.097 2.311 7.244 2.311 7.244l5.971-.224c7.475-16.045 12.467-36.473 30.054-39.117 23.021-3.469 31.591 12.346 31.578 28.161 22.304-19.655 49.018-4.442 47.284 24.915 11.219-7.213 30.233-13.735 42.208 14.08 4.506-.947 6.803-5.971 13.133-7.539 2.374-.493 7.744-3.38 7.744-3.38l.064-.966s4.979-1.722 11.654-2.816c5.728 2.138 4.058 2.067 7.143-1.741 3.437-1.76 9.017-2.925 13.318-2.541 4.512.41 6.516.73 9.159-.416 4.115-1.798 7.961-2.259 10.4.461 1.753 1.946 4.281 1.005 7.001.896 5.434-.217 12.679 2.016 14.938 6.899 3.335 3.399 10.624 6.842 10.624 6.842l5.901-1.357.678-2.182 48.257-18.419c-98.407-107.752-95.841-250.703-72.66-323.063l8.903 4.28c-4.724 21.443-10.08 43.472-9.383 75.44 88.622 39.514 132.705 141.64 78.983 230.779l5.677 7.341c22.349-9.382 78.573-40.947 98.004-58.099l4.141.339s11.782-7.629 16.979-11.699l.697-236.561-4.121 1.08-.736-13.82-73.063-5.8c.928-.695 1.632-.977 1.843-2.36l-.422-130.961c-2.714-4.15-63.905-39.995-86.663-48.381-.909-.005-.282 1.534.045 5.28 1.113 12.846-7.559 24.28-17.601 24.301-3.616.007-4.243 1.543-4.064 8.92.256 10.488-3.532 17.535-14.579 21.52-13.094 4.724-21.952-2.126-29.242-29.061-1.913-7.073-5.651-5.304-9.235 4.361-1.779 4.797-7.539 16.441-10.982 22.58-2.65 4.717-6.842 6.811-12.538 9.32-4.442 2.197-14.061 1.816-19.603-1-10.042-5.105-13.946-11.233-16.839-26.42-.377-1.985-1.683-1.814-4.941.64-17.741 13.365-42.682-.452-42.541-23.561.045-6.784-.237-7.054-4.217-3.799-12.032 9.822-28.378 4.841-34.919-10.64-1.536-3.625-2.349-5.24-3.546-5.2zm-101.966 8.199c1.255-.055 5.159 5.141 5.159 5.141 3.603 3.983 8.448 6.001 13.485 8.96.467-.703 58.733 77.49 68.64 185.301l27.098.14c-5.056-104.758-33.946-155.109-47.2-187.421l9.721-3.081c21.799 41.761 48.359 126.518 47.482 200.721h-44.762c-6.317-74.322-35.219-146.787-75.642-201.761-2.816-4.222-5.018-7.167-4.198-7.92a.334.334 0 0 1 .217-.08zm-17.139 11.061l4.544 14.24s.544-3.324 1.939-4.581c8.839-7.97 17.306 2.523 13.319 16.761-.909 4.383-2.682 13.02-2.682 13.02s-8.883-4.558-13.357-6.02c-12.339-5.239-16.448-15.568-7.021-16.74 1.575-.197 4.82-.34 4.82-.34-3.917-3.079-12.564-10.121-12.564-10.121zm41.402 1.6c3.725 2.114 13.338 4.395 18.861 2.32 4.461-1.678 7.859-.757 12.499-.36 2.662.227 7.962-.941 7.962-.941 26.496 55.747 44.723 121.891 47.757 182.382l-20.839.12c-7.865-64.261-32.742-129.541-64.301-177.961-1.395-2.11-3.251-5.481-1.939-5.56zm87.06.96c8.07.097 16.512 8.139 21.101 21.3 2.553 7.329 3.552 6.884 6.982 5.7 8.8-3.016 18.176 6.649 6.374 8.26-11.577 1.913-4.966 24.565-5.958 26.56-4.691.82-13.511-18.432-13.28-24.16.563-14.04-12.621-25.78-20.819-19.88-3.885 2.795-3.463 4.767-4.66 3.76-3.692-3.098-4.435-11.639-.121-16.48 3.117-3.498 6.713-5.104 10.381-5.06zm239.72 4.84s.46 18.464-.237 22.54c-1.376 12.307-17.453 13.602-18.08 3.76-2.631 3.932-4.436 8.824-5.479 13.22l-11.405-7.84c4.333-3.108 8.461-5.835 11.661-9.68-8.448.64-13.177-6.675-7.52-12.9 6.279-7.132 23.655-7.9 31.06-9.1zm-419.165 5.84l5.043 5.68c-44.921 79.623-29.081 181.406 79.342 234.878-.717 24.435-3.847 49.14-9.683 72.064l-40.001-19.398c.269-90.023-50.701-175.851-132.077-232.264 29.529-23.725 62.195-44.565 97.376-60.96zm327.529.68c1.907 10.511 11.859 29.55 12.576 28.46-.103-.625-41.421 52.922-59.38 142.481l-15.341.06c10.055-59.675 30.125-115.986 62.145-171.002zm127.335 2.5l8.16 4.94c-42.816 35.847-71.008 81.294-91.719 130.3l-10.816-5.12c32.103-71.091 63.828-102.663 94.375-130.12zm11.424 7.94c2.24.142 4.896 2.979 9.018 5.24 4.032 2.21 3.027 3.385-4.557 9.2-8.973 6.877-9.818 6.573-9.741-3.24.051-6.51 1.696-10.85 4.838-11.18.148-.016.288-.03.442-.02zm-9.862 10.12c.473-.025.851.13 1.1.52.66 2.596.589 8.548-.46 14.42-.845 3.866-12.352 13.579-16.461 17.42-1.645 1.08-2.394.685-2.701-1.24.134-3.049.429-7.108.48-11.24.019-1.272-.25-2.606.902-3.58 5.639-6.656 13.85-16.125 17.14-16.3zm21.382 3.16a.291.291 0 0 1 .16.04c1.063.638.883 13.98.141 14.86-3.341.862-12.32-.551-14.624-1.78-.499-1.55 12.173-13.208 14.323-13.12zm-401.065 4.32l3.123 13.08s.89-1.754 1.12-2.1c6.196-9.481 13.741-3.923 13.62 9.24-.045 4.158-3.821 20.78-3.821 20.78s-23.271-11.177-25.101-16.08c-1.799-4.825.755-9.07 5.037-9.46 1.606-.183 3.283-.314 5.12 0l-9.997-10.22zm266.44 1.74l10.56 3.9c-22.022 35.823-44.749 71.205-61.299 151.9H494.26c6.189-49.315 18.733-97.795 41.121-144.98 0 0 8.691-2.67 13.6-4.26 0 0-36.583 83.704-40.845 137.521l21.382.46c11.412-52.442 32.762-106.795 59.738-144.541zm-83.795 1.3c5.945-.222 10.329 3.961 9.996 11.38-.076 6.785-.697 7.772-5.497 5.06-6.304-3.559-11.296-3.637-16.941.4-3.111 2.222-6.163 4.06-6.163 4.06s2.726-11.786 6.899-15.5c4-3.557 8.134-5.267 11.706-5.4zm-22.701 17.44c-.429 3.988-1.607 5.816-2.663 9.22 0 0 3.463-1.347 5.12-2.12 7.866-3.667 16.064 3.125 15.943 11.08.352 5.307-5.415 11.665-12.282 11.72-2.394.02-4.934-.735-7.379-2.56 1.773 9.723 2.131 14.221-4.979 19.101-5.953 3.958-18.484-.567-17.78-11.44l.435-6.701-6.016.78c-16.819.689-17.107-20.008-3.539-23.26 5.415-1.281 11.296 3.16 11.296 3.16-2.573-5.074-2.63-13.807.839-17.84 8.544-9.927 22.054-.902 21.005 8.86zm146.817-12.92c.921 7.746 4 16.192 3.123 23.42-1.312 9.239-9.165 14.711-15.341 8.72-.762-.739-2.138-2.28-2.138-2.28-2.784 3.525-4.525 13.5-4.525 13.5l-10.899-6.72s7.571-5.313 9.664-8.34c.583-.842.858-2.44.858-2.44-6.067 1.896-11.213-4.306-9.562-9.78 3.283-8.966 19.597-12.288 28.82-16.08zm76.186 5.6c4.076-.127 10.393 1.029 15.379 1.56 3.834.669 1.709 2.832-6.88 11.2-7.891 7.686-7.642 6.963-13.722 6.86-14.195-.24-16.685.08-8.422-8.84 4.333-4.674 8.115-8.895 11.219-10.46.659-.19 1.478-.291 2.426-.32zm-25.601 1.62c.18.008.32.075.455.2.941.877.627 4.88.525 10.8-.109 6.3-.045 6.303-2.682 9.6-3.36 4.211-6.15 8.507-9.664 12.56-3.034 3.297-2.938 2.943-4.755-4.98-1.767-7.684-.781-10.077 9.12-21.22 3.347-4.299 5.734-7.017 7.001-6.96zm44.34 4.38l.115 15.58c-29.293 28.648-49.203 60.869-62.739 96.381l-10.196-4.06c17.671-45.372 44.122-80.756 72.82-107.901zm-253.967 9.42c-4.838 0-8.755 3.917-8.755 8.76s3.917 8.78 8.755 8.78c4.845 0 8.781-3.937 8.781-8.78s-3.936-8.76-8.781-8.76zm-.057 2.76c3.341 0 6.061 2.717 6.061 6.06s-2.72 6.06-6.061 6.06-6.042-2.717-6.042-6.06 2.701-6.06 6.042-6.06zm-325.481 3.7c91.387 58.631 132.36 149.521 132.18 227.602l-5.158-2.317c-5.35-110.337-65.319-178.169-130.145-222.065zm541.041.84c2.073.008 4.883.329 8.96.8 7.565.404 8.493.882 3.283 6.86-1.427 1.637-4.166 5.062-6.099 7.64s-4.288 5.269-5.364 5.64c-1.587.549-14.867-.078-18.662-.6-1.242-.171.39-1.438 6.861-10.68 4.96-7.084 5.485-9.429 10.182-9.64.269-.012.544-.021.839-.02zm38.061 3s1.817 50.29.499 82.361c-20.845-.771-33.088 7.141-38.176 22.12l-21.901-10.84c16.07-41.271 37.555-69.991 59.578-93.641zm-64.519 1.16c1.184.018 1.862 2.469 2.202 7.3 1.376 8.644 1.222 9.651-2.381 15.2-1.799 2.763-4.263 6.663-5.46 8.68-2.092 3.518-3.577 4.565-4.102 2.86-2.854-9.326-3.757-15.099-2.739-16.98 1.664-3.092 9.44-14.143 10.541-15.58.761-.996 1.401-1.488 1.939-1.48zm-521.303.94c73.46 45.482 127.201 123.159 129.422 217.002 0 0-15.661-7.347-25.325-12.723l-.499-9.12 5.101-.16 1.638 10.285 11.219-.365-2.976-25.658-17.561 1.658-3.54-14.541 5.319-1.139 2.944 9.382 11.417-3.021-6.08-22.861-17.638 4.82-5.638-15.437 5.856-2.099 4.742 9.235 10.739-3.738-10.137-22.918-16.225 7.661-8.236-14.964 6.336-3.379 5.1 8.902 10.042-5.203-12.422-21.078-15.399 8.599-7.737-11.6 4.774-3.339 5.286 6.1 8.82-6.24-13.524-18.18-14.739 11.54-10.899-12.621 5.017-4.26 7.501 6.721 8.378-7.321-16.058-17.52-14.041 12.8-10.458-9.08 5.12-5.66 6.522 4.98 6.937-8.219-17.478-14.401-13.101 12.96-12.557-8.3v-6.18c4.077 1.574 8.39 3.407 12.256 5.46l6.502-9.84-18.758-12.66zm204.578 3.88l2.784 16.04c2.636-4.362 4.736-7.366 10.438-5.68 6.848 2.791 6.944 13.107 1.139 28.901-1.075 2.925-2.4 5.46-2.4 5.46s-3.001-1.247-4.998-2.621c-4.192-2.865-11.251-6.11-14.861-11.799-3.776-5.959-3.859-14.294 3.078-13.581 1.383.009 4.103.66 4.103.66l-10.419-13.28zm-208.616 4.78l12.717 8.2-2.643 4.8-10.074-4.54zm318.901 3.78c3.68 5.153-9.286 20.335 7.68 26.401 0 0 .416 3.494-3.123 5.619-8.301 6.035-20.218-4.982-16.518-16.32 2.361-7.252 9.196-15.658 11.961-15.7zm35.2.48s5.114 3.737 6.138 4.72c9.447 9.057 9.536 22.041.979 26.58-5.689 3.021-12.128.587-14.361-3.799-1.031-2.03.672-4.155 2.841-4.14 4.077.025 7.187-7.782 5.978-16.001-.474-3.257-1.575-7.36-1.575-7.36zm111.438 3.021s1.126 11.098 2.739 16.019c4.96 13.798-1.376 22.201-10.637 17.581-1.325-.661-3.661-3.66-3.661-3.66l-.921 15.86-13.178-3.841c2.848-4.583 6.951-7.841 10.016-12.999 0 0-1.971-.07-3.699-.08-7.872.27-10.771-8.457-2.522-15.641 6.151-5.304 21.863-13.239 21.863-13.239zm68.903 3.68c1.593-.012 3.584.117 6.317.119 8.364.008 10.508-1.125 6.822 4.08-1.44 2.029-4.941 7.678-5.984 9.6-2.106 3.904-2.528 5.131-6.035 5.901-5.088 1.006-10.848.311-16.66.579-1.267-.062 1.332-4.391 2.778-7.079 3.546-6.592 5.715-11.116 8.762-12.501 1.197-.544 2.4-.689 4-.699zm-25.844 5.099c1.012-.053 1.76 1.758 2.72 5.5 2.247 8.734 2.823 8.953-.8 16.121-1.824 3.616-4.934 9.744-6.22 12.279-3.284 6.504-3.469 6.441-5.536.621-3.975-11.167-4.314-10.017 2.24-22.56 4.089-7.835 6.118-11.883 7.596-11.961zm-482.038 3.061l11.815 9.479-3.36 3.261-6.535-4.82-9.664 10.34 15.879 14.48 13.44-13.241 11.52 12.041-3.52 2.98-6.759-6.52-10.118 8.64 15.097 17.84 15.22-11.6 9.542 12.5-3.897 2.44-6.221-6.04-9.901 6.86 12.32 17.36 15.52-8.9 8.819 14.498-4.902 2.362-4.999-7.96-11.142 6.417 10.522 20.301 16.761-7.001 6.74 15.501-5.12 2.08-4.301-9.319-11.277 4.461 7.558 21.319 16.999-4.877 4.121 15.84-5.241 1.459-2.579-8.781-10.823 2.599 4.525 21.401 17.299-1.1 2.061 17.299-5.382.243-1.338-10.323-11.021.141c.058 3.635.48 11.059.48 11.059l-6.662-3.079c-9.895-65.786-45.185-120.61-97.761-158.781l-.275-7.86 12.8 8.121s11.731-10.456 13.76-13.12zm504.983 15.339c3.667-.028 2.041 2.817-2.426 11.321-4.979 9.487-5.862 9.684-15.194 11.959-11.353 2.769-11.021 3.387-4.883-9.7 2.368-5.046 4.09-9.462 6.259-11.139 2.848-2.201 8.359-1.358 14.343-2.26.742-.113 1.376-.176 1.901-.181zm-530.929 2.8c54.605 35.225 89.121 108.087 93.403 152.26 0 0-1.479-.992-4.461-2.362-4.135-1.894-5.152-3.142-6.356-9.158-10.816-54.017-41.312-99.858-82.342-132.219zm492.388 9.02c2.31-.48 6.515 16.102 5.26 19.581-.908 2.5-9.03-3.404-11.981-4.66-1.478-.629 5.159-14.595 6.721-14.921zm-263.305.761l-.256 17.2s2.068-2.462 3.136-3.24c4.064-2.963 10.266 1.143 10.503 6.22.326 7.04-.743 9.899-6.381 19.68-1.747 3.026-4.378 6.88-4.378 6.88s-6.662-4.748-13.945-12c-7.866-7.838-6.362-18.306.525-18.34 2.06-.017 3.897.685 5.696 1.259-1.485-5.065-7.021-14.9-7.021-14.9zm213.423 12.88s3.564 4.693 7.66 17.04c3.911 11.789-2.112 20.667-10.278 16.22-1.466-.797-3.002-2.52-3.002-2.52-.576 5.715.442 15.997.583 16.081l-13.184-2.298s7.238-11.5 7.763-14.343c0 0-.819.642-4.442.64-13.241-.007-10.496-15.761 4.8-24.5 2.298-1.313 10.1-6.32 10.1-6.32zm75.923.2c2.861-.128 1.511 2.645-1.664 9.12-3.507 7.159-2.63 6.539-10.041 2.76-10.362-5.064-9.748-5.855 3.385-9.4 4.147-1.535 6.816-2.413 8.32-2.48zm-187.963 2.099c10.381.063 18.036 10.304 16.5 24.861-2.637 24.992-1.12 23.449 1.6 25.939 4.953 4.544-1.754 7.271-7.661 2.944-4.109-3.021-5.453-5.997-5.261-19.783.224-15.849-.634-19.884-6.298-18.5-3.539.863-4.652 3.871-4.262 14.56.55 15-.442 18.776-6.138 23.582-6.144 4.749-12.774.512-7.161-2.624 2.566-2.886 3.046-6.553 2.061-15.616-1.082-7.724-5.588-35.497 16.62-35.363zm256.623 12.601a69.985 69.985 0 0 1 3.936.039c19.974.75 70.484 4.861 70.484 4.861l.435 14.92c-2.253 1.388-39.949-4.36-67.674-3.84-6.483.121-11.079 2.984-15.764.58 4.5 1.866 4.09 24.372-15.737 18.919-16.82-6.042-8.621-28.782 12.877-34.519 3.699-.501 7.526-.886 11.443-.96zm-111.143 10l43.162 21.281c6.041 81.024 34.01 166.631 129.281 231.521-15.437 11.04-54.151 38.164-98.401 56.743l-3.623-3.885c52.538-89.344 12.845-187.688-79.162-232.2.25-24.8 3.367-49.267 8.743-73.46zm151.822 13.581c8.275-.326 10.432.628 11.136 4.378.672 3.546 3.302 4.378 6.425 3.238 7.597-2.764 12.231 10.708 5.94 16.685-3.911 3.706-3.226 5.14-.02 5.159 7.93.051 7.7 10.432-.364 16.32-3.341 2.445-3.296 3.552.204 5.28 5.863 2.893 4.679 8.608-2.764 13.318-4.045 2.56-4.18 3.194-.839 4.103 8.416 2.291-.173 14.285-9.376 12.16-3.782-.877-7.373-.058-10.982 2.298-9.863 4.108-11.514 4.928-22.164 3.603-9.344-1.715-13.523-4.794-15.936-13.005-5.485-16.685-11.398-35.175-11.462-53.396-.826-11.187 17.926-21.303 26.809-21.742 7.232-1.089 15.527 1.531 23.393 1.601zm-590.347.282c9.92 0 17.965 8.038 17.965 17.959 0 9.92-8.045 17.958-17.965 17.958s-17.958-8.038-17.958-17.958c0-9.921 8.038-17.959 17.958-17.959zm199.605 5.274l-1.619 15.705s2.636-2.06 3.257-2.585c4.672-3.898 12.058.467 10.381 6.541-.544 5.356-9.798 21.28-13.478 24.621 0 0-14.836-16.161-16.423-19.322-3.526-7.021 1.293-14.343 7.699-11.239.916.442 3.559 2.4 3.559 2.4l-4.698-14.899zm-198.401 1.26c-6.349.218-12.378 4.116-11.565 9.3.544 2.221 3.929-.979 7.264-3.079 2.553-1.606 5.625-1.856 8.537-.595 2.586.915 3.687 3.296 5.184 5.139 1.268 1.549 2.656 2.823 3.437 2.055.666-.819.397-1.85.218-2.778-1.363-7.072-7.213-10.214-13.075-10.042zm483.664 2.445l6.419 3.277c8.64 114.51 66.541 181.825 127.38 221.922l-4.839 2.918c-74.663-47.828-126.496-133.524-128.96-228.117zm9.715 4.698s16.121 8.25 24.563 12.058l.32 10.361-5.638.199-1.92-9.735-11.725.839 3.661 23.955 18.899-2.317 2.643 14.477-6.4 1.344-3.283-8.902-10.835 2.643 7.014 23.277 17.043-5.498 5.338 15.219-5.715 2.08-3.661-8.921-11.219 3.923 8.678 22.72 17.741-5.702 7.162 14.221-5.383 2.38-5.139-8.819-10.643 5.44 12.48 21.216L726.857 721l7.482 11.341-5.882 3.936-5.337-6.937-8.621 5.677 13.798 18.841 13.805-10.336 10.317 11.898-4.557 4.038-7.04-7.136-8.346 7.437 16.442 18.042 14.279-12.403 10.144 9.44-3.002 3.161-6.822-4.262-9.037 9.6 17.261 15.021 13.702-15.021 11.616 8.563v6.323l-10.381-5.26-6.956 10.476 17.337 13.12-.121 5.159c-98.983-59.053-125.032-150.651-130.081-218.779zm-202.658 1.139c4.276-.128 8.794 3.898 16.257 12.538 20.864 24.166 15.296 61.549-11.981 81.044-3.968 2.841-5.568 2.585-10.42-1.581-27.968-24.032-29.581-56.173-4.678-84.398 4.307-4.883 7.494-7.5 10.822-7.603zm99.982 3.322c5.139 7.885 11.635 16 12.378 25.581-.372 9.465-6.752 11.213-13.364 5.696-.832 4.973 2.004 14.662 2.004 14.662l-11.962-1.28s4.691-8.198 4.883-13.318c-8.307 5.779-14.65-1.76-13.523-7.84 2.374-10.349 10.88-17.325 19.584-23.501zm-99.623 6.182c-.979.077-1.997.749-3.559 1.997-7.289 5.843-13.011 13.114-15.98 20.659-6.273 15.93-2.176 33.889 11.961 47.821 7.181 7.079 9.709 6.592 20.717-8.038 9.223-12.256 11.143-28.09 5.459-41.844-2.771-6.707-7.795-13.248-13.817-17.996-2.317-1.824-3.52-2.701-4.781-2.599zm230.081 2.938l9.28 4.557c11.84 78.093 50.215 125.735 93.223 158.586l-.083 7.239-11.539-8.941-13.818 14.458-11.2-9.178 4.199-4.083 6.38 4.064 8.161-9.14-16.065-14.323-13.996 12.141-11.661-12 3.539-2.957 8.058 7.04 9.024-8-15.604-17.504-13.958 10.579-9.741-12.915 4.243-2.522 5.101 7.002 10.758-6.701-11.379-17.504-16.224 8.32-8.301-14.957 4.723-2.259 5.383 8.397 10.099-4.858-10.163-20.64-16.576 5.478-6.099-16.243 4.736-1.734 4.179 9.6 11.219-3.603-7.616-22.221-17.139 4.838-4.244-16.339 5.3-1.139 2.784 8.819 11.776-2.355-4.32-21.165-17.536 2.221c-.583-3.597-3.175-13.281-3.124-16.941l5.402-.436 1.696 9.319 11.802-.403zm-229.46 1.696c6.432.883 14.285 13.267 16.057 17.766 3.392 8.89 3.674 19.194.583 27.175-2.528 6.534-10.1 18.118-14.9 21.382-3.878 2.1-7.123.544-12.659-6.982-10.944-14.867-13.056-32.749-4.422-44.999 6.598-9.357 11.488-14.349 15.341-14.342zm241.902 3.865l4.659 2.196c5.722 45.254 32.538 107.354 85.319 144.506v5.677c-41.05-29.459-78.733-80.276-89.978-152.379zm-242.722 3.079c-18.38 13.856-15.443 35.546-1.516 50.157 14.995-9.926 20.301-36.736 1.516-50.157zm-280.501.921c10.368-.243 16.941 3.373 20.097 10.561 4.908 11.161 5.574 13.28 6.579 19.136.576 3.347 1.465 8.403 1.965 11.219 5.382 30.336 1.42 41.773-17.005 46.503-5.492 1.414-13.159 1.868-18.516.582-1.408-.339-6.553-.371-10.604-.506-8.033-.256-10.484-1.107-14.516-4.377-1.459-1.178-2.854-2.125-4.601-2.4-9.191-1.453-11.936-9.875-4.96-16.096 3.974-3.546 4.364-4.02 4-4.621-.212-.346-1.908-.634-3.783-.64-9.261-.058-9.171-9.594.16-16.403 4.435-3.239 6.432-6.285 3.501-5.537-8.448 1.991-11.43-10.361-2.598-14.188 4.704-2.631 8.076-4.826 3.539-5.076-3.808.333-6.912-2.483-5.741-5.792 1.408-4.019 9.139-7.673 13.6-6.304 3.488 1.063 6.88 2.042 9.062.474 5.287-3.795 7.649-5.511 12.199-6.119 2.637-.352 5.402-.428 7.622-.416zm308.143 2.317l42.599.819-1.261 41.78-40.122-.755s8.794-18.669-1.216-41.844zm-95.463.96l40.8.499c-6.72 15.745-4.211 31.924-1.74 41.044l-39.943-.621zm68.141.064c10.964 6.388 13.978 29.645-1.248 41.601-14.496-14.893-11.596-33.025 1.248-41.601zM364.02 647.579l10.937 1.018-3.897 15.661s1.76-1.856 2.336-2.036c14.054-6.604 15.065 8.353.761 21.857-3.161 2.976-8.237 7.059-8.237 7.059s-3.98-6.016-7.142-11.456c-3.59-5.472-6.035-11.335-5.421-14.445.89-4.512 6.317-7.495 9.779-4.736 1.703 1.357 3.68 3.417 3.68 3.417zm195.316 11.482s4.589 4.704 7.379 7.757c9.664 10.566 11.322 20.454 6.426 23.462-4.205 1.927-6.816.602-10.202-2.137.704 6.547 5.908 16.217 5.78 16.237l-14.42 2.323s3.559-13.127 3.258-18.087c0 0-2.963 2.279-4.282 2.842-9.408 3.437-14.08-7.258-6.336-17.92 6.49-8.941 12.397-14.477 12.397-14.477zm196.987 19.802c9.67 0 17.517 7.84 17.517 17.517 0 9.676-7.847 17.516-17.517 17.516-9.677 0-17.523-7.84-17.523-17.516 0-9.677 7.846-17.517 17.523-17.517zm8.64 8.019c-.755.166-1.376 1.907-1.466 5.741-.87 7.859-7.411 11.021-14.56 7.379-2.886-1.472-5.35-3.654-5.357-1.984-.006.896 2.311 5.581 3.962 7.181 6.055 5.453 20.813 4.16 20.48-8.538-.16-5.978-1.805-10.067-3.059-9.779zm-318.108 6.579c1.908-.128 4.32.659 5.863 2.259 4.787 3.271 5.696 7.45 6.003 23.22.262 13.913-.019 14.253 2.278 15.942 5.62 4.128 9.005-2.169 7.399-16.262-1.549-13.568 3.341-23.431 11.539-23.38 4.032.026 4.787 2.394 1.722 5.421-3.232 3.187-4.013 7.091-3.002 14.938 2.599 20.109.352 29.978-8.096 34.061-8.819 4.256-20.154-.634-22.144-11.763-1.274-7.418-1.261-16.218-.378-24.519.154-8.723-.044-9.715-3.078-14.72-2.15-3.354-.55-5.031 1.894-5.197zm-221.678 6.522c4.871-.013 9.933 2.809 12.96 9.056 7.296 15.072-8.512 27.469-23.021 28.442-25.184.377-55.104-3.258-80.378-6.624l.397-14.234c23.194 1.337 49.344 3.219 77.524 4.537-3.213-13.241 4.396-21.164 12.518-21.177zm132.443 2.918l14.016 3.098-8.916 14.579c2.644-1.146 4.474-1.946 7.117-.979 5.709 2.061 5.786 9.299 1.6 16.058-3.309 4.915-12.627 10.777-18.982 14.38-3.565-7.66-11.456-21.088-8.32-28.416 1.67-3.897 6.285-5.792 10.585-3.661 1.421.852 4.135 2.24 4.135 2.24zm33.139.397l42.72.499c-6.208 43.194-18.361 100.871-42.304 147.886l-10.061 2.598c21.114-46.714 35.162-90.528 41.722-139.501h-21.357c-12.288 52.563-30.464 101.28-58.42 143.604l-12.422-4.045c29.869-47.354 53.536-100.199 60.122-151.041zm97.441.762h47.616c8.762 87.943 38.477 147.969 82.701 207.342 0 0-2.79.627-4.441-.083-4.583-5.722-8.788-9.217-15.655-10.977-37.171-53.517-62.112-128.333-68.122-185.562h-28.32c3.226 71.885 23.136 130.823 49.639 187.898l-14.381 2.644c-21.28-51.085-44.615-95.54-49.037-201.262zm74.099 10.86c3.917 3.028 8.154 6.01 12.141 8.896 10.72 7.527 10.579 21.748.16 21.684-1.107-.007-3.68-.16-3.68-.16s4.256 9.325 6.938 14.042c-4.339 1.158-13.421 2.86-13.421 2.86s1.299-9.158 1.043-16.742c0 0-1.741 1.945-3.181 2.617-6.918 2.893-12.761-3.142-11.904-10.278 1.171-9.626 11.904-22.919 11.904-22.919zm-318.146 1.722l23.444 11.635c-15.975 36.365-34.266 70.407-60.718 96.283l.679-84.02c14.438-.423 29.254-.551 36.595-23.898zm160.283 1.318h14.419c-6.393 67.079-50.714 157.819-59.04 168.763l-2.739 2.061c.166-.09-5.677-20.57-12.321-27.943 25.005-33.728 51.207-98.535 59.681-142.881zm101.402 0h21.779c6.785 53.447 23.309 111.188 65.185 181.32 0 0-4.199.422-7.443-1.517-7.136-4.429-12.096 1.434-16.359 1.203-6.669-.358-7.763-.755-14.643.877-34.554-72.883-44.359-130.247-48.519-181.883zm-235.259 12.001l7.776 3.66c-16.73 38.689-31.712 69.434-71.341 107.182l-.135-11.245c27.834-26.957 46.593-62.496 63.7-99.597zm11.315 5.401c3.687 1.383 7.866 3.661 11.341 5.536 1.165.467.851 1.511.864 2.605-1.472 3.674-7.968 5.286-10.419 5.997-2.97.845-5.895 1.433-6.426 1.561-3.385.794-2.317-2.604 1.363-10.041 1.658-3.347 2.311-5.587 3.277-5.658zm15.546 8.199c2.323-.141 11.731 5.049 13.734 6.918.717 2.208-1.305 5.677-4.275 12.103-4.569 9.875-5.478 10.092-6.841 1.977-.237-1.395-1.6-6.016-2.42-9.082-1.907-7.11-2.092-11.2-.198-11.916zm17.018 7.98s5.465 2.656 7.238 3.821c-24.403 73.082-89.389 133.492-89.037 132.097l-10.144-5.958c43.251-39.079 74.944-85.217 91.943-129.96zm-25.799 1.037c2.362.051.301 2.951-2.88 9.984-3.027 6.88-4.013 9.325-6.842 10.42-4.051 1.465-9.875 1.51-15.04 2.419-2.208.384-1.286-1.306 2.119-8.218 3.993-8.115 4.217-9.798 10.483-11.482 3.616-.563 8.486-3.148 12.16-3.123zm8.557 14.522c2.515 9.05 2.464 10.835.781 13.978-3.155 5.9-7.283 12.781-8.423 14.643-2.841 4.659-3.648 3.686-5.337-7.642-1.05-7.027-1.965-10.182-1.191-13.241 1.421-3.463 5.652-11.623 8.045-16.397 3.424-10.189 5.261 7.757 6.125 8.659zm44.922-7.898l12.8 4.199-10.042 12.121s4.212-.761 4.704-.563c10.068.672 8.397 10.682.596 16.743-3.226 2.957-19.156 10.195-19.156 10.195-1.709-8.954-5.222-14.682-4.384-23.879.589-4.947 1.031-9.42 7.098-9.555 3.193-.173 4.486 3.091 6.566 5.715zm232.04 10.861s7.712 3.975 14.861 9.479c9.325 7.174 10.918 15.609 1.6 18.861-1.076.377-4.141.217-4.141.217 2.566 4.467 8.659 11.123 8.659 11.123-3.053 2.132-7.36 3.808-12.141 5.3 0 0-1.184-11.13-2.317-15.424 0 0-1.235 2.432-2.758 3.379-8.979 5.587-16.026-4.941-11.2-18.26 2.931-8.083 7.437-14.675 7.437-14.675zm-98.702 1.856c22.42-.544 9.287 36.173-1.92 33.799-.185-.333 9.255-21.716-3.456-25.12-5.837-1.562-.806-8.749 5.376-8.679zm-36.762 2.599c6.97-.039 12.039 4.87 5.383 7.961-10.471 4.864-4.237 16.519-4 23.124.147 4.032-9.325-3.52-11.341-11.725-2.598-10.599-1.395-18.452 9.958-19.36zm-165.818 3.865c1.549-.006 2.707.115 3.104.416.653 1.735-2.477 7.149-7.04 14.08-2.432 3.693-3.475 4.73-4.967 5.6-3.526 1.984-8.486 1.472-12.614 1.76-6.163.077-5.082-.044 1.734-10.656 3.047-4.749 4.973-8.627 6.784-9.862.365-.231 8.365-1.325 12.999-1.338zm8.083 7.655c0 13.28 4.512 17.632 1.197 21.824-4.051 6.521-9.223 13.664-11.098 15.917-3.168 3.801-2.816 3.085-3.641-6.861-.602-7.207-1.255-12.026-.32-14.279 2.707-6.508 5.926-9.619 9.28-16.537 2.63-5.575 4.582-4.647 4.582-.064zM457.94 792.7c6.509.09 10.528 7.008 10.24 13.357l-.281 6.08c8.416-3.226 18.854-.09 19.321 8.167.781 13.99-9.523 12.364-18.24 11.776.877.332 2.163 12.646-3.021 17.363-8.14 9.107-23.315-.199-19.5-13.562.793-2.777.96-4.518.96-4.518s-5.44 1.958-7.361 1.875c-16.512-.704-15.244-24.045 1.338-21.299 3.392.563 5.683 1.382 5.683 1.382s-.364-1.478-.921-3.558c-2.413-8.986 2.656-17.184 11.782-17.063zm330.217 4.16l8.902 5.12v9.92l-12.659-9.363zm-533.501 6.637c3.507-.032 6.265.243 5.721 1.082-.012 1.772-7.68 12.448-12.217 17.325-3.872 4.153-4.423 3.558-13.882 3.097-3.712-.185-6.138-.211-6.042-1.203 4.359-5.715 10.368-13.075 14.522-19.219 1.632-.5 7.392-1.037 11.898-1.082zm8.659 4.666c.659-.013.858 1.408.845 4.499-.013 2.329.32 9.549.659 12.678.614 5.69.614 5.684-1.824 9.082-2.97 3.194-6.003 7.898-9.837 11.558-5.76 6.381-5.165 6.746-5.082-6.899.071-10.662-.736-10.656 1.421-13.158 1.184-1.376 4.845-5.856 7.258-9.364 3.667-5.318 5.606-8.384 6.56-8.396zm54.88 1.875l11.84 6.323-11.859 12.019s2.97-.012 3.962.18c7.616 1.478 7.046 9.555-.621 15.577-4.711 2.976-20.877 8.864-20.877 8.864-.557-6.79-1.997-13.037-1.722-20.32.116-3.36.423-7.014 3.002-9.92 1.779-1.971 4.762-3.123 8.934-.422 2.196 1.952 3.341 4.16 3.341 4.16zm139.72 4.102c-4.634 0-8.397 3.763-8.397 8.404 0 4.633 3.763 8.396 8.397 8.396 4.64 0 8.403-3.763 8.403-8.396a8.404 8.404 0 0 0-8.403-8.404zm132.365 1.978s15.501 5.824 22.477 12.224c6.522 5.434 3.456 14.394-3.021 14.579-.467 0-3.219-.403-3.219-.403 2.195 3.341 9.543 11.52 9.543 11.52l-11.981 4.864s-1.92-9.222-3.399-14.4c-4.179 9.639-14.477 3.366-15.161-2.643-1.664-8.807 2.08-17.402 4.761-25.741zm-132.365.742a5.844 5.844 0 0 1 5.843 5.837 5.845 5.845 0 0 1-5.843 5.843 5.843 5.843 0 0 1-5.837-5.843 5.842 5.842 0 0 1 5.837-5.837zm-228.719 11.943c4.18-.039 9.389.153 11.719.294 1.779 1.37-1.939 5.607-9.12 13.146-5.754 6.041-6.605 5.203-13.581 5.261-11.699.089-11.987.166-6.618-5.946 5.882-6.694 9.319-11.002 12.039-12.397.915-.237 3.059-.339 5.561-.358zm14.26 5.875c1.235-.243.902 2.912.697 10.061l-.339 12.122-9.094 8.761c-10.535 9.421-9.281 10.016-9.204 1.197.058-7.002-.013-11.93 1.498-15.04 4.602-5.543 9.395-10.445 14.624-15.738.826-.813 1.408-1.28 1.818-1.363zm231.342 3.021c2.534-.211 8.998 10.854 10.618 20.122 3.699 21.171 16.377 31.2 25.299 22.701 3.635-4.999 4.038.454 3.866 3.059-1.876 26.816-32.263 15.654-35.725-10.983-10.663 6.925-20.615-7.059-14.26-6.835 15.034-4.781 10.925-18.586 10.202-28.064zm-35.2.205c1.491 9.273-15.232 25.158-24.64 14.016-4.788-5.671-.423-17.357 5.657-10.157 6.727 4.973 13.248-.8 18.983-3.859zm-229.762 12.717c3.437-.077 8.41.576 10.579.281 3.072.307.877 1.786-5.76 7.84-5.715 5.21-7.347 7.533-8 5.261-.32-3.526-.179-7.712-.16-12.685.525-.486 1.78-.665 3.341-.697zm77.959 6.163l10.202 7.437-10.119 9.318c9.076-.448 9.882 8.058 6.439 12.8-2.227 3.328-10.836 6.829-19.444 8.224-5.177.839-9.395 1.459-9.395 1.459s-.198-3.993-.339-10.624c-.301-13.555.627-18.893 5.837-21.536 3.731-1.894 10.048 1.075 11.603 4.538.512 1.145 1.856 3.142 1.856 3.142zm-65.639.736c.039-.007.064 0 .083.019.576.781-1.504 22.842-1.504 22.842l-14.777-8.32s14.957-14.279 16.198-14.541zm391.164 2.598c10.528 4.96 18.413 4 25.498 10.144 6.17 3.226 4.339 12.116-.16 14.1-2.035.62-5.401.281-5.401.281 3.724 4.595 11.884 10.4 11.884 10.4l-12.96 5.415s-1.772-8.736-3.424-13.498c-2.355 7.085-10.349 6.912-14.899 3.578-3.226-2.464-4.557-10.74-3.021-17.921.41-1.888 2.483-12.499 2.483-12.499zm47.361 71.905c13.369 18.816 20.819 34.643 22.899 58.259 1.229 14.558.806 17.278-2.643 17.258-2.215-.02-3.175-1.11-3.155-3.6.23-39.54-48.474-48.839-66.606-14.675-10.624 20.015-5.382 46.565 17.466 82.715 21.018 34.23 48.09 60.26 63.495 97.08 15.27-36.57 45.907-67.35 67.802-102.6 31.629-45.33 20.659-93.112-18.362-98.136-17.901-2.311-37.523 15.635-39.795 34.196-.512 4.14-1.389 5.36-3.661 5.02-3.046-.45-1.907-8.631-.582-19.536 3.616-20.858 10.982-38.26 22.918-55.981zm188.942 52.256c.352-.09 9.92 13.254 11.277 18.241 1.107 4.07 1.958 8.27 1.26 10.04-.838 2.13-2.835.5-5.318-2.8-6.829-9.06-20.25-6.17-25.722 5.62-3.942 8.5-1.753 19.45 5.581 31.86 8.762 16.2 30.195 45.33 30.842 47.98.569-2.28 14.221-27.02 25.216-43.42 5.798-9.9 10.138-18.28 10.4-31.36-1.338-16.28-20.819-22.996-29.517-10.36-2.816 4.09-4.486 5.34-5.421 2-.633-2.25 1.344-7.1 2.381-12.3.864-4.333 9.293-15.603 9.498-15.501zM544.098 1065.5c-127.796 30.29-231.605 11.56-241.903 7.98l-8.141 12.14c-.992 2.06-1.6 8.23-7.117 9.91l-8.281 12.35 1.619 1.73-7.341 6.4 1.786 2.13-5.344 7.76-2.099-.22-12.359 18.79 1.882 2.1-28.384 44.41 383.944.12c-22.317-42.09-46.195-83.37-68.262-125.6zm-2.317 5.46l2.278 6.34c-6.349-.78-13.766-1.16-21.299-1.5 6.624-1.36 13.254-3.04 19.021-4.84zm-22.304 5.52c-12.212 5.6-19.527 12.34-25.14 19.44-6.982-5.43-15.872-9.27-26.477-11.68zm-215.759 3.08l5.44.62s-1.824 1.42-3.123 1.12c-.992-.23-2.317-1.74-2.317-1.74zm244.578 3.16l3.462 6.84c-8.313-4.4-43.885-14.5-53.978 20.86-10.624-14.35-54.413-35.17-76.621 9.09-6.317-12-43.085-46.49-76.621-2.53-13.216-27.32-24.263-29.61-48.519-25.88 17.242-16.57 41.498.68 51.776 14.78 28.935-23.99 53.127-16.78 74.26 2.74 27.277-29.69 54.471-22.54 73.601-7.64 13.446-19.77 26.573-25.74 52.64-18.26zm-223.381.18c17.197 2.32 34.388 3.38 51.585 4.22-9.952 3.66-20.16 6.8-28.263 14.15-6.138-8.58-14.669-13.56-23.322-18.37zm124.04 2.74c-9.383 4.42-19.495 11.06-27.597 18.04-8.749-7.12-17.754-13.28-27.559-16.38 17.991.88 37.927.1 55.156-1.66zm418.588 9.62c-.019.07-.013.1 0 .12.019-.02.006-.05 0-.12zm-308.508 4.42s-3.462.59-4.576.88c-15.181 4.04-11.878 25.42 3.738 25.42 1.485 0 5.184-.58 5.184-.58-.301 14.48 4.102 18.02 18.899 17.2l25.076 44.84-370.998-1.6 23.559-37.68c11.846 1.39 19.296-5.2 16.659-15.26 0 0 7.296 2.23 9.344 2.24 13.408.08 16.877-20.49 4.019-24.06-1.433-.39-5.024-.79-5.466-.92 5.882-14.69 22.036-6.02 26.663.09 10.413-8.57 21.927-4.73 26.861 6.35 0 0-1.939-1.08-2.541-1.52-12.198-8.92-23.539 9.56-11.597 18.08 1.172.84 3.661 1.57 3.661 1.57s-1.453 1.18-2.784 3.41c-6.201 10.43 3.783 23.13 15.84 19.86 9.255-3.62 9.389-10.58 9.383-18.24 0 0 3.193.25 6.061.28 11.104.14 14.284-14.09 7.488-20.7-3.674-3.58-8.474-3.3-10.848-3.76 12.8-12.57 21.484-3.9 30.515 1.9 1.37-.03 15.686-17.22 32.704-.34-8.262-2.16-16.717 3.2-16.832 11.79.16 5.54 4.122 10.43 12.672 10.82-.915 2.78-1.53 4.85-1.581 7.55-.166 9.03 6.848 14.65 15.757 13.26 7.45-.94 12.954-9.46 10.304-16.54-1.197-3.19-2.841-4.35-2.841-4.35 20.051 2.5 19.705-22.9 4.115-24.44-3.699-.36-6.547 1.23-10.279 4.65 9.172-18.75 25.946-14.99 32.225-7.32 8.614-6.26 20.493-14.8 34.701.42-2.343-.49-5.639-.6-8.506.15-11.245 2.99-11.296 17.29-2.374 21.64 2.508 1.22 5.587 1.94 8.896 1.81-2.964 12.02 10.381 20.61 19.827 14.85 6.765-4.12 8.538-13.86 1.216-22.75 12.326-.55 13.542-15.91 6.419-21.3-5.581-4.22-12.153-2.22-16.921 3.36-1.53-4.41 10.649-19.74 27.859-8.7 9.12-7.64 18.157-9.99 28.499-2.36zm5.383 12l4.819 8.76c-3.206.32-7.802-3.12-4.819-8.76zm-62.202 8.9a5.464 5.464 0 0 1 5.465 5.46c0 3.02-2.444 5.46-5.465 5.46a5.457 5.457 0 0 1-5.46-5.46c0-3.01 2.445-5.46 5.46-5.46zm-225.179.32c.729 2.93 1.043 5.86-4.282 6.42zm545.424 2.54v12.22h9.997l28.243 65.04-27.104 42.22h-11.136v10.87h38.797v-10.87h-11.341l34.484-52.64v52.64H874.5v10.87h35.078v-10.87h-12.8v-107.26h12.8v-12.22H874.5v12.22h9.901c.243 10.52.3 19.58 0 30.11-4.928 6.57-10.042 14.6-15.463 20.8l-21.798-50.91h14.118v-12.22zm-482.704 2.74c2.765 0 4.998 2.24 4.998 5s-2.233 5-4.998 5-4.998-2.24-4.998-5 2.233-5 4.998-5zm83.22 1.56a5.301 5.301 0 0 1 0 10.6 5.299 5.299 0 0 1-5.299-5.3c0-2.92 2.374-5.3 5.299-5.3z"/></g></svg>