<svg clip-rule="evenodd" fill-rule="evenodd" stroke-linejoin="round" stroke-miterlimit="2" viewBox="0 0 934 1300" xmlns="http://www.w3.org/2000/svg"><g fill-rule="nonzero"><path d="M505.504 1186.44c2.279-33.58.323-69.62 1.854-96.95-1.04-1.93 2.703-7.23 2.9-7.23-2.223-4.06-2.972-14.46-.163-23.69 21.978-83.735 61.779-148.901 102.775-209.672 33.336 100.431-71.344 170.892-93.357 258.652-7.342 30.39-6.243 51.6-9.059 79.05zm-174.042 1.29L206.931 995.35l27.043-13.163 128.003 204.863zM492.54 831.348c1.099 5.523 5.444 8.489 10.055 5.962 4.518-2.474 5.039-2.642 2.229 1.713-6.206 9.615 6.364 18.921 14.431 10.671 2.867-2.932 3.347-7.704.743-10.127-2.94-2.737-3.58-4.155.758-2.07 10.897 4.411 16.899-11.351 6.341-16.651-2.721-1.367-8.024-.154-10.02 1.926-2.41 2.512-2.75 1.63-2.107-.319.38-1.153.649-3.025 1.557-5.256.712-1.75 1.224-4.135 1.224-4.135l-11.133.118s.9 2.55 1.811 4.696c.857 2.02 1.181 3.531 1.598 4.37 1.501 3.025-.302 1.906-3.309-.331-4.25-3.162-9.58-2.275-12.611 1.885-1.117 2.445-2.053 4.99-1.567 7.548zm16.077-156.508l23.937-.71 26.326 72.645c-21.069 34.978-26.751 74.431-2.236 114.419l-75.915.122c17.807-60.255 20.558-124.166 27.888-186.476zm25.03 94.524c3.213-2.873 3.624-8.082.696-11.556-3.681-4.368-2.837-4.591 2.101-1.738 7.124 4.116 13.941-4.788 9.736-12.661-2.671-5-11.307-6.107-14.608-1.662-2.752 3.707-2.446.314-.329-4.612.779-1.811 1.895-5.211 1.895-5.211l-11.6.238s1.498 3.284 2.296 5.394c2.117 5.596 2.203 7.368-1.059 3.769-7.082-5.95-15.386-1.639-15.463 6.906.073 6.569 6.026 10.786 11.24 7.716 3.168-1.866 4.589-2.313 1.021 1.971-2.461 4.084-1.578 9.288 1.671 11.73 4.45 2.69 9.215 2.538 12.403-.284zM373.28 792.001c.932-.686 1.276-.235.705.69-.487.789-1.736 1.911-2.805 3.099-5.413 6.022 1.592 13.676 10.319 12.492 5.941-.806 9.427-10.15 5.037-13.84-1.421-.949-2.536-1.13-3.614-2.43-.086-.519.157-.87.683-.665.775.324 2.356 1.602 3.155 1.819 5.52 1.499 9.688-.782 11.089-4.68.887-4.507.033-9.348-3.65-11.878-3.423-2.297-8.485-1.639-11.436 2.28-3.02 4.01-3.437.194-.966-5.34.925-2.075 1.561-5.026 1.561-5.026l-10.663.566s.567 2.294 1.505 4.933c2.37 6.024 4.067 7.751 1.041 4.638-13.028-7.672-17.355 2.762-17.569 6.911-.403 7.812 10.971 12.242 15.608 6.431zm52.154-117.82l19.245.066c-14.513 77.151-44.247 141.778-94.276 186.252l-94.151-.289-45.367-31.72 17.521-22.755c119.526 12.315 170.427-46.946 197.028-131.554zm-86.621 178.852c5.633-2.485 7.977-8.864 4.251-13.145-3.369-3.871-3.714-5.079 1.462-2.064 6.925 4.034 13.619-4.019 10.224-11.898-2.114-4.904-8.774-6.421-13.567-3.088-4.214 3.144-4.133 1.739-1.932-3.224 1.09-2.457 1.928-6.393 1.928-6.393l-11.797.165s.853 2.803 1.712 4.729c1.968 4.413 2.681 6.439 1.766 6.45-.441.004-1.899-1.342-2.752-2.125-2.35-2.158-8.77-2.566-11.154-.289-7.061 6.735-3.085 18.517 5.898 16.343 5.8-1.404 7.127-3.608 2.321 1.846-5.922 6.724 3.252 16.393 11.64 12.693zm-74.41-2.341c4.878-2.299 6.51-7.924 3.779-11.556-2.749-3.655-4.108-6.011.782-2.718 6.499 3.269 12.178-1.073 12.096-8.465-.086-7.741-8.78-11.352-15.175-6.69-1.08.787-2.409 1.496-2.647 1.499-.781.009.638-4.179 2.193-6.92.674-1.19 1.863-3.613 1.863-3.613l-11.798-.452s.66 3.215 1.585 5.687c1.88 5.022 2.34 6.696-.954 3.845-8.871-8.292-18.334 2.267-14.6 11.383 1.976 5.132 8.03 5.13 11.603 2.565 3.242-2.512 1.584.82-.638 3.471-6.061 7.23 2.824 16.213 11.911 11.964zm538.726-193.435l.62 14.271-152.444 127.039-6.393-9.791zm-566.996 26.717c21.949-15.618 46.362-43.659 70.461-58.273 17.603 40.462-23.69 80.129-70.461 58.273zm402.82-10.237c-22.076-75.791 82.198-70.746 69.106-54.651zm-495.547-49.512l150.911-123.028 6.856 10.343L141.97 641.962zm413.396-124.104c.425 1.286 4.99 6.189 4.998 6.634-1.304-.973-9.054-5.315-12.84-1.094-1.322 1.545-3.002 5.241-2.822 9.068 1.585 6.853 9.386 9.271 14.927 4.579 1.596-1.352 2.965-2.989 3.29-2.413.281.502-.59 2.857-1.3 4.721-.819 1.917-3.859 5.942-1.653 5.938l10.716-.02s-.395-2.511-1.678-5.288c-2.395-5.19-2.295-8.009.596-4.269 5.63 7.281 16.542 1.21 15.402-7.52-.823-6.302-7.204-9.907-11.898-6.903-.514.329-2.019 1.821-2.233 1.831-.575.027.997-2.378 2.037-4.373 3.459-6.629-1.703-12.765-9.601-12.105-2.551.213-5.345 1.821-5.359 2.049-2.967 2.393-3.455 6.526-2.582 9.165zm130.291-61.718c15.099 13.888 30.197 24.068 45.296 32.96l-14.247 22.494c-96.564-8.939-166.786 29.238-196.087 132.738l-15.918 3.062c5.988-64.564 27.623-128.587 91.587-191.152zm-92.542 15.449c.025 3.06 5.646 6.701 4.396 7.543-.575.307-3.922-2.607-5.46-2.77-11.149-1.185-13.46 16.15-2.412 18.095 2.173.383 6.659-.967 7.991-2.06 1.768-1.453 2.994-2.647 3.358-2.516.677.246-.865 3.338-2.078 5.628-1.126 2.127-2.698 6.294-2.698 6.294 4.419.798 8.686.982 12.675.057 0 0-1.149-3.621-2.289-6.38-1.458-3.528-1.766-5.765-.787-5.528.423.102.899 1.204 1.787 1.967 5.491 4.713 13.546 2.699 15.663-4.663 1.991-6.922-6.295-14.049-12.064-10.175-2.016 1.352-2.019.336-.008-2.7 1.837-2.772 1.387-6.972-.279-9.468-6.059-6.429-18.071-1.832-17.795 6.676zm91.009 20.528c-.303-1.543.089-1.103 1.712.587 5.082 5.291 13.835 4.47 16.062-2.542 2.224-6.998-4.569-15.005-10.489-12.255-3.08 1.43-3.134.924-1.373-1.367 4.541-5.906-.465-13.691-8.254-13.604-7.117.079-11.314 6.932-7.849 12.815 1.419 2.41.957 2.924-1.538 1.714-7.281-3.531-14.073 7.991-8.738 14.826 3.134 4.016 10.391 4.439 14.543.451 2.208-2.122 2.19-1.107.586 3.285-1.398 3.825-2.947 6.919-2.947 6.919l12.598.111s-3.364-6.394-4.313-10.94zM415.759 629.198s-18.701-52.054-25.107-77.009c13.86-33.196 32.828-65.363.94-113.159l77.498-.216c-23.942 54.286-24.452 191.29-30.077 191.622zm6.798-60.926s-3.826-5.263-4.06-9.527c-.461-2.735.244-2.902 1.667-.114 6.904 7.63 16.247.264 16.29-6.494.793-6.183-6.439-11.481-11.083-8.395-3.255 2.162-4.139 1.543-1.237-2.484 4.088-5.672-.366-13.053-7.677-12.971-9.512.106-13.153 8.993-6.336 15.335 5.036 4.684.341 1.916-3.658.241-7.787-3.263-12.894 4.667-9.4 12.671 2.411 5.525 9.49 6.965 13.642 2.492 2.274-2.45 4.376-3.885 3.143-.182-.646 2.996-4.125 9.345-4.125 9.345zm11.998-83.434s-4.589-5.752-5.381-10.08c-.269-1.593.86-1.189 3.466 1.048 8.339 7.158 19.793-5.676 12.023-13.515-2.67-2.695-5.385-3.476-8.504-1.846-3.892 2.032-3.58 1.046-1.638-1.057 2.848-3.082 2.637-8.707-.429-11.439-8.478-7.554-21.893 3.702-14.014 11.777 3.429 3.515 1.803 3.058-1.971.8-7.141-4.272-15.044 7.432-9.681 14.304 6.357 5.373 11.121 2.729 15.517-.647.954-.504 1.78-.732 1.785-.317.008.776-4.391 11.133-4.391 11.133zm-101.646-32.431c-4.727-.315-8.107-44.497-2.327-58.487 12.323-59.013 49.933-101.995 73.341-138.141 37.552-53.831 32.884-143.241 34.479-139.676l5.328.619s-4.122 52.415-1.792 76.097c2.424 20.822 1.892 22.117.402 24.181-.394 1.941.189 7.616-.234 9.566-16.713 77.098-56.599 156.372-97.786 216.221zm386.13-134.685l-126.822-199.97 30.476-2.742c11.311 17.919 121.481 188.783 121.481 188.783z" fill="#d40000"/><path d="M196.845 1191.29c14.421-52.87-24.65-175.83-49.067-191.894 28.635-1.208 63.078-.692 61.991-3.371 0 0 121.771 191.525 120.779 192.535-.938.96-133.703 2.73-133.703 2.73zm493.544-299.948c-29.511-4.193-17.873-28.689 1.101-31.232-2.471.411 2.033-12.18 17.336-17.271 3.475-6.302 6.201-17.065 9.382-22.062-9.173 2.981-20.32 10.731-61.993 4.621 3.629-19.747 43.492-23.114 57.867-20.061 8.3 1.928 16.494 14.296 19.018 14.557 25.587-4.263 58.138 18.884 48.291 42.382-1.527 3.35-5.418-3.979-14.032-7.102-27.84-10.095-29.789-25.16-36.191-31.907-2.327-.437-14.638 23.926-14.638 23.926l3.845 16.547c6.677-.611 36.351 17.725-.591 30.146-10.214 35.206-29.454 10.36-29.395-2.544zm69.929-157.207c-1.577-1.603 1.243-12.564 4.99-18.869 2.024-3.404 6.699-5.69 9.441-5.209 4.886.857 4.123 7.959-2.35 28.753-.27 3-6.875 3.315-12.081-4.675zM172.637 588.531c-8.098-.028-.835-22.05 4.145-29.042 1.636-2.169 8.099 2.456 8.432 5.646.597 5.714-8.182 25.665-12.577 23.396zm-5.746-149.736c9.884 2.385 25.485 12.334 32.94 17.794 9.271 6.918 6.741 20.501 14.158 21.707 5.009-2.477 14.196-24.721 14.196-24.721s2.306-11.427-4.228-14.946c-16.257-8.756-15.968-18.217-14.934-19.058 4.822-12.497 14.419-10.273 19.606-10.969.111-6.842-.116-21.285 14.045-19.795 12.385 1.17 13.606 18.865 8.397 19.028-.1-.299 23.421-3.375 23.191 12.141-.125 8.412-14.076 19.174-18.42 15.265 0 0 2.329 16.768-18.748 22.515-4.923 5.011-8.943 26.326-8.943 24.434 12.708-11.47 32.611-14.16 64.012-10.042-19.455 36.065-73.241 19.187-77.447 12.209-27.063-8.164-52.447-18.796-47.825-45.562zm231.692-86.437c28.625 2.599 59.94-6.385 83.747-1.627 2.712.37 5.658 4.381 7.29 5.272 12.307 6.713 25.184 4.626 44.99-2.868 4.89-1.851 95.653-1.144 95.653-1.144 20.673 30.538 57.432 87.988 58.23 86.041 0 0-50.312-.57-73.492.803-16.299.965-6.716 3.186-18.034 3.676-79.313 59.565-94.412 188.287-94.412 188.287s25.206-6.632 31.793.325c31.18-91.208 90.377-132.856 172.924-124.699 38.146 3.769 83.664 41.281 83.664 41.281l-81.635 66.43c-63.239-31.902-90.334 62.124-71.147 62.361l164.388-134.375s2.813 10.97 2.531 11.339c-11.716 15.362-207.698 174.441-207.698 174.441l-8.605-9.505s-5.406 4.799-8.25 7.993c-.281 5.212 1.554 9.628 5.507 13.707-38.824 31.156-40.108 88.318-11.488 119.522 0 0-12.692.899-14.026 1.128-16.128 2.762-32.809-76.766-.838-113.773-16.13-31.63-26.068-74.662-28.088-76.658.431 5.07-25.461 3.385-25.461 3.385-1.976 64.276-8.683 127.305-24.128 188.035l118.939 2.56-50.631 87.868s-56.816-1.421-81.293-3.132c-25.556-14.871-40.29-3.565-64.275 1.94-34.133 1.002-84.374-.585-84.374-.121-17.041-33.842-35.354-58.727-60.243-87.736-3.162-5.269 101.031-2.014 101.031-2.014s52.081-78.785 61.569-101.036c7.404-17.366 24.013-80.593 24.013-80.593.767 3.296-9.458-16.441-33.276-15.994-19.695 130.923-175.271 175.024-268.887 90.761l-.872-15.226 206.299-167.333 9.167 10.595c-1.972-1.577-126.649 102.171-124.577 101.515 36.952 19.34 79.709 3.686 74.736-59.802 29.276-21.164 55.2-45.819 80.689-70.985.546-.984 28.438 62.58 27.753 74.812 16.043-5.388 25.542 5.908 25.239 3.978-5.769-36.758 26.422-176.131 27.036-192.155-17.88-1.44-41.588-.781-78.768-2.256 29.864 57.804 19.489 96.962-22.255 132.572l-8.731-10.969c3.545 1.973 60.977-47.727 14.734-121.98-2.117.178-24.373-2.012-24.373-2.012s45.629-72.391 47.935-82.634zm221.663-238.9s130.202-3.128 130.244.688c-4.156 69.951 12.148 133.759 51.497 192.774 0 0-57.668-2.045-56.615-1.32z" fill="#e2cf00"/><path d="M809.642 108.916l-676.882-.831 4.205 1086.405h676.049zm-61.91 4.307c-.058-.06-8.724 114.927 51.269 190.24-36.647-5.552-57.634.064-78.974 15.141l2.923 3.007c29.391-18.057 54.288-13.307 79.801-10.494l-.692 147.938c-.18 7.183-29.821 3.976-48.558-10.117-8.897-5.253-20.378-16.282-25.519-24.559-1.564-2.517-3.211-5.005-3.667-5.528-1.724-1.982-12.41-21.895-32.032-59.596-9.974-19.168-23.166-45.318-33.871-65.584-6.936-13.121-19.827-37.909-20.737-39.884-1.891-4.12-15.93-31.503-21.391-41.466-14.43-26.318-37.731-72.24-46.039-88.698-1.839-4.271-4.634-6.24.372-6.101 1.109.027 2.218.096 2.859.248.878.439 1.949-1.513 1.949-1.513zM145.01 735.302l-.43-11.634L341.291 561.43l6.276 8.077zm190.063-284.176c-.795.291-1.654.588-2.602.888-5.058-22.527-2.173-52.625 3.782-75.253 8.679-31.413 24.878-56.607 42.923-81.925 41.23-57.817 59.493-101.4 58.756-179.065l5.897.627c-.25 12.268-1.872 21.495-2.346 37.818-.744 17.491-.449 30.79 1.41 47.868.917 8.393 1.468 13.833.052 14.924-.673.547-1.282 3.451-.667 4.519-.096 2.329-.41 6.981-.41 6.981-9.449 46.241-60.096 164.806-106.795 222.618zm24.596 105.118l-10.423-12.789s-8.019-6.464-.814-13.769c20.827-21.118 20.968-47.961.833-72.101-1.352-3.065 6.257-18.55 6.257-18.55l15.846.261c24.724 30.079 31.468 83.221-11.699 116.948zm14.564-119.365c.494-2.057-23.487-1.263-23.487-1.263 14.898-22.203 27.564-45.042 40.013-67.945 19.314-34.662 46.096-95.39 54.487-139.406 6.25 51.484 15.34 127.896 59.397 130.91 14.449.989 31.173-8.909 33.904-7.273l91.525-.725c18.769 38.058 38.936 62.576 62.814 88.607 17.16 9.784 38.083 17.53 58.314 22.556 11.487 2.855 12.59.954 35.256 4.187 5.981.852 15.09-1.675 15-1.675-18.102 14.284-38.993 10.236-62 4.121a52.065 52.065 0 0 1-3.987-1.216l-17.365 26.133c-38.667-9.163-162.801-2.676-195.525 132.288 0 0 3.359 1.716 2.577.785 25.993-117.144 135.775-140.498 188.115-128.831l-4.5 6.87c-86.846-10.622-157.558 43.695-174.397 120.72l1.679 1.522c32.583-116.453 169.577-159.543 254.512-78.824l15.577-11.03-.5 14.931L596.829 727.27l-8.353-8.635s-1.468 1.116-3.134 2.5c-5.391 4.481-7.513 5.577-6.007 8.084 1.513 2.5 7.372 8.141 7.628 8.775-34.641 28.218-45.628 82.648-12.718 120.763 3.673 4.038 3.007 5.122 2.334.577-29.519-32.128-25.782-88.949 11.025-115.872l7.417 9.718c-16.205 35.583-24.846 91.083 17.769 95.885 15.263 40.91-2.301 89.39-21.904 121.884-20.782 37.431-45.961 68.541-61.679 109.321-7.641 17.01-19.795 67.47-19.154 106.04l-4.583-.05c-.006-15.73 1.045-34.39 1.18-46.33.641-58.15.551-54.7 1.865-56.17.429-.49 1.647-1.01 1.763-1.42.173-.61-.949-1.81-1.391-3.24-.455-1.45-1.225-4.01-1.148-6.16.077-2.16 2.096-5.31 1.712-6-9.167-32.09-9.917-89.773-39.506-116.267-14.513-12.461-33.782-12.961-58.744-2.737-55.077.096-46.91 2.929-91.391.391-18.397-33.692-40.717-66.506-64.858-90.833-11.289-12.583-26.981-19.481-41.731-28.602 5.917-11.225 12.628-19.43 19.961-24.757 1.526-2.173 2.565-4.513 4.533-6.352 149.98 14.41 182.505-130.843 175.659-127.149l-1.327 1.151c-41.006 149.658-186.929 144.203-260.281 79.504 0 0-10.365 9-10.397-.878-.032-8.981 3.243-11.577 3.243-11.577l205.884-167.885c3.763 2.396 7.814 10.374 9.507 9.48 3.788-2.015 9.378-6.063 9.205-8.476-.135-1.854-7.526-13.505-7.526-13.505 55.077-57.022 30.231-82.496 12.551-121.569zm78.045-320.472c.993-.007 1.929.463 2.628 1.563 1.257 1.982-3.743 13.547-6.833 15.585-2.923 1.929-3.135-.313-1.019-11.498.621-3.28 3.044-5.634 5.224-5.65zm302.089.201h47.692l.352 183.144c-35.641-50.089-53.685-107.772-48.044-183.144zm-289.288.44c1.192-.053 2.244.278 2.583 1.143 1.225 3.084-5.769 16.424-14.423 27.484-4.487 5.736-6.75 7.398-8.153 6.029-1.18-2.611-1.141-5.647 2.987-10.417 3.41-3.932 9.211-13.126 11.602-18.274 1.032-3.018 2.058-5.749 5.404-5.965zm48.968.655c1.391.012 2.814-.01 3.218.648 8.32 16.978 24 32.298 40.045 40.484 2.339 1.328 1.237 4.659 2.019 6.998-18.019-2.678-41.667-28.207-47.994-46.841-.032-1.351 1.321-1.301 2.712-1.289zm28.179-.014c3.584 3.641 9.225 8.043 10.494 12.2.782 2.549 1.352 5.475.801 6.851-3.128 1.957-18.692-16.092-18.09-18.202 1.981-1.3 4.462-1.576 6.795-.849zm-67.467-.26c1.525.059 3.865-.027 4.205 1.122 1.942 7.873-16.032 38.545-29.148 47.236-4.66 3.088-4.961 2.277-4.589-2.905.25-3.482.589-3.205 5.371-7.773 6.827-6.522 14.289-16.582 18.391-25.5 5.257-11.436 3.975-12.153 5.77-12.18zm12.198.121c1.712.002 3.302.581 3.744 1.341.596 1.03-.205 2.702-.763 4.768-5.917 16.764-20.647 40.885-37.936 54.587-6.724 5.186-7.865 5.154-8.352-.2-.289-3.112 1.141-4.019 4.301-6.21 14.673-10.172 27.859-27.824 33.436-45.853 1.09-3.511.673-6.665 2.583-7.733.885-.494 1.962-.702 2.987-.7zm91.045 29.046c.699 1.204 5.737 9.073 1.622 6.109-1.686-1.384-4.75-4.872-9.635-10.416-11.545-13.11-11.897-12.297-11.667-15.558.116-4.249-2.923-11.222 3.641-9.413 6.456 7.584 10.513 19.815 16.039 29.278zm-52.564-28.786c1.308-.023 2.859.22 4.147.481 7.603 14.292 26.16 26.84 26.09 26.776 0 0 .468 6.219-.212 7.318-.384 1.917-29.474-20.185-32.711-33.413.308-.853 1.378-1.139 2.686-1.162zm-20.705.26c6.833 12.547 20.923 41.021 54.038 52.524 2.378.519 4.917 7.295 3.096 9.16-18.16-5.264-51.089-23.04-62.275-61.51 1.09-1.023 3.981-.865 5.141-.174zm-8.891 2.437c-1.135.02 15.634 48.416 63.41 62.848 4.128 1.295 6.551 3.083 6.288 5.528-.327 3.082-.23 3.466-4.827 1.162-13.032-6.807-31.608-9.995-47.121-2.111-2.423 1.23-4.878 4.585-2.93 6.7 1.116 1.074 3.853.275 7.346-1.083 18.058-7.028 45.699-2.894 50.577 8.153 3.468 7.842 4.058 13.621 2.167 14.583-1.449.735-3.898-1.901-8.218-5.689-13.737-12.054-30.167-15.408-43.224-3.826-2.827 2.506-5.628 2.073-6.616 3.105-.955 1.001.18 3.252.981 5.449.84 2.298.878 2.926.045 4.867-1.147 2.658-1.186 6.061-1.064 8.594.308 6.173 4.391 11.49 16.147 19.632 9.154 6.342 16.308 9.906 5.167.881-19.231-15.579-22.724-21.924-10.256-16.527 12.448 5.003 29.705-.011 41.929-9.335 4.16-.069 6.634-.796 8.827.802 9.115 21.399 16.57 49.875 28.686 77.481-14.468 16.35-64.859 56.391-100.782 54.963-31.019-1.233-41.974-52.002-48.833-80.06-2.308-11.873-4.943-23.956-4.628-40.726 0 0 .564-.451 1.365-.3 5.199.982 14.147 1.663 18.692.601 8.25-1.929 9.91-3.4 10.391-2.184.571 1.435-2.865 4.663-8.872 8.774-2.615 1.789-10.218 5.453-9.416 5.99 1.82 1.216 11.019-3.68 12.564-4.988 2.404-2.039 4.057-2.167 5.205-1.042 1.352 1.318 1.628-.086-2.821 10.958-4.91 12.17-4.435 13.274 5.129 20.773 3.32 2.608 6.359 5.212 7.089 6.35.917 1.495 1.539 3.259 1.962 3.826 1.615 2.162.622-1.319-.34-6.851-1.115-4.093-5.128-8.159-7.974-10.136-5.218-3.629-4.41-7.19-.09-19.551 12.75-36.456 9.5-52.717-4.538-60.637-6.327-3.571-24.045-2.618-29.635 2.05-2.75 2.299-2.372-2.215-1.936-2.517 33.673-23.142 41.564-45.216 50.154-66.507zm64.987 17.863c9.557 9.484 21.448 22.364 28.609 31.523 3.936 4.883 6.006 9.894 9.134 15.024.596.929 1.186 1.991.763 2.424-.16.184-1.526-.611-2.282-1.182-7.006-5.279-35.916-38.203-35.916-38.203-1.34-5.406-2.263-7.248-.308-9.586zm5.711 22.348s25.058 27.353 39.404 40.805c2.827 5.928 8.231 14.466 8.096 15.906-.064.635-3.064-1.683-3.064-1.683-15.859-14.61-30.513-31.031-45.737-46.595.147.083-1.205-6.441-1.218-9.074.346-1.289 1.865.133 2.519.641zm54.353 70.112c3.365 5.485 5.827 10.398 7.448 13.622 2.68 5.107 1.782 5.252-.583 3.365-17.923-14.67-32.936-32.53-49.814-48.898-2.199-2.257-6.577-7.271-6.577-7.271.16.182-5.5-11.795-1.948-11.555 2.782 1.082 4.602 4.099 6.397 6.019 8.852 9.482 25.724 25.777 45.077 44.718zm-156.372-39.095c7.391-.223 14.673 1.689 18.347 6.223 3.346 4.125 4.692 10.651 2.839 12.547-1.154 1.184-5.263-2.15-5.263-2.15-17.41-9.768-23.403-5.064-32.852-2.197-1.346.409-2.776-3.224-1.051-6.816 3.461-5.972 12.25-7.435 17.98-7.607zm109.551 9.248c18.622 18.67 37.545 39.411 57.692 55.468 2.827 2.407 4.763 3.953 6.052 5.249 2.66 5.273 8.782 17.825 8.782 17.825-21.596-15.098-70.244-67.153-69.705-66.805.487.244-4.077-9.524-2.821-11.737zm-36.448 3.091c3.397-.032 7.128 1.036 10.07 2.202 9.378 3.722 15.289 7.688 5.571 6.365-13.526-1.84-18.148-1.937-23.103-1.142-9.192 1.478-9.91 2.502-10.718 1.042-2.109-3.835 7.975-8.37 18.18-8.467zm-76.769 1.095c3.391-.021 7.07.728 10.679 2.304 11.468 5.016 13.487 8.282 3.725 6.711-5.071-.815-14.366-.732-21.013.981-2.109.544-4.442 1.769-4.994 1.943-2.359.754-3.006-1.008-2-3.966 1.744-5.11 7.128-7.932 13.603-7.973zm83.044 14.636l2.366.173c-2.955 16.753-19.686 15.119-24.192.73l2.365-.053c8.814 13.76 15.404 5.667 19.461-.85zm9.321.869c7.731-.086 7.237 4.557-.821 7.672-6.173 2.389-6.865 1.957-4.609-2.664 2.173-4.443 1.956-4.969 5.43-5.008zm-79.667.603c.757 15.095-20.275 17.861-21.57 1.4l2-.097c6.897 12.944 14.853 5.129 17.34-1.302zm9.353 2.061c2.385 1.626.904 3.859-4.263 7.011-4.666 2.902-5.865-.606-2.019-5.471 1.615-1.569 4.263-2.866 6.282-1.54zm36.481-.019c.923-.291 3.102 3.791 1.243 4.767-1.109.58-2.743-1.09-2.923-2.324-.147-.976.468-2.061 1.68-2.443zm62.98.941c14.039 15.462 28.167 30.988 69.494 64.643 0 0 5.839 10.384 7.109 14.443-1 1.238-1.533 1.096-4.424-.34-26.955-20.807-52.012-46.112-71.64-69.632-.93-3.32-3.007-6.523-.539-9.114zm-133.813 1.543c1.596-.054 3.846 3.507 2.602 5.648-1.026.805-2.615-.443-3.301-1.422-.686-.972-.667-2.757-.244-3.546.25-.461.577-.668.943-.68zm139.685 21.414c-.109-.54 65.269 65.729 73.654 64.462 3.91 2.298 13.621 21.134 13.621 21.134.282.597.237 1.702-1.339.922-11.052-5.469-57.263-43.811-80.891-72.356-1.725-4.157-3.821-9.439-5.045-14.162zm-77.718 9.731c11.398 5.508 6.494 16.804-5.538 9.619-9.481-5.763-17-6.286-16.949-1.302.026 2.108 2.609 4.816 5.109 4.788 4.692.301 8.936 2.017 13.545 3.025 7.186 1.542 12.558-.365 14.359-4.726 3.051-7.402-4.205-15.48-8.987-15.05-4.789.429-3.584 2.721-1.539 3.646zm90.276 18.113c-.802-.699 32.512 35.798 77.922 65.945 1.763 2.035 6.154 12.563 6.853 13.983-.18.991-1.18.02-1.18.02-22.935-13.259-53.211-39.552-81.89-69.391 0 0-2.763-6.615-3.609-10.918.622-.287 1.301.089 1.904.361zm-75.66 13.141c-1.039.143-2.417 1.703-4.129 2.644-3.493 1.923-4.596 2.435-13.179-.14-4.654-1.397-5.41-1.299-8.192.761-2.43 1.799-3.782 2.097-6.494.881-4.878-2.187-7.141-.596-11.654.982-4.307 1.556-5.782-.34-9.66-1.222-.506.006-.731 15.626-.218 16.126.18.173 4.026-2.355 6.212-3.466 3.75-1.91 3.211-1.607 8.692-1.382 8.09 1.396 16.096.925 21.513-1.202 6.743-1.906 12.012-1.552 16.666 2.264 2.827 2.316 6.584 1.938 4.391-2.324-.756-1.472-2.474-6.897-2.269-8.914.314-3.017-.359-4.947-1.481-5.008-.064-.004-.128-.01-.198 0zm86.378 12.179c15.333 14.702 34.237 37.14 78.704 63.141 2.321 4.06 5.449 9.453 7.43 13.662.186 1.166-.103 2.205-1.237 1.802-27.481-17.419-42.757-25.88-80.853-63.42-2.365-3.807-4.891-10.285-6.846-15.565.411-1.49 2.173.002 2.802.38zm-6.468 5.609l17.006 31.931-57.275-.12c14.557-8.674 28.448-20.236 40.269-31.811zm-94.936.721c-9.404 3.738-10.82 4.516-20.154 2.244-5.429-1.324-3.942 1.826-1.16 3.129 7.038 3.296 17.231.97 21.013-1.636 2.493-1.607 4.198-5.284.301-3.737zm-9.654 9.856c-9.846.138-19.141 3.571-19.833 7.572-.135.773.673 1.643 2.205.722 6.673-4.018 23.244-5.329 35.776-.802 2.032.733 2.384-.529.282-2.263-4.693-3.873-11.693-5.323-18.43-5.229zm125 13.642c18.538 17.109 36.429 32.848 76.326 55.751 2.872 6.266 7.026 13.764 7.763 14.415-37.397-18.149-78.147-53.966-78.147-53.966s-6.417-11.425-7.885-16.32c-.134-1.652 1.417-.293 1.943.12zm12.769 26.654s34.134 28.87 73.051 48.466c1.577 1.514 5.494 10.802 6.769 11.799 1.289 1.005-1.545 1.002-4.346-.441-20.365-9.381-64.045-39.403-64.045-39.403-4.192-6.865-10.185-14.009-11.429-20.421zM229.715 477.5c3.121-6.676 6.307-14.105 8.371-20.165 9.295.097 13.859-3.386 17.161-7.581 4.705-.128 8.307-.11 14.724-.295-.212-6.341.077-15.316.077-15.316 6.506-6.694 10.91-14.424.833-26.255 0 0-.404-5.514-.551-14.919-4.648-.74-15.058-.261-15.058-.261-8.423-11.849-23.359-8.862-27.884-.005 0 0-6.712.369-11.314.386-.097 2.507-.891 13.614-.891 13.614s-19.629 13.386.737 29.162l-.276 13.254c3.808.307 6.539.049 11.513 1.004 0 0-7.789 18.088-12.91 26.673-1.757.46-1.334-.546-3.455-6.544-2.545-7.072-8.308-14.804-13.199-18.609-6.628-5.112-15.692-6.698-22.013-11.138-6.096-4.28-10.404-9.802-12.34-8.774-.634 2.15-1.333 14.499.962 22.436 3.231 13.055 22.013 21.377 37.699 27.624 1.205.779 2.275 1.959 2.282 2.384.025 2.16-2.064 1.495-7.212.981-7.776-.775-10.993 1.351-13.718 7.993-.82 1.638-2.756 4.46-4.327 6.33-1.577 1.871-3.218 3.693-3.448 4.487-.225.795-1.847 4.826-3.443 8.193-.987 2.074-2.628 4.247-2.743 7.312-.372 9.356-.507 21.926.897 29.848 1.032 5.82 8.385 9.163 10.917 9.635 3.891.726 4.596 4.667 3.987 7.893-2.994 15.904-12.154 25.638-15.083 20.413-.77-1.375-1.59-7.874-1.802-7.793-.141.053-1.538 5.527-1.006 7.752.577 2.396 3.635 4.159 6.654 3.065 4.474-1.622 8-6.056 10.775-16.145 1.141-4.128 2.218-6.432 4.148-6.731 3.538.243 9.057 7.532 9.057 7.532-18.371 15.306-53.73 43.096-53.73 43.096l-1.321-501.428 291.057.565c1.622 39.75-3.205 73.194-17.481 108.609-16.916 38.147-43.166 66.498-63.256 101.607-24.25 42.39-32.019 86.359-23.756 130.586-24.782 32.436-45.654 48.005-65.474 63.075 0 0-14.859-15.62-23.116-24.362 0 0 3.481-.289 7.558-.454 18.827-2.111 39.205-4.78 47.07-24.379 1.122-2.178.654-3.144-.679-3.446-14.744 2.045-27.551-.03-35.91.561-20.442 1.445-29.083 8.53-29.083 8.53zm2.243 14.429s-23.654-11.242-25.41-11.561c-10.314-1.869-35.179-14.828-39.385-23.637-.544-1.149-1.923-17.221-2.358-20.513.147-1.048.57-1.012 1.602-.26 2.654 1.831 12.962 8.548 16.763 10.396 15.711 7.634 21.795 13.071 25.641 24.559.968 2.878 1.974 5.874 2.545 6.491 1.256 1.359 1.788 1.245 3.365.04 6.731-8.712 9.885-15.969 13-25.32.404-1.043 1.282-2.109.763-3.618-1.231-4.129-4.244-9.476-1.16-13.517-9.847.451-19.263-6.743-18.064-13.949 2.621-13.353 8.288-10.946 18.903-12.891-1.224-30.88 27.68-23.38 27.603-1.872 31.756 2.673 16.75 32.036-1.693 27.545 7.315 16.684-14.666 22.943-17.749 20.105-1.244 5.391-9.609 22.752-11.391 27.914 23.525-16.676 61.384-9.273 66.865-10.344-13.667 28.587-58.359 21.628-59.84 20.432zm423.646-105.25c5.974 4.6 56.635 36.283 65.987 36.999 0 0 4.474 5.025 8.173 9.596 3.442 4.259 4.712 4.928 5.109 5.789.391.855-1.301.813-1.583.781-22.795-9.907-45.981-20.331-65.686-36.798-2.66-2.258-3.256-3.287-4.57-5.009-1.731-2.298-6.885-10.502-7.43-11.358zm16.789 25.558c23.173 13.021 42.865 25.645 63.98 32.435 3.013 1.129 4.551 1.205 6.051 2.263 1.5 1.059 7.936 5.039 9.455 5.93 9.635 5.65 10.622 5.383 8.231 6.33-2.647 1.049-19.557-3.891-33.852-9.175-25.353-9.373-34.321-14.689-43.487-22.957-2.071-2.138-11.699-13.657-10.378-14.826zm-461.941 72.619c1.955-.044 5.077 1.171 8.333 3.666 3.487 2.669 12.039 8.26 15.571 9.775 1.801.775 2.365.974 2.365.974l22.788 25.866-58.666 47.691s-4.763-4.873-6.282-6.502c-1.43-1.539-1.019-2.822.769-4.568 1.436-1.4 1.545-4.439 1.301-5.929-.359-2.211-.301-4.706 2.507-6.77 2.256-1.665 2.609-4.582 2.5-5.389-.084-.646 1.224-2.777 3.186-4.207 4.121-3.003 5.359-6.655 3.968-10.958-.584-1.801-.898-2.272 1.461-3.846 4.192-2.793 5.231-5.433 5.551-9.514.052-.648-.128-1.333-.224-1.843-.827-4.34 3.006-3.242 6.154 2.203 1.711 2.968 2.205 7.839 3.064 13.381 1.013 6.534 1.705 8.315 2.064 7.392 2.032-5.273-.365-25.077-6.391-27.764-8.808-3.929-16.167-11.94-13.961-15.084.762-1.091.897-.717 6.269 1.763 3.141 1.451 6.051 2.63 6.487 2.644 6.218.197 2.449-2.464.423-2.745-2.43-.337-9.705-4.759-10.558-6.31-1.416-2.58-.634-3.882 1.321-3.926zm-15 3.405c5.731-.064 6.833 1.473 6.891 6.411.032 2.912 1.122 5.155 5.686 10.957 1.865 2.366 3.109 4.18 2.987 5.108-.199 1.531-.757-.056-7.071-.801-2.243-.265-3.384-.302-4.166.861-2.18 3.226-6.782-.134-9.616-4.888-6.756-11.332-4.378-17.54 5.289-17.648zm109.224 6.832l62.371 76.332-7.038 5.462-62.602-75.295zm-10.43 4.687l6.68 11.279s-19.321 16.512-24.404 21.173c-41.064 33.25-133.749 108.729-133.749 108.729l-1.25-15.18zm-112.576 2.043c1.218.031 2.609 1.572 4.583 4.588 1.712 2.612 5.385 7.853 9.295 11.458 7.603 7.001 8.34 6.366 2.167 7.031-2.455.264-3.25-.029-4.75 3.706-4.526 5.646-17.898-14.578-14.763-22.316 1.224-3.021 2.25-4.497 3.468-4.467zm21.75 10.918c1.128-.055 2.615.37 4.352 1.421 3.308 1.358 3.526 2.149 2.981 5.309-.519 3.024-2.82 3.807-7.352-.18-3.436-3.24-2.859-6.412.019-6.55zm99.551 1.868l7.333 9.46L143.965 658.58l.038-15.481c4.052.523 110.718-92.161 158.968-128.49zm-128.993 1.537c.442-.093 1.134 1.431 2.98 4.207 3.757 5.65 7.205 9.375 11.141 12.34 3.718 2.802 4.135 4.367 1.584 4.386-1.09.008-2.584 1.156-3.366 2.505-1.577 2.707-1.711 2.065-4.147.641-3.481-2.036-6.962-5.107-8.353-9.135-1.314-3.796-1.455-9.57-.384-13.782.192-.736.339-1.12.545-1.162zm26.262 10.737c4.237-.147 7.289 4.785 4.487 8.774-1.564 1.52-2.967 2.25-6.07.421-4.096-2.414-4.84-6.131-1.481-8.214 1.045-.649 2.084-.947 3.064-.981zm-27.288 10.677c.897-.041 2.5 1.244 5.192 4.006 2.064 2.12 5.654 3.926 7.09 4.728 3.224 1.797 3.372 2.422 1.622 3.866-.744.616-3.199.656-3.866 2.604-1.903 5.576-9.987-.902-10.756-8.874-.391-4.047-.429-6.278.718-6.33zm20.314.661c5.308.222 7.814 6.412 3.59 9.455-2.308 1.659-8.116-1.269-8.699-4.307-.372-1.955 3.096-5.232 5.109-5.148zm124.038 4.601c3.077 0 5.564 2.492 5.564 5.569s-2.487 5.569-5.564 5.569c-3.083 0-5.57-2.492-5.57-5.569s2.487-5.569 5.57-5.569zm-16.647 2.304c3.077 0 5.564 2.491 5.564 5.568s-2.487 5.57-5.564 5.57a5.57 5.57 0 1 1 0-11.138zm-111.558 7.438c.34-.019.699-.018 1.064 0 5.109.249 5.379 5.114 2.34 7.732-1.814 1.564-3.455 2.059-5.808.18-4.198-3.357-2.641-7.627 2.404-7.912zm123.955 8.146a5.57 5.57 0 1 1 0 11.138c-3.077 0-5.59-2.491-5.59-5.568s2.513-5.57 5.59-5.57zm488.928.327l.256 14.084-196.672 163.598-6.654-8.686zm-500.229 1.202l-14.539 32.652-4.371-8.417-10.872-.005 3.333-9.739-6.397-7.79zm309.499 135.807l25.884-20.751c-11.141-56.211 33.327-78.577 75.564-62.248l26.276-22.397c-48.763-41.055-163.416-13.206-127.724 105.396zM261.131 588.178a5.568 5.568 0 1 1 0 11.137 5.568 5.568 0 0 1-5.57-5.569 5.567 5.567 0 0 1 5.57-5.568zm-16.904 1.362c3.077 0 5.391 2.315 5.391 5.391 0 3.077-2.314 5.766-5.391 5.766s-5.57-2.511-5.57-5.589a5.567 5.567 0 0 1 5.57-5.568zm89.981 11.307l-25.66 20.541c6.634 53.822-19.552 81.228-75.833 62.78l-27.225 21.589c73.545 50.59 169.788-14.615 128.718-104.91zm-78.968 4.859a5.568 5.568 0 1 1 0 11.138c-3.077 0-5.564-2.493-5.564-5.57s2.487-5.568 5.564-5.568zm539.748 1.411c3.077 0 5.59 2.492 5.59 5.569s-2.513 5.569-5.59 5.569-5.57-2.492-5.57-5.569 2.493-5.569 5.57-5.569zm-551.267 1.331l-16.404 32.451-4.09-9.772-11.012.152 3.557-11.327-6.884-5.82zm529.235 3.417l5.096 8.584 10.77.262-4.052 8.171 7.782 8.015-35.089 8.621zM204.58 635.43c3.077 0 5.583 2.492 5.59 5.569 0 3.076-2.513 5.569-5.59 5.569a5.569 5.569 0 1 1 0-11.138zm-16.026.621c3.077 0 5.584 2.492 5.59 5.569 0 3.077-2.513 5.568-5.59 5.568a5.568 5.568 0 1 1 0-11.137zm557.274 3.31a5.563 5.563 0 0 1 5.564 5.57 5.562 5.562 0 0 1-5.564 5.568 5.563 5.563 0 0 1-5.57-5.568 5.565 5.565 0 0 1 5.57-5.57zm56.333.863l.244 12.366c-51.314 45.296-159.23 132.712-159.23 132.712l-6.712-8.628s109.782-89.711 165.698-136.45zm-602.453 12.062a5.57 5.57 0 0 1 5.571 5.57c0 3.076-2.494 5.588-5.571 5.588s-5.564-2.512-5.564-5.588a5.56 5.56 0 0 1 5.564-5.57zm557.518 1.338c3.076 0 5.564 2.492 5.564 5.569s-2.488 5.589-5.564 5.589c-3.077 0-5.571-2.512-5.571-5.589s2.494-5.569 5.571-5.569zm-15.77 1.002c3.077 0 5.571 2.492 5.571 5.569s-2.494 5.589-5.571 5.589-5.589-2.512-5.589-5.589 2.512-5.569 5.589-5.569zm62.257 1.973l-.468 15.742c-49.731 42.391-151.442 126.602-151.09 126.647l-7.679-10.603s111.493-96.044 159.237-131.786zm-614.223-2.314l-15.339 34.607-6.622-9.317-9.686-.658 2.308-9.362-8.891-6.046zm531.947 13.671l9.795-1.861-1.705 10.025 6.885 7.227-36.084 7.93 17.443-32.348zm53.91 168.609c7.314 10.942 6.853 22.897 3.789 24.73-3.225-1.82-6.032-4.974-9.372-6.416-16.808-7.25-30.231-13.205-32.635-23.866-9.153-24.128 32.122-3.551 38.218 5.552zm-88.346-64.084l56.552-46.044s8.673 4.468 10.314 6.5c.583 2.23-.981 2.916-3.289 5-1.058 1.352-1.718 2.66-1.782 5.596-.064 3.16.981 4.577-.295 5.968-2.134-.109-3.833 2.673-3.743 4.923.07 1.724-2.18 3.628-3.5 4.923-2.34 2.301-3.026 2.782-4.526 10.57-.154.782-.103 2.808-1.199 3.859-3.269.295-5.641 8.302-7.134 8.808-2.385-.154-6.18-3.071-7.103-7.378-.602-2.801-.436-8.244.225-11.75.788-4.167 1.141-7.949.878-8.955-.609-2.321-2.141-.891-2.122 2.365.006 1.327-.5 5.295-1.34 9.039-.846 3.75-3.128 8.73-2.102 11.685 1.532 4.404 7.179 6.27 9.724 8.603 6.699 6.141 8.154 9.135 8.917 10.5 5.352 9.788 5.371 11.455 4.025 18.82-.769 4.238-4.904 3.513-7.384 1.795 0 0-15.904-11.577-22.827-17.32-10.481-8.712-17.846-17.609-22.289-27.507zm21.456 31.648c6.07 2.455 21.858 13.91 21.858 13.91l-14.384 29.929c2.622 4.686 3.673 16.321 3.673 16.321 18.199-1.391 28.051 29.275-.282 26.442 3.231 18.955-27.301 33.814-26.468-.16-31.808 2.474-21.128-33.558-1.526-26.801-.589-15.263 9.59-17.244 16.77-20.994 5.891-6.66 9.5-21.731 9.5-21.731l-1.436-4.602c-6.032 10.538-31.712 13.564-59.936 7.974 7.641-18.102 30.82-17.589 52.231-20.288zm-56.122 22.775c-.955 3.609-.981 3.564 3.365 3.129 2.205-.225 11.052-.206 17.225.038 11.352.885 29.23.962 38.192-5.865 1.737-1.654 2.692-1.545 3.013-.641.769 4.416-7.936 18.923-7.936 18.923l-14.372 7.948s-5.885.276-13.173.096l-.128 12.93c-5.705 3.372-15.507 17.84.243 28.936l-.519 14.077 13.878.25c9.212 8.82 16.712 8.782 25.173.474l16 .013-.058-15.205c7.885-6.34 9.007-17.103.943-25.699l-.199-15.436-12.314.077s-2.545-1.968-2.615-3.538c-.013-1.013 8.987-18.353 10.711-20.827 2.237-3.225 1.628-1.378 5.212 6.051 5.128 10.635 10.192 14.968 23.185 21.25 11.59 5.603 15.731 8.218 19.09 11.429 2.673 2.552 4.257 1.75 5.289-2.064 2.237-8.48 1.544-16.968-3.122-24.73-9.859-16.385-27.032-17.141-29.763-20.936-.352-.904 3.141-1.942 6.898-3.628 6.499-3.949 16.012-15.891 17.237-20.686-.225-2.308 1.301-9.59 2.429-11.199 1.295-2.859 1.436-4.199 1.378-11.878-1.16-4.385-.102-10.096.443-12.058.589-3.987-1.526-8.686-4.539-14.455-1.128-5.352-.865-3.961 2.603-16.019.564-1.955 4.455-18.756-.526-19.91.058.147.519.667.66.942.84 1.686 1.302 8.942.539 11-.295.814-.866 2.917-1.263 4.686-3.019 13.5-4.801 16.891-7.532 13.936-.654-.705-3.147-1.705-5.064-2.981-3.628-2.404-3.314-3.583-2.423-8.09.218-.685 1.654-6.878 1.5-6.692-.782 2.128-1.308 7.622-3.789 8.917-1.327.307-3.153-.872-6.609-3.846-1.32-1.141-4.141-3.122-4.141-3.122s40.872-34.397 56.071-45.806l-.135 509.515-288.909.13c-3.616-31.56 5.878-73.32 21.589-115.14 9.718-25.85 23.667-45.02 39.398-68.16 30.166-44.123 52.98-88.918 44.186-145.713-1.154-8.423-2.308-12.461-1.917-14.73 3.667-6.879 18.211-27.731 28.84-36.417 15.596-12.743 37.301-31.775 39.044-30.647 5.18 9.993 11.314 18.083 19.436 24.186 1.43 1.544 1.462 2.91-1.833 3.602-21.532-.192-43.699 4.539-50.891 23.583zM150.651 682.151a5.569 5.569 0 0 1 0 11.138c-3.077 0-5.564-2.493-5.564-5.57s2.487-5.568 5.564-5.568zm540.1 1.26a5.57 5.57 0 1 1 0 11.141 5.57 5.57 0 0 1 0-11.141zm12.135 15.276c3.077 0 5.564 2.493 5.564 5.57s-2.487 5.571-5.564 5.571-5.57-2.494-5.57-5.571 2.493-5.57 5.57-5.57zm-18.026 2.372a5.57 5.57 0 1 1 0 11.141 5.57 5.57 0 0 1 0-11.141zm-19.897 12.692l10.071-.494c-1.263 3.616-1.943 7.353-2.661 11.096l8.205 6.026-35.487 6.038 15.295-31.442zm-24.211 91.698l-59.75-77.153 7.205-5.834 60.237 76.321zm-7.295-74.961a5.57 5.57 0 0 1 5.57 5.571c0 3.076-2.493 5.564-5.57 5.564s-5.571-2.488-5.571-5.564a5.57 5.57 0 0 1 5.571-5.571zm125.506 8.641c4.846 3.769 0 9.051-4.628 6.968-4.02-1.699-3.718-5.769-.552-7.404 1.975-.936 3.481-.705 5.18.436zm6.448 3.596c4.968.077 10.456 11.859 9.449 15.321-1.481 4.025-2.84 4.166-9.852-1.763-6.93-5.859-7.026-6.103-4.225-9.276 1.552-1.801 2.302-4.173 4.628-4.282zm-118.191 2.148a5.565 5.565 0 0 1 5.564 5.57c0 3.071-2.488 5.583-5.564 5.583-3.077 0-5.571-2.512-5.571-5.583a5.57 5.57 0 0 1 5.571-5.57zm-17.27 2.141a5.57 5.57 0 1 1 0 11.141c-3.077 0-5.57-2.494-5.57-5.571s2.493-5.57 5.57-5.57zm122.32 3.974c5.5.814 6.936 4.961 4.411 8.051-3.436 4.18-11.141.385-9.314-4.59.827-2.256 2.833-3.423 4.903-3.461zm9.866 6.269c2.147-.186 5.391 2.789 8.936 7.724 3.987 5.545 4.314 7.334 3.179 10.718-1.641 4.93-2.673 5.834-6.25 1.026-1.352-1.808-4.487-6.058-6.724-8.397-4.769-5-5.513-3.731-2.667-7.545 1.321-1.769 2.231-3.417 3.526-3.526zm-12.923 5.827c4.936 2.551 5.41 5.865 2.493 8.218-3.436 1.878-9.493-.353-10.666-3.75-1.718-4.968 3.551-7.494 8.173-4.468zm8.365 7.34c2.795-.173 5.096 2.711 8.507 8.224 5.82 9.391 6.134 12.551 1.179 18.744-3.57 4.455-3.929 4.692-7.423-2.404-2.853-5.801-8.276-12.596-13.301-16.667-2.096-1.705-2.834-4.09-1.321-4.25.443-.045 2.301-.134 4.128-.199 2.686-.096 3.654-.461 5.129-1.903.974-.955 2.012-1.475 3.102-1.545zm-20.045 7.333c2.596-.128 5.955 1.282 8.449 4.186 2.833 2.974 2.5 5.699-3.064 6.25-2.5.981-9.321-3.494-9.353-6.494-.025-2.519 1.673-3.833 3.968-3.942zm13.103 10.885c.141-.007.269-.007.404 0 2.333.115 3.538 2.365 6.166 7.634 4.026 8.09 2.866 12.487-4.102 16.064-4.725 2.43-8.327 3.161-8.936.385-.18-.808-.18-3.141-.571-5.404-.519-3.013-1.211-6.154-3.878-10.173-4.256-6.41-5.013-8.692-.34-6.801 2.475 1 5.161.884 7.994-.603 1.25-.654 2.308-1.045 3.263-1.102zm-23.615 13.006c-1.622-.032-2.661.962-2.225 3.603 1.468.724 3.795.051 5.545.685 2.365.853 3.827 4.693 6.353 4.065.269-3.238-6.109-8.276-9.673-8.353zm-482.14 56.372c-13.019-6.199-45.269-20.552-60.807-20.763-28.808-8.083-30.744-4.41-40.846-7 53.474-13.865 90.281 12.795 103.756 25.75 6.115 6.096 2.788 4.346-2.103 2.013zm34.051 126.057c30.596 53.073 59.116 112.953 106.962 201.593l-4.597 1.44-182.461.32c9.039-97.93-43.884-191.238-47.467-187.584 41.333.764 75.64-7.211 82.884-22.436l-5.891-1.692c-24.051 20.763-58.897 21.711-82.942 15.295.551-51.026-2.321-104.923-.737-155.936 28.423-2.115 50.641 8.308 66.391 29.071 26.48 34.91 44.435 79.294 67.858 119.929zm-83.679-141.391c7.321-.557 47.256 15.872 65.122 28.148 4.961 5.128 12.211 14.051 12.218 14.923.032 2.372-3.494-.558-20.75-10.398-13.058-7.346-26.609-13.205-39.801-18.839-.603-.257-1.815-.77-1.815-.77s-.974-1.128-2.647-2.423c-4.699-3.634-13.827-10.083-12.327-10.641zm19.417 18.609c-.398-.077 39.609 14.417 71.442 39.763 4.231 3.372 9.429 15.949 9.429 15.949-2.846-5.347-53.121-35.43-70.775-42.321-.019-.019-10.096-13.391-10.096-13.391zm14.102 19.237c2.18-1.307 60.692 33.225 69.263 42.141 3.891 2.975 12.987 17.41 13.019 20.314.032 2.584-2.814.353-8.051-4.487-26.942-25.16-65.872-44.122-66.186-43.705zm10.859 20.064c27.474 11.629 61.981 39.577 79.397 56.212 4.359 4.314 7.468 10.557 8.052 13.461.371 1.802-.539 1.68-.898 2.648-22.57-25.91-72.179-55.481-78.762-57.795.051 1.641-5.455-10.045-7.789-14.526zm91.218 80.731c3.16 3.224 8.173 14.525 7.051 15.91-.551.673-.5.321-1.82-.602-7.225-7.186-44.327-40.103-75.282-58.571-2.91-1.455-12.654-16.827-10.59-17.122 16.18 5.283 62.468 42.231 80.641 60.385zM263.9 944.59c.539.038 1.507.724 3.167 1.641 28.468 15.705 69.731 55.239 77.557 64.749 1.782 2.93 4.577 8.3 4.372 11.6-.352 2.58-1.391.38-12.897-10.95-18.5-18.104-39.776-35.63-62.32-50.354-4.334-2.981-3.507-3.359-6.654-8.834-3.154-5.493-4.404-7.935-3.225-7.852zm182.07.602c20.327.577 28.276 15.968 40.795 44.327 10.244 27.951 14.494 53.561 14.961 73.941.033 1.37-2.455.21-3.583-.1-5.442-1.46-12.218-2.83-20.07-.84-5.77 1.45-11.25 1.29-5.334-2.58 1.911-1.25 7.084-6.05 9.84-7.76 5.577-3.47 2.186-3.42-3.346-.7-4.186 2.07-6.987 4.67-8.712 5.09-1.07.26-.403-3.26.616-5.77 5.916-14.54 7.705-23.15-1.096-25.85-2.385-.72-5.596-2.93-7.116-4.4-1.211-1.18-2.243-5.88-2.621-6.07-.404-.2-.693 4.29-.68 4.97.026 2.34 3.019 7.07 6.628 9.65 6.122 4.39 7.334 5.61 4.007 16.01-4.661 14.57-5.654 18.13-6.513 21.51-.487 1.95-1.442 5.25-1.923 7.4-1.846 8.26-1.622 15.47-1.282 22.33 2.013 15.33 18.545 22.9 40.73 14.39 2.103-.82 2.975-.09 2.975-.09-17.673 17.98-37.513 29.47-49.071 65.78-14.865-29.96-35.923-53.43-70.929-62.84l-.519-6.26c12.211 5.85 35.884 13.82 50.91 4.87 8.045-5.5 5.602-9.04-4.167-5.25-11.621 4.51-32.621 3.98-43.109-1.92-2.134-1.21-4.307-.16-4.923.03-.544-3.52-5.589-16.78-4.852-21.78-.43-.7 3.192-.73 3.891.2 2.897 3.87 17.628 15.4 32.929 14.51 7.609-.45 13.866-2.77 20.475-9.74.551-.49 3.243-.84 3.608-1.25.59-.67.167-1.65.142-2.01-.167-.53-1.154-1.98-1.802-3.62a6.5 6.5 0 0 1-.884-4.08c.019-.96.653-1.46 1.153-2.14.571-1.28.411-2.91.097-3.78-1.359-.92-1.193-2.63-.468-3.42 2.07-2.34-17.821-20.5-21.712-20.46-1.41.02-.577 2.61 2.282 4.51 10.109 6.72 17.475 15.48 15.808 16.63-1.289.88-5.821-1.05-10.43-2.14-9.25-2.17-20.352-3.55-32.403 5.14-4.507 3.7-16.417 4.26-16.417 4.26-.154-6.49-27.577-78.954-27.628-75.81 9.974-11.625 41.32-39.17 72.737-51.035 9.667-3.167 20.038-4.788 27.006-3.853zM326.874 961.41l57.026.879c-14.34 7.217-40.385 33.102-40.385 33.102-7.455-14.994-9.73-22.474-16.641-33.981zm-49.288 7.52c4.25.025 49.506 36.9 55.949 45.62.775 1.04 5.359 5.88 10.192 10.73 11.705 11.73 16.532 18.52 16.59 23.35.025 2.29-2.064.81-5.193-2.64-23.435-26.04-38.692-40.18-67.666-60.157-3.288-1.756-13.5-15.352-10.032-16.865a.373.373 0 0 1 .16-.038zm154.814 6.788c-1.269-.045-1.064 1.179-.372 2.308 7.186 6.346 26.147 6.07 32.686.936 5.929-4.654-1.846-2.199-4.269-1.161-5.667 2.43-11.744 2.154-19.629.064-4.602-1.224-7.141-2.102-8.416-2.147zm17.487 10.34c-6.628.057-13.564 2.051-12.019 4.487.564.891 2.378 2.551 6.711.199 6.257-3.097 19.116.961 19.494 1.064 1.314.339-4.276-3.68-6.154-4.507-2.064-.916-5.013-1.275-8.032-1.243zm-159.782 6.891c24.321 14.881 53.949 44.661 71.731 65.921 2.961 3.66 5.102 8.17 5.128 10.82.045 3.82-.776 1.7-16.923-14.66-12.667-12.97-31.788-30.61-44.455-40.11-7.602-5.54-8.955-6.26-12.538-12.84-3.359-6.17-4.571-9.227-2.943-9.131zm151.532 4.968c-4.571 2.173-10.641 1.705-16.545-.321-5.352-1.84-4.096-.269-2.064 5.564.923 2.66 1.494 6.42 1.5 6.97.019 1.3.013 1.4 3.788-.71 3.289-1.84 3.981-2.48 10.994-.85 7.135 1.66 7.25 1.05 10.596-.7 2.923-1.52 3.526-2.43 5.526-1.63 3.91 1.57 8.333 2.25 13.346-.39 3.84-2.02 5.096-.66 6.872.24 2.416 1.21 3.352.44 2.403-1.97-.378-.95-1.083-5.069-1.102-6.364-.039-2.468-.641-4.692-1.68-4.166-3.833 1.923-6.948 3.974-10.609 3.91-6.705-.122-12.583-4.154-23.025.417zm-296.403 5.073c60.622 75.52 49.91 184.4 47.891 183.52l-47.513.2zm157.737 15.26c24.211 16.98 53.032 46.58 69.006 67.04 2.718 3.54.506 4.65 1.859 8.92.5 1.58-2.18-.76-9.872-9.02-9.583-10.29-25.346-25.77-35.718-34.75-11.365-9.84-14.647-12.32-17.07-15.64-1.91-2.79-9.692-16.16-8.205-16.55zm136.275 6.95a6.34 6.34 0 0 0-.757.02c-8.621.4-12.993 10.06-5.608 16.89 2.775 2.56 7.185 4.08 7.166 2.7-.006-.33-1.391-1.72-2.359-2.46-6.154-4.73-5.525-12.11 1.481-12.18 2.429-.03 2.577.84 8.192 4.86 6.603 4.75 14.398 4.75 14.301-.02-.064-3.5-1.371-7.08-7.269-6.5-1.551.14-3.615.31-5.429-.14-1.737-.45-3.218-1.5-3.904-1.81-2.058-.91-4.019-1.34-5.814-1.36zm-120.538 22.24c18.525 12.43 43.987 40.55 57 57.14 2.98 3.89 3.179 8.19 1.974 10.5-.282.46-2.564-.96-2.564-.96-15.045-17.72-32.109-33.82-48.859-50.18 0 0-9.949-16-7.551-16.5zm179.589 26.9l-4 1.99c-6.064-9.09-11.609-9.22-16.256 1.4l-2.981-.75c-2.218-2.45 7.987-25.54 23.237-2.64zm-.897-7.76c1.673.06 4.589.97 5.269 2.67.763 1.57-.09 3.35-2.385 3.26-.346-.01-2.558-2.72-3.66-4.39-.814-1.01-.468-1.57.776-1.54zm-68.032 11.12l-4.481.21c-8.532-11.21-14.91-3.68-18.731.99l-4.801-.64c.769-12.32 22.532-16.61 28.013-.56zm43.576-9.57c.674.02 1.34.15 1.962.38-1.763 2.68-2.064 4.91-2.462 7.34-1.743.71-4.224 2.22-6.07.3-3.436-3.12 1.846-8.1 6.57-8.02zm-69.967 1.26c2.109.01 1.481-.13.557 1.05-.923 1.19-2.192 3.33-2.871 5.23-.282 1.32-.507 1.8-1.744 1.85-2.372.07-7.167-.77-7.134-.74-1.821-1.72 5.717-7.2 11.192-7.39zm27.096 1.56c1.41-.16 1.077 1.86.628 2.65-.897 1.05-1.25 1.39-1.75.08-.244-.63-.609-1.13-.91-1.51-.699-.89-.622-.94.243-1.09.385-.07 1.289-.11 1.789-.13zm73.198 8.95c5.218-.13 1.731 8.72-5.532 10.86-8.013 4.07-17.205 3.09-26.557-2.24-5.34-3.04-6.955-6.24-2.308-4.97 17.519 4.83 21.776 3.93 32.34-2.9.634-.54 1.301-.67 2.057-.75zm-168.538-1.91c17.443 14.77 30.571 31.51 44.513 46.93 2.782 3.43 4.083 6.75 3.545 8.99-.667 2.79-6.391-3.87-6.391-3.87.147.07-34.038-36.42-34.038-36.42s-8.68-15.55-7.629-15.63zm52.116 5.1c1.211.04 3.615.6 7.493 1.6 16.776 5.09 21.853 4.9 31.494.48 6.141-2.82 8.679-2.42 6.051 1.82-4.84 7.81-21.929 8.67-34.763 4.31-3.397-1.15-6.384-3.17-9.654-5.63-1.756-1.82-2.179-2.63-.621-2.58zm77.358 5.17c1.007-.06 2.879 1.09 5.161 2.38 14.051 7.97 24.423 6.51 33.083 1.17 1.564-1.43 2.416-.75 2.622.64.737 4.85.955 8.34-1.263 10.67-1.289 1.36-3.481 1.98-6.789 3.09-13.609 4.57-30.166 1.3-33.333-8.9-1.032-5.25-1.686-8.91.519-9.05zm-111.506 21.89h.161c.987.15 3.256 2.14 6.833 6.2 18.705 21.21 29.051 33.4 27.16 39.54-.173 0-.288 1.32-1.077.64-10.288-8.88-18.686-18.6-24.942-28.75-6.853-11.13-9.673-17.49-8.135-17.63zm150.795 14.93c-15.789 12.07-34.936 40.8-36.648 54.95-.333 2.7-.045 4.73-1.045 5.71-.794.77-2.576.84-4.967.38-1.462-.27-1.116-.44-1.462-2.09-1.359-6.47 4.846-22.77 17.686-41.99 6.737-10.07 22.045-23.69 26.314-23.78 2.852 1.18.083 6.95.122 6.82zm-116.878-6.55c1.115-.04 2.84.55 5.25 1.58 14.166 6.07 19.455 8.29 28.622 15.77 17.089 13.93 36.089 47.02 30.512 50.11-2.448 1.36-4.186.51-5.186-2.57-.179-.55-1.974-5.19-4.109-9.13-11.455-21.05-26.358-35.53-47.358-45.76-7.757-3.79-8.545-3.37-9.135-6.54-.442-2.37-.026-3.42 1.404-3.46zm116.647 12.15c1.417-.11 1.756 2.48 1.276 7.69-.391 4.25-.648 4.16-5.385 9.14-7.571 6.14-16.526 20.53-20.673 35.2.006.51-.385 1.63-1.103 2.24-1.948 1.68-4.403.86-6.089.83-1.205-.65-.872-3.3-.661-4.79 3.468-13.32 11.994-29.67 25.359-44.04 3.763-4.03 6.02-6.16 7.276-6.27zm-113.705.39c7.507-.18 34.167 19.74 44.955 37.18 7.051 11.39 8.955 16.06 7.333 17.72-.859.88-4.653 1.02-6.634.25-1.801-.71-2.494-3.46-5.866-9.8-8.814-16.55-21.499-28.54-35.237-34.88-2.557-1.17-3.929-1.92-4.75-2.84-.923-1.89-2.102-7.23.199-7.63zm4.051 14.8c2.327.44 8.776 4.62 14.161 8.57 9.525 6.99 24.025 28.37 21.032 31.44-.962.98-4.289 1.02-6 .34-10.205-18.16-23.449-26.8-28.827-31.85-1.628-2.74-5.436-9.2-.366-8.5zm-21.198 3.21c.442-.11 2.231 1.64 5.468 5.04 9.577 10.06 15.654 21.2 14.243 26.83-1.186 4.75-2.583 2.15-13.538-18.75-4.616-8.8-6.814-12.96-6.173-13.12zm130.993.28c.218 5.78-.25 7.2-.865 10.27-.417 2.09-1.795 3.06-3.103 4.69-3.256 4.06-6.955 11.06-8.814 16.72-1.564 4.58-.827 5.67-6.449 5.06-2.622-.34-1.993-1.06-.961-4.07 3.538-9.91 12.038-25.96 20.192-32.67zm-108.82 10.9c.115-2.97 25.686 22.77 22.173 25.66-3.327.59-5.308.71-6.699-.48-2.731-6.12-14.91-17.74-14.91-17.74zm107.397 8.11c.058-.02.109-.01.16 0 1.141.23.513 16.06-.442 17.37-1.821.91-5.269 1-7.109 0-1.128-.61-1.468-1.74-1.045-2.97 1.064-3.07 6.603-14.03 8.436-14.4zm-96.506 17.41c-.808 1.25-5.782 1.48-7.66.05-.603-.45-1.186-8.3-.488-9.72 1.904-1.24 8.776 7.97 8.148 9.67z" fill="#131f67"/><path d="M73.616 46.562c-19.878.384-29.731 17.021-29.833 33.681l.019 43.7H31.93v14.504h11.872s.199 6.63.167 10.599c-.161 19.635 6.775 31.543 20.314 34.836 12.993 2.364 19.762-.432 29.647-5.549 3.59 1.494 6.103 4.573 9.949 4.961 4.25.429 13.109.227 13.109.227l-.244-14.883-4.429-.646c-8.462-.145-12.135-3.105-11.218-8.397 1.794-3.448 2.057-5.956 2.224-10.116V75.563c-.263-18.119-15.071-28.843-29.705-29.001zm-.622 14.403c9.494-.148 17.378 10.903 17.167 22.216l.147 57.1c.314 3.593-.269 7.102-1.846 9.566-1.244-3.649-20.872-23.702-30.692-22.776 0 0-.398 1.014-.68-24.078-.121-12.325-3.359-30.715 7.712-39.022 2.769-2.037 5.538-2.964 8.192-3.006zm514.364 49.48l3.205 4.206-18.731.1c3.064 2.587 72.461 142.239 161.198 303.585 14.693 28.316 42.705 38.524 75.244 39.763l-86.18-138.781c9.18-5 27.404-18.383 38.423-15.898.686 3.384 3.956 2.038 4-.969l3.988.08 1.403 2.184h16.75l1.366-1.977 14.436 2.077c-38.577-47.553-58.93-120.835-52.321-192.367l-127.948.28-1.699-2.243zm-15.526 4.306c-.07-.06-.122-.09-.122 0zM424.737 207.84c-14.545 46.974-50.513 85.622-71.872 124.539-22.897 42.462-28.282 79.415-21.833 119.831l4.186.361c48.814-66.586 86.615-146.138 107.768-224.371.462-1.704-.326-4.713.058-6.438-.897-2.069-.109-4.305.462-4.907 1.23-1.294.775-6.371-.141-14.764-2.302-24.93-1.846-44.498.237-67.096 1.602-17.348 1.513-20.077 1.513-20.077l-8.359-.126c1.545 29.53-2.359 65.916-12.019 93.048zm200.941-91.045l13.731.283c2.115 41.961 37.461 47.419 42.923 46.806-9.019 28.378 5.916 59.519 41.891 63.939-8.25 26.307 6.352 60.988 35.128 60.045l3.045 1.923c-1.853 3.788-2.25 11.579-2.141 11.699-6.398.468-9.866 1.4-14.026 2.223-37.192-56.08-120.551-186.918-120.551-186.918zm122.038 0c-4.16 46.877 5.244 111.258 27.263 149.298 0 0-.705 2.551-1.167 3.245-2.096 3.161-3.134.425-4.404-2.123-4.692-8.664-13.544-10.012-17.429-5.189-8.57 11.679.724 16.287 7.936 22.881-29.474-1.8-39.301-34.236-32.487-50.284-.154 3.061 1.487 7.68 3.647 10.956 8.282 12.563 20.385 1.965 16.917-7.974-1.436-4.111-6.718-10.97-6.718-10.97s7.173-1.058 10.109-2.83c2.737-1.701 4.468-4.713 3.763-8.834-.564-3.307-.712-4.752-2.488-7.732-2.173-2.715-6.064-4.592-9.185-4.384-6.084.405-6.821 4.591-10.808 7.459-.987-7.54-5.814-13.277-13.699-11.85-6 1.084-10.32 7.462-6.647 15.448 1.859 4.078 4.468 5.316 7.09 8.852-42.353-4.743-37.737-55.03-33.052-54.132 0 0 1.276-.236.898 1.688-2.41 12.305 12.872 19.659 19.57 10.717 4.276-7.253-4.904-18.704-4.904-18.704s6.116-1.311 8.885-2.911c11.064-6.378-.724-24.7-11.013-20.2-3.615 1.643-4.532 4.991-8.057 6.774-2.353-2.621-2.494-5.488-6.731-7.845-11.609-6.465-18.872 8.833-12.442 15.563 2.634 2.726 7.288 5.212 6.378 5.545-36.007-4.546-35.654-42.227-34.833-41.964zm-309.486.316l4.962-.003c-1.475 22.355-4.648 51.846-2.571 73.645 2.423 20.822 2.539 23.777 1.045 25.841-2.045 2.296-.968 3.378-.564 5.248.538 3.422.59 3.458.102 5.406-4.365 17.48-9.942 35.592-17.025 53.909-23.173 63.884-60.968 133.537-90.615 170.068-.019-.13-1.353.116-1.378-.013-8.109-50.973 9.224-93.462 18.275-110.901 18.346-35.353 47.16-65.532 64.276-102.572 14.564-31.517 25.307-69.396 23.493-120.628zm182.403-.216l120.75 187.78-22.032 10.797-123.577-197.896zm-363.665 19.651c-42.814.632-63.699 54.5-27.84 80.368 6.442 4.65 8.423 7.359 6.667 9.155-1.474 1.508-3.462.808-6.667-2.384-27.916-27.401-71.006-12.421-75.019 25.561-6.666 62.955 71.667 79.46 91.744 19.532 5.756-17.18 8.211 1.434 2.621 19.711-4.647 16.858-12.737 34.142-22.192 48.537-1.583 2.36-3.885 5.369-3.885 5.369h68.789s-2.186-2.934-5.289-6.55c-12.519-18.628-19.295-39.533-21.493-61.358-.513-6.206-.295-10.919.923-11.699 2.077-1.339 3.282.335 5.506 7.732 4.577 15.222 13.225 27.661 22.878 32.372 23.334 9.679 42.391 6.744 58.333-14.504 34.488-45.965-21.91-102.748-62.224-65.644-3.698 3.375-6.012 3.743-6.365.961-.173-1.345.865-2.632 5.91-7.371 34.635-27.518 17.282-74.679-25.923-79.468a53.773 53.773 0 0 0-6.474-.32zM82.911 165.272c.872 1.759-2.346 3.5-5.789 4.459-9.718 2.705-19.25-3.351-19.551-17.283-.096-4.244-.372-8.786 1.122-9.455 4.461-2.007 21.59 16.97 24.218 22.279zm608.491-11.699c3.128 0 5.654 2.543 5.654 5.67 0 3.126-2.526 5.668-5.654 5.668s-5.666-2.542-5.666-5.668a5.672 5.672 0 0 1 5.666-5.67zM71.693 203.141c-19.583.048-29.84 26.69-11.199 42.48 3.269 2.766 4.532 5.287 4.308 5.889-.507 1.365-1.007.216-4.987-2.584-17.526-12.326-38.564-1.291-36.718 16.426 2.641 25.293 31.115 31.285 41.224 7.892 1.789-4.134 2.648-5.418 3.609-5.428.878-.01.994 1.688.577 4.387-1.846 11.017-7.199 22.608-13.199 31.911h31.789c-6.513-9.858-9.225-19.578-10.955-31.731-.129-3.2.32-5.314 1.564-5.329.833-.008 1.314 1.14 2.686 6.551 5.07 20.025 36.006 18.974 41.16-1.282 5.775-22.69-15.654-38.829-33.25-24.479-2.481 2.024-5.301 3.5-5.789 2.083-.141-.406 1.436-3.365 4.244-5.829 17.961-17.543 5.949-41.01-15.064-40.957zm659.754 13.052a5.73 5.73 0 1 1 0 11.458 5.734 5.734 0 0 1-5.731-5.728 5.734 5.734 0 0 1 5.731-5.73zM443.73 227.377c2.064 8.182-38.32 130.996-95.711 209.148l25.057.521.776 2.764c35.109 51.836 13.147 97.69-15.199 118.99l9.814 13.081-8.833 7.152-8.833-10.517c-71.846 53.89-212.038 173.175-212.038 173.175l.782 19.134 10.936-8.615c71.115 68.839 221.91 65.07 261.454-77.024l10.596.241c-23.916 104.148-121.249 144.911-194.704 127.642l-17.212 24.718 4.609 2.467c-.852-1.32-1.628-1.775-.384-2.987l14.628-18.807c109.903 14.077 176.262-48.128 197.794-132.392l14.026.24c-12.032 70.78-45.212 133.1-92.532 181.869-34.147-.134-94.192-.923-94.192-.923 21.865 21.186 63.622 85.833 65.288 92.391 0 0 42.949 1.365 89.019.237 16.891-7.596 39.487-10.647 50.045-5.327 18.538 9.346 35.968 44.026 43.807 99.655 2.02 14.34 3.847 20.41 4.404 23.3.103.53 1.359.9 1.545.8.705-.37-1.122 2.54-1.205 4.69-.071 2.16 0 5.4 1.026 6.53 1.301 1.43 1.141 2.37.961 2.99-.122.4-2.628 2.72-2.628 2.72-.372 32.41-.186 61.83-1.962 101.71l6.372.03c-.045-64.14 19.308-123.5 49.141-164.36 18.135-26.815 37.32-55.712 47.936-83.231 11.942-30.975 13.59-63.526 7.192-90.987l-4.372.243c-26.23-17.987-36.923-56.371-4.602-83.794l-11.442-14.885c-32.27 24.949-39.68 70.974-6.25 109.077l-13.077-.045c-32.628-40.711-25.398-87.461 12.294-120.833l-8.429-10.711 9.167-8.084 8.269 9.052 210.448-175.831-.154-19.24-16.122 13.078c-94.403-87.273-234.39-26.031-254.916 79.09l-12.826.135c26.903-113.124 126.031-145.093 197.743-130.049l17.692-26.771c-13.013-3.657-25.712-12.299-37.699-22.51-5.045-4.301-8.237-6.937-11.904-11.243-33.967-35.892-57.019-85.736-58.102-85.819l-92.352-.228c-13.551 6.7-36.75 14.32-49.487 4.038-27.334-22.076-36.507-66.612-40.269-95.272-1.135-8.92-2.103-24.44-2.943-29.587-.519-.943-1.525-.999-2.442-.836zm327.422 49.533c3.09 0 5.59 2.519 5.59 5.609s-2.5 5.589-5.59 5.589-5.59-2.499-5.59-5.589 2.5-5.609 5.59-5.609zm12.019 6.591c4.551 5.898 8.596 11.98 10.859 18.409-2.128-.066-4.115.594-6.481-1.249-.544-6.493-3.218-10.39-6.583-14.716zm-16.884 8.273c1.865.915 3.346 7.966 2.038 9.175-2.243.479-3.782.318-4.538-.467-1.129-1.86 1.012-8.347 2.5-8.708zm-367.288 61.258l85.737.1c14.917 11.435 29.494 9.922 50.66.754h95.333l5.385 9.783H394.352c1.346-3.635 4.647-10.637 4.647-10.637zm-7.07 15.284h246.73l6.231 10.036H385.814zm23.814 14.584h27.686l-10.257 17.407h-28.564zm61.461 0h26.417l-11.757 17.387h-26.179zm85.455 0l-11.115 17.387h-26.866l11.539-17.227zm33.135 0h26.461l-9.897 17.387h-27.404zm-355.441 2.704c-17.161-.197-13.981 22.558-12.359 21.846-10.776-2.466-18.738 2.65-20.058 11.827-1.051 7.283 6.064 17.663 18.506 16.213-1.654 1.908.032 12.919 1.686 13.922 0 0 .212 1.596-6.352 15.298-7.795 16.262-9.391 17.033-12.923 6.35-3.802-11.49-9.673-17.311-24.981-24.739-4.077-1.979-9.846-5.431-12.821-7.672-6.833-5.148-6.91-5.067-6.589 5.388.416 13.576 4.538 19.53 19.032 27.544 7.096 3.923 20.673 9.463 23.134 9.435 1.731-.019 8.09 2.832 17.507 7.852 1.846.981 8.141 4.45 16.211 5.229 8.558.604 27.84-1.416 39.019-7.873 6.276-3.622 8.692-6.863 13.321-16.125 0 0-15.84.82-23.077-1.082-15.039-.882-22.513-.011-33.91 5.909-9.539 4.953-10.077 5.839-6.09-2.343 1.82-3.757 3.513-8.179 5.045-12.58 1.66-4.379 2.102-4.743 6.269-5.168 9.147-.933 14.359-6.211 15.205-15.365.231-2.455-.141-5.046-.141-5.046 6.231.921 18.974-2.166 18.577-15.066-.359-11.599-8.628-14.267-18.808-15.064 1.308-5.942-3.025-18.548-15.403-18.69zm.205 3.599c15.032.105 14.679 13.903 8.134 21.734l-8-6.582-6.448 5.953c-7.02-4.485-6.994-21.198 6.314-21.105zm411.325.167l7.391 10.917h-15.269zm-280.672 15.685h28.308l-11.359 15.966h-26.763s5.987-10.194 9.814-15.966zm89.224 0l-10.699 16.586h-24.737l9.917-16.245zm33.154 0h25.583l-10.122 17.688h-25.275zm60.198 0h25.898l-10.539 17.688h-25.538zm58.673 0h26.68l-11.02 17.688h-25.717zm-371.537 3.285l12.724 12.82-12.403 12.42-12.776-12.219zm32.256 12.488c-2.256 14.893-16.602 14.082-20.679 6.8l5.846-6.671-7.173-7.038c6.962-11.167 23.705-4.34 22.006 6.909zm-42.711-7.128l-6.878 7.748 7.545 7.252c-4.859 6.754-23.545 6.219-19.795-10.037 2.378-10.322 12.878-12.219 19.128-4.963zm435.998-1.894l7.872 10.817-14.763.12zm-307.011 13.281l316.524 1.021 8.475 10.357c-110.519 1.904-218.73-1.776-331.627-1.863zm-111.282 6.73c12.538 7.693 3.276 23.904-10.186 21.148-10.032-4.405-12.09-14.812-3.058-20.853L242 437.94zm108.538 6.211l-8.634.039-8.417 9.836c31.807 33.504 30.641 62.565 1.006 87.901l11.917 13.341c33.237-28.436 40.609-73.115 4.128-111.117zm32.673 1.282c17.827 27.854 33.244 80.615-19.872 128.945l-6.41-7.772c46.244-45.168 35.378-83.149 14.66-120.833zm4.942.68l71.878.281c-15.384 58.637-26.179 93.166-27.801 184.895l-20.775.121c2.256-2.114-10.757-55.387-25.943-73.858 31.846-54.072 14.686-84.568 2.641-111.439zm-226.076.081c1.237-.01 3.789 1.597 8.769 4.587 4.481 2.683 10.289 6.076 12.923 7.552 9.872 5.534 14.782 10.759 17.59 18.73 2.103 5.968.795 6.085-5.25.461-4.493-4.184-9.282-7.787-21.25-15.986-4.218-2.887-5.551-2.413-3.109 1.102 1.763 2.533 5.558 5.413 13.244 10.096 5.57 3.397 13.243 10.197 12.641 11.198-.551.912-1.5.833-4.186-.341-1.244-.541-5.256-2.187-8.898-3.666-15.653-6.352-22.339-14.152-23.275-27.123-.327-4.516-.609-6.599.801-6.61zm327.999.28s2.167 2.856 2.449 4.046c.602 2.574-1.923 4.935-9.878 8.474-2.731 1.215-5 1.873-4.93 3.466.366 3.739 7.532 9.448 6.654 14.543-1.647 3.897-11.596 7.724-14.083 12.32.019 3.161 6.468 8.001 5.551 12.299-.506 1.282-2.59 2.593-5.673 5.269-6.308 5.476-6.699 6.314-4.385 10.577 5.378 9.902 5.577 9.171-1.763 16.205-7.397 7.088-7.262 6.999-3.724 13.161 3.808 6.642 3.635 6.343-1.487 10.598-5.013 4.17-4.808 5.017-2.122 10.196 2.603 5.007 3.192 5.08-1.179 8.954-5.109 4.526-6.071 5.002-2.468 10.697 3.731 5.89 4.006 5.641-.199 10.457-3.981 4.561-4.442 4.771-2.282 7.872 2.712 3.895 3.224 4.929.378 9.215-3.07 4.629-3.051 4.301-.237 8.614 2.372 3.631 1.962 7.672 1.962 7.672l-8.891-.02s-.065-5.113-1.103-6.991c-2.526-4.558-2.455-5.973.538-10.016 3.077-4.15 2.565-4.505-.301-8.654-2.897-4.199-2.481-4.157 1.282-8.934 3.455-4.382 3.628-6.452 1.66-8.955-4.647-5.934-4.634-8.434.045-12.359 3.571-2.993 3.904-4.329.821-9.455-3.019-5.018-3.398-5.476 2.141-10.477 5.66-5.111 5.602-5.004 1.801-10.797-3.679-5.62-3.487-5.994 2.43-11.479 5.98-5.549 6.057-5.561 2.141-12.559-3.667-6.552-3.699-6.44 3.468-12.821 7.128-5.942 9.557-6.697 2.442-15.224-3.968-6.764-1.141-7.428 5.365-10.798 11.423-6.973 6.225-6.54 1.423-16.887-4.006-6.937-1.718-6.988 5.27-10.456 1.737-.746 3.66-1.605 5.628-2.705 4.673-2.606 2.147-4.987 2.147-4.987zm14.93.161l34.314.44c-39.776 50.789-58.917 115.748-65.789 184.274l-12.961-.2c-.808-53.517 16.025-120.377 44.436-184.514zm176.198 1.19c19.621 16.52 34.166 25.978 44.512 29.706 0 0-13.839 22.968-14.903 22.128-79.609-15.335-174.282 31.081-195.692 131.149l-12.545.08c4.635-39.266 14.968-72.06 34-106.269 18.878-33.216 36.269-52.627 62.506-77.091zm-136.961-.85l16.91.301s3.173 3.812 4.609 5.188c7.295 8.276 7.923 6.628-8.154 15.705-10.154 5.732-14.654 8.395-15.244 10.797-.455 2.42 4.43 7.222 5.007 10.457.006.363-13.801 9.608-16.308 10.917-3.481 1.689-3.66 3.144-.199 9.155 3.975 6.911 3.654 6.669-4.929 12.66-8.372 5.843-10.019 5.265-6.449 11.078 4.955 8.073 2.622 9.894-9.032 16.186-2.948 1.588-3.019 3.182-.961 8.693 2.859 7.659 3.596 6.891-2.43 11.038-7.109 4.898-8.365 5.034-6.788 8.033 4.583 8.718 6.397 10.836.282 13.682-4.667 2.17-4.763 3.399-2.186 9.154 2.596 5.786 3.269 5.553-1.34 8.814-4.269 3.022-6.782 2.35-2.622 7.292 3.282 3.909 2.994 6.995.321 9.395-2.308.976-3.378 5.353-2.705 5.449l-5.93.16c-4.647-6.259.834-9.844 1.661-10.457.756-1.441-.173-2.461-2.045-5.849-2.577-4.667-2.487-5.224 1.224-7.952 3.75-2.758 3.859-2.043 1.359-8.134-2.904-7.084-2.769-7.893 1.808-11.177 4.5-3.234 4.557-3.952 1.5-10.157-3.225-6.544-3.231-6.549 4.769-11.859 5.622-3.735 5.699-3.512 2.724-10.436-2.057-4.783-.602-6.439 7.052-11.679 4.371-2.993 4.698-3.586 2.641-7.151-5.673-9.83-5.616-10.13 4.166-16.467 8.007-5.184 7.936-5.63 4.853-12.539-3.346-7.484-3.641-6.907 7.327-13.482 9.038-5.415 9.525-5.101 5.814-11.619-4.628-8.107-4.334-6.78 13.737-17.107 6.519-4.463 12.397-2.918 5.91-10.517-2.852-3.644-6.352-7.572-6.352-7.572zm-319.147 13.342c1.25-.045 2.231 1.493 2.16 4.346-.217 4.019-2.121 8.005-3.942 12-3.82 8.137-7.628 14.16-9.634 14.182-4.725.053-4.597-1.006 1.679-13.281 2.865-5.604 5.827-12.002 6.295-13.241 1.006-2.685 2.34-3.967 3.442-4.006zm58.096 18.429c.084 17.232-53.961 25.914-56.769 17.216 9.423-7.376 37.276-4.102 43.179-10.699-7.115-.411-16.756.761-23.358.879-8.238.148-21.545 3.668-21.68 5.124-.865-4.535 14.141-13.047 26.032-13.582 11.115-.483 23.186.834 32.596 1.061zm4.622 26.302S188.609 586.121 136.52 628.312l.32 18.809 166.705-136.478zm-.34 4.307l6.731 8.173-156.487 127.503-.564-13.361zm494.646 44.738l-5.628 6.005c-152.846-113.724-293.589 58.948-215.98 182.466-.705 1.596-6.103 5.538-6.103 5.538-86.499-143.399 79.013-311.194 227.711-194.009zm-84.109-24.907c8.673.067 24.648 6.024 31.391 14.143 7.853 9.453 5.571 13.665-4.41 4.748-10.718-7.791-19.577-9.599-4.686-.401 3.289 2.029 6.237 5.991 6.391 6.43.545 1.58-2.205-.077-14.686-4.628-7.416-2.705-16.82-10.021-19.269-15.003-1.827-3.729.724-5.324 5.269-5.289zm-32.173.26c2.705-.021 5.122.19 6.834.682 10.929 3.138 14.371 4.783 18.448 7.952 2.789 2.169 1.898 3.732-1.339 2.344-3.776-1.617-15.712-5.167-17.853-4.947-3.103.318.013 2.35 4.468 3.465 9.885 2.471 14.788 5.021 7.731 5.128-3.673.546-19.776.597-24.154.08-7.327-.864-18.295-7.542-15.769-9.936 2.724-2.582 13.519-4.701 21.634-4.768zM640.665 533.6c12.962.153 19.975 4.994 5.808 5.97-24.359 3.856-29.038 9.153-2.045 2.844 6.282-1.468 6.167.797 1.821 2.925-3.545 1.725-7.981 2.575-11.673 4.367-6.661 2.771-21.917 3.385-27.866 1.122-8.782-3.339 18.782-17.406 33.955-17.228zm104.301 2.204c6.551.169 20.526 9.664 26.744 18.569 4.07 5.822 2.045 10.002-4.103 5.329-1.231-.935-10.058-8.438-10.538-8.614-.827-.303 7.32 7.436 8.513 9.615 1.025 1.847 3.378 6.083-1.02 6.17-6.871-.847-23-18.867-23.096-27.764-.025-2.38 1.321-3.362 3.5-3.305zm-81.269 5.068c2.731-.089 1.34 1.36-3.846 5.008-9.346 6.582-4.474 5.263 6.455-.361 3.321-1.709 7.327-3.046 8.731-3.305 1.41-.26 3.083-.644 3.724-.841 2.943-.902.673 2.72-4.102 6.55-10.058 8.059-21.41 14.386-29.25 16.326-9.987 2.472-12.103 2.789-8.41-3.446 5.865-9.907 14.41-17.831 22.576-19.371 1.834-.346 3.212-.531 4.122-.56zm33.616.16c4.16-.083 9.307.778 17.41 2.524 5.692 1.776 4.205 2.158-2.628 2.905-12.84 1.403-7.494 2.902 4.987 2.684 17.038-.128-8.532 6.141-16.821 7.392-6.474.288-8.372.058-22.48-2.584-5.372-1.007-2.148-4.946 8.032-9.816 4.166-1.991 7.339-3.022 11.5-3.105zm105.268 2.304l.462 10.977-206.23 172.435-7.013-7.75zm-70.172 9.435c8.224-.11 20.108 5.594 18.833 9.034-.481 1.283-1.398 1.23-7.673-.441-4.122-1.096-11.5-2.253-10.519-1.342.339.315 6.096 2.517 8.294 3.045 7.263 1.746 15.968 5.853 14.045 7.072-3.372 2.048-6.455.446-10.442.02-9.968-1.385-26.346-6.421-29.045-8.935-3.057-2.853 7.66-8.336 16.507-8.453zm-96.192.641c1.48.078 2.038 1.458.621 3.345-2.147 2.834-3.141 5.212-5.07 8.694-6.891 10.647-11.244 14.863-17.865 18.99-6.629 4.128-7.577 3.418-6.994-5.168.744-8.916 7.128-18.293 16.147-22.696 4.161-.59 6.552-1.686 2.18 3.546-7.75 9.282-2.442 8.334 4.788-2.204 2.302-3.349 4.712-4.585 6.193-4.507zm-26.782 1.242c4.468-.023 5.968 1.56.237 4.246-5.455 2.559-16.301 10.144-16.564 10.978-.455 1.413 3.609-.804 10.359-4.487 9.012-4.924 9.807-4.808 5.448.821-4.936 6.365-16.794 14.337-26.102 17.288-13.026 3.567-12.712 1.073-5.43-8.594 6.936-10.508 12.827-15.521 21.712-18.389 3.897-1.257 7.654-1.85 10.34-1.863zm-220.916 1.602c47.262 81.501 21.025 164.313-33.801 206.544-57.327 44.147-146.506 41.525-199.128-11.462l7.301-6.891c-.038.032 82.955 84.557 187.48 9.532 53.051-38.077 74.962-127.991 31.199-190.672zm-211.698.181c-.154 0-.27.023-.359.08-1.59 1.033-7.59 18.636-8.795 25.941-.353 2.138.167 4.233 1.923 5.95 1.231 1.205 3.231.424 3.846.18 3.994-1.809 6.199-4.58 9.699-13.361 2.346-4.808 2.666-10.553 2.198-12.561-.185-.813-1.48-2.707-3.102-3.786-1.795-1.193-4.333-2.451-5.41-2.443zm.923 3.665c1.891-.018 5.628 3.059 6.089 5.249.033 3.821-2.153 10.179-3.788 9.234-2.724-3.391-5.865-1.253-6.385-2.483-.352-3.76 2.065-8.684 3.725-11.959.109-.031.231-.04.359-.041zm510.415 3.045c21.012.006 41.91 6.16 57.249 19.752l-8.192 7.512c-35.987-25.652-77.878-18.145-102.705-.842-24.576 17.13-46.326 55.048-25.019 108.455l-7.692 6.968c-23.878-42.954-11.064-99.724 31.192-126.58 14.898-9.47 33.981-14.89 53.122-15.244.679-.013 1.365-.021 2.045-.021zm-310.756 6.271c.635 0 1.603 2.087 1.5 4.647-.121 3.073-1.423 7.083-3.506 7.933-2.34.956-3.827-6.03-3.827-6.03a27.098 27.098 0 0 1 5.833-6.55zm376.243 2.403a14.02 14.02 0 0 1 2.403.081c2.347.291 2.366 2.39.161 4.407-2.385 2.176-3.628 2.293-6.032.54-2.148-1.564-2.257-2.715-.404-4.046.974-.618 2.442-.91 3.872-.982zm-403.608.481l6.974 8.594-24.16 19.43-2.884.221-184.936 153.144-.038-13.603zm386.409 20.735l-25.192 20.782c-50.34-26.155-90.705 20.452-76.468 62.786l-21.782 18.9c-38.955-106.913 74.981-143.498 123.442-102.468zm-131.884-16.328a.545.545 0 0 1 .224 0c.167.037.34.162.5.321.878.861-.872 15.036-2.186 17.668-.474.957-.846 2.191-.839 2.744.012 1.163-4.635 10.89-8.276 17.307-1.372 2.419-2.833 5.592-3.244 7.072-2.916 14.036-9.211-8.534-6.993-21.634 1.051-6.158 9.788-18.87 12.32-17.929 1.295.479 1.205 1.45-1.057 6.37-6.315 13.729-7.898 20.807-1.263 7.532 7.641-15.3 9.634-19.234 10.814-19.451zm-427.864.28c.936.054 1.679.572 2.09 1.663.275.932.577 2.862.057 3.806-1.295 2.907-3.968 4.821-6.673 4.647-1.186-.076-2.48-1.12-2.641-2.404-.147-1.16.135-3.13 1.603-4.626 1.923-1.971 4.006-3.174 5.564-3.086zm191.749.882c2.981.146 6.128 8.171 4.128 11.839-1.641 3-1.942 2.441-4.807-3.366-1.507-3.053-2.667-6.33-2.667-6.33l2.442-1.923c.206-.108.417-.175.622-.2.096-.013.186-.025.282-.02zm-5.025 3.385s3.134 5.686 3.903 10.217c.468 2.766.391 2.248-2.641 1.102-2.397-1.495-2.923-2.361-4.41-4.227-.981-1.729-1.961-3.005-1.961-3.005zm18.865 1.222c1.59-.054 3.288 1.548 4.852 5.469 5.853 14.723 5.315 31.243-1.262 39.042-1.09 1.292-1.359 1.348-2.667.541-1.07-.659-1.173-7.654-.141-9.635.327-.621 1.288-4.844 1.365-7.232.173-5.655-1.384-6.365-2.121-1.122-.866 6.059-1.795 10.292-3.449 6.651-.833-1.85-1.25-3.699-1.885-5.669-3.288-12.73.552-27.882 5.308-28.045zm-25.5 3.766s5.635 7.273 7.955 9.876c.821 1.405.789 1.763-.519 2.263-2.231.854-9.686-4.113-12.641-5.648-1.596-1.271-.904-2.244-.904-2.244 2.039-1.534 4.077-3.042 6.109-4.247zm222.198.261c3.006-.034 3.006 1.014-.199 5.629-17.923 25.776-14.301 21.948-2.91 7.852 6.34-7.839 7.442-8.586 8.135-6.831.519 1.314-7.013 16.568-10.917 22.096-2.013 2.855-8.897 7.632-12.378 9.395-8.526 4.314-7.577 2.58-4.43-8.113 4.02-16.591 14.109-29.933 22.699-30.028zm-232.711 8.914c49.115 122.144-85.39 175.759-146.076 119.272l7.07-5.628c84.423 57.256 167.743-34.473 129.609-106.253 0 0 3.455-2.873 9.397-7.391zm11.378 2.964c8.084.829 20.032 15.619 20.629 23.859 1.282 5.852-.372 6.857-3.244 2.744-4.846-8.947-4.263-3.276-.141 5.609 2.192 4.489 2.699 9.868.423 10.156-3.109-.63-9.84-11.361-11.897-15.785-4.911-9.693-5.263-8.05-7.955-22.416-.507-2.692.198-4.145 2.185-4.167zm-24.442 4.007c37.417 71.753-43.07 157.967-124.935 102.243l24.538-19.474c42.724 20.5 90.397-4.922 76.743-63.839zm373.262 13.378l-67.5 56.242c-13.891-46.617 37.109-73.245 67.5-56.242zm-125.365-.117c2.205-.459 4.077 13.659 4.487 33.473.397 19.383.897 21.298-5.128 14.163-2.526-2.908-5.628-5.684-7.013-8.293-4-7.565-2.724-15.49-1.622-26.563 1.032-10.33 4.731-8.717 4.128 2.104-.384 6.962-.314 15.617.782 15.605.398-.005.507-.674.257-1.623-.519-1.98 1.865-24.417 2.846-27.063.423-1.142.853-1.718 1.263-1.803zm-186.019 8.534c4.878 1.908 6.263 18.179.981 33.914-2.269 6.761-5.756 11.176-10.955 13.902-3.712 1.946-4.577 1.328-2.904-2.063 3.077-5.528 4.724-11.257 5.968-18.389.5-6.962-3.173-1.373-2.865 1.602-2.879 12.985-6.654 14.941-6.167 1.262.359-10.081 1.679-14.406 6.429-21.334 2.385-3.469 4.943-8.245 9.513-8.894zm169.294 1.643c2 .017 2.494 2.707.699 7.952-1.243 3.635-5.487 15.406-4.987 15.365.308-.026 4.859-10.612 5.788-12.34 1.526-2.836 2.09-3.373 3.424-3.245 1.307 5.227-.039 11.755-.68 17.167-2.756 14.106-12.365 28.675-16.045 24.339-6-7.065-3.186-35.674 4.769-44.371 2.994-3.275 5.468-4.881 7.032-4.867zm-257.069 2.163c7.243 49.897-33.923 71.2-69.494 56.149.75-.186 69.494-56.149 69.494-56.149zm168.307.921l7.167 9.416 13.141.68-6.731 9.916 6.692 12.7-14.66.281-8.436 9.696-7.333-8.754-12.821-.682 7.475-11.919-6.032-11.398 13.846-.661zm-110.275 4.287c1.647.058 9.75 10.709 10.557 14.643 2.443 9.525 1.539 27.543-1.884 26.923-3.718-12.977-2.276-19.679-3.609-18.189-2.308 2.388 1.436 22.282.198 27.185-.583 1.25-2.57-.256-4.807-3.467-5.955-8.573-5.154-42.11-.596-47.055a.273.273 0 0 1 .141-.04zm438.838 20.219L642.005 787.767l9.353 12.039 153.121-126.415zm-234.236 2.317c.711-.145 2.326.993 5.371 4.327 5.308 7.166 10.93 17.008 12.981 24.578.776 2.948 2.026 6.852 2.782 8.673 1.141 2.743 1.237 3.5.564 4.327-2.807 3.461-14.557-5.25-18.352-13.597-5.321-11.726-5.455-22.29-.122-12.002 1.942 3.742 4.352 9.196 4.333 7.031-.013-.616-2.365-8.473-4.166-11.978-1.122-2.205-5.199-10.989-3.391-11.359zm232.512 3.266l.339 11.117L651.761 796.44l-5.929-7.211S788.101 670.905 802.46 659.001zm-235.814 6.87c.712.072 1.071 1.087.859 3.346-.692 7.342-2.5 23.333-2.122 24.737.225.852 2.391-10.584 2.885-12.618 2.577-10.596 6.526 14.733 4.148 26.079-.379 1.789-1.135 4.667-1.526 6.436-.391 1.763-1.654 4.788-2.16 5.583-4.282 6.731-14.334-20.057-12.641-33.711 1.051-8.501 8.019-20.107 10.557-19.852zm-174.743 5.87c1.981-.106 2.359 1.833 2.026 5.909-1.141 13.977-10.436 28.65-20.615 32.554-10.135 3.884-11.077 3.102-5.064-4.148 4.557-5.5 7.314-11.275 6.551-12.019-.43-.417-1.443 1.897-5.128 6.628-4.629 5.942-5.391.91-1.186-7.814 3.634-7.532 7.032-11.474 13.865-16.083 4.821-3.251 7.808-4.934 9.551-5.027zm91.846 4.247c-2.038 60.177-17.045 125.555-46.013 182.388l-27.064.064c33.141-48.814 54.295-109.249 60.18-182.192zm11.904.059s4.058 4.212 5.705 7.052c1.821 3.13 2.333 5.868-.981 8.214-3.839 3.243-5.442 2.038.821 10.096 3.301 4.243 2.231 4.936-1.859 8.513-4.225 3.692-4.468 3.884-.545 8.871 4.199 5.34 4.961 6.161-.519 10.276-4.936 3.718-4.994 4.59-1.141 10.622 3.551 5.557 4.628 5.5-2.186 11.256-5.814 4.917-5.949 3.558-.34 12.603 2.064 3.326 1.923 3.538-1.859 6.891-9.301 8.224-8.814 7.711-7.493 9.871 10.192 14.603 5.583 14.186-4.391 21.154-2.007 1.724-1.488 3.66 3.006 10.962 3.827 6.198 3.269 7.538-5.686 13.698-9.327 6.417-9.635 7.282-4.968 13.821 4.59 6.448 4.692 6.006-2.763 12.66a165.468 165.468 0 0 0-6.134 5.769h-16.526s3.487-3.186 5.872-4.949c13.57-10.044 13.513-8.98 7.788-16.224-5.064-6.41-4.57-6.827.564-10.493 3.693-2.641 8.667-5.359 12.398-8.052 2.013-1.436.525-2.628-2.821-8.955-3.756-7.096-3.955-6.275 3.026-12.019 7.641-6.288 7.763-6.058 3.622-14.026-4.154-7.987-4.225-7.294 1.019-11.576 7.801-6.366 8.173-6.026 4.07-13.404-3.275-5.885-3.307-5.718 2.225-11.237 5.577-5.564 4.884-5.218 1.583-10.314-3.359-5.186-3.179-5.885 1.237-9.814 4.763-4.244 4.09-3.988.141-9.398-3.891-5.34-3.833-4.936.904-9.077 2.487-2.173 4.987-4.384 4.846-5.41-.365-2.635-2.884-6.372-5.307-9.974-.923-1.372.929-1.795 3.884-4.866 3.013-3.128 2.878-2.339.603-6.491-1.231-2.245-3.564-6.03-3.564-6.03zm-44.295.141l4.712.12s.807 1.068 1.904 2.184c3.019 3.084 3.153 4.898.115 6.551-2.91 1.59-1.795 3.815.641 7.391 2.59 3.795 2.564 3.359-1.141 7.09-3.821 3.109-5.801 3.987-1.583 9.878 2.397 2.731 2.102 5.545-1.622 7.994-2.859 1.878-7.609 3.442-2.603 10.596 2.443 5.096 2.641 4.769-2.461 8.391-6.789 4.821-8.064 3.981-4.949 11 3.468 7.808 3.808 7.923-3.308 13.16-8.269 6.083-8.551 6.577-5.109 13.859 3.475 7.353 3.565 5.487-5.185 12.301-6.411 4.994-7.872 5.27-5.968 9.398 3.557 7.731 5.064 9.807-5.308 15.122-11.981 6.141-12.583 6.596-6.833 15.724 4.679 7.429 3.634 6.372-4.09 10.82-11.167 6.423-16.096 9.225-16.442 11.218-.231 2.257 8.711 8.975 8.711 8.975l-15.583.416s-6.551-5.314-9.096-7.788c-7.051-6.866-7.128-4.616 16.307-15.987 12.93-6.276 11.847-4.853 9.738-8.513-6.238-10.814-6.456-11.936 5.243-17.827 10.167-5.122 8.423-5.487 5.955-13.224-2.16-6.744-1.814-6.122 3.545-10.096 12.949-9.603 12.596-8.609 10.577-13.321-1.994-4.635-3.519-6.788-2.026-9.077 4.667-6.692 14.596-8.115 10.539-16.083-1.898-5.141-2.571-6.289 3.141-10.737 5.154-4.289 5.186-3.769 1.884-9.436-4.019-5.199-3.435-6.051 2.443-10.135 4.192-3.833 4.141-3.73 1.782-7.474-3.244-5.154-3.084-5.314 1.545-9.372 3.769-3.307 4.429-3.487 2.025-7.134-3.192-4.834-2.66-5.898 1.539-8.27 2.583-1.457 2.564-2.051 2.346-4.509-.045-.473-1.385-3.205-1.385-3.205zm58.455.28l21.692.06c6.93 40.227 19.032 56.733 26.026 69.47-27.429 44.039-21.192 80.615-4.449 112.981l-68.711-.257c17.615-60.262 26.699-120.897 25.442-182.254zm-148.916.16c.795-.057 1.359 1.233 2.705 3.526 4.346 7.409 1.269 17.915-5.09 28.928-4.756 8.237-5.621 1.942-3.442-9.917 1.372-7.481-2.397 3.725-4.192 12.763-.968 4.897-3.314 8.846-5.866 8.609-2.403-.391-1.66-7.25-1.583-8.776.545-10.807 4.571-18.468 12.397-29.203 2.968-4.066 4.167-5.865 5.071-5.93zm221.474 21.153c1.032-.045 2.468.384 4.243 1.403 1.385.795 3.872 2.295 5.59 3.244 6.019 3.314 6.506 4.327 3.647 7.654-3.538 4.122-5.801 2.551-11.916-4.308-4.128-4.622-4.199-7.872-1.564-7.993zm-2.007 9.057c.975.019 2.981 1.071 4.93 3.302 3.961 4.538 3.487 8.371-.904 7.275-1.789-2.622-2.712-6.609-4.423-9.558-.391-.666-.186-1.032.397-1.019zm193.794.577c-3.846.007-10.275 5.083-11.5 10.237-3.737 15.737-3.73 15.058-.384 17.353.987.666 1.724 1.16 2.205 1.461 1.961 1.545 4.635 3.943 4.987 3.462 3.192.019 8.039-20.141 7.872-24.295.205-4.391.359-4.917-.737-6.91-.5-.91-1.366-1.308-2.443-1.308zm-196.736.346c.256-.051.577.084.961.398 2.52 2.506 3.532 6.987 4.808 10.198.007.693-.282 1.834-.641 2.52-2.173 4.179-5.558.128-5.91-7.071-.192-4.045.013-5.904.782-6.045zm196.134 3.103c.167-.013.333-.007.481 0 2.577.115 2.179 2.782-1.404 6.647-1.885 2.039-5.769 3-7.051 1.744-1.866-1.827 1.987-6.84 6.192-8.051.679-.199 1.275-.308 1.782-.34zm-435.755 2.205c.141 0 .276-.013.417 0 1.352.083 2.48.692 3.365 1.718 1.718 2.128 1 5.41.179 8.154-2.032 7.192-15.512 21.121-20.346 21.173-2.884-.5 9.154-15.795 9.532-18.366-.897-.878-8.352 7.738-11.859 13.718-1.583 2.712-3.391 6.052-4.346 6.635-2.513.288-5.41 1.891-5.429.199.417-7.641 15.378-24.295 20.474-28.923 3.128-2.949 5.833-4.27 8.013-4.308zm36.077.718c11.557-.128-11.199 25.16-25.923 28.808-4.584 1.134-13.039 1.429-13.641.48-.603-.955.077-1.73 1.961-2.224 3.039-.801 18.084-10.372 18.071-11.5-.019-1.417-6.231.936-11.539 4.372-3.436 2.218-5.051 1.763-3.186-.923 8.641-12.43 20.212-18.853 34.257-19.013zm200.057.038c.66.058 1.314 1.359 1.724 4.27 2.103 5.416 2.199 6.897.218 8.493-3.385 2.731-4.224 1.968-4.186-4.308.032-5.166 1.154-8.544 2.244-8.455zm-380.749 7.193s4.218 1.583 2.468 3.589c-1.218 1.391-6.404.206-6.41-.205zm580.626.16c1.378-.09 1.411 1.179.686 4.391-.384 1.679-2.051 10.538-4.987 13-.359.231-4.628-2.314-5.788-3.487-.533-.545-2.206-1.789-2.43-2.603-.724-2.679.051-6.16 2.083-7.897.795-.673 2.391-1.052 3.25-1.058.673-.006 2.661-.66 4.423-1.442 1.238-.545 2.141-.859 2.763-.904zm-579.139 6.109c2.776-.019 6.18.282 9.071 1.263 8.525 2.48 24.16 9.48 26.564 11.782 3.5 3.346-5.641 6.91-16.628 7.032-5.827.064-6.924-1.148-14.981-5.975-1.039-.679-5.731-3.762-4.372-4.884 1.494-1.526 5.994.436 11.603 3.282 1.826.929 6.275.667 6.269-.16-.013-.968-11.205-5.129-19.59-7.789-5.506-1.75-5.378-3.519-2.006-4.269.968-.141 2.404-.269 4.07-.282zm-11.019 3.827s2.321 2.057 5.327 4.307c3.269 2.449 7.058 5.462 9.699 9.475 3.814 4.654 9.846 16.237 9.173 18.333-1.545 4.808-17.654-3.628-30.834-16.808-4.275-4.282-6.788-7.474-6.788-7.474l5.032-4.545s4.41 3.693 9.513 8.193c9.564 8.442 9.5 5.538-.122-3.347-2.724-2.512-5.224-4.769-5.224-4.769.121-1.609 1.647-3.032 4.224-3.365zm393.569.404s5.141 5.333 7.051 7.788c-31.352 30.654-43.32 73.468-13.064 119.07l-14.519-.058c-27.205-53.531-14.307-93.833 20.532-126.8zm-265.166 1.262c1.949-.089.173 2.206-3.282 8.09-6.461 10.994-7.743 13.769-18.23 16.507-2.699.698-6.552.141-8.135.339-4.513.564-2.506-.006 4.41-4.487 9.577-6.211 1.443-3.013-7.416 1.545-5.129 2.641-10.507 2.506-10.975 1.141-.256-.75 2.077-2.737 3.584-4.09 13.487-12.051 17.621-11.545 30.173-15.904 5.474-1.897 8.538-3.083 9.871-3.141zm-56.371 10.994c4.884.032 9.436.519 13.487 1.423 2.679.609 7.045 1.141 3.359 4.468-4.167 3.923-15.423 9.276-23.756 9.635-1.167.044-18.321-1.167-14.661-4.847.731-.41 3.058-.301 5.064-.679 9.507-1.801 6.936-3.333-4.762-2.705-14.654.782-15.327-.731-4.231-3.769 8.115-2.218 16.09-3.359 23.397-3.507a115.01 115.01 0 0 1 2.103-.019zm78.288 1.122c6.519-.064 11.59 1.102 11.615 3.59.045 4.025-12.307 12.871-20.41 14.621-1.91.411-4.622 1.007-6.032 1.321-2.827.641-18.481.096-20.013-.462-7.333-2.66-2.23-3.705 11.218-5.269 5.859-.679 8.648-2.211 8.635-3.32-.007-.545-4.314-.693-10.737.115-7.167.91-5.763-1.199 3.166-5.827 5.898-3.058 15.167-4.692 22.558-4.769zm-120.692 5.59c.91.025 3.115.782 6.769 2.301 7.808 2.275 18.539 4.846 25.878 12.865 5.936 5.744 7.379 7.596 6.135 9.615-1.513 2.449-19.917.584-27.667-2.724-5.115-2.186-11.217-6.878-13.999-10.936-6.75-9.833-3.911-12.423 4.666-5.551 10.333 8.282 11.866 9.128 13.699 8.756.737-.153-1.077-1.852-4.545-4.429-8.705-6.468-12.942-9.949-10.936-9.897zm63.679 10.557c8.661.013 10.526.66 18.93 4.507 10.519 3.711 7.968 7.006-10.692 11.66-9.353 2.192-18.757.654-25.584-3.545-15.045-9.256-14.051-11.109 2.744-6.974 5.519 1.359 11.019 1.615 11.359.583.256-.789-6.417-2.494-11.84-4.289-5.872-1.942-.827-1.775 10.917-1.903 1.551-.013 2.929-.039 4.166-.039zm432.877 39.994s-1.923.903-2.769 1.371c-.673.372-5.872 1.02-11.558 1.443-11.218.833-18.763 2.634-25.564 5.372-10.275 4.128-17.147 16.865-17.147 16.865 7.679-.519 51.147 7.333 63.211-8.327 2.526-3.276-6.487 24.75-11.109 25.993-11.455-1.371-16.275 16.603-15.128 15.847-11.551 4.474-20.513 7.102-17.577 20.512 1.282 5.853 7.212 12.795 19.769 11.052-3.423 23.256 25.032 29.269 28.173 1.237 0 0 5.545-1.058 7.686-1.308 12.975-3.077 16.116-22.032-2.929-28.051-5.282-1.564-5.584-2.558-5.584-2.558.988-4.275.757-8.763-2.339-13.75 4.198-10.013 14.653-29.314 14.653-29.314zm2.013 5.782c2.615 3.5-11.039 9.282-25.577 10.532-3.256.282-10.429.942-10.615 1.263-1.564 2.743 28.115.749 37.359-4.424 3.166-1.775 3.455-.218 2.077 2.52-10.731 13.801-36.641 10.397-56.904 7.974-1.154-1.16-.173-2.59 4.365-6.269 8.327-6.757 14.321-9.007 27.468-10.359 3.667-.116 20.173-3.225 21.827-1.237zm16.051 14.282c-1.865 5.936-11.615 24.057-11.615 24.057-1.199 1.199-5.475 2.039-5.154-2.545.051-4.923 9.276-25.211 11.763-25.602 2.968-.224 5.154 1.961 5.006 4.09zm6.186 1.378c2.859 20.795 18.635 25.743 33.776 32.295 3.987 1.827 7.365 5.07 11.358 7.173 7.488-10.205-.948-30.026-14.121-36.481-9.789-4.564-18.705-8.205-24.218-7.795-3.192.237-6.75 2.289-6.795 4.808zm8.096-1.237c1.692-.02 4.122.468 12.962 2.82 13.346 3.551 22.762 13.398 25.218 26.365.102.526.788 10.571-1.513 10.218-3.475-1-5.346-4.5-10.923-6.833-6.962-2.91-16.725-6.737-22.718-12.179-4.84-4.398-7.481-9.129-8.071-13.18-.602-4.211.808-4.641 4.346-1.243 7.917 6.301 15.725 8.455 23.558 14.544 2.173 1.693 9.981 6.02 4.647.629-3.608-3.654-14.243-10.013-19.89-12.731-7.853-3.776-12.122-8.359-7.616-8.41zm-601.158 20.75l89.48 139.884c-22.019 11.615-32.878 16.705-69.448 13.839l.141 1.847-15.538-.904c26.839 41.892 59.961 96.552 50.563 191.902l109-.11s1.705 1.61 1.872 1.72c1.59 1.08 3.981-1.89 3.981-1.89l49.173-.26 1.326 1.59 22.93-.16S279.673 993.28 227.019 895.876c-21.628-39.07-44.153-56.429-85.993-53.884zm564.261 4.628c5.878-.148 11.718 3.897 11.756 11.737.026 4.09-3.423 9.788-3.423 9.788l-7.987-7.609-7.628 7.635c-3.763-3.103-5.987-9.019-4.757-12.385 2.347-5.75 7.468-9.051 12.039-9.166zm-92.551 2.782c7.577 29.519 15.756 70.218-49.917 164.258-38.846 55.63-51.551 108.11-53.108 172.16l-3.923.02c1.852-35.15 2.102-98.88 2.102-98.88l3.667-3.26s-1.667-2.71-2.404-5.89c-1.237-5.36-.192-3.58 3.006-17.97 13.423-69.522 100.577-210.438 100.577-210.438zm-350.678 13.545l332.832 1.519-4.43 8.737-322.069-2.301zm443.652 2.525l12.359 12.039-12.083 13.557-12.718-13.301zm-10.141 5.116l-6.744 7.166 5.846 6.154c-6.019 12.628-22.031 2.776-21.493-6.679.628-11.058 13.545-15.59 22.391-6.641zm21.359 14.25l5.372-6.827-6.071-6.654c9.942-9.814 19.34-1.167 20.244 7.019.974 8.731-12.641 18.583-19.545 6.462zm-394.191-8.353l27.263.263-10.135 18.968-27.647-.116zm60.737.141h25.038l-10.577 19.231h-25.339zm59.134 0h26.564l-10.782 19.231h-27.282zm59.455 0h27.18l-9.891 19.231h-28.205zm60.558 0h26.198l-10.615 19.231h-26.962zm-289.346.103h17.609l-7.192 12.66zm439.057 12.134c10.077 8.09 3.077 21.378-7.43 21.616-7.224.166-17.724-12.071-6.365-22.039l7.564 6.917zm-370.384 10.218h25.596l-9.634 17.308h-25.077zm56.91.141h28.084l-9.898 17.308h-26.718zm60.135 0h27.942l-9.109 17.308h-28.231zm59.916 0h27.725l-8.635 17.308h-29.308zm-228.646.66h17.666l-7.532 13.866zm13.32 20.077l259.435 2.302-4.404 8.41-248.441.045zm9.115 15.064l243.109.597-5.59 11.64-83.993-.378c-16.391-12.237-35.122-6.583-56.487.378 0 0-64.301.674-89.583 0zm341.166 29.705c13.487 17.263 23.167 41.312 27.083 60.272 3.885 19.4-.327 28.9-5.288 11.93-8.218-42.458-58.551-48.65-81.013-15.77-31.198 45.68 23.462 101.11 62.641 63.98 3.346-3.17 5.199-3.94 6.333-2.6 1.314 1.54.404 2.92-6.57 9.95-27.224 27.43-17.109 66.9 19.75 76.08 52.32 13.03 83.948-50.91 38.224-81.11-4.756-3.62-5.263-4.53-3.526-6.49 1.545-1.74 2.891-1.54 7.122 2.29 39.192 35.45 92.724-10.87 67.929-58.77-19.102-36.909-72.249-30.134-84.967 10.87-2.372 7.64-2.552 8.09-3.866 8.94-5.448.2-1.609-17.81-.782-22.58 6.161-21.04 12.975-40.722 26-56.992zm-422.011 19.609l128.223 202.383-28.346-.32-121.756-190.383zm629.786 11.814c.852.641 12.795 33.499 10.461 36.509-.724 2.38-2.743 1.56-3.525-1.41-7.449-28.39-42.571-23.61-42.244 5.74.199 18.18 18.866 26.03 35.096 14.74 2.404-1.66 3.507-1.69 3.526-.09.006.48-1.865 2.96-4.167 5.52-13.045 14.54-8.128 34.61 9.475 38.73 23.66 5.54 35.115-21.09 17.327-40.25-2.59-2.78-4.706-5.34-4.706-5.69-.019-1.44 1.975-1.19 4.282.53 16.411 12.18 36.411 3.96 36.18-14.87-.301-24.85-31.192-31.4-39.68-8.41-2.115 5.72-3.153 7.25-4.23 6.21-4.154-2.18 11.121-37.618 11.545-37.618zm-655.491 1.372l121.057 189.157c-5.558-.13-10.712.21-16.269.12 2.25-35.32-26.18-51.89-42.878-52.73 10.019-41.31-20.103-58.69-40.199-61.98 8.147-53.69-36.295-61.3-36.942-60.76.218-4.41-.616-7.59-1.205-11.26zm-19.609 2.997c-.263 1.14 2.282 11.84-2.507 9.86l-.34-9.84zm-25.487.27c1.73 7.12 5.384 8.53 10.352 13.3 0 0-6.352 1.07-7.82.06-2.641-1.83-8.154-13.41-8.154-13.41zm18.935 12.03c3.071 0 5.552 2.5 5.552 5.57 0 3.08-2.481 5.56-5.552 5.56a5.547 5.547 0 0 1-5.551-5.56c0-3.07 2.481-5.57 5.551-5.57zm11 4.28c15.923-1.04 39.013 16.04 32.923 47.99-1.057-2.23-2.314-7.14-4.897-10.62-10.974-14.81-23.897 5.48-15.186 13.76 4.269 4.06 6.269 5.66 5.808 6.03-9.814-1.87-17.25 6.83-13.167 16.47 6.808 12.48 16.269 5.87 21.744-1.53 0 0 3.365 11.17 6.718 12.59 5.134 2.17 12.211-.58 14.621-6.78 3.584-9.22-5.134-11.58-7.051-16.72 18.417.6 41.884 27.52 31.205 50.87 1.404-5.32-4.301-17.24-15.391-14.17-5.545 1.94-7.474 10.01-3 18.31 1.43 2.66 2.199 3.65 2.199 3.65s-4.795.62-6.051 1.41c-14.391 8.85 4.16 33.03 14.865 17.91 1.096-1.79 2.884-3.84 2.884-3.84 1.77 3.36 2.308 8.1 5.532 9.73 13.263 6.67 19.173-7.42 13.603-14.32-3.141-3.89-6.679-8.38-6.679-8.38-.552-2.49 39.737 8.08 34.826 47.27l-106.807-.14c9.904-60.21-14.07-129.09-26.308-150.09l5.302-6.99c1.327 2.6 3.532 9.15 7.429 10.4 12.391 3.99 16.167-4.67 14.506-13.57-.884-4.74-7.519-8.55-9.628-9.24zm28.282 56.67c2.917 0 5.269 2.37 5.269 5.29 0 2.9-2.352 5.26-5.269 5.26-2.91 0-5.288-2.36-5.288-5.26 0-2.92 2.378-5.29 5.288-5.29zm634.472 48.72c-7.102-6.63-14.961-6.45-22.064-5.67l-.384 14.93s17.59-.88 15.25 8.23c-.628 1.79-1.475 7.79-1.475 7.79l-.23 76.53c2.859 33.64 46.166 40.37 56.839 8.45 2.058-5.45 1.718-10.4 1.718-16.35v-40.35l12.321-.24-.475-14.35-11.275.18c.82-20.16-2.661-39.57-16.814-44.18-15.564-4.68-25.334-.71-33.411 5.03zm36.731 34.44c-7.154 1.3-17.16-12.21-25.397-21.89 3.775-7.25 15.256-5.95 19.532-1.49 6.205 6.46 5.775 18.4 5.865 23.38zm-631.12-20.45c2.943 0 5.334 2.39 5.334 5.33s-2.391 5.33-5.334 5.33a5.33 5.33 0 0 1 0-10.66zm599.934 12.88c7.558 14.75 30.769 26.07 31.122 23.81l.128 40.59c1.18 16.26-4.532 24.18-14.839 25.24-18.071.2-17.872-22.24-17.872-34.75l-.244-40.06c.116-4.82-.461-10.83 1.705-14.83z"/></g></svg>