<svg clip-rule="evenodd" fill-rule="evenodd" stroke-linejoin="round" stroke-miterlimit="2" viewBox="0 0 934 1300" xmlns="http://www.w3.org/2000/svg"><g fill-rule="nonzero"><path d="M593.211 110.485S698.6 262.818 734.347 289.854c2.628 1.234 46.69-7.183 46.69-7.183-22.585-54.071-37.113-110.013-22.456-172.73zm58.564 240.92c-72.661 20.507-145.18 39.792-223.946 6.364l-86.018 83.106c-.715 2.143 111.468 50.468 113.233 45.179l-27.615 88.141 63.665 14.014 29.224-93.76s87.885-8.431 128.675-22.427c31.015-10.641 63.092-18.358 90.783-41.476-57.199-34.38-88.065-79.55-88.001-79.141zm-437.01 24.574c-27.536-16.898-49.059 17.881-28.895 35.247-2.37 10.145-3.175 25.244 6.639 31.877 9.022 5.702 25.843-.211 28.271-.149.174.005.438 18.261-.966 18.214-2.608-.088-12.454-8.476-18.534-10.296-20.524-6.154-49.387-9.19-48.878-8.13.856 1.776-5.114 5.985 17.787 20.366 8.507 5.341 35.387-.675 56.793 6.077 13.041 4.114 25.862 10.954 32.946 7.547 8.952-3.742 19.391-15.554 22.759-25.176.953-10.509-53.709 12.228-50.386 12.597l-.167-21.181c22.024 2.424 41.904-13.537 20.253-40.903 16.126-16.023-6.427-54.211-37.622-26.09zm91.762 96.877c-54.172 54.604-164.893 157.08-164.893 157.08l1.185 76.484 108.171 96.792c8.571-102.755 66.962-198.652 122.557-246.626 5.107-14.59-55.248-78.61-67.02-83.73zm385.935 18.89c-8.159 63.181-15.578 149.342-122.763 245.116 18.573 31.632 42.214 63.825 76.235 79.191 2.415 5.435 98.344-99.258 157.359-148.761l-.316-67.05zm-483.087 13.563c-.225 1.376-4.186 17.972-5.203 17.532.077.904 10.973-4.047 12.21-8.598 1.082-3.99 3.574-9.396 3.741-10.16-2.46-17.083-7.103-4.95-10.748 1.226zm-40.127 44.17c-3.896 9.403-7.541 26.675-6.195 37.918 19.191 9.605 24.407-30.352 19.243-34.171-3.092-1.306-10.414-3.839-13.048-3.747zm592.649 183.203c-1.777 7.966-1.397 10.33 2.145 11.888 6.214 2.724 9.003-.567 13.994-13.543 2.968-7.728 5.615-19.345 3.219-23.969-11.772-8.211-17.993 19.603-19.358 25.624zm-290.219-18.721c-3.768.033-7.393.342-10.748 1.108-31.678 7.245-29.276 62.589-34.653 84.665-99.503 14.194-125.823 20.955-153.089 32.154-42.394 17.42-55.814 28.046-67.033 36.811 7.046-.825 83.113 70.104 87.035 80.118-4.836-13.73 147.158-47.146 228.113-13.588 9.931 3.561 85.567-73.395 83.178-81.986 9.814-17.188-95.336-36.495-108.596-47.23-10.877-58.564 73.46-90.641 15.057-88.935-10.633.309-25.818-3.226-39.264-3.117zm264.64 65.79c-1.874 2.209-3.761 3.381-6.202 5.976l-5.551 7.322 4.044 6.543 10.362-11.43zm-74.194 73.64c10.916-4.926 49.665-23.712 51.332-19.365l-.824 18.805c-5.925-1.939-44.19 4.385-22.063 43.881-13.936 31.375 17.124 47.552 38.878 26.809 45.594 15.643 39.489-29.977 30.08-37.351 7.413-11.514-1.899-36.037-6.543-36.121 0 0 39.786 8.971 35.896 1.887-1.777-3.233-3.992-8.81-12.841-14.715-10.188-6.801-28.091-4.334-42.58-7.361-15.488-3.246-25.464-8.784-38.485-9.563-19.648 1.79-37.989 19.036-32.85 33.094zM218.732 1001.46l-54.822 14.65s17.735 41.16 23.872 77.84c7.503 44.89 1.507 93.68 1.507 93.68l159.104.81z" fill="#e2cf00"/><path d="M865.928 1255.46c-20.942-7.27-21.367-20.45-22.088-37.25-1.237-25.48-1.018-52.3 2.64-73.06 1.404-6.31 2.151-9.54-4.147-11.77-3.478-1.2-6.955-.72-10.427-1.25v-15.71c6.601-.35 12.732-.33 18.303 2.96 2.511 1.53 5.306 3.22 5.306 3.22 8.204-7.76 29.765-8.92 40.005.67 6.794 6.85 8.99 12.58 9.427 28 .329 11.38 0 12.15 0 12.15l11.824-.07v15.29h-11.824s.265 7.6 0 24.06c-.199 12.82-.45 21.19-1.345 27.29-4.025 21.28-22.965 30.27-37.674 25.47zm22.675-26.31c4.115-10.97 2.396-53.37 2.396-53.37-17.639-6.78-25.122-17.4-32.303-24.96 0 0-2.994 47.06.58 72.41 3.252 21.03 22.23 24.16 29.327 5.92zm.097-71.31c.966.14 2.06.21 2.209-.2 1.345-3.81-.999-19.75-4.985-22.95-10.729-8.61-20.537 0-20.221.39 5.062 6.88 11.006 14.44 18.676 20.41 1.449 1.2 2.685 2.11 4.321 2.35zm-527.102 30.04c-69.81-99.64-134.496-194.421-220.377-298.882 0 0 .071-40.374.372-80.417l263.836 378.309zm244.391-130.19c34.589-37.53 60.786-77.538 84.041-118.406 26.506 47.07 57.186 85.416 91.059 117.076-33.21 33.57-63.342 71.99-87.196 120.27-19.39-36.9-44.538-75.39-87.904-118.94zm229.562-12.07c14.754-15.46 27.454-32.77 39.387-51.046 13.259 18.806 21.251 32.866 39.064 52.706-15.295 16.2-28.162 32.48-38.639 50.2-12.622-20.11-25.779-38.81-39.812-51.86zM502.925 1027c-2.247-18.92-6.105-41.569-11.643-61.062l48.17-45.419c-5.197 40.586-13.176 71.725-36.527 106.481zm230.232-143.156c10.781 14.319-7.412 22.269-14.283 15.896-13.93-12.92 6.472-26.269 14.283-15.896zm-477.648-90.176c-7.994 5.123 14.364-124.865 75.736-192.044 37.329 106.924-28.533 166.873-75.736 192.044zm302.774-.481l-40.758-11.001 20.298-57.004s38.266 8.967 35.001 20.803c-10.626 38.534-14.541 47.202-14.541 47.202zm-188.689-21.912c11.038-18.145 19.417-38.151 27.131-58.622l57.957-8.032-33.591 65.147zm245.662-79.993c-31.549-62.812 5.616-162.229 74.252-189.594-2.473 63.698-22.231 128.218-74.252 189.594zm-212.027-17.847c1.389-22.31-1.167-45.689-4.253-66.408l143.471 19.123 5.017 60.136zm104.99-95.54c4.862-19.129 9.183-35.049 18.573-50.553 10.445.334 52.813-6.634 47.41 1.597-11.515 14.735-17.027 38.654-24.568 53.698-7.915-.838-43.785 5.338-41.415-4.742zm-95.031-10.958c-14.51-5.121-34.35-6.551-42.066-17.772l15.094-47.828 44.701 13.714zm125.447-456.345l35.032-.334S741.993 325.636 805.084 409.45c-2.099 8.532.702 80.83.702 80.83-89.359-125.756-267.151-379.688-267.151-379.688zM215.846 411.105c-9.412-10.104 5.556-19.057 11.781-10.029 5.481 7.952-6.818 15.358-11.781 10.029zm188.871-35.312c.544-49.911 35.937-109.145 35.57-107.631-.41-.097 5.045 48.792 11.846 64.177-1.835 2.711-45.742 46.582-47.416 43.454zm-150.764-16.564c-27.441-52.458-60.415-92.211-89.133-120.056 35.767-33.829 62.584-75.615 90.099-116.78 22.714 43.18 52.243 82.643 85.36 120.148-33.219 32.622-64.608 78.839-86.326 116.688zM33.223 252.738c16.072-16.032 39.822-52.499 39.59-52.545 11.301 18.459 23.214 37.566 39.616 52.821-.173-.165-25.421 26.971-38.459 52.484-11.633-21.261-26.991-39.769-40.747-52.76zm-2.282-116.03v-15.456h11.56s-.132 1.257-.04-19.818c.128-29.481 1.601-38.537 7.495-46.064 15.875-20.28 45.002-14.06 52.653 11.243.582 1.924 1.896 6.799 2.027 13.252.342 16.775.37 44.614-.182 62 .277 6.813-2.153 15.698-3.902 17.218.843 6.191 10.586 7.437 16.693 6.956v16.172c.03-.09-6.198.592-13.537 0-3.091-.249-10.231-6.136-10.231-6.136s-11.289 7.762-21.435 7.553c-33.198-.687-29.512-42.121-29.415-46.857zm26.592 4.078s.027 5.82.381 9.712c1.171 12.845 9.552 19.503 17.909 17.217 4.169-1.296 6.616-3.808 6.616-3.808-7.106-10.549-15.558-19.412-24.906-23.121zm30.849-64.3c-3.548-19.375-21.795-22.345-28.671-5.95-1.239 2.954-2.273 26.307-2.273 26.307l.142 27.587c14.804 3.254 22.973 12.752 32.22 23.528 0 0 1.856-49.582-1.418-71.472z" fill="#d40000"/><path d="M134.673 101.455l-1.32 1091.995 679.445.13-.225-1090.357zm620.926 8.546c-5.525 60.421-6.491 107.771 24.864 170.435-5.667 5.939-48.324 7.623-61.771 14.655-.245 1.688 3.452 4.607 3.452 4.607 14.065-6.526 68.907-12.48 68.907-12.48-22.965-40.033-41.86-117.035-27.634-176.089l39.586.126-.251 290.955s3.11 56.162 4.282 87.804c-21.077-27.237-49.026-65.28-67.277-93.519-22.14-31.149-46.792-67.69-72.107-101.972-7.464-10.8-18.103-24.813-26.784-37.431-13.633-19.487-24.903-34.608-39.045-55.584-15.095-21.72-29.565-41.433-47.513-66.653-15.211-21.465-15.92-24.009-15.92-24.009zm-259.971 1.128c25.656 44.592 71.592 59.694 83.145 62.701l6.717 9.817c-54.153-10.613-83.152-45.378-96.766-66.875-1.062-1.673-.94-5.517-.94-5.517zm-25.399 0c-7.097 16.839-17.034 26.514-26.449 36.711l.329-10.83c.289.679 14.097-14.639 18.849-25.881zm12.422 0s.206 2.878-.65 5.242c-5.435 17.556-39.2 50.881-38.227 45.888l-.341-8.597c-.149.37 25.36-24.289 32.038-42.533zm-24.548 0c-2.634 4.902-12.449 19.704-13.337 15.603l.869-15.603zm77.13 0c4.257 6.158 8.121 10.661 12.596 16.959.831 1.2 1.333 2.62 1.127 3.159-.682 1.749-2.704.451-8.294-4.502-9.164-8.125-15.398-15.616-15.398-15.616zm-34.144 0l8.294.021c17.175 28.521 47.984 43.697 58.648 47.015 2.847 3.136 5.912 8.872 7.103 10.141-28.754-7.789-60.972-32.104-74.045-57.177zm20.163-.12c9.151 13.198 23.48 22.45 31.555 28.766 4.341 3.403 10.072 10.352 9.538 11.732-17.98-5.682-39.007-25.611-48.66-40.378zm-35.245 8.166l4.997 7.955c-12.107 19.963-27.292 37.948-47.539 52.123l-.11-10.426c22.978-16.547 32.908-33.176 42.652-49.652zm8.107 11.529c14.432 19.445 45.543 49.539 95.433 58.532 0 0 2.833 2.56 6.961 8.186 5.249 7.138 5.326 7.42 6.022 19.119.463 21.409 7.418 50.465 14.328 68.746-.856 4.544-1.655 6.859-10.226 18.434-35.709 48.231-111.784 93.85-149.264 31.586-12.499-19.948-13.717-58.191-14.509-82.039 0 0 .239-1.678.329-2.131.901-4.329 2.144-3.647 8.906-1.793 6.859 2.944 14 .566 21.258-1.409 8.269-3.338 8.958-.765.985 6.675-2.756 2.572-6.13 6.505-5.776 6.315.354-.189 4.991-2.082 7.039-3.642 6.369-4.849 7.876-2.992 5.519 2.345-10.014 22.635-11.792 23.537 2.292 29.824a25.344 25.344 0 0 1 6.588 4.212c9.628 9.063 6.17 4.181 3.478.02-4.141-6.513-.399-9.955 6.594-5.923 4.676 2.696 10.813 4.87 14.155 3.839 6.479-2.109 8.456-9.208 6.537-17.02-1.54-4.32-10.394-11.951-8.353-3.965 5.319-.239 9.917 7.308 5.294 12.418-3.491 4.706-9.718 2.164-19.262-4.146-5.274-3.965-11.676-1.938-11.431 2.938.168 3.274-4.469 2.521-7.483-1.65-1.668-2.317-.534-8.986 2.608-15.304 19.79-39.786 3.104-78.364-31.169-67.489a286.086 286.086 0 0 1-7.167 2.166l-.181-15.22c19.674-13.712 40.546-35.578 50.495-53.624zm20.009 71.427c-5.171 6.238-3.336 11.79 8.005 6.198 9.241-4.552 10.523-5.089 20.588-5.453 14.29-.516 27.118 4.029 42.986 13.765 10.523 6.453 12.056 6.941 9.196 2.898-8.494-16.26-58.718-40.948-80.775-17.408zm-48.531 1.862c9.918 2.498 19.436 9.049 17.781 11.763-.599.976-1.172 1.162-2.435.503-7.257-3.584-18.823-9.444-35.541-2.294-1.842.788-2.866-.435-2.86-2.656.02-4.315 7.277-7.76 14.947-8.038 2.731-.003 5.712.137 8.108.722zm57.611 12.614c-5.912 3.071-7.94 4.708-10.452 3.335-6.002-3.28-4.733-.707-1.004 5.896 2.627 4.659 2.601 5.618 2.215 8.472-.425 3.104-.361 3.224 2.653 6.541 5.642 7.415 11.257 14.567 19.706 20.191 2.634 1.754 6.15 3.749 6.414 3.757.844.026.522-.645-.985-2.113-10.819-10.406-19.352-19.733-8.333-15.771 12.828 4.182 25.032-1.029 35.033-4.43 4.076-1.258 8.365-2.319 9.428-2.318 9.235.01 11.418-3.836 5.512-9.7-19.989-22.413-36.572-27.688-60.187-13.86zm47.43 4.2c4.128 3.816 6.305 5.889 5.892 6.883-.444 1.066-3.625-.74-8.951-3.582-10.729-5.718-22.887-7.063-38.079-2.677-11.791 3.406-8.314-2 4.83-7.084 10.523-4.853 25.045-3.403 36.308 6.46zm-110.141-7.72c9.009-.145 18.392 2.813 24.671 8.223 4.379 3.774 1.178 4.653-5.938 1.711-10.761-4.451-19.828-5.16-28.657-1.027-2.776 1.298-5.97 2.842-6.846 2.758-1.474-1-2.099-3.903-.824-5.957 3.548-3.483 10.587-5.596 17.594-5.708zm148.497 3.091c.663.029 1.655 1.08 3.136 3.16 2.698 3.783 2.801 5.652.567 12.276-2.731 8.088-3.826 6.776-4.508-4.508-.445-7.321-.457-10.982.805-10.928zm8.932 12.196c1.03-.146 2.228 1.667 4.147 5.414 1.34 2.614 1.024 3.397-3.162 15.636-1.745 5.122-3.394 9.202-3.439 9.238-1.288 1.013-1.12.924-1.668.221-2.981-3.81-2.769-11.24-.199-20.145 1.945-6.749 3.001-10.176 4.321-10.364zm-81.181.926c.328-.028 2.325.407 2.325.407-.206 18.129 13.813 14.482 15.668 1.605 0 0 3.458-.356 3.986.502 1.662 2.697-2.196 10.452-7.966 12.99-4.212 1.879-9.937 1.422-13.356-1.726-.953-1.773-3.851-8.509-3.31-11.303.669-1.631 1.68-2.391 2.653-2.475zm-8.353 2.118c.142-.007.277-.007.425 0 1.372.07 2.377.441 2.918 2.108l3.001 9.209c-2.209 2.642-10.607-2.711-10.588-6.729.007-2.774 2.093-4.482 4.244-4.588zm-57.005-.019c2.118-.205 2.865.031 3.11 2.008.715 5.984-5.268 12.488-13.034 12.841-7.509.84-11.566-4.988-11.334-10.67.019-4.319 3.735-4.859 4.147-1.445 1.191 9.859 9.615 10.426 13.466 4.982 1.455-2.134 1.12-7.389 3.645-7.716zm92.244 2.006c.599-.024 1.398.201 2.576.604 7.747 2.473 7.954 3.67 1.327 6.057-7.902 2.847-8.411 3.22-6.556-2.294 1.03-3.076 1.34-4.313 2.653-4.367zm-82.134.869c5.745.356 6.228 5.216 1.172 6.839-7.522 3.319-10.052 3.103-7.142-1.795 1.585-3.468 2.995-4.978 5.97-5.044zm-35.934 1.748c.682-.008 1.468.256 2.312.885.863 2.606 2.324 4.61 3.484 7.305-1.179 1.171-3.993 1.152-5.79-.27-3.593-2.853-2.982-7.892-.006-7.92zm180.6 5.614c2.228.013 4.495 3.547 5.235 6.18-7.792 10.012-6.569 28.705-8.378 34.349-1.571 4.592-2.08.629-6.414-11.266-1.752-4.801 7.071-28.672 9.112-29.203.142-.037.29-.061.445-.06zm7.966 10.264c1.732.99 4.089 3.263 4.508 6.842.238 2.076-.786 4.836-1.449 7.567-1.572 6.491-3.703 18.755-4.47 30.086-.322 4.823-.309 9.16-.521 9.58-2.344 4.595-7.29-7.769-6.865-17.611 1.539-7.859 2.395-35.385 8.797-36.464zm11.005 14.127c1.102 1.53 1.804 2.702 2.138 4.021.593 2.293.097 5.031-1.249 10.871-3.574 15.478-3.059 32.16-.728 49.286.496 3.602-2.009 1.798-5.795-4.408-2.093-3.441-3.439-8.156-4.083-13.725-1.321-12.174 1.223-28.677 3.387-41.696.953-5.761 1.623-10.839 6.33-4.349zm5.938 9.418l6.26 7.547s-2.673 17.35-2.654 26.605c-.438 3.466 3.111 41.164 4.263 44.214-3.844-4.309-5.641-6.843-9.859-12.256-.483.078-4.128-37.142-1.61-51.379 1.526-8.61 3.6-14.731 3.6-14.731zm9.821 14.993c1.049-.038 2.389 1.145 4.063 3.502 1.52 2.126 2.254 3.872 2.338 6.52.058 1.93-.895 3.42-.927 6.863-.174 20.506 2.595 39.859 6.085 58.518 1.23 6.676-1.165 3.952-5.126-.271-3.625-3.867-3.696-5.338-5.628-10.835-.393-1.097-4.257-38.914-4.218-41.772.135-11.751.47-18.296 1.822-21.116.444-.921.96-1.386 1.591-1.409zm-22.746 41.205s-7.283 3.75-9.196 2.434c-3.078-8.391-14.174-30.853-14.367-34.831.199-1.308 4.553-7.218 4.553-7.218 6.13 13.307 11.649 26.921 19.01 39.615zm-137.131-26.978c-2.196 2.581-4.817 1.504-10.11-.823-2.718-.834-2.299.284-6.788 2.616-3.477 1.808-4.701 1.855-7.006 1.835-3.04-.026-4.135-1.092-4.148 1.047-.006 1.183-.18 6.529-.901 9.293-.973 3.761-1.829 5.421-1.295 6.074 1.552 1.417 2.847.553 6.112-2.598 5.409-5.225 9.054-3.727 15.082-1.784 6.852 2.21 8.275 3.024 14.541.833 8.881-3.103 14.226-3.107 17.768-.855 6.092 3.881 7.934 3.652 5.422-6.959-.811-3.42-.869-8.725-1.365-9.644-.567-1.041-2.119 1.928-3.735 3.019-3.104 2.086-4.708 2.047-11.695-.241-4.141-1.357-8.778-5.794-11.882-1.813zm112.408 1.385c2.705 6.373 13.473 27.67 13.144 30.049-2.099 1.883-4.901 3.255-6.568 1.571-5.384-9.82-6.994-15.115-11.367-26.136-1.307-2.635 2.595-9.349 4.791-5.484zm57.818-.783c.76-.106 2.357 1.477 3.542 3.062 3.683 4.931 3.902 5.543 4.018 10.827.425 19.161 2.834 41.715 8.237 59.106 1.062 3.423 3.071 7.585 2.853 8.151-1.81 2.638-10.201-4.428-12.739-15.175-3.49-13.646-5.538-27.885-6.645-37.153-1.411-16.302-1.404-27.968.734-28.818zm-64.586 10.568c3.104 5.98 7.013 16.3 9.641 22.491 1.197 2.688-4.933 4.807-6.344 3.893-2.447-1.829-3.606-6.977-5.216-10.062-5.12-11.19-6.041-11.425-3.201-14.911 1.746-2.422 3.832-5.391 5.12-1.411zm76.738 6.863c.45 0 1.03.438 1.771 1.388 3.232 3.824 5.435 6.746 6.279 9.58.611 2.056.122 3.599.341 7.325.579 9.761 3.143 23.085 10.407 50.352.708 2.659 1.668 5.806 1.545 6.661-.702 5.006-8.043-3.109-10.181-11.491-2.48-9.515-7-21.668-8.333-32.904-2.744-17.835-4.264-30.913-1.829-30.911zm-83.203 7.209c6.105 14.248 6.588 14.223 2.743 15.35-4.064 1.192-4.308.802-9.08-8.9-3.484-7.08-4.173-7.968-1.243-10.52 4.475-5.27 5.648-.244 7.58 4.07zm-85.039-3.398c-.696.014-2.737 1.564-4.798 2.378-5.042 1.997-14 2.134-19.461.489-9.673-3.884-6.949 1.16 1.61 4.23 6.639 2.234 19.796.501 21.838-3.638 1.249-1.324 1.706-3.477.811-3.459zm73.569 7.492c5.448 8.424 7.084 11.789 6.163 12.444-.869.871-5.184 2.5-6.961 1.63-2.229-1.092-4.167-6.293-5.146-10.372.683-1.992 4.263-5.563 5.944-3.702zm-136.538 3.549c2.434.01 8.771 8.526 7.483 10.062-.354.79-2.731.038-8.282-1.5-1.848-.681-6.04-1.23-4.714-3.917.657-1.22 4.54-4.649 5.513-4.645zm130.691 11.672c-.548 1.456-4.656 1.798-6.402 1.691-1.5-3.124-1.899-4.614-2.318-6.682.573-1.241 3.387-4.454 4.772-3.824.837.743 3.523 7.276 3.948 8.815zm113.399-8.211c.87.031 2.377 1.554 4.611 4.75 4.225 6.039 3.652 5.599 6.679 20.024 3.438 16.358 7.554 28.008 11.714 44.717.058 2.773-1.069 2.036-4.148.161-5.029-3.065-6.684-6.468-8.268-15.335-2.705-14.648-8.417-28.199-10.607-45.502-1.159-5.723-1.249-8.859.019-8.815zM569.5 346.856c2.968-.101 2.569 4.475 1.719 5.216-2.17 1.891-8.153 1.327-9.183 1.433-2.293-3.603 5.525-6.527 7.464-6.649zm141.864 15.568c.875.12 3.219 3.432 7.605 9.599 4.218 5.926 3.291 4.958 5.815 14.712 3.574 13.477 9.48 23.197 12.938 35.6 0 1.418-1.72 1.235-3.355.563-3.201-1.339-6.054-3.6-8.758-5.816-1.849-1.998-1.836-4.539-7.303-23.344-1.977-6.785-2.486-8.549-4.953-18.857-2.06-8.62-2.981-12.593-1.989-12.457zm-457.161 40.264c14.342 26.382 9.029 38.082-21.805 41.736-2.228-.313-.129 13.516-.187 19.696 15.449-8.839 34.131-10.903 51.352-16.452-4.689 15.012-12.919 32.026-37.848 29.406-26.049-20.133-56.716-8.037-77.523-16.21-11.315-4.216-15.636-16.785-15.771-18.941 13.569 1.359 28.896 4.267 42.046 3.315-14.367-11.065-10.162-26.379-8.14-33.381-16.808-21.195-2.776-45.035 21.638-39.492 2.524.573 7.502 3.027 7.502 3.027 23.551-21.083 50.85-1.276 38.736 27.296zm476.499-12.834c.973-.093 3.13 2.453 7.445 8.492 12.809 17.916 23.898 34.582 23.724 35.52-.547 3.086-13.897-2.321-17.265-6.741-3.832-5.036-14.625-30.959-14.612-35.078.007-1.374.2-2.145.708-2.193zM209.15 466.589c6.665.978 8.526 1.542 8.455 4.145.567 2.212-16.164 2.506-18.437.866-1.81-1.31.528-4.182 2.318-4.87 2.589-.782 5.159-.509 7.664-.141zm461.34 2.374c-93.501 44.161-131.754 161.617-84.556 251.631l-6.498 4.689c-46.27-95.167-11.849-197.146 63.33-248.648 3.046-2.164 9.776-3.835 12.905-5.909 0 0-30.666 6.996-41.047 11.057-2.106-.072-8.295 2.109-14.941 9.316-5.809 5.383-23.975 30.429-23.396 31.301l-48.267 1.944.039 1.784 47.378-1.095c-48.788 80.326-36.804 156.754-6.678 210.244l.747.496c1.752 1.179 6.356-2.189 15.913-11.25 3.941-3.729 8.9-8.359 11.031-10.304 5.906-5.41 14.323-14.747 20.106-21.49-32.805-66.862-.445-154.924 76.319-194.608.135-2.112-.818-8.563-.818-8.563s-2.898-2.605-4.611-2.338c-85.522 37.672-119.788 131.223-85.019 216.296l-5.732 6.24c-43.694-88.098 3.207-198.21 84.981-229.404-.039-1.99-1.81-4.531-4.006-3.001-88.284 40.988-126.762 145.658-83.512 234.878l-5.448 4.811c-49.201-97.686 2.64-207.151 83.911-244.555 2.396-.555-2.131-3.522-2.131-3.522zm-475.875.911s-.625 5.202 1.217 6.978c.844 3.712-.509 3.309-3.664 2.556-7.773-1.853-1.713 2.569 4.649 6.138 6.26 3.516 5.423 3.398-.045 6.863-3.67 2.329-3.284 3.203-2.794 4.97.734 2.625 1.236.877 2.756-.523 3.2-2.939 5.751-3.674 8.597-3.663 4.263.017 4.695 3.434 3.941 6.098-1.693 5.593-7.451 5.295-12.178 3.905-7.721-2.275-20.337-15.672-20.137-23.556-.541-7.064 9.125-10.089 17.658-9.766zm34.724 1.726c2.994 1.1 6.762 2.571 10.903 4.307 5.725 1.819 11.527 4.779 15.269 7.273 11.392 7.594 10.696 22.782 9.872 24.291l-58.854 55.777s-3.323-1.623-6.453-3.221c-9.898-5.049-12.274-7.708-6.781-10.505 2.666-1.356 3.522-4.272 3.902-7.124.509-3.821.31-3.169 2.596-4.91 3.98-3.03 4.166-4.281 4.186-9.318.013-3.334.36-4.869 1.571-6.963.966-1.662 1.977-5.132 2.66-9.116.109-.655.141-2.291.27-2.865.696-3.117 1.681-4.035 2.344-4.743.657-.705 1.72-3.108 2.454-5.192 1.642-4.645 1.333-3.956 3.986-3.441 3.851.748 3.297 2.994 2.879 6.561-.206 1.73-1.359 2.944-.966 2.555.521-.521 2.891-1.639 3.381-1.75 1.23-.282 2.46.141 2.775 2.072.174 1.076-.29 3.057-.264 4.589.078 3.968.245 8.723 1.147 11.853 4.372 15.082 3.503 12.993 2.015.443-.354-3.004-.773-7.416-.341-11.089.303-2.589 1.043-5.795 2.048-7.546 2.589-4.502 2.73-5.392-2.872-7.608-2.087-.823-5.629-2.265-6.363-3.703-.895-1.759-3.568-4.153-7.045-4.97-8.456-1.988-13.376-10.157-12.152-11.371.798-.794 4.205.246 6.356.322 7.721.275 9.363-.122 12.783-3.059 1.823-1.563 2.64-2.954 4.089-3.057 1.527-.029 3.478 1.108 4.605 1.508zm400.605 9.036c-79.062 63.968-92.921 167.445-53.477 247.293l-6.826 5.365c-49.574-93.664-16.28-194.7 44.622-249.955zm-456.471 7.627c1.391-.131 2.917 1.916 8.468 7.849 3.742 3.996 7.638 7.467 9.68 8.633 4.649 2.224 3.632 1.298-.239 4.971-3.954 4.538-1.771 8.27-6.498 5.997-12.306-5.775-20.942-22.789-12.944-26.886.606-.31 1.063-.52 1.533-.564zm-6.118 17.891a3.08 3.08 0 0 1 .947.101c1.513.37 3.355 3.222 5.332 5.212 5.467 5.506 8.005 7.948 12.377 9.881 4.296 1.9 4.412 2.361 1.385 5.715-1.095 1.22-1.752 2.686-2.009 3.502-.258.816-.329 1.856-1.25 2.033-4.791.919-20.704-8.735-21.328-15.395.508-6.23 2.086-10.861 4.546-11.049zm33.726 1.851c2.762-.071 4.385 2.39 4.366 6.38-.007 2.763-1.565 3.887-4.727 5.072-6.762 2.53-10.922-2.307-6.202-7.648 1.99-2.245 4.676-3.755 6.563-3.804zm-4.122 16.241c5.101.02 6.575 4.32 2.834 8.03-3.51 3.484-10.6 3.502-10.581-.322.006-3 4.501-7.721 7.747-7.708zm-31.62 5.145c3.452 1.019 11.85 7.069 15.54 7.78.193 2.04-2.261 2.598 1.223 6.435 1.585 1.741 1.72 2.93.348 3.662-4.218 2.245-18.811-4.85-19.783-12.155-.477-3.567.708-5.595 2.672-5.722zm19.043 8.741c5.017.209 10.697.358 10.098 2.757-.432 1.74-2.228 6.334-4.527 5.474-1.115-.418-2.203-1.529-2.976-2.274-2.679-2.57-3.393-5.99-2.595-5.957zm189.86 20.785c14.625 13.241 67.761 151.554-42.966 252.325l-23.493 7.039c106.309-83.474 88.619-201.978 59.936-253.101.006-1.501-.419-1.33-3.065 1.066-2.312 2.098-2.564 2.551-1.63 2.938 32.419 49.886 44.538 190.79-83.197 258.782-2.138 2.229 2.196 1.887 2.196 1.887.226-1.829 57.515-15.752 53.471-16.099 53.399-47.198 99.889-159.759 42.014-257.872-1.398-.919-3.266 3.035-3.266 3.035zm-18.443 15.66l-.741 3.12c46.341 90.984 2.106 202.453-84.04 243.707 1.417 1.044 2.988 1.758 4.572 2.499 97.725-52.62 125.906-163.993 83.274-250.256zm-7.747 6.452l-.541 3.302c38.368 77.435 7.908 184.891-83.661 228.482-.869 4.689.019 3.317 4.302 3.092 105.949-56.813 115.905-164.864 82.759-235.031zm-6.582 9.286c-2.988 3.955-8.468 6.003-10.291 11.094 30.783 81.348-8.996 159.654-76.345 192.664-.051 4.096-2.988 14.226 4.141 12.603 83.197-37.686 119.402-137.868 83.023-216.725 0 0-.477.346-.528.364zm417.916 157.282c3.059.219 5.808 1.146 8.648 1.513 10.336 1.34 17.04 8.874 12.423 13.46-1.52 1.506-3.639.637-10.349-2.647-3.085-1.507-3.581-2.917-4.218-6.324-.766-4.077-1.584-4.489-2.621-1.327-1.043 3.201-2.17 5.184-5.699 4.373-9.911-2.306-6.163-9.125 1.816-9.048zm-110.554 69.261c-24.813-14.084-55.46-39.477-72.976-68.334-8.713 16.345-18.946 46.084-18.946 46.084l-38.949-10.877-.463.811 38.497 11.096-3.748 12.841c-.406 1.391-6.369 16.01-6.369 16.01l60.136 28.065c-3.729 5.828-7.793 9.595-12.957 15.037-2.924 3.065-3.001 7.039-3.001 7.039l83.37-79.526s10.755 15.951 14.754 19.564c3.754 3.394 4.92 4.218.541 5.229-19.59 2.873-34.788 17.704-29.488 37.596.856 2.216 2.582 1.404 6.298-.933 13.002-11.779 44.796-22.682 45.878-19.913l.128 12.668c-34.228.496-30.718 25.656-28.213 39.148 0 .289-9.898 8.945-9.898 8.945 3.504 1.835 6.93 3.735 10.162 5.995-3.007 16.782 11.296 41.112 39.387 28.658a165.312 165.312 0 0 1 7.399 8.127c2.872-3.33 6.189-11.173 6.189-11.173 13.955 6.317 42.909-7.818 28.097-40.192l8.166-7.786-7.844-4.945c-.2-8.23-1.475-15.585-6.388-22.752 0 0 13.169 3.355 22.919 3.921 6.021.541 11.096.696 10.587-2.943-.148-1.069-1.049-6.311-1.636-8.024-2.904-8.481-17.986-14.708-32.63-15.533-2.39-.128-4.965-.058-5.474-.676-.96-1.165.76-2.814 2.331-2.544 8.024 1.398 15.739-4.527 17.124-12.074.277-1.32 1.919-3.742 4.269-6.318 4.173-4.566 4.502-4.45 4.424-11.051-.058-4.578.747-5.596 2.86-8.668a21.2 21.2 0 0 0 2.621-16.009c-.432-1.874-2.209-4.521-.696-9.19 2.46-7.599-2.943-14.541-10.027-18.502-.566-.161-.399.4-.869.96-6.427 2.003-14.258-2.608-14.258-2.608-1.61-.792 5.474-41.988 20.163-38.305 2.448 1.481 3.478 8.636 3.291 8.765.676-.019 1.043-4.212.097-7.013-.998-2.937-3.278-5.738-7.657-4.907-3.401.637-7.322 5.152-9.093 7.412-6.865 8.745-6.943 14.329-9.235 23.628-1.101 4.398-1.224 4.141-7.309-.612-4.367-3.413-6.485-4.501-4.966-6.504.683-.902 3.517-3.742 3.517-3.742l53.174-51.17v512.397H501.417l2.106-65.84c5.641-46.31-4.283-143.536-11.798-152.681 5.796-6.504 23.77-22.198 22.778-22.906l-2.383-1.411-9.505 8.746-23.467-7.11c-10.014-6.916-20.228-13.305-30.828-16.029-17.304-4.443-50.636 9.712-50.669 9.86-53.251 3.941-95.896 25.566-95.297 25.399-2.318-2.126-5.39-8.926-5.467-8.887-27.453-38.195-54.437-59.595-91.305-85.702l46.696-25.798-110.657-115.616-.972-93.881L300.95 478.926c.94-2.647 51.139 35.453 69.828 66.457 3.587-15.156 10.259-28.918 15.823-43.8.579-1.36 31.89 11.577 41.176 12.125 1.391.082 2.512-1.383 2.512-1.383l-41.325-13.438 8.456-24.203s2.943-6.576-.38-7.667c-18.837-6.093-36.514-16.833-54.533-25.983 0 0 8.417-9.355 8.546-9.769.115-.389 3.529-5.409 2.717-7.139-9.17 8.891-83.957 78.249-83.957 78.249-2.125-11.904-5.467-16.065-12.738-23.41 3.961-.19 10.156-4.106 13.743-6.717 10.961-7.984 16.924-22.232 15.488-30.556-10.516 3.347-20.022 7.272-33.198 9.664-7.405 1.344-14.431 4.688-18.688 8.276l-.657-13.282c.026.152 17.729 3.104 25.933-8.778 7.065-10.239 4.167-21.96 2.544-27.936.187-1.327-.212-1.178 2.84-3.984 2.248-2.073 5.751-4.75 5.751-4.75.155-.754-9.138-4.197-10.71-7.343 2.473-24.617-17.194-34.12-33.841-29.747-3.111.939-4.598 1.522-8.295-2.599-.553-.614-4.991-5.304-4.991-5.304s-1.964 4.52-2.968 6.5c-3.265 6.438-4.16 4.5-11.199 4.845-17.832.874-25.786 15.27-21.696 32.944.966 4.148.534 3.509-2.19 8.754-1.391 2.679-3.664 6.098-3.664 6.098s3.271 1.812 5.474 2.797c3.265 1.459 3.432 3.166 3.419 6.42.458 7.172 2.035 11.973 6.157 18.134-13.968.321-24.684-.983-37.332-5.184 1.938 19.449 16.274 26.691 33.829 29.541 0 0-1.842 1.72-3.781 2.487-4.108 1.191-6.678 4.798-6.639 8.03-.593 3.086-2.589 6.185-4.424 7.834-2.737 2.366-4.985 5.7-3.909 12.15-.271 4.673-1.404 6.024-2.776 7.808-2.756 3.583-3.683 7.144-2.994 11.854.315 2.191.991 6.883.541 11.732-.754 8.083 2.138 11.114 5.815 16.805 2.383 3.686 1.88 3.784 1.326 6.459-1.32 6.423-2.698 9.725-4.121 14.611-3.201 10.931-3.317 19.219-.709 21.352 3.942 3.214 8.398 2.247 10.472 1.607 15.533-4.796 12.841-20.051 13.659-30.287.444-2.632 1.346-3.897 2.215-3.774 4.392 5.141 9.035 8.115 15.018 11.355-20.679 21.041-34.183 33.916-60.316 56.87l.708-512.522h298.154s.315 3.792-.4 22.338c-1.288 37.69-2.872 77.172-.399 115.595.412 13.297.142 26.428 2.054 39.585 1.862 12.818 2.679 26.64 8.675 38.579 2.402 6.472 2.479 5.974-6.691 14.449-4.495 4.158-8.32 8.584-8.153 9.364.052.26-.2 1.235.489.683.458-.367 3.781-3.657 4.154-4.091 2.48-2.929 6.64.831 20.827 4.831 2.775.785 6.697 3.404 9.698 5.575 21.2 17.866 51.03 12.295 73.331 2.551 6.33-2.765 7.882-3.051 18.051-4.257 37.667-4.465 77.91-20.921 77.826-20.87l4.92 8.054s1.848-.342 3.168 1.684c21.664 40.916 92.387 87.668 91.131 85.502l-46.232 25.593c33.661 41.585 110.624 112.135 110.624 112.135l-1.771 101.399c-20.665 16.526-38.839 35.472-57.005 53.967-5.223 5.171-8.913 8.127-6.93 8.224 4.714-.721 8.791 3.935 12.629 7.161 2.428 2.705 1.842 2.46-.96 6.163-1.97 2.602-2.692 3.355-2.704 5.236.07 3.638.045 6.072-3.195 8.803-2.009 2.524-3.155 4.141-3.522 7.135-.361 2.982-.335 4.901-2.389 7.541-3.484.741-3.813 5.815-3.201 8.082 3.651 3.613 1.983 7.529 2.325 6.704-6.968 7.561-14.277 14.11-9.608 3.542 2.105-3.935 2.833-7.193 2.833-7.193s-3.349 3.471-5.107 5.113c-2.679 2.486-3.664 1.024-3.741-6.691-.348-5.841-2.808-13.987-3.787-15.546-.547-.869-.638.638-.386 6.26.341 7.393 1.223 9.544-1.385 16.924-3.516 9.975-6.015 11.385-.303 11.044 5.41-.328 9.989-.386 12.352 2.847.799 1.088 1.829 2.949 4.012 4.05 4.456 2.435 7.998 5.133 10.471 7.825 8.005 8.706 5.713 16.486-9.769 11.212-8.146-2.783-2.814-6.279 5.95-5.468 5.378.502 6.286-1.488 1.63-2.911-8.662-1.603-10.059-2.582-15.771 4.212-23.989-2.37-37.455-15.784-43.933-26.706-2.705-4.573-3.536-5.442-1.649-8.031.741-1.017.296-.708-.985.702-1.275 1.417-4.759 2.595-5.912 3.613-8.063 8.037-16.228 16.679-23.493 23.216zm104.41-56.311c4.07.503 3.993 3.922.354 7.213-3.413 2.582-5.751 3.085-7.683 1.14-3.374-3.4.986-8.378 7.329-8.353zm11.856 2.37c3.284-.013 7.47 1.501 12.442 5.629 5.937 4.933 7.29 16.879 1.841 18.946-2.286.869-2.64.019-7.502-4.605-3.284-3.117-6.846-5.937-10.349-7.605-7.155-3.407-8.069-4.695-3.233-7.013 1.018-.522 2.332-1.752 2.937-2.718 1.243-1.99 1.616-2.621 3.864-2.634zm-7.728 15.907c.947.026 2.222.605 4.205 1.668 12.062 6.588 17.955 16.911 13.872 22.739-2.673 3.825-7.033 2.363-10.356-3.059-1.867-3.053-6.832-6.962-12.474-9.821-6.459-3.271-6.594-3.741-1.932-5.976 1.913-.914 3.349-2.215 4.289-3.864 1.082-1.913 1.172-1.726 2.396-1.687zm3.864 24.6c9.112 9.087 8.069 14.007 2.151 17.703-4.044 2.525-10.523 3.156-12.648 1.063-3.433-3.001-3.342-6.44.451-7.548 3.542-.753 2.215-2.176-1.095-3.013-11.811-3.356-19.075-9.622-6.234-8.263 3.684.387 7.251-2.473 9.183-4.759 2.782-3.387 6.55 3.181 8.192 4.817zm-621.326 3.503L405.817 1187.6l-214.976-.42s-.805-2.79.947-25.61c2.582-30.95-1.391-57.8-8.72-88.02.928-.11-10.291-36.69-19.017-54.56-1.584-3.75-1.326-4.11 3.826-4.77 15.217-2.45 31.607-6.13 46.811-12.56 7.065-.62 17.439 2.13 16.879 1.27-.251-.41-9.19-8.609-9.19-8.609-24.825 9.919-47.732 13.539-69.293 16.009 28.626 48.71 38.839 115.02 30.255 174.58l-41.19-.12-.128-293.14zm47.52 56.382c3.755-.149 13.118 6.452 14.258 11.424.232 1.017 2.666 7.122 5.39 12.802.058 1.05 9.274 17.697 5.223 16.242-8.056-10.948-22.456-29.592-26.075-38.678.006-1.211.154-1.752 1.204-1.79zm28.728 16.647c.503 2.749 3.291 9.943 5.494 14.683 5.738 12.351 14.625 31.716 12.821 37.228-1.217 3.716.033 3.523-3.219-1.062-1.591-2.248-6.556-9.171-7.754-10.768-2.904-3.902-.947-.322-2.608-6.671-3.961-17.968-10.356-27.402-14.509-37.899-1.481-4.927 7.869 2.505 9.775 4.489zm5.114 2.743c.772.541 11.308 7.947 12.377 9.016 3.735 13.279 18.669 55.84 14.805 63.445-1.352-1.056-7.045-7.921-7.83-11.456-1.726-20.35-8.179-34.988-15.108-50.154-1.952-4.572-3.478-9.138-4.244-10.851zm19.822 14.94c3.335 1.63 6.787 5.358 8.745 8.688 1.307 2.254 1.977 4.914 3.207 10.51 3.819 17.362 11.109 34.962 7.831 53.489-2.048 2.776-6.491-3.509-7.129-9.698-2.106-20.518-3.909-30.345-11.128-54.475-1.398-4.682-2.46-8.353-1.526-8.514zm16.924 15.92c.714.026 2.17 1.352 4.611 3.638 4.733 4.45 5.403 6.086 5.428 13.466.155 10.845 3.768 23.222 4.328 34.17.322 6.318 1.481 22.656.502 23.628-1.378 1.9-7.496-5.023-7.019-15.636.779-12.757.142-22.366-5.294-44.435-2.518-10.201-3.786-14.561-2.698-14.812a.32.32 0 0 1 .142-.019zm490.937-64.444c19.004 12.191 12.3 34.705 8.237 37.467 26.236 33.153-14.548 50.122-27.492 38.208-19.159 19.036-52.034 3.078-39.374-28.297-.012 0-24.059-45.961 23.39-42.889 0 0 .818-18.567-.522-19.417-16.936-1.139-39.965 15.166-46.489 19.681-3.613 2.189-4.405 1.14-4.405 1.14-.908-9.635-.927-14.052 2.988-19.423 6.833-9.383 18.135-12.551 32.979-15.81 18.373 5.654 35.863 14.535 52.884 13.15 9.37.058 18.959 1.572 28.046 6.447 6.13 2.891 9.318 13.742 9.318 13.742-9.615 5.03-39.56-3.999-39.56-3.999zm-9.035-68.16c.077-3.29 3.799-6.961 7.457-6.53 5.03.361 5.687 6.318 1.217 8.507-1.294 1.044-5.467-.495-5.692.664.302 2.028-1.739 1.172-2.132.438-.696-.863-.85-2.093-.85-3.079zm-3.046 12.977c1.842-1.295 3.387-1.404 5.242-1.649 2.853-.348 6.504.084 7.316 3.072.792 2.937-4.837 4.662-9.39 4.74-2.318.038-5.004.489-5.699-1.134-.65-1.526 1.597-4.34 2.531-5.029zM161.817 584.318c3.671-12.742 1.378-19.876 7.489-35.581l14.87 4.951s.631 15.405-2.363 23.987c-3.001 8.575-12.867 15.414-19.996 6.643zm110.791 344.594c1.752.212 6.06 6.349 8.005 11.952 1.784 5.203 1.198 11.804 2.499 17.407 2.917 19.204 2.743 38.44 1.97 44.259-.386 2.89-2.254 1.72-4.81-1.05-3.716-4.016-3.201-4.1-3.156-15.254.033-9.556-2.086-33.178-3.065-37.976-1.803-8.874-2.557-17.342-2.132-18.798.123-.405.361-.579.689-.54zm173.941 2.299c19.153 3.046 34.467 16.125 43.238 37.647 8.475 21.889 10.561 51.752 11.875 79.202-.097 6.57-2.801 4.92-9.898.83-7.747-3.78-9.396-2.69-20.711-.09-7.058 1.61-6.42-3.19 5.191-11.16 3.954-2.57 8.558-6.02 7.045-6.53-.766-.27-4.302.69-6.859 2.75-11.398 9.21-14.489 11.45-11.199 2.49.825-2.26 3.465-8.53 4.573-11.54 4.128-11.25-.631-16.07-14.651-23.19-3.503-1.78-5.809-4.755-2.312 1.47 2.859 5.09-3.052 9.2-10.387 3.24-5.088-4.14-15.327-1.38-18.631 3.78-3.201 5.01-1.488 14.34 4.824 17.36 5.557 2.4 7.631.67 2.254-3.05-6.917-4.8-5.571-12.89 2.196-12.85 1.919 0 5.306 2.14 13.865 6.8 6.13 3.31 10.49 1.91 10.497-3.04.006-3.31 1.899-3.04 5.931-1.05 5.428 2.68 4.836 5.11 1.964 12.61-1.932 5.24-2.892 11.19-4.669 16.66-4.566 18.43-5.178 39.29-.122 45.8 13.446 17.3 27.73 15.47 39.953 4.04l-.522 18.94c-12.468 10-27.035 16.82-49.516 53.92-7.844-9.86-41.492-50.12-95.446-59.22l-12.139-16.61c.206-1.03-9.074-61.78-15.14-82.46 0 0 6.678-10.135 12.738-17.606 24.227-29.842 65.172-63.999 106.058-59.143zm-70.362 17.239c-2.073.663-2.749-3.477-1.623-4.263 2.499-.213 3.381-.135 5.88.051 1.887.116 1.842 2.28-4.257 4.212zm-91.047-3.097c2.699 1.919 5.983 7.083 9.197 11.791 1.783 2.608.772 6.929 1.049 11.192.393 6.047 1.063 16.01 1.488 22.134.831 11.95-.284 21.93-2.029 25.54-1.784 4.32-5.403 1.33-6.304-4.56-.213-1.43.966-16.073.966-24.116 0-13.833-3.536-30.911-4.367-41.981zm81.671-.084c.947-.052 1.674-.02 2.305.785 2.905 3.723 4.083 5.977 1.436 8.012-3.509 2.93-6.697 2.189-8.648-3.368-1.25-3.967 1.706-5.217 4.907-5.429zm-10.819 3.278c3.13 2.099 6.24 7.625 6.562 11.611-.2 1.095-1.159 2.022-3.265 3.722-2.08 1.906-2.737 1.784-5.068-1.88-3.645-5.706-5.352-9.454-4.637-11.425 1.823-1.893 4.193-2.647 6.408-2.028zm127.535.721c5.229.444 10.388 2.834 15.475 4.038l-7.76 7.502c-2.305-3.844-4.939-7.689-7.715-11.54zm-139.14 3.915c2.872 3.729 7.87 13.492 7.599 17.118a8.672 8.672 0 0 1-3.065 3.026c-.953.264-1.81-1.41-5.043-7.129-5.628-9.949-7.277-12.757-4.353-13.948 1.533-.174 3.87-.097 4.862.933zm-11.34 2.312c3.129 2.782 10.638 17.607 10.851 21.78-.084 1.172-.432 2.19-1.127 2.982-4.721 5.074-3.529 4.256-10.555-10.208-5.931-11.894-7.496-13.066-3.574-14.406.869-.296 3.039-.689 4.405-.148zm-11.277 3.871c2.061-.033 2.641 3.413 6.653 11.257 6.723 14.831 9.241 16.891 7.721 18.476-1.874 2.363-2.975 4.025-4.752 1.152-4.051-6.588-8.076-14.998-11.85-22.378-3.02-5.513-3.291-6.183-1.352-7.528 1.114-.773 2.775-.966 3.58-.979zm119.962 4.211c-2.524.709-12.68 3.922-6.459 4.508 1.256.116 4.444-.682 6.678-.837 6.292-.431 19.365.754 18.901-.451-1.191-4.514-15.694-4.102-19.12-3.22zm-128.752 1.385c0 .251 1.629 3.143 3.252 5.976 9.55 18.45 14.863 25.174 13.163 28.091-1.397 1.761-3.555 3.981-4.83 3.451-2.054-.85-4.791-6.884-11.624-20.562-7.064-14.129-7.805-15.185-4.173-17.02 1.488-.69 3.291-1.205 4.212.064zm-9.544 6.511c4.392 7.135 3.812 6.201 3.761 29.427-.026 14.45-1.887 23.67-4.302 27.22-1.269 1.87-3.503.77-4.611-2.87-.509-1.67.934-4.14 1.204-6.79 1.713-17.38.516-34.764.561-51.225 1.326-.135 2.679 3.078 3.387 4.238zm113.239 5.699c2.048 2.917 1.545 5.268 1.533 9.196-.026 5.551.379 5.963 4.211 3.156 3.4-2.486 3.671-2.641 9.731 1.468 3.6 2.441 8.133 2.718 11.07.019 2.067-1.893 2.782-1.043 5.558-.322 3.013 1.681 3.87 1.939 10.342-1.204 4.373-1.932 4.547-2.209 7.142-.844 4.572 4.032 5.248 2.57 4.63-2.698.013-1.835.548-5.274 1.088-7.502 2.274-9.37-1.41-9.473-6.278-3.504-1.887 2.312-6.093 3.317-10.066 1.449-5.686-2.672-14.567-1.59-21.136-.489-7.766 1.307-11.36-.837-14.483-3.497-1.764-1.507-5.809-2.853-6.253-1.7-.451 1.153.464 2.975 2.911 6.472zM312.51 990.309c.972-.206 2.466 2.673 4.649 8.778 2.821 7.873-2.105 35.263-5.068 39.743-1.571 2.35-2.576 3.8-5.796-.56-1.281-1.92-.283-2.53.986-7.91 1.932-8.19 3.561-21.45 3.664-27.61.026-8.004.464-12.202 1.565-12.441zm9.904 26.561c.702.06 1.52 1.63 2.634 4.76 1.584 4.28.818 12.55-1.268 18.87-1.205 3.68-2.351 7.61-4.405 10.91-.702 1.85-4.283 1.21-5.274-2.9-.625-2.59 1.532-5.81 2.575-9.94 1.05-4.15 2.248-9.42 2.84-12.07 1.095-6.48 1.874-9.7 2.898-9.63zm76.635 12.14a.481.481 0 0 0-.219.02c.013-.02-.045.04-.064.06-.161.17 7.47 8.48 9.518 10.81 1.075.9 10.271 12.08 4.546 9.51-14.432-5.97-31.317-3.03-41.717 6.99-1.301 1.26-2.377-.03-6.318-.32-8.075-.61-11.012 2.6-6.098 6.58.753.61 2.324.88 3.033 1.86.65.9.457 2.51.792 2.95 15.623 20.74 44.545 24.77 62.711 11.23 2.28-1.7 3.562-2.3 5.693-1.67 4.225 1.25 4.598-2.28.863-7.23-1.623-2.15-3.632-4.64-2.46-5.36 2.306-1.98 3.446-5.22-.567-6.43-2.762-.84-5.86-3.92-7.418-8.21-1.81-5.02-19.603-20.42-22.295-20.79zm-70.903 9.08c3.394-.08 3.555 19.97-.2 26.06-1.925 2.3-6.337-1.99-5.673-6.38.502-3.35 4.108-18.42 4.933-19.2.328-.32.657-.48.94-.48zm69.209 12.52c2.853-.04 6.749 1.24 9.853 4.04 1.675 1.52 4.611 8.08 3.394 10.65-.341 1.3-3.864 1.23-4.186.27-1.932-13.24-12.661-15.16-16.067-2.8 0 0-2.209 1.87-2.493-1.74.767-7.02 4.064-10.37 9.499-10.42zm86.398 1.14c3.413-.06 6.658 1.65 8.333 5.3 1.165 2.53 1.288 4.67.831 5.79-.348.83-1.501.47-1.501.47-5.442-14.94-12.854-8.03-15.539.23 0 0-2.802.86-3.149-.03-.348-.89-.129-2.57.985-4.89 2.125-4.45 6.176-6.8 10.04-6.87zm-72.855.93c1.932-.1 5.236 1.46 7.702 3.95 2.505 2.53 2.757 4.03.728 5.91-1.217 1.13-5.545 2.24-6.382.28l-3.645-8.51c-.348-.81.721-1.59 1.597-1.63zm-26.236.4c2.158.01 2.615.5-.779 8.38-.721 1.69-9.422-.76-7.767-4.01 2.493-2.59 6.382-4.37 8.546-4.37zm87.119.62c.869-.04 1.571.09 1.867.49-.772.28-4.063 8.59-4.063 8.59-3.104-.38-6.814.06-7.49-2.48-.631-2.39.625-3.85 4.998-5.53 1.32-.48 3.239-1 4.688-1.07zm25.45 2.14c3.297 1.21 4.064 3.99 3.645 5.43-.322 1.09-1.88 1.1-2.981.26-1.05-1.21-2.596-3.29-2.473-4.68.341-1.4.76-1.41 1.809-1.01zm-164.068 7.68c1.011 1.9 2.84 12.7.701 12.42-2.073-.53-3.039-3.79-3.4-6.72-.077-.6 1.771-5.63 2.699-5.7zm36.243 5.76c.96-.13 3.375.71 6.962 2.74 11.81 5.7 23.917 6.51 36.771 3.64 7.419-1.93 9.312-3.06 10.356-1.78 1.784 2.16-1.024 4.32-11.496 7.84-11.488 3.86-23.402 3.21-39.07-7.84-4.212-2.98-4.759-4.43-3.523-4.6zm131.045 2.98c1.945 3.62-4.675 7.07-8.024 8.03-7.129 2.06-17.922 1.1-24.014-2.56-.515-.31-1.005-.64-1.469-.98-4.958-3.69-2.91-6.33 2.615-3.48 5.938 3.06 18.019 3.62 24.427.53 3.213-1.55 5.422-3.49 6.465-1.54zm-146.642 6.76c-.657.15.457 1.82 2.756 4.31 16.158 18.13 54.694 27.97 76.364 9.28 6.781-6.37 5.751-9.23-4.952-4.14-11.837 3.89-28.651 4.4-43.199 2.24-7.148-.96-18.798-3.71-24.71-8.03-3.722-2.72-5.68-3.79-6.259-3.66zm111.39.55c.986.07 2.711.44 6.466 2.39 5.474 2.85 17.903 1.87 21.973.37 8.571-3.16 10.336.85 2.209 5.34-9.048 5.48-21.548 3.34-28.838-3.72-2.261-2.02-3.478-4.54-2.486-4.75.097-.01.535.35.676.37zm-107.101 32.07c31.813 2.9 79.828 34.47 98.543 72.39h-10.774c-18.805-29.84-47.745-53.86-82.083-62.82-1.359-1.05-6.414-8.25-5.686-9.57zm141.213 6.95l-1.474 10.48c-5.326 4.37-24.871 20.55-39.361 45.91-3.02-.14-4.482-3.78-3.98-6.26 11.605-22.88 25.476-35.52 44.815-50.13zm-128.578 8.2c7.303-.5 54.79 25 70.78 57.24h-8.758c-17.986-23.42-37.976-38.71-55.724-44.84-4.315-4.54-9.035-12.2-6.298-12.4zm127.104 7.29l-.078 14.17c-11.36 11.06-19.667 22.19-26.165 35.78h-8.823s-1.964-3.89-1.281-6.31c10.027-18.04 19.635-31.18 36.347-43.64zm-72.133 49.95h-8.54c-7.206-10.18-17.909-19.99-27.736-25.82-4.025-4.99-8.54-11.15-6.724-12.15.11-3.68 37.893 21.85 43 37.97zm72.319-28.82l-.186 8.19c-5.777 7.39-10.62 13.59-15.244 20.63h-7.277c6.633-14.32 23.3-32.69 22.707-28.82zm-97.982 15.87c2.634.69 12.255 9.87 11.946 12.95l-4.328-.13c-2.434-3.06-5.313-6.26-7.019-9.39-1.069-1.98-1.759-3.83-.599-3.43zm96.308 2.53c.032-.01.045-.01.064 0 .013 0-.083 10.42-.083 10.42h-7.303c-.786-.15 3.535-7.87 7.322-10.42z" fill="#131f67"/><path d="M648.291 108.612c-35.792-.005-71.985.199-112.253.625l271.866 385.737.219-85.691-87.241-112.586c19.854-6.123 44.1-10.354 63.188-12.054-24.517-54.355-36.778-105.402-25.979-175.367-38.62-.443-74.007-.658-109.8-.664zm105.273 2.455c-2.132 24.7-4.926 52.244-.444 82.833-14.149-5.166-17.465 3.659-19.809 4.588-2.667-5.936-12.526-16.204-23.693-4.135-5.802 6.274-2.981 18.077 10.491 23.399-15.43 1.185-23.448-12.002-26.152-25.603-8.34-5.337-17.111-10.614-17.942-29.331l4.276.714c-1.423 13.059 12.146 19.71 20.086 13.477 5.133-3.933 5.686-10.004 3.658-19.434 4.128-.844 13.788-4.887 11.231-17.296-3.523-17.132-21.123-15.121-29.16-3.855-6.684-8.271-18.933-9.806-23.847 3.039-2.736 7.156 3.497 15.19 10.588 16.744-15.739 3.018-23.673-18.681-24.556-33.366l-6.523-11.572c42.548-.247 61.153-.198 111.796-.202zm-213.102.423l31.575.02 230.451 298.207.483 74.24zm79.835.02l5.03.061c3.947 26.247 19.042 45.25 44.86 54.497 1.339 21.444 11.682 50.573 50.914 60.414-1.153 24.213 14.399 47.351 31.053 58.442 0-.001-4.495 1.113-8.012 1.449-22.385-17.753-27.904-43.892-30.125-54.678-.754-1.558-2.892-1.936-4.585-2.315-19.166-6.768-35.291-22.507-41.879-41.718l-4.147-18.857c.006-2.422-.483-1.284-6.183-3.381-14.779-5.441-28.444-21.431-34.569-40.531-3.226-10.042-2.357-13.383-2.357-13.383zm-20.305.061l17.691.02s.103 3.12.36 5.152c2.383 18.804 19.268 42.402 36.489 50.231 2.434 1.107 5.828 2.663 6.62 3.401 4.81 30.825 18.785 49.39 48.28 62.105.47.486 1.796.795 2.189 1.408 4.025 19.062 12.809 41.16 29.527 53.31l-7.226.745zm86.411 32.352a7.246 7.246 0 0 1 7.244 7.245c0 3.999-3.245 7.224-7.244 7.224-4 0-7.245-3.225-7.245-7.224 0-4 3.245-7.245 7.245-7.245zm-244.149 39.533c.419 1.046-98.942 85.092-89.27 243.226l-2.878 3.22.786 1.127c-3.285 3.724-6.44 6.713-10.021 10.344 20.601 13.131 56.516 27.464 56.626 27.087l-6.859 15.899 42.922 13.866-5.751 15.114s-29.868-9.902-42.245-14.028c-6.105 13.539-9.802 27.837-14.245 41.92-.419 1.135-1.398.589-2.924-1.61-22.295-38.027-68.095-65.468-66.55-62.748L139.438 630.967l-1.101 95.23 112.395 115.834s-32.528 16.01-47.919 26.507c11.972 9.769 25.515 17.291 37.409 26.526 24.613 17.355 41.222 42.87 57.18 60.148 75.224-37.293 150.983-35.22 216.418-12.577-7.624 8.024-16.132 14.973-23.988 23.666 19.017 49.899 12.931 149.009 11.972 151.699 39.598-40.44 98.497-127.182 90.641-249.301l16.666-16.705c-.309-.857-41.685-23.004-58.925-27.827l4.766-15.179-41.293-12.899 4.605-12.055 41.138 11.913c7.786-19.12 16.035-45.903 16.035-45.903 16.428 24.575 34.537 46.927 71.805 69.673l161.486-154.498-1.05-99.335-109.941-109.941 45.761-23.848c-4.392-3.546-10.767-6.911-15.294-10.465-.322-.253.908-1.018.586-1.267-1.146-.884-1.99-1.601-3.162-2.415-.258-.183-1.089 1.007-1.346.825-15.527-10.89-31.066-21.606-43.289-34.634-.303-.33.148-1.685-.161-2.013-6.35-6.787-12.674-13.102-19.139-19.782-2.995-3.025-7.947-10.204-7.947-10.204l-.283-2.374-6.943-8.735c-22.359 13.188-117.682 46.288-209.92 9.64l17.529-17.528c-4.669-11.259-7.689-23.822-8.893-34.112-4.824-41.265-2.982-115.575-2.982-115.575zm290.76 23.365a7.65 7.65 0 0 1 7.651 7.647 7.651 7.651 0 0 1-7.651 7.647c-4.218 0-7.624-3.427-7.624-7.647 0-4.221 3.406-7.647 7.624-7.647zm23.918 9.096c3.896 19.006 12.455 46.605 20.981 65.208l-10.156 1.126c-8.275-5.374-17.014-13.214-17.935-24.336-22.365.171-28.902-34.91-20.736-30.699-1.043 11.984 7.554 16.707 15.99 15.531 7.264-1.012 13.543-11.041 4.901-22.11 3.838-1.495 5.719-2.624 6.955-4.72zm-316.971 56.208c1.482 24.306 6.254 42.032 10.71 60.394l-44.197 41.698c3.445-38.061 14.625-72.074 33.487-102.092zm211.956 80.056l5.609 8.05c-63.864 37.503-172.872 40.154-239.28 8.532l8.816-8.392c58.397 26.369 153.469 28.328 224.855-8.19zm-414.792 12.517c-6.434-.079-13.859 2.374-21.735 8.372-29.295-13.347-48.486 17.854-30.364 38.519-2.685 14.873-4.714 17.644 6.479 32.702-11.895 1.513-26.9-1.597-39.67-3.562 2.157 22.026 33.7 27.154 46.831 24.733 14.18-3.072 27.556 3.943 28.136 4.105 8.333 2.328 13.517 6.34 21.734 8.272 13.556 3.224 33.41-12.663 36.282-27.752.277-2.027.902-3.863-.219-4.166-9.267 2.37-19.448 5.711-28.477 7.688-8.842 2.169-15.507 4.309-22.237 9.579l-.56-18.193c45.897 2.184 25.921-41.454 23.319-43.328 8.533-17.218-1.726-36.75-19.519-36.969zm417.181 1.368l9.982 24.009-26.519 8.996-6.782-23.506zm-419.094.725c15.604.151 29.553 16.581 14.573 34.977 29.044 25.614-8.178 53.064-25.901 34.01-23.595 21.607-48.659-.961-35.483-24.491-25.161-22.518 5.873-52.718 27.073-33.266 5.203-8.003 12.648-11.299 19.738-11.23zm181.122 8.794a6.761 6.761 0 0 1 6.761 6.762 6.76 6.76 0 0 1-6.761 6.762 6.76 6.76 0 0 1-6.762-6.762 6.761 6.761 0 0 1 6.762-6.762zm-172.808.504c-.386.004-.85.179-1.352.623-.754.07-2.396 2.891-6.518 7.668-7.161 8.302-7.934 8.38-7.934 8.38-7.631-2.496-12.738-1.148-17.767 2.033 0 0-5.732-1.087-13.64-7.696-3.613-3.017-5.551-3.671-6.182-2.053-.67 1.723.972 3.421 7.889 8.13 9.582 6.517 8.983 6.019 8.983 6.019-.592 5.727.342 10.382 2.505 14.717 0 0-1.687 4.068-8.487 12.973-1.926 2.517-3.497 5.254-3.504 6.078-.012 3.464 3.008 1.136 9.963-7.648 2.724-3.442 6.466-8.371 6.466-8.371 8.159 2.828 11.025 1.108 16.144-.712 0 0 1.752 1.305 6.208 4.855 8.147 6.494 9.905 7.185 10.91 6.362 1.345-1.11 1.165-1.473-1.913-3.703-9.19-6.653-12.352-10.498-12.352-10.498 1.868-7.277-.174-13.298-2.176-17.095 0 0 .141-.927 5.332-6.72 3.806-4.254 9.022-10.968 8.694-11.934.083-.601-.419-1.418-1.269-1.408zm188.064 1.469l23.885 7.426-5.268 24.834-25.463-8.211zm172.872 6.098l6.658 24.23-24.851 6.601-4.07-25.72zm17.445.402a6.762 6.762 0 1 1 0 13.524 6.762 6.762 0 0 1 0-13.524zm56.491.865l20.891 18.595-23.184 11.713-11.173-24.23zm-196.983 5.373l24.272 2.858-.986 26.082-27.852-3.724zm-84.195.283l27.002 11.853-9.737 27.208-27.653-11.874zm69.609 2.112c9.949 1.558 7.277 13.303 0 13.524a6.76 6.76 0 0 1-6.762-6.762 6.761 6.761 0 0 1 6.762-6.762zm87.318.02l3.323 26.102-25.199 1.529-.541-26.524zm17.33 2.979a6.76 6.76 0 0 1 6.761 6.762 6.761 6.761 0 1 1-13.523 0 6.76 6.76 0 0 1 6.762-6.762zm-350.768 2.448c3.851 0 6.981 3.111 6.981 6.963s-3.13 6.984-6.981 6.984-6.968-3.132-6.968-6.984 3.117-6.963 6.968-6.963zm298.36-.255a6.762 6.762 0 1 1 0 13.524 6.762 6.762 0 0 1 0-13.524zm118.68 1.671l9.815 26.826-27.524 8.875-7.793-27.551zm19.32.724a6.766 6.766 0 0 1 6.762 6.762 6.761 6.761 0 1 1-13.524 0 6.762 6.762 0 0 1 6.762-6.762zm47.591 7.607l17.793 12.578-8.816 4.911c-2.312-5.529-6.389-12.086-8.977-17.489zm-254.292 2.436l26.262 5.694-4.006 27.511-28.657-5.715zm-78.109 1.508l13.949 6.561-9.196 22.923-22.559-12.015zm62.351 1.49a6.762 6.762 0 1 1 0 13.524 6.762 6.762 0 0 1 0-13.524zm151.678 1.51l4.688 27.509-29.623 4.166-1.829-28.053zm110.908.522a6.762 6.762 0 1 1 0 13.524 6.762 6.762 0 0 1 0-13.524zm-21.014.202l9.802 24.25-28.979 12.115-8.572-24.27zm-73.897 1.75a6.762 6.762 0 1 1 0 13.524 6.762 6.762 0 0 1 0-13.524zm-97.867 2.758l27.737.503-.322 27.812-30.371-.845zm221.796 1.932l10.909 7.567c-112.26 72.184-269.953 81.133-393.013 10.082 0 0 5.023-5.011 7.889-7.949 110.933 66.392 272.896 57.075 374.215-9.7zm-236.827 3.139a6.761 6.761 0 0 1 6.762 6.762 6.76 6.76 0 0 1-6.762 6.762 6.76 6.76 0 0 1-6.761-6.762 6.761 6.761 0 0 1 6.761-6.762zm56.935 1.53a6.765 6.765 0 0 1 6.762 6.762 6.761 6.761 0 1 1-13.523 0 6.76 6.76 0 0 1 6.761-6.762zm-132.081 3.723l28.96 8.372-4.933 22.861-31.755-9.137zm-19.159.161a6.761 6.761 0 1 1 0 13.523 6.761 6.761 0 1 1 0-13.523zm224.932 4.87l6.923 25.659-32.013 6.842-3.864-25.236zm18.399 3.723a6.76 6.76 0 0 1 6.761 6.762 6.761 6.761 0 1 1-13.523 0 6.76 6.76 0 0 1 6.762-6.762zm-418.29 3.984l-.064 17.992c-5.306-4.377-11.308-9.036-17.446-13.745 6.26.332 12.082-1.396 17.51-4.247zm-65.95.443c1.461-.014 4.881 1.18 8.958 1.167 13.034-.041 37.389 4.027 44.589 9.942 2.402 1.964 5.996 3.71 7.953 6.883-.006 1.513-2.144 1.552-5.293-.403-6.034-3.749-16.08-7.092-29.521-8.955-2.434-.337-2.736-.238-2.736.905-.007 1.414 2.234 2.239 9.312 3.401 9.164 1.504 11.115 2.403 13.143 2.959 5.442 1.489 1.965 3.48-3.638 4.015-22.855 2.141-39.966-7.694-43.411-18.928-.277-.737-.02-.979.644-.986zm318.432.403l28.754 3.723-1.307 24.069-31.472-3.603zm-244.554 2.093c5.023 3.944 1.565 15.901-1.166 19.42-1.777 1.976-5.924.929-5.899-1.851.625-2.497-.257-14.389.284-18.073 2.003-1.14 4.952-.818 6.781.504zm333.263 1.066l1.488 24.814-31.375 1.429.245-24.371zm-105.858 1.671a6.762 6.762 0 1 1 0 13.524 6.762 6.762 0 0 1 0-13.524zm-174.824.342c1.16 18.209-26.809 30.564-37.267 24.974-4.63-2.475-2.705-4 6.478-5.855 11.888-3.148 19.713-6.212 19.726-8.433.006-1.363-1.797-1.198-6.646.604-7.458 2.505-15.211 3.583-22.334 6.782-5.325 2.417-7.399 3.264-8.597 1.811-2.505-3.047 9.325-10.735 21.593-12.779 9.209-1.534 18.489-6.442 27.047-7.104zm297.986 2.274a6.761 6.761 0 1 1 0 13.523 6.761 6.761 0 1 1 0-13.523zm-62.885 4.951a6.761 6.761 0 1 1 0 13.523 6.761 6.761 0 1 1 0-13.523zm150.674 11.491c45.253 43.091 94.859 92.7 135.778 133.506-.058 21.352-.18 64.057-.18 64.057L645.754 813.921c-28.29-17.272-52.247-38.865-74.297-77.22 2.486-2.145 4.676-3.51 6.556-5.854l-8.146 4.868c-28.825-46.098-41.048-137.942 7.908-211.57l-49.465 1.811 8.069-16.844 53.85-2.938 21.78-23.365s6.897-1.276 12.616-2.596c5.673-1.309 17.252-4.621 25.74-7.365 8.488-2.745 15.713-4.992 16.042-4.991zm-365.283 11.934s46.502 25.274 72.326 75.89c-83.473 71.801-114.938 155.415-122.035 242.443-45.434-42.497-68.392-66.002-109.439-107.266l1.487-61.582zm175.564 8.03c-12.03 25.723-22.385 53.904-31.658 84.1l-12.938-3.823s8.372-3.501 12.094-5.716l-6.717-10.827 12.738-5.233-7.528-9.176 12.918-7.487-6.459-8.109 11.837-5.917-7.348-8.453 12.416-6.923-6.479-8.089zm3.967.06s1.668.317 3.619.704c.47-.18-2.331 6.741-2.028 6.983 4.514.93 4.778.679 6.137 1.087l3.439-7.124 5.654 1.067c-11.405 25.744-23.602 53.912-30.609 84.402l-6.659-1.389s1.945-6.429 1.952-7.284c-.786-.166-4.534-1.745-5.693-2.214-.406 1.005-2.782 8.452-2.782 8.452l-5.268-.141c8.629-33.291 23.673-70.208 32.238-84.543zm21.67.985l11.817 9.781-13.407 5.213 6.948 9.237-14.213 5.131 8.153 9.6-14.064 5.192 8.391 11.612-14.632 4.93 9.235 10.204-13.202 6.178 7.909 7.828s-8.237 2.716-8.714 2.838c-1.32.339-6.858-1.026-6.858-1.026 8.346-29.711 18.656-59.827 32.637-86.718zm-287.399 4.951c-3.258 2.117-1.397 6.728-5.493 10.666-.65.706-.708 2.328-.966 3.744-.193 1.074-3.426 13.93-3.426 13.93s.818-.982 2.112-5.083c1.102-3.499 2.061-10.14 2.66-11.249 3.02-.921 3.478-10.76 6.537-9.413 1.764.778 1.429 2.386.431 6.16-2.177 7.54-3.033 10.718.702 5.574 5.583-6.719 6.131-12.783-.161-14.067-.663-.127-2.009-.249-2.396-.262zm84.408 2.798L153.329 633.704l-.444 51.156 50.817 51.499 36.063 34.956c13.086-78.288 43.121-152.974 117.064-217.607-11.334-18.217-30.744-41.165-57.495-57.093zm393.554 1.408c-85.786 40.319-105.518 123.01-78.947 197.868 40.88-52.581 72.964-101.979 78.947-197.868zm-305.328 4.186l38.961 12.538-14.676 50.03-35.078-10.646-3.581-8.855zm301.019 1.309c-3.728 66.902-28.953 132.244-72.848 183.516-22.198-54.755-8.848-142.296 72.848-183.516zm-209.837.362l-2.453 6.218 5.39 1.53 2.293-6.319zm-5.396 14.691l-2.209 6.319 5.532 1.871 2.073-6.419zm229.826 1.147c-12.01 92.801-62.145 177.249-115.113 220.286 16.879 27.376 36.727 44.989 56.89 59.685l149.206-142.923-.586-47.675zm-394.281 24.633c-.915 3.392-1.243 5.117-1.243 5.117s1.719-1.588 6.253-4.069c29.321-14.622 19.86 7.614 6.047 15.838-3.085 1.644-6.26 3.596-6.26 3.596s2.93.664 6.112 1.254c17.793 3.697 14 14.103-4.553 12.484-2.744-.24-5.964-.759-5.97-.606 0 .154 1.114 4.062 2.396 7.297 6.259 15.756-5.41 16.982-13.086 6.964-1.069-1.394-3.491-5.243-3.491-5.243s-.759 2.912-1.217 5.726c-6.633 24.695-22.99 24.069-16.885-.985.76-2.59 1.694-7.223 1.694-7.223s-3.678 2.222-7.683 4.01c-21.187 9.46-24.626-.276-5.377-14.512 5.473-4.051 7.328-5.641 7.328-5.641-3.407-.261-6.549-.783-9.325-1.48-15.352-3.854-19.448-13.032 5.152-12.601 3.639.073 7.335.314 7.335.314s-1.211-5.277-2.492-9.252c-5.938-18.408 6.028-20.598 16.112-4.108 2.151 3.507 2.763 3.53 2.763 3.53-.309.011.638-6.28 3.078-12.098 12.217-22.625 17.002-1.975 13.312 11.688zm263.874-18.314c-10.246 18.106-19.185 36.108-23.448 54.88l-39.863-.684c2.756-16.645 9.795-33.957 18.212-52.264 16.229-.443 30.866-1.156 45.099-1.932zm-105.254 8.03l-2.292 6.661 5.776 1.771 2.093-6.48zm-298.127 12.497c-4.27 11.098-5.7 23.459-8.07 33.367-.998 5.742.02 8.134 3.465 9.418 4.894 1.827 11.965-.663 15.919-6.319 2.229-3.191 3.845-9.779 4.186-21.413l.38-10.364c-6.06-1.126-10.194-2.749-15.88-4.689zm292.737 1.449l-1.913 6.118 5.571 2.073 2.138-6.179zm258.194 2.294c6.788.167 8.043.775 14.187 4.408l11.856 12.195c-3.104 2.975-5.049 7.154-5.049 11.793 0 9.022 7.316 16.342 16.338 16.342 4.469 0 11.476-4.71 11.476-4.71l18.785 19.456c-10.954 4.797-21.677-6.24-25.708-10.607-.947-1.024-1.191-1.727-1.191-1.727s.167.537-.226 2.696c-1.571 8.663-10.117 34.229-18.289 32.866-9.203-1.534.167-38.081.27-37.238-6.33 6.687-37.151 13.807-34.994 6.34 4.289-14.833 27.344-20.549 30.377-23.126-12.255-7.375-27.801-27.827-17.832-28.688zm-549.437.48c3.902.275 6.581.746 9.234 1.855 1.237.33 1.295 1.363 1.43 2.334.026 4.381 1.121 17.237-2.936 17.368-4.515-.095-8.746.872-11.715 3.139-2.389 1.823-3.181.506-2.537-4.165.625-4.527 2.879-14.04 3.845-17.891.154-1.589 1.416-2.711 2.679-2.64zm121.81.164c-9.022 0-16.338 7.319-16.338 16.342 0 9.021 7.316 16.341 16.338 16.341s16.344-7.32 16.344-16.341c0-9.023-7.322-16.342-16.344-16.342zm0 5.716c5.867 0 10.626 4.761 10.626 10.626 0 5.864-4.759 10.605-10.626 10.605-5.86 0-10.626-4.741-10.626-10.605 0-5.865 4.766-10.626 10.626-10.626zm84.317.198c37.455 64.654 33.114 153.393-11.044 217.953l47.475-3.323-6.234 12.159-50.618 4.926c-7.734 7.084-14.773 15.173-22.378 22.746l-.077 2.672c-17.356 4.032-34.718 8.668-52.408 15.044-9.338-9.17-26.893-27.492-26.777-27.956l1.127-5.931c120.367-61.41 85.154-184.574 76.679-194.701 12.919-15.504 28.329-30.095 44.255-43.589zM711.08 568.62c4.875 0 8.816 3.96 8.816 8.835 0 4.876-3.941 8.835-8.816 8.835s-8.835-3.959-8.835-8.835c0-4.875 3.96-8.835 8.835-8.835zm39.245 2.376l14.792 15.234a10.616 10.616 0 0 1-7.47 3.079c-5.86 0-10.626-4.741-10.626-10.606a10.62 10.62 0 0 1 3.304-7.707zm-508.048 1.891a8.807 8.807 0 0 1 8.816 8.815c0 4.875-3.941 8.835-8.816 8.835s-8.836-3.96-8.836-8.835c0-4.876 3.961-8.815 8.836-8.815zm-65.687 3.703c4.134 1.382 3.168 5.245-2.17 8.643-3.459 2.2-6.621 2.685-9.66 1.057-5.764-3.084 6.189-11.713 11.83-9.7zm68.243 21.614l-53.187 51.458c3.343-8.55 3.471-17.077 3.723-25.618 16.003 1.649 22.707-6.47 20.362-23.184 10.343.617 21.052-.473 29.102-2.656zm85.226 5.876c24.664 70.323 3.245 144.747-73.898 187.843 3.181-67.387 31.459-131.811 73.898-187.843zm70.259 6.158c42.329 11.081 90.518 16.245 140.55 16.281.373 19.037 1.288 39.17 5.19 58.603-42.619-11.148-90.222-16.331-142.218-15.415 2.158-20.121-1.301-42.944-3.522-59.469zm313.898 10.405l-45.079 52.706 1.894-28.778c15.185 1.933 20.594-6.075 18.353-21.895 8.282 1.024 16.557-.426 24.832-2.033zm-438.027 2.918l-3.561 21.05c-8.997.244-17.832 3.438-17.71 23.526l-26.886-.322zm496.109 3.884c4.875 0 8.816 3.959 8.816 8.835 0 4.875-3.941 8.835-8.816 8.835s-8.836-3.96-8.836-8.835c0-4.876 3.961-8.835 8.836-8.835zm-537.002 2.676c4.875 0 8.835 3.96 8.835 8.835 0 4.876-3.96 8.815-8.835 8.815s-8.836-3.939-8.836-8.815c0-4.875 3.961-8.835 8.836-8.835zm517.302 9.057l-4.708 31.877c-12.28-1.08-22.533.813-19.384 22.419-10.393-1.016-24.819 1.438-34.492 2.275zm-44.01 5.776c4.875 0 8.829 3.959 8.829 8.834s-3.954 8.815-8.829 8.815c-4.881 0-8.836-3.94-8.836-8.815s3.955-8.834 8.836-8.834zm-538.013 6.842c4.875 0 8.836 3.959 8.836 8.834 0 4.876-3.961 8.815-8.836 8.815s-8.816-3.939-8.816-8.815c0-4.875 3.941-8.834 8.816-8.834zm29.282 10.444c11.276 2.531 6.06 28.815 3.523 35.963-.193.193 31.459-16.583 33.345-9.177 1.237 14.844-26.203 25.193-26.203 25.193s18.495 16.067 19.017 26.165c.045 6.53-7.735 5.32-17.833-2.956-4.314-4.244-7.657-7.418-10.625-10.368a16.294 16.294 0 0 0 5.654-12.377c0-9.023-7.316-16.338-16.338-16.338-4.985 0-9.441 2.234-12.435 5.757-2.345-2.26-4.998-4.888-8.559-8.256-5.828-5.452-9.924-9.787-9.338-11.75 7.702-5.419 23.01 9.139 24.375 10.462-1.146-2.835 7.316-30.808 15.417-32.318zm-15.417 32.318c.058.155.142.245.264.245 0 0-.2-.181-.264-.245zm480.698-11.791c5.365-.074 5.03 12.132 3.117 18.476-1.307 4.836-2.595 8.79-2.595 8.79s4.521-3.529 6.517-4.463c14.599-6.839 20.041.902 12.68 9.879-3.536 4.617-8.359 5.641-12.274 9.518 5.577.258 11.984 1.494 16.801 4.328 3.748 2.241 6.691 4.958 6.685 6.639-.02 3.774-9.286 5.809-17.955 4.83-3.683.084-10.625-1.887-10.625-1.887s2.878 4.837 3.928 7.728c3.233 8.977 2.099 19.494-2.576 19.481-7.831-2.093-11.65-10.8-14.715-17.047-2.512 6.968-4.946 14.419-10.542 19.597-5.551 5.139-8.398.876-8.114-7.825.116-3.458 2.659-13.787 2.659-13.787-32.882 11.102-30.435-3.916-4.778-17.066-15.804-7.535-25.405-14.322 1.475-15.855-.709-.644-5.403-15.043-.38-18.418 4.669-3.131 14.618 7.631 15.095 8.153-.2-1.063 2.621-9.492 7.341-15.315 3.626-4.101 6.311-5.729 8.256-5.756zm-30.312 31.336c.038.032.07.032.083 0zm143.937-9.512c-5.725.522-9.286 5.603-11.939 10.034-.535.895-1.527 1.217-1.894 2.402-2.376 7.637-4.443 16.789-5.712 28.181 3.626 1.494 11.811 4.005 15.43 2.653 1.018-.425.702-3.059 1.043-3.922 5.713-14.374 8.533-25.122 8.533-31.723 0-5.326-1.829-7.953-5.461-7.625zm-588.327-.65c5.866 0 10.625 4.759 10.625 10.626 0 3.368-1.571 6.369-4.025 8.307-6.845-6.82-10.348-10.4-14.934-14.889 1.952-2.466 4.953-4.044 8.334-4.044zm590.349 5.055c1.436 3.484-3.174 7.271-9.151 7.252-3.548-.02-4.707.483-3.123-2.596 1.88-3.748 9.531-11.327 12.274-4.656zm-80.112-2.46c4.875 0 8.836 3.961 8.836 8.836s-3.961 8.809-8.836 8.809-8.829-3.934-8.829-8.809 3.954-8.836 8.829-8.836zm-465.699.625c4.875 0 8.835 3.935 8.835 8.81s-3.96 8.835-8.835 8.835-8.816-3.96-8.816-8.835 3.941-8.81 8.816-8.81zm417.664 3.58c-9.022 0-16.344 7.316-16.344 16.338 0 9.023 7.322 16.345 16.344 16.345 9.023 0 16.345-7.322 16.345-16.345 0-9.022-7.322-16.338-16.345-16.338zm-218.389 2.19c-4.302 18.83-10.909 36.83-19.261 54.642-15.752.947-32.779 1.688-44.017 3.278 18.708-32.759 19.159-40.462 26.082-57.817zm27.067 2.66c4.424.521 9.273 1.191 13.64 2.035-8.037 28.303-18.669 57.36-32.399 85.328l-8.308-1.288-3.947-4.875 13.201-5.268-10.284-10.51 17.046-5.152-10.484-10.342 16.84-4.205-9.015-10.948 15.114-5.899-9.595-12.397 16.099-4.424zm191.322.863c5.867 0 10.626 4.765 10.626 10.625 0 5.867-4.759 10.607-10.626 10.607-5.866 0-10.626-4.74-10.626-10.607 0-5.86 4.76-10.625 10.626-10.625zm-174.662 1.61l5.616.908-1.733 6.014 6.401 1.372 2.074-6.498s5.146.47 5.693.883c-6.704 27.324-30.403 84.504-30.712 84.201l-6.092-.908 1.61-5.777-5.68-.798v-.065l-2.737 6.279-6.053-.502c14.676-33.487 24.664-59.202 31.613-85.109zm298.289 2.176c4.501-.019 4.224 2.299.966 10.787-3.066 7.973-4.212 11.167-5.7 12.197-3.548 2.518-11.192.412-10.568-3.258 2.01-11.914 2.724-16.995 5.796-18.612 3.201-.631 6.324-1.101 9.506-1.114zm-275.711.986l14.651 2.84-12.255 7.283 7.792 9.093-15.056 6.421 9.138 9.46-14.529 5.937 8.83 10.407-15.07 6.356 10.265 8.894-16.949 5.358 6.42 9.859-6.375 3.562-7.87-1.23c13.06-30.467 21.451-55.531 31.008-84.24zm36.006 7.283l28.696 7.812 5.738 10.239-13.466 45.466-38.234-11.232zm-57.032 4.386l-2.737 7.47 6.318 1.307 2.434-7.689zm-5.558 17.149l-2.737 7.464 5.938 1.172 2.801-7.548zm-5.589 15.076l-2.802 7.425 5.777 1.185 2.756-7.445zm269.618 13.665c.006 0-2.93 2.119-3.703 3.059.644 1.707 2.492 4.328 2.215 6.041-.251 1.294-1.693 2.337-3.857 4.643-5.403 6.285-7.303 5.603-4.167-1.108 1.031-2.106 1.488-4.063 1.488-4.063-1.25 1.745-2.19 3.818-3.033 5.461a1385.509 1385.509 0 0 0-3.446 6.678c3.439 1.185 5.725 3.748 7.947 5.403 0 0 1.133-3.04 1.913-5.951 1.094-4.057 3.239-5.731 5.879-7.129 1.662-.875 3.252-2.479 3.252-2.479-2.904-2.962-3.239-7.193-4.488-10.555zm-275.601 1.829l-2.956 7.908 5.757 1.411 3.201-8.07zm-324.686 19.88c-.528 31.497.516 52.234-.586 86.198l85.271 110.502-13.305 4.466s-.142 1.54-.863 1.73c-18.225 5.01-47.777 10.01-47.777 10.01 21.979 50.18 36.237 112.95 26.403 175.64l220.688-.58zm466.73 53.374l-7.612 7.624c-112.227-60.74-266.81-60.502-379.605 13.041l-9.202-6.742c123.117-78.876 274.583-78.38 396.419-13.923zm-462.608-42.323l259.752 373.135-30.512.44-229.015-299.6zm557.435 6.742s-7.502 1.945-13.807 3.967c-18.051 5.777-26.493 16.216-24.832 30.706.49 4.282 1.597 4.224 8.952-.419 17.213-10.864 18.289-11.347 39.727-17.632 1.662-.483 4.064-.123 4.064-.123l-.947 16.924c-35.735-.128-33.783 28.252-23.505 43.012-3.594 6.82-11.47 30.641 14.451 39.702 12.931 2.576 26.622-7.927 26.203-8.468 23.847 11.276 51.526-7.632 29.946-40.391 8.114-14.29 2.396-24.89-5.352-34.009 0 0 1.308.109 12.597 2.189 17.123 3.162 23.666 2.596 23.666 2.596.02-15.411-12.744-22.295-39.367-24.388-18.849 2.659-51.796-13.801-51.796-13.666zm-287.54 1.791c1.288-.007 2.563-.007 3.845.019l-1.25 26.326-28.998 1.327-1.894-26.223c9.988-.689 19.268-1.417 28.297-1.449zm34.756.644l31.111 3.786-4.707 24.607-28.658-3.078zm251.696.283c3.194-.071 2.499 3.246-1.249 3.98-5.59 1.101-19.938 9.447-19.945 11.617-.006 1.398.709 1.192 5.957-1.61 2.628-1.404 8.102-3.793 12.159-5.332 4.051-1.545 8.687-3.4 10.304-4.128 4.817-2.176 7.212-.67 5.474 3.439-1.153 2.724-1.604 2.937-12.784 6.485-10.11 3.207-11.965 4.038-18.392 8.146-2.396 1.533-6.639 3.987-9.434 5.436-6.608 3.419-7.947 3.432-7.934-1.166-.361-13.64 14.721-23.866 35.161-26.809a6.77 6.77 0 0 1 .683-.058zm-268.626 3.201a7.041 7.041 0 1 1 0 14.084 7.042 7.042 0 0 1-7.039-7.046 7.036 7.036 0 0 1 7.039-7.038zm-76.976 1.867l2.318 23.892-28.516 7.322-6.523-24.671c10.909-2.672 21.812-4.553 32.721-6.543zm367.356 1.81c7.818 1.191 7.193 19.094 3.201 22.198-6.157 4.431-9.931-4.83-7.187-17.124.772-3.696 2.202-4.984 3.986-5.074zm-351.173.966a7.041 7.041 0 0 1 7.039 7.045c0 3.896-3.149 7.045-7.039 7.045s-7.045-3.149-7.045-7.045a7.046 7.046 0 0 1 7.045-7.045zm139.301 2.054l32.238 8.797-7.889 24.954-30.248-8.513zm-17.549.483a7.048 7.048 0 0 1 7.046 7.045 7.048 7.048 0 0 1-7.046 7.046 7.048 7.048 0 0 1-7.045-7.046 7.047 7.047 0 0 1 7.045-7.045zm263.733 2.093c13.89.148 32.205 7.116 32.238 17.851-.277 3.053-29.096-.998-42.4-6.356-4.721-1.906-10.472-7.689-10.465-10.104.006-1.436 2.814-1.333 3.967.058 1.867 2.28 8.507 4.656 23.744 8.494 11.707 2.95 12.873 3.066 12.879 1.288.007-1.616-6.91-3.844-14.406-5.094-3.774-.612-7.29-1.751-13.086-2.254-2.698-.006-3.355-1.7-1.101-2.853 2.454-.734 5.423-1.062 8.63-1.03zm-24.53 5.558c3.503 1.642 4.766 4.913 6.698 6.639-2.402 1.14-3.471 2.286-7.361 2.576.071-2.569-.631-5.635.663-9.215zm-422.198 1.932a7.042 7.042 0 1 1 0 14.084 7.036 7.036 0 0 1-7.039-7.039 7.041 7.041 0 0 1 7.039-7.045zm-18.953 1.99l7.606 24.394-27.247 11.849-9.66-24.169c9.415-4.952 19.719-8.545 29.301-12.074zm125.997 3.986s21.708.032 29.204.122l-1.751 27.531-27.086.199zm-28.999 1.507l1.507 27.492-26.082 3.503-5.152-27.653zm164.899.244a7.047 7.047 0 0 1 7.045 7.046 7.04 7.04 0 0 1-7.045 7.038 7.036 7.036 0 0 1-7.039-7.038c0-3.89 3.15-7.046 7.039-7.046zm188.714.644c15.875.065 31.021 18.335 15.334 37.468 25.733 19.802-2.248 53.09-24.993 33.693-32.535 31.948-50.714-11.437-37.255-22.945-19.88-32.67 4.546-53.31 29.746-38.897 4.636-6.588 10.954-9.344 17.168-9.319zm-265.831.786l28.619 6.356-5.758 27.189-27.949-5.673zm94.711.663l26.159 13.003-20.286 19.519-15.069-7.509zm-167.739 3.079c3.889 0 7.038 3.155 7.038 7.045s-3.149 7.039-7.038 7.039a7.042 7.042 0 1 1 0-14.084zm56.529.882c3.889 0 7.045 3.155 7.045 7.045s-3.156 7.045-7.045 7.045c-10.368-1.622-7.58-13.858 0-14.09zm-130.311 3.967l6.382 27.189-26.5 8.951-9.48-26.48zm18.218 1.932c3.89 0 7.039 3.155 7.039 7.045a7.041 7.041 0 1 1-14.084 0 7.047 7.047 0 0 1 7.045-7.045zm392.324 12.538c-1.99 2.48-4.611 5.397-4.611 5.397-6.594-2.718-12.983-1.636-17.259 1.301 0 0-4.546-3.626-8.694-6.981-7.193-5.809-9.595-7.142-9.602-4.708 0 .503 2.441 2.988 5.416 5.532 8.108 6.942 9.77 9.441 9.77 9.441-1.952 6.298-1.932 11.231 1.79 16.525 0 0 .154.689-2.692 3.696-5.165 5.448-10.497 13.865-9.267 15.102 1.52 1.539 5.841-2.145 11.257-9.467 3.864-5.216 5.023-5.332 5.023-5.332 6.588 1.777 10.24 3.387 16.821-2.048 0 0 2.486.754 7.451 4.849 7.734 6.382 10.51 7.754 11.347 5.59.689-1.764-.328-2.943-6.878-7.927-4.269-3.246-9.009-7.046-9.009-7.046 1.391-2.286 2.383-10.413-2.389-15.977 0 0 .186.367 7.238-8.771 4.695-6.079 5.506-6.852 3.948-8.153-2.067-2.711-8.958 8.108-9.66 8.977zm-204.402-7.786l25.818 10.845-9.235 26.983-24.935-10.181zm-284.101 1.81c3.889 0 7.045 3.156 7.045 7.039a7.043 7.043 0 0 1-7.045 7.045 7.042 7.042 0 1 1 0-14.084zm264.138.721a7.048 7.048 0 0 1 7.045 7.046 7.047 7.047 0 0 1-7.045 7.045 7.048 7.048 0 0 1-7.046-7.045 7.048 7.048 0 0 1 7.046-7.046zm-282.17 1.932l8.456 20.93-19.223-14.329zm211.891 5.397l25.721 3.04-4.063 24.51-22.179-2.016zm-28.071.058l-.264 25.199-24.427 1.043-2.073-25.154zm-125.7 4.592a7.04 7.04 0 0 1 7.045 7.038 7.042 7.042 0 1 1-14.084 0 7.036 7.036 0 0 1 7.039-7.038zm-19.481.502l9.944 25.315-15.418 7.444-20.665-19.557zm91.949.322l3.986 24.085-25.476 6.305-6.176-24.517zm364.156.238c5.544 0 10.046 4.502 10.046 10.046 0 5.545-4.502 10.04-10.046 10.04-5.545 0-10.04-4.495-10.04-10.04 0-5.544 4.495-10.046 10.04-10.046zm-298.102.766c3.889 0 7.038 3.156 7.038 7.046a7.035 7.035 0 0 1-7.038 7.038c-3.89 0-7.046-3.149-7.046-7.038a7.048 7.048 0 0 1 7.046-7.046zm69.389 2.596l27.164 8.797-9.132 21.753-23.467-6.362zm-120.406.908a7.04 7.04 0 0 1 7.039 7.039c0 3.896-3.149 7.045-7.039 7.045a7.042 7.042 0 1 1 0-14.084zm103.296 2.595a7.042 7.042 0 1 1 0 14.084 7.036 7.036 0 0 1-7.039-7.039 7.042 7.042 0 0 1 7.039-7.045zm-172.505 8.249l9.357 21.535-25.56 11.045-11.128-21.954zm18.109 1.288a7.048 7.048 0 0 1 7.045 7.046 7.042 7.042 0 1 1-14.084 0 7.042 7.042 0 0 1 7.039-7.046zm94.163 6.498c41.963-.083 79.836 8.688 110.245 21.278l-9.055 8.487c-98.626-33.886-163.122-18.617-229.259 10.388l-6.685-8.25c46.754-22.868 92.799-31.813 134.754-31.903zm111.571.264a7.048 7.048 0 0 1 7.046 7.046 7.041 7.041 0 1 1-14.084 0c0-3.89 3.149-7.046 7.038-7.046zm-257.009 15.456c5.661.335 6.202 10.896 3.562 7.85l-6.299-7.283c1.024-.438 1.926-.612 2.737-.567zm263.649 4.366c-.206 8.011-7.792 61.675-33.385 98.571-1.552-18.66-6.053-40.972-11.089-55.868 0 0 27.543-25.444 44.474-42.703zm-327.403 81.321l133.183 179.6-13.988-.11c-2.923-13.18-7.148-26.68-15.455-36.76-6.743-8.19-12.777-14.36-24.871-19.86-7.277-3.31-8.218-2.61-8.675-8.19-2.196-31.42-27.633-51.17-47.114-58.69-1.88-18.98-10.452-37.66-31.935-53.39zm-12.97 4.3c12.171 8.37 25.508 15.62 32.695 48.59.534 6.9.959 6.17 6.375 8.19 21.226 6.23 39.689 31.73 41.338 54.03-.019 6.73 2.177 7.33 10.465 10.81 10.175 4.28 20.743 13.33 26.725 22.22 8.894 12.8 12.036 32.18 11.27 31.26l-7.329.04c-5.222-32.86-25.894-45.96-47.758-52.1 1.7-46.38-34.363-60.86-46.959-63.04.74-33.41-20.872-47.19-34.821-58.4 2.602-1.02 7.999-1.6 7.999-1.6zm-21.542 4.62c10.89 3.55 19.146 18.73 18.309 25.72 14.374 1.81 29.469 15.7 26.152 30.17-1.062.61-2.737.74-4.398-.92 3.851-28.08-38.053-14.18-21.31 6.13l-7.489 4.89c-6.015-28.09-13.434-44-21.477-64.3 2.936-.77 10.213-1.69 10.213-1.69zm34.692 58.84c3.722 0 6.723 3.02 6.723 6.75 0 3.72-3.001 6.74-6.723 6.74s-6.743-3.02-6.743-6.74c0-3.73 3.021-6.75 6.743-6.75zm35.973 30.3c15.997 4.53 21.181 20.73 20.653 26.62l-3.497-.08c-5.629-25.66-34.872-11.71-22.669 8.76-15.629 5.78-14.399 20.21-9.795 25.91 6.357 7.88 22.553 7.63 27.492-4.49 15.198 19.67 36.173-2.4 17.671-20.73 15.153 5.59 17.581 25.89 15.308 32.23 7.032 2.4 15.134 13.56 14.052 13.5l-113.542.02s5.5-45.82-.341-80.4c7.554 1.82 12.622 3.65 21.309-6.56 14.065 11.65 24.176 2.86 23.448-7.21-1.082-7.03-4.72-10.53-10.748-14.24 12.313-3.03 21.619 18.27 20.659 26.67zm12.667 32.28a6.94 6.94 0 0 1 6.942 6.94 6.942 6.942 0 1 1-13.884 0c0-3.83 3.111-6.94 6.942-6.94z"/></g></svg>