<svg clip-rule="evenodd" fill-rule="evenodd" stroke-linejoin="round" stroke-miterlimit="2" viewBox="0 0 934 1300" xmlns="http://www.w3.org/2000/svg"><g fill-rule="nonzero"><path d="M810.589 102.219l-679.984.341 4.09 1091.73 682.411-1.42c-5.278-363.996-5.778-727.305-6.517-1090.651zm-80.224 9.19l71.716.361v420.094s-4.469-.129-4.058-3.069c.559-3.938-.045-11.307-2.806-14.408-1.162-1.307-3.063-3.361-3.814-4.855-1.881-3.755-4.983-7.641-7.461-8.689-1.233-.52-2.665-.812-2.851-1.665-.173-.793-.578-3.412-1.104-5.82-1.317-6.028-2.492-5.839 1.342-11.838 13.298-20.787 18.409-39.909 16.733-58.868-.527-5.922-2.01-13.594-2.71-14.646-12.848 12.873-22.152 28.783-30.891 40.536-1.946-16.793-1.67-29.468-1.952-42.931 6.864-1.956 11.012-5.607 13.965-14.948 0 0 7.359 5.757 11.86 4.936l-2.967-10.85c19.674-6.036 22.365-31.708-.873-37.133l2.093-13.518s-7.011 2.346-10.093 3.852c-1.535.647-1.914.134-2.986-2.087-10.839-16.855-27.662-13.267-35.078 3.352l-9.067-3.853c.983 4.599 2.151 9.262 1.323 13.865-19.038 8.476-14.331 31.673.861 34.714l-1.323 10.835 11.436-3.692c1.669 5.091.815 8.035 9.952 13.765-.225 22.71-.591 36.91.122 57.087-11.911-12.199-23.411-20.671-43.56-26.888 0 0-.192 4.891.983 12.32.385 2.451.308 2.091-.848 2.087-2.613-.06-14.422-19.042-14.422-19.042s-1.374.016-2.568 1.204c-1.406 1.395 1.804 3.972 6.318 10.674 5.285 7.846 4.771 7.514.623 11.037-23.597 20.021-57.68 96.228-51.952 103.639-14.916.892-73.058 29.398-83.614 88.168-.623 2.646-1.863 6.08-1.863 6.08l-16.816-4.174c10.145-48.136 33.029-146.017 33.029-146.017s16.092-4.572 25.505-5.579l-.103-3.792-22.152 5.157 1.065-8.388 20.907-4.113-.058-1.986-22.133 2.969 3.609-13.965s-49.686 7.297-67.478 6.762c1.123 54.306-3.16 99.421-.854 157.948l-24.291-14.72c-2.158-40.747-2.806-143.67-2.806-143.67l-67.074-10.535 2.228 16.169c-55.599-22.037-111.378-42.314-152.447-85.395 25.286-19.403 67.478-38.646 67.478-38.646l-1.38-3.09c-103.757 53.486-142.29 90.645-194.415 136.747l-1.407-381.127 283.166-.14-.943 69.507s-.366 1.801-.906 2.429c-3.461 16.837 6.479 46.727 4.476 61.28.931 4.491.603 12.842.603 12.842-16.906 23.156-25.864 45.139-33.389 72.056-2.909 1.155-7.204 3.536-10.235 4.354l-.86 3.672c6.632-3.644 25.44-9.592 25.44-9.592 83.8 40.85 145.371 30.851 211.276.502-10.511 36.884 12.335 83.784 49.917 93.646 4.302 1.128 11.667 2.089 15.873.984 4.212-1.214-9.471-32.519-15.526-33.691-18.159-7.864-25.639-26.343-23.7-47.535l-3.012-5.056c-6.189 25.744 8.707 51.885 29.158 58.27l5.497 11.999c-37.069-11.118-52.852-45.825-40.511-80.142.212-21.415-13.663-30.883-20.027-40.111-32.233-12.297-38.224-42.149-32.586-66.277 15.006 6.382-10.113-21.189-10.113-21.189-11.051 23.939-15.668 54.204 9.612 84.878-16.354 21.67-37.447 38.813-61.019 53.454-34.455 17.98-60.306 5.865-76.956-33.951-9.991-23.906-13.574-47.737-13.522-72.698.058-15.453.231-15.922 6.023-13.303 5.438 2.46 17.234 2.81 24.278-.823 9.599-4.95 9.143-1.937-1.304 8.809-2.844 2.923-5.882 5.56-5.882 6.12-.012 3.173 4.463.5 10.839-5.819 2.324-2.307 4.045-4.528 4.771-4.495.835.039.758 3.01-.199 6.221-.366 1.232-1.535 6.441-2.607 11.557-1.072 5.117-2.536 11.128-3.249 13.364-2.838 8.874-2.068 12.988 6.447 17.087 4.481 2.162 12.161 9.52 12.09 9.52 0 0-1.83-8.068-1.149-10.663.815-3.119 4.52-.914 8.302.891 8.348 3.989 13.208 4.103 17.69.361 6.184-5.163 4.411-16.76-3.23-19.784-5.612-2.22-6.588-.166-.995 3.737 8.399 5.857-1.066 14.91-8.199 9.297-5.58-4.389-15.27-4.881-16.348-1.225-1.021 3.456-2.081 2.828-5.94.571-6.003-3.508-6.055-4.121-1.027-23.477 9.522-36.649 8.591-50.105-4.033-61.24-9.342-8.242-24.778-12.069-40.792-2.91v-12.48c23.507-9.394 40.606-24.934 54.399-50.947h2.69c13.728 29.727 35.919 51.078 77.668 66.738 16.316 16.106-20.669-46.26-8.867-20.728-22.152-8.579-41.903-25.21-52.774-46.01h6.042c6.363 9.195 19.263 25.973 42.218 37.563 2.087 1.744 4.097-.061 4.097-.061s-19.263-30.178-22.416-37.362l192.444-1.361c-6.107 46.869-14.704 97.803 19.141 189.088-15.873-8.334-79.518 9.421-68.313 12.93 5.618-6.491 46.173-16.071 76.185-8.99-2.485-2.143-45.763-102.569-20.586-192.028zm20.586 192.028c.058.048.109.071.122.02-.039-.009-.084-.011-.122-.02zM602.266 484.309l.18 7.344 1.522-.361-.88-7.143zM428.52 111.63h8.444c-1.856 3.815-4.559 6.676-8.688 9.03zm14.525 0h9.092c-7.083 11.271-14.614 18.097-23.7 23.437l.16-8.829c5.253-4.602 10.268-9.362 14.448-14.608zm15.031 0h8.386c-11.384 17.487-23.064 29.228-38.025 36.66v-7.143c9.24-7.186 22.339-17.745 29.639-29.517zm12.797 0h6.787c-11.667 22.215-27.925 37.559-49.223 46.091v-5.338c23.327-12.429 33.53-26.304 42.436-40.753zm18.544 0h8.148c11.173 22.211 34.398 43.222 59.895 52.432l3.892 9.009c-33.614-12.067-55.876-29.672-71.935-61.441zm23.578 0h5.817c6.12 8.526 13.529 15.453 22.191 21.21l5.278 10.213c-11.692-7.865-24.74-17.416-33.286-31.423zm10.614 0l6.498.341 8.611 14.347c-5.734-3.223-10.081-9.775-15.109-14.688zm-7.468 57.669c-8.912-.041-17.022 2.417-22.891 7.204-6.202 5.055-1.643 10.563 7.282 6.421 15.198-7.058 32.657-3.877 51.509 6.44 15.873 8.687 10.312-.366-4.495-10.032-10.151-6.714-21.298-9.987-31.405-10.033zm-71.671 11.377c12.784.101 27.431 5.764 27.79 13.263-8.482-7.093-25.523-10.536-41.878-3.251-1.252-.265-1.425-4.713-.68-6.34 3.519-2.599 8.957-3.718 14.768-3.672zm77.431 4.836c-8.084-.002-15.481 2.114-18.897 6.662-1.747 2.155-2.209 2.386-4.135 2.067-3.763-.626-3.551 1.548.738 7.504 2.087 2.889 1.74 6.175-1.04 10.093-3.198 4.497-2.575 4.669 6.941 9.23 7.275 3.542 13.118 8.566 19.725 12.701 4.72 2.664 5.664.322 1.304-3.19-1.496-1.205-5.927-4.37-9.914-6.962-6.749-4.395-11.706-8.836-6.338-6.863 2.46.777 3.095 1.102 5.799 1.565 6.953 1.503 13.824 2.341 19.667 1.164 4.187-.837 9.638-3.608 14.126-7.485 1.143-.527 2.273.033 5.054.141 10.633.412 8.283-2.708-6.98-11.036-15.109-8.241-26.962-9.744-36.625-5.217-4.091 1.916-6.428 2.394-5.837 1.184.623-1.263 1.759-2.729 3.589-3.793 15.623-9.345 28.169-1.598 41.942 5.418 5.908 3.52 7.506 4.436 8.206 3.31.899-1.441-6.588-6.762-16.637-11.798-5.888-3.053-13.554-4.694-20.688-4.695zm-49.93 10.82c2.646 1.036 1.458 4.057-.956 3.104-14.422-6.475-17.318-9.63-34.507-3.637-5.683 1.98-7.93.23-.963-2.759 15.186-6.354 26.21-2.068 36.426 3.292zm-9.882 7.62c-3.91 19.842-23.661 13.725-21.433.1l3.634.02c.283 11.983 12.29 11.902 14.345.12zm114.872.04l5.317 11.377c-11.629 28.649 4.16 67.226 38.506 76.471 0 0 5.542 8.513 4.457 9.591-64.48-14.27-59.517-75.739-48.28-97.439zm-61.077.742l1.805.101c5.567 13.829 13.657 5.883 15.23.04l4.116.1c-1.258 14.324-22.987 16.756-21.151-.241zm-49.704.402c2.613-.305 3.499 3.612 2.767 4.334-.199.2-4.97 4.836-5.554 2.107-.854-3.993 1.701-6.245 2.787-6.441zm-30.076.401c.218.001.443.012.68.04 1.618 1.234 2.235 4.922 1.387 6.823-.963.994-4.828-.363-5.58-1.846-1.149-2.168.199-5.039 3.513-5.017zm104.578 1.325c1.278.05 4.778 1.563 4.437 3.25-.09.429-4.963 4.017-6.061 3.431-2.113-1.127.809-6.281 1.226-6.601.071-.057.219-.088.398-.08zm-28.49.622c.033-.01.071-.009.077 0 .379.279 3.493 2.216.842 5.799-.18.247-3.712-1.01-3.77-1.425-.288-2.084 2.363-4.227 2.851-4.374zm78.138 25.122c-.79 16.467 3.505 32.454 21.484 42.72l-3.872-7.064c-4.61-3.672-14.267-14.151-13.06-26.627zm-161.489 29.436l2.023 10.835c-9.895 16.442-17.407 32.602-23.636 51.489l-9.349 3.411c7.423-23.82 14.287-42.693 30.962-65.735zm3.93 16.875l2.646 9.311c-4.855 8.953-10.049 19.068-13.183 30.841l-10.331 3.812c4.649-15.598 11.448-30.75 20.868-43.964zm32.766 3.853a1.782 1.782 0 0 0-.462.06c-.109 1.836-.09 6.909.302 15.27.077 1.586 1.631.918 6.023-1.324 3.827-1.956 3.429-2.265 7.14-1.024 10.274 3.518 14.948 1.991 18.961.957 6.126-1.577 8.624-.938 12.181 1.19 1.958 1.171 4.629 2.035 5.156 2.228 2.819 1.025 1.746-.215-.18-7.826-2.164-8.559-1.233-9.498-4.668-7.269-.751.489-2.928 1.695-4.116 1.833-2.992.349-7.981-3.315-10.961-2.151-7.21 2.82-7.146 2.078-13.837.438-3.345-.821-6.549 1.218-9.458 1.791-1.663.208-3.769-4.19-6.081-4.173zm122.642 4.434c12.18 11.172 24.701 14.995 38.288 19.223-1.637 5.555-4.919 11.802-6.447 19.063-70.689 37.365-141.73 36.192-208.74 2.267l34.776-13.283c19 32.902 43.348 41.686 70.727 30.921 30.596-14.233 53.25-34.034 71.396-58.191zm-151.055 6.582l3.012 8.066-4.475 12.16-8.528 3.451c1.631-8.283 4.784-15.09 9.991-23.677zm63.889 9.35c-2.112.102-5.31 1.525-12.598 1.566-3.948.021-7.037-.33-8.572-.02-3.172.642.54 2.061 7.648 4.093 7.108 2.023 15.795-1.029 16.874-4.114.263-.754-.674-1.653-3.352-1.525zm-58.893 3.974l1.869 4.093-3.192 1.143zm187.956 2.307l5.278 12.019c-9.144 19.788-15.212 74.024 45.833 90.898l2.664 7.765c-41.543.811-83.184-51.997-53.775-110.682zm-139.779 4.094c-5.965-.06-12.207 1.421-16.232 4.614-3.635 2.876.809 4.69 5.541 2.388 6.125-2.98 16.348-2.734 22.351 1.024 4.591 3.128 6.986 2.578 3.911-2.188-2.408-3.74-8.81-5.772-15.571-5.838zm266.535 13.504c15.957-.264 17.613 22.576 14.506 24.54.898-.303 3.627-1.105 7.506-1.004 11.692.306 17.786 6.77 18.46 16.174.681 9.473-6.524 14.751-17.016 14.226-3.897-.195-6.581-.589-6.401.1 1.952 7.571-.405 18.982-10.434 21.832-1.156.327-2.794 1.933-2.832 2.508-.745 12.008 2.671 53.254 2.671 53.254s18.801-31.603 23.032-36.399c8.283-11.299 9.779-10.289 9.799 8.488-1.374 26.045-5.555 32.019-20.894 53.876-6.563 9.414-22.114 4.471-20.708 10.835.315 1.406 2.838 3.93 5.361 6.321 1.612 1.531 3.288 2.493 7.064 2.368 6.632-.22 9.214-1.566 5.252 4.199-3.133 4.562-14.158 5.508-15.398 7.88-2.889 5.52-.911 4.3-5.849 9.15-3.776 4.14-2.466 2.03-.739 5.438 2.697 4.397 1.574 13.17-1.104 19.083-2.183 4.815-1.946 8.251-1.946 8.251.045.401 6.145-6.294 7.982-14.03 1.534-6.437 3.326-9.664 3.313-6.06-.019 4.546.777 10.725 4.874 13.082 3.242 1.865 3.711 3.727 3.172 6.02-.559 2.371 1.977 4.459 4.475 6.441.584.586 2.556 1.357 2.35 2.609-.668 3.956.938 8.608 3.821 9.365 1.284.637 9.471-.06 10.825-4.67-.134-1.469-.012-7.516-3.274-7.866-2.299-1.06-2.062-1.693 1.425-3.772 5.22-3.11 9.002-5.342 11.577-5.819 3.455-.468 6.768-4.214 6.768-4.214l.661 248.614c-30.943 31.668-64.858 63.189-109.581 94.17-25.992-21.664-54.385-43.585-84.538-59.997l-10.409-6.165 3.731-4.77-18.082-23.842 20.348-16.373 5.156 6.524-9.631 9.349 14.447 15.975 32.465-31.668-21.389-20.464 11.134-20.85 7.128 3.491-5.381 13.224 16.277 10.293 20.361-40.452-25.819-11.758 6.537-27.169 7.968.843-2.645 19.564 20.123 3.993 8.187-46.131-29.537-5.277 2.511-26.306 8.245.1-1.207 14.548 20.868 2.97 3.936-40.212-28.952-4.796 3.73-31.042 6.62.944-1.284 19.142 21.247 3.632c2.337-12.982 4.244-29.284 7.705-42.017l-27.366-10.194 9.689-26.065 6.164 2.147-5.38 14.126 20.207 8.588 17.034-33.61-23.796-16.834c5.33-8.847 10.653-17.255 18.281-24.421l4.674 4.074s-1.714 1.547-4.353 5.197c-3.204 4.434-4.212 6.673-3.776 7.825.437 1.14 15.141 11.995 16.252 12 1.297.005 6.177-4.44 8.694-7.425 2.69-3.194 4.096-3.502 6.883-1.504.552.397 1.349 1.186 1.926 1.866.668.802.932 1.475 1.002 1.986.064.502-.077.838-.205 1.044.237-.224.751-.613 1.849-1.225 1.997-1.114-3.872-6.272-8.668-8.949-14.351-8.054-31.232-23.23-35.136-42.218-1.432-8.526 20.611 1.729 35.797 16.855 2.305 2.289 10.858 10.575 10.858 10.575-1.252-21.947-3.037-44.243-2.068-66.457l-3.351-2.328c-4.694-3.268-6.499-8.63-6.922-14.006-.296-3.706 2.883-5.601-4.373-5.358-15.109.135-23.854-14.087-14.691-26.245 3.274-4.55 17.214-6.772 17.195-6.662-3.557-14.54 7.134-22.341 15.012-23.075zm-5.502 169.093c-.283.27-.161.271 0 0zm20.008-144.553l-.424.14a.869.869 0 0 0 .424-.14zM268.252 399.05c42.199 35.523 69.122 59.428 155.01 86.182l2.125 12.722c-49.384-11.402-103.263-34.483-167.306-91.861zm-12.701 8.207c26.718 24.943 54.11 43.94 81.83 59.876l9.727 5.859-5.014 5.137 16.315 23.517-20.99 17.116-4.995-4.977 10.954-10.735-15.59-15.33-31.765 32.145 21.774 19.303-12.624 19.404-4.572-2.067 6.697-13.524-20.226-11.036-22.608 41.556 28.792 13.102-6.505 25.504-6.723-.341 2.273-19.985-21.651-3.833-7.288 46.693 27.854 4.374-.661 26.888-7.423-.12.52-15.19-21.992-1.023-1.965 39.188 27.065 3.511-2.69 31.804-6.659-1.705.738-20.648-20.624-2.027-7.101 43.904 27.828 7.946-9.83 27.369-6.043-3.313 3.956-14.126c-5.073-2.209-19.347-8.144-19.347-8.144L218.81 787.42l23.578 16.053-14.505 25.485-5.599-3.757 10.011-14.864-19.584-12.303-11.154 15.231c-4.738-4.116-13.246-9.818-16.495-13.645-3.468-3.159-6.107-3.641-10.576-2.588-3.525.829-6.915 1.471-6.138.219.379-.61 7.076-5.111 17.292-11.597 2.863-1.81 5.117-3.396 5.079-5.014-.026-1.214 1.547-3.127 3.615-4.379 2.279-1.375 1.772-2.665 1.399-4.091-1.971-7.666-.725-19.623 3.134-27.67 2.581-5.387 3.39-6.355 1.708-6.361-4.976.638-11.044 18.659-12.2 23.738-.392-.404-.938-5.156-1.284-6.983-.642-3.303-1.105-5.35-3.757-5.98-3.172-.753-2.163-2.271-2.484-4.655-.527-3.867-2.357-6.316-5.664-7.685-3.178-1.317-3.525-1.848-3.39-5.016-.006-2.49-2.601-6.705-4.533-8.047l-11.038 3.893c-.867 2.914.289 6.692 2.106 8.066 5.548 5.218-2.568 5.29-8.122 8.689-1.503.972-3.301 3.086-4.514 2.388-3.532-1.156-3.256 9.385-6.723 8.066l.841-252.887c29.569-30.618 115.738-94.469 115.738-94.469zm446.941 44.726l4.257 4.716c-13.195 14.846-22.763 30.132-33.312 48.799-8.996 15.927-16.772 38.225-20.849 62.545-3.14 14.886-3.628 30.037-5.574 45.268-1.984 16.389-2.363 38.455-5.503 55.762-5.785 47.463-19.115 72.718-48.093 99.649-12.739 11.834-52.357 34.186-53.436 33.967l-9.393-2.324c81.244-41.589 101.554-70.271 110.344-168.714 1.721-123.509 57.892-171.349 61.559-179.668zm7.987 8.267l4.354 4.194-23.719 33.489 23.378 16.475-9.271 21.65-7.083-2.628 5.034-14.768-19.661-8.288-15.892 43.021 28.015 8.829-4.617 28.032-5.657-1.525.02-19.103-20.792-4.234-6.042 48.058 30.622 4.253-2.247 24.802-7.243-.503-.283-14.768-21.247-1.124-4.854 41.657 30.159 5.117-5.458 29.597-6.421-1.525 1.445-19.524-20.226-2.669-11.699 39.97 25.401 12.803-12.501 25.626-5.355-3.735 6.921-15.149-19.763-9.753-19.084 33.068 20.708 20.367-20.226 21.19-4.514-5.779 10.434-11.237-15.59-15.43-32.426 25.781 16.553 21.812-1.945 2.754-17.099-6.864-8.187-10.819-9.792 4.296-7.725-2.948c47.895-25.112 79.056-54.231 91.923-98.142 7.063-24.28 9.163-50.773 11.455-77.473 1.188-13.868 2.428-27.795 4.437-41.496 2.357-22.378 5.786-41.159 14.865-62.745 11.018-26.181 24.4-44.631 40.895-64.612zm-257.726 16.554l32.889 17.337-.482 11.518-30.397-15.23zm9.253.321l23.437 3.211.102 9.451zm-105.645.302l13.683 6.16 11.603 13.383 8.688-5.699 9.426 3.532c-29.794 15.314-56.235 33.64-76.828 65.253-22.948 35.231-25.497 81.355-28.432 125.873-4.899 61.408-15.429 104.541-56.248 154.323l-6.016-3.788 22.03-34.995-24.843-16.052 11.321-20.689 5.714 1.965-4.43 12.341 20.547 10.833 15.751-44.103-28.978-9.029 4.86-27.591 7.282.642-1.926 19.765 20.707 3.271 5.94-46.633-27.912-4.274.622-24.64 6.845.662-.045 14.989 22.012 1.183 1.707-42.539-27.366-3.029 3.371-30.039 7.66.783-1.765 18.019 21.073 3.01 9.991-38.887-27.372-12.361 14.768-26.266 6.646 3.05-6.787 14.548 18.987 9.25 19.905-30.419-21.151-20.307 20.766-21.731 5.098 4.996-11.275 12.963 15.628 14.447 30.943-25.965-15.109-22.714zm196.823 1.444l-.963 10.896-32.966 18.721-.019-10.675zm176.937.382l7.288 4.514-5.278 6.261-6.363-4.013zm-190.8 1.545l-19.744 11.397v-11.337zm232.838 10.634c1.034.024 1.978.245 2.71.722 1.991 1.297 1.702 4.49-.539 6.061-2.922 2.045-10.929 1.905-11.719-.201-1.143-3.038 5.086-6.684 9.548-6.582zm-315.129 4.495l28.335 15.29-.102 10.775-27.27-14.989zm92.301.341l-1.663 14.046-29.177 15.47-.244-12.179zm-141.223.261l11.622 2.95c-43.014 19.187-85.521 47.018-102.055 95.572-5.163 14.531-8.643 30.703-10.91 51.408-1.066 21.837-3.884 43.327-4.918 61.537-2.1 37.079-14.306 87.296-56.466 140.642l-4.033-3.166c25.864-31.873 39.31-60.774 47.612-91.3 13.163-48.58 6.639-102.193 20.669-151.095 8.559-29.75 26.326-56.35 52.954-79.359 18.525-14.393 45.525-27.189 45.525-27.189zm19.526 4.073c.129-.006.186-.003.199.04 10.447 35.153 23.341 99.225 23.341 99.225-27.624-13.358-73.604-10.916-73.604-10.916s-25.87-33.371-30.879-36.118c20.689-27.906 76.994-52.036 80.943-52.231zm355.647 5.539c6.356-.204 5.9 9.46-2.151 16.032-4.11 3.356-6.017 2.885-9.048.201-.892-1.199-3.48-2.053-5.38-1.827-4.508-.017 4.404-9.349 12.341-13.202 1.644-.797 3.056-1.167 4.238-1.204zm-322.919 7.865l25.26 12.962.244 10.675-23.379-12.681zm85.637 1.445l-1.361 11.738-26.307 13.685.141-10.815zm246.168 4.374c.874-.081 1.554.257 2.183.963 3.59 3.994-3.223 16.095-10.954 19.725-2.966 1.393-4.79 1.165-7.262-.963-1.201-1.035-2.973-2.393-3.994-2.288-4.424.455-1.984-4.506 1.586-4.795.983-.081 7.179-4.713 11.86-8.609 3.14-2.611 5.124-3.898 6.581-4.033zm-26.73 4.716c5.586-.135 7.615 4.512 1.008 6.541-4.713 1.444-7.339.417-7.327-2.749.989-3.252 3.84-3.631 6.319-3.792zm-301.601 6.28l22.409 11.237.103 11.518-20.586-10.736zm80.198 1.585l-1.567 10.896-24.136 12.4.058-9.009zm253.007 4.575c1.528.095 1.977 1.796 1.971 4.816-.019 5.001-3.339 9.62-8.309 11.879-3.647 1.653-6.215 1.524-8.026-.421-.828-.886-1.978-1.602-2.568-1.626-7.802-.309-6.543-2.319.924-5.437 2.626-1.099 7.789-4.676 10.229-6.421 2.755-1.966 4.591-2.864 5.779-2.79zm-28.612 3.552c3.827.015 7.191 2.713 5.079 4.455-1.644 1.354-7.815 2.007-9.035.782-2.305-2.328-.25-5.253 3.956-5.237zm-300.882 7.745l19.103 10.294-.103 10.955-18.242-10.313zm73.277.843l-.443 11.217-21.928 10.815-.141-10.695zm235.971 4.652c3.712.268 3.243 3.859.244 5.602-2.241 1.554-5.143.736-6.324-1.084-2.665-5.067 3.396-4.457 6.08-4.518zm7.442 11.511c.617 1.24.276 3.457-.944 4.159-1.624.686-5.843-.03-6.498-1.26-.533-1.01-.411-1.541.623-2.569 1.727-1.372 5.606-2.393 6.819-.33zm-313.922.21l16.315 8.91-.102 10.755-14.987-8.708zm67.838.282l-.797 10.353-18.987 9.411.264-10.093zm-198.73 6.521c4.07.047 7.21 2.758 4.815 7.384-1.489 2.888-2.619 3.956-9.124 8.548-2.658 1.874-4.963 3.589-5.137 3.812-.18.223-1.875 1.394-2.992 2.167-5.83 4.037-3.808-4.392 3.474-16.815 2.087-3.56 5.804-5.133 8.964-5.096zm197.291 9.23l-1.509 11.397-16.977 8.669v-10.976zm-63.831 1.063l13.722 6.803.205 11.096-12.463-6.541zm164.878.863c.444-.018.829.133 1.105.522 1.124 1.574 1.303 8.373.199 12.22-1.92 4.526-5.657-6.893-5.24-9.792.803-1.313 2.614-2.896 3.936-2.95zM349.24 585.52c5.548-.103 9.561 3.69 7.686 9.311-2.17 5.425-14.697 8.84-20.348 12.58-3.698 1.834-4.591-.155-3.454-3.35.526-1.478.931-2.635-1.882-3.05-6.845-1.009-2.677-4.335 9.869-12.742 2.748-1.842 5.606-2.703 8.129-2.749zm275.256 3.552c1.971-.022 4.398 1.132 6.902 3.852 4.315 4.68 7.429 14.534 5.079 17.096-1.798-.2-2.697 2.456-2.786 3.532-.277 3.104-5.94-2.563-11.301-11.498-4.315-7.198-2.222-12.935 2.106-12.982zm-231.176 1.665c16.92-.116 49.23 3.381 93.952 31.362 5.702 3.574 11.404 7.514 17.857 10.696 16.965 9.148 30.962 15.349 52.832 19.423l-.623 11.317c-.199 3.571 5.689 24.249 2.993 35.878-4.013-.078 3.871 3.43 3.871 3.43l5.137 10.515s-26.846-.227-39.046-2.628c-19.661-3.197-55.541-19.861-72.878-32.968-18.017-13.213-45.223-24.197-68.551-28.454l-.321-9.731s-2.311-33.323-4.173-37.884l-4.29-10.535c1.053.424 5.554-.369 13.24-.421zm141.166 7.304l-1.303 11.177-14.891 6.982v-9.571zm74.201.502c4.167.009 10.473 4.885 17.677 14.627 1.625 2.195 2.87 4.099 3.108 5.418.218 1.216-.533 1.915-1.721 1.766-2.838-.514-3.885-1.538-4.674 1.986-.199.873.308 2.453-.668 2.167-5.053-1.483-19.507-16.065-18.621-20.727.668-3.502 2.401-5.243 4.899-5.237zm-132.593.742l10.857 5.779.476 11.016-9.651-4.153zm-116.664 3.351c3.333-.108 5.4 1.207 6.46 3.792 2.555 6.233-1.965 9.987-15.385 12.802-11.667 2.772-11.423 2.944-9.798-1.385 1.085-2.871-2.517-3.191-4.533-3.952-3.404-1.287-.617-1.686 9.169-6.562 6.151-3.063 10.755-4.587 14.087-4.695zm-38.808 2.95c.334-.029.732.284 1.31 1.003 16.951 20.539 12.591 50.473-8.874 65.253-2.434 1.614-2.524.118-2.247-3.09l.423-6.1c.11-1.212 24.657-16.279 6.498-49.803l1.529-4.735c.481-1.509.809-2.481 1.361-2.528zm277.008 6.38c6.697.026 25.479 17.069 17.478 17.678-.937.072-.616 1.291-.623 2.067 0 .776-.045 2.251-.263 2.809-.578 1.488-2.767 1.194-6.138-.802-8.547-5.062-10.486-6.674-13.446-9.471-5.817-5.504-4.161-12.308 2.992-12.281zm-66.155 2.93l-.122 9.19-13.382 6.481.077-8.307zm-169.617 6.602c9.008-.312 14.074 8.664 5.079 13.384-3.596 1.886-15.443.563-20.952.08-6.216-.547-2.543-2.393-2.203-2.95.854-1.405 1.516-1.621-1.727-3.551-2.575-2.711-4.051-3.376 2.389-4.214 3.12-.408 10.71-1.147 13.343-2.007a14.72 14.72 0 0 1 4.071-.742zm274.195 2.187c.668-.03.598 1.071.322 3.933l-.437 6.14c-4.103.654-24.483 25.992-7.93 55.461l-1.381 5.237c-.642 2.589-.847 2.967-2.992 1.365-12.412-8.576-16.437-52.234 9.272-70.29 1.67-1.109 2.633-1.823 3.146-1.846zm-48.395 5.117c2.395.043 5.323.717 8.688 2.247 7.834 3.563 13.035 6.444 14.248 8.347.745 1.175-.43 2.154-2.01 2.608-1.907.551-2.144 1.351-1.624 3.592-.006 1.303.327 2.742-1.304 2.829-3.017.162-9.766-1.965-16.591-5.638-11.526-6.201-9.966-14.139-1.407-13.985zm-58.553.14v11.177l-10.992-5.077zm-184.321 9.611c1.162.032 2.71.24 4.732.562 2.479.394 6.325.777 8.309.743 12.534-.218 17.722 8.507 7.384 12.942-2.825 1.213-4 1.081-11.737-1.164-3.705-1.075-8.238-2.204-10.094-2.729-3.724-1.057-5.015-2.23-2.549-3.07 2.298-.782 2.498-2.37 1.066-4.475-.347-2.108.327-2.877 2.889-2.809zm291.212 0c-1.772 17.308-3.224 30.796-5.837 47.736-1.913-.751-15.436-32.672 5.837-47.736zm-52.73 8.288c4.078.074 10.961 1.644 17.658 4.274 5.85 2.154 6.588 2.729 2.543 4.454-2.44 1.041-2.145 1.975-1.426 3.572 1.118 1.197 3.224 3.593-.096 3.11-3.936.296-14.28-.289-17.439-.843-9.446-1.657-12.014-10.171-4.27-14.126.623-.319 1.669-.466 3.03-.441zm-242.656 4.374c.874-.002 2.473.468 5.375 1.384 16.964 5.351 23.841 11.833 15.532 18.12-2.408 1.823-6.145 1.049-13.201-2.89-7.218-4.028-10.839-6.235-12.181-7.665-1.336-1.419-.61-3.045 1.445-2.91 2.812.187 2.388-1.225 2.164-3.591-.155-1.657-.257-2.446.866-2.448zm45.75 1.565l13.003 2.949-32.465 141.984c-11.083 3.198-17.478 4.578-25.267 8.771l22.455-3.872-1.946 10.152-20.387 3.833-.462 3.031 23.36-4.219s-.835 9.696-1.651 13.446c22.294-1.792 44.305-7.988 66.721-8.168 0 0 .546-112.051.462-124.265-.09-13.197.02-28.974.02-28.974l22.473 12.681 3.711 141.22 70.394 11.442c-.495-2.382-2.408-13.298-2.408-13.298 52.184 15.385 105.099 38.134 151.934 85.143-21.793 11.789-42.392 23.488-63.568 34.821l-3.069 4.417c53.692-25.087 135.316-77.231 194.254-134.866l1.304 373.422-282.101 1.13s-.012-17.99-.019-34.94l.161-31.22c-1.15-20.02 2.337-42.07-3.795-58.87l-1.201-17.6c17.388-20.22 26.782-45.72 35.072-71.776 0 0 8.366-3.236 12.443-4.675l1.4-5.117c-8.084 4.128-26.647 11.057-26.647 11.057 1.997-1.561-39.463-19.019-65.07-23.116-42.257-6.761-99.096.206-144.415 22.673-2.215 1.566-3.166 1.528-2.607-.501 10.524-38.263-11.641-76.673-50.546-87.807-8.251-2.363-15.006-2.35-15.006-2.35l.7 3.351c63.574 7.166 78.484 74.343 54.013 105.549-6.414 10.293-7.397 13.302 6.075 12.962 54.43-.45 73.353 60.37 48.549 94.02.058-.26 2.003 3.92 2.003 3.92 15.475-20.42 19.591-59.22-7.821-86.48 20.265-22.599 59.17-58.762 92.822-56.649 12.245.77 24.336 15.596 32.388 27.43 17.041 25.059 21.427 60.049 22.634 79.999.295 5.23.989 9.03 1.002 11.78.025 7.99-1.503 7.03-6.665 5.7-6.473-1.67-15.366-1.74-21.928.26-10.55 3.22-8.848 1.38.539-10.25 5.542-6.87 6.286-8.99 3.994-9.44-.7-.13-3.05 2.22-6.119 6.95-9.266 14.25-8.54 8.4-1.849-13.83 4.353-14.45 3.916-15.45-7.943-24.44-3.923-2.97-8.745-5.85-9.169-6.76-2.235-4.74-3.166 1.21-1.169 5.12 1.959 3.82-2.183 5.56-9.464 1.62-17.145-9.49-28.304 9.73-13.009 18.06 3.608 1.96 5.624.35 2.831-2.22-9.413-8.71-2.864-16.04 9.876-8.33 7.358 4.46 10.158 3.03 12.617-2.55 1.368-2.27 12.797 5.92 12.784 9.09-.006 2.08-1.335 8.75-2.626 13.22-3.666 12.62-4.662 16.53-6.241 24.71-2.877 14.82-2.8 22.41.276 28.93 6.903 14.6 24.265 21.48 39.329 15.61 2.189-.86 6.382-1.56 6.382-1.56l.18 10.71c-29.697 11.25-51.156 46.36-50.18 47.55l-10.595.03c-14.062-27.92-38.808-48.94-70.252-60.56 0 0-3.782-6.3-.398 5.2.205 4.61 5.06 11.11 8.989 13.38 14.935 7.59 34.699 21.05 45.609 41.95l-7.507.12c-9.15-13.94-21.003-23.36-32.246-31.58-2.645-.55 1.926 25.3 12.72 33.27l-193.632 3.37c13.215-51.7 15.751-109.06-15.211-184.26 25.671 1.57 48.447-3.94 69.308-13.041l-1.887-5.361c-23.771 11.352-49.859 13.586-75.967 10.915 19.809 36.667 37.139 113.507 20.264 187.417l-71.074.38-.982-402.881s2.78 2.536 3.654 3.416c2.234 2.235 3.743 5.58 4.372 8.007.816 3.095 1.676 3.281 6.1 6.601 2.126 1.586 3.358 2.986 3.352 3.807-.122.919-.148 3.744 1.284 5.478 3.904 4.719 3.211 7.75.283 10.8-13.626 14.171-22.159 43.958-15.269 75.382 16.161-10.877 32.798-39.322 33.331-39.367l1.56 38.847c-1.432-.321-11.294 5.522-11.416 13.163-4.469 1.329-9.921-.892-14.448-2.228l3.269 11.442c-16.586 6.614-17.478 29.306 1.74 35.785 0 0-1.753 8.867-3.262 13.631l12.482-1.9c7.25 21.651 35.085 14.717 34.95-.386 0 0 8.469 3.179 11.68 4.598l-3.127-14.762c31.649-15.789 7.975-36.465.745-36.169.096-4.123 1.99-5.426 3.73-10.229l-12.784.803c-2.344-7.622-10.935-13.863-11.256-13.022l-1.766-55.606c9.664 8.431 19.173 17.073 31.983 23.777 11.828 6.19 13.028 4.809 11.275-5.875-.789-4.823-.719-7.988-.719-7.988 4.437 1.04 15.629 15.584 15.09 22.756 4.083 5.329 7.795-9.015-2.749-21.228 28.067-29.395 49.455-78.105 54.014-111.307l37.325-14.849.417-4.855c25.428-17.013 38.693-40.677 45.673-67.441zm31.058 8.688l8.592 3.833-9.754 4.836zm-82.747 2.348c1.657.762 4.161 2.41 7.602 4.936 7.301 5.353 11.558 9.036 11.7 12.281.07 1.602-1.105 3.678-2.948 4.655-4.411 2.337-8.63.424-18.158-9.331-3.082-3.152-5.144-4.84-6.081-6.24-1.098-1.634-.289-3.173 1.522-2.509 7.737 3.493 1.04-6.207 6.363-3.792zm262.998 2.007c1.592.007 2.844.043 3.634.2 2.068.415 2.665 1.588 1.381 2.729-1.978 1.769-1.419 3.56.584 4.515 1.374.656.815 2.039-.841 2.99-.97.554-2.453 1.153-4.476 1.785-11.718 3.664-20.354 2.571-22.614-2.889-2.595-6.274 2.369-9.321 16.694-9.311 2.125.002 4.052-.027 5.638-.019zm-170.619 3.732l-.096 8.407-12.162 5.839 1.323-8.527zm-103.359 2.628c1.072.064 2.819 1.703 5.362 4.816 11.731 14.366 13.31 17.137 9.471 20.948-4.553 4.518-10.942.151-17.819-12.44-.924-1.693-2.054-3.866-2.729-4.655-2.523-2.954-1.412-3.879 1.785-3.632 1.753.135 2.582-.483 2.627-2.287.051-1.905.475-2.799 1.303-2.75zm281.086 7.264c2.132 0 1.971.728 1.021 3.211-.732 2.199-1.933 2.909 1.162 4.293.514.25 1.657 1.659.623 2.268-2.447 1.654-13.382 6.633-17.337 7.946-7.686 2.551-12.418-3.712-7.904-9.932 1.888-2.607 14.89-7.327 21.369-7.746.404-.026.758-.04 1.066-.04zm-287.224 8.328c7.795 11.622 8.771 17.055 3.634 20.446-3.249 2.473-10.177-1.08-11.757-8.588-1.214-5.749-1.766-11.759.103-16.532 2.838-7.228 7.217 3.471 8.02 4.674zm109.439-4.816l.058 9.089-14.788 7.424 1.368-10.012zm30.14.361l13.902 9.009.802 7.746-14.363-7.906zm155.125 8.949c.366.006.565.171.565.602-.006 1.069-.276 4.872 1.805 5.217 4.09.679 3.159 1.954-.424 5.037-3.878 3.432-7.423 7.508-12.097 10.013-12.059 4.457-15.847-8.286-4.437-14.909 3.942-2.287 7.512-3.864 10.177-4.616 2.003-.564 3.609-1.356 4.411-1.344zm-154.746 4.675l16.11 9.491.566 9.552-16.014-8.147zm-31.084.883l.064 8.307-15.731 9.01 1.303-9.29zm65.115 6.782c4.457 2.078 61.636 17.962 80.565 12.542 0 0 16.206 23.357 28.194 31.723-18.563 27.232-81.411 53.937-81.411 53.937zm128.703.583c1.04-.037 1.291.998 1.284 2.949-.257 5.65-9.541 26.453-16.938 15.792-2.029-3.97.038-8.081 6.523-12.983 5.144-3.887 7.795-5.712 9.131-5.758zm-311.316 3.28c1.413 1.537.777 6.273-2.266 5.959-.88-.09-.996-4.898-.418-7.504.874-.427 2.196 1.037 2.684 1.545zm117.704 2.638l-.103 10.555-18.66 10.153 2.004-11.738zm30.859 1.486l18.48 9.852 2.17 11.658-20.49-10.615zm-30.898 14.347v10.634l-20.971 10.755 1.426-10.494zm31.257.922l20.67 11.759 2.709 11.076-23.077-11.919zm-292.958.341c3.391-.045 4.611 3.562 2.049 5.86-1.689 1.571-6.479 1.253-6.903 0-2.164-2.088.803-5.805 4.854-5.86zm6.325 11.258c.501-.035.97-.005 1.381.1 2.446.623 3.961 4.15 2.472 6.16-2.761 3.711-10.036 1.139-8.971-3.552.277-1.241 2.948-2.56 5.118-2.708zm255.01 3.551v9.511l-22.814 12.042 1.445-10.637zm32.266 1.324l23.539 12.639 1.804 10.659-25.305-13.164zm-298.455.281c1.137-.063 2.042.254 2.53 1.104.437.759.95 2.703 2.588 3.652 3.05 1.769 3.364 2.139-2.428 4.675-2.44 1.068-7.236 4.333-8.912 5.457-5.124 3.448-7.204 2.292-7.583-1.785-.475-5.14 8.88-12.83 13.805-13.103zm17.658 7.786c1.188-.068 2.343.155 3.172.702 1.958 1.294 2.061 3.89.18 5.199-4.309 2.755-11.051-1.021-7.468-4.316 1.008-.926 2.588-1.498 4.116-1.585zm248.493 5.157l.122 12.341-25.447 13.42 1.689-12.521zm-261.072 1.444c1.663-.096 3.262.296 4.655 1.323 1.509 1.926 3.32 2.491 4.373 2.53 4.366.167 2.973 1.766-1.605 3.852-6.312 2.884-10.749 6.537-15.289 10.756-4.725 4.385-5.072 5.329-6.626 3.531-5.773-6.684 5.483-21.484 14.492-21.992zm293.761.142l26.666 14.588 2.286 12.322-28.952-16.117zm-276.244 8.687c1.078-.026 2.093.231 2.889.886 1.894 1.541.796 4.533-1.83 5.875-2.228 1.143-5.907.662-6.96-.398-2.517-2.542 2.048-6.273 5.901-6.363zm-12.881 6.203c1.618-.161 3.095 1.913 4.411 4.148.463.565 2.286.314 3.59.321 4.995.045 5.689 2.151.847 4.841-1.419.784-6.068 4.341-9.169 6.98-8.373 7.994-12.913 6.119-11.84-2.068 1.021-7.827 7.82-13.805 12.161-14.222zm289.125.758l29.414 16.135 2.871 13.26-32.285-17.395zm-32.471.244l-.116 12.219-27.694 14.646 2.145-12.399zm32.907 15.551l32.953 19.944 1.201 12.983-34.154-19.667zm-32.926 2.164l.064 11.982-30.622 15.532 1.547-11.32zm-248.57 7.93c.783-.019 1.515.096 2.125.379 3.59 1.65 2.646 4.507-2.748 7.442-5.503 2.998-7.391 2.485-8.572-.88-.989-2.832 4.97-6.845 9.195-6.941zm344.024 1.625c57.288 13.111 113.376 41.466 167.826 90.979l-11.372 8.045s-47.721-54.424-153.763-86.324zm-62.181 5.695l15.886 9.375.045 2.388-15.931-1.31zm-270.748.103c1.207.064 2.261.764 7.943 3.467 22.807 16.47 31.945 26.397 37.608 44.446 3.39 10.82 3.326 10.377-7.827 4.495-10.492-5.567-24.869-14.813-34.154-26.763-1.534 28.124 1.747 63.086 1.747 63.086 14.248 7.019 9.638 25.299 9.599 25.184 36.658-10.004 28.625 38.378 1.304 27.944 6.517 36.298-35.046 33.344-30.789 2.228-33.081-1.278-27.231-37.332.231-32.343-2.857-11.127 1.079-18.659 11.205-23.436l-1.541-47.516s-26.962 38.693-31.463 38.083c-2.646-.353-6.627-4.796.077-38.725 3.493-17.664 22.223-39.174 32.709-39.868 1.855-.128 2.626-.321 3.351-.282zm26.365.359l4.835 3.313-4.553 8.123-5.034-3.647zm210.949 2.331l-.16 7.121-14.846.886zm-162.811 80.423c-2.228.058 3.763 1.458 7.545 4.854 34.943 5.413 56.318 48.151 40.15 79.101-1.952 1.387 1.066 8.129 3.031 5.592 17.041-24.155 4.36-83.53-45.371-89.187-2.947-.251-4.61-.379-5.355-.36zm13.202 16.232c-2.806 7.699-3.545 9.542 3.653 6.402 12.72 4.707 26.442 25.408 22.05 46.212-1.413 2.421 1.059-1.586 2.729 5.252 6.28-15.224.019-48.054-28.432-57.866zm161.507 38.745c35.772-.103 71.171 7.711 99.327 23.899-9.568 5.323-40.112 12.739-40.112 12.739-17.164-19.257-25.909-38.513-56.942-28.67-32.503 8.392-61.776 36.523-78.246 55.183-16.515-9.831-25.459-12.233-40.106-13.048-.847-.02-2.106 3.708-1.059-2.305 4.186-6.453 7.076-13.767 9.869-21.151 30.699-17.452 69.199-26.532 107.269-26.647zm111.186 24.721c-7.121 23.045-16.322 45.74-31.925 65.74l-1.926-10c14.672-22.53 21.626-43.008 24.759-51.991zm-13.843 5.977c.911 1.471-14.223 37.543-21.691 44.103l-2.934-9.31c6.094-9.2 15.115-31.389 14.852-31.601zm-92.347.045c-.469.039-.636.456-.642 1.362-.007 3.313 3.448 5.92 9.734 7.345 8.501 1.927 20.412-1.014 20.425-5.034.013-2.324-1.65-2.498-6.517-.244-6.107 2.825-11.494 2.273-19.469-1.945-1.823-.97-2.921-1.541-3.531-1.484zm75.71 5.754c-2.363 8.745-5.876 15.179-10.351 21.854l-1.445-4.595c3.095-5.008 5.144-10.729 7.763-16.296zm-8.887 2.831c-1.149 3.044-2.414 6.563-5.04 9.272l-3.41-7.223zm-53.814 6.697c-5.76.11-11.462 1.965-11.956 5.028-.238 1.464 1.971.893 12.688-.411 5.657-.687 8.347 2.665 13.529 2.312 2.639-.315.173-2.755-.649-3.455-2.876-2.453-8.527-3.57-13.612-3.474zm-24.586 6.665c-.578.122.07 1.591 2.228 5.341 1.168 2.03 1.464 6.17 1.688 8.73-.282 6.37-.263 6.17 2.89 2.48 1.984-1.96 5.83-1.52 11.937.13 3.936 1.06 4.879 1.44 7.608-.27 3.166-1.98 3.911-.98 6.64-.43 2.632.52 5.021-.53 7.904-1.33 3.525-.97 4.199-.75 7.262 0 4.687 2.22 4.007 2.02 4.399-5.92.391-7.819-.033-8.371-4.559-5.74-4.38 2.55-7.397 3.71-14.127 1.36-7.326-2.55-8.36-1.9-13.561-.34-6.286 1.9-9.143 2.54-14.145-.52-3.294-2.01-5.509-3.619-6.164-3.491zm-102.396 11.801l2.812 4.57c25.331 9.07 42.495 29.77 32.369 64.67l2.407 3.86c12.676-35.17-1.797-64.24-37.588-73.1zm7.846 14.89l3.455 7.08c19.064 9.21 17.921 34.57 16.855 33.57l2.986 6.6c4.771-16.41-3.917-40.64-23.296-47.25zm79.621 37.82c-.745.01-1.239.26-1.445.78-.488 1.27.989 2.03 9.696 8.05 7.48 5.17 13.266 9.02 12.823 9.75-.296.5-4.951-.63-8.271-1.62-8.7-2.59-21.536.53-28.734 5.6-1.823 1.22-4.867-.12-7.506-.8-1.053-.31-3.384-.59-4.533-.29-5.439 1.43-.173 6.62 13.144 13.37 16.341 8.27 25.189 9.02 35.116 4.01 6.588-3.41 8.951-.88 1.747 3.01-12.592 6.79-24.657 4.69-44.549-8.99-9.214-6.34-12.9-5.28-4.976.76 13.901 10.87 40.664 24.13 57.089 7.93.642-.23 2.131-.12 2.851-.12 3.416.01 3.557-1.06 0-6.7-2.151-3.4-6.492-6.98-1.208-11.14 4.007-3.15 3.718-4.66-1.123-6.1-1.278-.35-1.15.49-3.07-1.06-11.628-9.38-23-16.46-27.051-16.44zm5.04 18.53c4.88.13 9.799 3.89 11.333 10.65.142.6.257 1.22.347 1.87l-4.161.15c-3.448-13.78-13.837-9.21-14.871-1.14l-3.743-.5c1.374-7.68 6.215-11.17 11.095-11.03zm86.138 11.75l-2.767.41c-1.811-5.07-10.017-11.89-13.928.47l-3.486-.14c2.427-16.75 17.632-14.14 20.181-.74zm-21.228-6.96c1.13 1.61-.86 4.32-2.016 5.56-1.098 1.18-3.557.18-4.585-.99-.899-1.15-.231-3.44 1.265-4.21 1.554-.79 4.193-1.51 5.336-.36zm-48.677.5c1.162 2.6-2.094 4.54-2.498 3.66-.7-.24-1.56-4.53-1.162-4.81 1.078-.03 3.217.32 3.66 1.15zm73.18-.42c1.753.14 3.66.97 4.013 2.95.019 1.31-1.496 2.73-3.23 2.81-.764.03-3.686-2.11-3.14-5.17.623-1.08 1.336-.67 2.357-.59zm-101.735.82c.617.95-.539 3.76-.802 4.14-.135.19-3.872.03-3.795-.25.083-.27-.347-2.39.565-3.93 1.034-.66 3.288-1 4.032.04zm67.864 9.07c.482.01 1.098.21 1.824.67 10.446 6.79 23.892 9.83 33.569 4.97 2.163-1.08 3.576-1.03 3.576.02-.006 1.15-2.401 3.49-6.864 4.84-9.972 2.99-26.435-.96-32.124-7.07-1.676-1.79-1.432-3.46.019-3.43zm-91.641 7.13c-1.001-.03-1.322.55-1.123 1.76.661 4.05 28.605 20.09 40.292 22.26 9.593 1.77 17.047.97 22.916-2.43 14.248-8.28 10.595-19.48-3.352-11.04-9.368 5.66-33.113 3.06-47.233-5.1-6.279-3.63-9.837-5.41-11.5-5.45zm125.91 5.86c3.525-1.48 5.047-2 5.817-1.35 3.596 3-2.292 7.69-13.022 9.52-8.584 1.41-13.747 1.68-23.552-5.57-7.583-5.61-4.013-8.32.347-5.78 11.59 6.77 20.2 6.99 30.41 3.18zm-123.425 17.53c24.728 8.86 52.852 30.21 65.334 56.14l-7.622-.06c-8.488-14.8-25.286-33.61-52.973-46.83-2.453-2.02-3.731-5.62-4.739-9.25zm129.846 12.14v8.11c-15.276 7.7-28.086 19.55-37.743 35.89l-8.649-.11c9.908-17.55 24.753-33.96 46.392-43.89zm0 12.36v9.95c-9.657 5.67-17.722 13.13-23.373 21.69H484.28c8.2-13.86 19.45-24.91 33.608-31.64zm-113.19 7.65c7.359 4.23 19.552 15.51 23.976 24.2l-3.929.18c-4.007-5.11-10.415-10.98-15.629-15.59-3.339-3.92-4.418-8.79-4.418-8.79zm113.19 6.38c.122 0 .128.08 0 .24v7.91c0 .2-7.333 4.99-10.454 9.46h-8.308c5.708-10.32 17.574-17.64 18.762-17.61zm.019 13.14l-.019 4.47-5.214.03c.347-.51 3.249-3.7 5.233-4.5zm-101.811 1.13c1.566.82 2.767 3.75 2.767 3.75l-1.4.15z" fill="#131f67"/><path d="M204.755 1004.92c17.194.46 53.485-5.958 52.898-5.304 0 0 112.593 187.064 108.016 185.214-1.467 2.32-144.232 2.24-144.232 2.24-3.095.03 30.287-69.32-16.682-182.15zm51.052-131.792c54.858-45.458 112.327-45.795 174.039-52.048l1.415-154.488 22.338 13.367.472 141.549c81.459 6.105 151.738 35.937 212.111 88.155.76 1.133-87.353 48.244-125.94 60.709-29.959-21.989-109-35.852-161.41-18.946-14.401 4.643-32.075 12.075-49.273 17.566 12.458-74.578-45.784-85.588-66.266-89.031-2.567-.432-5.628-5.951-7.486-6.833zm-70.424 24.111c.961-15.889-.075-31.795-1.265-48.043-.313-3.709-32.08 48.341-33.855 35.716-4.449-31.606 11.252-71.791 35.909-76.719 2.459-3.326 51.309 26.909 49.076 53.035-.727 8.51-43.578-28.747-43.753-26.523-1.006 4.357 1.259 62.664 2.589 62.547 12.34 6.943 9.653 15.859 10.999 23.249 33.061-4.875 31.256 31.798.054 30.653 1.925 43.327-38.317 23.75-30.387.673-40.522-1.91-20.566-39.761-.392-31.442-1.215-9.554 1.148-19.516 11.025-23.146zm46.496-183.824c-2.334-.923-86.452-5.231-86.452-5.231l4.396-204.817c42.948-98.591 204.56-52.485 178.853-31.505-77.23 50.586-88.985 142.839-96.797 241.553zm155.138-84.138l-2.564-22.741c-6.604-14.132 171.973 68.325 173.989 70.088l5.19 24.267c1.031 10.661-113.581-43.199-176.615-71.614zm324.836-40.167c-2.63 91.908-16.805 154.146-70.211 229.25-1.48 2.468-16.574 8.719-17.751 10.842 7.632 12.067 51.208 29.77 71.333 39.286l104.706-62.344c1.213.087-3.583-218.411-3.583-218.411zm39.626-99.809c-14.066-2.145-46.798-36.082-40.016-46.343.21-7.705 40.728 21.779 44.942 29.724-2.078-2.362-2.366-72.018-3.026-69.248-1.544.818-12.372-6.939-9.554-21.456-31.06 6.864-29.356-33.484-2.208-31.834-3.511-36.709 41.346-23.228 29.41 1.357 38.38-7.069 31.76 36.009 2.751 28.999 2.46 16.337-4.28 20.852-13.706 24.115.603 6.848 3.174 52.527 3.174 52.527s28.382-43.474 30.416-39.727c5.677 13.187-4.669 82.91-42.183 71.886zM619.969 328.98c-12.808 44.125 22.28 94.539 55.433 94.4 6.662-1.05 19.433 2.549 15.027 6.118-52.297 42.356-174.331 51.149-174.363 49.312 1.282 51.995-1.047 104.513-2.295 156.493l-22.364-13.463c-.715-47.418-1.882-95.917-2.969-143.327-78.195-10.199-148.465-35.412-203.998-89.042 36.873-27.317 80.923-44.382 123.24-61.625 53.278 27.665 127.456 43.65 212.289 1.134zm-38.586-209.653c-2.455-1.08 8.428-9.157 8.428-9.157s90.846 1.191 135.912.585c-16.423 67.371-4.804 127.733 16.398 185.699-5.626-1.314-42.938 1.713-52.052 5.786-1.464 1.468-107.537-181.267-108.686-182.913z" fill="#e2cf00"/><path d="M845.295 1236.45c-1.461-4.13-1.478-4.63-1.814-42.38-.327-38.15-.169-42.33 1.897-50.24 3.949-9.87-7.596-9.91-14.905-11.1l.002-15.6c8.571-1.19 18.905 1.3 22.694 6.31 8.904-6.15 14.668-7.19 20.831-6.94 20.707.08 29.814 12.87 29.25 37.56-.093 4.02.632 9.18.632 9.18h11.128l.003 15.78h-11.712s1.909 39.14-.745 52.97c-8.05 30.81-46.301 32.82-57.261 4.46zm42.182-5.56c1.983-4.68 1.68-2.73 1.761-38.64l-.051-16.42c-16.417-3.78-30.936-23.46-30.833-23.46 0 0-.205-1.89-.349 35.38-.164 42.25 1.329 44.7 10.272 51.53 8.688 4.91 15.837-.66 19.2-8.39zm-22.934-94.98c5.001 7.02 11.214 14.2 18.589 19.99 2.759 2.17 6.627 3.03 6.627 3.03s-.206-4.75-.222-7.17c-.103-14.75-10.717-26.35-24.994-15.85zm-495.92 48.66L258.785 999.166l16.479-7.159 113.238 192.833zm286.974-25.71c-41.237-6.5-52.844-58.33-22.534-107.09 14.34-23.65 74.378-111.664 70.848-108.733-1.881-1.644 46.141 68.133 70.139 103.913 22.732 37.74 34.821 99.41-21.035 110.73-21.386 4.34-43.63-8.52-44.612-33.51-.14-3.49-1.581-6.35-3.629-6.35-1.708-.01-2.905 2.44-2.915 4.86-.58 23.86-21.987 40.14-46.262 36.18zm193.337-61.01c-18.354-6.11-21.639-28.13-7.955-53.31 11.206-20 17.075-25.14 27.4-45.026 4.244-8.21 4.714-8.376 7.896-2.769 7.682 12.695 16.085 26.515 22.946 37.255 17.986 28.02 21.146 47.58 9.606 59.38-10.475 10.7-32.642 4.48-32.75-9.19-.01-.64-.321-1.75-.697-2.45-.841-1.6-2.515-.54-2.536 1.59-.083 9.95-13.393 18.03-23.91 14.52zM173.178 936.691l15.872-16.322 15.906 16.116-16.639 15.451zm352.399-103.976l-2.234-13.251c63.283 15.491 115.078 48.011 152.324 83.427l-8.867 6.488c2.77-.754-89.905-70.235-141.223-76.664zM341.78 819.659l20.064-2.908-.569 11.143-19.069 4.333zm370.42-8.805l-10.933-8.808 7.863-9.327 10.627 8.369zm-371.681-89.835c27.166-12.855 48.37-64.724 45.713-68.183l14.8 3.508-34.198 142.11-25.741 4.655c-.119-27.187-.583-54.911-.574-82.09zm178.778 80.408c-9.208-29.915-27.341-97.583-27.341-97.583.659 2.21 58.923 18.771 79.706 12.739 8.872 12.143 18.629 22.814 28.922 32.596-21.573 21.096-48.359 38.718-81.287 52.248zm244.217-108.906l-10.265-8.889 9.207-11.271 11.274 8.584zm-134.081-5.944c-8.366-15.022-8.949-32.003 6.565-48.751zm-318.814-29.114c-.662-1.548 3.521-37.148 4.503-38.724 1.726-2.771 5.109 7.215 6.704 14.846 1.999 9.565-8.776 29.558-11.207 23.878zm234.469-11.056s22.558-104.528 32.329-145.49l27.529-6.943-3.717 85.826c-22.617 20.224-41.431 68.406-41.431 68.406zm-362.62-17.381l-10.895-10.172 9.221-10.082 9.606 9.828zm195.14-40.75l-29.927-35.004c18.541-25.779 49.317-40.704 81.924-52.414l22.08 98.222c-24.956-7.519-51.867-15.665-74.077-10.804zm-152.943-87.547l7.671-9.542 10.051 7.911-7.637 10.555zm360.284-29.509l19.254-2.751-1.451 13.215-20.386 3.242zm-313.682-74.268l11.856-7.375c41.624 37.361 87.595 63.136 137.731 77.795l3.373 16.138c-56.534-17.426-109.951-43.834-152.96-86.558zm486.382-14.906l-15.416-15.199 13.878-15.431 16.485 14.243c-5.444 8.208-14.947 16.387-14.947 16.387zm-517.377-28.113c-19.11-29.495-41.115-60.825-58.423-86.63-28.709-42.936-36.474-72.04-27.428-98.376 14.814-43.157 78.04-40.886 82.641 2.969.941 8.958 5.175 8.199 6.328-1.035 6.11-48.762 80.268-42.405 84.721 9.555 4.69 44.124-25.815 78.378-42.658 101.735-14.951 23.793-32.35 46.458-45.181 71.782zM57.537 284.045c-12.511-20.921-46.719-68.178-13.927-82.738 11.642-5.171 26.528 4.053 26.49 13.902-.017 4.454 2.441 4.705 3.018.087 2.406-19.332 29.508-20.723 38.181-2.027 7.413 22.243-5.97 42.528-24.727 71.101-4.309 6.558-14.247 24.398-14.247 24.398zm614.697 24.043L556.847 111.275l16.67-.139 113.546 189.579zM42.398 136.263H30.609l-.003-15.801h11.789s.097-8.49.431-23.505c.722-31.991 1.557-36.969 10.965-45.763 18.631-17.405 49.84-3.225 49.456 22.945-.535 36.919-.132 72.135-1.236 77.122-1.948 8.784-2.143 9.286-1.346 10.882 1.618 3.233 15.72 4.622 15.723 3.717l-.002 15.551c-10.765.834-15.237-.159-23.85-6.207-5.374 5.105-21.742 10.202-34.754 4.197-9.896-4.568-17.414-16.393-15.384-43.138zm39.883 27.572c-5.856-8.312-15.687-19.63-24.963-23.632-.564 9.519.253 17.522 3.678 21.827 5.444 6.845 14.216 8.42 21.285 1.805zm4.849-91.218c-4.332-12.086-15.489-16.161-23.628-8.631-5.104 4.718-5.913 9.648-6.017 36.506-.064 16.565-.085 23.527-.085 23.527 15.873 5.04 30.693 23.192 30.552 22.956l.394-50.093a139.873 139.873 0 0 0-1.216-24.265z" fill="#d40000"/><path d="M555.791 107.958l-27.565.101 156.492 314.709s-4.244.712-12.546-1.465c-37.582-9.861-60.743-49.562-52.248-88.509a32.78 32.78 0 0 0 1.085-5.619c-96.893 43.849-156.878 27.699-212.818-.221l-23.86 9.15c1.586-14.407 19.411-68.513 46.071-93.987l-.039-27.289-.642-12.882-2.106-23.377c-39.663 37.344-85.945 96.127-91.743 179.607 0 0-36.112 18.549-66.939 39.068 1.714-.228 48.016 56.625 159.266 88.55l-4.899-18.14c16.541 4.643 40.061 8.314 63.446 11.278l3.133 142.485 26.564 15.732.905-157.756c.816.651 42.373-1.466 64.75-6.802l-3.146 15.209 22.107-4.354v11.096l-24.239 5.719-34.513 147.463 20.11 4.474c5.882-29.702 20.74-53.727 42.276-68.464l-.218-5.658c13.812-9.909 42.513-17.783 42.7-17.598 9.792-47.823 32.58-80.964 56.806-112.488l-11.538-15.671 44.24-16.233-61.416-104.482c23.629-16.307 70.489-10.234 70.489-10.234-20.085-54.215-37.736-110.14-17.901-192.208l-170.838.14zm56.049 3.4c-.039 13.71-17.953 12.298-20.136-.069zm109.754-.431c-10.871 62.841-7.262 124.053 17.94 182.217 0 0-3.672.211-4.135.12-.347-.069.43-3.137.244-3.953-.501-2.185-4.129-1.161-7.166.883-1.322.891-2.851 1.907-3.814 2.388-3.12 1.558-18.955 1.44-18.955 1.44 5.169-3.497 12.432-13.341 8.219-19.083-.956-1.224-1.534-.684-2.465.968-4.495 7.992-6.729 9.245-12.74 9.17-9.432-.117-16.174-5.958-15.41-14.768.738-8.561 13.336-13.08 11.474-4.775-.507 7.398 6.832 8.835 8.187 1.464.507-2.76.103-1.479.706-4.715 14.679-7.788 6.576-23.646-7.127-20.327-3.217.852-3.621 1.151-5.901-.02-4.218-2.176-7.731-1.491-9.329 1.565-1.407 2.692.738 4.844 3.871 4.856 3.256.013 3.885 1.581 3.879 3.532-.02 4.537-7.853 6.721-13.048 4.073-13.702-6.991-8.623-25.164 7.288-25.102 4.835.019 6.858.321 7.063-.722.578-2.935-6.806-8.011-10.98-7.264-3.531.69-5.676 1.613-3.807-3.09 1.143-4.849 1.11-7.048.141-10.695-2.549-5.208-2.485-2.538-4.058 1.686-5.24 8.69-13.138 10.613-19.944 5.859-6.312-4.411-6.125-12.789-.122-18.762 4.174-4.149 8.649-1.325 6.145 3.311-1.04 1.919-.225 4.3 1.644 4.776 3.763.96 6.1-1.256 6.119-5.82-.077-2.513-.777-3.073 3.75-5.658 11.725-6.694 2.954-24.98-10.274-19.102-2.902 1.29-3.576 2.551-4.893 1.946-5.528-5.224-13.458 1.38-8.771 4.876 2.029.986 4.508 1.363 5.156 1.424 1.143.652.765 2.276-.898 4.315-5.478 6.457-17.915 3.269-20.849-5.84-3.404-10.549 7.384-21.638 15.648-15.49 2.446 1.817 4.565 2.009 4.578-.682.013-4.193-5.266-9.002-12.001-8.528-6.839.481-6.094 1.363-2.369-4.816 2.748-5.503 2.375-10.872-.02-14.106-1.843-2.493-3.743-3.018-3.551-.381 1.497 8.177-8.058 15.951-15.911 12.521-7.551-3.375-11.294-11.827-7.583-19.163 3.416-6.767 11.712-7.469 10.331-.241-.648 4.608 2.858 7.033 6.242 4.314 1.232-.989 1.521-1.862 1.605-4.835.096-3.312-1.252-4.281.88-6.221 5.599-.742 5.945-12.632 5.098-13.123l89.913-.421zm-100.225.402c3.55 0 6.498 1.205 6.498 4.756s-2.87 6.421-6.421 6.421-6.441-2.87-6.441-6.421 2.813-4.756 6.364-4.756zm-63.01.461h14.287l112.881 188.113-13.368 6.501zm23.469 6.574c6.845 3.911 13.157 7.12 21.735 7.958-2.51 5.098-4.803 10.665-5.214 20.189zm22.994 37.883c6.96 2.494 13.009 6.274 24.483 2.455-6.119 5.414-9.58 11.889-12.174 18.713zm58.726 22.723c3.288 0 5.959 2.67 5.959 5.96s-2.671 5.939-5.959 5.939c-3.294 0-5.965-2.649-5.965-5.939s2.671-5.96 5.965-5.96zm-36.567 14.853c5.034 1.852 10.305 3.08 16.161 2.813-2.896 3.982-3.884 10.039-4.071 16.966zm17.279 29.649c4.661 2.271 10.177 5.581 19.956 4.521-6.479 10.992-5.092 14.024-5.753 18.834zm56.569 21.835a6.24 6.24 0 1 1 0 12.481 6.24 6.24 0 1 1 0-12.481zm-35.059 14.014c4.263 2.411 12.688 3.787 12.784 3.134-.539-.406-2.427 8.124-2.755 13.486zm19.642 32.043c6.068 3.576 12.778 3.235 16.72 3.656-4.219.844-8.193 1.901-12.72 3.679zm71.53 35.177c-14.615.942-17.998 12.146-16.271 23.498-11.134-1.78-23.61 8.779-20.124 21.693 3.307 12.247 14.698 12.675 22.557 11.857-.603 2.975-2.26 12.98 9.825 21.442l1.611 63.578s-5.329-4.894-8.803-8.359c-15.186-15.126-38.032-26.084-36.6-17.557.212 1.253.694 4.433 1.06 7.063 2.42 14.394 21.754 29.953 34.936 37.784 4.707 2.626 7.622 5.438 7.622 5.438-24.656 26.362-37.909 54.491-41.21 82.409-3.069 25.939-5.548 49.302-7.988 73.119-10.061 119.471-61.333 149.522-63.766 155.365l-.964 15.937-14.312-1.066-16.489 14.267c54.026 27.919 85.534 61.603 85.097 62.245 43.137-28.245 80.372-59.625 115.521-92.102l-.687-266.01s-2.916 1.066-3.673 1.063c-2.665-.01-3.005 1.191-3.93 6.281-.494 2.724-2.119 5.233-3.39 7.023-2.415 3.399-1.554 1.68 1.483 2.909 6.922 2.8-2.068 15.488-11.898 17.036-7.082 1.115-11.038 2.417-12.239 4.053-14.909 13.042-29.761 15.108-40.998 10.314-5.522-2.358-11.532-5.806-13.561-11.558-4.616-13.058 4.996-31.873 10.633-42.74 10.338-19.928 27.508-34.894 27.508-34.894l-2.806-3.05s3.371.052 4.013-.18c14.82-5.389 15.738-5.466 18.46-9.391 2.723-3.928 9.6-15.132 11.013-18.822 7.621-19.809 8.642-21.096 8.629-34.091-.013-10.528-.712-17.563-2.748-18.119-11.673 8.951-23.462 29.857-30.358 42.177-2.383-18.254-3.089-50.121-3.089-50.121 2.466-2.731 16.489-1.204 13.382-24.061 12.341 5.566 25.343-2.95 24.804-14.834-.848-18.505-15.109-17.959-26.712-15.623 5.529-11.178-4.982-24.653-15.538-23.973zm-.225 1.557c15.243.471 18.268 17.322 8.925 26.862 0 0-6.055-4.661-9.265-7.313-3.05 2.397-3.93 4.471-7.288 6.937-3.968-2.935-6.363-8.129-6.402-13.13.186-7.814 8.071-13.54 14.03-13.356zm-348.384.522c61.706 34.484 139.079 36.95 209.902 1.805l-.86 5.84-7.763 4.374 4.392 8.046 2.427-1.164.058 5.318c-58.38 31.536-156.178 38.061-232.736-14.307l6.659-3.09s1.502 1.051 2.947 1.946c2.793 1.728 7.397 4.499 10.44 5.86l4.63-6.682s-7.076-4.313-6.376-4.595zm5.438 10.575l-3.531 8.026 8.848 4.715 3.371-8.086zm-33.575.902c95.024 59.645 183.48 41.89 236.594 17.498l.688 6.36c-68.564 29.166-158.715 36.995-244.525-20.688zm223.675 3.833l-8.45 3.371 3.352 7.745 8.688-3.712zm-235.027 1.445c77.219 49.79 160.037 59.537 249.295 23.055l3.409 9.531c-86.927 34.908-178.67 30.887-262.477-28.453zm59.33.28l-3.448 8.348 9.573 3.631 2.787-8.186zm162.393 3.452l-8.366 2.709 2.606 7.986 8.669-2.95zm-147.766 2.287l-2.061 8.388 9.766 2.748 1.708-8.427zm353.649 13.808c1.31 14.264-19.841 21.148-27.751 7.834l6.973-8.469-6.235-5.817c8.463-13.385 25.774-6.943 27.013 6.452zm-439.505-13.346l23.033 15.832-16.734 26.005-24.804-16.655zm399.245.722l14.627 12.681-13.426 15.712-13.722-13.845zm-9.092 4.301l-8.225 9.562 8.899 9.465c-10.556 11.22-26.313 4.294-26.152-9.441.115-10.483 16.168-20.689 25.478-9.586zM576.563 353.2l-8.79 2.629 2.009 7.705 9.086-2.368zm-118.551 2.428l-1.625 8.287 10.094 2.168 1.708-8.248zm104.039 1.405l-9.349 2.026 1.606 8.247 9.374-1.966zm195.122 1.946l-7.705 7.565 7.705 7.986 7.763-7.986zm-282.967.241l-1.182 8.347 10.576 1.425.822-8.448zm71.215 1.143l-9.516 1.084.963 8.187 9.876-1.244zm-56.145.963l-.122 8.569 9.272.742.019-8.487zm40.895.803l-9.31.342.058 8.287 9.509-.603zm-169.88.08c-5.477 0-9.908 4.435-9.908 9.913s4.431 9.912 9.908 9.912c5.483 0 9.914-4.434 9.914-9.912s-4.431-9.913-9.914-9.913zm154.271.282l-9.157.08.045 8.387 9.433.04zm242.611.039l4.013 4.014-4.013 3.953-4.116-3.953zm-396.901 3.171a6.499 6.499 0 0 1 6.504 6.501c0 3.594-2.909 6.522-6.504 6.522-3.59 0-6.518-2.928-6.518-6.522 0-3.593 2.928-6.501 6.518-6.501zm-35.252.482l13.183 10.735c-4.193 8.029-17.478 24.982-17.478 24.982l-24.362-19.524 12.746-7.204a9.635 9.635 0 0 0-1.085 4.454c0 5.383 4.366 9.733 9.753 9.733 5.381 0 9.747-4.35 9.747-9.733 0-5.162-4.026-9.374-9.105-9.711zm-7.365 6.902a6.547 6.547 0 0 1 6.543 6.541c0 3.61-2.934 6.522-6.543 6.522-3.608 0-6.543-2.912-6.543-6.522a6.548 6.548 0 0 1 6.543-6.541zm448.071 3.087s3.589 1.364 4.469 2.712c7.069 10.853-.296 23.758-12.149 23.505-13.844-.295-17.484-17.65-7.962-24.728l7.737 7.308zm-359.923 4.417l27.289 10.475-10.351 29.657-29.838-12.24zm-112.169 3.091c111.334 100.308 269.503 107.521 384.458 40.934l7.005-.141 3.711 3.813c-130.969 77.449-293.767 60.596-403.681-39.088zm306.565 5.979l8.79 29.317-30.179 7.946-6.742-29.698zm-317.981 1.064c33.794 32.56 81.566 61.092 137.673 77.272l1.38 12.02c-59.555-17.885-104.54-41.771-148.364-83.232zm130.808.461c-5.38 0-9.753 4.37-9.753 9.752 0 5.383 4.373 9.732 9.753 9.732 5.381 0 9.754-4.349 9.754-9.732 0-5.382-4.373-9.752-9.754-9.752zm-48.536 2.188l28.15 14.888-14.024 28.072-29.902-16.032zm48.414 1.023c3.609 0 6.543 2.931 6.543 6.541s-2.934 6.522-6.543 6.522c-3.608 0-6.536-2.912-6.536-6.522s2.928-6.541 6.536-6.541zm46.617 3.993l27.045 3.933-1.245 29.978-31.56-3.793c1.207-10.551 5.76-30.118 5.76-30.118zm130.642.742c-5.381 0-9.747 4.37-9.747 9.752 0 5.383 4.366 9.732 9.747 9.732 5.387 0 9.753-4.349 9.753-9.732 0-5.382-4.366-9.752-9.753-9.752zm-.116 3.211c3.609 0 6.537 2.931 6.537 6.541s-2.928 6.522-6.537 6.522-6.543-2.912-6.543-6.522 2.934-6.541 6.543-6.541zm-219.919.421c-5.387 0-9.754 4.369-9.754 9.752s4.367 9.732 9.754 9.732c5.381 0 9.747-4.349 9.747-9.732s-4.366-9.752-9.747-9.752zm172.924.04l3.872 30.119-29.537 1.465-1.747-30.039zm211.694 2.689h4.193c.385 25.92 2.44 55.925 5.438 78.116.45 3.305.655 4.28.321 4.876-2.902 5.136-6.273-1.329-7.589-16.073-.36-4.063-.822-9.978-1.323-13.865-1.515-11.754-1.04-53.054-1.04-53.054zm-499.214.461c-44.414 27.707-118.287 93.891-117.844 95.433l.301 254.312 5.779.28 4.771-9.35c-7.384-1.85-5.317-15.735 8.829-18.521 2.414-.475 9.792-2.956 11.603-4.334 10.736-8.187 28.188-13.022 40.426-9.792 17.857 4.565 21.517 17.689 12.926 40.513-6.774 17.992-20.188 40.992-32.786 47.554-1.027.54-3.255 1.625-3.255 1.625s2.934 2.664 3.994 3.352c34.705-20.053 52.228-91.99 51.291-136.747 1.399-45.844 9.304-91.85 27.809-125.31 30.583-55.298 71.035-77.53 70.83-77.734 0 0-54.534-33.106-84.674-61.281zm114.474.02a6.544 6.544 0 0 1 6.543 6.542c0 3.609-2.928 6.521-6.543 6.521-3.609 0-6.543-2.912-6.543-6.521a6.547 6.547 0 0 1 6.543-6.542zm269.785 1.044l10.53 27.991-29.273 11.979-10.557-29.415zm-168.391.14c-5.387 0-9.754 4.37-9.754 9.753 0 5.382 4.367 9.731 9.754 9.731 5.381 0 9.747-4.349 9.747-9.731 0-5.383-4.366-9.753-9.747-9.753zm59.51 2.428c-5.381 0-9.747 4.37-9.747 9.752 0 5.383 4.366 9.732 9.747 9.732 5.387 0 9.753-4.349 9.753-9.732 0-5.382-4.366-9.752-9.753-9.752zm-59.632.783a6.548 6.548 0 0 1 6.543 6.542c0 3.609-2.935 6.521-6.543 6.521-3.609 0-6.543-2.912-6.543-6.521a6.547 6.547 0 0 1 6.543-6.542zm59.516 2.428a6.542 6.542 0 0 1 6.537 6.541c0 3.61-2.928 6.522-6.537 6.522-3.615 0-6.543-2.912-6.543-6.522s2.928-6.541 6.543-6.541zm99.564 3.331c-5.381 0-9.753 4.369-9.753 9.751 0 5.383 4.372 9.733 9.753 9.733 5.387 0 9.754-4.35 9.754-9.733 0-5.382-4.367-9.751-9.754-9.751zm-.122 3.21a6.547 6.547 0 0 1 6.543 6.541c0 3.61-2.934 6.522-6.543 6.522s-6.543-2.912-6.543-6.522a6.547 6.547 0 0 1 6.543-6.541zm-206.775.502l29.254 7.484-6.8 30.681-33.011-8.769zm370.093-.792c4.784 14.987-3.994 34.209-4.437 35.465-5.316 15.077-11.718 27.396-14.049 28.112-1.978.751-2.857.27-2.844-1.585.012-2.846 6.536-22.152 11.673-34.573 1.259-3.042 4.174-12.237 4.18-13.781.007-2.325-2.247 1.462-4.681 7.26-4.706 11.596-11.57 24.012-13.06 35.255-1.066 9.188-2.813 7.89-4.097-3.05-1.772-15.186 1.548-22.995 18.621-44.144 4.084-5.06 8.283-10.257 8.694-8.959zm-214.924 7.795l8.463 30.038-34.532 5.899-5.374-30.459zm-144.594 3.03c-5.387 0-9.754 4.369-9.754 9.752s4.373 9.732 9.754 9.732 9.753-4.349 9.753-9.732-4.372-9.752-9.753-9.752zm51.631 1.946l31.277 1.786.282 31.222-33.947-1.465zm-51.753 1.264a6.547 6.547 0 0 1 6.543 6.542c0 3.609-2.934 6.521-6.543 6.521s-6.543-2.912-6.543-6.521a6.547 6.547 0 0 1 6.543-6.542zm131.29 2.77c-5.381 0-9.753 4.368-9.753 9.751s4.372 9.732 9.753 9.732 9.754-4.349 9.754-9.732-4.373-9.751-9.754-9.751zm-64.852 2.508c-5.381 0-9.753 4.368-9.753 9.751s4.372 9.732 9.753 9.732 9.754-4.349 9.754-9.732-4.373-9.751-9.754-9.751zm64.73.702a6.547 6.547 0 0 1 6.543 6.541c0 3.61-2.928 6.521-6.543 6.521-3.608.001-6.536-2.911-6.536-6.521a6.542 6.542 0 0 1 6.536-6.541zm-64.852 2.508a6.547 6.547 0 0 1 6.543 6.541c0 3.61-2.928 6.522-6.543 6.522-3.609 0-6.537-2.912-6.537-6.522a6.542 6.542 0 0 1 6.537-6.541zm213.319 1.866c.513-.013 1.194.085 1.643.08 6.986-.079 30.551 16.843 36.581 27.089 5.008 9.047 2.414 12.639-3.352 4.555-7.949-8.857-22.647-22.004-24.515-22.012-2.01-.008.757 2.858 10.113 11.979 9.278 9.045 19.07 20.834 19.057 22.935 0 1.386-1.843 1.212-4.494-.421-5.786-3.567-10.813-7.173-13.382-9.592a310.733 310.733 0 0 0-6.601-5.979c-8.655-7.585-18.511-25.075-15.731-28.433.122-.15.372-.193.681-.201zm-436.468 2.488c6.029-.175 12.829 3.658 13.105 10.675.193 4.958.533 5.337 5.015 5.418 4.277.077 16.637 1.545 16.637 1.545l.077 13.885s-5.965-.036-12.842-.361c-11.705-.554-11.654-.57-13.144 4.575-.597 2.08-1.438 3.103-3.769 4.635-10.518 6.907-20.65-5.622-14.126-17.457 2.241-4.062 2.369-5.45.822-7.886-3.147-7.064 1.04-14.675 8.225-15.029zm2.568 7.104c-1.297 0-2.716.557-4.013 1.846-1.733 1.718-1.746 6.62-.019 9.471 1.65 2.727 1.605 3.46-.321 5.257-3.397 3.166-3.493 9.446-.18 11.808 3.018 2.155 6.222-.69 6.241-5.046.02-4.773 3.359-4.685 3.359-4.685l21.998.381.071-3.585-15.963-.799c-2.215-.009-4.54-.22-6.254-1.379-1.817-1.256-3.885-3.435-1.907-6.086 2.767-3.713.302-7.208-3.012-7.183zm-47.675 8.206l10.434 17.738 12.161.442 1.06 10.795 14.781 9.519-15.141 8.859-.745 10.86-11.474 1.442-10.653 13.344-10.215-13.324-11.256.061-.161-11.137-15.494-9.972 16.958-9.532-.18-12.721 12.02-.803zm368.565 8.066l.501 10.716-17.074 3.03 2.228-10.916zm-109.44 10.796l23.02.703-1.329 150.391s-4.534-.032-5.394-.04l-.103-5.859-7.365.241-7.48-4.535zm-259.125 3.812l-13.504 17.096 16.354 14.287 14.409-16.715zm266.028 2.288v6.923h9.651v-6.923zm-265.727 5.92l9.51 6.962-7.243 9.572-9.169-7.946zm368.746 3.932l-.302 82.309c-31.624 24.817-41.474 68.506-41.474 68.505l-12.861-.763 32.683-144.994zm-171.422 1.826c-28.458 13.539-57.134 23.79-85.361 56.083 10.929 9.836 22.48 19.863 32.747 36.62 23.501-3.499 49.641.704 78.157 11.919zm68.403 1.846v7.164h9.651v-7.164zM178.14 510.053c.7 2.19.924 4.535.924 4.535 20.862-1.75 15.546 22.467 2.248 23.296-1.56.202 1.284 4.294 4.392 5.599 7.904 3.32 13.58 1.186 18.762-5.72 3.968-5.296 4.212-6.059 4.212-6.059l12.881 6.822s.372-.187-1.907 5.719c-4.135 10.748 1.9 23.937 6.562 14.327 2.485-5.121 9.792-8.038 14.852-5.92 5.913 2.476 7.955 13.032 3.814 19.685-1.259 2.011-1.297 2.431-.527 4.294 1.162 2.803 1.882 10.013.662 12.34-1.574 3.018-3.391 3.706-6.942 1.244-4.86-3.369-7.576-4.771-16.033-7.123-14.845-2.794-17.754-8.018-23.655-20.226-17.587 5.266-43.9-5.759-40.394-31.865 1.599-5.76 2.035-16.82-.899-19.082-5.76-4.434.558-10.832 9.208-11.858 7.108-.706 10.53 6.026 11.84 9.992zm248.775-7.565l22.872 95.794c-25.106-9.196-49.75-16.372-71.556-11.036-9.985-15.935-18.499-23.778-29.575-34.132 21.581-26.018 49.024-40.577 78.259-50.626zm-258.811 4.696c-1.477-.015-3.146.623-4.893 2.167 0 0 1.548 1.295 2.389 3.05 1.342 2.807 1.354 2.805-.161 9.029-6.979 24.954 9.567 41.463 33.107 34.252 5.779-1.788 5.554-1.591 7.223 5.198 2.742 11.172 10.646 16.942 26.346 19.062.963.13 2.575.445 3.852 1.223 6.909 4.407 4.078-1.455 2.19-3.731-1.348-1.782-3.814-3.552-3.814-3.552s2.106-1.364 3.088-1.886c4.431-2.35 6.087-11.549 2.428-13.524-3.333-1.802-9.016.918-9.028 4.334-.026 6.24-7.905 6.904-14.794 1.716-8.842-6.659-1.008-23.44-.957-23.418l-4.989-2.193c.668.589-10.499 16.45-24.24 10.919-9.592-3.864-16.354-14.975-11.904-18.146 3.236-.868 7.127.912 9.587-.984 4.905-3.848.95-10.6-6.055-10.354-1.471.052-4.816.703-4.816.703.366-3.144 1.175-5.355.777-8.387-.405-3.035-2.511-5.449-5.336-5.479zm330.001 7.283v5.9l9.548.06v-5.899zm-.103 12.16v6.08h9.651v-6.08zm0 13.103v6.221h9.651v-6.221zm0 12.22v6.581h9.651v-6.581zm0 12.26v6.141h9.651v-6.141zm0 12.501v6.2h9.651v-6.2zm-313.781 6.06l8.122 13.725 9.651.421.385 9.431 16.412 12.541-14.344 10.254-1.047 10.173-11.378.361-9.208 15.531-11.339-13.625-9.105-1.464-1.047-12.401-14.023-10.494 13.182-10.535 1.06-11.016 10.736.943zm534.085 6.561c.88.018 1.83.26 2.871.783 3.409 1.72 4.482 1.921 13.343 2.367 10.273.519 13.907 1.437 18.999 4.837 3.076 2.049 3.256 2.038 6.543-.141 14.428-9.561 30.905-.869 32.105 16.936.315 4.68.784 6.566 2.626 10.494 1.259 2.722 2.562 4.867 1.805 6.601-2.312 5.302-13.427 5.643-19.482-2.227-1.085-1.187-2.183-1.7-3.692-1.705-3.005 1.118-10.697-4.937-10.614-5.198-.712 4.214-1.072 7.562-1.823 13.686l-13.465-.201s-.302-2.467-.925-11.077c-.719-9.896-3.178-12.791-6.337-7.444-5.445 9.206-19.912 5.158-20.753-5.799-.282-3.715-.494-4.197-2.53-5.759-6.806-5.238-4.822-16.276 1.329-16.153zm-220.304.542v5.498h9.651v-5.498zm221.846 5.879c-2.672.192-1.15 4.937 3.274 7.445 2.511 1.423 2.517 1.412 2.183 5.779-.597 7.907 7.031 11.784 10.415 5.297.591-1.123.841-2.553.604-3.512-1.419-5.747 11.012-4.179 14.004 1.766.687 1.367 1.458 5 1.83 8.669.347 3.476.437 7.504.437 7.504h3.974s-.045-2.4.18-4.695c.989-9.824 5.336-16.035 11.198-16.012 2.504.009 2.594.454.841 3.692-2.96 5.476-.109 9.444 6.807 9.491 4.379.029 4.366.036 5.997 3.15 1.791 3.42 3.146 4.505 4.816 3.872 1.181-.447 1.2.214-.341-11.457-2.298-17.39-12.418-22.075-26.39-12.22-3.949 2.789-4.816 2.705-8.322-.682-5.258-5.076-8.584-6.239-18.865-6.622-4.892-.182-9.721-.662-10.716-1.063-.79-.32-1.426-.437-1.926-.402zm-331.581 4.977c-2.286.039-4.938.519-7.236.716 2.549 13.439 3.743 26.879 4.912 40.318 11.763-2.044 27.006-.138 47.111 9.23 12.334 5.75 27.404 15.577 43.2 26.668 17.099 12.004 37.139 19.094 54.213 22.799 20.784 4.512 37.485 4.126 37.029 3.145-.924.154-7.499-32.966-6.632-40.048-28.76-2.64-56.524-13.288-77.746-27.713-28.098-19.096-60.576-35.7-94.851-35.115zm109.735 1.123v5.579h9.651v-5.579zm-316.716 1.104l-15.269 15.912 16.618 15.731 14.107-16.032zm-.417 7.224l8.649 8.287-6.986 8.848-9.734-8.387zm215.302 1.304c2.036.017 4.026 1.446 10.756 5.217 5.644 3.894 10.151 6.325 8.507.221 1.285-1.759 7.539 3.961 14.91 7.564 8.887 7.119 8.919 5.402 10.074 1.866 1.188-2.585 2.832-.836 9.934 5.739 9.323 8.639 8.488 8.651 10.35 6.502 2.126-4.036 2.832-3.994 10.435 4.735 7.897 8.813 9.573 10.694 11.256 6.923 2.6-1.953 3.948-.057 14.665 10.013 5.278 5.259 6.517 4.442 7.506.902 1.021-3.647 1.31-2.825 10.216 4.234 10.312 8.254 11.327 8.857 11.757 6 .681-4.539 3.878-2.928 14.486 4.695 6.434 4.596 8.861 5.874 10.235 4.736 1.4-2.476-3.487-7.237 6.883-2.749l2.851 15.049-3.596-1.023c-2.202-.628-7.037-2.264-5.214 2.428 1.053 2.709-1.56 2.388-9.612-2.408-11.538-6.871-13.664-8.449-14.524-7.043-1.528 5.144-1.329 5.475-9.112-.623-9.053-6.865-10.877-8.762-12.142-6.421-.167 5.184-2.69 4.132-11.134-3.15-7.14-6.242-8.662-9.504-11.859-4.728-.874 1.659-1.76 1.241-2.941.379-4.148-3.07-12.495-11.881-14.858-14.412-1.856-2.022-2.909-1.37-4.437.301-1.419 1.559-1.528 1.075-6.139-3.15-11.005-10.094-13.047-12.617-14.588-11.237-1.252 2.367-.052 5.584-8.508-1.084-10.601-7.636-15.205-11.025-14.486-6.02-1.817 2.241-.546 2.68-11.153-3.19-10.087-5.579-11.365-7.254-12.823-5.337-.995 3.03-4.379 1.942-4.379 1.765l-2.042-15.31 3.628.041s3.493-1.424 5.098-1.425zm-80.924 1.284c-.809 2.367-6.369 16.023-6.44 50.786.668.822 13.786-12.555 14.428-25.022.604-11.814-7.962-25.797-7.988-25.764zm182.736.963v6.341h9.65v-6.341zm-182.048 5.027c12.27 19.449-1.253 37.788-4.617 39.084 0-14.618 2.151-28.359 4.617-39.084zm321.968 16.338c-20.169 12.709-16.894 47.102-6.999 55.913.725 0 7.082-37.151 6.999-55.913zm-2.761 4.231l-5.426 44.265c-7.057-7.809-8.302-31.088 5.426-44.265zm127.187 7.472l10.652 13.404 9.471.703 2.113 9.671 13.824 11.257-13.85 9.391-1.22 10.715-10.293 1.043-10.196 16.033-9.972-15.712-9.555-1.023-.295-10.314-15.012-11.076 14.325-8.608.283-11.659 11.217.041zm-377.337 4.194c-6.767 32.189-22.935 54.216-45.749 69.026l.122 3.251-38.424 15.41c-8.417 39.268-23.552 77.576-55.284 113.514l8.854 17.979-42.924 14.743 61.442 105.368c4.232 0-29.767 16.095-70.81 11.895 25.973 63.6 31.328 129.44 16.951 187.09l201.119-.84-153.7-301.606-2.51-4.912c-2.132-3.943 81.707 11.789 63.908 89.547-.244 1.804.372 2.029 1.387 1.284 16.296-13.998 124.548-52.819 210.987-1.56l25.684-10.64c-12.219 42.787-26.114 72.227-49.538 98.027l3.968 60.89c41.448-33.94 86.427-96.25 92.463-179.059 18.666-9.093 34.904-19.424 52.293-29.158l2.305.745 11.262-6.762c-36.105-39.495-109.818-77.244-157.058-87.165l2.794 13.382c-26.07-6.999-45.564-8.521-65.835-10.691l-3.114-141.706-26.243-15.471-.822 156.31c-19.629.244-64.755 7.988-64.755 7.988l2.029-13.363-20.67 4.251-.359-13.022 23.353-6.703 33.871-143.587zm2.832 3.19l10.794 2.187-33.531 140.783s-18.807 5.195-19.963 4.469c-1.496-26.396-2.067-80.198-2.067-80.198 33.094-27.586 38.275-47.116 44.767-67.241zm-230.135 10.334c5.053-.063 10.492 3.612 10.839 6.923.866 2.04 1.586 2.922 2.947 3.11 8.463 1.169 8.732 3.409 8.97 8.287-1.188 9.351 5.073 1.501 6.845-7.785.186-.968.077-8.066.077-8.066l10.357-.101s.347 7.41.501 8.588c.912 7.182 3.974 13.005 6.1 9.19 7.281-13.081 23.969-6.411 21.33 6.2-.648 2.983-.61 3.173 1.426 5.438 3.313 3.697 4.546 7.609 3.448 11.016-1.066 3.328-3.397 3.834-8.405 1.826-2.357-.943-5.208-1.28-12.842-1.505-10.8-.317-11.468-.522-15.674-4.595l-2.645-2.568-4.579 2.688c-7.615 4.477-14.543 4.648-22.595.523-5.24-2.687-8.29-9.124-9.105-19.163-.161-5.334-1.657-9.196-4.957-10.474-1.785-1.68.199-5.02 3.249-8.067 1.4-1.003 3.031-1.443 4.713-1.465zm603.76 1.525l-14.229 17.738 16.913 15.13 15.751-18.521zm-329.538 2.549l19.699 11.276 2.53 139.696-22.274-.623zm-273.676 1.946c-1.503.147-.559 2.551.539 6.22.989 3.284 1.233 5.324.925 7.605-2.093 15.308 15.462 23.093 28.13 12.481 3.371-3.859 3.923-3.609 6.742.522 3.48 4.356 8.534 5.773 19.141 5.136 4.848-.29 8.052 2.295 10.158.582 1.516-1.101.045-4.019-2.889-5.718-1.798-1.04-1.862-1.202-1.509-4.796.899-9.061-6.569-11.46-11.879-3.812-4.379 6.317-10.993 2.142-13.118-8.287-1.271-8.026-2.28-7.9-3.236-.904-1.034 8.509-12.239 17.733-16.714 13.545-1.22-1.234-1.207-.926.045-5.197 1.611-5.483.321-7.526-5.664-8.949-.976-.233-2.106-1.051-2.484-1.807-3.166-4.901-3.031-6.621-8.187-6.621zm604.633 3.25l9.035 7.786-7.866 9.29-9.612-7.384zm-324.78 4.977v6.602h8.43v-6.602zm0 13.303v6.943h8.43v-6.943zm50.764 7.987c9.452 35.075 18.968 70.118 28.458 105.183 8.983-3.589 60.884-26.621 85.354-56.103-.931.074-22.248-20.771-29.716-34.292-24.477 4.034-52.595-1.099-84.096-14.788zm-50.764 4.173v6.481h8.43v-6.481zm56.081 1.766c22.313 6.652 50.886 15.829 77.193 11.157 6.787 12.192 16.611 22.226 27.694 31.483-19.912 21.661-48.71 38.183-78.497 50.909zm211.739 2.528c1.117.007 2.253.434 3.345 1.405 3.531 3.138 6.254 4.223 13.465 5.398 11.622 1.892 20.483 9.147 23 18.821 1.053 4.064 1.637 4.285 7.422 2.83 21.922-5.517 38.828 12.66 33.608 36.922-1.824 8.469-2.382 9.483.16 12.842 5.574 6.003 6.787 6.08.681 11.378-5.554 4.989-16.579 2.574-18.923-5.522-2.234-4.437-2.202-4.771-5.875-5.356-14.306-2.279-13.715-22.069-.244-24.361 1.13-.192 1.959.039 2.53-.218 3.827-1.734-4.167-10.78-10.774-9.392-8.104 1.701-12.142 6.9-15.327 15.049l-12.765-7.282c3.204-6.622 5.554-15.153 2.767-20.429-2.247-4.449-5.085-4.62-5.958-.361-2.042 10.02-14.499 13.012-22.673 4.856-4.572-4.558-5.105-9.45-1.747-16.053 2.177-4.271 2.229-4.578 1.304-6.381-3.211-6.273 1.136-14.175 6.004-14.146zm-267.82 8.147v6.762l8.45-.04-.02-6.722zm269.38.562c-2.594.019-2.575 2.547-.18 5.618 2.132 2.162 2.549 3.154-.398 5.016-3.699 3.423-4.501 8.575-1.946 12.501 3.827 5.895 12.669 2.61 11.655-4.334-.713-4.873 3.12-7.051 9.214-5.217 8.854 2.667 13.073 12.563 9.586 22.534-.655 1.88-1.958 6.262-1.958 6.262l2.613 1.586s3.101-4.956 4.315-6.458c10.062-12.365 33.839-6.1 31.187 9.367-.405 4.854-.385 5.515-5.676 3.993-3.513-1.81-6.909 1.946-6.8 6.64.173 4.231 3.846 7.621 8.925 6.941 4.032-.758 5.047-.617 4.758 4.816.411 3.782 1.824 6.286 4.296 7.564 6.003 2.478 9.092-.938 4.295-5.959-2.908-3.044-2.735-7.744-.905-12.162 2.183-5.271 1.047-16.868-2.305-23.413-4.835-9.426-18.345-13.376-29.659-8.668-5.175 2.764-5.74 3.403-6.241-1.445-2.838-12.022-11.879-21.106-23.154-21.912-4.334-.309-8.855-2.675-11.622-3.27zm-269.38 12.28v6.24h8.45v-6.24zm0 12.2v6.882h8.43v-6.882zm0 13.424v6.884s4.61-.129 8.43 0v-6.884zm275.223 11.038l9.227 13.645 10.216.68 1.2 11.019 15.494 9.651-13.426 8.405-.103 10.652-12.797 1.085-11.32 15.013-9.631-13.247-9.632.039-2.267-11.815-17.054-8.649 17.497-9.972-.481-12.425 11.898-.077zm-275.223 1.625v7.063h8.43v-7.063zm0 12.938v6.986h8.43v-6.986zm270.041 5.201l-13.221 17.593 17.819 14.73 14.164-17.799zm-270.041 7.044v7.641h8.43v-7.641zm271.409.918l9.188 7.108-6.562 8.322-9.131-6.961zm-271.409 13.208v6.395h8.43v-6.395zm-250.817.822c-16.246.071-31.617 26.384-35.297 38.847-4.353 15.963-5.002 44.838-.867 45.647 14.563-10.479 21.466-28.24 32.407-41.538 1.702 15.379 1.432 45.037 1.432 45.037s-6.479 3.403-9.965 8.784c-2.517 4.476-3.326 9.824-1.175 14.807-8.097-2.633-22.763.34-23.597 15.288.526 21.055 23.507 18.088 23.597 17.799-.488-.128-4.527 22.39 15.872 24.779 7.32.86 20.194-4.475 16.374-24.958 12.874 2.125 23.976-4.964 24.117-17.356.161-8.489-6.286-15.79-17.394-15.835-2.318-.006-7.205 1.047-7.205 1.047.154-1.226 4.45-14.402-10.498-23.963l-2.344-60.935s5.156 5.618 7.462 7.743c9.933 9.144 16.412 13.748 27.873 19.783 11.153 5.882 9.773 4.431 7.847-6.742-5.272-16.778-16.29-29.453-39.592-45.306-2.999-2.042-6.042-2.941-9.047-2.928zm1.605 1.303l3.268 86.189-4.835-.006-4.154-86.106zm478.12 2.851a9.22 9.22 0 0 1 1.323.039c10.518.886 13.214 12.636 8.489 17.857-1.869 2.067-2.511 2.51-1.541 3.775 4.507 5.715 1.99 14.743-2.473 16.13-14.184 4.411-16.335-3.346-16.29-12.483l-21.914-.822.141-12.758 24.162.481c-1.824-5.798 1.663-11.975 8.103-12.219zm-488.278.135c.096-.006.186-.006.263 0 2.273.199-.064 6.267-6.402 15.513-4.283 6.254-10.235 17.279-12.02 21.729-3.897 9.741-6.524 27.212-3.91 24.002 2.356-7.301 2.587-10.345 4.616-15.591 2.665-6.844 15.128-29.35 17.594-31.565 2.113-1.894 2.658-.732 2.607 5.599-.109 14.255-6.864 29.254-22.974 46.815-2.684 2.928-6.261 6.12-6.518 6.12-1.554-.007-1.515-3.237-1.483-10.017.103-26.93 10.1-50.976 25.479-61.321 1.207-.802 2.112-1.226 2.748-1.284zm16.316 1.246c7.069 2.067 19.751 13.413 24.984 19.244 6.055 6.536 14.164 24.63 12.739 27.411-.475 1.22-1.496 1.027-5.034-.963-22.493-12.663-38.597-28.266-34.378-33.313 1.181-1.406 6.016 1.497 12.482 7.507 4.399 3.904 8.9 7.859 12.926 11.821 6.318 6.222 7.737 7.133 3.929.218-3.416-6.209-13.111-16.63-24.842-25.485-4.765-3.596-5.85-6.498-2.806-6.44zm473.349 3.634a2.148 2.148 0 0 0-.783.141c-4.424 1.862-2.626 7.596-3.05 11.995l-24.323-.841-.135 3.371 22.814 1.245c.398 3.442-1.393 10.865 1.541 12.123 6.389 2.652 9.876-5.573 4.456-10.517-1.932-1.715-4.019-2.473 1.342-4.893 3.538-3.025 4.09-8.919 1.066-11.539-.835-.725-2.029-1.098-2.928-1.085zM360.695 818.1l-1.226 9.008-14.101 3.551-.366-9.631zm166.362 3.191c52.081 14.03 109.972 45.878 147.567 81.848l-7.525 4.938c-39.065-36.079-90.587-63.471-137.936-77.071zm-89.733 1.387c85.758-.238 163.941 33.1 227.027 86.94l-10.319 6.505c-57.545-47.567-121.299-79.293-207.077-83.075-56.062-2.472-120.041 11.904-183.095 46.591l-4.7-8.527c61.244-33.39 121.363-48.28 178.164-48.434zm-6.743 12.919l33.73.982-2.08 31.322-30.667-1.002zm-36.278 2.228l4.758 30.217-29.357 5.477-8.328-30.294zm106.775 3.994l33.504 8.925-11.057 30.802-29.414-8.386zm-53.68.443a9.626 9.626 0 0 0-9.631 9.631c0 5.317 4.308 9.632 9.631 9.632s9.632-4.315 9.632-9.632a9.627 9.627 0 0 0-9.632-9.631zm0 3.326c3.551 0 6.421 2.819 6.421 6.305 0 3.487-2.87 6.319-6.421 6.319-3.544 0-6.421-2.832-6.421-6.319 0-3.486 2.877-6.305 6.421-6.305zm-66.534.064a9.628 9.628 0 0 0-9.632 9.632c0 5.316 4.309 9.631 9.632 9.631 5.316 0 9.631-4.315 9.631-9.631 0-5.323-4.315-9.632-9.631-9.632zm0 3.333c3.544 0 6.421 2.812 6.421 6.299 0 3.486-2.877 6.318-6.421 6.318-3.551 0-6.421-2.832-6.421-6.318 0-3.487 2.87-6.299 6.421-6.299zm132.651 3.872c-5.316 0-9.631 4.308-9.631 9.631 0 5.317 4.315 9.632 9.631 9.632 5.323 0 9.632-4.315 9.632-9.632a9.627 9.627 0 0 0-9.632-9.631zm-186.729 1.123l9.933 29.473-28.438 11.519-10.653-29.113zm186.729 2.203c3.551 0 6.421 2.819 6.421 6.305 0 3.487-2.87 6.318-6.421 6.318-3.544 0-6.421-2.831-6.421-6.318 0-3.486 2.877-6.305 6.421-6.305zm55.702 7.063l30.16 15.937-15.59 28.169-28.112-14.647zm-252.506 2.549c-5.316 0-9.631 4.315-9.631 9.631 0 5.323 4.315 9.632 9.631 9.632 5.317 0 9.632-4.309 9.632-9.632 0-5.316-4.315-9.631-9.632-9.631zm113.935.925l1.406 29.754-26.711 1.888-4.855-29.575zm32.04 1.566l30.442 4.212-7.165 28.651-27.546-4.431zm-145.975.841c3.545 0 6.421 2.813 6.421 6.299 0 3.487-2.876 6.325-6.421 6.325-3.544 0-6.421-2.838-6.421-6.325 0-3.486 2.877-6.299 6.421-6.299zm99.725 3.853c-5.317 0-9.631 4.315-9.631 9.632 0 5.316 4.314 9.631 9.631 9.631 5.323 0 9.632-4.315 9.632-9.631 0-5.317-4.309-9.632-9.632-9.632zm-48.639 1.201l7.885 28.958-29.35 8.406-9.016-27.848zm106.569.462c-5.316 0-9.631 4.315-9.631 9.632 0 5.323 4.315 9.631 9.631 9.631a9.627 9.627 0 0 0 9.632-9.631c0-5.317-4.309-9.632-9.632-9.632zm-57.93 1.67c3.551 0 6.421 2.812 6.421 6.299 0 3.486-2.87 6.318-6.421 6.318-3.544 0-6.421-2.832-6.421-6.318 0-3.487 2.877-6.299 6.421-6.299zm57.93 1.663c3.551 0 6.421 2.812 6.421 6.299 0 3.493-2.87 6.324-6.421 6.324-3.544 0-6.421-2.831-6.421-6.324 0-3.487 2.877-6.299 6.421-6.299zm103.019.057c-5.323 0-9.632 4.315-9.632 9.632a9.627 9.627 0 0 0 9.632 9.631c5.316 0 9.631-4.308 9.631-9.631 0-5.317-4.315-9.632-9.631-9.632zm-52.113 2.813l29.421 10.055-11.744 27.488-28.15-10.716zm52.113.52c3.544 0 6.421 2.812 6.421 6.299 0 3.493-2.877 6.325-6.421 6.325-3.545 0-6.421-2.832-6.421-6.325 0-3.487 2.876-6.299 6.421-6.299zm-221.287 1.027c-5.317 0-9.625 4.309-9.632 9.632 0 5.316 4.315 9.631 9.632 9.631 5.323 0 9.631-4.315 9.631-9.631a9.627 9.627 0 0 0-9.631-9.632zm0 3.326c3.551 0 6.427 2.819 6.421 6.306 0 3.486-2.87 6.318-6.421 6.318-3.545 0-6.421-2.832-6.421-6.318 0-3.487 2.876-6.306 6.421-6.306zm178.228 5.619c-5.323 0-9.632 4.315-9.632 9.631a9.628 9.628 0 0 0 9.632 9.632c5.316 0 9.631-4.309 9.631-9.632 0-5.316-4.315-9.631-9.631-9.631zm0 3.332c3.544 0 6.421 2.813 6.421 6.299 0 3.493-2.877 6.325-6.421 6.325-3.551 0-6.421-2.832-6.421-6.325 0-3.486 2.87-6.299 6.421-6.299zm-344.571 3.352c7.699.327 13.472 7.236 13.825 14.434.263 5.465-6.71 12.624-6.71 12.624l-8.116-7.519-7.795 7.185c-1.317.437-7.372-9.856-5.522-15.186 2.408-6.934 7.365-11.833 14.318-11.538zm437.354 0l23.295 19.064s-10.228 6.215-12.122 7.32c.231-.828.34-1.702.34-2.607 0-5.317-4.309-9.632-9.632-9.632-5.316 0-9.631 4.315-9.631 9.632 0 4.559 3.191 8.399 7.448 9.394-2.395 1.374-5.58 3.146-5.58 3.146l-12.302-10.312zm-36.882 50.944l-10.312 4.232c-63.433-41.666-150.213-64.467-249.418-22.512l-3.409-8.226c73.642-30.666 166.561-40.214 263.139 26.506zm-5.638-41.634l24.959 15.308-15.854 24.342-24.374-15.59zm-7.545 47.195l-10.472 3.936c-77.437-49.757-159.967-47.105-233.705-17.279l-1.143-6.986c86.831-37.595 173.977-25.633 245.32 20.329zM628.99 915.5c3.551 0 6.421 2.812 6.421 6.299 0 3.486-2.87 6.318-6.421 6.318-3.544 0-6.421-2.832-6.421-6.318 0-3.487 2.877-6.299 6.421-6.299zm-450.535 11.41l-8.611 8.688 7.859 8.835s-2.491 2.106-4.302 3.088c-10.306 5.612-21.574-3.249-21.035-12.816.783-13.933 17.581-20.579 26.089-7.795zm409.724-6.652c-5.317 0-9.632 4.308-9.632 9.631 0 5.317 4.315 9.632 9.632 9.632 5.323 0 9.631-4.315 9.631-9.632a9.626 9.626 0 0 0-9.631-9.631zm-374.871.392c7.666.057 13.619 5.939 14.351 12.707.59 5.4-2.222 10.582-8.271 14.254-8.212 4.977-17.747-3.082-17.587-3.583l6.929-6.838-8.329-8.514c-.237-.161 5.49-8.084 12.907-8.026zm-23.97 1.65l14.184 14.145-15.012 13.992-13.902-13.973zm374.12 37.646l-7.969 3.654-10.851-6.543-3.211 6.157 6.036 3.834-6.273 2.356c-72.352-40.645-154.098-28.875-208.439-1.9 0 0 .469-4.18.501-4.18l5.914-3.018-2.209-7.487-3.172.924-.238-8.289c77.585-34.93 165.624-26.93 229.911 14.492zm24.721-36.362c3.55 0 6.421 2.812 6.421 6.305 0 3.487-2.871 6.319-6.421 6.319-3.545 0-6.421-2.832-6.421-6.319 0-3.493 2.876-6.305 6.421-6.305zm-399.143 5.06l-7.57 7.525 7.525 8.026 7.346-7.769zm236.813 1.663l-9.914.443.52 8.084 9.677-.238zm6.762.038l.179 8.091 8.99-.039-.039-7.988-9.13-.057zm15.949.142l-.436 8.045 8.925.405.642-8.007zm-38.526 1.027l-10.151 1.104 1.123 8.123 9.613-1.124zm55.163.115l-.719 8.309 9.169 1.047 1.239-7.949zm-276.122.045l4.411 4.694-4.392 4.373-4.674-4.572zm203.847 2.466l-9.792 1.548 1.041 8.366 9.554-1.888zm88.828 0l-1.624 7.744 9.111 2.189 1.484-7.904zm-104.88 3.39l-8.232 2.19 1.792 8.148 8.687-2.132zm120.509.321l-1.721 7.866 9.292 2.53 1.862-7.545zm-134.096 3.917l-8.604 3.044 2.222 7.551 8.751-2.954zm150.091.861l-2.87 7.564 8.045 3.229 3.551-6.864zm-164.294 4.43l-8.168 3.352 3.371 7.487 7.744-3.532zm-168.333.238l8.27 8.251 9.818-8.861c8.572 7.576 8.437 25.305-6.736 28.265-13.253 2.581-25.369-17.253-11.352-27.655zm347.376 1.592l-3.153 6.941 8.893 3.917 3.07-6.684zM274.57 993.432l112.169 190.648-17.735-.34-108.56-184.228zm-18.409 7.258l6.203 9.64c-12.148-9.67-29.999-1.53-29.248 10.65.598 5.45 5.201 8.76 5.221 3.52-.552-5.48 7.211-10.25 12.842-10 10.395.14 16.746 13.5 9.567 20.15-4.719 4.35-11.102 4.15-8.944-1.81.333-2.05.167-2.8-.803-3.69-2.986-2.72-8.489.82-7.147 4.72.88 2.56 1.143 3.19-1.926 5.29-11.892 8.36-3.602 24.82 10.794 17.32 2.947-1.06 4.141-1.21 5.477-.7 5.997 2.31 10.081-2.9 4.398-5.6-3.3-1.57-3.384-4.25-.199-6.38 6.8-4.54 17.388 2.55 17.356 11.64-.025 6.42-8.508 11.17-16.637 9.31-4.828-1.11-5.406 2.16-.982 5.55 8.578 6.58 21.427 1.13 25.26-10.71 1.207-3.72 1.034-4.5 1.034-4.5l11.449 18.89s-3.551-1.67-5.696-2.33c-10.774-3.28-22.859 3.7-22.897 13.24-.019 4.5 2.645 6.24 4.135 2.71 3.467-8.21 11.012-11.41 18.762-7.95 7.166 3.21 10.441 10.47 7.641 16.94-2.928 6.78-12.765 8.78-11.654 2.37.527-3.06-1.336-4.92-4.617-4.62-1.245.12-2.838 3.73-2.408 5.46.399 1.63.116 2.02-4.096 5.3-9.998 7.79-2.305 20.52 10.177 16.83 2.093-.62 2.877-.56 4.752.35 4.52 2.17 9.259.82 9.272-2.65.006-2.39-1.066-3.3-3.891-3.31-4.283-.02-3.352-4.86 1.386-7.23 11.873-5.93 24.002 9.05 16.772 20.73-3.108 5.02-5.072 5.54-16.174 4.31-1.792-.19-2.601 1.03-1.535 2.49 3.288 4.66 13.06 6.13 18.749 3.56 6.145-2.79 9.889-9.8 10.319-17.29l12.553 21.92c-9.766-10.21-26.602-6.31-29.312 8.31-.013 3.7 3.365 5.63 4.54 2.58 5.072-13.19 24.374-9.14 24.316 5.1-.006 2.29-.456 3.59-1.926 5.6-3.545 6.83-12.598 8.52-10.955 2.39.732-1.9-.719-3.96-3.21-4.56-2.453-.58-4.013 1.47-3.955 5.2.045 2.79.064 3.65.064 3.65-4.514 1.9-7.397 5.62-8.399 11.14l-87.858.2c10.447-60.9 7.994-115.89-11.982-167.89-1.721-4.51-4.199-11.06-4.199-11.06l15.506.41c3.737 3.24 17.877 1.98 23.399-3.03zm14.916 23.92l9.073 16.3c-3.756-2.15-7.576-3.58-13.42-4.07 3.05-4.53 3.288-8.59 4.347-12.23zm-23.854 17.33a5.969 5.969 0 0 1 5.978 5.97 5.97 5.97 0 0 1-5.978 5.98c-3.306 0-5.997-2.67-5.997-5.98 0-3.3 2.691-5.97 5.997-5.97zm62.567 48.69l8.739 15.55c-4.251-1.81-7.847-3.58-14.493-3.75 2.421-2.83 4.514-7.57 5.754-11.8zm-25.203 16.66a5.674 5.674 0 0 1 5.676 5.67 5.66 5.66 0 0 1-5.676 5.66 5.644 5.644 0 0 1-5.657-5.66c0-3.13 2.524-5.67 5.657-5.67zm63.318 48.48l12.906 22.89c-5.073-2.9-10.537-6.59-17.395-5.88 3.262-6.97 5.041-10.77 4.489-17.01zm-17.164 28.56l-13.843.04c2.767-12.09 13.959-8.95 13.843-.04zm13.093-5.84c4.706.25 8.771 1.85 11.314 5.95l-17.421.05s.122-6.02 6.107-6z"/></g></svg>