<svg clip-rule="evenodd" fill-rule="evenodd" stroke-linejoin="round" stroke-miterlimit="2" viewBox="0 0 934 1300" xmlns="http://www.w3.org/2000/svg"><g fill-rule="nonzero"><path d="M434.347 1184.52l96.719-176.55c-.012.05 23.411 8.98 50.8 16.09-26.286 68.49-.19 158.83-.19 158.83s-147.398 1.48-147.329 1.63zM168.552 882.805c-5.502-75.034-5.678-147.524 6.677-207.577.229-.961-34.55-21.049-30.947-23.355 5.509-3.529 74.025-39.246 74.025-39.246s4.626 2.632 8.618 2.225c3.12-.316 6.043-3.149 4.833-6.176-2.864-7.158-7.975-24.968-4.91-42.897 1.763-10.299 7.345-21.638 13.141-28.578 12.913-15.472 42.387-7.296 50.956-7.554 5.446-.163 21.889-57.675-4.3-68.347-7.219-2.94-23.781 36.319-12.273 45.131 1.735 1.325-23.143-13.098-42.2-21.703-1.767-.797-9.548-6.787-11.301-14.694-2.179-9.863 29.206-28.844 23.046-39.963-8.983-16.198-32.169-40.422-42.098-33.773-9.378 8.474-31.762 25.789-31.611 37.637 6.99 21.242 24.76 22.72 34.097 42.817 2.331 4.343 19.504 22.597 19.504 22.597-6.451 9.856 3.983 27.08 4.474 24.447l-81.358-35.441s18.646 140.296-1.045 161.06c-2.089 2.197 17.418-5.504 17.751-4.304 5.931 7.501 71.638 49.27 90.444 64.283 33.404-46.573 45.596-67.063 88.642-108.383 9.448-7.807 30.516-22.068 42.561-39.201 9.675-13.767 13.688-29.271 11.949-41.306-2.244-15.563-3.633-26.214-13.241-38.616-22.194-28.652-57.496-55.983-56.875-56.481l12.061-9.811s43.547 35.995 61.982 62.47c12.427 17.836 6.853 38.29 17.565 41.95 2.574.881 20.165-.586 25.943.522.697.134 128.089 90.02 104.993 95.205-31.975 7.178-82.963 2.495-82.963 2.495-36.403-35.523-53.971-47.205-75.664-36.074 0 0-54.977 48.078-86.71 85.722-18.076 21.452-33.173 48.299-45.271 65.569-4.659 6.653-63.038-49.427-62.446-42.702 8.671 61.044 13.612 134.583 6.903 184.438-4.606 42.352-10.913 87.835-13.732 126.889 0 0 9.803-2.841 17.269-.19 4.036 1.44 6.976 5.18 7.328 9.34 2.179 18.59-21.773 14.28-22.332 12.66.032-.01 13.371 28.69 13.371 28.69s-20.742 35.77-20.174 34.21c.357-.96-18.851-31.75-18.851-31.75s14.572-25.73 16.407-31.09c1.1-3.22-21.027 10.64-22.741-9.43-1.718-20.244 24.158-14.82 22.996-12.33-3.117-41.504-10.085-84.417-14.493-119.385zm311.895 93.372c.575-.431-55.049-22.314-106.142-20.252-18.004-7.006-47.366-14.338-66.964-1.278-22.033-14.916-41.06-31.337-60.391-47.606 5.413-.07 25.692-130.46 38.956-175.885-5.92-56.425 48.458-56.383 53.182-11.189 58.587 60.549 130.313 123.177 204.25 184.797-11.763 24.384-54.221 42.978-62.891 71.413zM608.533 577.03c-66.79-68.065-206.57-189.746-206.57-189.746l65.437-63.836c34.344 10.231 69.639 18.782 109.54 19.185.156.156 43.727 19.814 66.942-.053l60.399 47.839S679.23 522.122 664.52 568.09c.313 18.208-6.58 40.384-24.571 43.678-15.364 2.814-27.179-18.96-31.416-34.738zm134.992-157.672c6.967-42.815 8.403-73.981 13.238-123.931-30.125 8.82-29.718-31.767-.126-21.092l-13.718-30.214 20.312-34.033 18.647 32.32-16.056 28.651c33.374 1.64 25.321 32.604-3.418 25.13 5.419 47.851 17.351 96.19 16.772 143.496 10.328 75.871-12.707 181.442-8.893 183.945l32.544 22.372-5.56 165.068-51.393-22.513-15.296 10.312c4.91 9.714 11.155 19.028 13.265 29.582 0 0 35.394 29.097 30.482 38.166 2.28 1.337-25.188 37.673-33.249 36.767-15.392-1.729-33.39-21.576-38.315-35.715-4.341-14.218 31.778-28.154 27.222-38.556-5.45-12.442-19.208-18.426-31.405-22.084-16.814-5.043-24.507-18.347-25.278-18.347 0 0-6.534 52.758-12.826 48.54-25.308-16.968-8-70.802-3.304-69.303 0 0 11.052 2.539 24.109 3.766 46.006 4.817 42.89-51.715 33.974-79.079-2.236-6.493 1.26-6.542 1.014-6.626-2.136-.734 7.441-.2 15.566-2.593 22.34-6.581 56.565-29.295 56.565-29.295-35.956-19.933-67.697-42.676-96.172-64.242 0 0-26.434 45.084-57.765 76.355-22.807 22.765-26.518 30.515-64.691 59.829-.74.569-28.927 34.25-15.506 73.576 11.485 33.654 66.689 70.087 66.283 72.519l-10.868 10.376c.439.603-78.144-48.721-76.314-101.773-.087-2.004-35.715-2.695-35.715-2.695l-103.544-95.913 87.712-.376 45.04 36.762 28.141 1.46c1.839 1.617 2.86-7.431 27.643-25.907 47.353-35.301 106.026-125.949 106.026-125.949s62.043 43.608 62.105 43.616c-3.103-65.494-13.668-135.923-7.248-192.372zM517.639 109.847s-64.465 121.022-99.818 178.031l-50.078-14.353c20.982-55.658.892-161.739-4.388-164.41z" fill="#e2cf00"/><path d="M133.039 102.8l3.809 1089.84 676.701-.44-1.942-1089.4zm470.328 789.777c32.096-29.818 63.853-54.431 93.544-72.321 11.515-6.938 15.01-7.953 19.53-3.839 7.379 6.711 11.97 12.548 9.566 17.246-.545 1.059-2.283 2.818-2.283 2.818l-17.734-6.744 5.745 20.114c-15.959 6.495-15.67 23.754-.27 32.901l-10.598 24.378 24.633-10.839c.943 5.315 18.51 18.161 29.442.005l22.248 10.853-7.668-27.23c7.302-6.958 11.559-18.077.076-28.324l5.29-21.332-20.094 6.537c-5.033-6.88-7.956-6.407-9.117-8.283-.34-2.563-.404-8.536-3.744-14.04-2.764-4.552-5.924-9.385-8.874-12.771-1.571-2.649-.32-2.873 7.707-7.211 3.77-2.037 6.879-4.099 6.879-4.099s39.54 19.829 55.672 27.379l.916 365.165-216.881-.64c-24.39-72.78-6.867-135.69-.404-162.17-11.374-.95-70.027-19.94-71.784-26.479 23.236-36.904 54.774-70.435 88.203-101.074zM181.35 998.819c-28.288-9.13-28.576 24.921-14.125 27.561 3.751.69 7.662 1.25 13.522-.65 1.455.31-16.946 28.56-16.946 28.56s14.734 26.75 21.793 38.12l22.274-39.52-14.567-27.33c22.805 11.61 34.609-22.99 10.669-27.517-5.79-.782-12.176 2.107-12.176 2.107l12.586-118.349c10.149 6.895 28.666 20.723 28.666 20.723 4.212 65.205 1.128 119.546 37.59 214.406l.372 66.01H145.824l-.481-344.616 21.901 15.673c.468 1.946-3.487.645-1.352 24.627 1.929 21.664 8.527 59.234 15.458 120.195zm449.472-885.898c1 1.415.923 3.579 1.788 6.449 5.065 16.88 22.678 37.15 36.719 42.474 4.911 1.864 6.822 4.696 3.982 7.536-3.584 3.586-18.382-6.221-29.307-18.937-9.919-11.548-16.536-21.104-17.998-28.355-.871-4.304-1.307-7.071-.66-9.31 1.815-2.512 4.065-1.814 5.476.143zm17.503-1.826c1.859-.008 4.353 2.177 5.847 6.152 3.61 9.557 9.258 16.701 18.093 22.88 2.347 1.639 3.277 4.095 2.084 5.53-.436.532-1.013.793-1.667.975-6.886 1.924-25.03-19.067-26.479-32.097-.314-2.831.679-3.433 2.122-3.44zm22.581.261c3.668-.016 5.424 7.63 3.296 11.635-1.379 1.263-4.418-.685-7.117-5.706-2.321-4.314-1.391-5.906 3.821-5.929zm-12.284.12c.82-.025 2.52-.46 3.379.732 1.417 7.902 7.373 13.623 12.13 18.2.795 1.498 1.167 4.635-.577 5.451-4.167 1.844-16.708-12.41-16.792-20.656-.032-2.482.731-3.692 1.86-3.727zm-15.914 5.009c4.399 14.425 15.042 26.191 24.576 32.297 6.815 4.338 9.45 6.803 6.289 9.017-.788.549-1.583.97-1.769.942-15.958-6.093-35.571-29.2-36.232-45.555 3.475-4.451 6.54.534 7.136 3.299zm-55.235 62.612c-8.392.012-18.67 1.922-27.018 5.709-11.611 5.271-14.528 8.774-12.829 10.043 1.218.894 8.694-2.313 12.445-2.8 20.221-5.006 34.141-6.235 47.323-.489 10.188 4.442 10.252 2.403 3.411-4.994-4.963-5.362-13.817-7.481-23.332-7.469zm71.296 11.086c6.694-.068 13.529 1.497 15.952 4.616 1.891 10.098-3.154 5.481-7.213 3.469-5.873-2.708-12.598-5.048-18.875-4.085-4.033.62-4.142.417-1.86-.877 3.45-2.097 8.335-3.072 11.996-3.123zm-79.278 3.932c-19.132 1.485-25.755 11.158-38.11 21.135-5.071 3.857-3.917 6.843 2.27 5.83 7.629-1.25 10.707-.951 21.119 2.604 11.361 3.88 19.51 5.488 25.755 3.088 11.81-4.537 10.797-3.782-6.091 12.567-9.04 7.257-5.392 6.877 3.764.594 6.764-5.402 11.412-8.846 12.823-11.807.686-1.438.75-6.593 2.026-6.593 4.289.002 2.077-5.358-1.827-7.633-2.565-1.827-1.994-3.739 1.327-7.251 5.212-5.484 3.443-7.964-2.219-4.547-.993.541-1.487-1.135-4.943-3.219-5.462-3.297-10.072-4.832-15.894-4.768zm13.785 7.179c4.622 3.891 2.648 4.968-7.444 4.872-8.527-.081-15.785.815-25.915 4.173-11.502 3.814-12.208 3.911-5.45-1.846 9.297-7.919 28.179-15.864 38.809-7.199zm59.755-3.359c4.642-.1 8.559.559 12.092 2.507 9.637 5.311 11.784 9.916 1.052 6.162-6.726-2.356-15.818-2.024-22.094-.284-6.489 1.798-7.611 2.429-6.733-1.07 1.078-4.287 7.951-7.149 15.683-7.315zm-75.778 15.671c2.283 11.447 10.964 7.707 11.823.795l3.174.014c-1.346 9.191-13.868 16.883-18.728-.807 1.026-.027 5.572.287 3.731-.002zm69.251.194l2.353-.075c1.558 8.775 9.714 11.646 13.259.668l2.847.06c-2.18 18.306-21.556 9.389-18.459-.653zm-75.899.855c1.571.554 2.282 4.845 2.019 5.977-.545 2.346-8.213-.151-9.835-2.445 1.603-1.701 5.386-4.39 7.816-3.532zm104.27 1.95l-.019 3.206c-3.539.847-5.014 2.834-8.316 2.183.186-2.048-.16-4.863 1.763-7.253 2.404-1.273 5.277.288 6.572 1.864zm-77.22 3.706c-1.609 1.264-3.809 1.403-3.809 1.403-.346-3.07-.865-6.521 2.963-6.549 2.513.733 2.333 3.844.846 5.146zm44.156-5.089c1.346.095 2.923 3.442 3.109 5.39-.397 3.203-8.277 1.925-8.277-1.259 0-1.346 3.296-4.127 5.168-4.131zm-72.13 121.218c-6.084-3.043-52.221-31.079-64.044-80.66l-2.347 5.072c5.014 11.872 12.4 31.151 12.4 31.151-.308-1.661 1.885 12.916 6.591 37.664-2.494.029-5.251-.68-7.963-1.404-6.084-22.658-7.527-40.419-12.637-62.59l-2.225 6.191s6.431 39.785 10.778 55.339c-2.488-.236-7.072-1.262-7.072-1.262-3.622-16.782-6.424-28.036-9.841-44.861l-3.142 4.068c4.514 13.811 6.264 26.159 8.54 39.39-3.097-.466-6.213-.764-9.162-2.404 0 0-4.655-24.134-5.27-24.486-1.776 1.786-2.507 4.087-2.507 4.087-.186-.217 4.039 13.378 3.738 18.977-2.962-.488-8.104-1.969-11.727-3.186-1.898 1.261-2.885 3.361-4.341 5.248 1.783 7.68 107.643 24.303 101.296 17.953-.039.664 46.675 20.445 72.751 3.637 0 0 45.342 33.622 63.051 47.054 0 1.528 6.136 8.653 12.521 13.184l17.953 13.825c5.219 4.051 7.302 1.117 8.097-6.512.885-8.498 7.059-65.771 8.502-77.98 5.386-41.139 5.379-40.702-.866-38.81-9.559 2.894-18.157-.865-18.157-10.638 0-5.98 2.77-10.932 9.136-13.245 1.808-.618 4.168-.673 6.874-.62 1.237.222 3.526.374 3.77.42 3.039-.171-11.785-27.008-11.785-27.008s14.163-25.24 20.979-34.642l18.33 33.219-15.009 29.303c29.236-2.195 26.377 34.557-2.244 22.251 0 0-.173 10.917-.116 10.117.276-3.125.231-5.794 1.225-6.381 27.723 10.508 33.378-29.928 3.494-28.064 4.918-8.571 10.4-17.433 15.51-26.881l-21.607-39.381-24.409 40.599 12.285 25.346c-2.764-.717-4.982-.282-7.938.02-18.087 3.705-14.201 32.813 6.476 28.812 2.359-.458 5.911-2.244 5.911-2.244l-13.348 118.899s-1.315 1.067-6.668-2.792c-6.187-4.456-19.145-14.136-19.972-15.131 4.635-76.015-14.381-155.992-36.091-206.065-1.378-3.842-.564-79.256-.564-79.256l123.107.324.456 350.239c-6.437-4.075-13.4-9.437-20.017-14.106-1.981-1.605-3.212-3.509-2.359-6.571-2.18 4.656-.866 6.653-.866 6.653l27.185 21.717-1.077 344.685s-43.887-22.614-70.905-33.527c-12.188-4.973-12.733-3.54-12.733-3.54.038-.023 8.61 19.329 6.161 22.822 5.809 5.581 15.574 17.267 16.048 28.704 5.2 4.501 6.662 5.062 10.56 11.544l16.304-5.894-3.699 16.987c17.336 12.142.641 28.471-2.571 26.967 0 0 7.655 16.416 9.399 23.888-2.738-.186-16.471-7.633-20.299-9.396-9.95 19.583-26.749 3.148-26.883.26l-18.645 8.3 6.604-21.215c-12.002-7.301-20.113-18.338-.705-30.221l-4.482-16.551 15.965 6.27s2.975-4.783 5.238-8.271c-5.969-25.996-45.227-21.079-57.832-44.46 0 0-3.103 29.187-6.27 39.749-1.244 27.915-20.799-.324-20.799-29.854 0-6.669 8.38-29.105 11.22-30.194 2.949-.41 30.968 13.135 49.785-.321 8.572-8.911 23.345-33.977 9.149-73.22-4.699-9.068 8.932-10.215 13.356-7.155 0 0 40.95-21.417 59.441-31.736-31.013-17.039-95.5-62.376-95.455-64.527-8.604 13.657-18.458 25.11-32.314 44.421-22.453 26.438-40.001 51.565-68.5 72.69-40.072 29.178-49.484 58.546-38.309 93.027 4.527 14.901 13.631 30.015 28.544 35.244 7.591 7.671 38.072 36.53 38.072 36.53-50.888 46.331-85.825 84.439-110.329 126.544 20.683 10.881 70.564 26.631 70.564 26.631-18.529 61.57-10.091 110.48 2.11 159.57 0 0-144.785.19-219.915-2.18-.647.64-8.777.21-8.886-.31-.295-5.49 13.535-20.58 17.677-18.47 2.077-2.06 6.482-3.1 5.687-5.61-10.368-1.24-26.095 16.67-26.717 24.08h-6.181c-1.269-1.11 11.22-30.26 36.244-32.58-.262 1.05 3.36-2.27.642-3.69-29.173 3.46-42.759 35.83-41.893 36.27H335.2c9.925-31.84 35.751-41.88 50.696-43.26.141-.07 4.847-1.7 3.584-4.49-33.032 5.74-49.497 20.03-57.441 47.75h-5.95c4.296-28.12 33.212-52.74 65.898-51.94 1.019-.64 2.276-1.41 1.744-4.61-36.277 4.1-54.363 16.19-69.264 47.35-13.329-34.6-50.375-51.01-50.817-51.16 0 0-.898-9.68 1.173-9.28 31.602 11.43 43.669-16 42.348-31.95-.737-8.87-.237-13.76-3.206-26.55-2.648-11.4-4.603-19.08-4.392-24.03.205-4.9 1.744-5.89 5.36-7.53 6.777-3.07 11.015-14.19 9.509-15.55-3.482 8.09-12.682 9.48-16.92 14.92-3.386 4.47-1.892 11.6 4.135 36.35 3.674 15.08-.68 8.14-9.252 3.42l-5.725-3.24c3.84 3.95 7.899 7.67 11.81 11.54 3.5 3.2 1.539 5.17-3.482 3.32-7.232-3.61-21.164-2.1-26.505 2.45-2.077 1.48-2.814 1.33-3.34-.04-2.34-38.44 1.705-62.08 14.432-90.96 8.232-19.632 20.485-34.333 36.828-35.378 16.471-1.366 40.149 4.405 61.653 19.01 25.255 17.151 49.868 43.238 52.484 75.238.103.37 1.943-2.74 2.776-4.38 1.161-3.8-3.058-15.22-9.636-28.47-1.218-9.96-4.642-27.43-7.335-39.253 2.045-.93 6.412-.41 7.636 1.084 4.623 19.536 7.919 34.749 11.881 60.929.058 2.55 3.334-3.79 3.347-5.47-.571-3.9-11.477-55.126-11.259-53.959.064-1.738 10.348.551 8.931 2.167 0 0 7.822 42.962 8.38 41.632l2.642-3.64s-7.463-31.382-6.534-37.434c.641-.923 6.425.949 8.258 1.943 2.302 3.09 3.777 14.284 4.745 21.921 2.661 2.03 3.193-3.835 2.988-5.386-1.917-3.046-3.944-14.388-2.424-14.971 1.193-.455 7.822 2.173 9.098 3.308 1.494 1.334 7.271-6.668 5.802-8.053-31.269-11.976-70.725-18.965-100.41-19.439-6.899.025-9.637-.943-20.222-4.764-26.941-9.733-49.221-.038-52.491 3.033-32.897-22.857-69.629-54.787-98.865-75.159-1.372-.911-4.655-1.451-5.014-1.451-4.642 35.466-7.88 76.501-11.836 109.231-1.609 12.961-1.795 13.971-1.205 14.341.513.32 1.532-.2 1.936-.41 9.617-3.544 18.311-1.236 22.915 7.46 2.321 12.42-8.553 20.61-20.01 14.7-4.258-2.19-4.867-1.76-2.93 2.39 3.353 7.46 13.028 27.1 13.028 27.1.019.01-13.067 26.67-19.677 33.93-6.444-10.41-14.67-20.94-18.234-32.3 5.065-9.91 14.631-22.67 17.65-32.44-.429-.32-3.032-.05-4.847.9-16.721 7.91-19.407-6.99-19.189-12.34.455-10.886 9.937-13.2 23.709-8.12-14.887-98.89-18.061-155.233-14.259-149.135 0 0-17.978-12.852-26.915-21.57l-.808-720.146 215.106.324c21.927 58.787 15.894 129.481 2.782 166.292 23.28 4.256 46.798 9.753 73.367 25.005-44.88 65.799-115.343 136.916-191.659 182.447-4.328 1.952-18.542-6.911-20.209-15.667-.385-2.034.744-6.044 3.026-5.969 5.61 1.819 11.041 4.319 16.516 6.55 0 0-7.623-19.135-3.943-22.042 2.392-1.572 4.354-2.885 5.886-4.504 5.482-7.075 5.039-15.106-.757-21.272-2.34-2.447-5.065-4.136-6.424-4.758 0 0 5.379-14.93 8.079-21.967l-21.178 7.004c-6.86-9.505-19.465-16.899-28.781-2.748-1.782 3.773-1.41 3.193-14.522-2.607-7.431-3.287-12.009-4.971-12.009-4.971 2.783 8.297 6.431 16.089 9.618 25.693-14.593 9.301-11.265 24.987 1.013 29.666l-6.47 21.188s13.798-5.141 21.274-7.138c0 0 6.559 6.59 8.501 12.849 3.334 10.737 10.906 18.522 15.696 22.955-7.976 5.847-11.919 7.817-20.902 12.136l31.019 12.53c-1.93-6.556-6.039-11.424-6.456-19.717-.366-7.105-.77-7.236-5.36-12.045-7.514-6.48-8.649-15.151-12.868-22.229-2.943-1.778-5.29-5.339-7.482-9.365-4.726.447-15.388 5.747-17.401 3.847-2.475-2.64 4.289-16.171 3.539-17.522-5.443-.466-20.696-12.352-2.533-25.594l-5.796-21.535s13.83 6.043 20.46 9.427c4.603-21.519 25.601-11.199 28.992-1.923 0 0 16.645-5.471 15.612-1.032-.461 3.986-3.167 13.93-3.167 13.93 14.965 13.249 11.868 19.753-.288 28.441-.186 7.023 2.763 17.941 2.763 17.941s-8.463-3.759-14.041-5.338c-2.231 2.232-4.77 6.264-4.347 8.34 3.783 16.746 24.434 21.408 55.03 38.524 1.051-10.82 8.514-25.608 9.36-38.59.526-9.467.853-9.616 7.515-6.591 17.535 12.661 12.182 47.456 5.789 61.73-3.782 8.082-4.404 7.874-11.758 5.53-10.188-3.245-28.198-1.937-38.11 1.423-13.702 5.611-20.164 36.175-20.318 45.461-.238 8.822.442 17.572 5.071 28.472 1.917 6.972-1.609 12.347-7.892 10.478-1.411-.419-4.771-1.703-4.771-1.703l-59.146 30.595 11.144 6.555s-8.214-4.902-3.123-7.559l50.709-26.463c9.45 3.686 8.181 4.438 14.31-1.945 3.668-3.775 5.463-3.85 10.374-3.379 29.897 2.869 43.143-1.484 48.311-14.013.775-1.88.48-1.815 3.532-3.356 5.655-2.199 8.316-6.178 8.605-11.171.186-3.274 1.609-3.72 4.103-6.008 4.648-4.271 5.591-9.625 2.661-15.127-1.379-2.589-2.43-3.406-1.86-6.093.962-4.5-.705-9.187-5.026-14.145-4.982-5.708-4.944-4.742 4.424-13.473 18.414-17.501 34.641-30.898 52.548-46.733 12.246-10.834 10.926-10.059 15.696-5.102 17.548 18.248 24.434 46.7 16.529 71.719-.372 1.175-.539 1.041.384 0 4.963-5.627 5.104-33.947.859-46.503-5.167-15.431-10.181-23.466-27.287-38.575-10.675-9.643-39.738-37.476-39.738-37.476 42.277-36.661 87.818-82.232 113.348-124.128-13.105-14.051-73.847-27.008-73.847-27.008 7.559-15.686 22.517-86.153-3.091-164.288l218.235 2.521 7.764.526s1.167-.447 1.789-.61c2.09-.547 3.135.927 2.629 3.266-1.603 5.963-10.355 19.925-16.535 18.771-2.751-1.068-1.975 4.224-3.206 6.426 9.733-1.262 21.145-13.594 24.005-25.818 1.57-2.567 2.583-3 4.148-2.505 1.801.571 1.346 2.284-.596 8.195-6.098 14.787-18.459 28.526-32.827 27.154l-1.86 5.044c19.382-.313 34.372-18.485 38.796-32.078 3.097-8.08 3.213-9.175 6.322-8.395 2.571 2.379.981 5.795.109 8.606-9.745 31.131-36.507 39.451-49.837 38.098-1.602-.2-1.884 1.305-1.404 3.867 28.634 1.89 51.44-22.774 54.658-43.939 1.571-5.877 4.296-7.884 5.861-5.198.884 2.369.589 4.787.16 7.044-7.829 33.41-43.438 52.38-65.205 46.962-1.007-.94-2.648 3.677-.276 5.326 43.932-1.658 57.498-24.328 67.52-44.356 11.951 18.028 21.722 36.62 50.368 47.543 0 0 2.854 6.292.603 7.703-1.186.743-3 .398-5.629-.027-34.917-5.639-46.458 26.991-31.602 75.735 4.071 13.347 2.25 11.304-6.45 19.656-4.142 3.98-6.117 11.038-5.027 11.2 1.487-.839 1.981-3.125 5.61-6.131 1.577-1.309 4.821-2.559 7.213-4.208 6.456-3.745 6.399-6.307 4.078-15.161-1.725-6.583-6.111-26.606-6.117-28.637-.013-3.837.898-3.432 5.7.006 6.7 4.967 10.496 4.612 2.391-1.752-3.141-2.466-5.18-4.387-6.129-5.77-1.289-1.88-.494-3.096 2.122-2.276 12.028 3.771 22.357 3.497 34.032-3.609 1.34 32.155-3.084 80.941-30.031 115.825-20.664 23.209-60.236 5.647-74.874-1.683zm31.66-73.893c-.801.037-3.686.633-5.469 1.654-7.937 4.544-6.046 20.663 2.616 22.81 3.482.863 6.649 1.337 12.503-1.457 3.488-1.664 8.367-2.965 9.732-2.393 2.879 1.202 3.79-1.34 4.405-4.204 1.372-6.409-9.136-6.561-17.503.063-10.554 8.357-18.639-3.977-8.701-13.265 3.321-2.14 3.219-3.245 2.417-3.208zm-81.971 34.491l8.861 10.243 5.572 24.41c-3.379.574-7.476-1.302-7.476-1.302-2.763-11.043-5.463-22.096-6.957-33.351zm120.697 6.142c-.09.011-.192.034-.295.08-.378.164-2.026.908-4.309 1.162-1.32.147-3.308-.789-4.731-.701-3.879.241-7.502 1.383-8.476 1.783-1.193.493-2.366.7-3.386.1-2.891-1.705-11.322-1.223-13.88.281-3.039 1.29-6.45 1.307-8.938.02-1.071-.555-2.174-1.956-2.366-1.763-.397.396-2.013 7.306-2.5 9.977.012.941-.654 2.507-.263 2.666.493.201 2.084-1.243 4.045-2.244 4.027-2.054 8.528-1.896 16.433.039 9.752 2.389 13.554 1.696 19.312-1.242 4.584-2.338 7.373-2.9 10.418-2.063.75.206 2.751 1.245 3.026.981.539-.518-.936-3.409-2.205-6.271-.917-2.07-1.25-2.883-1.885-2.805zm-105.251 11.016c8.565 8.117 7.924 7.422 13.329 11.437l-.263 7.822s-6.623.148-9.873-.862c-1.026-3.044-5.489-18.318-3.193-18.397zm70.481 5.255c.584.399 1.424.818 2.584 1.215 13.644 5.115-.622 3.825-1.981 8.698 0 .439.622.507 1.289.244 4.68-1.84 16.118-3.03 21.318-2.024 6.751 2.278 7.174.703.686-2.685-4.751-1.87 1.007-3.144 2.949-4.78 4.02-2.59 1.251-3.658-3.872-1.199-5.136 2.46-14.272 2.421-18.433.088-1.847-.935-3.636-1.807-4.488-1.86-1.744-.07-.821 1.754-.052 2.303zm-53.696 8.763l7.982 6.242-8.168-.785zM370.765 485.048a2.93 2.93 0 0 0-2.924 2.925 2.93 2.93 0 0 0 2.924 2.926 2.927 2.927 0 0 0 0-5.851zM381.421 488l-36.616 17.385 9.674 3.241-.076 10.018 8.912-2.843 3.782 9.357zm1.628 8.187a2.931 2.931 0 0 0-2.93 2.925 2.93 2.93 0 0 0 2.93 2.925 2.93 2.93 0 0 0 2.924-2.925 2.93 2.93 0 0 0-2.924-2.925zm-46.432 17.791a2.913 2.913 0 0 0-2.924 2.905 2.93 2.93 0 0 0 2.924 2.926 2.931 2.931 0 0 0 2.93-2.926c0-1.612-1.314-2.905-2.93-2.905zm11.259 5.441l-41.111 18.883 12.188 3.703-3.218 12.546 9.925-4.168 5.539 8.421zm1.211 8.987a2.932 2.932 0 0 0-2.93 2.925 2.932 2.932 0 0 0 2.93 2.926c1.61 0 2.905-1.313 2.905-2.926a2.914 2.914 0 0 0-2.905-2.925zm-81.567 1.882c15.458-.021 32.795 5.861 38.713 19.094 1.571 6.615-4.931 10.554-18.818 6.746-22.953-6.294-27.236-7.002-23.421-3.1.506.514 1.513 1.775 4.95 2.945 8.649 2.947 25.383 6.356 29.896 5.891 6.168-.819 10.432 2.053 8.893 7.193-1.75 5.839-9.758 8.228-21.799 6.532-12.47-1.757-19.337-3.195-23.479-4.449-5.321-1.608-5.507-1.47-2.988 2.265 1.315 1.945 1.443 3.502 3.386 3.867 8.232-.465 17.003 1.111 24.562 1.823 13.573 1.214 15.702 5.062 5.732 10.939-4.725 2.787-18.856 2.023-26.89-.868-5.738-2.066-18.894-5.019-13.823-1.015 1.218.962.801 3.324 2.924 4.067 6.963.96 26.639 2.339 29.711 5.122 1.981 1.794-2.475 6.345-11.663 8.721-13.83 2.621-34.5 1.527-39.963-2.201-10.111-20.591-4.674-54.289 11.156-67.462 5.052-3.951 13.65-6.099 22.921-6.11zm90.646 10.738a2.915 2.915 0 0 0-2.911 2.925 2.897 2.897 0 0 0 2.911 2.905 2.913 2.913 0 0 0 2.924-2.905 2.93 2.93 0 0 0-2.924-2.925zm12.208 3.121l-42.445 21.137 10.733 3.189-2.545 12.351 9.951-4.099 6.02 8.309zm.327 10.344a2.93 2.93 0 0 0-2.924 2.925 2.93 2.93 0 0 0 2.924 2.925 2.926 2.926 0 0 0 0-5.85zm24.684 24.925c-18.824 18.316-40.034 32.827-59.409 50.615l4.193-.169 10.56-9.521 297.333-.934-6.944 10.14 2.924 1.255s8.918-13.183 8.309-13.789c-65.326.187-115.753.036-187.414.531-13.06-12.936-26.858-25.058-40.514-37.347zm-90.377 11.746a2.93 2.93 0 0 0-2.93 2.924 2.932 2.932 0 0 0 2.93 2.926c1.61 0 2.905-1.313 2.905-2.926a2.913 2.913 0 0 0-2.905-2.924zm388.172 2.235c25.684 19.062 56.12 42.439 81.375 56.316 10.11 4.393 9.13 5.891-1.148 10.748-10.098 6.279-26.909 14.369-40.931 21.438-6.078 2.296-8.733-.696-13.041.101-3.11.792-4.001 1.376-5.854 3.826-3.039 4.018-2.205 3.879-18.452 3.146-16.388-.74-23.146-.374-26.666 1.422-3.391 1.728-9.2 7.631-9.2 10.079 0 2.356-1.853 5.377-5.225 6.391-3.931.955-8.47 4.067-8.278 8.896-1.051 3.636-3.276 5.247-5.251 7.239-4.667 4.712-4.199 8.419-2.853 12.794.629 1.962 1.577 1.505 1.09 7.302-1.109 13.28-2.019 12.16 12.188 21.988l-72.591 63.251c-1.679 1.324-2.18 1.192-3.705.139-8.855-6.572-15.016-17.435-18.568-28.302-12.259-33.782 2.712-61.534 22.613-78.516 6.899-5.885 16.164-12.901 18.735-14.665 37.481-31.961 70.077-77.225 95.762-113.593zm-377.336 2.473l-41.502 19.594 13.368 2.251-2.558 11.548 9.681-3.669 5.123 9.733zm2.532 9.158a2.929 2.929 0 0 0-2.923 2.925 2.913 2.913 0 0 0 2.923 2.905 2.893 2.893 0 0 0 2.905-2.905 2.91 2.91 0 0 0-2.905-2.925zm380.247 12.847l-4.712-11.141s-13.112 32.286-15.882 43.227c11.105-5.723 43.637-22.284 43.637-22.284l-13.919-2.583 1.571-12.644zm-474.021 1.993a2.93 2.93 0 0 0-2.924 2.925 2.93 2.93 0 0 0 2.924 2.925 2.931 2.931 0 0 0 2.93-2.925 2.932 2.932 0 0 0-2.93-2.925zm12.714 2.665s-30.878 14.49-44.817 20.742l13.016 2.726-2.289 12.654 11.746-4.581 4.738 12.505zm1.654 9.558c-1.616 0-2.93 1.313-2.93 2.925s1.314 2.905 2.93 2.905c1.609 0 2.924-1.293 2.924-2.905s-1.315-2.925-2.924-2.925zm436.963 2.103a2.913 2.913 0 0 0-2.924 2.905 2.93 2.93 0 0 0 2.924 2.925 2.909 2.909 0 0 0 2.904-2.925 2.891 2.891 0 0 0-2.904-2.905zm50.49 2.643l-14.701 40.844 39.751-20.01-10.79-2.947.057-10.103-8.88 2.584zm-469.745 9.819a2.93 2.93 0 0 0-2.923 2.925 2.93 2.93 0 0 0 2.923 2.926 2.926 2.926 0 0 0 0-5.851zm434.739.743a2.91 2.91 0 0 0-2.905 2.925 2.892 2.892 0 0 0 2.905 2.905 2.912 2.912 0 0 0 2.923-2.905 2.93 2.93 0 0 0-2.923-2.925zm-422.55 2.994l-42.117 20.546 13.073 3.062-1.437 13.15 10.631-6.035 5.77 11.992zm2.635 8.687c-1.616 0-2.764 1.313-2.764 2.925s1.308 2.905 2.924 2.905c1.609 0 2.905-1.293 2.905-2.905s-1.456-2.925-3.065-2.925zm437.976 2.583a2.93 2.93 0 0 0-2.93 2.925c0 1.612 1.314 2.906 2.93 2.906a2.913 2.913 0 0 0 2.923-2.906 2.929 2.929 0 0 0-2.923-2.925zm-58.037 13.434l-3.918-10.995-15.579 40.321 41.905-19.196-13.297-3.12.23-10.529zm-42.579-8.68c-.481-.026-.904.107-.904.42 0 .932-10.707 11.396-10.707 11.396l-123.678 1.142c.25.018 10.291 2.796 10.291 2.796 16.227 12.963 41.649 35.955 41.649 35.955l30.704-1.224c17.004-16.692 42.553-29.386 53.947-50.005-.276-.278-.821-.455-1.302-.48zm115.933 8.312a2.93 2.93 0 0 0-2.924 2.925 2.913 2.913 0 0 0 2.924 2.905 2.898 2.898 0 0 0 2.911-2.905 2.914 2.914 0 0 0-2.911-2.925zm-95.474 14.077a2.896 2.896 0 0 0-2.904 2.905 2.913 2.913 0 0 0 2.904 2.925 2.925 2.925 0 0 0 2.924-2.925 2.909 2.909 0 0 0-2.924-2.905zm62.788 4.221c8.867-.044 17.407.261 19.613 1.947 13.708 11.537 7.213 65.469-10.06 72.278-18.952 4.266-32.064 5.057-48.516-5.794-4.667-2.273-13.919-9.149-12.117-14.823 2.468-6.975 9.245-6.467 28.672-.42 7.091 2.207 10.996 1.762 12.804.381 1.692-1.29-.52-2.732-4.149-2.746-1.455-.005-7.738-1.554-12.983-3.165-7.392-2.275-9.521-2.943-14.304-3.226-8.04-.476-10.38-.792-10.38-5.711 0-9.185 12.778-10.4 36.289-5.008 2.808.644 7.905 1.359 9.156 1.322.904.345-1.789-3.043-2.244-5.069-.847-.723-2.366-1.067-6.374-1.202-15.118-1.483-27.665-2.508-27.941-4.488-1.333-9.723 18.222-12.369 38.501-4.568 5.206 2.002 5.309 1.173 5.27-.341-.076-2.802-8.79-7.693-21.651-7.559-12.503.13-10.759-6.225-.481-11 3.52-1.632 12.028-.762 20.895-.808zm-48.362 10.422c-1.609 0-2.904 1.313-2.904 2.925 0 1.613 1.295 2.926 2.904 2.926a2.926 2.926 0 0 0 0-5.851zm-45.06 20.179l-2.648-10.896-17.016 42.399 42.983-21.885-14.176-2.663 1.244-8.921zm-21.902 17.025a2.93 2.93 0 0 0-2.923 2.925 2.93 2.93 0 0 0 2.923 2.926 2.91 2.91 0 0 0 2.905-2.926 2.91 2.91 0 0 0-2.905-2.925zm42.816 12.028l-3.616-10.302-14.451 36.906 36.674-16.381-10.829-2.956 1.538-11.183zm-29.191.108a2.93 2.93 0 0 0-2.924 2.926 2.93 2.93 0 0 0 2.924 2.925 2.909 2.909 0 0 0 2.904-2.925 2.91 2.91 0 0 0-2.904-2.926zm9.393 14.097c-1.616 0-2.93 1.293-2.924 2.905a2.926 2.926 0 0 0 2.924 2.926c1.609 0 2.904-1.313 2.904-2.926a2.896 2.896 0 0 0-2.904-2.905zm-18.433 8.641l-12.375 34.957 34.456-16.681-10.066-3.318s.551-7.86-.398-7.496c-.602.231-7.084 2.041-7.084 2.041zm30.672 4.182a2.913 2.913 0 0 0-2.923 2.905 2.93 2.93 0 0 0 2.923 2.926 2.926 2.926 0 0 0 2.924-2.926 2.909 2.909 0 0 0-2.924-2.905zm-45.682 16.816a2.932 2.932 0 0 0-2.93 2.925 2.932 2.932 0 0 0 2.93 2.926 2.93 2.93 0 0 0 2.924-2.926 2.93 2.93 0 0 0-2.924-2.925zm13.17 13.524a2.913 2.913 0 0 0-2.924 2.906 2.93 2.93 0 0 0 2.924 2.925 2.926 2.926 0 0 0 2.923-2.925 2.909 2.909 0 0 0-2.923-2.906zM397.776 971.038c-1.577.237-5.68-3.514-6.475-5.27 2.34-.597 4.751-.161 6.059.936 1.083 1.025 1.846 3.661.416 4.334zm12.477-2.526c-.551 4.27 2.09 11.996 1.59 13.823-1.359.667-8.213-6.687-9.899-8.47-.353-2.443.025-5.539.16-6.943 2.36-.417 6.533-.257 8.149 1.59zm12.349 2.128c1.461 9.464 5.629 24.678 4.975 29.81-.616-.496-5.905-5.702-9.803-11.229-1.372-3.315-3.514-14.83-3.328-20.35 2.629-.359 6.162.064 8.156 1.769zm-82.702-1.07c-4.213 2.154-9.008 3.699-15.022 3.673-4.822-.019-13.131-2.519-12.291-1.904 2.199 3.93 7.931 1.866 8.046 4.43-1.43 2.539-5.244 2.302-7.142 4.732-.398.641.564 1.186 3.25.904 8.149-3.699 18.799-3.629 28.538-.429 2.052.429.705-1.533.013-2.052-1.27-.93-3.36-1.904-5.117-2.116-8.514-1.513-4.776-2.372.917-4.911 4.181-1.532 5.232-5.29-1.192-2.327zm18.446 12.028c-1.135.089-3.969 1.525-7.072 2.782-5.245 2.122-10.098 1.629-17.151-.34-6.129-1.705-8.361-1.231-14.464 1.84-4.046 2.597-8.476 3.322-11.682 1.507-4.155-2.359-4.129-1.551-2.071 4.289.513 1.456-.5 5.873 1.308 6.893 1.372.776 2.962-1.808 4.026-2.167 1.065-.359 7.752 2.641 11.483-.661 6.655-2.41 8.649 1.501 13.259 1.122 7.489-2.635 12.169-5.385 18.594-.295.384-1.904 1.878-12.323 4.27-14.791-.064-.141-.238-.199-.5-.179zm-13.631 29.992c-5.386.06-8.303 3.37-15.247 2.74-5.546-.39-7.444 4.53-5.091 8.12 1.655 2.52 3.867 2.98 11.426-.48 3.109-1.43 7.431-4.56 9.957-4.31 7.399.74 9.188 7.89 3.026 13.93-2.994 1.76-3.02 3.67-2.109 3.7 2.436.1 7.366-2.81 8.482-6.2 3.065-9.28-2.443-17.67-10.444-17.5zm24.158 42.77c-7.007 1.48-17.106 9.52-20.536 14.73-3.212 5.07-6.289 10.81-4.045 13.64 1.84 2.32 4.417 4.58 4.635 5.84.192 1.1-1.308 2.19-2.712 3.76-6.155 6.88-4.693 7.26 3.937 2.8 4.366-2.27 6.405-3.18 9.258-2.43 8.309 2.16 18.664.62 25.704-1.97 3.18-1.16 6.289-2.75 6.533-1.94-12.849 14.13-28.865 10.57-34.584 9.72-.993-.26-1.763-.2-1.763.14 0 .68 1.654 2.18 5.187 3.75 5.905 2.61 20.087-.17 28.954-6.64 17.536-11.47 27.198-22.43 13.381-17.85-6.334 2.1-8.713 1.73-16.407-1.74-11.534-5.22-20.376-6.74-29.935-3.41-12.105 4.22-2.821-5.75 10.803-14.4 2.95-1.88 3.315-4.03 1.59-4zm-65.301 29.82l-4.039.06c-2.885-9.72-9.861-9.7-12.881.06l-3.372-.23c3.302-12.13 15.778-14.62 20.292.11zm71.809.8l-3.033.14c-1.833-5.89-8.322-11.07-12.887-1.42l-2.103-.43c3.732-15.42 18.619-6.84 18.023 1.71zm-20.222-8.85c1.891 0 2.366 2.14.218 5.63-1.507 2.45-3.302 2.23-5.11.38-1.622-1.63-1.526-1.92.244-3.53 1.885-1.72 3.513-2.49 4.648-2.48zm22.338.06c.82-.03 2.385.65 4.135 1.24 4.604 1.55 5.649 2.84 3.764 4.73-1.853 1.85-5.373 2.41-6.995 1.36-.077-2.32-2.366-4.1-2.449-6.43.006-.62.724-.88 1.545-.9zm-72.11.07c3.193-.14 7.475 1.75 7.161 3.59-.34 2.02-3.488 3.33-6.084 3.55-1.738.23-1.667-.48-2.122-1.71-.404-1.1-.93-2.51-1.231-3.61-.712-2.11.647-1.75 2.276-1.82zm-21.819.71s-1.789 5.31-2.59 7.13c-6.681-.35-6.046-3.3-2.892-5.43 1.693-1.29 3.411-1.32 5.482-1.7zm-5.187 12.64c1.206.02 2.712 1.07 4.809 1.75 5.911 1.9 15.74 1.68 23.402-.09 3.667-.84 5.405-1.98 6.213-1.4 1.436 1.04-.052 4.67-5.354 6.99-6.899 2.55-17.426 3.93-25.402-.14-6.822-3.47-7.579-7.18-3.668-7.11zm-1.82 7.61c6.251 4.14 12.515 5.44 20.253 4.72 11.586-.42 13.651-1.85 3.886 3.32-9.021 4.78-22.928 3.89-25.601-1.29-1.539-2.96-.545-6.5 1.462-6.75zm56.139 6.93c-.045 0-.071.02-.103.03.936 6.25 11.432 11.97 16.471 13.32 10.688 4.74 27.685.05 40.476-5.47 9.335-4.03 12.708-10.11 1.577-6.65-17.901 5.56-40.373 5.98-51.625 1.66-3.661-1.73-6.168-2.91-6.796-2.89zm-58.909 23.42c22.402 5.05 49.477 39.6 49.375 54.71h-7.232c-11.015-38.43-39.624-46.75-42.419-49.04-1.282-4.72.327-5.79.276-5.67zm-.359 9.73c26.627 11.66 36.096 32.47 40.084 44.98h-7.783c-5.803-17.21-16.228-29.49-32.359-37.13-1.096-2.39.058-7.85.058-7.85zm-.039 11.78c13.644 4.02 25.672 21.98 29.089 33.2l-6.809-.04c-4.828-12.52-11.669-20.54-22.543-25.17-.448-2.36-.359-5.02.263-7.99zm-.218 12.2c6.405 1.29 17.254 11.25 18.812 21h-6.252c-2.205-6.57-9.021-12.58-12.515-15.03-.006-1.19-.045-5.97-.045-5.97zm.654 10.41c.693-.43 10.252 8.18 8.643 10.59h-8.617c-.103-2.68-.16-10.62-.026-10.59z" fill="#131f67"/><path d="M517.812 111.516c-16.24 31.45-99.551 173.093-100.397 178.022l21.337 9.437 103.584-186.738s-21.465-.698-24.524-.721zm244.58 118.292l-9.681 13.605 8.238 14.926 8.355-14.766zM381.818 371.924s-29.877 29.681-41.553 43.525c25.095 25.04 73.066 56.481 73.418 104.861l33.071.126 107.053 95.748s96.941.706 98.75.286c1.949-.454 36.391-49.757 36.391-49.757l61.429 44.785s-2.943-48.234-5.264-77.789c-.763-19.769-1.417-31.928 13.035-40.677-19.857-9.464-18.6-26.862-4.001-39.639-4.815-6.659-12.015-7.89-13.099-31.5-3.033-3.258-5.911-5.169-9.713-7.934l-3.969 3.546c-12.746 11.443-21.427 23.116-22.864 30.715-2.718 14.464 11.971 24.372 20.46 13.805 2.391-2.978 4.526-2.144 4.526 1.743 0 7.886-9.918 12.34-18.311 8.235-1.962-.96-3.693-1.598-3.866-1.423-.302.304 8.328 21.444 10.656 26.107 3.885 7.758 5.917 15.548 6.212 23.703.321 8.706.148 9.821-3.923 24.864-3.841 14.173-2.033 22.6 4.827 22.6 3.86 0 3.738 3.71-.16 5.07-8.29 2.889-13.432-3.22-13.727-16.269-.173-7.932-.314-8.127-4.385-6.212-14.176 6.663-29.57-5.247-22.902-17.711 1.404-2.619 3.058-1.793 3.924 1.943 1.635 7.012 5.308 10.103 11.944 10.078 15.298-.057 21.71-21.673 12.881-43.438-1.77-4.369-2.661-4.12-4.988 1.403-3.648 8.663-9.765 11.214-14.804 6.171-1.693-1.691-2.507-4.433-1.366-4.568.269-.031 1.949-.104 3.731-.16 8.912-.286 11.99-8.933 7.81-21.94-3.668-11.428-4.232-13.5-5.328-19.695-1.687-9.573-.507-16.839 4.225-26.127.84-1.641 6.065-7.482 12.566-14.045 6.636-6.701 12.343-11.842 12.343-11.842s-3.354-2.892-7.906-6.311c-9.585-7.201-11.284-8.441-11.284-8.441s-45.554 125.085-42.322 173.818c-5.784 64.21-52.985 46.446-56.46 1.977zm-2.032 18.753c15.567-.259 25.832 20.331 31.692 63.053 1.942 14.157 10.572 33.984 16.83 38.669 15.798 11.823 40.514 2.712 40.533-14.947.026-21.983-30.839-25.241-31.313-3.305-.116 5.17-2.77 5.439-5.309.521-2.27-4.388-.224-12.589 4.187-16.73 2.827-2.655 2.603-3.155-2.789-6.132-18.773-10.365-26.762-25.823-16.728-32.398 4.392-2.875 10.387.76 7.636 4.629-4.302 6.045-4.36 7.002-.763 12.021 4.084 5.705 8.931 8.553 20.414 11.942 9.65 2.845 11.233 3.379 15.689 5.409 13.041 5.944 18.998 19.03 14.445 31.737a687.772 687.772 0 0 0-2.321 6.572c-.468 1.394.295 1.402 9.477.181 14.605-1.945 30.833 3.273 38.828 12.482 4.302 4.95 7.745 16.078 7.854 25.365.025 1.789.57 5.828 1.244 8.977.673 3.148 1.558 8.47 1.962 11.82 3.821 31.782 30.281 48.037 41.713 25.627 7.2-14.104-9.438-28.212-17.908-15.187-2.975 4.574-6.039 2.471-4.327-2.966 3.327-10.564 16.522-12.361 25.505-3.466 4.86 4.81 7.187 15.719 4.827 22.641-1.237 3.632-1.109 3.862 1.584 2.924 6.04-2.104 16.471-.078 20.216 3.928 8.822 9.439 7.052 20.77-3.809 24.443-4.937 1.655-10.528-.064-12.361-5.85-.802-4.124 2.039-5.311 4.225-1.763 4.11 6.645 13.054 1.288 10.944-6.552-2.404-8.921-10.027-10.814-24.107-5.971-22.376 7.7-29.595 7.058-40.309-3.586-7.649-7.598-10.521-14.163-12.586-28.651-2.269-15.999-2.487-16.414-6.45-13.044-18.933 16.112-43.951-8.236-27.909-24.243 4.963-4.961 8.611-.639 4.148 4.909-6.52 8.097 1.981 19.376 12.625 16.75 19.381-4.783 15.426-33.146-5.553-39.771-6.392-2.021-23.96-1.183-37.469 1.783-37.719 8.28-54.388-7.821-62.153-59.988-.904-6.095-1.962-10.6-5.546-23.723-4.251-15.568-18.702-24.019-26.588-15.548-6.29 6.755-2.982 15.847 5.77 15.869 8.726.021 6.053 6.003-3.045 6.812-15.785 1.403-18.53-24.87-3.386-32.398 3.693-1.838 7.149-2.792 10.381-2.845zm-206.002 9.698l4.892 18.695 19.51 5.511-6.187-17.791zm50.042 5.581l-5.238 16.918 14.785-3.626 4.821-17.646zm160.448 27.698a5.611 5.611 0 1 1-.002 11.222 5.611 5.611 0 0 1 .002-11.222zm-188.03 10.095l-15.382 5.381-2.955 13.413L194 458.396zm36.693 4.239l-12.56-2.167 3.532 13.848 13.304 5.439zm545.458-1.06l-8.078 6.286c23.549 20.472-1.873 40.202-2.661 38.865 17.029 11.269 13.99 29.047 11.784 45.321-4.033 29.036-5.604 56.499-9.995 86.255 0 0 20.51 14.155 34.16 19.635.257.032.077-174.592.077-174.592zm-290.659 26.297a5.611 5.611 0 0 1 0 11.22 5.611 5.611 0 0 1 0-11.22zm-344.381 14.358l.699 162.948 33.731-60.313-23.203-26.77 20.055-21.417zm328.436 24.833a5.611 5.611 0 1 1-.002 11.222 5.611 5.611 0 0 1 .002-11.222zm76.572 16.669a5.607 5.607 0 0 1 5.61 5.61 5.607 5.607 0 0 1-5.61 5.611 5.611 5.611 0 0 1 0-11.221zM767.72 710.61l24.774 25.429-19.35 24.097 30.467 51.708-.487-159.986zm-624.679-53.515l1.18 175.26 26.492 19.326 6.719-6.344c-17.099-18.258-6.886-31.839 6.001-39.698-22.735-5.294-15.836-35.449-14.477-49.424-.557-25.944 8.951-55.546 6.027-80.49zm152.587 24.36l-37.975 52.904s-41.72-31.603-62.756-45.861c2.251 22.83 4.302 51.953 7.091 76.51 6.822 35.856-10.938 36.474-11.098 39.908 28.23 21.424 4.533 41.46.289 40.454 15.035 8.185 13.797 33.056 13.797 33.056l7.123 4.033s2.328-1.414 3.309-1.943c7.623-4.103 20.055-18.724 22.902-28.371 4.827-16.358-9.381-29.947-18.312-17.512-4.392 6.108-7.905 2.024-4.308-5.009 3.282-6.418 11.855-9.64 17.548-6.592 3.315 1.774 2.577-2.827-2.545-15.708-1.712-4.321-3.11-9.034-5.527-18.593-2.34-9.246-1.43-20.393 2.622-31.737 5.848-16.355 3.777-26.614-5.584-27.509-4.995-.478-5.54-2.042-1.468-4.348 9.097-5.15 17.913 2.182 17.554 14.606-.192 6.719-.122 6.832 3.424 5.41 17.946-7.197 32.122 11.42 19.574 25.706-3.834 4.365-6.244 1.595-3.725-4.268 3.898-9.061.186-15.519-8.937-15.588-13.234-.1-20.556 18.183-15.343 38.289 1.622 6.275 1.878 6.355 6.27 2.164 3.899-3.72 6.816-4.912 9.836-4.008 6.264 1.874 7.905 8.54 1.904 7.715-10.316-1.42-13.028 9.388-7.194 28.611 7.745 25.504-.096 46.286-22.998 61.07-1.16.747-3.007 2.183-3.007 2.183 8.835 7.872 14.49 12.345 26.159 19.455l41.688-168.434s-.706-9.566-1.732-14.073c-.032-45.212 42.15-49.54 55.357-8.491 1.263 3.942 7.976 14.006 7.976 14.006l219.607 194.877s40.995-39.62 40.431-40.669c-31.141-31.392-73.207-53.586-74.739-103.394-7.463-.215-32.417.246-32.417.246l-106.783-97.939c-33.513.214-63.237-2.183-98.013-1.156zm59.832 3.67c5.867-.184 11.778 2.863 11.778 7.754 0 4.22-2.827 5.186-5.167 1.763-3.27-4.784-7.072-5.166-10.938-1.102-10.72 11.266 5.937 21.563 25.081 15.508 11.727-3.708 17.408-4.708 21.703-3.847 18.087 3.63 26.826 15.836 28.371 39.611.782 12.089.763 12.045 5.989 7.253 12.726-11.662 31.121-5.171 33.981 12.002 1.231 7.369-6.707 16.649-14.247 16.649-2.955 0-2.487-3.087.705-4.608 7.669-3.657 7.97-15.751.52-20.477-9.893-6.272-22.921 3.511-22.761 17.091.192 16.323 12.387 23.843 36.462 22.461 3.527-.203 12.381-.619 19.658-.922 11.502-.49 23.863-2.657 35.584 6.191 12.271 9.761 20.42 29.165 23.902 57.202 5.488 34.509 9.732 43.756 21.318 44.585 6.873.492 12.701-5.364 12.701-12.166 0-4.796-6.341-9.023-11.156-7.434-5.815 1.919-6.988-4.379-1.263-6.772 7.931-3.314 17.619 3.073 19.773 13.043 1.257 5.812-5.302 16.959-12.175 19.741-17.946 7.255-30.705-7.567-34.911-40.738-2.571-15.212-3.988-25.468-8.732-38.469-8.707-23.931-23.011-33.806-38.591-26.648-17.638 8.106-14.138 34.517 4.552 34.322 10.265.812 12.413-6.732 12.631-14.81.237-5.958 6.988-.365 7.572 3.736.551 4.976-3.911 11.131-7.848 14.044-6.36 4.259-4.097 3.992 2.411 5.705 17.49 3.223 30.493 26.372 20.036 34.233-5.437 3.314-11.208-1.564-7.444-6.355 5.995-7.615-4.148-19.648-22.601-23.69-24.171-5.295-33.795-23.286-25.075-41.775 2.885-6.117 3.135-5.975-8.656-5.31-25.941 1.465-35.154-2.121-43.861-17.151-2.628-4.535-3.789-10.605-4.347-22.66-1-21.584-2.968-34.946-5.687-38.71-13.47-18.63-41.495-13.055-37.988 7.554 1.84 10.822 13.022 14.291 20.652 6.412 5.77-5.952 8.456-.422 2.827 5.81-13.547 14.993-37.116-2.509-30.115-22.36 1.603-4.544 1.821-4.399-6.873-4.649-19.331-.556-28.525-17.097-16.067-28.871 2.186-2.062 5.225-3.05 8.296-3.146zm46.644 71.008a5.61 5.61 0 1 1 0 11.22 5.61 5.61 0 0 1 0-11.22zm77.72 19.915a5.611 5.611 0 0 1 0 11.22c-3.096 0-5.61-2.512-5.61-5.61s2.514-5.61 5.61-5.61zm-16.689 36.606a5.61 5.61 0 1 1 0 11.22 5.61 5.61 0 0 1 0-11.22zm246.984 21.819l3.552 16.593 12.881 3.388-2.014-14.217zm45.041 5.743l-.282 9.84 11.457 1.348 4.052-16.963zM562.872 855.07c3.097 0 5.611 2.512 5.611 5.61s-2.514 5.61-5.611 5.61c-3.096 0-5.61-2.512-5.61-5.61s2.514-5.61 5.61-5.61zm164.487 22.855l-13.464 3.735-6.469 18.697 17.234-6.24zm26.333 1.683l1.647 13.853 16.593 7.497-5.61-19.747zM509.208 997.703L406.233 1183.86l28.14-.39 97.192-175.53zm-323.87 45.067l-9.098 12.24 8.636 14.2 9.912-14.26z" fill="#d40000"/><path d="M73.378 45.757c-12.682.057-25.416 8.594-28.993 25.205-.795 3.71-1.109 10.122-1.385 28.07-.398 26.595-.661 24.444-.661 24.444l-11.399-.28.602 14.807 12.163.1c-.058.069-.263.871.122 9.236.955 20.85 4.212 28.258 16.029 33.861 7.988 3.789 22.76 3.769 29.448-1.483 4.052-2.566 4.456-2.546 9.258.422 10.22 6.31 18.632 2.885 18.632 2.885l-.276-15.147c-16.106-.247-18.247-4.06-14.028-14.527.295-.732.333-2.097.461-3.887 1.186-16.864.712-73.712-1.16-80.484-4.219-15.264-16.901-23.275-28.813-23.222zm-1.385 14.907c5.796.031 11.707 3.945 14.387 11.24 2.84 7.716 2.802 7.046 3.629 54.558.404 23.388-.577 23.294-.577 23.294-8.983-11.898-20.337-20.668-32.769-24.794 0 0 .231 1.103 0-21.948-.244-23.805.045-28.926 3.59-35.137 2.808-4.921 7.239-7.237 11.74-7.213zm288.318 46.196c18.959 57.486 20.722 114.136 4.27 168.569 9.374.476 50.273 10.965 72.784 24.859-4.161 10.715-67.988 89.208-111.317 124.589 12.317 12.195 25.871 24.387 40.117 37.828 21.543 20.441 29.147 34.516 30.57 61.05-.192 12.811-4.783 28.62-12.938 39.811-6.168 8.461-12.714 14.964-25.851 23.662-12.112 8.025-29.82 25.292-52.094 50.751-8.489 9.709-22.812 27.383-34.68 44.24-4.488 6.127-17.708 25.25-17.708 25.25-44.099-35.984-91.319-63.74-92.531-63.528 0 0 47.644-25.39 57.665-30.566 7.7 4.94 18.151.714 13.137-10.156-9.649-24.741-2.924-50.206 8.925-67.984 2.834-4.284 9.668-6.783 20.716-7.553 4.795-.313 9.867-.157 14.945-.221 1.833 0 6.77.706 9.476 2.184 9.008 4.918 10.816-1.406 16.433-22.701 5.584-21.185-3.405-47.978-16.234-48.066-3.014-.021-4.706 1.092-4.084 8.629.468 5.69-.898 8.64-2.366 12.229-3.2 7.829-4.899 15.492-5.912 25.705 1.872.38-11.906-13.709-33.615-19.294-14.112-1.669-21.274-19.237-20.677-19.275 0 0 2.109-4.757 3.962-6.611 4.821 2.305 9.553 5.014 15.272 6.692 0 0-1.321-7.058-1.827-8.957-2.616-9.813-2.481-11.306 1.301-13.343 9.38-5.05 10.368-14.083 3.046-22.3-1.847-2.102-3.405-3.45-5.886-4.509l4.623-18.433s-4.238.913-7.63 1.944c-9.816 2.981-9.079 3.081-13.265-1.683-9.105-10.369-23.005-8.398-25.082 3.566-.231 1.323-.846 3.427-.846 3.427l-20.927-10.157c.609 4.909 6.046 21.537 6.046 21.537-18.312 14.225-2.834 26.823 2.16 28.153 0 0-4.276 13.614-5.751 19.272l20.658-5.903c1.731 3.935 3.873 6.923 8.168 9.678 1.122 11.619 10.073 20.987 16.241 26.624 0-.001.891 4.25.352 6.968-1.327 6.756 5.54 17.454 6.7 18.093-28.345-11.595-57.896-25.508-86.42-39.171l1.782 350.61s6.642 5.95 19.818 15.388c6.328 4.532 6.328 4.552 5.007 9.777-1.737 6.886-1.308 12.15 4.572 57.505 3.109 23.985 6.501 48.855 9.534 71.167 1.205 8.124 1.372 13.336 1.372 13.336-6.296-2.917-15.465-3.212-20.203 2.108-8.181 9.31-1.635 24.31 10.476 23.99 2.751-.18 4.623-.97 6.995-2.59 1.642-.88 3.334-.11 3.334-.11l-18.08 31.76 20.812 35.03 20.754-37.47-15.093-29.63s1.475-.17 3.52.86c2.026 1.02 4.757 1.8 6.649 1.9 10.534.09 12.694-4.71 13.804-13.36 0-11.12-8.855-16.155-21.036-11.96-1.911.66-4.027.84-4.027.84l12.785-122.282 6.854 5.033 2.244-1.225-5.995-5.11c1.301-19.593-5.161-26.53-12.144-31.275 23.345-13.278 13.227-34.269-2.295-40.732 0 0 10.085-5.892 12.105-12.079 1.725-5.527 1.084-14.292-.872-29.836-1.455-23.969-6.61-73.492-6.61-73.492 20.395 15.378 41.335 31.836 61.031 47.385l39.469-54.858 95.127.661s72.309 65.646 108.701 99.118l31.416.282s.34 3.36.661 5.591c2.975 32.41 24.716 54.671 44.515 70.283 8.072 7.251 28.012 26.287 28.012 26.287l-36.963 37.27-226.37-202.185s-1.084-2.95-1.52-4.749c-5.232-21.413-19.42-30.381-32.32-28.871-13.535 1.584-25.082 14.917-24.505 37.607.09 3.51 1.366 9.697 1.366 9.697l-41.355 172.248s-16.541-12.624-25.466-18.69l-1.962 1.142 24.203 18.189 1.802-.782 6.873 5.373.519 3.667c21.178 14.407 57.082 41.29 57.082 41.29 16.952-12.592 34.77-8.38 52.613-3.642 0 0 12.977 4.335 19.875 4.303 35.071.788 66.129 7.604 98.718 19.375L359.01 1186.52l226.326.46c-11.156-44.08-23.011-88.86-1.821-164.05-22.325-4.51-71.95-24.362-71.95-24.362s-.237-1.129 1.859-3.706c9.175-13.124 32.378-48.683 54.12-69.244 2.648-1.898 40.546-38.668 40.912-39.835.211-.654 1.115-3.135 2.603-4.103 3.494-2.334 12.778-11.111 12.778-11.111l-47.42-41.124s-2.09-.205-2.763-.583c-6.623-3.7-18.574-24.357-21.517-38.187-6.771-31.815 5.732-56.968 41.014-82.79 34.443-23.587 99.763-115.141 99.975-117.17 35.225 29.157 62.724 44.255 93.71 63.379-18.721 10.737-33.981 17.918-47.086 25.02-8.495 4.848-9.668 5.86-16.849 3.826-8.136.066-10.919 3.203-8.854 10.219 12.316 19.461 7.027 64.772-9.624 73.505-14.458 7.581-28.512 5.528-40.123 1.228-8.963-2.871-8.848-2.902-12.849 5.23-8.79 18.726-9.354 34.499-1.237 52.457 6.655 14.413 16.554 20.985 17.772 1.552.719-11.419 5.745-24.755 5.585-37.02 10.098 11.149 16.792 16.24 33.365 20.779 11.111 1.731 22.915 15.67 22.55 21.351-3.052 3.084-3.982 7.02-4.476 6.738-5.411-1.763-17.138-6.751-17.138-6.751l4.995 17.631s-.827.802-3.225 2.027c-11.034 5.622-10.323 20.843 1.257 26.928 2.359 1.237 2.526 1.821 1.526 5.065-1.443 7.232-4.604 12.086-6.309 19.254 0 0 1.57.057 14.785-6.046l5.186-2.405 3.129 3.347c6.841 7.316 15.061 7.271 22.235-.122l3.289-3.385 9.175 4.648c8.649 4.379 10.919 5.29 10.919 5.29s-4.982-19.35-5.911-21.562c-.5-1.193-1.52-2.411-2.264-2.686-1.231-.456-1.038-.744 2.244-3.341 8.323-6.597 9.156-15.689 2.065-22.607-2.699-2.635-3.046-3.18-3.046-3.18l4.309-17.933-17.862 5.918c-2.821-6.001-7.297-8.726-10.131-9.951-.301-8.091-1.314-16.407-15.221-29.057 4.687-4.276-.884-14.592-5.475-20.779 7.822 2.628 27.384 10.906 27.384 10.906l2.955-.122 9.342 4.475 1.096 1.661s29.384 13.868 42.874 20.356c-.032-.724-.141-15.24-.18-175.013-.025-95.259.135-173.61-.057-174.112-.193-.502-3.424-2.979-6.777-5.51-6.181-4.669-7.45-5.58-15.305-10.819-6.302-4.204-5.879-4.171-4.571-9.016 1.507-5.566 1.475-13.217-.519-27.55-1.468-10.58-6.803-47.789-10.515-77.819-2.61-21.067-3.225-25.743-3.873-29.133-1.032-8.532.077-12.249-.109-12.373 29.506 12.78 31.84-29.603 2.257-23.88 5.655-11.414 10.425-16.712 15.279-28.905-6.174-13.283-19.831-35.743-19.831-35.743l-21.613 37.648 12.72 26.047c-14.637-2.637-22.402 8.017-19.696 17.572 2.943 8.449 11.047 10.819 18.196 7.413 5.501-2.171 5.495-2.722.615 38.569-1.442 12.209-7.847 69.302-8.732 77.799-.596 5.707-.962 7.291-3.289 6.031-3.148-1.354-4.95-3.33-8.111-5.409l-1.763 1.642c2.808 2.278 6.136 5.224 9.534 8.349-.782 15.121-.474 23.88 12.111 31.259-22.812 14.301-9.469 36.301 3.931 39.481-7.989 2.064-15.862 12.337-13.958 32.752l6.475 84.131-61.851-45.922L651.252 616l-95.653.12-107.892-97.354s-23.653-.323-33.36-.561c1.103-.513-2.032-30.095-17.65-49.409-16.972-20.179-55.607-53.486-55.582-53.496l40.579-41.194 227.787 205.028s1.103 5.806 1.68 8.275c7.617 32.369 44.445 34.331 52.273 1.362 1.27-5.327 2.789-17.72 2.225-19.194-.179-.475.962-5.88 2.545-12.022 12.246-48.025 22.678-89.455 34.725-135.563 1.661-6.348 3.417-13.416 3.905-15.708 1.987-9.356 1.686-9.297 11.483-1.924 5.994 4.515 8.469 6.132 8.469 6.132l1.905-1.984c-6.72-5.205-18.228-13.504-18.228-13.504l.115-3.526c-36.982-26.485-44.598-33.516-66.5-50.872-16.965 14.942-41.232 8.89-56.44 3.607-3.918-1.542-13.542-4.048-13.542-4.048-37.879.049-71.154-7.262-102.584-17.531L592.69 106.846l-46.804.003-1.635 1.835H519.9l-.083-1.833zm446.882 709.698c.006.135.019 0 .019 0zM498.441 111.736l16.567.32-98.051 174.954-10.425-4.068s.955-.5.942-7.874c-.012-7.913-1.724-11.295-5.289-15.968-2.981-4.044-4.257-4.267 4.488-3.065 17.882 2.457 30.589-16.982 23.485-32.158-2.744-5.855-2.353-6.211 4.886-6.933 19.94-1.987 27.697-27.285 13.586-39.891-2.917-2.641-1.616-4.32 3.827-3.146 17.254 3.723 30.615-15.407 23.761-30.394-2.231-4.182-.224-4.875 2.931-5.29 14.765-3.463 19.792-15.062 19.292-26.487zm-132.161.019l76.759.02c-10.329 15.798 7.912 25.151 10.22 24.044-16.548 9.038-12.002 21.776-3.424 26.153 8.329 4.247 20.818.425 17.491-17.958l4.103-1.783c3.994 4.515 7.957 32.506-22.498 28.611-5.424-.694-8.36 4.369-3.828 7.172 24.069 27.67-13.605 39.895-15.246 35.304l-.128-4.683c10.188 1.875 23.229-11.255 11.797-22.925-6.501-6.634-25.351-3.401-22.126 16.733-11.131-16.632-23.287-11.614-26.563-2.828-2.539 6.813.692 16.138 11.797 17.724-12.406 10.39-6.379 21.983 2.148 24.542 9.406 2.826 19.016-1.008 16.42-18.105.154-1.619 3.436-1.091 3.712-1.182 9.726 24.281-13.528 33.201-26.088 28.191-4.655-1.811-7.085 5.363-2.142 9.016 7.495 5.544 5.181 21.501 4.302 21.66-13.945-5.289-33.929-9.201-33.179-8.903 13.323-52.695 12.464-106.276-3.527-160.803zm122.383.02l6.931.021c.09 9.924-4.219 22.139-21.158 24.023.077-2.661-.115-5.182-.801-7.994 6.353-1.439 14.785.325 15.028-16.05zm30.275.541l22.139.1L436.91 297.309l-16.651-8.556zm-54.619 14.026c3.911 0 7.091 3.16 7.091 7.072s-3.18 7.093-7.091 7.093-7.072-3.181-7.072-7.093 3.161-7.072 7.072-7.072zm-217.151 3.246c-16.69 43.232-48.779 69.43-72.13 112.922-24.383 44.215-13.22 82.295 21.222 89.361 18.158 3.725 39.38-13.959 42.092-33.18.647-4.588 1.449-5.891 3.609-5.891 3.155 0 2.796 8.006.802 18.854-4.802 28.768-14.682 46.27-22.203 57.003l59.806-.501c-12.149-14.608-21.478-34.3-23.479-58.626-1.468-13.225-.391-19.036 3.847-16.77 1.392.745 1.744 2.06 2.366 8.896 2.167 23.713 27.005 36.638 47.061 26.207 27.691-14.654 26.947-42.049 20.581-62.011-19.145-52.238-61.41-86.601-83.574-136.264zM64.401 145.954c7.188 6.089 14.311 12.971 19.209 19.066-6.886 4.931-14.131 5.229-18.574 2.774-5.001-2.763-7.168-9.173-7.642-19.95-.263-5.979 1.846-6.255 7.007-1.89zm8.637 57.165c.205-.051-10.823 22.519-18.914 34.663-5.771 10.669-20.004 29.261-16.189 44.139 4.411 15.474 20.94 19.417 29.73 7.513 4.122-5.58 5.007-4.915 4.892 1.323-.103 11.926-6.431 18.705-11.06 24.564l30.211.22c-6.399-7.692-12.163-14.083-12.823-24.524.019-3.93 1.186-6.786 3.949-2.545 3.116 3.034 5.764 8.616 14.266 7.053 8.822-1.574 16.516-13.021 14.747-24.123-2.366-12.898-10.432-25.574-18.536-36.445-6.758-9.074-20.523-31.384-20.273-31.838zm346.881 3.847c3.623 0 6.553 2.93 6.553 6.552s-2.93 6.572-6.553 6.572c-3.622 0-6.552-2.95-6.552-6.572s2.93-6.552 6.552-6.552zm342.913 5.23l17.631 30.695-20.113 35.624-16.791-34.142zm-.321 10.458l-12.4 20.478 11.259 20.977 12.804-19.936zm.244 8.777l6.411 12.381-7.796 12.563-6.469-13.284zm-17.093 41.594c1.333.004 2.763.288 4.231.902 11.874 4.962 8.092 23.018-4.59 21.899-1.674-.175-3.879-1.027-5.469-2.104-8.797-7.215-3.501-20.724 5.828-20.697zm29.031.341c10.393.187 16.651 14.638 5.713 21.398-5.277 2.937-13.163 1.155-16.266-4.067-2.667-4.482-1.513-11.953 4.443-15.829 2.128-1.084 4.187-1.538 6.11-1.502zm-14.426 20.616c1.039.088 2.167 5.13 3.206 13.885.378 3.174 1.391 11.108 2.244 17.632 1.635 13.951 3.321 26.943 4.77 40.392.289 2.645 1 8.271 1.584 12.503 6.007 43.681 7.373 57.634 5.95 61.35-3.79 13.025-21.562 14.02-28.993 6.451-5.61-5.719-6.437-12.001-4.225-28.371 1.275-9.451 1.801-14.206 5.552-50.33.872-8.463 2.141-19.715 2.821-25.005 1.487-14.133 3.244-27.379 5.168-41.314.557-4.984 1.218-7.252 1.923-7.193zm-291.101 32.459s56.934 18.762 100.244 17.912c6.353-.005 7.386-.061 15.304 2.524 4.693 1.533 12.079 3.611 16.407 4.609 13.355 2.586 25.094 1.855 35.488-2.385 1.634-.666 4.032-2.674 6.45-1.943 1.474.446 3.628 3.386 3.628 3.386-37.924 10.069-126.64 8.211-181.868-15.067zm292.486 5.971c-.237.039-.481.362-.763.801-.923 1.464-.16 11.078 3.289 41.654 6.585 58.409 6.553 59.658-1.423 65.798-3.924 3.018-4.533 4.232-2.648 5.33 1.404.818 1.295.814 4.148.02 6.713-1.864 9.496-7.192 9.438-18.073-.039-8.293-.141-9.293-2.725-29.673a3851.66 3851.66 0 0 1-2.725-22.119c-4.321-36.386-5.315-43.951-6.591-43.738zm-298.212 6.11c56.672 20.295 115.895 26.043 187.274 15.087 0 0 6.86 4.447 10.316 6.632l-2.404.561 1.083 9.858 12.124-1.943s6.553 5.214 11.438 8.415c-63.647 19.434-166.442 16.084-229.852-12.102-2.411-1.392-3.828-2.505-3.828-2.505 1.366-3.36 3.027-5.357 4.707-7.233l11.585 3.306 3.347-10.558-8.861-3.227zm14.843 12.643l-3.706 10.398 16.189 4.809 2.764-10.619zm24.768 6.432l-2.148 11.841 16.253 3.005 2.02-11.521zm26.883 5.549l-1.282 11.421 17.234 1.823 1.058-11.561zm118.433.181l-14.663 1.603.923 10.058 14.824-1.743zm-25.864 2.905l-14.547.962.5 10.539 14.631-.922zm-65.538.22l-.019 11.2 14.906.562.18-11.441zm40.995 1.403l-13.746.06-.058 10.659 13.881.06zm-159.371 1.883c1.488-.043 4.873 3.257 6.277 6.953 2.751 7.268 1.488 15.325-2.827 17.992-5.873 3.631-12.778-2.055-8.733-7.193.712-.908 1.86-1.821 2.565-2.044 3.02-.958 3.725-5.714 2.077-13.945-.237-1.217.064-1.746.641-1.763zm21.985 2.785c61.346 20.085 130.962 26.831 202.681 12.142 0 0-33.988 138.803-34.719 138.869zm-30.076.421c3.231 0 3.815 5.482.904 8.395-3.725 3.72-10.816.736-9.341-3.927.435-1.355 6.302-4.468 8.437-4.468zm17.632 3.226c.666-.049 1.936 1.28 3.949 3.987 6.886 9.277 7.431 19.641 1.257 24.364-7.226 5.536-12.515-3.056-6.489-10.559 1.558-1.944 1.789-5.534.86-13.485-.327-2.83-.244-4.258.423-4.307zm237.886 3.346c.795-.026 2.199.586 5.007 1.964 4.398 2.153 5.924 5.303 3.808 7.854-3.077 3.705-11.502-3.634-9.918-8.636.243-.761.487-1.162 1.103-1.182zm-6.611 4.829c1.103.109 2.866 2.128 4.912 6.231 1.307 2.635 2.07 3.389 4.282 4.188 5.245 1.893 6.22 7.326 1.603 8.935-5.014 1.747-8.745-1.855-11.04-10.659-1.507-5.806-1.174-8.836.243-8.695zm-219.453 3.886c.757-.046 2.219 1.66 4.527 5.069 6.854 10.12 4.494 29.547-4.148 34.082-3.809 1.998-6.463 1.573-9.515-1.483-4.469-4.466-3.366-7.999 3.264-10.439 5.648-2.076 7.469-8.502 5.731-20.196-.698-4.672-.724-6.98.141-7.033zm32.661 3.206c41.892 34.549 79.714 71.587 128.467 114.826 11.579-35.619 28.454-109.572 28.512-109.816-1.84 1.519-81.894 12.876-156.979-5.01zm156.979 5.01c.038-.033.051-.058.019-.081l-.019.081zm25.986-4.91c.698 0 2.718 5.197 3.866 9.938 1.045 4.296 5.193 11.49 6.796 11.761 8.252 1.397 11.771 6 7.694 10.079-3.001 2.994-9.483 1.297-12.605-3.286-5.873-8.614-9.88-28.492-5.751-28.492zm-467.482 4.769c4.988.041 9.771 3.181 10.983 9.657 1.41 7.537-2.853 13.017-6.457 12.139-3.917-1.464-5.251-7.669-5.251-7.669s-.929 5.059-2.539 7.612c-3.513 5.361-10.899-2.599-9.578-10.319 1.295-7.537 7.2-11.465 12.842-11.42zm298.199 1.984c45.624 6.854 84.882 8.632 139.309 2.725l-25.646 99.578zm-34.462.16c.673.044 2.064 1.257 4.225 3.546 7.091 7.497 9.137 17.9 4.527 23.062-2.802 3.141-4.687 3.503-7.668 1.462-3.809-2.607-4.097-6.529-.603-8.335 3.212-1.661 3.501-5.308.962-12.222-1.898-5.155-2.43-7.578-1.443-7.513zm-297.654 2.565l16.67 6.912 5.969 14.085-16.631-4.288zm63.032 1.863l-4.95 14.025-12.823 4.789 4.988-15.168zm434.84 2.945c.616-.009 1.533 1.765 2.648 5.43 2.751 9.072 3.918 11.365 6.431 12.562 4.091 1.951 4.385 6.913.519 8.676-2.455 1.118-3.263.888-5.007-1.402-2.725-3.569-4.918-10.401-5.315-16.53-.372-5.746-.071-8.723.724-8.736zm-185.574 6.332c.487-.034 1.192.675 2.244 1.923 6.475 7.697 7.181 19.505 1.385 23.041-5.617 3.425-13.471-3.641-8.579-7.714a90.277 90.277 0 0 1 2.263-1.803c1.366-1.04 1.481-1.647 1.603-8.335.096-4.966.282-7.057 1.084-7.112zm49.202.82l79.81 72.525 18.318-71.744c-31.519 2.83-64.449 1.989-98.128-.781zm-196.045 3.647c25.217 26.623 58.204 48.144 66.039 74.614 14.047 36.44 3.744 78.717-29.134 102.905-18.145 13.732-35.93 28.188-50.728 45.642-24.28 25.845-40.482 54.085-56.703 74.573-2.751 3.445-9.996 14.286-9.996 14.286s-3.552 4.056-15.407-5.891c-31.467-27.976-64.486-48.269-98.096-67.6l14.221-7.955c28.063 16 62.955 38.774 94.333 65.315 0 0 24.953-36.44 32.916-46.882 11.547-14.986 19.664-24.637 30.416-36.225 27.467-33.907 55.825-45.122 67.622-62.292 17.286-25.153 18.023-54.971 3.809-80.424-14.022-24.288-41.284-40.941-59.39-61.049zm239.31 1.964h31.198s-4.584 3.822-8.098 6.171c-2.199 1.474-4.776 1.271-9.636-.762-4.719-1.974-13.464-5.409-13.464-5.409zm35.724 0l7.271.221c-5.437 6.83-11.009 11.236-18.311 17.311-.943.406-1.468.572-3.668-.141-14.906-4.933-28.595-11.201-43.117-17.131l12.945-.06s6.232 1.99 15.586 5.871c10.733 4.45 13.516 5.82 17.651 3.105 3.994-2.654 7.296-6.649 11.643-9.176zm14.728 0l-2.603 9.557c-4.354 5.434-13.15 11.697-20.498 17.872-1.725.899-1.667 1.062-9.201-1.863-27.723-10.769-41.129-17.772-41.129-17.772l-5.63-5.029s7.226 2.068 11.996 3.947a771.565 771.565 0 0 0 12.323 4.688c3.527 1.304 11.329 4.618 16.529 6.672 12.009 4.738 11.342 4.883 22.844-5.269 12.458-10.993 15.369-12.803 15.369-12.803zm-420.095.882l12.105 13.865-16.131 13.564-12.182-14.346zm459.173.014c2.782 5.208 4.648 11.368 9.168 15.753 3.405 3.245 4.251 5.746 2.231 7.574-5.263 3.255-6.174-2.001-7.802-5.434-2.873-6.049-6.373-14.225-3.597-17.893zm-437.617 1.388c.314-.01.622-.005.942 0 12.907.195 15.952 19.264 3.809 23.843-4.354 1.641-9.361.895-12.06-1.804-2.623-2.618-2.988-4.831-1.193-6.204 2.802-1.991 9.463-2.127 9.463-2.127s-6.046-2.051-8.745-3.561c-5.302-3.023-.705-9.809 7.784-10.147zm265.699.02c.731.04 1.987 1.525 3.77 4.468 6.507 10.751 6.168 31.207-.622 36.385-3.533 2.692-7.931 2.307-10.881-.962-3.891-4.308-2.699-8.663 3.084-11.22 5.585-2.468 6.72-7.983 4.45-21.619-.795-4.752-.737-7.104.199-7.052zm-313.144.341c3.853-.137 7.572 1.369 9.418 4.408 1.366 2.244.705 3.895-1.872 5.015-3.135 1.24-9.085 2.363-9.085 2.363s5.77.95 9.252 2.365c4.372 1.926 4.026 5.463-2.366 8.501-12.304 5.848-23.934-10.133-13.778-19.307 2.365-2.136 5.436-3.239 8.431-3.345zm323.665 7.713c.09-.014.192-.013.301 0 1.129.139 3.213 1.775 5.309 4.549 7.335 9.718 8.611 24.322 2.366 27.169-6.604 3.006-11.348-3.195-6.598-8.616 3.367-3.839 2.95-9.456-1.519-20.577-.654-1.617-.5-2.421.141-2.525zm158.46.461c.584-.044 1.635 2.293 3.328 7.013 3.731 10.389 6.924 14.746 10.758 14.746 4.828 0 7.354 6.611 3.546 9.277-7.514 5.266-17.369-7.637-18.087-23.723-.218-4.833-.122-7.268.455-7.313zm-39.751 5.189l-2.225 8.476s-5.123 4.985-8.79 8.154c-5.828 5.035-7.264 6.036-11.861 4.469-7.079-2.444-14.086-4.658-21.46-6.893l-17.054-14.105 38.911 15.187s3.373.994 4.546-.18c5.097-5.092 10.694-9.04 17.933-15.108zm36.706 7.935c.493-.111.981.511 1.327 2.063 1.763 7.983 4.315 13.767 6.469 14.667 2.725 1.14 3.77 3.503 2.622 5.91-3.308 6.945-12.021-5.32-12.021-16.93 0-3.295.789-5.525 1.603-5.71zm-140.431.561c.474-.029 1.244.68 2.442 1.883 5.386 5.379 7.008 20.243 2.687 24.564-6.245 6.245-12.913-3.037-6.854-9.537 1.603-1.718 1.609-1.84 1.225-9.457-.263-5.302-.289-7.405.5-7.453zm-325.942 1.483l-4.206 13.945-13.445 3.466 3.142-11.481zm16.106 1.422c1.071-.043 2.276.362 3.546 1.283 5.481 3.967 5.93 10.746 3.366 15.747-2.45 4.885-7.457 6.285-12.298 5.791-6.289-.699-11.034-5.078-10.701-11.781.109-3.36 1.571-7.085 3.847-8.676 1.597-1.12 2.911-.66 4.296 1.638 1.295 2.249 3.501 7.339 3.501 7.339s.07-5.224.808-7.911c.609-2.138 1.936-3.361 3.635-3.43zm10.258 1.222l9.739 3.326 3.847 13.224-10.899-4.227zm555.198 2.467s2.795 1.182 16.086 11.739c3.328 2.64 8.938 7.693 8.938 7.693l-.321 172.57s-26.216-14.17-29.614-17.531c-1.808-1.934-.937-7.352-.295-17.191 3.077-25.843 4.334-45.648 7.649-69.565 2.321-26.657 7.443-34.312-10.4-45.616 19.209-12.06 13.785-30.823 1.731-38.638zm-156.601.659l-1.763 7.894c-6.322 10.82-11.983 10.266-21.658 5.249l-11.624-9.877c7.52 1.567 11.566 3.976 18.914 6.291 3.648 1.008 4.988.36 7.559-1.943 2.949-2.688 5.167-4.695 8.572-7.614zm-86.151 4.147c3.936 4.299 4.962 8.533 4.622 18.995-.756 7.439-.423 12.979-6.527 17.15-2.981 1.955-8.136 1.958-10.444.02-5.52-3.7-2.475-11.1 4.764-11.462 4.571-.081 6.45-15.013 3.853-24.342-.404-1.448-.295-2.398.423-2.466s2.052.738 3.309 2.105zm123.479-.561c.884-.009 2.455 2.264 3.385 5.971 1.346 5.37 3.244 8.384 6.213 9.898 3.802 1.942 5.033 5.673 2.603 7.874-4.841 4.383-9.791-.873-11.381-12.082-.077-1.273-2.295-11.541-.82-11.661zm103.943 1.844c10.803.168 16.913 7.727 16.894 16.885-.115 6.604-3.725 13.319-10.367 16.105-15.862 4.669-24.518-5.948-24.364-16.277.115-8.334 7.04-16.881 17.837-16.713zm-217.991 5.99c9.085 9.084 9.495 28.511.603 28.511-10.663-3.53-2.347-9.824-2.142-11.46.834-6.692-.699-10.981-2.263-17.231-.693-3.695 2.802-.902 3.802.18zm218.574-.882c-1.904-.057-1.769 1.861 1.725 4.869 6.328 5.456 3.231 15.526-4.789 15.568-3.7.02-4.61 2.512-1.385 3.807 12.457 5.003 20.965-13.933 9.797-21.819-2.328-1.647-4.206-2.39-5.348-2.425zm-476.368 2.545c10.021 3.416 13.477 22.514 13.856 29.253.455 11.723-5.008 30.892-9.874 34.722-12.612 9.917-18.517-25.142-7.732-47.706.942-1.85 2.122-4.348 1.679-8.956-.436-4.571.334-7.279 2.071-7.313zm331.25 1.843s-1.263 5.726-2.609 8.857c-1.552 3.622-2.693 3.736-6.309.641-2.013-1.724-5.347-5.29-5.347-5.29 3.148.492 5.956 2.124 8.636.802 2.847-1.411 5.149-4.058 5.629-5.01zm38.046.301c.712.025 1.622 2.019 2.828 5.971 3.295 10.817 6.18 14.886 10.559 14.886 7.162 0 8.72 8.626 1.962 10.84-2.506.82-3.353.814-6.552-.04-4.828-1.286-11.425-17.562-10.477-25.846.443-3.896.969-5.835 1.68-5.811zm-441.188 6.292c2.629-.064 3.661 1.231 5.206 4.428 1.757 3.637 6.373 8.263 10.278 10.278 9.412 4.626 19.331 8.241 28.634 12.883 12.06 6.059 22.869 24.612 15.464 26.548-2.68.618-5.77.651-8.514.4-.898-.47-2.648-2.497-3.886-4.528-5.501-9.003-15.791-17.816-31.66-21.939-11.181-2.906-21.202-16.686-23.357-23.162-.558-1.677-.583-2.993.917-3.426 3.187-.915 5.334-1.444 6.918-1.482zm340.13 1.122c.494-.082 1.231.556 2.34 1.742 6.662 7.117 7.489 20.186 1.507 23.883-6.488 4.009-12.169-2.62-7.078-8.255 2.244-2.483 2.244-2.481 2.244-9.937 0-5.138.154-7.297.987-7.433zm96.929 8.294c.802.032 2.001 2.242 3.45 6.592 2.051 6.174 2.333 6.659 4.686 7.875 3.976 2.055 4.623 5.135 1.706 8.054-5.443 5.442-10.925-3.317-10.945-17.472-.006-3.403.398-5.077 1.103-5.049zm-87.042.979c.493.047 1.878 1.133 2.955 2.407 8.156 9.674 6.515 32.326-2.583 35.725-3.039 1.134-3.969 1.197-5.854.38-6.783-2.935-5.956-10.098 2.404-14.646 6.251-3.401 1.795-23.777 3.078-23.866zm-417.081 7.136l33.679 16.71s9.233 19.438 13.484 26.728c2.917 5.054 8.758 9.932 2.725 13.304-10.13 6.868-15.875 10.78-15.785 15.047.07 3.451 4.366 6.969 10.136 13.765 8.297 9.76 8.213 7.512.68 22.399-5.771 10.442-10.675 34.082-10.675 34.082l-34.026 17.531c10.124-24.18 22.049-44.757 35.404-59.467-9.918-7.37-18.266-15.04-26.967-25.224 6.425-8.6 14.901-15.546 22.723-23.022-15.888-17.96-25.845-35.188-31.378-51.853zm425.967.3c.051-.008.115-.003.18 0 1.41.093 4.635 3.604 7.469 9.237 3.667 7.276 4.02 16.441.763 19.695-5.61 5.611-12.919-1.601-7.675-7.573 3.7-2.688 2.693-9.374-.218-16.329-1.346-3.336-1.327-4.9-.519-5.03zm-429.692 3.266c8.764 18.62 18.561 33.765 28.608 48.107l-21.915 23.001c6.745 7.83 14.926 16.24 26.403 26.007-14.093 15.674-23.338 37.621-32.596 58.344zm504.104.401c.757.057 1.84 2.313 2.943 6.852 1.398 5.723 2.359 7.186 5.693 8.616 5.303 2.273 5.424 7.395.218 9.236-1.91.675-5.475-1.24-6.95-3.747-1.949-3.578-2.949-8.395-2.93-12.802-.308-5.456.167-8.219 1.026-8.155zm121.53 3.449c8.284 2.322 11.278 10.625 9.662 26.004-2.161 20.57-4.706 43.455-6.77 62.352-2.379 21.799-3.758 33.123-4.29 33.98-1.68 2.72-1.955-7.522-.737-18.913 1.853-16.28 2.872-30.537 4.449-46.804 3.52-36.193 2.655-47.632-3.891-50.972-5.065-2.584-7.239-1.06-3.507 2.465 7.129 5.493 6.905 7.792-.718 96.913-.783 9.221-1.103 15.749-1.103 15.749l-9.675-6.011s-.718-7.639-1.622-19.174c-2.187-21.727-3.463-44.892-4.912-65.718-1.551-22.218 2.604-29.994 16.388-30.535 2.206-.084 4.649.093 6.726.664zm-177.81 12.912c1.058 2.942 5.86 24.859-6.437 18.565-3.277-1.849-3.456-4.744-1.039-7.557 2.706-3.146 3.34-7.669 1.988-14.125-.828-3.929-1.828-7.186-1.828-7.186 2.373.866 7.04 9.535 7.316 10.303zm-365.635-6.872c10.399 1.974 21.825 8.042 29.191 15.63 4.565 4.856 4.335 8.767-2.808 9.222-6.873 1.012-7.02 2.13-10.31-.713-1.474-1.155-4.347-3.989-7.623-4.496-10.374-1.605-15.676-21.014-8.45-19.643zm419.87 5.739c1.096 1.764 1.211 5.229 2.122 7.713 1.558 6.944 6.322 12.083 10.605 11.441 2.872-.346 6.841.523 7.27 3.967.834 2.913-.692 5.67-3.847 6.932-3.565 1.425-7.578.551-10.617-2.304-6.405-6.015-10.316-25.65-5.533-27.749zm-50.036.271c3.732 1.432 8.496 13.376 9.002 22.85-.013 6.785-1.058 15.321-6.912 18.553-3.718 1.922-7.559.963-9.238-2.284-2.059-3.983-.526-8.098 3.731-10.018 5.206-2.349 6.899-12.91 3.725-23.222-.179-1.718-2.783-6.59-.308-5.879zm-397.346 4.958l27.448 13.904c-3.995 5.454-7.13 10.511-9.297 16.27-8.72-9.895-13.297-19.981-18.151-30.174zm407.662 4.76c.475-.011 2.052 1.495 3.437 2.834 6.847 6.633 9.803 18.678 5.668 23.081-3.309 3.519-9.092 3.276-10.06-.421-.346-1.812 1.577-5.205 2.43-6.832 1.263-2.425 1.488-9.346-.423-14.406-.859-2.268-1.654-4.242-1.052-4.256zm-190.69 2.733l31.012 1.062 103.905 93.588-9.752-.22-95.474-86.997-29.717.08zm-178.695 16.86c-11.842 18.817-15.074 42.541-7.803 63.625 5.52 14.951-6.533 15.846-11.477 5.993-3.802-7.367-5.988-20.19-4.834-33.844 1.622-22.079 11.816-44.243 19.972-46.905 8.284-2.702 6.469 8.126 4.142 11.131zm425.755 45.292c-3.154 14.719-8.989 22.046-17.272 25.105-33.923 12.528-48.702-55.889-17.228-72.25 29.993-9.97 38.661 27.704 34.5 47.145zm-248.945-44.701l29.249.602c26.672 24.253 55.338 46.885 83.875 76.377h-13.81s-4.033-3.837-4.988-4.749c-25.794-23.039-44.9-41.846-69.764-63.254l-26.108-.721zm223.178 4.512c-15.818.64-17.1 22.069-16.632 30.186 1.154 11.696 5.815 28.977 20.658 27.614 10.893-1.087 15.939-13.986 14.939-29.478-.936-14.577-6.88-28.336-18.965-28.322zm-225.846 7.109l25.666.582c22.613 19.718 46.528 41.138 70.289 64.776h-11.201s-2.93-2.791-3.808-3.687c-19.235-17.39-38.79-36.768-57.441-52.394l-26.627-1.042zm226.269.842c4.488 1.664 5.238 12.601 1.32 17.133-2.686 3.106-8.86-2.774-9.418-10.18-.333-4.516 4.058-8.45 8.098-6.953zm-424.204 1.362c-2.065 7.074-3.418 15.024-4.264 23.623l-10.739-13.645zm432.359 13.164c2.622 0 4.745 2.124 4.745 4.748s-2.123 4.749-4.745 4.749-4.751-2.125-4.751-4.749 2.129-4.748 4.751-4.748zm-215.651 2.384l51.151 48.087-14.56.16-41.957-38.029-26.627-1.001 5.206-9.076zm198.936.822c2.629 0 4.751 2.124 4.751 4.748s-2.122 4.749-4.751 4.749c-2.622 0-4.744-2.125-4.744-4.749s2.122-4.748 4.744-4.748zm60.89.1c28.839 22.411 69.539 52.144 111.823 76.257 0-.083-6.969 5.475-13.387 7.233-32.904-18.141-72.059-43.729-96.307-64.476-22.895 33.702-66.878 95.016-105.976 123.321-24.671 17.65-37.097 39.406-37.02 64.836.071 26.309 9.361 43.428 35.238 64.977 16.695 13.9 34.943 31.634 34.943 31.634l-9.592 8.278c-1.597-.193-28.005-22.947-54.722-49.767-14.683-14.746-21.209-47.098-18.715-64.558 3.398-23.742 11.316-40.758 33.82-59.087 8.643-6.689 17.375-11.885 24.986-19.494 69.937-74.804 94.909-119.154 94.909-119.154zm-46.804 12.222c2.648 5.435 4.104 12.565-4.186 13.043-4.905.284-7.72-7.888-3.463-15.167 3.219-5.731 6.085-.853 7.649 2.124zm-246.438-1.443l27.607.822s27.23 23.733 40.976 36.886h92.486c50.863 0 92.666.204 92.903.441.635.632-6.572 10.298-6.572 10.298l-305.027.181c.064-.048 18.843-16.769 25.569-21.459 11.906-8.305 22.825-16.038 32.058-27.169zm-186.915 11.481c1.994 7.365 3.661 14.874 7.11 21.658l-21.177 11.241c3.892-11.211 8.348-21.993 14.067-32.899zm588.095 61.23c-4.206 11.461-15.215 34.849-28.512 52.574-2.642 3.397-4.45 6.051-4.45 6.051l25.948 24.845-22.517 23.942c12.643 13.161 23.344 33.32 28.967 49.368-10.214-4.033-15.952-6.476-28.551-13.483-3.564-8.938-7.193-18.408-11.201-26.568-9.187-18.622-9.065-16.8-1.564-22.28 10.989-8.022 14.259-9.882 11.406-13.925-2.007-2.843-14.971-18.23-15.753-18.714-1.186-.736-.66-3.012 1.545-6.652 7.508-13.485 13.663-28.346 17.491-41.554zm4.905.941l.686 156.563c-9.297-18.708-18.965-37.813-29.737-49.751-.404-.812 23.505-24.164 23.505-24.164-8.765-8.118-13.888-12.97-26.127-24.243 11.919-17.179 21.357-39.638 31.673-58.405zm-658 5.43l29.75 17.268c-1.578 22.084-3.559 51.075-6.604 80.487-2.558 22.949-3.61 33.522.455 39.889 3.449 4.661 12.74 9.7 12.74 9.7-15.644 6.335-21.678 25.018-4.142 38.989 0 0-4.257 3.353-6.149 5.372l-24.402-18.253zm465.616 7.914c-7.418 8.311-19.048 20.634-27.967 26.528-11.906 7.862-28.614 22.952-27.813 23.182 0 0-17.51-.089-29.371-.561l-40.912-36.506s1.462-.538-54.222-.08c-71.956.591-130.269-.2-130.269-.2l8.175-11.481zm145.843 7.173c-4.033 12.944-10.278 24.908-18.196 36.125-1.834-7.958-2.84-16.403-6.668-23.161zm-577.939 4.148l3.571 2.544s-2.129 27.015-2.828 34.923c-1.256 14.608-1.872 27.773-3.148 42.656-2.558 29.553-2.128 33.907 3.668 38.472 4.462 3.334 7.508 1.82 3.545-2.405-2.603-3.353-2.59-3.289-3.385-8.219-.551-3.424-.462-8.534.321-22.398 4.417-78.074 5.334-80.701 5.43-80.725l8.893 5.751c-.494 1.199 8.149 78.691 7.271 97.955-1.026 22.524-31.346 17.548-32.782.834-.597-3.841 5.161-67.093 5.161-67.093zm247.304 4.547l11.906.342 73.412 67.481 25.024.54-2.186 8.516-24.185-.06zm45.522 0h11.521l42.015 38.089 25.87.401-4.93 7.333-25.73-.741zm-14.343.041l62.108 56 21.178 1.102-3.264 7.654-25.107-.701-69.783-63.915zm-59.89.2h12.907l97.089 87.417 25.447.461-.378 7.874-30.634-.141zm326.75 2.484c5.116 1.286 7.649 6.251 11.258 24.665 4.213 21.473-4.917 56.332-16.349 62.873-5.918 4.653-12.355-.282-8.175-6.352 13.644-19.815 15.439-52.236 7.373-70.366-2.558-5.828.077-11.869 5.893-10.82zm-411.939 3.227c31.025.37 39.039 64.086 8.521 73.021-19.825 2.928-30.032-15.017-32.911-31.21-3.391-20.119 5.476-42.038 24.39-41.811zm-17.055 38.223c1.853 12.769 9.771 27.393 21.286 26.143 15.138-1.644 17.042-21.857 15.542-32.032-1.815-12.278-8.579-23.407-19.395-24.02-16.125-.913-18.863 20.058-17.433 29.909zm16.632-24.8c4.327-.07 7.514 5.71 6.334 12.884-.769 4.644-2.539 10.36-7.758 6.477-2.43-2.219-4.61-8.728-4.026-13.59.384-3.197 1.962-5.682 5.45-5.771zm427.807 14.727l14.567 16.85-16.548 11.601c2.321-8.867 3.09-18.296 1.981-28.451zm-417.248 1.523c2.623 0 4.751 2.144 4.751 4.768s-2.128 4.749-4.751 4.749c-2.622 0-4.751-2.125-4.751-4.749s2.129-4.768 4.751-4.768zm-16.99 2.925a4.75 4.75 0 0 1 4.751 4.749c0 2.623-2.129 4.748-4.751 4.748s-4.77-2.125-4.77-4.748c0-2.625 2.148-4.749 4.77-4.749zm9.617 6.131c2.385.724 3.911 2.917 5.187 4.82 3.18 4.727 3.597 10.661 1.334 13.144-4.559 5.421-11.689-.376-10.829-8.748.628-6.138 2.256-9.838 4.308-9.216zm40.675 18.593c6.809 0 8.732 8.033 2.866 11.962-3.822 2.553-4.668 10.859-2.309 22.36 1.911 8.309.911 9.591-4.045 2.103-8.47-13.572-6.283-36.425 3.488-36.425zm-15.933 4.368c5.976-.228 7.899 4.337 4.411 7.834-2.045 2.266-1.84 8.246.436 13.163 3.225 7.123 2.469 9.271-3.565 2.425-8.335-8.914-8.206-23.158-1.282-23.422zm394.987 3.467c6.783 9.013 12.791 20.773 18.273 34.097l-29.391-13.501zM304.32 790.047c-2.084-2.411-3.091-10.208-4.796-13.539-1.327-3.999-2.475-6.329-4.636-6.194-12.419 1.053-11.893-10.823-4.763-13.066 14.753-4.643 20.132 30.978 14.195 32.799zm61.614-11.99c-2.103 6.226-.57 9.951-.134 16.599.371 3.02.525 3.815-1.956 1.501-5.892-5.142-9.021-22.683-3.719-25.934 7.136-4.37 9.297 3.009 5.809 7.834zm294.474-8.321c2.885-.133 6.155 2.108 7.777 6.231 2.334 5.931 2.116 20.472.943 28.211-1.802 11.848-4.661 22.728-5.835 30.877-4.154 4.944-14.4-12.547-15.368-26.351-1.609-10.944 2.161-33.685 10.579-38.488a4.929 4.929 0 0 1 1.904-.48zm39.687 1.864c2.578-.119 1.988.751 3.892 2.744 2.898 3.027 4.071 3.764 8.155 5.047 8.432 2.654 17.703 14.406 14.131 17.978-2.821 2.237-10.502-1.988-13.13-2.886-2.821-.974-6.341-2.186-7.835-2.686-7.059-2.385-17.222-15.411-14.061-18.034 1.687-1.403 6.841-2.071 8.848-2.163zm-20.549 2.163c5.219.052 6.649 1.354 9.637 6.974 4.43 8.329 12.656 14.202 24.601 17.593 15.253 4.655 28.416 13.496 27.774 29.871-3.641.039-7.277.283-10.918 1.385-4.226-11.88-14.728-18.689-23.768-20.741-20.85-4.732-40.206-25.883-34.699-34.28 2.404-1.229 4.988-.831 7.373-.802zm-359.704 1.042l180.144 156.884c-76.028-28.21-145.766-27.601-213.208-17.176zm76.823 10.388c-.34 4.886-7.04 5.924-8.425 7.13-3.366 2.93-2.917 11.386-1.481 21.254 1.103 5.918-.372 5.661-3.488 1.019-5.508-8.213-5.399-22.459-1.744-30.852 4.712-10.808 15.612-5.392 15.138 1.449zm-103.591-7.681c6.905.718 8.809 10.117 9.091 16.349 0 8.585-2.436 8.265-3.802 0-.654-3.667-1.795-5.084-4.75-5.975-6.72-2.013-7.156-10.374-.539-10.374zm83.709 9.598c-1.77 1.943-1.815 11.047-.199 17.17.891 3.379-.757 3.642-3.046.962-7.456-8.745-8.142-23.569-1.224-26.428 5.629-1.469 7.091 5.405 4.469 8.296zm-77.939 17.529c.167 8.726-1.827 9.528-4.449 1.161-.673-1.943-1.866-3.899-2.725-4.488-4.905-3.354-5.771-5.976-2.924-8.816 6.976-5.7 10.002 9.547 10.098 12.143zm26.326-7.694l-24.428 104.168c60.114-5.039 87.427-6.097 151.658 6.45zm72.828 1.725c3.68.917 4.95 5.719.661 10.258-1.405 1.796-2.713 4.572-1.001 11.939 2.347 10.072-1.603 6.847-6.411-2.661-3.078-6.097-1.667-21.652 6.751-19.536zm-114.984.321c6.534 0 12.586 10.598 12.682 22.196.071 9.374-1.269 8.701-4.751-.263-2.449-5.924-4.424-8.065-8.873-9.617-8.245-2.866-7.527-12.316.942-12.316zm44.137 3l113.125 98.859c-46.323-7.399-91.8-7.969-135.963-2.423zm94.153 3.732c8.873 0 12.361 10.957 1.481 14.797-6.482 2.283-3.719 15.394-2.526 23.191.449 2.936-.475 3.141-2.34.519-6.835-10.092-10.663-35.526 3.385-38.507zm-11.983 12.316c-1.609 2.539-1.789 5.264-.68 10.182 2.873 10.572 3.623 12.528-2.385 7.155-6.322-6.687-9.085-19.927-3.789-23.844 5.95-4.405 11.31.48 6.854 6.507zm-223.543-8.155c10.502-.077 18.131 6.719 17.727 16.202-.442 10.438-6.982 17.022-16.586 17.567-10.72.545-17.343-8.008-17.581-16.869-.211-7.828 4.777-16.817 16.44-16.9zm-.18 4.193c-12.015-.039-16.516 15.804-6.572 23.12 4.264 3.135 7.636 2.25 4.129-1.084-6.61-6.277-3.949-16.663 4.745-18.574 4.302-.942 2.635-3.449-2.302-3.462zm146.323 2.68l-14.464 70.167c29.595-4.597 65.391-3.193 93.024-.602zm-48.727 2.667c7.194-.365 9.303 10.464 9.354 14.766.007 5.571-.647 8.476-1.68 5.494-2.417-7.027-4.808-10.88-7.411-10.88-1.411-.365-2.616-.93-3.751-2.205-2.558-3.386-.077-7.034 3.488-7.175zm50.067 2.808l9.541 8.092c-6.136-2.687-11.362 4.27-11.362 4.27zm98.16 13.24c-2.769 3.482-2.75 10.829-.602 19.376.602 2.391-1.635.622-3.886-2.225-4.27-5.379-6.277-11.682-5.501-16.85.859-13.066 17.439-10.521 9.989-.301zm-150.875-6.251c6.174.699 8.502 13.586 8.36 17.49-.205 4.085-1.134 6.841-1.942 4.36-1.59-5.385-4.873-13.124-7.72-14.894-4.872-3.045-3.494-6.527 1.302-6.956zm472.579 14.439c.218 4.545-1.667 9.2-4.469 10.7-2.866 1.533-4.61-.545-6.315-5.783-1.257-3.853-1.706-5.334-1.706-5.334s-1.058 4.821-1.391 5.828c-2.231 6.687-9.502 6.751-12.541-.718-3.244-8.713 5.809-17.645 12.759-17.324 7.713.353 13.259 5.328 13.663 12.631zm-412.247-9.727c2.167 0 10.579 3.764 10.579 3.764l8.373 7.412s-7.7-3.347-10.418-4.309c-6.482-2.289-6.348-2.308-11.579 1.968-5.392 4.405-9.816 7.63-9.816 7.63l1.66-9.515s7.886-6.95 11.201-6.95zm-54.959 23.383c1.237 10.053-1.578 10.906-4.309 1.302-2.34-8.226-4.642-11.221-8.617-11.221-7.315 1.09-9.777-9.764-3.206-11.944 12.407-3.482 15.6 17.894 16.132 21.863zm425.159-22.062l11.445 5.309 2.423 11.842-10.54-2.603zm-256.415 1.09c11.015-3.052 12.374 10.656 3.937 12.676-5.155 1.237-5.123 9.219-3.661 20.818.339 2.641 1.051 5.847.884 6.289-.782 2.097-3.404-1.109-6.93-8.533-5.271-13.554-3.623-28.64 5.77-31.25zm314.741-.167l-3.187 13.702-9.675-.661-.359-8.392zm-326.038 8.912c-5.302 7.675-.539 14.76.641 20.767.205 3.488-4.302.071-6.899-5.014-5.411-10.611-5.725-19.176-.859-23.004 6.816-3.994 9.951 3.148 7.117 7.251zm-99.282-1.878c1.872.013 4.411 1.032 9.739 3.084 4.033 1.551 13.381 5.347 13.381 5.347l12.361 10.919s-10.855-4.001-18.414-7.194c-17.016-7.187-14.573-7.418-28.031 2.827-3.879 2.956-7.931 6.329-7.931 6.329l1.642-8.771s5.084-5.053 11.418-9.618c2.732-1.968 3.963-2.942 5.835-2.923zm-158.326 4.142c8.714-.238 14.439 6.687 16.529 14.425 1.212 4.489.167 8.624-.077 12.926-6.014 46.067-8.662 88.819-14.188 131.476-.68 2.04-1.417 1.28-2.302-2.39-6.399-38.671-10.566-81.122-15.952-119.449-1.231-14.311-4.924-33.026 13.188-36.687a17.308 17.308 0 0 1 2.802-.301zm-.519 5.11c-3.841.153-8.386 2.795-9.996 6.193-3.295 6.944-2.436 21.075 3.822 63.435.525 3.527 1.243 9.413 1.603 13.08 1.102 11.252 2.59 20.183 3.667 21.844 2.052 3.154 2.314-.237.846-11.246a735.18 735.18 0 0 1-2.269-19.074c-2.815-20.087-3.424-34.379-5.168-52.709-.872-9.015 2.757-15.657 9.559-17.452 3.681-.975 3.879-2.635.443-3.751-.77-.25-1.622-.353-2.507-.32zm576.035.564c12.72.032 17.401 17.843 4.943 24.12-4.616 2.334-12.368 1.237-14.291-2.488-.93-2.898.115-4.584 2.423-5.809 2.809-1.5 6.925-2.782 6.925-2.782s-6.739-1.302-8.637-4.495c-4.09-6.873 3.424-8.418 8.637-8.546zM282.61 872.242c-.141 3.353-1.853 1.968-2.282 0-1.372-4.469-4.232-9.316-6.63-11.246-2.898-2.327-3.59-5.482-1.622-7.45 7.386-6.527 10.496 16.599 10.534 18.696zm431.629-19.26c3.257-.096 7.687 1.006 10.489 3.808 3.616 3.616 3.418 4.976-2.641 7.181-2.943 1.097-4.969 1.949-4.969 1.949s2.731 1.071 4.763 1.635c5.809 1.943 5.502 5.309.167 9.297-7.264 5.424-18.939-1.776-18.798-11.323.109-7.572 4.77-12.368 10.989-12.547zm26.858-.058l11.617 12.804-13.579 14.067-12.785-14.029zm-394.91 1.206c.167-.013.327 0 .5 0 3.603.064 9.348 2.494 23.44 8.174a4466.407 4466.407 0 0 0 16.696 6.668l12.682 11.22s-17.375-5.449-23.428-8.514c-1.308-.661-4.193-1.892-6.411-2.725-2.212-.827-7.7-2.975-12.201-4.789-9.669-3.892-9.778-3.918-13.022-1.18-1.385 1.167-4.789 3.834-7.553 5.93-2.763 2.091-6.802 5.162-8.976 6.809-2.558 1.95-5.79 4.892-5.79 4.892l2.046-10.822s1.821-1.789 5.084-4.283c2.648-2.026 7.155-5.482 10.021-7.675 2.911-2.231 4.424-3.59 6.912-3.705zm124.723 9.495c.359 2.25.147 2.686-2.443 5.328-3.27 3.34-3.719 8.816-1.321 15.907.661 1.962 1.462 4.276 1.282 4.456-3.455 3.456-12.553-18.369-10.38-24.87 2.597-7.778 11.137-7.893 12.862-.821zm-199.456.942c2.379-.115 5.142 1.693 6.527 5.45 3.764 10.502 1.462 23.383-2.378 11.381-1.001-2.539-2.719-5.271-4.033-6.655-1.347-1.43-4.373-3.097-4.302-5.431.288-3.058 2.083-4.648 4.186-4.745zm77.759.302c1.526.045 3.558.808 7.213 2.302 3.302 1.352 12.599 4.449 17.894 6.494 8.214 3.168 16.786 7.348 16.786 7.348l-18.594-1.039s-6.315-2.103-10.078-3.648c-13.612-5.591-12.855-5.565-19.632-.417-2.424 1.834-5.469 4.809-5.469 4.809l-9.457.519s4.443-4.744 10.861-9.495c2.096-1.558 4.962-3.776 6.347-4.931 1.597-1.333 2.603-1.993 4.129-1.942zm145.464 3.667c5.174-.981 8.008 3.95 7.681 7.027-.352 3.373-3.488 6.739-8.309 7.675-1.02 3.77-3.905 12.38-2.219 25.229 1.36 6.014-1.192 6.149-3.789.378-4.212-9.354-10.348-37.097 6.636-40.309zm-14.772 10.297c-2.193 4.687-2.956 8.47-1.744 14.387 1.347 6.572 1.635 8.194-2.103 4.085-7.232-9.65-8.29-25.005-1.622-26.768 6.437-1.699 7.848 5.283 5.469 8.296zm-216.907-7.194c11.297 1.789 14.618 21.024 13.041 29.25-2.988 9.963-2.841 3.231-3.886-.917-2.782-10.021-5.995-15.478-9.437-16.048-9.259-1.545-7.964-13.586.282-12.285zm86.555 3.783a2.1 2.1 0 0 1 .538.045c3.719.622 13.67 3.693 9.38 4.725l-14.688.084c-2.847.102 1.853-4.642 4.77-4.854zm395.468 3.148c1.423-.128 3.372 1.539 5.655 3.866 5.218 5.328 2.93 13.715-4.129 17.856-11.086 6.495-23.697-5.751-17.613-16.99 3.341-6.174 7.354-5.072 10.778 3.635.622 1.058-.007-1.09 1.16-3.738 1.167-2.641 2.725-4.501 4.149-4.629zm-18.594.622l-3.321 13.387-13.509 6.489 4.931-16.491zm28.095 2.283l10.759.865 5.969 17.388-15.509-6.61zm-254.241 9.828c7.828.327 8.623 7.713 4.129 10.951-2.52 2.411-3.385 5.899-2.866 11.483.231 2.475.724 5.514.705 5.867-.077 1.192-1.064 1.006-2.404-.462-8.265-9.008-7.168-28.153.436-27.839zm-236.726 2.898c4.963 0 10.586 14.208 7.822 19.645-1.743 3.187-3.43 2.398-4.064-1.301-.475-2.7-2.02-6.386-6.021-7.047-5.809-1.852-3.917-11.297 2.263-11.297zm251.036 8.592c3.789 1.962 4.142 6.315.718 8.758-2.654 1.891-3.353 3.488-3.763 8.617.865 11.662-5.687 4.257-6.303-6.354-.339-5.777 2.789-14.349 9.348-11.021zm-255.203 3.59c3.565 0 7.79 6.386 6.854 10.118-.5 2.962-2.052 2.436-4.225.237-.84-.654-2.732-1.334-3.61-1.603-5.328-1.609-4.437-8.752.981-8.752zm101.167 4.905c48.105-.224 98.154 7.412 139.751 24.024l-3.43 6.149-10.918-3.745-3.745 9.9 8.996 3.423-4.232 9.137c-49.093-16.144-102.033-28.166-190.018-15.144-4.366-3.039-12.265-9.04-12.265-9.04l7.034-1.539-.924-9.778-17.766 3.168-5.193-5.431c27.781-7.13 59.787-10.97 92.71-11.124zm161.365 2.148c4.609.006 7.469 5.18 4.09 7.392-2.366 1.552-7.623 1.975-8.675.699-2.186-2.628.911-8.098 4.585-8.091zm-168.161 6.046l-.199 10.143 14.503-.462.301-9.617zm25.344.224l.065 9.957 14.086.462.66-9.758zm-36.84.68l-14.246.942.436 9.297 14.131-.622zm63.692 1.545l-.359 9.592 14.323 1.583 1.039-9.752zm-90.204.462l-14.323 1.821 1.218 9.553 13.926-1.539zm117.895 3.103l-1.404 10.015 13.362 1.987 1.724-9.521zm234.475 2.904c6.456 9.028 12.624 16.722 16.914 26.807 5.507 12.964 9.2 29.897 9.194 43.861-.007 8.342-5.822 6.662-7.008-2.026-5.007-36.571-49.022-42.079-66.321-8.29-4.494 9.675-5.353 21.628-2.987 34.958 8.367 47.17 67.814 92.73 86.459 142.22 34.994-71.73 65.718-82.87 81.644-141.26 12.829-44.881-30.852-78.26-62.532-49.184-5.783 5.328-11.124 15.241-11.739 21.78-1.314 10.514-5.988 8.944-6.437.276-.161-9.124 3.75-26.646 9.277-42.252 2.943-8.232 7.322-18.369 13.246-26.89zm-207.989 2.706l-1.321 10.117 13.58 2.886 1.827-9.4zm-96.153 11.663c45.105-.058 86.215 7.713 120.837 20.875 0 0-4.488 9.675-6.071 10.72-24.845-9.918-67.18-19.138-95.795-19.638-10.482-.385-12.803-.667-16.67-2-21.799-7.175-41.052-10.272-58.806.32l-7.251-5.129c21.927-3.488 43.252-5.129 63.756-5.148zm493.243 37.725s2.558 3.436 4.129 5.328c6.982 8.412 11.252 23.468 6.655 23.468-1.141 0-1.699-1.06-3.392-2.69-6.251-9.244-18.76-6.01-23.6.82-4.976 7.03-5.514 18.4-1.661 26.73 12.522 25.83 36.533 55.31 36.103 58.69 12.836-28.66 23.364-36.73 32.878-57.71 3.411-10.39 3.45-16.46.802-24.44-3.616-10.898-21.171-15.867-27.39-4.51-2.052 3.46-3.674 4.46-5.065 3.06-2.847-2.84 2.083-18.392 7.854-24.777 1.019-1.129 2.923-3.969 2.923-3.969zm-683.748 20.096c10.316.12 15.227 15.94 4.334 22.58-2.93 1.65-6.771 1.44-9.861.04-8.829-4.2-9.489-17.34.802-21.64 1.66-.69 3.257-.99 4.725-.98zm337.129.52c3.693 2.26 17.331 8.29 17.331 8.29l-95.795 173.18-23.177.18zm-308.97.41c5.738-.64 9.816 4.29 11.297 8.41 2.02 5.62-1.609 15.6-11.72 15.02-11.611-.65-16.811-21.51.423-23.43zm329.423 9c2.571 1.42 11.881 2.96 12.682 4.76.353.89-.353 2.66-.558 4.95-.5 5.5.879 11.6 4.206 16.49 5.463 7.58-.449 4.09-5.911 4.04-12.31-3.15-27.999 13.63-22.037 30.9 1.379 3.82 1.11 4.12-5.488 6.13-14.984 4.56-21.51 20.45-14.317 34.65 3.751 7.4 3.86 7.02-2.737 7.56-18.325 1.53-28.968 17.79-21.274 34.41 1.186 2.57.43 3.28-3.571 4.02-12.509 2.3-18.113 12.76-19.696 24.24l-16.548.16zm15.868 6.12l31.802 8.68c-13.208 44.89-15.029 97.05.859 157.38l-73.111.06c10.156-9.12 6.143-21.71-5.725-24.48 11.515-6.61 11.521-24.2-2.276-26.32-12.137-1.86-18.401 9.67-13.016 21.23l-5.18 1.41s-2.321-2.91-2.853-4.46c-4.578-13.35 5.001-26.59 21.337-26.55 10.073.03 12.156-2.82 6.591-9.02-9.95-11.06-6.822-26.63 6.175-32.74 5.982-2.82 9.508-.96 9.508-.96l.314 7.34s-2.43.23-4.315.54c-14.355 2.29-11.695 25.17 2.898 24.98 8.027-.12 13.772-6.2 13.772-14.95 0-2.46.013-6.09.013-6.09 7.373 12.62 20.036 13.52 25.434 3.26 6.348-12.08-5.174-19.67-16.721-18.42 0 0 2.424-1.58 3.956-2.37 12.297-6.32 8.059-24.4-5.54-24.4-9.335 0-14.778 8.68-11.771 17.87.481 1.48 1.628 3.84 1.628 3.84l-5.558 1.41s-1.257-.96-1.821-1.84c-9.528-14.89 5.77-31.29 25.043-27.57 7.059 2.21 6.828-2.67 2.866-7.07-4.257-6.36-7.437-13.55-4.309-20.76zm-359.345 6.49l16.696 29.42-18.696 33.87-18.536-31.73zm-1.641 15.31l-11.579 15.95 11.342 18.31 10.758-18.53zm-.5 5.99l7.533 10.1-7.591 12.4-7.437-11.64zm344.9 31.77c3.507 0 6.373 2.85 6.373 6.36s-2.866 6.35-6.373 6.35c-3.514 0-6.354-2.84-6.354-6.35s2.84-6.36 6.354-6.36zm346.843 34.99c-4.886.12-10.175 1.55-15.67 4.39-5.918 3.06-5.918 3.05-8.232 1.52-5.636-3.73-7.373-4.61-13.727-4.61-3.943 0-6.675.22-6.675.22l.545 15.23c13.682-.37 17.44 4.28 14.567 12.52-2.981 3.74-2.308 57.47-1.365 78.2-.225 10.18 4.302 19.87 10.559 25.74 9.772 8.67 27.076 8.02 37.129.79 6.707-4.83 9.9-12.92 11.329-21.12.68-16.86.295-33.76.295-50.63l10.836.12-.122-15.27-10.579-.62s.109.44-.34-10.87c.744-23.68-11.412-34.97-27.588-35.61-.327-.01-.635-.01-.962 0zm-.866 15.35c8.932.68 12.56 4.22 14.619 11.84 1.468 5.43 2.026 11.85.795 13.87-2.007 3.28-9.727-2.44-19.838-14.78-3.411-4.15-4.924-6.29-4.924-6.29 1.956-3.49 6.104-4.89 9.348-4.64zm-16.227 20.5c9.277 7.98 10.592 16.08 32.487 23.77 0 0 .622-.85.25 25.85-.404 29.46-2.167 35.48-11.06 37.93-7.7 2.11-14.952-1.46-18.151-8.93-3.27-7.65-4.065-25.66-3.943-59.91.039-12.44.417-18.71.417-18.71zm-374.682 8.91c3.635 0 6.591 2.94 6.591 6.57 0 3.64-2.956 6.59-6.591 6.59s-6.572-2.95-6.572-6.59c0-3.63 2.937-6.57 6.572-6.57zm-9.963 4.48c-.603.25.012 5.97 1.455 8.34-9.495.58-12.009 7.84-12.932 13.97l-8.502-.02c1.417-20.74 19.376-21.2 19.979-22.29z"/></g></svg>